G04 #@! TF.GenerationSoftware,KiCad,Pcbnew,5.1.4-e60b266~84~ubuntu18.04.1*
G04 #@! TF.CreationDate,2019-10-17T22:07:23-04:00*
G04 #@! TF.ProjectId,SmallKat v2,536d616c-6c4b-4617-9420-76322e6b6963,rev?*
G04 #@! TF.SameCoordinates,Original*
G04 #@! TF.FileFunction,Soldermask,Bot*
G04 #@! TF.FilePolarity,Negative*
%FSLAX46Y46*%
G04 Gerber Fmt 4.6, Leading zero omitted, Abs format (unit mm)*
G04 Created by KiCad (PCBNEW 5.1.4-e60b266~84~ubuntu18.04.1) date 2019-10-17 22:07:23*
%MOMM*%
%LPD*%
G04 APERTURE LIST*
%ADD10C,0.100000*%
G04 APERTURE END LIST*
D10*
G36*
X161096693Y-136796859D02*
G01*
X161362437Y-136849719D01*
X161863087Y-137057095D01*
X162043561Y-137177684D01*
X162313660Y-137358158D01*
X162696842Y-137741340D01*
X162877316Y-138011439D01*
X162997905Y-138191913D01*
X163131363Y-138514109D01*
X163205281Y-138692564D01*
X163311000Y-139224049D01*
X163311000Y-139765951D01*
X163275186Y-139946000D01*
X163205281Y-140297437D01*
X162997905Y-140798087D01*
X162941521Y-140882471D01*
X162696842Y-141248660D01*
X162313660Y-141631842D01*
X162050774Y-141807496D01*
X161863087Y-141932905D01*
X161362437Y-142140281D01*
X161096694Y-142193140D01*
X160830951Y-142246000D01*
X160289049Y-142246000D01*
X160023306Y-142193140D01*
X159757563Y-142140281D01*
X159256913Y-141932905D01*
X159069226Y-141807496D01*
X158806340Y-141631842D01*
X158423158Y-141248660D01*
X158178479Y-140882471D01*
X158122095Y-140798087D01*
X157914719Y-140297437D01*
X157844814Y-139946000D01*
X157809000Y-139765951D01*
X157809000Y-139224049D01*
X157914719Y-138692564D01*
X157988637Y-138514109D01*
X158122095Y-138191913D01*
X158242684Y-138011439D01*
X158423158Y-137741340D01*
X158806340Y-137358158D01*
X159076439Y-137177684D01*
X159256913Y-137057095D01*
X159757563Y-136849719D01*
X160023307Y-136796859D01*
X160289049Y-136744000D01*
X160830951Y-136744000D01*
X161096693Y-136796859D01*
X161096693Y-136796859D01*
G37*
G36*
X103096693Y-136796859D02*
G01*
X103362437Y-136849719D01*
X103863087Y-137057095D01*
X104043561Y-137177684D01*
X104313660Y-137358158D01*
X104696842Y-137741340D01*
X104877316Y-138011439D01*
X104997905Y-138191913D01*
X105131363Y-138514109D01*
X105205281Y-138692564D01*
X105311000Y-139224049D01*
X105311000Y-139765951D01*
X105275186Y-139946000D01*
X105205281Y-140297437D01*
X104997905Y-140798087D01*
X104941521Y-140882471D01*
X104696842Y-141248660D01*
X104313660Y-141631842D01*
X104050774Y-141807496D01*
X103863087Y-141932905D01*
X103362437Y-142140281D01*
X103096694Y-142193140D01*
X102830951Y-142246000D01*
X102289049Y-142246000D01*
X102023306Y-142193140D01*
X101757563Y-142140281D01*
X101256913Y-141932905D01*
X101069226Y-141807496D01*
X100806340Y-141631842D01*
X100423158Y-141248660D01*
X100178479Y-140882471D01*
X100122095Y-140798087D01*
X99914719Y-140297437D01*
X99844814Y-139946000D01*
X99809000Y-139765951D01*
X99809000Y-139224049D01*
X99914719Y-138692564D01*
X99988637Y-138514109D01*
X100122095Y-138191913D01*
X100242684Y-138011439D01*
X100423158Y-137741340D01*
X100806340Y-137358158D01*
X101076439Y-137177684D01*
X101256913Y-137057095D01*
X101757563Y-136849719D01*
X102023307Y-136796859D01*
X102289049Y-136744000D01*
X102830951Y-136744000D01*
X103096693Y-136796859D01*
X103096693Y-136796859D01*
G37*
G36*
X103771000Y-132346000D02*
G01*
X101969000Y-132346000D01*
X101969000Y-130544000D01*
X103771000Y-130544000D01*
X103771000Y-132346000D01*
X103771000Y-132346000D01*
G37*
G36*
X105520443Y-130550519D02*
G01*
X105586627Y-130557037D01*
X105756466Y-130608557D01*
X105912991Y-130692222D01*
X105937101Y-130712009D01*
X106050186Y-130804814D01*
X106133448Y-130906271D01*
X106162778Y-130942009D01*
X106246443Y-131098534D01*
X106297963Y-131268373D01*
X106315359Y-131445000D01*
X106297963Y-131621627D01*
X106246443Y-131791466D01*
X106162778Y-131947991D01*
X106146539Y-131967778D01*
X106050186Y-132085186D01*
X105948729Y-132168448D01*
X105912991Y-132197778D01*
X105756466Y-132281443D01*
X105586627Y-132332963D01*
X105520442Y-132339482D01*
X105454260Y-132346000D01*
X105365740Y-132346000D01*
X105299558Y-132339482D01*
X105233373Y-132332963D01*
X105063534Y-132281443D01*
X104907009Y-132197778D01*
X104871271Y-132168448D01*
X104769814Y-132085186D01*
X104673461Y-131967778D01*
X104657222Y-131947991D01*
X104573557Y-131791466D01*
X104522037Y-131621627D01*
X104504641Y-131445000D01*
X104522037Y-131268373D01*
X104573557Y-131098534D01*
X104657222Y-130942009D01*
X104686552Y-130906271D01*
X104769814Y-130804814D01*
X104882899Y-130712009D01*
X104907009Y-130692222D01*
X105063534Y-130608557D01*
X105233373Y-130557037D01*
X105299557Y-130550519D01*
X105365740Y-130544000D01*
X105454260Y-130544000D01*
X105520443Y-130550519D01*
X105520443Y-130550519D01*
G37*
G36*
X108060443Y-130550519D02*
G01*
X108126627Y-130557037D01*
X108296466Y-130608557D01*
X108452991Y-130692222D01*
X108477101Y-130712009D01*
X108590186Y-130804814D01*
X108673448Y-130906271D01*
X108702778Y-130942009D01*
X108786443Y-131098534D01*
X108837963Y-131268373D01*
X108855359Y-131445000D01*
X108837963Y-131621627D01*
X108786443Y-131791466D01*
X108702778Y-131947991D01*
X108686539Y-131967778D01*
X108590186Y-132085186D01*
X108488729Y-132168448D01*
X108452991Y-132197778D01*
X108296466Y-132281443D01*
X108126627Y-132332963D01*
X108060442Y-132339482D01*
X107994260Y-132346000D01*
X107905740Y-132346000D01*
X107839558Y-132339482D01*
X107773373Y-132332963D01*
X107603534Y-132281443D01*
X107447009Y-132197778D01*
X107411271Y-132168448D01*
X107309814Y-132085186D01*
X107213461Y-131967778D01*
X107197222Y-131947991D01*
X107113557Y-131791466D01*
X107062037Y-131621627D01*
X107044641Y-131445000D01*
X107062037Y-131268373D01*
X107113557Y-131098534D01*
X107197222Y-130942009D01*
X107226552Y-130906271D01*
X107309814Y-130804814D01*
X107422899Y-130712009D01*
X107447009Y-130692222D01*
X107603534Y-130608557D01*
X107773373Y-130557037D01*
X107839557Y-130550519D01*
X107905740Y-130544000D01*
X107994260Y-130544000D01*
X108060443Y-130550519D01*
X108060443Y-130550519D01*
G37*
G36*
X184961000Y-132116000D02*
G01*
X183159000Y-132116000D01*
X183159000Y-130314000D01*
X184961000Y-130314000D01*
X184961000Y-132116000D01*
X184961000Y-132116000D01*
G37*
G36*
X181630443Y-130320519D02*
G01*
X181696627Y-130327037D01*
X181866466Y-130378557D01*
X182022991Y-130462222D01*
X182058729Y-130491552D01*
X182160186Y-130574814D01*
X182243448Y-130676271D01*
X182272778Y-130712009D01*
X182356443Y-130868534D01*
X182407963Y-131038373D01*
X182425359Y-131215000D01*
X182407963Y-131391627D01*
X182356443Y-131561466D01*
X182272778Y-131717991D01*
X182243448Y-131753729D01*
X182160186Y-131855186D01*
X182058729Y-131938448D01*
X182022991Y-131967778D01*
X181866466Y-132051443D01*
X181696627Y-132102963D01*
X181630443Y-132109481D01*
X181564260Y-132116000D01*
X181475740Y-132116000D01*
X181409557Y-132109481D01*
X181343373Y-132102963D01*
X181173534Y-132051443D01*
X181017009Y-131967778D01*
X180981271Y-131938448D01*
X180879814Y-131855186D01*
X180796552Y-131753729D01*
X180767222Y-131717991D01*
X180683557Y-131561466D01*
X180632037Y-131391627D01*
X180614641Y-131215000D01*
X180632037Y-131038373D01*
X180683557Y-130868534D01*
X180767222Y-130712009D01*
X180796552Y-130676271D01*
X180879814Y-130574814D01*
X180981271Y-130491552D01*
X181017009Y-130462222D01*
X181173534Y-130378557D01*
X181343373Y-130327037D01*
X181409557Y-130320519D01*
X181475740Y-130314000D01*
X181564260Y-130314000D01*
X181630443Y-130320519D01*
X181630443Y-130320519D01*
G37*
G36*
X179090443Y-130320519D02*
G01*
X179156627Y-130327037D01*
X179326466Y-130378557D01*
X179482991Y-130462222D01*
X179518729Y-130491552D01*
X179620186Y-130574814D01*
X179703448Y-130676271D01*
X179732778Y-130712009D01*
X179816443Y-130868534D01*
X179867963Y-131038373D01*
X179885359Y-131215000D01*
X179867963Y-131391627D01*
X179816443Y-131561466D01*
X179732778Y-131717991D01*
X179703448Y-131753729D01*
X179620186Y-131855186D01*
X179518729Y-131938448D01*
X179482991Y-131967778D01*
X179326466Y-132051443D01*
X179156627Y-132102963D01*
X179090443Y-132109481D01*
X179024260Y-132116000D01*
X178935740Y-132116000D01*
X178869557Y-132109481D01*
X178803373Y-132102963D01*
X178633534Y-132051443D01*
X178477009Y-131967778D01*
X178441271Y-131938448D01*
X178339814Y-131855186D01*
X178256552Y-131753729D01*
X178227222Y-131717991D01*
X178143557Y-131561466D01*
X178092037Y-131391627D01*
X178074641Y-131215000D01*
X178092037Y-131038373D01*
X178143557Y-130868534D01*
X178227222Y-130712009D01*
X178256552Y-130676271D01*
X178339814Y-130574814D01*
X178441271Y-130491552D01*
X178477009Y-130462222D01*
X178633534Y-130378557D01*
X178803373Y-130327037D01*
X178869557Y-130320519D01*
X178935740Y-130314000D01*
X179024260Y-130314000D01*
X179090443Y-130320519D01*
X179090443Y-130320519D01*
G37*
G36*
X103771000Y-129806000D02*
G01*
X101969000Y-129806000D01*
X101969000Y-128004000D01*
X103771000Y-128004000D01*
X103771000Y-129806000D01*
X103771000Y-129806000D01*
G37*
G36*
X108060443Y-128010519D02*
G01*
X108126627Y-128017037D01*
X108296466Y-128068557D01*
X108452991Y-128152222D01*
X108477101Y-128172009D01*
X108590186Y-128264814D01*
X108673448Y-128366271D01*
X108702778Y-128402009D01*
X108786443Y-128558534D01*
X108837963Y-128728373D01*
X108855359Y-128905000D01*
X108837963Y-129081627D01*
X108786443Y-129251466D01*
X108702778Y-129407991D01*
X108686539Y-129427778D01*
X108590186Y-129545186D01*
X108488729Y-129628448D01*
X108452991Y-129657778D01*
X108296466Y-129741443D01*
X108126627Y-129792963D01*
X108060443Y-129799481D01*
X107994260Y-129806000D01*
X107905740Y-129806000D01*
X107839557Y-129799481D01*
X107773373Y-129792963D01*
X107603534Y-129741443D01*
X107447009Y-129657778D01*
X107411271Y-129628448D01*
X107309814Y-129545186D01*
X107213461Y-129427778D01*
X107197222Y-129407991D01*
X107113557Y-129251466D01*
X107062037Y-129081627D01*
X107044641Y-128905000D01*
X107062037Y-128728373D01*
X107113557Y-128558534D01*
X107197222Y-128402009D01*
X107226552Y-128366271D01*
X107309814Y-128264814D01*
X107422899Y-128172009D01*
X107447009Y-128152222D01*
X107603534Y-128068557D01*
X107773373Y-128017037D01*
X107839557Y-128010519D01*
X107905740Y-128004000D01*
X107994260Y-128004000D01*
X108060443Y-128010519D01*
X108060443Y-128010519D01*
G37*
G36*
X105520443Y-128010519D02*
G01*
X105586627Y-128017037D01*
X105756466Y-128068557D01*
X105912991Y-128152222D01*
X105937101Y-128172009D01*
X106050186Y-128264814D01*
X106133448Y-128366271D01*
X106162778Y-128402009D01*
X106246443Y-128558534D01*
X106297963Y-128728373D01*
X106315359Y-128905000D01*
X106297963Y-129081627D01*
X106246443Y-129251466D01*
X106162778Y-129407991D01*
X106146539Y-129427778D01*
X106050186Y-129545186D01*
X105948729Y-129628448D01*
X105912991Y-129657778D01*
X105756466Y-129741443D01*
X105586627Y-129792963D01*
X105520443Y-129799481D01*
X105454260Y-129806000D01*
X105365740Y-129806000D01*
X105299557Y-129799481D01*
X105233373Y-129792963D01*
X105063534Y-129741443D01*
X104907009Y-129657778D01*
X104871271Y-129628448D01*
X104769814Y-129545186D01*
X104673461Y-129427778D01*
X104657222Y-129407991D01*
X104573557Y-129251466D01*
X104522037Y-129081627D01*
X104504641Y-128905000D01*
X104522037Y-128728373D01*
X104573557Y-128558534D01*
X104657222Y-128402009D01*
X104686552Y-128366271D01*
X104769814Y-128264814D01*
X104882899Y-128172009D01*
X104907009Y-128152222D01*
X105063534Y-128068557D01*
X105233373Y-128017037D01*
X105299557Y-128010519D01*
X105365740Y-128004000D01*
X105454260Y-128004000D01*
X105520443Y-128010519D01*
X105520443Y-128010519D01*
G37*
G36*
X181630443Y-127780519D02*
G01*
X181696627Y-127787037D01*
X181866466Y-127838557D01*
X182022991Y-127922222D01*
X182058729Y-127951552D01*
X182160186Y-128034814D01*
X182243448Y-128136271D01*
X182272778Y-128172009D01*
X182356443Y-128328534D01*
X182407963Y-128498373D01*
X182425359Y-128675000D01*
X182407963Y-128851627D01*
X182356443Y-129021466D01*
X182272778Y-129177991D01*
X182243448Y-129213729D01*
X182160186Y-129315186D01*
X182058729Y-129398448D01*
X182022991Y-129427778D01*
X181866466Y-129511443D01*
X181696627Y-129562963D01*
X181630442Y-129569482D01*
X181564260Y-129576000D01*
X181475740Y-129576000D01*
X181409558Y-129569482D01*
X181343373Y-129562963D01*
X181173534Y-129511443D01*
X181017009Y-129427778D01*
X180981271Y-129398448D01*
X180879814Y-129315186D01*
X180796552Y-129213729D01*
X180767222Y-129177991D01*
X180683557Y-129021466D01*
X180632037Y-128851627D01*
X180614641Y-128675000D01*
X180632037Y-128498373D01*
X180683557Y-128328534D01*
X180767222Y-128172009D01*
X180796552Y-128136271D01*
X180879814Y-128034814D01*
X180981271Y-127951552D01*
X181017009Y-127922222D01*
X181173534Y-127838557D01*
X181343373Y-127787037D01*
X181409557Y-127780519D01*
X181475740Y-127774000D01*
X181564260Y-127774000D01*
X181630443Y-127780519D01*
X181630443Y-127780519D01*
G37*
G36*
X184961000Y-129576000D02*
G01*
X183159000Y-129576000D01*
X183159000Y-127774000D01*
X184961000Y-127774000D01*
X184961000Y-129576000D01*
X184961000Y-129576000D01*
G37*
G36*
X179090443Y-127780519D02*
G01*
X179156627Y-127787037D01*
X179326466Y-127838557D01*
X179482991Y-127922222D01*
X179518729Y-127951552D01*
X179620186Y-128034814D01*
X179703448Y-128136271D01*
X179732778Y-128172009D01*
X179816443Y-128328534D01*
X179867963Y-128498373D01*
X179885359Y-128675000D01*
X179867963Y-128851627D01*
X179816443Y-129021466D01*
X179732778Y-129177991D01*
X179703448Y-129213729D01*
X179620186Y-129315186D01*
X179518729Y-129398448D01*
X179482991Y-129427778D01*
X179326466Y-129511443D01*
X179156627Y-129562963D01*
X179090442Y-129569482D01*
X179024260Y-129576000D01*
X178935740Y-129576000D01*
X178869558Y-129569482D01*
X178803373Y-129562963D01*
X178633534Y-129511443D01*
X178477009Y-129427778D01*
X178441271Y-129398448D01*
X178339814Y-129315186D01*
X178256552Y-129213729D01*
X178227222Y-129177991D01*
X178143557Y-129021466D01*
X178092037Y-128851627D01*
X178074641Y-128675000D01*
X178092037Y-128498373D01*
X178143557Y-128328534D01*
X178227222Y-128172009D01*
X178256552Y-128136271D01*
X178339814Y-128034814D01*
X178441271Y-127951552D01*
X178477009Y-127922222D01*
X178633534Y-127838557D01*
X178803373Y-127787037D01*
X178869557Y-127780519D01*
X178935740Y-127774000D01*
X179024260Y-127774000D01*
X179090443Y-127780519D01*
X179090443Y-127780519D01*
G37*
G36*
X155807618Y-125763420D02*
G01*
X155898404Y-125790960D01*
X155930336Y-125800646D01*
X156043425Y-125861094D01*
X156142554Y-125942446D01*
X156223906Y-126041575D01*
X156284354Y-126154664D01*
X156284355Y-126154668D01*
X156321580Y-126277382D01*
X156324953Y-126311627D01*
X156330210Y-126365000D01*
X156331000Y-126373027D01*
X156331000Y-126936973D01*
X156321580Y-127032618D01*
X156313715Y-127058544D01*
X156284354Y-127155336D01*
X156223906Y-127268425D01*
X156142554Y-127367553D01*
X156043424Y-127448906D01*
X155930335Y-127509354D01*
X155898403Y-127519040D01*
X155807617Y-127546580D01*
X155680000Y-127559149D01*
X155552382Y-127546580D01*
X155461596Y-127519040D01*
X155429664Y-127509354D01*
X155316575Y-127448906D01*
X155217447Y-127367554D01*
X155136094Y-127268424D01*
X155075646Y-127155335D01*
X155064253Y-127117778D01*
X155038420Y-127032617D01*
X155029000Y-126936972D01*
X155029000Y-126373027D01*
X155029791Y-126365000D01*
X155035047Y-126311627D01*
X155038420Y-126277382D01*
X155075645Y-126154668D01*
X155075646Y-126154664D01*
X155136094Y-126041575D01*
X155217447Y-125942447D01*
X155316576Y-125861094D01*
X155429665Y-125800646D01*
X155461597Y-125790960D01*
X155552383Y-125763420D01*
X155680000Y-125750851D01*
X155807618Y-125763420D01*
X155807618Y-125763420D01*
G37*
G36*
X161947618Y-125763420D02*
G01*
X162038404Y-125790960D01*
X162070336Y-125800646D01*
X162183425Y-125861094D01*
X162282554Y-125942446D01*
X162363906Y-126041575D01*
X162424354Y-126154664D01*
X162424355Y-126154668D01*
X162461580Y-126277382D01*
X162464953Y-126311627D01*
X162470210Y-126365000D01*
X162471000Y-126373027D01*
X162471000Y-126936973D01*
X162461580Y-127032618D01*
X162453715Y-127058544D01*
X162424354Y-127155336D01*
X162363906Y-127268425D01*
X162282554Y-127367553D01*
X162183424Y-127448906D01*
X162070335Y-127509354D01*
X162038403Y-127519040D01*
X161947617Y-127546580D01*
X161820000Y-127559149D01*
X161692382Y-127546580D01*
X161601596Y-127519040D01*
X161569664Y-127509354D01*
X161456575Y-127448906D01*
X161357447Y-127367554D01*
X161276094Y-127268424D01*
X161215646Y-127155335D01*
X161204253Y-127117778D01*
X161178420Y-127032617D01*
X161169000Y-126936972D01*
X161169000Y-126373027D01*
X161169791Y-126365000D01*
X161175047Y-126311627D01*
X161178420Y-126277382D01*
X161215645Y-126154668D01*
X161215646Y-126154664D01*
X161276094Y-126041575D01*
X161357447Y-125942447D01*
X161456576Y-125861094D01*
X161569665Y-125800646D01*
X161601597Y-125790960D01*
X161692383Y-125763420D01*
X161820000Y-125750851D01*
X161947618Y-125763420D01*
X161947618Y-125763420D01*
G37*
G36*
X108060442Y-125470518D02*
G01*
X108126627Y-125477037D01*
X108296466Y-125528557D01*
X108452991Y-125612222D01*
X108477101Y-125632009D01*
X108590186Y-125724814D01*
X108673448Y-125826271D01*
X108702778Y-125862009D01*
X108786443Y-126018534D01*
X108837963Y-126188373D01*
X108855359Y-126365000D01*
X108837963Y-126541627D01*
X108786443Y-126711466D01*
X108702778Y-126867991D01*
X108686539Y-126887778D01*
X108590186Y-127005186D01*
X108488729Y-127088448D01*
X108452991Y-127117778D01*
X108296466Y-127201443D01*
X108126627Y-127252963D01*
X108060443Y-127259481D01*
X107994260Y-127266000D01*
X107905740Y-127266000D01*
X107839557Y-127259481D01*
X107773373Y-127252963D01*
X107603534Y-127201443D01*
X107447009Y-127117778D01*
X107411271Y-127088448D01*
X107309814Y-127005186D01*
X107213461Y-126887778D01*
X107197222Y-126867991D01*
X107113557Y-126711466D01*
X107062037Y-126541627D01*
X107044641Y-126365000D01*
X107062037Y-126188373D01*
X107113557Y-126018534D01*
X107197222Y-125862009D01*
X107226552Y-125826271D01*
X107309814Y-125724814D01*
X107422899Y-125632009D01*
X107447009Y-125612222D01*
X107603534Y-125528557D01*
X107773373Y-125477037D01*
X107839558Y-125470518D01*
X107905740Y-125464000D01*
X107994260Y-125464000D01*
X108060442Y-125470518D01*
X108060442Y-125470518D01*
G37*
G36*
X105520442Y-125470518D02*
G01*
X105586627Y-125477037D01*
X105756466Y-125528557D01*
X105912991Y-125612222D01*
X105937101Y-125632009D01*
X106050186Y-125724814D01*
X106133448Y-125826271D01*
X106162778Y-125862009D01*
X106246443Y-126018534D01*
X106297963Y-126188373D01*
X106315359Y-126365000D01*
X106297963Y-126541627D01*
X106246443Y-126711466D01*
X106162778Y-126867991D01*
X106146539Y-126887778D01*
X106050186Y-127005186D01*
X105948729Y-127088448D01*
X105912991Y-127117778D01*
X105756466Y-127201443D01*
X105586627Y-127252963D01*
X105520443Y-127259481D01*
X105454260Y-127266000D01*
X105365740Y-127266000D01*
X105299557Y-127259481D01*
X105233373Y-127252963D01*
X105063534Y-127201443D01*
X104907009Y-127117778D01*
X104871271Y-127088448D01*
X104769814Y-127005186D01*
X104673461Y-126887778D01*
X104657222Y-126867991D01*
X104573557Y-126711466D01*
X104522037Y-126541627D01*
X104504641Y-126365000D01*
X104522037Y-126188373D01*
X104573557Y-126018534D01*
X104657222Y-125862009D01*
X104686552Y-125826271D01*
X104769814Y-125724814D01*
X104882899Y-125632009D01*
X104907009Y-125612222D01*
X105063534Y-125528557D01*
X105233373Y-125477037D01*
X105299558Y-125470518D01*
X105365740Y-125464000D01*
X105454260Y-125464000D01*
X105520442Y-125470518D01*
X105520442Y-125470518D01*
G37*
G36*
X103771000Y-127266000D02*
G01*
X101969000Y-127266000D01*
X101969000Y-125464000D01*
X103771000Y-125464000D01*
X103771000Y-127266000D01*
X103771000Y-127266000D01*
G37*
G36*
X158853114Y-125611611D02*
G01*
X158952265Y-125641688D01*
X159043644Y-125690531D01*
X159123738Y-125756262D01*
X159189469Y-125836356D01*
X159238312Y-125927735D01*
X159268389Y-126026887D01*
X159276000Y-126104162D01*
X159276000Y-126555839D01*
X159268389Y-126633114D01*
X159238312Y-126732265D01*
X159189469Y-126823644D01*
X159123738Y-126903738D01*
X159043644Y-126969469D01*
X158952264Y-127018312D01*
X158853113Y-127048389D01*
X158750000Y-127058545D01*
X158646886Y-127048389D01*
X158547735Y-127018312D01*
X158456356Y-126969469D01*
X158376262Y-126903738D01*
X158310531Y-126823644D01*
X158261688Y-126732264D01*
X158231611Y-126633113D01*
X158224000Y-126555838D01*
X158224000Y-126104161D01*
X158230165Y-126041574D01*
X158231611Y-126026888D01*
X158261689Y-125927734D01*
X158310532Y-125836356D01*
X158314722Y-125831251D01*
X158376263Y-125756262D01*
X158456357Y-125690531D01*
X158547736Y-125641688D01*
X158646887Y-125611611D01*
X158750000Y-125601455D01*
X158853114Y-125611611D01*
X158853114Y-125611611D01*
G37*
G36*
X184961000Y-127036000D02*
G01*
X183159000Y-127036000D01*
X183159000Y-125234000D01*
X184961000Y-125234000D01*
X184961000Y-127036000D01*
X184961000Y-127036000D01*
G37*
G36*
X181630443Y-125240519D02*
G01*
X181696627Y-125247037D01*
X181866466Y-125298557D01*
X182022991Y-125382222D01*
X182058729Y-125411552D01*
X182160186Y-125494814D01*
X182243448Y-125596271D01*
X182272778Y-125632009D01*
X182272779Y-125632011D01*
X182353144Y-125782361D01*
X182356443Y-125788534D01*
X182407963Y-125958373D01*
X182425359Y-126135000D01*
X182407963Y-126311627D01*
X182383427Y-126392510D01*
X182356442Y-126481468D01*
X182314610Y-126559729D01*
X182272778Y-126637991D01*
X182243448Y-126673729D01*
X182160186Y-126775186D01*
X182058729Y-126858448D01*
X182022991Y-126887778D01*
X181866466Y-126971443D01*
X181696627Y-127022963D01*
X181630443Y-127029481D01*
X181564260Y-127036000D01*
X181475740Y-127036000D01*
X181409557Y-127029481D01*
X181343373Y-127022963D01*
X181173534Y-126971443D01*
X181017009Y-126887778D01*
X180981271Y-126858448D01*
X180879814Y-126775186D01*
X180796552Y-126673729D01*
X180767222Y-126637991D01*
X180725390Y-126559729D01*
X180683558Y-126481468D01*
X180656573Y-126392510D01*
X180632037Y-126311627D01*
X180614641Y-126135000D01*
X180632037Y-125958373D01*
X180683557Y-125788534D01*
X180686857Y-125782361D01*
X180767221Y-125632011D01*
X180767222Y-125632009D01*
X180796552Y-125596271D01*
X180879814Y-125494814D01*
X180981271Y-125411552D01*
X181017009Y-125382222D01*
X181173534Y-125298557D01*
X181343373Y-125247037D01*
X181409557Y-125240519D01*
X181475740Y-125234000D01*
X181564260Y-125234000D01*
X181630443Y-125240519D01*
X181630443Y-125240519D01*
G37*
G36*
X179090443Y-125240519D02*
G01*
X179156627Y-125247037D01*
X179326466Y-125298557D01*
X179482991Y-125382222D01*
X179518729Y-125411552D01*
X179620186Y-125494814D01*
X179703448Y-125596271D01*
X179732778Y-125632009D01*
X179732779Y-125632011D01*
X179813144Y-125782361D01*
X179816443Y-125788534D01*
X179867963Y-125958373D01*
X179885359Y-126135000D01*
X179867963Y-126311627D01*
X179843427Y-126392510D01*
X179816442Y-126481468D01*
X179774610Y-126559729D01*
X179732778Y-126637991D01*
X179703448Y-126673729D01*
X179620186Y-126775186D01*
X179518729Y-126858448D01*
X179482991Y-126887778D01*
X179326466Y-126971443D01*
X179156627Y-127022963D01*
X179090443Y-127029481D01*
X179024260Y-127036000D01*
X178935740Y-127036000D01*
X178869557Y-127029481D01*
X178803373Y-127022963D01*
X178633534Y-126971443D01*
X178477009Y-126887778D01*
X178441271Y-126858448D01*
X178339814Y-126775186D01*
X178256552Y-126673729D01*
X178227222Y-126637991D01*
X178185390Y-126559729D01*
X178143558Y-126481468D01*
X178116573Y-126392510D01*
X178092037Y-126311627D01*
X178074641Y-126135000D01*
X178092037Y-125958373D01*
X178143557Y-125788534D01*
X178146857Y-125782361D01*
X178227221Y-125632011D01*
X178227222Y-125632009D01*
X178256552Y-125596271D01*
X178339814Y-125494814D01*
X178441271Y-125411552D01*
X178477009Y-125382222D01*
X178633534Y-125298557D01*
X178803373Y-125247037D01*
X178869557Y-125240519D01*
X178935740Y-125234000D01*
X179024260Y-125234000D01*
X179090443Y-125240519D01*
X179090443Y-125240519D01*
G37*
G36*
X157502383Y-125717489D02*
G01*
X157502386Y-125717490D01*
X157502385Y-125717490D01*
X157566258Y-125743946D01*
X157623748Y-125782360D01*
X157672640Y-125831252D01*
X157711054Y-125888742D01*
X157727204Y-125927734D01*
X157737511Y-125952617D01*
X157751000Y-126020430D01*
X157751000Y-126089570D01*
X157737511Y-126157383D01*
X157737510Y-126157385D01*
X157711054Y-126221258D01*
X157672640Y-126278748D01*
X157623748Y-126327640D01*
X157566258Y-126366054D01*
X157514182Y-126387624D01*
X157502383Y-126392511D01*
X157434570Y-126406000D01*
X157365430Y-126406000D01*
X157297617Y-126392511D01*
X157285818Y-126387624D01*
X157233742Y-126366054D01*
X157176252Y-126327640D01*
X157127360Y-126278748D01*
X157088946Y-126221258D01*
X157062490Y-126157385D01*
X157062489Y-126157383D01*
X157049000Y-126089570D01*
X157049000Y-126020430D01*
X157062489Y-125952617D01*
X157072796Y-125927734D01*
X157088946Y-125888742D01*
X157127360Y-125831252D01*
X157176252Y-125782360D01*
X157233742Y-125743946D01*
X157297615Y-125717490D01*
X157297614Y-125717490D01*
X157297617Y-125717489D01*
X157365430Y-125704000D01*
X157434570Y-125704000D01*
X157502383Y-125717489D01*
X157502383Y-125717489D01*
G37*
G36*
X108060443Y-122930519D02*
G01*
X108126627Y-122937037D01*
X108296466Y-122988557D01*
X108452991Y-123072222D01*
X108477101Y-123092009D01*
X108590186Y-123184814D01*
X108673448Y-123286271D01*
X108702778Y-123322009D01*
X108786443Y-123478534D01*
X108837963Y-123648373D01*
X108855359Y-123825000D01*
X108837963Y-124001627D01*
X108786443Y-124171466D01*
X108702778Y-124327991D01*
X108686539Y-124347778D01*
X108590186Y-124465186D01*
X108488729Y-124548448D01*
X108452991Y-124577778D01*
X108296466Y-124661443D01*
X108126627Y-124712963D01*
X108060443Y-124719481D01*
X107994260Y-124726000D01*
X107905740Y-124726000D01*
X107839557Y-124719481D01*
X107773373Y-124712963D01*
X107603534Y-124661443D01*
X107447009Y-124577778D01*
X107411271Y-124548448D01*
X107309814Y-124465186D01*
X107213461Y-124347778D01*
X107197222Y-124327991D01*
X107113557Y-124171466D01*
X107062037Y-124001627D01*
X107044641Y-123825000D01*
X107062037Y-123648373D01*
X107113557Y-123478534D01*
X107197222Y-123322009D01*
X107226552Y-123286271D01*
X107309814Y-123184814D01*
X107422899Y-123092009D01*
X107447009Y-123072222D01*
X107603534Y-122988557D01*
X107773373Y-122937037D01*
X107839557Y-122930519D01*
X107905740Y-122924000D01*
X107994260Y-122924000D01*
X108060443Y-122930519D01*
X108060443Y-122930519D01*
G37*
G36*
X105520443Y-122930519D02*
G01*
X105586627Y-122937037D01*
X105756466Y-122988557D01*
X105912991Y-123072222D01*
X105937101Y-123092009D01*
X106050186Y-123184814D01*
X106133448Y-123286271D01*
X106162778Y-123322009D01*
X106246443Y-123478534D01*
X106297963Y-123648373D01*
X106315359Y-123825000D01*
X106297963Y-124001627D01*
X106246443Y-124171466D01*
X106162778Y-124327991D01*
X106146539Y-124347778D01*
X106050186Y-124465186D01*
X105948729Y-124548448D01*
X105912991Y-124577778D01*
X105756466Y-124661443D01*
X105586627Y-124712963D01*
X105520443Y-124719481D01*
X105454260Y-124726000D01*
X105365740Y-124726000D01*
X105299557Y-124719481D01*
X105233373Y-124712963D01*
X105063534Y-124661443D01*
X104907009Y-124577778D01*
X104871271Y-124548448D01*
X104769814Y-124465186D01*
X104673461Y-124347778D01*
X104657222Y-124327991D01*
X104573557Y-124171466D01*
X104522037Y-124001627D01*
X104504641Y-123825000D01*
X104522037Y-123648373D01*
X104573557Y-123478534D01*
X104657222Y-123322009D01*
X104686552Y-123286271D01*
X104769814Y-123184814D01*
X104882899Y-123092009D01*
X104907009Y-123072222D01*
X105063534Y-122988557D01*
X105233373Y-122937037D01*
X105299557Y-122930519D01*
X105365740Y-122924000D01*
X105454260Y-122924000D01*
X105520443Y-122930519D01*
X105520443Y-122930519D01*
G37*
G36*
X103771000Y-124726000D02*
G01*
X101969000Y-124726000D01*
X101969000Y-122924000D01*
X103771000Y-122924000D01*
X103771000Y-124726000D01*
X103771000Y-124726000D01*
G37*
G36*
X184961000Y-124496000D02*
G01*
X183159000Y-124496000D01*
X183159000Y-122694000D01*
X184961000Y-122694000D01*
X184961000Y-124496000D01*
X184961000Y-124496000D01*
G37*
G36*
X181630442Y-122700518D02*
G01*
X181696627Y-122707037D01*
X181866466Y-122758557D01*
X182022991Y-122842222D01*
X182058729Y-122871552D01*
X182160186Y-122954814D01*
X182243448Y-123056271D01*
X182272778Y-123092009D01*
X182356443Y-123248534D01*
X182407963Y-123418373D01*
X182425359Y-123595000D01*
X182407963Y-123771627D01*
X182356443Y-123941466D01*
X182272778Y-124097991D01*
X182243448Y-124133729D01*
X182160186Y-124235186D01*
X182058729Y-124318448D01*
X182022991Y-124347778D01*
X181866466Y-124431443D01*
X181696627Y-124482963D01*
X181630443Y-124489481D01*
X181564260Y-124496000D01*
X181475740Y-124496000D01*
X181409557Y-124489481D01*
X181343373Y-124482963D01*
X181173534Y-124431443D01*
X181017009Y-124347778D01*
X180981271Y-124318448D01*
X180879814Y-124235186D01*
X180796552Y-124133729D01*
X180767222Y-124097991D01*
X180683557Y-123941466D01*
X180632037Y-123771627D01*
X180614641Y-123595000D01*
X180632037Y-123418373D01*
X180683557Y-123248534D01*
X180767222Y-123092009D01*
X180796552Y-123056271D01*
X180879814Y-122954814D01*
X180981271Y-122871552D01*
X181017009Y-122842222D01*
X181173534Y-122758557D01*
X181343373Y-122707037D01*
X181409558Y-122700518D01*
X181475740Y-122694000D01*
X181564260Y-122694000D01*
X181630442Y-122700518D01*
X181630442Y-122700518D01*
G37*
G36*
X179090442Y-122700518D02*
G01*
X179156627Y-122707037D01*
X179326466Y-122758557D01*
X179482991Y-122842222D01*
X179518729Y-122871552D01*
X179620186Y-122954814D01*
X179703448Y-123056271D01*
X179732778Y-123092009D01*
X179816443Y-123248534D01*
X179867963Y-123418373D01*
X179885359Y-123595000D01*
X179867963Y-123771627D01*
X179816443Y-123941466D01*
X179732778Y-124097991D01*
X179703448Y-124133729D01*
X179620186Y-124235186D01*
X179518729Y-124318448D01*
X179482991Y-124347778D01*
X179326466Y-124431443D01*
X179156627Y-124482963D01*
X179090443Y-124489481D01*
X179024260Y-124496000D01*
X178935740Y-124496000D01*
X178869557Y-124489481D01*
X178803373Y-124482963D01*
X178633534Y-124431443D01*
X178477009Y-124347778D01*
X178441271Y-124318448D01*
X178339814Y-124235186D01*
X178256552Y-124133729D01*
X178227222Y-124097991D01*
X178143557Y-123941466D01*
X178092037Y-123771627D01*
X178074641Y-123595000D01*
X178092037Y-123418373D01*
X178143557Y-123248534D01*
X178227222Y-123092009D01*
X178256552Y-123056271D01*
X178339814Y-122954814D01*
X178441271Y-122871552D01*
X178477009Y-122842222D01*
X178633534Y-122758557D01*
X178803373Y-122707037D01*
X178869558Y-122700518D01*
X178935740Y-122694000D01*
X179024260Y-122694000D01*
X179090442Y-122700518D01*
X179090442Y-122700518D01*
G37*
G36*
X157405661Y-118577860D02*
G01*
X157468808Y-118584078D01*
X157534969Y-118604149D01*
X157534971Y-118604150D01*
X157595948Y-118636742D01*
X157595950Y-118636743D01*
X157595949Y-118636743D01*
X157649396Y-118680604D01*
X157681777Y-118720062D01*
X157693258Y-118734051D01*
X157725850Y-118795028D01*
X157725850Y-118795029D01*
X157725851Y-118795031D01*
X157745922Y-118861191D01*
X157751000Y-118912756D01*
X157751000Y-119197245D01*
X157745922Y-119248809D01*
X157727554Y-119309354D01*
X157725850Y-119314972D01*
X157693258Y-119375949D01*
X157677707Y-119394897D01*
X157649396Y-119429396D01*
X157614897Y-119457707D01*
X157595949Y-119473258D01*
X157534972Y-119505850D01*
X157534969Y-119505851D01*
X157468808Y-119525922D01*
X157400001Y-119532698D01*
X157400000Y-119532698D01*
X157394339Y-119532140D01*
X157331192Y-119525922D01*
X157265032Y-119505851D01*
X157265029Y-119505850D01*
X157204052Y-119473258D01*
X157185104Y-119457707D01*
X157150605Y-119429396D01*
X157127538Y-119401288D01*
X157106742Y-119375949D01*
X157074150Y-119314972D01*
X157074149Y-119314971D01*
X157054078Y-119248809D01*
X157049000Y-119197244D01*
X157049000Y-118912757D01*
X157054078Y-118861192D01*
X157074149Y-118795031D01*
X157074151Y-118795028D01*
X157106742Y-118734052D01*
X157109531Y-118730654D01*
X157150604Y-118680604D01*
X157190062Y-118648223D01*
X157204051Y-118636742D01*
X157265028Y-118604150D01*
X157265031Y-118604149D01*
X157331192Y-118584078D01*
X157399999Y-118577302D01*
X157400000Y-118577302D01*
X157405661Y-118577860D01*
X157405661Y-118577860D01*
G37*
G36*
X158853114Y-118061611D02*
G01*
X158952265Y-118091688D01*
X159043644Y-118140531D01*
X159123738Y-118206262D01*
X159189469Y-118286356D01*
X159238312Y-118377735D01*
X159268389Y-118476887D01*
X159276000Y-118554162D01*
X159276000Y-119005839D01*
X159268389Y-119083114D01*
X159238312Y-119182265D01*
X159189469Y-119273644D01*
X159123738Y-119353738D01*
X159043644Y-119419469D01*
X158952264Y-119468312D01*
X158853113Y-119498389D01*
X158750000Y-119508545D01*
X158646886Y-119498389D01*
X158547735Y-119468312D01*
X158456356Y-119419469D01*
X158376262Y-119353738D01*
X158310531Y-119273644D01*
X158261688Y-119182264D01*
X158231611Y-119083113D01*
X158224000Y-119005838D01*
X158224000Y-118554161D01*
X158227227Y-118521403D01*
X158231611Y-118476888D01*
X158261689Y-118377734D01*
X158310532Y-118286356D01*
X158376263Y-118206262D01*
X158456357Y-118140531D01*
X158547736Y-118091688D01*
X158646887Y-118061611D01*
X158750000Y-118051455D01*
X158853114Y-118061611D01*
X158853114Y-118061611D01*
G37*
G36*
X161947618Y-117563420D02*
G01*
X162038404Y-117590960D01*
X162070336Y-117600646D01*
X162183425Y-117661094D01*
X162282554Y-117742446D01*
X162363906Y-117841575D01*
X162424354Y-117954664D01*
X162424355Y-117954668D01*
X162461580Y-118077382D01*
X162471000Y-118173027D01*
X162471000Y-118736973D01*
X162461580Y-118832618D01*
X162437270Y-118912756D01*
X162424354Y-118955336D01*
X162363906Y-119068425D01*
X162282554Y-119167553D01*
X162183424Y-119248906D01*
X162070335Y-119309354D01*
X162038403Y-119319040D01*
X161947617Y-119346580D01*
X161820000Y-119359149D01*
X161692382Y-119346580D01*
X161601596Y-119319040D01*
X161569664Y-119309354D01*
X161456575Y-119248906D01*
X161357447Y-119167554D01*
X161276094Y-119068424D01*
X161215646Y-118955335D01*
X161205960Y-118923403D01*
X161178420Y-118832617D01*
X161169000Y-118736972D01*
X161169000Y-118173027D01*
X161178420Y-118077382D01*
X161215645Y-117954668D01*
X161215646Y-117954664D01*
X161276094Y-117841575D01*
X161357447Y-117742447D01*
X161456576Y-117661094D01*
X161569665Y-117600646D01*
X161601597Y-117590960D01*
X161692383Y-117563420D01*
X161820000Y-117550851D01*
X161947618Y-117563420D01*
X161947618Y-117563420D01*
G37*
G36*
X155807618Y-117563420D02*
G01*
X155898404Y-117590960D01*
X155930336Y-117600646D01*
X156043425Y-117661094D01*
X156142554Y-117742446D01*
X156223906Y-117841575D01*
X156284354Y-117954664D01*
X156284355Y-117954668D01*
X156321580Y-118077382D01*
X156331000Y-118173027D01*
X156331000Y-118736973D01*
X156321580Y-118832618D01*
X156297270Y-118912756D01*
X156284354Y-118955336D01*
X156223906Y-119068425D01*
X156142554Y-119167553D01*
X156043424Y-119248906D01*
X155930335Y-119309354D01*
X155898403Y-119319040D01*
X155807617Y-119346580D01*
X155680000Y-119359149D01*
X155552382Y-119346580D01*
X155461596Y-119319040D01*
X155429664Y-119309354D01*
X155316575Y-119248906D01*
X155217447Y-119167554D01*
X155136094Y-119068424D01*
X155075646Y-118955335D01*
X155065960Y-118923403D01*
X155038420Y-118832617D01*
X155029000Y-118736972D01*
X155029000Y-118173027D01*
X155038420Y-118077382D01*
X155075645Y-117954668D01*
X155075646Y-117954664D01*
X155136094Y-117841575D01*
X155217447Y-117742447D01*
X155316576Y-117661094D01*
X155429665Y-117600646D01*
X155461597Y-117590960D01*
X155552383Y-117563420D01*
X155680000Y-117550851D01*
X155807618Y-117563420D01*
X155807618Y-117563420D01*
G37*
G36*
X105520443Y-107690519D02*
G01*
X105586627Y-107697037D01*
X105756466Y-107748557D01*
X105912991Y-107832222D01*
X105948729Y-107861552D01*
X106050186Y-107944814D01*
X106133448Y-108046271D01*
X106162778Y-108082009D01*
X106246443Y-108238534D01*
X106297963Y-108408373D01*
X106315359Y-108585000D01*
X106297963Y-108761627D01*
X106246443Y-108931466D01*
X106162778Y-109087991D01*
X106133448Y-109123729D01*
X106050186Y-109225186D01*
X105948729Y-109308448D01*
X105912991Y-109337778D01*
X105756466Y-109421443D01*
X105586627Y-109472963D01*
X105520442Y-109479482D01*
X105454260Y-109486000D01*
X105365740Y-109486000D01*
X105299558Y-109479482D01*
X105233373Y-109472963D01*
X105063534Y-109421443D01*
X104907009Y-109337778D01*
X104871271Y-109308448D01*
X104769814Y-109225186D01*
X104686552Y-109123729D01*
X104657222Y-109087991D01*
X104573557Y-108931466D01*
X104522037Y-108761627D01*
X104504641Y-108585000D01*
X104522037Y-108408373D01*
X104573557Y-108238534D01*
X104657222Y-108082009D01*
X104686552Y-108046271D01*
X104769814Y-107944814D01*
X104871271Y-107861552D01*
X104907009Y-107832222D01*
X105063534Y-107748557D01*
X105233373Y-107697037D01*
X105299557Y-107690519D01*
X105365740Y-107684000D01*
X105454260Y-107684000D01*
X105520443Y-107690519D01*
X105520443Y-107690519D01*
G37*
G36*
X103771000Y-109486000D02*
G01*
X101969000Y-109486000D01*
X101969000Y-107684000D01*
X103771000Y-107684000D01*
X103771000Y-109486000D01*
X103771000Y-109486000D01*
G37*
G36*
X108060443Y-107690519D02*
G01*
X108126627Y-107697037D01*
X108296466Y-107748557D01*
X108452991Y-107832222D01*
X108488729Y-107861552D01*
X108590186Y-107944814D01*
X108673448Y-108046271D01*
X108702778Y-108082009D01*
X108786443Y-108238534D01*
X108837963Y-108408373D01*
X108855359Y-108585000D01*
X108837963Y-108761627D01*
X108786443Y-108931466D01*
X108702778Y-109087991D01*
X108673448Y-109123729D01*
X108590186Y-109225186D01*
X108488729Y-109308448D01*
X108452991Y-109337778D01*
X108296466Y-109421443D01*
X108126627Y-109472963D01*
X108060442Y-109479482D01*
X107994260Y-109486000D01*
X107905740Y-109486000D01*
X107839558Y-109479482D01*
X107773373Y-109472963D01*
X107603534Y-109421443D01*
X107447009Y-109337778D01*
X107411271Y-109308448D01*
X107309814Y-109225186D01*
X107226552Y-109123729D01*
X107197222Y-109087991D01*
X107113557Y-108931466D01*
X107062037Y-108761627D01*
X107044641Y-108585000D01*
X107062037Y-108408373D01*
X107113557Y-108238534D01*
X107197222Y-108082009D01*
X107226552Y-108046271D01*
X107309814Y-107944814D01*
X107411271Y-107861552D01*
X107447009Y-107832222D01*
X107603534Y-107748557D01*
X107773373Y-107697037D01*
X107839557Y-107690519D01*
X107905740Y-107684000D01*
X107994260Y-107684000D01*
X108060443Y-107690519D01*
X108060443Y-107690519D01*
G37*
G36*
X105520443Y-105150519D02*
G01*
X105586627Y-105157037D01*
X105756466Y-105208557D01*
X105912991Y-105292222D01*
X105948729Y-105321552D01*
X106050186Y-105404814D01*
X106133448Y-105506271D01*
X106162778Y-105542009D01*
X106246443Y-105698534D01*
X106297963Y-105868373D01*
X106315359Y-106045000D01*
X106297963Y-106221627D01*
X106246443Y-106391466D01*
X106162778Y-106547991D01*
X106133448Y-106583729D01*
X106050186Y-106685186D01*
X105948729Y-106768448D01*
X105912991Y-106797778D01*
X105756466Y-106881443D01*
X105586627Y-106932963D01*
X105520442Y-106939482D01*
X105454260Y-106946000D01*
X105365740Y-106946000D01*
X105299558Y-106939482D01*
X105233373Y-106932963D01*
X105063534Y-106881443D01*
X104907009Y-106797778D01*
X104871271Y-106768448D01*
X104769814Y-106685186D01*
X104686552Y-106583729D01*
X104657222Y-106547991D01*
X104573557Y-106391466D01*
X104522037Y-106221627D01*
X104504641Y-106045000D01*
X104522037Y-105868373D01*
X104573557Y-105698534D01*
X104657222Y-105542009D01*
X104686552Y-105506271D01*
X104769814Y-105404814D01*
X104871271Y-105321552D01*
X104907009Y-105292222D01*
X105063534Y-105208557D01*
X105233373Y-105157037D01*
X105299558Y-105150518D01*
X105365740Y-105144000D01*
X105454260Y-105144000D01*
X105520443Y-105150519D01*
X105520443Y-105150519D01*
G37*
G36*
X103771000Y-106946000D02*
G01*
X101969000Y-106946000D01*
X101969000Y-105144000D01*
X103771000Y-105144000D01*
X103771000Y-106946000D01*
X103771000Y-106946000D01*
G37*
G36*
X108060443Y-105150519D02*
G01*
X108126627Y-105157037D01*
X108296466Y-105208557D01*
X108452991Y-105292222D01*
X108488729Y-105321552D01*
X108590186Y-105404814D01*
X108673448Y-105506271D01*
X108702778Y-105542009D01*
X108786443Y-105698534D01*
X108837963Y-105868373D01*
X108855359Y-106045000D01*
X108837963Y-106221627D01*
X108786443Y-106391466D01*
X108702778Y-106547991D01*
X108673448Y-106583729D01*
X108590186Y-106685186D01*
X108488729Y-106768448D01*
X108452991Y-106797778D01*
X108296466Y-106881443D01*
X108126627Y-106932963D01*
X108060442Y-106939482D01*
X107994260Y-106946000D01*
X107905740Y-106946000D01*
X107839558Y-106939482D01*
X107773373Y-106932963D01*
X107603534Y-106881443D01*
X107447009Y-106797778D01*
X107411271Y-106768448D01*
X107309814Y-106685186D01*
X107226552Y-106583729D01*
X107197222Y-106547991D01*
X107113557Y-106391466D01*
X107062037Y-106221627D01*
X107044641Y-106045000D01*
X107062037Y-105868373D01*
X107113557Y-105698534D01*
X107197222Y-105542009D01*
X107226552Y-105506271D01*
X107309814Y-105404814D01*
X107411271Y-105321552D01*
X107447009Y-105292222D01*
X107603534Y-105208557D01*
X107773373Y-105157037D01*
X107839558Y-105150518D01*
X107905740Y-105144000D01*
X107994260Y-105144000D01*
X108060443Y-105150519D01*
X108060443Y-105150519D01*
G37*
G36*
X108060442Y-102610518D02*
G01*
X108126627Y-102617037D01*
X108296466Y-102668557D01*
X108452991Y-102752222D01*
X108488729Y-102781552D01*
X108590186Y-102864814D01*
X108673448Y-102966271D01*
X108702778Y-103002009D01*
X108786443Y-103158534D01*
X108837963Y-103328373D01*
X108855359Y-103505000D01*
X108837963Y-103681627D01*
X108786443Y-103851466D01*
X108702778Y-104007991D01*
X108673448Y-104043729D01*
X108590186Y-104145186D01*
X108488729Y-104228448D01*
X108452991Y-104257778D01*
X108296466Y-104341443D01*
X108126627Y-104392963D01*
X108060442Y-104399482D01*
X107994260Y-104406000D01*
X107905740Y-104406000D01*
X107839558Y-104399482D01*
X107773373Y-104392963D01*
X107603534Y-104341443D01*
X107447009Y-104257778D01*
X107411271Y-104228448D01*
X107309814Y-104145186D01*
X107226552Y-104043729D01*
X107197222Y-104007991D01*
X107113557Y-103851466D01*
X107062037Y-103681627D01*
X107044641Y-103505000D01*
X107062037Y-103328373D01*
X107113557Y-103158534D01*
X107197222Y-103002009D01*
X107226552Y-102966271D01*
X107309814Y-102864814D01*
X107411271Y-102781552D01*
X107447009Y-102752222D01*
X107603534Y-102668557D01*
X107773373Y-102617037D01*
X107839558Y-102610518D01*
X107905740Y-102604000D01*
X107994260Y-102604000D01*
X108060442Y-102610518D01*
X108060442Y-102610518D01*
G37*
G36*
X105520442Y-102610518D02*
G01*
X105586627Y-102617037D01*
X105756466Y-102668557D01*
X105912991Y-102752222D01*
X105948729Y-102781552D01*
X106050186Y-102864814D01*
X106133448Y-102966271D01*
X106162778Y-103002009D01*
X106246443Y-103158534D01*
X106297963Y-103328373D01*
X106315359Y-103505000D01*
X106297963Y-103681627D01*
X106246443Y-103851466D01*
X106162778Y-104007991D01*
X106133448Y-104043729D01*
X106050186Y-104145186D01*
X105948729Y-104228448D01*
X105912991Y-104257778D01*
X105756466Y-104341443D01*
X105586627Y-104392963D01*
X105520442Y-104399482D01*
X105454260Y-104406000D01*
X105365740Y-104406000D01*
X105299558Y-104399482D01*
X105233373Y-104392963D01*
X105063534Y-104341443D01*
X104907009Y-104257778D01*
X104871271Y-104228448D01*
X104769814Y-104145186D01*
X104686552Y-104043729D01*
X104657222Y-104007991D01*
X104573557Y-103851466D01*
X104522037Y-103681627D01*
X104504641Y-103505000D01*
X104522037Y-103328373D01*
X104573557Y-103158534D01*
X104657222Y-103002009D01*
X104686552Y-102966271D01*
X104769814Y-102864814D01*
X104871271Y-102781552D01*
X104907009Y-102752222D01*
X105063534Y-102668557D01*
X105233373Y-102617037D01*
X105299558Y-102610518D01*
X105365740Y-102604000D01*
X105454260Y-102604000D01*
X105520442Y-102610518D01*
X105520442Y-102610518D01*
G37*
G36*
X103771000Y-104406000D02*
G01*
X101969000Y-104406000D01*
X101969000Y-102604000D01*
X103771000Y-102604000D01*
X103771000Y-104406000D01*
X103771000Y-104406000D01*
G37*
G36*
X179078842Y-100426118D02*
G01*
X179145027Y-100432637D01*
X179314866Y-100484157D01*
X179471391Y-100567822D01*
X179507129Y-100597152D01*
X179608586Y-100680414D01*
X179691848Y-100781871D01*
X179721178Y-100817609D01*
X179804843Y-100974134D01*
X179856363Y-101143973D01*
X179873759Y-101320600D01*
X179856363Y-101497227D01*
X179804843Y-101667066D01*
X179721178Y-101823591D01*
X179697073Y-101852963D01*
X179608586Y-101960786D01*
X179507129Y-102044048D01*
X179471391Y-102073378D01*
X179314866Y-102157043D01*
X179145027Y-102208563D01*
X179078843Y-102215081D01*
X179012660Y-102221600D01*
X178924140Y-102221600D01*
X178857957Y-102215081D01*
X178791773Y-102208563D01*
X178621934Y-102157043D01*
X178465409Y-102073378D01*
X178429671Y-102044048D01*
X178328214Y-101960786D01*
X178239727Y-101852963D01*
X178215622Y-101823591D01*
X178131957Y-101667066D01*
X178080437Y-101497227D01*
X178063041Y-101320600D01*
X178080437Y-101143973D01*
X178131957Y-100974134D01*
X178215622Y-100817609D01*
X178244952Y-100781871D01*
X178328214Y-100680414D01*
X178429671Y-100597152D01*
X178465409Y-100567822D01*
X178621934Y-100484157D01*
X178791773Y-100432637D01*
X178857958Y-100426118D01*
X178924140Y-100419600D01*
X179012660Y-100419600D01*
X179078842Y-100426118D01*
X179078842Y-100426118D01*
G37*
G36*
X181618842Y-100426118D02*
G01*
X181685027Y-100432637D01*
X181854866Y-100484157D01*
X182011391Y-100567822D01*
X182047129Y-100597152D01*
X182148586Y-100680414D01*
X182231848Y-100781871D01*
X182261178Y-100817609D01*
X182344843Y-100974134D01*
X182396363Y-101143973D01*
X182413759Y-101320600D01*
X182396363Y-101497227D01*
X182344843Y-101667066D01*
X182261178Y-101823591D01*
X182237073Y-101852963D01*
X182148586Y-101960786D01*
X182047129Y-102044048D01*
X182011391Y-102073378D01*
X181854866Y-102157043D01*
X181685027Y-102208563D01*
X181618843Y-102215081D01*
X181552660Y-102221600D01*
X181464140Y-102221600D01*
X181397957Y-102215081D01*
X181331773Y-102208563D01*
X181161934Y-102157043D01*
X181005409Y-102073378D01*
X180969671Y-102044048D01*
X180868214Y-101960786D01*
X180779727Y-101852963D01*
X180755622Y-101823591D01*
X180671957Y-101667066D01*
X180620437Y-101497227D01*
X180603041Y-101320600D01*
X180620437Y-101143973D01*
X180671957Y-100974134D01*
X180755622Y-100817609D01*
X180784952Y-100781871D01*
X180868214Y-100680414D01*
X180969671Y-100597152D01*
X181005409Y-100567822D01*
X181161934Y-100484157D01*
X181331773Y-100432637D01*
X181397958Y-100426118D01*
X181464140Y-100419600D01*
X181552660Y-100419600D01*
X181618842Y-100426118D01*
X181618842Y-100426118D01*
G37*
G36*
X184949400Y-102221600D02*
G01*
X183147400Y-102221600D01*
X183147400Y-100419600D01*
X184949400Y-100419600D01*
X184949400Y-102221600D01*
X184949400Y-102221600D01*
G37*
G36*
X105520442Y-100070518D02*
G01*
X105586627Y-100077037D01*
X105756466Y-100128557D01*
X105912991Y-100212222D01*
X105948729Y-100241552D01*
X106050186Y-100324814D01*
X106127974Y-100419600D01*
X106162778Y-100462009D01*
X106246443Y-100618534D01*
X106297963Y-100788373D01*
X106315359Y-100965000D01*
X106297963Y-101141627D01*
X106246443Y-101311466D01*
X106162778Y-101467991D01*
X106138786Y-101497225D01*
X106050186Y-101605186D01*
X105974781Y-101667068D01*
X105912991Y-101717778D01*
X105756466Y-101801443D01*
X105586627Y-101852963D01*
X105520443Y-101859481D01*
X105454260Y-101866000D01*
X105365740Y-101866000D01*
X105299558Y-101859482D01*
X105233373Y-101852963D01*
X105063534Y-101801443D01*
X104907009Y-101717778D01*
X104845219Y-101667068D01*
X104769814Y-101605186D01*
X104681214Y-101497225D01*
X104657222Y-101467991D01*
X104573557Y-101311466D01*
X104522037Y-101141627D01*
X104504641Y-100965000D01*
X104522037Y-100788373D01*
X104573557Y-100618534D01*
X104657222Y-100462009D01*
X104692026Y-100419600D01*
X104769814Y-100324814D01*
X104871271Y-100241552D01*
X104907009Y-100212222D01*
X105063534Y-100128557D01*
X105233373Y-100077037D01*
X105299557Y-100070519D01*
X105365740Y-100064000D01*
X105454260Y-100064000D01*
X105520442Y-100070518D01*
X105520442Y-100070518D01*
G37*
G36*
X103771000Y-101866000D02*
G01*
X101969000Y-101866000D01*
X101969000Y-100064000D01*
X103771000Y-100064000D01*
X103771000Y-101866000D01*
X103771000Y-101866000D01*
G37*
G36*
X108060442Y-100070518D02*
G01*
X108126627Y-100077037D01*
X108296466Y-100128557D01*
X108452991Y-100212222D01*
X108488729Y-100241552D01*
X108590186Y-100324814D01*
X108667974Y-100419600D01*
X108702778Y-100462009D01*
X108786443Y-100618534D01*
X108837963Y-100788373D01*
X108855359Y-100965000D01*
X108837963Y-101141627D01*
X108786443Y-101311466D01*
X108702778Y-101467991D01*
X108678786Y-101497225D01*
X108590186Y-101605186D01*
X108514781Y-101667068D01*
X108452991Y-101717778D01*
X108296466Y-101801443D01*
X108126627Y-101852963D01*
X108060443Y-101859481D01*
X107994260Y-101866000D01*
X107905740Y-101866000D01*
X107839558Y-101859482D01*
X107773373Y-101852963D01*
X107603534Y-101801443D01*
X107447009Y-101717778D01*
X107385219Y-101667068D01*
X107309814Y-101605186D01*
X107221214Y-101497225D01*
X107197222Y-101467991D01*
X107113557Y-101311466D01*
X107062037Y-101141627D01*
X107044641Y-100965000D01*
X107062037Y-100788373D01*
X107113557Y-100618534D01*
X107197222Y-100462009D01*
X107232026Y-100419600D01*
X107309814Y-100324814D01*
X107411271Y-100241552D01*
X107447009Y-100212222D01*
X107603534Y-100128557D01*
X107773373Y-100077037D01*
X107839557Y-100070519D01*
X107905740Y-100064000D01*
X107994260Y-100064000D01*
X108060442Y-100070518D01*
X108060442Y-100070518D01*
G37*
G36*
X184961000Y-99681600D02*
G01*
X183159000Y-99681600D01*
X183159000Y-97879600D01*
X184961000Y-97879600D01*
X184961000Y-99681600D01*
X184961000Y-99681600D01*
G37*
G36*
X181630443Y-97886119D02*
G01*
X181696627Y-97892637D01*
X181866466Y-97944157D01*
X182022991Y-98027822D01*
X182058729Y-98057152D01*
X182160186Y-98140414D01*
X182243448Y-98241871D01*
X182272778Y-98277609D01*
X182356443Y-98434134D01*
X182407963Y-98603973D01*
X182425359Y-98780600D01*
X182407963Y-98957227D01*
X182356443Y-99127066D01*
X182272778Y-99283591D01*
X182243448Y-99319329D01*
X182160186Y-99420786D01*
X182058729Y-99504048D01*
X182022991Y-99533378D01*
X181866466Y-99617043D01*
X181696627Y-99668563D01*
X181630443Y-99675081D01*
X181564260Y-99681600D01*
X181475740Y-99681600D01*
X181409557Y-99675081D01*
X181343373Y-99668563D01*
X181173534Y-99617043D01*
X181017009Y-99533378D01*
X180981271Y-99504048D01*
X180879814Y-99420786D01*
X180796552Y-99319329D01*
X180767222Y-99283591D01*
X180683557Y-99127066D01*
X180632037Y-98957227D01*
X180614641Y-98780600D01*
X180632037Y-98603973D01*
X180683557Y-98434134D01*
X180767222Y-98277609D01*
X180796552Y-98241871D01*
X180879814Y-98140414D01*
X180981271Y-98057152D01*
X181017009Y-98027822D01*
X181173534Y-97944157D01*
X181343373Y-97892637D01*
X181409557Y-97886119D01*
X181475740Y-97879600D01*
X181564260Y-97879600D01*
X181630443Y-97886119D01*
X181630443Y-97886119D01*
G37*
G36*
X179090443Y-97886119D02*
G01*
X179156627Y-97892637D01*
X179326466Y-97944157D01*
X179482991Y-98027822D01*
X179518729Y-98057152D01*
X179620186Y-98140414D01*
X179703448Y-98241871D01*
X179732778Y-98277609D01*
X179816443Y-98434134D01*
X179867963Y-98603973D01*
X179885359Y-98780600D01*
X179867963Y-98957227D01*
X179816443Y-99127066D01*
X179732778Y-99283591D01*
X179703448Y-99319329D01*
X179620186Y-99420786D01*
X179518729Y-99504048D01*
X179482991Y-99533378D01*
X179326466Y-99617043D01*
X179156627Y-99668563D01*
X179090443Y-99675081D01*
X179024260Y-99681600D01*
X178935740Y-99681600D01*
X178869557Y-99675081D01*
X178803373Y-99668563D01*
X178633534Y-99617043D01*
X178477009Y-99533378D01*
X178441271Y-99504048D01*
X178339814Y-99420786D01*
X178256552Y-99319329D01*
X178227222Y-99283591D01*
X178143557Y-99127066D01*
X178092037Y-98957227D01*
X178074641Y-98780600D01*
X178092037Y-98603973D01*
X178143557Y-98434134D01*
X178227222Y-98277609D01*
X178256552Y-98241871D01*
X178339814Y-98140414D01*
X178441271Y-98057152D01*
X178477009Y-98027822D01*
X178633534Y-97944157D01*
X178803373Y-97892637D01*
X178869557Y-97886119D01*
X178935740Y-97879600D01*
X179024260Y-97879600D01*
X179090443Y-97886119D01*
X179090443Y-97886119D01*
G37*
G36*
X184961000Y-97136000D02*
G01*
X183159000Y-97136000D01*
X183159000Y-95334000D01*
X184961000Y-95334000D01*
X184961000Y-97136000D01*
X184961000Y-97136000D01*
G37*
G36*
X179090443Y-95340519D02*
G01*
X179156627Y-95347037D01*
X179326466Y-95398557D01*
X179482991Y-95482222D01*
X179518729Y-95511552D01*
X179620186Y-95594814D01*
X179703448Y-95696271D01*
X179732778Y-95732009D01*
X179816443Y-95888534D01*
X179867963Y-96058373D01*
X179885359Y-96235000D01*
X179867963Y-96411627D01*
X179816443Y-96581466D01*
X179732778Y-96737991D01*
X179703448Y-96773729D01*
X179620186Y-96875186D01*
X179518729Y-96958448D01*
X179482991Y-96987778D01*
X179326466Y-97071443D01*
X179156627Y-97122963D01*
X179090443Y-97129481D01*
X179024260Y-97136000D01*
X178935740Y-97136000D01*
X178869557Y-97129481D01*
X178803373Y-97122963D01*
X178633534Y-97071443D01*
X178477009Y-96987778D01*
X178441271Y-96958448D01*
X178339814Y-96875186D01*
X178256552Y-96773729D01*
X178227222Y-96737991D01*
X178143557Y-96581466D01*
X178092037Y-96411627D01*
X178074641Y-96235000D01*
X178092037Y-96058373D01*
X178143557Y-95888534D01*
X178227222Y-95732009D01*
X178256552Y-95696271D01*
X178339814Y-95594814D01*
X178441271Y-95511552D01*
X178477009Y-95482222D01*
X178633534Y-95398557D01*
X178803373Y-95347037D01*
X178869557Y-95340519D01*
X178935740Y-95334000D01*
X179024260Y-95334000D01*
X179090443Y-95340519D01*
X179090443Y-95340519D01*
G37*
G36*
X181630443Y-95340519D02*
G01*
X181696627Y-95347037D01*
X181866466Y-95398557D01*
X182022991Y-95482222D01*
X182058729Y-95511552D01*
X182160186Y-95594814D01*
X182243448Y-95696271D01*
X182272778Y-95732009D01*
X182356443Y-95888534D01*
X182407963Y-96058373D01*
X182425359Y-96235000D01*
X182407963Y-96411627D01*
X182356443Y-96581466D01*
X182272778Y-96737991D01*
X182243448Y-96773729D01*
X182160186Y-96875186D01*
X182058729Y-96958448D01*
X182022991Y-96987778D01*
X181866466Y-97071443D01*
X181696627Y-97122963D01*
X181630443Y-97129481D01*
X181564260Y-97136000D01*
X181475740Y-97136000D01*
X181409557Y-97129481D01*
X181343373Y-97122963D01*
X181173534Y-97071443D01*
X181017009Y-96987778D01*
X180981271Y-96958448D01*
X180879814Y-96875186D01*
X180796552Y-96773729D01*
X180767222Y-96737991D01*
X180683557Y-96581466D01*
X180632037Y-96411627D01*
X180614641Y-96235000D01*
X180632037Y-96058373D01*
X180683557Y-95888534D01*
X180767222Y-95732009D01*
X180796552Y-95696271D01*
X180879814Y-95594814D01*
X180981271Y-95511552D01*
X181017009Y-95482222D01*
X181173534Y-95398557D01*
X181343373Y-95347037D01*
X181409557Y-95340519D01*
X181475740Y-95334000D01*
X181564260Y-95334000D01*
X181630443Y-95340519D01*
X181630443Y-95340519D01*
G37*
G36*
X184961000Y-94596000D02*
G01*
X183159000Y-94596000D01*
X183159000Y-92794000D01*
X184961000Y-92794000D01*
X184961000Y-94596000D01*
X184961000Y-94596000D01*
G37*
G36*
X181630442Y-92800518D02*
G01*
X181696627Y-92807037D01*
X181866466Y-92858557D01*
X182022991Y-92942222D01*
X182058057Y-92971000D01*
X182160186Y-93054814D01*
X182230326Y-93140281D01*
X182272778Y-93192009D01*
X182356443Y-93348534D01*
X182407963Y-93518373D01*
X182425359Y-93695000D01*
X182407963Y-93871627D01*
X182356443Y-94041466D01*
X182272778Y-94197991D01*
X182243448Y-94233729D01*
X182160186Y-94335186D01*
X182058729Y-94418448D01*
X182022991Y-94447778D01*
X181866466Y-94531443D01*
X181696627Y-94582963D01*
X181630443Y-94589481D01*
X181564260Y-94596000D01*
X181475740Y-94596000D01*
X181409557Y-94589481D01*
X181343373Y-94582963D01*
X181173534Y-94531443D01*
X181017009Y-94447778D01*
X180981271Y-94418448D01*
X180879814Y-94335186D01*
X180796552Y-94233729D01*
X180767222Y-94197991D01*
X180683557Y-94041466D01*
X180632037Y-93871627D01*
X180614641Y-93695000D01*
X180632037Y-93518373D01*
X180683557Y-93348534D01*
X180767222Y-93192009D01*
X180809674Y-93140281D01*
X180879814Y-93054814D01*
X180981943Y-92971000D01*
X181017009Y-92942222D01*
X181173534Y-92858557D01*
X181343373Y-92807037D01*
X181409558Y-92800518D01*
X181475740Y-92794000D01*
X181564260Y-92794000D01*
X181630442Y-92800518D01*
X181630442Y-92800518D01*
G37*
G36*
X179090442Y-92800518D02*
G01*
X179156627Y-92807037D01*
X179326466Y-92858557D01*
X179482991Y-92942222D01*
X179518057Y-92971000D01*
X179620186Y-93054814D01*
X179690326Y-93140281D01*
X179732778Y-93192009D01*
X179816443Y-93348534D01*
X179867963Y-93518373D01*
X179885359Y-93695000D01*
X179867963Y-93871627D01*
X179816443Y-94041466D01*
X179732778Y-94197991D01*
X179703448Y-94233729D01*
X179620186Y-94335186D01*
X179518729Y-94418448D01*
X179482991Y-94447778D01*
X179326466Y-94531443D01*
X179156627Y-94582963D01*
X179090443Y-94589481D01*
X179024260Y-94596000D01*
X178935740Y-94596000D01*
X178869557Y-94589481D01*
X178803373Y-94582963D01*
X178633534Y-94531443D01*
X178477009Y-94447778D01*
X178441271Y-94418448D01*
X178339814Y-94335186D01*
X178256552Y-94233729D01*
X178227222Y-94197991D01*
X178143557Y-94041466D01*
X178092037Y-93871627D01*
X178074641Y-93695000D01*
X178092037Y-93518373D01*
X178143557Y-93348534D01*
X178227222Y-93192009D01*
X178269674Y-93140281D01*
X178339814Y-93054814D01*
X178441943Y-92971000D01*
X178477009Y-92942222D01*
X178633534Y-92858557D01*
X178803373Y-92807037D01*
X178869558Y-92800518D01*
X178935740Y-92794000D01*
X179024260Y-92794000D01*
X179090442Y-92800518D01*
X179090442Y-92800518D01*
G37*
G36*
X147845720Y-93501160D02*
G01*
X143743720Y-93501160D01*
X143743720Y-89399160D01*
X147845720Y-89399160D01*
X147845720Y-93501160D01*
X147845720Y-93501160D01*
G37*
G36*
X151392974Y-89477978D02*
G01*
X151766231Y-89632586D01*
X151766233Y-89632587D01*
X152102156Y-89857044D01*
X152387836Y-90142724D01*
X152612294Y-90478649D01*
X152766902Y-90851906D01*
X152845720Y-91248153D01*
X152845720Y-91652167D01*
X152766902Y-92048414D01*
X152651689Y-92326562D01*
X152612293Y-92421673D01*
X152387836Y-92757596D01*
X152102156Y-93043276D01*
X151766233Y-93267733D01*
X151766232Y-93267734D01*
X151766231Y-93267734D01*
X151392974Y-93422342D01*
X150996727Y-93501160D01*
X150592713Y-93501160D01*
X150196466Y-93422342D01*
X149823209Y-93267734D01*
X149823208Y-93267734D01*
X149823207Y-93267733D01*
X149487284Y-93043276D01*
X149201604Y-92757596D01*
X148977147Y-92421673D01*
X148937751Y-92326562D01*
X148822538Y-92048414D01*
X148743720Y-91652167D01*
X148743720Y-91248153D01*
X148822538Y-90851906D01*
X148977146Y-90478649D01*
X149201604Y-90142724D01*
X149487284Y-89857044D01*
X149823207Y-89632587D01*
X149823209Y-89632586D01*
X150196466Y-89477978D01*
X150592713Y-89399160D01*
X150996727Y-89399160D01*
X151392974Y-89477978D01*
X151392974Y-89477978D01*
G37*
G36*
X161096694Y-87796860D02*
G01*
X161362437Y-87849719D01*
X161863087Y-88057095D01*
X162043561Y-88177684D01*
X162313660Y-88358158D01*
X162696842Y-88741340D01*
X162877316Y-89011439D01*
X162997905Y-89191913D01*
X163180438Y-89632587D01*
X163205281Y-89692564D01*
X163311000Y-90224049D01*
X163311000Y-90765951D01*
X163275186Y-90946000D01*
X163205281Y-91297437D01*
X162997905Y-91798087D01*
X162941521Y-91882471D01*
X162696842Y-92248660D01*
X162313660Y-92631842D01*
X162125455Y-92757596D01*
X161863087Y-92932905D01*
X161362437Y-93140281D01*
X161102382Y-93192009D01*
X160830951Y-93246000D01*
X160289049Y-93246000D01*
X160017618Y-93192009D01*
X159757563Y-93140281D01*
X159256913Y-92932905D01*
X158994545Y-92757596D01*
X158806340Y-92631842D01*
X158423158Y-92248660D01*
X158178479Y-91882471D01*
X158122095Y-91798087D01*
X157914719Y-91297437D01*
X157844814Y-90946000D01*
X157809000Y-90765951D01*
X157809000Y-90224049D01*
X157914719Y-89692564D01*
X157939562Y-89632587D01*
X158122095Y-89191913D01*
X158242684Y-89011439D01*
X158423158Y-88741340D01*
X158806340Y-88358158D01*
X159076439Y-88177684D01*
X159256913Y-88057095D01*
X159757563Y-87849719D01*
X160023306Y-87796860D01*
X160289049Y-87744000D01*
X160830951Y-87744000D01*
X161096694Y-87796860D01*
X161096694Y-87796860D01*
G37*
G36*
X103096694Y-87796860D02*
G01*
X103362437Y-87849719D01*
X103863087Y-88057095D01*
X104043561Y-88177684D01*
X104313660Y-88358158D01*
X104696842Y-88741340D01*
X104877316Y-89011439D01*
X104997905Y-89191913D01*
X105180438Y-89632587D01*
X105205281Y-89692564D01*
X105311000Y-90224049D01*
X105311000Y-90765951D01*
X105275186Y-90946000D01*
X105205281Y-91297437D01*
X104997905Y-91798087D01*
X104941521Y-91882471D01*
X104696842Y-92248660D01*
X104313660Y-92631842D01*
X104125455Y-92757596D01*
X103863087Y-92932905D01*
X103362437Y-93140281D01*
X103102382Y-93192009D01*
X102830951Y-93246000D01*
X102289049Y-93246000D01*
X102017618Y-93192009D01*
X101757563Y-93140281D01*
X101256913Y-92932905D01*
X100994545Y-92757596D01*
X100806340Y-92631842D01*
X100423158Y-92248660D01*
X100178479Y-91882471D01*
X100122095Y-91798087D01*
X99914719Y-91297437D01*
X99844814Y-90946000D01*
X99809000Y-90765951D01*
X99809000Y-90224049D01*
X99914719Y-89692564D01*
X99939562Y-89632587D01*
X100122095Y-89191913D01*
X100242684Y-89011439D01*
X100423158Y-88741340D01*
X100806340Y-88358158D01*
X101076439Y-88177684D01*
X101256913Y-88057095D01*
X101757563Y-87849719D01*
X102023306Y-87796860D01*
X102289049Y-87744000D01*
X102830951Y-87744000D01*
X103096694Y-87796860D01*
X103096694Y-87796860D01*
G37*
G36*
X173278433Y-79509893D02*
G01*
X173368657Y-79527839D01*
X173474267Y-79571585D01*
X173623621Y-79633449D01*
X173623622Y-79633450D01*
X173853086Y-79786772D01*
X174048228Y-79981914D01*
X174150675Y-80135237D01*
X174201551Y-80211379D01*
X174307161Y-80466344D01*
X174361000Y-80737012D01*
X174361000Y-81012988D01*
X174307161Y-81283656D01*
X174201551Y-81538621D01*
X174201550Y-81538622D01*
X174048228Y-81768086D01*
X173853086Y-81963228D01*
X173699763Y-82065675D01*
X173623621Y-82116551D01*
X173474267Y-82178415D01*
X173368657Y-82222161D01*
X173278433Y-82240107D01*
X173097988Y-82276000D01*
X172822012Y-82276000D01*
X172641567Y-82240107D01*
X172551343Y-82222161D01*
X172445733Y-82178415D01*
X172296379Y-82116551D01*
X172220237Y-82065675D01*
X172066914Y-81963228D01*
X171871772Y-81768086D01*
X171718450Y-81538622D01*
X171718449Y-81538621D01*
X171612839Y-81283656D01*
X171559000Y-81012988D01*
X171559000Y-80737012D01*
X171612839Y-80466344D01*
X171718449Y-80211379D01*
X171769325Y-80135237D01*
X171871772Y-79981914D01*
X172066914Y-79786772D01*
X172296378Y-79633450D01*
X172296379Y-79633449D01*
X172445733Y-79571585D01*
X172551343Y-79527839D01*
X172641567Y-79509893D01*
X172822012Y-79474000D01*
X173097988Y-79474000D01*
X173278433Y-79509893D01*
X173278433Y-79509893D01*
G37*
G36*
X114278433Y-79509893D02*
G01*
X114368657Y-79527839D01*
X114474267Y-79571585D01*
X114623621Y-79633449D01*
X114623622Y-79633450D01*
X114853086Y-79786772D01*
X115048228Y-79981914D01*
X115150675Y-80135237D01*
X115201551Y-80211379D01*
X115307161Y-80466344D01*
X115361000Y-80737012D01*
X115361000Y-81012988D01*
X115307161Y-81283656D01*
X115201551Y-81538621D01*
X115201550Y-81538622D01*
X115048228Y-81768086D01*
X114853086Y-81963228D01*
X114699763Y-82065675D01*
X114623621Y-82116551D01*
X114474267Y-82178415D01*
X114368657Y-82222161D01*
X114278433Y-82240107D01*
X114097988Y-82276000D01*
X113822012Y-82276000D01*
X113641567Y-82240107D01*
X113551343Y-82222161D01*
X113445733Y-82178415D01*
X113296379Y-82116551D01*
X113220237Y-82065675D01*
X113066914Y-81963228D01*
X112871772Y-81768086D01*
X112718450Y-81538622D01*
X112718449Y-81538621D01*
X112612839Y-81283656D01*
X112559000Y-81012988D01*
X112559000Y-80737012D01*
X112612839Y-80466344D01*
X112718449Y-80211379D01*
X112769325Y-80135237D01*
X112871772Y-79981914D01*
X113066914Y-79786772D01*
X113296378Y-79633450D01*
X113296379Y-79633449D01*
X113445733Y-79571585D01*
X113551343Y-79527839D01*
X113641567Y-79509893D01*
X113822012Y-79474000D01*
X114097988Y-79474000D01*
X114278433Y-79509893D01*
X114278433Y-79509893D01*
G37*
G36*
X118829855Y-65156940D02*
G01*
X118893618Y-65163220D01*
X118984404Y-65190760D01*
X119016336Y-65200446D01*
X119129425Y-65260894D01*
X119228554Y-65342246D01*
X119309906Y-65441375D01*
X119370354Y-65554464D01*
X119370355Y-65554468D01*
X119407580Y-65677182D01*
X119420149Y-65804800D01*
X119407580Y-65932418D01*
X119380040Y-66023204D01*
X119370354Y-66055136D01*
X119309906Y-66168225D01*
X119228554Y-66267354D01*
X119129425Y-66348706D01*
X119016336Y-66409154D01*
X118984404Y-66418840D01*
X118893618Y-66446380D01*
X118829855Y-66452660D01*
X118797974Y-66455800D01*
X118184026Y-66455800D01*
X118152145Y-66452660D01*
X118088382Y-66446380D01*
X117997596Y-66418840D01*
X117965664Y-66409154D01*
X117852575Y-66348706D01*
X117753446Y-66267354D01*
X117672094Y-66168225D01*
X117611646Y-66055136D01*
X117601960Y-66023204D01*
X117574420Y-65932418D01*
X117561851Y-65804800D01*
X117574420Y-65677182D01*
X117611645Y-65554468D01*
X117611646Y-65554464D01*
X117672094Y-65441375D01*
X117753446Y-65342246D01*
X117852575Y-65260894D01*
X117965664Y-65200446D01*
X117997596Y-65190760D01*
X118088382Y-65163220D01*
X118152145Y-65156940D01*
X118184026Y-65153800D01*
X118797974Y-65153800D01*
X118829855Y-65156940D01*
X118829855Y-65156940D01*
G37*
G36*
X119257242Y-63158204D02*
G01*
X119294337Y-63169457D01*
X119328515Y-63187725D01*
X119358481Y-63212319D01*
X119383075Y-63242285D01*
X119401343Y-63276463D01*
X119412596Y-63313558D01*
X119417000Y-63358274D01*
X119417000Y-64251326D01*
X119412596Y-64296042D01*
X119401343Y-64333137D01*
X119383075Y-64367315D01*
X119358481Y-64397281D01*
X119328515Y-64421875D01*
X119294337Y-64440143D01*
X119257242Y-64451396D01*
X119212526Y-64455800D01*
X117769474Y-64455800D01*
X117724758Y-64451396D01*
X117687663Y-64440143D01*
X117653485Y-64421875D01*
X117623519Y-64397281D01*
X117598925Y-64367315D01*
X117580657Y-64333137D01*
X117569404Y-64296042D01*
X117565000Y-64251326D01*
X117565000Y-63358274D01*
X117569404Y-63313558D01*
X117580657Y-63276463D01*
X117598925Y-63242285D01*
X117623519Y-63212319D01*
X117653485Y-63187725D01*
X117687663Y-63169457D01*
X117724758Y-63158204D01*
X117769474Y-63153800D01*
X119212526Y-63153800D01*
X119257242Y-63158204D01*
X119257242Y-63158204D01*
G37*
G36*
X135757255Y-52333140D02*
G01*
X135821018Y-52339420D01*
X135911804Y-52366960D01*
X135943736Y-52376646D01*
X136056825Y-52437094D01*
X136155954Y-52518446D01*
X136237306Y-52617575D01*
X136297754Y-52730664D01*
X136297755Y-52730668D01*
X136334980Y-52853382D01*
X136347549Y-52981000D01*
X136334980Y-53108618D01*
X136307440Y-53199404D01*
X136297754Y-53231336D01*
X136237306Y-53344425D01*
X136155954Y-53443554D01*
X136056825Y-53524906D01*
X135943736Y-53585354D01*
X135911804Y-53595040D01*
X135821018Y-53622580D01*
X135757255Y-53628860D01*
X135725374Y-53632000D01*
X135161426Y-53632000D01*
X135129545Y-53628860D01*
X135065782Y-53622580D01*
X134974996Y-53595040D01*
X134943064Y-53585354D01*
X134829975Y-53524906D01*
X134730846Y-53443554D01*
X134649494Y-53344425D01*
X134589046Y-53231336D01*
X134579360Y-53199404D01*
X134551820Y-53108618D01*
X134539251Y-52981000D01*
X134551820Y-52853382D01*
X134589045Y-52730668D01*
X134589046Y-52730664D01*
X134649494Y-52617575D01*
X134730846Y-52518446D01*
X134829975Y-52437094D01*
X134943064Y-52376646D01*
X134974996Y-52366960D01*
X135065782Y-52339420D01*
X135129545Y-52333140D01*
X135161426Y-52330000D01*
X135725374Y-52330000D01*
X135757255Y-52333140D01*
X135757255Y-52333140D01*
G37*
G36*
X127557255Y-52333140D02*
G01*
X127621018Y-52339420D01*
X127711804Y-52366960D01*
X127743736Y-52376646D01*
X127856825Y-52437094D01*
X127955954Y-52518446D01*
X128037306Y-52617575D01*
X128097754Y-52730664D01*
X128097755Y-52730668D01*
X128134980Y-52853382D01*
X128147549Y-52981000D01*
X128134980Y-53108618D01*
X128107440Y-53199404D01*
X128097754Y-53231336D01*
X128037306Y-53344425D01*
X127955954Y-53443554D01*
X127856825Y-53524906D01*
X127743736Y-53585354D01*
X127711804Y-53595040D01*
X127621018Y-53622580D01*
X127557255Y-53628860D01*
X127525374Y-53632000D01*
X126961426Y-53632000D01*
X126929545Y-53628860D01*
X126865782Y-53622580D01*
X126774996Y-53595040D01*
X126743064Y-53585354D01*
X126629975Y-53524906D01*
X126530846Y-53443554D01*
X126449494Y-53344425D01*
X126389046Y-53231336D01*
X126379360Y-53199404D01*
X126351820Y-53108618D01*
X126339251Y-52981000D01*
X126351820Y-52853382D01*
X126389045Y-52730668D01*
X126389046Y-52730664D01*
X126449494Y-52617575D01*
X126530846Y-52518446D01*
X126629975Y-52437094D01*
X126743064Y-52376646D01*
X126774996Y-52366960D01*
X126865782Y-52339420D01*
X126929545Y-52333140D01*
X126961426Y-52330000D01*
X127525374Y-52330000D01*
X127557255Y-52333140D01*
X127557255Y-52333140D01*
G37*
G36*
X128037209Y-50915078D02*
G01*
X128103369Y-50935149D01*
X128103372Y-50935150D01*
X128164349Y-50967742D01*
X128183297Y-50983293D01*
X128217796Y-51011604D01*
X128246107Y-51046103D01*
X128261658Y-51065051D01*
X128294250Y-51126028D01*
X128294251Y-51126031D01*
X128314322Y-51192192D01*
X128321098Y-51261000D01*
X128314322Y-51329808D01*
X128294251Y-51395969D01*
X128294250Y-51395972D01*
X128261658Y-51456949D01*
X128246107Y-51475897D01*
X128217796Y-51510396D01*
X128189473Y-51533639D01*
X128164349Y-51554258D01*
X128103372Y-51586850D01*
X128103369Y-51586851D01*
X128037209Y-51606922D01*
X127985644Y-51612000D01*
X127701156Y-51612000D01*
X127649591Y-51606922D01*
X127583431Y-51586851D01*
X127583428Y-51586850D01*
X127522451Y-51554258D01*
X127497327Y-51533639D01*
X127469004Y-51510396D01*
X127440693Y-51475897D01*
X127425142Y-51456949D01*
X127392550Y-51395972D01*
X127392549Y-51395969D01*
X127372478Y-51329808D01*
X127365702Y-51261000D01*
X127372478Y-51192192D01*
X127392549Y-51126031D01*
X127392550Y-51126028D01*
X127425142Y-51065051D01*
X127440693Y-51046103D01*
X127469004Y-51011604D01*
X127503503Y-50983293D01*
X127522451Y-50967742D01*
X127583428Y-50935150D01*
X127583431Y-50935149D01*
X127649591Y-50915078D01*
X127701156Y-50910000D01*
X127985644Y-50910000D01*
X128037209Y-50915078D01*
X128037209Y-50915078D01*
G37*
G36*
X134945783Y-50923489D02*
G01*
X134945786Y-50923490D01*
X134945785Y-50923490D01*
X135009658Y-50949946D01*
X135067148Y-50988360D01*
X135116040Y-51037252D01*
X135154454Y-51094742D01*
X135167414Y-51126031D01*
X135180911Y-51158617D01*
X135194400Y-51226430D01*
X135194400Y-51295570D01*
X135180911Y-51363383D01*
X135180910Y-51363385D01*
X135154454Y-51427258D01*
X135116040Y-51484748D01*
X135067148Y-51533640D01*
X135009658Y-51572054D01*
X134973933Y-51586851D01*
X134945783Y-51598511D01*
X134877970Y-51612000D01*
X134808830Y-51612000D01*
X134741017Y-51598511D01*
X134712867Y-51586851D01*
X134677142Y-51572054D01*
X134619652Y-51533640D01*
X134570760Y-51484748D01*
X134532346Y-51427258D01*
X134505890Y-51363385D01*
X134505889Y-51363383D01*
X134492400Y-51295570D01*
X134492400Y-51226430D01*
X134505889Y-51158617D01*
X134519386Y-51126031D01*
X134532346Y-51094742D01*
X134570760Y-51037252D01*
X134619652Y-50988360D01*
X134677142Y-50949946D01*
X134741015Y-50923490D01*
X134741014Y-50923490D01*
X134741017Y-50923489D01*
X134808830Y-50910000D01*
X134877970Y-50910000D01*
X134945783Y-50923489D01*
X134945783Y-50923489D01*
G37*
G36*
X135421514Y-49392611D02*
G01*
X135520665Y-49422688D01*
X135612044Y-49471531D01*
X135692138Y-49537262D01*
X135757869Y-49617356D01*
X135806712Y-49708735D01*
X135836789Y-49807886D01*
X135846945Y-49911000D01*
X135836789Y-50014114D01*
X135806712Y-50113265D01*
X135757869Y-50204644D01*
X135692138Y-50284738D01*
X135612044Y-50350469D01*
X135520665Y-50399312D01*
X135421514Y-50429389D01*
X135344239Y-50437000D01*
X134892561Y-50437000D01*
X134815286Y-50429389D01*
X134716135Y-50399312D01*
X134624756Y-50350469D01*
X134544662Y-50284738D01*
X134478931Y-50204644D01*
X134430088Y-50113265D01*
X134400011Y-50014114D01*
X134389855Y-49911000D01*
X134400011Y-49807886D01*
X134430088Y-49708735D01*
X134478931Y-49617356D01*
X134544662Y-49537262D01*
X134624756Y-49471531D01*
X134716135Y-49422688D01*
X134815286Y-49392611D01*
X134892561Y-49385000D01*
X135344239Y-49385000D01*
X135421514Y-49392611D01*
X135421514Y-49392611D01*
G37*
G36*
X127871514Y-49392611D02*
G01*
X127970665Y-49422688D01*
X128062044Y-49471531D01*
X128142138Y-49537262D01*
X128207869Y-49617356D01*
X128256712Y-49708735D01*
X128286789Y-49807886D01*
X128296945Y-49911000D01*
X128286789Y-50014114D01*
X128256712Y-50113265D01*
X128207869Y-50204644D01*
X128142138Y-50284738D01*
X128062044Y-50350469D01*
X127970665Y-50399312D01*
X127871514Y-50429389D01*
X127794239Y-50437000D01*
X127342561Y-50437000D01*
X127265286Y-50429389D01*
X127166135Y-50399312D01*
X127074756Y-50350469D01*
X126994662Y-50284738D01*
X126928931Y-50204644D01*
X126880088Y-50113265D01*
X126850011Y-50014114D01*
X126839855Y-49911000D01*
X126850011Y-49807886D01*
X126880088Y-49708735D01*
X126928931Y-49617356D01*
X126994662Y-49537262D01*
X127074756Y-49471531D01*
X127166135Y-49422688D01*
X127265286Y-49392611D01*
X127342561Y-49385000D01*
X127794239Y-49385000D01*
X127871514Y-49392611D01*
X127871514Y-49392611D01*
G37*
G36*
X114278433Y-47509893D02*
G01*
X114368657Y-47527839D01*
X114474267Y-47571585D01*
X114623621Y-47633449D01*
X114623622Y-47633450D01*
X114853086Y-47786772D01*
X115048228Y-47981914D01*
X115150675Y-48135237D01*
X115201551Y-48211379D01*
X115307161Y-48466344D01*
X115361000Y-48737012D01*
X115361000Y-49012988D01*
X115307161Y-49283656D01*
X115201551Y-49538621D01*
X115201550Y-49538622D01*
X115048228Y-49768086D01*
X114853086Y-49963228D01*
X114776932Y-50014112D01*
X114623621Y-50116551D01*
X114474267Y-50178415D01*
X114368657Y-50222161D01*
X114278433Y-50240107D01*
X114097988Y-50276000D01*
X113822012Y-50276000D01*
X113641567Y-50240107D01*
X113551343Y-50222161D01*
X113445733Y-50178415D01*
X113296379Y-50116551D01*
X113143068Y-50014112D01*
X113066914Y-49963228D01*
X112871772Y-49768086D01*
X112718450Y-49538622D01*
X112718449Y-49538621D01*
X112612839Y-49283656D01*
X112559000Y-49012988D01*
X112559000Y-48737012D01*
X112612839Y-48466344D01*
X112718449Y-48211379D01*
X112769325Y-48135237D01*
X112871772Y-47981914D01*
X113066914Y-47786772D01*
X113296378Y-47633450D01*
X113296379Y-47633449D01*
X113445733Y-47571585D01*
X113551343Y-47527839D01*
X113641567Y-47509893D01*
X113822012Y-47474000D01*
X114097988Y-47474000D01*
X114278433Y-47509893D01*
X114278433Y-47509893D01*
G37*
G36*
X173278433Y-47509893D02*
G01*
X173368657Y-47527839D01*
X173474267Y-47571585D01*
X173623621Y-47633449D01*
X173623622Y-47633450D01*
X173853086Y-47786772D01*
X174048228Y-47981914D01*
X174150675Y-48135237D01*
X174201551Y-48211379D01*
X174307161Y-48466344D01*
X174361000Y-48737012D01*
X174361000Y-49012988D01*
X174307161Y-49283656D01*
X174201551Y-49538621D01*
X174201550Y-49538622D01*
X174048228Y-49768086D01*
X173853086Y-49963228D01*
X173776932Y-50014112D01*
X173623621Y-50116551D01*
X173474267Y-50178415D01*
X173368657Y-50222161D01*
X173278433Y-50240107D01*
X173097988Y-50276000D01*
X172822012Y-50276000D01*
X172641567Y-50240107D01*
X172551343Y-50222161D01*
X172445733Y-50178415D01*
X172296379Y-50116551D01*
X172143068Y-50014112D01*
X172066914Y-49963228D01*
X171871772Y-49768086D01*
X171718450Y-49538622D01*
X171718449Y-49538621D01*
X171612839Y-49283656D01*
X171559000Y-49012988D01*
X171559000Y-48737012D01*
X171612839Y-48466344D01*
X171718449Y-48211379D01*
X171769325Y-48135237D01*
X171871772Y-47981914D01*
X172066914Y-47786772D01*
X172296378Y-47633450D01*
X172296379Y-47633449D01*
X172445733Y-47571585D01*
X172551343Y-47527839D01*
X172641567Y-47509893D01*
X172822012Y-47474000D01*
X173097988Y-47474000D01*
X173278433Y-47509893D01*
X173278433Y-47509893D01*
G37*
G36*
X135757255Y-46193140D02*
G01*
X135821018Y-46199420D01*
X135911804Y-46226960D01*
X135943736Y-46236646D01*
X136056825Y-46297094D01*
X136155954Y-46378446D01*
X136237306Y-46477575D01*
X136297754Y-46590664D01*
X136297755Y-46590668D01*
X136334980Y-46713382D01*
X136347549Y-46841000D01*
X136334980Y-46968618D01*
X136307440Y-47059404D01*
X136297754Y-47091336D01*
X136237306Y-47204425D01*
X136155954Y-47303554D01*
X136056825Y-47384906D01*
X135943736Y-47445354D01*
X135911804Y-47455040D01*
X135821018Y-47482580D01*
X135757255Y-47488860D01*
X135725374Y-47492000D01*
X135161426Y-47492000D01*
X135129545Y-47488860D01*
X135065782Y-47482580D01*
X134974996Y-47455040D01*
X134943064Y-47445354D01*
X134829975Y-47384906D01*
X134730846Y-47303554D01*
X134649494Y-47204425D01*
X134589046Y-47091336D01*
X134579360Y-47059404D01*
X134551820Y-46968618D01*
X134539251Y-46841000D01*
X134551820Y-46713382D01*
X134589045Y-46590668D01*
X134589046Y-46590664D01*
X134649494Y-46477575D01*
X134730846Y-46378446D01*
X134829975Y-46297094D01*
X134943064Y-46236646D01*
X134974996Y-46226960D01*
X135065782Y-46199420D01*
X135129545Y-46193140D01*
X135161426Y-46190000D01*
X135725374Y-46190000D01*
X135757255Y-46193140D01*
X135757255Y-46193140D01*
G37*
G36*
X127557255Y-46193140D02*
G01*
X127621018Y-46199420D01*
X127711804Y-46226960D01*
X127743736Y-46236646D01*
X127856825Y-46297094D01*
X127955954Y-46378446D01*
X128037306Y-46477575D01*
X128097754Y-46590664D01*
X128097755Y-46590668D01*
X128134980Y-46713382D01*
X128147549Y-46841000D01*
X128134980Y-46968618D01*
X128107440Y-47059404D01*
X128097754Y-47091336D01*
X128037306Y-47204425D01*
X127955954Y-47303554D01*
X127856825Y-47384906D01*
X127743736Y-47445354D01*
X127711804Y-47455040D01*
X127621018Y-47482580D01*
X127557255Y-47488860D01*
X127525374Y-47492000D01*
X126961426Y-47492000D01*
X126929545Y-47488860D01*
X126865782Y-47482580D01*
X126774996Y-47455040D01*
X126743064Y-47445354D01*
X126629975Y-47384906D01*
X126530846Y-47303554D01*
X126449494Y-47204425D01*
X126389046Y-47091336D01*
X126379360Y-47059404D01*
X126351820Y-46968618D01*
X126339251Y-46841000D01*
X126351820Y-46713382D01*
X126389045Y-46590668D01*
X126389046Y-46590664D01*
X126449494Y-46477575D01*
X126530846Y-46378446D01*
X126629975Y-46297094D01*
X126743064Y-46236646D01*
X126774996Y-46226960D01*
X126865782Y-46199420D01*
X126929545Y-46193140D01*
X126961426Y-46190000D01*
X127525374Y-46190000D01*
X127557255Y-46193140D01*
X127557255Y-46193140D01*
G37*
M02*
