G04 #@! TF.GenerationSoftware,KiCad,Pcbnew,5.1.4-e60b266~84~ubuntu18.04.1*
G04 #@! TF.CreationDate,2019-10-17T22:07:23-04:00*
G04 #@! TF.ProjectId,SmallKat v2,536d616c-6c4b-4617-9420-76322e6b6963,rev?*
G04 #@! TF.SameCoordinates,Original*
G04 #@! TF.FileFunction,Legend,Top*
G04 #@! TF.FilePolarity,Positive*
%FSLAX46Y46*%
G04 Gerber Fmt 4.6, Leading zero omitted, Abs format (unit mm)*
G04 Created by KiCad (PCBNEW 5.1.4-e60b266~84~ubuntu18.04.1) date 2019-10-17 22:07:23*
%MOMM*%
%LPD*%
G04 APERTURE LIST*
%ADD10C,0.300000*%
%ADD11C,0.254000*%
%ADD12C,0.200000*%
%ADD13C,0.127000*%
%ADD14C,0.150000*%
%ADD15C,0.120000*%
%ADD16C,0.100000*%
%ADD17C,0.050000*%
G04 APERTURE END LIST*
D10*
X155841628Y-88727742D02*
X154698771Y-88727742D01*
X155270200Y-89299171D02*
X155270200Y-88156314D01*
D11*
X185237430Y-105825800D02*
G75*
G03X185237430Y-105825800I-106630J0D01*
G01*
D12*
X183848800Y-103453800D02*
X174118800Y-103453800D01*
X183848800Y-108483800D02*
X174118800Y-108483800D01*
D11*
X184983430Y-135696200D02*
G75*
G03X184983430Y-135696200I-106630J0D01*
G01*
D12*
X183594800Y-133324200D02*
X173864800Y-133324200D01*
X183594800Y-138354200D02*
X173864800Y-138354200D01*
D11*
X102255230Y-96688400D02*
G75*
G03X102255230Y-96688400I-106630J0D01*
G01*
D12*
X103430600Y-99060400D02*
X113160600Y-99060400D01*
X103430600Y-94030400D02*
X113160600Y-94030400D01*
D11*
X105786630Y-122656800D02*
G75*
G03X105786630Y-122656800I-106630J0D01*
G01*
D12*
X108052000Y-121374800D02*
X108052000Y-111644800D01*
X103022000Y-121374800D02*
X103022000Y-111644800D01*
D13*
X174903000Y-69085500D02*
X174903000Y-67985500D01*
X172787000Y-69085500D02*
X174903000Y-69085500D01*
X172787000Y-67985500D02*
X172787000Y-69085500D01*
X172787000Y-67985500D02*
X169545000Y-67985500D01*
X177995000Y-67985500D02*
X174903000Y-67985500D01*
D14*
X169545000Y-67985500D02*
X169545000Y-65085500D01*
X169545000Y-65085500D02*
X169845000Y-65085500D01*
X169845000Y-65085500D02*
X177995000Y-65085500D01*
X169545000Y-58485500D02*
X169845000Y-58485500D01*
D13*
X172787000Y-55585500D02*
X169545000Y-55585500D01*
X174903000Y-54485500D02*
X174903000Y-55585500D01*
D14*
X169545000Y-55585500D02*
X169545000Y-58485500D01*
X169845000Y-58485500D02*
X177995000Y-58485500D01*
D13*
X172787000Y-55585500D02*
X172787000Y-54485500D01*
X172787000Y-54485500D02*
X174903000Y-54485500D01*
X177995000Y-55585500D02*
X174903000Y-55585500D01*
D14*
X177995000Y-65085500D02*
X177995000Y-58485500D01*
D15*
X138247800Y-79294000D02*
X138247800Y-78994000D01*
X142387800Y-76154000D02*
X142387800Y-76454000D01*
X142387800Y-78994000D02*
X142387800Y-79294000D01*
X138247800Y-76154000D02*
X142387800Y-76154000D01*
X138247800Y-76454000D02*
X138247800Y-76154000D01*
X142387800Y-79294000D02*
X138247800Y-79294000D01*
X142396800Y-79583000D02*
X142396800Y-79883000D01*
X138256800Y-82723000D02*
X138256800Y-82423000D01*
X138256800Y-79883000D02*
X138256800Y-79583000D01*
X142396800Y-82723000D02*
X138256800Y-82723000D01*
X142396800Y-82423000D02*
X142396800Y-82723000D01*
X138256800Y-79583000D02*
X142396800Y-79583000D01*
X143294000Y-127843000D02*
X143294000Y-128143000D01*
X139154000Y-130983000D02*
X139154000Y-130683000D01*
X139154000Y-128143000D02*
X139154000Y-127843000D01*
X143294000Y-130983000D02*
X139154000Y-130983000D01*
X143294000Y-130683000D02*
X143294000Y-130983000D01*
X139154000Y-127843000D02*
X143294000Y-127843000D01*
X143289500Y-131335500D02*
X143289500Y-131635500D01*
X139149500Y-134475500D02*
X139149500Y-134175500D01*
X139149500Y-131635500D02*
X139149500Y-131335500D01*
X143289500Y-134475500D02*
X139149500Y-134475500D01*
X143289500Y-134175500D02*
X143289500Y-134475500D01*
X139149500Y-131335500D02*
X143289500Y-131335500D01*
X134205203Y-53561000D02*
G75*
G03X134205203Y-53561000I-111803J0D01*
G01*
X126543400Y-46211000D02*
X125643400Y-46211000D01*
X126543400Y-53611000D02*
X125643400Y-53611000D01*
X125643400Y-53611000D02*
X125643400Y-46211000D01*
X137043400Y-46211000D02*
X136143400Y-46211000D01*
X137043400Y-53611000D02*
X136143400Y-53611000D01*
X137043400Y-53611000D02*
X137043400Y-46211000D01*
X155211803Y-125305000D02*
G75*
G03X155211803Y-125305000I-111803J0D01*
G01*
X162450000Y-117755000D02*
X162450000Y-116855000D01*
X155050000Y-117755000D02*
X155050000Y-116855000D01*
X155050000Y-116855000D02*
X162450000Y-116855000D01*
X162450000Y-128255000D02*
X162450000Y-127355000D01*
X155050000Y-128255000D02*
X155050000Y-127355000D01*
X155050000Y-128255000D02*
X162450000Y-128255000D01*
X142370500Y-109805500D02*
X143720500Y-109805500D01*
X142370500Y-111555500D02*
X143720500Y-111555500D01*
X133235200Y-58273200D02*
X133235200Y-57798200D01*
X129015200Y-62018200D02*
X129490200Y-62018200D01*
X129015200Y-61543200D02*
X129015200Y-62018200D01*
X129015200Y-57798200D02*
X129490200Y-57798200D01*
X129015200Y-58273200D02*
X129015200Y-57798200D01*
X133235200Y-62018200D02*
X132760200Y-62018200D01*
X133235200Y-61543200D02*
X133235200Y-62018200D01*
X144575400Y-55782200D02*
X144195400Y-55782200D01*
X144575400Y-49362200D02*
X144575400Y-55782200D01*
X162815400Y-49362200D02*
X162815400Y-55782200D01*
X144575400Y-49362200D02*
X162815400Y-49362200D01*
X162815400Y-75107200D02*
X161815400Y-75107200D01*
X162815400Y-74327200D02*
X162815400Y-75107200D01*
X144575400Y-75107200D02*
X145575400Y-75107200D01*
X144575400Y-74327200D02*
X144575400Y-75107200D01*
X123702000Y-57676800D02*
X122302000Y-57676800D01*
X122302000Y-59996800D02*
X124202000Y-59996800D01*
X125445200Y-71443600D02*
X125445200Y-68993600D01*
X122225200Y-69643600D02*
X122225200Y-71443600D01*
X151495000Y-124680000D02*
X151970000Y-124680000D01*
X147750000Y-120460000D02*
X147750000Y-120935000D01*
X148225000Y-120460000D02*
X147750000Y-120460000D01*
X151970000Y-120460000D02*
X151970000Y-120935000D01*
X151495000Y-120460000D02*
X151970000Y-120460000D01*
X147750000Y-124680000D02*
X147750000Y-124205000D01*
X148225000Y-124680000D02*
X147750000Y-124680000D01*
X116610000Y-116285000D02*
X116230000Y-116285000D01*
X116610000Y-109865000D02*
X116610000Y-116285000D01*
X134850000Y-109865000D02*
X134850000Y-116285000D01*
X116610000Y-109865000D02*
X134850000Y-109865000D01*
X134850000Y-135610000D02*
X133850000Y-135610000D01*
X134850000Y-134830000D02*
X134850000Y-135610000D01*
X116610000Y-135610000D02*
X117610000Y-135610000D01*
X116610000Y-134830000D02*
X116610000Y-135610000D01*
X151541500Y-130181300D02*
X151541500Y-131581300D01*
X153861500Y-131581300D02*
X153861500Y-129681300D01*
X140860960Y-117000880D02*
X141120960Y-117000880D01*
X140860960Y-117000880D02*
X140860960Y-116740880D01*
X140860960Y-112980880D02*
X141120960Y-112980880D01*
X146280960Y-117000880D02*
X146020960Y-117000880D01*
X146280960Y-117000880D02*
X146280960Y-116740880D01*
X146280960Y-112980880D02*
X146020960Y-112980880D01*
X146280960Y-112980880D02*
X146280960Y-113240880D01*
X135376800Y-65961800D02*
X135376800Y-64501800D01*
X138536800Y-65961800D02*
X138536800Y-63801800D01*
X138536800Y-65961800D02*
X137606800Y-65961800D01*
X135376800Y-65961800D02*
X136306800Y-65961800D01*
X141214000Y-61028800D02*
X141214000Y-62488800D01*
X138054000Y-61028800D02*
X138054000Y-63188800D01*
X138054000Y-61028800D02*
X138984000Y-61028800D01*
X141214000Y-61028800D02*
X140284000Y-61028800D01*
X149985000Y-133025000D02*
X148525000Y-133025000D01*
X149985000Y-129865000D02*
X147825000Y-129865000D01*
X149985000Y-129865000D02*
X149985000Y-130795000D01*
X149985000Y-133025000D02*
X149985000Y-132095000D01*
X149985000Y-129469000D02*
X148525000Y-129469000D01*
X149985000Y-126309000D02*
X147825000Y-126309000D01*
X149985000Y-126309000D02*
X149985000Y-127239000D01*
X149985000Y-129469000D02*
X149985000Y-128539000D01*
X144001200Y-96066600D02*
X147131200Y-96066600D01*
X144671200Y-99666600D02*
X147131200Y-99666600D01*
X148471600Y-96065800D02*
X151601600Y-96065800D01*
X149141600Y-99665800D02*
X151601600Y-99665800D01*
X132750000Y-101015000D02*
X121250000Y-101015000D01*
X133450000Y-100365000D02*
X133450000Y-97415000D01*
X121250000Y-88215000D02*
X132750000Y-88215000D01*
X120550000Y-100315000D02*
X120550000Y-97415000D01*
X133450000Y-91815000D02*
X133450000Y-88915000D01*
X120550000Y-91815000D02*
X120550000Y-88915000D01*
X133450000Y-100315000D02*
G75*
G02X132750000Y-101015000I-700000J0D01*
G01*
X132750000Y-88215000D02*
G75*
G02X133450000Y-88915000I0J-700000D01*
G01*
X120550000Y-88915000D02*
G75*
G02X121250000Y-88215000I700000J0D01*
G01*
X121250000Y-101015000D02*
G75*
G02X120550000Y-100315000I0J700000D01*
G01*
X156902678Y-110262600D02*
X156385522Y-110262600D01*
X156902678Y-111682600D02*
X156385522Y-111682600D01*
X125840700Y-72871200D02*
X125840700Y-75671200D01*
X125840700Y-75671200D02*
X123840700Y-75671200D01*
X123840700Y-75671200D02*
X123840700Y-72871200D01*
X123840700Y-72871200D02*
X125840700Y-72871200D01*
X118351000Y-62944800D02*
X119566000Y-62944800D01*
X114391000Y-63004800D02*
X112131000Y-63004800D01*
X114391000Y-63504800D02*
X112131000Y-63504800D01*
X115991000Y-66104800D02*
X115991000Y-67104800D01*
X114391000Y-66104800D02*
X115991000Y-66104800D01*
X114391000Y-67104800D02*
X114391000Y-66104800D01*
X115991000Y-67104800D02*
X114391000Y-67104800D01*
X115991000Y-63504800D02*
X115991000Y-62504800D01*
X114391000Y-63504800D02*
X115991000Y-63504800D01*
X114391000Y-62504800D02*
X114391000Y-63504800D01*
X115991000Y-62504800D02*
X114391000Y-62504800D01*
X118351000Y-67864800D02*
X118351000Y-66944800D01*
X118351000Y-61744800D02*
X118351000Y-62664800D01*
X116491000Y-65304800D02*
X112131000Y-65304800D01*
X116491000Y-64304800D02*
X116491000Y-65304800D01*
X112131000Y-64304800D02*
X116491000Y-64304800D01*
X118351000Y-66944800D02*
X118351000Y-66664800D01*
X119951000Y-66944800D02*
X118351000Y-66944800D01*
X119951000Y-67864800D02*
X119951000Y-66944800D01*
X112131000Y-67864800D02*
X119951000Y-67864800D01*
X112131000Y-61744800D02*
X112131000Y-67864800D01*
X119951000Y-61744800D02*
X112131000Y-61744800D01*
X119951000Y-62664800D02*
X119951000Y-61744800D01*
X118351000Y-62664800D02*
X119951000Y-62664800D01*
X118351000Y-62944800D02*
X118351000Y-62664800D01*
X185390000Y-92365000D02*
X185390000Y-93695000D01*
X184060000Y-92365000D02*
X185390000Y-92365000D01*
X182790000Y-92365000D02*
X182790000Y-95025000D01*
X182790000Y-95025000D02*
X177650000Y-95025000D01*
X182790000Y-92365000D02*
X177650000Y-92365000D01*
X177650000Y-92365000D02*
X177650000Y-95025000D01*
X185390000Y-94905000D02*
X185390000Y-96235000D01*
X184060000Y-94905000D02*
X185390000Y-94905000D01*
X182790000Y-94905000D02*
X182790000Y-97565000D01*
X182790000Y-97565000D02*
X177650000Y-97565000D01*
X182790000Y-94905000D02*
X177650000Y-94905000D01*
X177650000Y-94905000D02*
X177650000Y-97565000D01*
X185390000Y-97450600D02*
X185390000Y-98780600D01*
X184060000Y-97450600D02*
X185390000Y-97450600D01*
X182790000Y-97450600D02*
X182790000Y-100110600D01*
X182790000Y-100110600D02*
X177650000Y-100110600D01*
X182790000Y-97450600D02*
X177650000Y-97450600D01*
X177650000Y-97450600D02*
X177650000Y-100110600D01*
X185378400Y-99990600D02*
X185378400Y-101320600D01*
X184048400Y-99990600D02*
X185378400Y-99990600D01*
X182778400Y-99990600D02*
X182778400Y-102650600D01*
X182778400Y-102650600D02*
X177638400Y-102650600D01*
X182778400Y-99990600D02*
X177638400Y-99990600D01*
X177638400Y-99990600D02*
X177638400Y-102650600D01*
X185390000Y-122265000D02*
X185390000Y-123595000D01*
X184060000Y-122265000D02*
X185390000Y-122265000D01*
X182790000Y-122265000D02*
X182790000Y-124925000D01*
X182790000Y-124925000D02*
X177650000Y-124925000D01*
X182790000Y-122265000D02*
X177650000Y-122265000D01*
X177650000Y-122265000D02*
X177650000Y-124925000D01*
X185390000Y-124805000D02*
X185390000Y-126135000D01*
X184060000Y-124805000D02*
X185390000Y-124805000D01*
X182790000Y-124805000D02*
X182790000Y-127465000D01*
X182790000Y-127465000D02*
X177650000Y-127465000D01*
X182790000Y-124805000D02*
X177650000Y-124805000D01*
X177650000Y-124805000D02*
X177650000Y-127465000D01*
X185390000Y-127345000D02*
X185390000Y-128675000D01*
X184060000Y-127345000D02*
X185390000Y-127345000D01*
X182790000Y-127345000D02*
X182790000Y-130005000D01*
X182790000Y-130005000D02*
X177650000Y-130005000D01*
X182790000Y-127345000D02*
X177650000Y-127345000D01*
X177650000Y-127345000D02*
X177650000Y-130005000D01*
X185390000Y-129885000D02*
X185390000Y-131215000D01*
X184060000Y-129885000D02*
X185390000Y-129885000D01*
X182790000Y-129885000D02*
X182790000Y-132545000D01*
X182790000Y-132545000D02*
X177650000Y-132545000D01*
X182790000Y-129885000D02*
X177650000Y-129885000D01*
X177650000Y-129885000D02*
X177650000Y-132545000D01*
D12*
X142212720Y-95514160D02*
X142212720Y-91450160D01*
X154294720Y-95514160D02*
X142212720Y-95514160D01*
X154294720Y-87450160D02*
X154294720Y-95514160D01*
X145794720Y-87386160D02*
X154294720Y-87386160D01*
D16*
X142212720Y-95514160D02*
X142212720Y-87386160D01*
X154294720Y-95514160D02*
X142212720Y-95514160D01*
X154294720Y-87386160D02*
X154294720Y-95514160D01*
X142212720Y-87386160D02*
X154294720Y-87386160D01*
D17*
X141962720Y-95764160D02*
X141962720Y-87136160D01*
X154294720Y-95764160D02*
X141962720Y-95764160D01*
X154294720Y-87136160D02*
X154294720Y-95764160D01*
X141962720Y-87136160D02*
X154294720Y-87136160D01*
D15*
X101540000Y-102295000D02*
X101540000Y-100965000D01*
X102870000Y-102295000D02*
X101540000Y-102295000D01*
X104140000Y-102295000D02*
X104140000Y-99635000D01*
X104140000Y-99635000D02*
X109280000Y-99635000D01*
X104140000Y-102295000D02*
X109280000Y-102295000D01*
X109280000Y-102295000D02*
X109280000Y-99635000D01*
X101540000Y-104835000D02*
X101540000Y-103505000D01*
X102870000Y-104835000D02*
X101540000Y-104835000D01*
X104140000Y-104835000D02*
X104140000Y-102175000D01*
X104140000Y-102175000D02*
X109280000Y-102175000D01*
X104140000Y-104835000D02*
X109280000Y-104835000D01*
X109280000Y-104835000D02*
X109280000Y-102175000D01*
X101540000Y-107375000D02*
X101540000Y-106045000D01*
X102870000Y-107375000D02*
X101540000Y-107375000D01*
X104140000Y-107375000D02*
X104140000Y-104715000D01*
X104140000Y-104715000D02*
X109280000Y-104715000D01*
X104140000Y-107375000D02*
X109280000Y-107375000D01*
X109280000Y-107375000D02*
X109280000Y-104715000D01*
X101540000Y-109915000D02*
X101540000Y-108585000D01*
X102870000Y-109915000D02*
X101540000Y-109915000D01*
X104140000Y-109915000D02*
X104140000Y-107255000D01*
X104140000Y-107255000D02*
X109280000Y-107255000D01*
X104140000Y-109915000D02*
X109280000Y-109915000D01*
X109280000Y-109915000D02*
X109280000Y-107255000D01*
X101540000Y-125155000D02*
X101540000Y-123825000D01*
X102870000Y-125155000D02*
X101540000Y-125155000D01*
X104140000Y-125155000D02*
X104140000Y-122495000D01*
X104140000Y-122495000D02*
X109280000Y-122495000D01*
X104140000Y-125155000D02*
X109280000Y-125155000D01*
X109280000Y-125155000D02*
X109280000Y-122495000D01*
X101540000Y-127695000D02*
X101540000Y-126365000D01*
X102870000Y-127695000D02*
X101540000Y-127695000D01*
X104140000Y-127695000D02*
X104140000Y-125035000D01*
X104140000Y-125035000D02*
X109280000Y-125035000D01*
X104140000Y-127695000D02*
X109280000Y-127695000D01*
X109280000Y-127695000D02*
X109280000Y-125035000D01*
X101540000Y-130235000D02*
X101540000Y-128905000D01*
X102870000Y-130235000D02*
X101540000Y-130235000D01*
X104140000Y-130235000D02*
X104140000Y-127575000D01*
X104140000Y-127575000D02*
X109280000Y-127575000D01*
X104140000Y-130235000D02*
X109280000Y-130235000D01*
X109280000Y-130235000D02*
X109280000Y-127575000D01*
X101540000Y-132775000D02*
X101540000Y-131445000D01*
X102870000Y-132775000D02*
X101540000Y-132775000D01*
X104140000Y-132775000D02*
X104140000Y-130115000D01*
X104140000Y-130115000D02*
X109280000Y-130115000D01*
X104140000Y-132775000D02*
X109280000Y-132775000D01*
X109280000Y-132775000D02*
X109280000Y-130115000D01*
D11*
X143259000Y-101347000D02*
G75*
G03X143259000Y-101347000I-125000J0D01*
G01*
D12*
X154193400Y-112572600D02*
X152943400Y-112572600D01*
X152593400Y-109522600D02*
X152593400Y-112422600D01*
X152043400Y-109522600D02*
X152593400Y-109522600D01*
X152043400Y-112422600D02*
X152043400Y-109522600D01*
X152593400Y-112422600D02*
X152043400Y-112422600D01*
D15*
X133880400Y-44459600D02*
X135730400Y-44459600D01*
X133880400Y-45659600D02*
X135730400Y-45659600D01*
X135730400Y-45659600D02*
X135730400Y-44459600D01*
X132664200Y-45634200D02*
X130814200Y-45634200D01*
X132664200Y-44434200D02*
X130814200Y-44434200D01*
X130814200Y-44434200D02*
X130814200Y-45634200D01*
X127227200Y-54141000D02*
X129777200Y-54141000D01*
X127227200Y-55841000D02*
X129777200Y-55841000D01*
X127227200Y-54141000D02*
X127227200Y-55841000D01*
X128636800Y-44408800D02*
X130486800Y-44408800D01*
X128636800Y-45608800D02*
X130486800Y-45608800D01*
X130486800Y-45608800D02*
X130486800Y-44408800D01*
X131990300Y-68556200D02*
X129705300Y-68556200D01*
X131990300Y-70026200D02*
X131990300Y-68556200D01*
X129705300Y-70026200D02*
X131990300Y-70026200D01*
X126696800Y-72860900D02*
X126696800Y-75145900D01*
X128166800Y-72860900D02*
X126696800Y-72860900D01*
X128166800Y-75145900D02*
X128166800Y-72860900D01*
X117666500Y-71118400D02*
X119951500Y-71118400D01*
X117666500Y-69648400D02*
X117666500Y-71118400D01*
X119951500Y-69648400D02*
X117666500Y-69648400D01*
X163968800Y-76227000D02*
X161683800Y-76227000D01*
X163968800Y-77697000D02*
X163968800Y-76227000D01*
X161683800Y-77697000D02*
X163968800Y-77697000D01*
X164847500Y-124933000D02*
X162997500Y-124933000D01*
X164847500Y-123733000D02*
X162997500Y-123733000D01*
X162997500Y-123733000D02*
X162997500Y-124933000D01*
X164847500Y-123409000D02*
X162997500Y-123409000D01*
X164847500Y-122209000D02*
X162997500Y-122209000D01*
X162997500Y-122209000D02*
X162997500Y-123409000D01*
X152820000Y-127645000D02*
X152820000Y-125095000D01*
X154520000Y-127645000D02*
X154520000Y-125095000D01*
X152820000Y-127645000D02*
X154520000Y-127645000D01*
X164846000Y-121885000D02*
X162996000Y-121885000D01*
X164846000Y-120685000D02*
X162996000Y-120685000D01*
X162996000Y-120685000D02*
X162996000Y-121885000D01*
X117829000Y-101472000D02*
X117829000Y-99187000D01*
X116359000Y-101472000D02*
X117829000Y-101472000D01*
X116359000Y-99187000D02*
X116359000Y-101472000D01*
X159093800Y-113447500D02*
X161378800Y-113447500D01*
X159093800Y-111977500D02*
X159093800Y-113447500D01*
X161378800Y-111977500D02*
X159093800Y-111977500D01*
X156904400Y-94274400D02*
X156904400Y-91989400D01*
X155434400Y-94274400D02*
X156904400Y-94274400D01*
X155434400Y-91989400D02*
X155434400Y-94274400D01*
X139676900Y-123588600D02*
X137391900Y-123588600D01*
X139676900Y-125058600D02*
X139676900Y-123588600D01*
X137391900Y-125058600D02*
X139676900Y-125058600D01*
X164362200Y-110090478D02*
X164362200Y-109573322D01*
X162942200Y-110090478D02*
X162942200Y-109573322D01*
X123501678Y-66295200D02*
X122984522Y-66295200D01*
X123501678Y-67715200D02*
X122984522Y-67715200D01*
X122000778Y-72899200D02*
X121483622Y-72899200D01*
X122000778Y-74319200D02*
X121483622Y-74319200D01*
X115010000Y-118290078D02*
X115010000Y-117772922D01*
X113590000Y-118290078D02*
X113590000Y-117772922D01*
X115406000Y-90899064D02*
X115406000Y-89694936D01*
X112686000Y-90899064D02*
X112686000Y-89694936D01*
X156239936Y-100351000D02*
X157444064Y-100351000D01*
X156239936Y-98531000D02*
X157444064Y-98531000D01*
X118835000Y-90902064D02*
X118835000Y-89697936D01*
X116115000Y-90902064D02*
X116115000Y-89697936D01*
X156239936Y-102891000D02*
X157444064Y-102891000D01*
X156239936Y-101071000D02*
X157444064Y-101071000D01*
X156239936Y-97811000D02*
X157444064Y-97811000D01*
X156239936Y-95991000D02*
X157444064Y-95991000D01*
X156239936Y-105431000D02*
X157444064Y-105431000D01*
X156239936Y-103611000D02*
X157444064Y-103611000D01*
X160323600Y-110113578D02*
X160323600Y-109596422D01*
X158903600Y-110113578D02*
X158903600Y-109596422D01*
X162355600Y-110090478D02*
X162355600Y-109573322D01*
X160935600Y-110090478D02*
X160935600Y-109573322D01*
X156928078Y-106097000D02*
X156410922Y-106097000D01*
X156928078Y-107517000D02*
X156410922Y-107517000D01*
X156925778Y-108078200D02*
X156408622Y-108078200D01*
X156925778Y-109498200D02*
X156408622Y-109498200D01*
D11*
X179368736Y-106795505D02*
X178945403Y-106795505D01*
X178945403Y-107460743D02*
X178945403Y-106190743D01*
X179550165Y-106190743D01*
X180578260Y-106614077D02*
X180578260Y-107460743D01*
X180275879Y-106130267D02*
X179973498Y-107037410D01*
X180759689Y-107037410D01*
X179114736Y-136665905D02*
X178691403Y-136665905D01*
X178691403Y-137331143D02*
X178691403Y-136061143D01*
X179296165Y-136061143D01*
X179659022Y-136061143D02*
X180445212Y-136061143D01*
X180021879Y-136544953D01*
X180203308Y-136544953D01*
X180324260Y-136605429D01*
X180384736Y-136665905D01*
X180445212Y-136786858D01*
X180445212Y-137089239D01*
X180384736Y-137210191D01*
X180324260Y-137270667D01*
X180203308Y-137331143D01*
X179840450Y-137331143D01*
X179719498Y-137270667D01*
X179659022Y-137210191D01*
X107063996Y-95537265D02*
X106640663Y-95537265D01*
X106640663Y-96202503D02*
X106640663Y-94932503D01*
X107245425Y-94932503D01*
X107668758Y-95053456D02*
X107729234Y-94992980D01*
X107850187Y-94932503D01*
X108152568Y-94932503D01*
X108273520Y-94992980D01*
X108333996Y-95053456D01*
X108394472Y-95174408D01*
X108394472Y-95295360D01*
X108333996Y-95476789D01*
X107608282Y-96202503D01*
X108394472Y-96202503D01*
X104528865Y-117741403D02*
X104528865Y-118164736D01*
X105194103Y-118164736D02*
X103924103Y-118164736D01*
X103924103Y-117559974D01*
X105194103Y-116410927D02*
X105194103Y-117136641D01*
X105194103Y-116773784D02*
X103924103Y-116773784D01*
X104105532Y-116894736D01*
X104226484Y-117015689D01*
X104286960Y-117136641D01*
M02*
