M48
; DRILL file {KiCad 5.1.6-c6e7f7d~86~ubuntu18.04.1} date Wed Nov 11 20:00:32 2020
; FORMAT={-:-/ absolute / inch / decimal}
; #@! TF.CreationDate,2020-11-11T20:00:32-05:00
; #@! TF.GenerationSoftware,Kicad,Pcbnew,5.1.6-c6e7f7d~86~ubuntu18.04.1
; #@! TF.FileFunction,Plated,1,4,PTH
FMAT,2
INCH
T1C0.0079
T2C0.0157
T3C0.0197
T4C0.0236
T5C0.0374
T6C0.0394
T7C0.1260
%
G90
G05
T1
X2.7413Y-3.6835
X2.7445Y-4.4016
X2.7504Y-5.0539
X2.811Y-4.35
X2.9031Y-3.6177
X2.9618Y-3.6815
X3.4016Y-4.4543
X3.4035Y-4.3437
X3.4476Y-4.5539
X3.4937Y-4.6567
X3.4949Y-4.5311
X3.576Y-5.3531
X3.5799Y-5.0244
X3.6209Y-4.6028
X3.622Y-4.202
X3.624Y-3.952
X3.6248Y-4.1516
X3.676Y-4.3961
X3.6787Y-4.4465
X3.6791Y-4.5469
X3.6799Y-4.5028
X3.7319Y-5.1024
X3.7496Y-4.5024
X3.7504Y-4.4476
X3.7508Y-4.4114
X3.7539Y-4.5469
X3.7563Y-4.2012
X3.7571Y-5.2949
X3.7594Y-4.1524
X3.802Y-4.6693
X3.8205Y-4.5217
X3.8386Y-4.145
X3.8409Y-5.1173
X3.8555Y-4.2197
X3.8559Y-4.3909
X3.9248Y-4.311
X3.9264Y-4.1583
X3.9315Y-4.4465
X3.9685Y-4.3102
X3.9949Y-4.6508
X4.0295Y-4.3921
X4.0327Y-4.2217
X4.0484Y-4.1854
X4.0642Y-4.585
X4.1189Y-5.0268
X4.1205Y-5.3449
X4.1283Y-3.9614
X4.1335Y-4.6039
X4.1529Y-4.603
X4.171Y-4.603
X4.1815Y-4.3524
X4.1839Y-4.3016
X4.1879Y-4.603
X4.215Y-4.9134
X4.2154Y-5.0126
X4.2748Y-3.7319
X4.2783Y-4.8063
X4.2823Y-3.6811
X4.2854Y-4.4437
X4.2858Y-3.9169
X4.3028Y-4.3894
X4.3059Y-4.1551
X4.3098Y-4.0638
X4.3375Y-4.9185
X4.3394Y-5.0122
X4.3642Y-4.9341
X4.3724Y-4.4665
X4.3846Y-4.5327
X4.4217Y-4.8559
X4.4386Y-3.9106
X4.4399Y-4.986
X4.4406Y-4.9169
X4.4437Y-3.9362
X4.4469Y-3.989
X4.4504Y-4.8943
X4.4516Y-4.0154
X4.4516Y-4.0457
X4.4528Y-3.9606
X4.4693Y-4.0807
X4.478Y-4.8642
X4.5055Y-5.0713
X4.5146Y-4.9709
X4.515Y-4.8898
X4.5268Y-3.8874
X4.5291Y-4.0339
X4.541Y-4.1029
X4.5417Y-4.2287
X4.5421Y-3.7929
X4.5516Y-5.1732
X4.5732Y-4.1114
X4.5909Y-5.1732
X4.5941Y-4.9693
X4.5953Y-4.8906
X4.6047Y-4.2335
X4.6055Y-4.411
X4.6157Y-5.0709
X4.6224Y-4.3929
X4.6228Y-4.2508
X4.6282Y-4.1024
X4.6283Y-3.8098
X4.6528Y-3.813
X4.6539Y-4.1024
X4.6615Y-4.3925
X4.6748Y-3.8858
X4.6748Y-4.0323
X4.6791Y-4.1024
X4.6799Y-4.3732
X4.6827Y-4.2055
X4.6945Y-4.3122
X4.7008Y-3.7287
X4.7031Y-4.4811
X4.7091Y-4.4589
X4.7148Y-4.9333
X4.7148Y-4.9695
X4.7224Y-4.4404
X4.7437Y-3.9858
X4.7437Y-4.011
X4.7437Y-4.0366
X4.7441Y-3.9598
X4.7457Y-3.9343
X4.7496Y-3.9071
X4.7638Y-4.5386
X4.7638Y-4.574
X4.7638Y-4.5909
X4.7642Y-4.5563
X4.7819Y-4.5378
X4.7819Y-4.5732
X4.7819Y-4.5902
X4.7823Y-4.5555
X4.8004Y-4.5374
X4.8004Y-4.5728
X4.8004Y-4.5898
X4.8008Y-4.5551
X4.8036Y-4.1255
X4.8138Y-4.1406
X4.8189Y-4.537
X4.8189Y-4.5724
X4.8189Y-4.5894
X4.8193Y-4.5547
X4.8201Y-4.672
X4.8213Y-4.6882
X4.8217Y-4.7055
X4.8258Y-4.1526
X4.8264Y-4.6055
X4.8272Y-4.6228
X4.8276Y-4.6402
X4.828Y-4.6575
X4.837Y-4.5366
X4.837Y-4.572
X4.837Y-4.589
X4.8374Y-4.5543
X4.8382Y-4.6713
X4.8394Y-4.6874
X4.8398Y-4.7047
X4.8409Y-4.1638
X4.8441Y-4.2787
X4.8445Y-4.6047
X4.8453Y-4.622
X4.8457Y-4.6394
X4.8461Y-4.6567
X4.8551Y-4.5366
X4.8551Y-4.572
X4.8551Y-4.589
X4.8555Y-4.5543
X4.8567Y-4.6709
X4.8579Y-4.687
X4.8583Y-4.1638
X4.8583Y-4.7043
X4.863Y-4.6043
X4.8638Y-4.6217
X4.8642Y-4.639
X4.8646Y-4.6563
X4.8756Y-4.1638
X4.9406Y-3.6996
X4.9693Y-4.8638
X5.0094Y-4.1165
X5.0154Y-3.7858
X5.037Y-3.7154
X5.0417Y-4.7346
X5.1637Y-4.4986
X5.1671Y-4.2514
X5.172Y-4.1323
X5.2021Y-3.84
X5.2021Y-3.8574
X5.2021Y-3.8743
X5.2021Y-3.8904
X5.2043Y-4.3508
X5.2098Y-4.4335
X5.2181Y-4.3945
X5.2425Y-4.2157
X5.2461Y-4.25
X5.2461Y-4.2669
X5.2465Y-4.2839
X5.2465Y-4.3008
X5.2469Y-4.3181
X5.2744Y-4.1114
X5.2776Y-4.2496
X5.2776Y-4.2665
X5.278Y-4.2835
X5.278Y-4.3004
X5.2783Y-4.3177
X5.281Y-4.1423
X5.3059Y-4.2063
X5.3122Y-4.4323
X5.3177Y-3.3508
X5.3185Y-3.7598
X5.3449Y-4.265
X5.3646Y-4.3161
X5.3933Y-4.3602
X5.4017Y-4.1849
X5.4622Y-4.3358
X5.511Y-4.3811
X5.5406Y-4.2461
X5.7114Y-4.3976
X5.7134Y-4.5543
X5.9153Y-4.2397
X6.2874Y-5.0012
X6.3276Y-4.2791
X6.3402Y-5.0472
X6.3823Y-4.322
X6.4421Y-5.072
X6.4941Y-3.5488
T2
X4.9226Y-5.0444
X4.9226Y-5.0759
X4.9226Y-5.1082
X4.9226Y-5.142
X5.3854Y-5.4024
X5.3882Y-5.311
X5.3886Y-5.3567
X5.4094Y-5.285
X5.411Y-5.3791
X5.4118Y-5.3346
X5.4319Y-5.4035
X5.4335Y-5.311
X5.435Y-5.3579
X5.4508Y-4.035
X5.4508Y-4.0693
X5.4535Y-3.8996
X5.4539Y-3.761
X5.4539Y-3.8654
X5.4543Y-3.6921
X5.4543Y-3.7264
X5.4543Y-3.7965
X5.4543Y-3.8307
X5.4571Y-5.3823
X5.4598Y-5.3339
X5.478Y-5.4067
X5.4811Y-5.361
X5.4858Y-4.0354
X5.4858Y-4.0697
X5.4886Y-3.9
X5.489Y-3.7614
X5.489Y-3.8657
X5.4894Y-3.6925
X5.4894Y-3.7268
X5.4894Y-3.7969
X5.4894Y-3.8311
X5.502Y-5.3854
X5.5217Y-4.0354
X5.5217Y-4.0697
X5.5244Y-3.9
X5.5248Y-3.7614
X5.5248Y-3.8657
X5.5252Y-3.6925
X5.5252Y-3.7268
X5.5252Y-3.7969
X5.5252Y-3.8311
X5.528Y-5.3654
X5.5295Y-5.4043
X5.5539Y-5.3839
X5.5567Y-4.0362
X5.5567Y-4.0705
X5.5594Y-3.9008
X5.5598Y-3.7622
X5.5598Y-3.8665
X5.5602Y-3.6933
X5.5602Y-3.7276
X5.5602Y-3.7976
X5.5602Y-3.8319
X5.5748Y-5.4083
X5.578Y-5.3626
X5.5961Y-3.6937
X5.5961Y-3.728
X5.5988Y-5.387
X5.6248Y-5.3669
X5.6264Y-5.4059
X5.6315Y-3.6933
X5.6315Y-3.7276
X5.6512Y-5.385
X5.672Y-5.4094
X5.6752Y-5.3638
X5.6961Y-5.3882
X5.722Y-5.3681
X5.7236Y-5.4071
X5.7472Y-5.2854
X5.7488Y-5.3858
X5.75Y-5.3177
X5.7512Y-5.352
X5.774Y-5.4075
X5.7807Y-5.2843
X5.7831Y-5.3161
T3
X5.0098Y-3.3583
X5.0375Y-3.2915
X5.0375Y-3.4251
X5.1043Y-3.2638
X5.1043Y-3.4528
X5.1711Y-3.2915
X5.1711Y-3.4251
X5.1988Y-3.3583
X2.7264Y-5.2874
X2.7541Y-5.2206
X2.7541Y-5.3542
X2.8209Y-5.1929
X2.8209Y-5.3819
X2.8877Y-5.2206
X2.8877Y-5.3542
X2.9154Y-5.2874
X2.7264Y-3.3583
X2.7541Y-3.2915
X2.7541Y-3.4251
X2.8209Y-3.2638
X2.8209Y-3.4528
X2.8877Y-3.2915
X2.8877Y-3.4251
X2.9154Y-3.3583
X5.0098Y-5.2874
X5.0375Y-5.2206
X5.0375Y-5.3542
X5.1043Y-5.1929
X5.1043Y-5.3819
X5.1711Y-5.2206
X5.1711Y-5.3542
X5.1988Y-5.2874
T5
X5.8409Y-3.8752
X5.8409Y-3.9736
X5.8409Y-4.072
X5.8409Y-4.1705
X5.8409Y-4.2689
X5.8409Y-4.3673
X5.8409Y-4.4657
X5.8409Y-4.5642
X5.8409Y-4.6626
X5.8409Y-4.761
T6
X2.7566Y-3.98
X2.8566Y-3.98
X2.9566Y-3.98
X6.3383Y-4.4222
X6.4383Y-4.4222
X6.5383Y-4.4222
X6.3383Y-4.6222
X6.4383Y-4.6222
X6.5383Y-4.6222
X2.7576Y-4.28
X2.8576Y-4.28
X2.9576Y-4.28
X6.3383Y-4.5222
X6.4383Y-4.5222
X6.5383Y-4.5222
X6.3395Y-4.211
X6.4395Y-4.211
X6.5395Y-4.211
X6.3395Y-4.011
X6.4395Y-4.011
X6.5395Y-4.011
X2.7575Y-4.666
X2.8575Y-4.666
X2.9575Y-4.666
X2.7575Y-4.466
X2.8575Y-4.466
X2.9575Y-4.466
X2.7576Y-4.18
X2.8576Y-4.18
X2.9576Y-4.18
X6.3383Y-4.7222
X6.4383Y-4.7222
X6.5383Y-4.7222
X6.3395Y-4.111
X6.4395Y-4.111
X6.5395Y-4.111
X6.3395Y-3.911
X6.4395Y-3.911
X6.5395Y-3.911
X2.7575Y-4.566
X2.8575Y-4.566
X2.9575Y-4.566
X2.756Y-4.766
X2.856Y-4.766
X2.956Y-4.766
X2.7566Y-4.08
X2.8566Y-4.08
X2.9566Y-4.08
T7
X2.8209Y-3.3583
X5.1043Y-5.2874
X5.1043Y-3.3583
X2.8209Y-5.2874
T4
G00X4.3909Y-5.1368
M15
G01X4.3909Y-5.1801
M16
G05
G00X4.3909Y-5.3061
M15
G01X4.3909Y-5.3376
M16
G05
G00X4.7311Y-5.1368
M15
G01X4.7311Y-5.1801
M16
G05
G00X4.7313Y-5.3061
M15
G01X4.7313Y-5.3376
M16
G05
T0
M30
