G04 #@! TF.GenerationSoftware,KiCad,Pcbnew,6.0.7-f9a2dced07~116~ubuntu20.04.1*
G04 #@! TF.CreationDate,2022-12-31T15:09:28-05:00*
G04 #@! TF.ProjectId,SmallKat v2,536d616c-6c4b-4617-9420-76322e6b6963,rev?*
G04 #@! TF.SameCoordinates,Original*
G04 #@! TF.FileFunction,Paste,Top*
G04 #@! TF.FilePolarity,Positive*
%FSLAX46Y46*%
G04 Gerber Fmt 4.6, Leading zero omitted, Abs format (unit mm)*
G04 Created by KiCad (PCBNEW 6.0.7-f9a2dced07~116~ubuntu20.04.1) date 2022-12-31 15:09:28*
%MOMM*%
%LPD*%
G01*
G04 APERTURE LIST*
G04 Aperture macros list*
%AMRoundRect*
0 Rectangle with rounded corners*
0 $1 Rounding radius*
0 $2 $3 $4 $5 $6 $7 $8 $9 X,Y pos of 4 corners*
0 Add a 4 corners polygon primitive as box body*
4,1,4,$2,$3,$4,$5,$6,$7,$8,$9,$2,$3,0*
0 Add four circle primitives for the rounded corners*
1,1,$1+$1,$2,$3*
1,1,$1+$1,$4,$5*
1,1,$1+$1,$6,$7*
1,1,$1+$1,$8,$9*
0 Add four rect primitives between the rounded corners*
20,1,$1+$1,$2,$3,$4,$5,0*
20,1,$1+$1,$4,$5,$6,$7,0*
20,1,$1+$1,$6,$7,$8,$9,0*
20,1,$1+$1,$8,$9,$2,$3,0*%
G04 Aperture macros list end*
%ADD10RoundRect,0.147500X-0.172500X0.147500X-0.172500X-0.147500X0.172500X-0.147500X0.172500X0.147500X0*%
%ADD11RoundRect,0.147500X0.172500X-0.147500X0.172500X0.147500X-0.172500X0.147500X-0.172500X-0.147500X0*%
%ADD12RoundRect,0.147500X-0.147500X-0.172500X0.147500X-0.172500X0.147500X0.172500X-0.147500X0.172500X0*%
%ADD13RoundRect,0.250000X1.075000X-0.375000X1.075000X0.375000X-1.075000X0.375000X-1.075000X-0.375000X0*%
%ADD14RoundRect,0.243750X0.456250X-0.243750X0.456250X0.243750X-0.456250X0.243750X-0.456250X-0.243750X0*%
%ADD15RoundRect,0.147500X0.147500X0.172500X-0.147500X0.172500X-0.147500X-0.172500X0.147500X-0.172500X0*%
%ADD16RoundRect,0.218750X0.218750X0.256250X-0.218750X0.256250X-0.218750X-0.256250X0.218750X-0.256250X0*%
%ADD17RoundRect,0.218750X-0.256250X0.218750X-0.256250X-0.218750X0.256250X-0.218750X0.256250X0.218750X0*%
%ADD18RoundRect,0.218750X-0.218750X-0.256250X0.218750X-0.256250X0.218750X0.256250X-0.218750X0.256250X0*%
%ADD19R,0.600000X0.700000*%
%ADD20R,4.240000X3.810000*%
%ADD21RoundRect,0.120000X-0.120000X-0.285000X0.120000X-0.285000X0.120000X0.285000X-0.120000X0.285000X0*%
%ADD22RoundRect,0.062500X-0.375000X-0.062500X0.375000X-0.062500X0.375000X0.062500X-0.375000X0.062500X0*%
%ADD23R,0.620000X1.000000*%
%ADD24R,0.300000X1.000000*%
%ADD25R,0.630000X0.500000*%
%ADD26R,0.570000X0.738000*%
%ADD27R,2.000000X1.600000*%
%ADD28R,1.100000X0.600000*%
%ADD29R,3.100000X5.000000*%
%ADD30RoundRect,0.250000X-0.625000X0.375000X-0.625000X-0.375000X0.625000X-0.375000X0.625000X0.375000X0*%
%ADD31RoundRect,0.135000X0.135000X0.185000X-0.135000X0.185000X-0.135000X-0.185000X0.135000X-0.185000X0*%
%ADD32RoundRect,0.135000X-0.135000X-0.185000X0.135000X-0.185000X0.135000X0.185000X-0.135000X0.185000X0*%
%ADD33RoundRect,0.140000X0.170000X-0.140000X0.170000X0.140000X-0.170000X0.140000X-0.170000X-0.140000X0*%
%ADD34RoundRect,0.250000X-0.250000X-0.475000X0.250000X-0.475000X0.250000X0.475000X-0.250000X0.475000X0*%
%ADD35RoundRect,0.250000X0.475000X-0.250000X0.475000X0.250000X-0.475000X0.250000X-0.475000X-0.250000X0*%
%ADD36R,1.100000X1.100000*%
%ADD37RoundRect,0.250000X-0.375000X-0.625000X0.375000X-0.625000X0.375000X0.625000X-0.375000X0.625000X0*%
%ADD38R,0.650000X1.060000*%
%ADD39RoundRect,0.218750X-0.218750X-0.381250X0.218750X-0.381250X0.218750X0.381250X-0.218750X0.381250X0*%
%ADD40RoundRect,0.250000X-2.500000X0.250000X-2.500000X-0.250000X2.500000X-0.250000X2.500000X0.250000X0*%
%ADD41RoundRect,0.250000X-1.250000X0.550000X-1.250000X-0.550000X1.250000X-0.550000X1.250000X0.550000X0*%
%ADD42RoundRect,0.218750X-0.381250X0.218750X-0.381250X-0.218750X0.381250X-0.218750X0.381250X0.218750X0*%
%ADD43RoundRect,0.140000X-0.140000X-0.170000X0.140000X-0.170000X0.140000X0.170000X-0.140000X0.170000X0*%
%ADD44R,0.800000X0.400000*%
%ADD45R,0.400000X0.800000*%
%ADD46R,1.200000X1.200000*%
%ADD47R,0.800000X0.800000*%
%ADD48R,0.675000X0.250000*%
%ADD49R,0.250000X0.575000*%
%ADD50RoundRect,0.135000X0.185000X-0.135000X0.185000X0.135000X-0.185000X0.135000X-0.185000X-0.135000X0*%
G04 APERTURE END LIST*
D10*
X115360000Y-107960000D03*
X115360000Y-108930000D03*
D11*
X123190000Y-108215000D03*
X123190000Y-107245000D03*
D10*
X123190000Y-109110000D03*
X123190000Y-110080000D03*
X158943766Y-104330000D03*
X158943766Y-105300000D03*
D12*
X161870000Y-104350000D03*
X162840000Y-104350000D03*
D10*
X163180000Y-101415280D03*
X163180000Y-102385280D03*
D13*
X137631600Y-87867600D03*
X137631600Y-85067600D03*
X140770000Y-87870000D03*
X140770000Y-85070000D03*
D14*
X94690000Y-112555000D03*
X94690000Y-110680000D03*
D11*
X93210000Y-112455000D03*
X93210000Y-111485000D03*
D15*
X97485000Y-131815000D03*
X96515000Y-131815000D03*
X97495000Y-132810000D03*
X96525000Y-132810000D03*
D11*
X142930000Y-87050000D03*
X142930000Y-86080000D03*
D16*
X117700000Y-122600000D03*
X116125000Y-122600000D03*
D17*
X167040000Y-84615000D03*
X167040000Y-86190000D03*
D16*
X85192134Y-136030000D03*
X83617134Y-136030000D03*
D18*
X78707134Y-135980000D03*
X80282134Y-135980000D03*
D19*
X109128800Y-128940000D03*
X107728800Y-128940000D03*
D18*
X69612500Y-90850000D03*
X71187500Y-90850000D03*
X69852500Y-127390000D03*
X71427500Y-127390000D03*
D20*
X72446200Y-94316000D03*
X78816200Y-94316000D03*
X72522400Y-123932400D03*
X78892400Y-123932400D03*
D21*
X160543766Y-101550000D03*
X160543766Y-102550000D03*
X159943766Y-101550000D03*
X159943766Y-102550000D03*
D22*
X158806266Y-101050000D03*
X158806266Y-101550000D03*
X158806266Y-102050000D03*
X158806266Y-102550000D03*
X158806266Y-103050000D03*
X161681266Y-103050000D03*
X161681266Y-102550000D03*
X161681266Y-102050000D03*
X161681266Y-101550000D03*
X161681266Y-101050000D03*
D23*
X113558846Y-130475000D03*
X107158846Y-130475000D03*
X112758846Y-130475000D03*
X107958846Y-130475000D03*
D24*
X109108846Y-130475000D03*
X110108846Y-130475000D03*
X110608846Y-130475000D03*
X108608846Y-130475000D03*
X112108846Y-130475000D03*
X111108846Y-130475000D03*
X109608846Y-130475000D03*
X111608846Y-130475000D03*
D25*
X160603766Y-97080000D03*
X160603766Y-97720000D03*
X160603766Y-98380000D03*
X160603766Y-99020000D03*
X163483766Y-98380000D03*
D26*
X161953766Y-98660000D03*
X162903766Y-97440000D03*
D25*
X163483766Y-97720000D03*
X163483766Y-99020000D03*
D26*
X161953766Y-97440000D03*
D25*
X163483766Y-97080000D03*
D26*
X162903766Y-98660000D03*
D25*
X156593766Y-97090000D03*
X156593766Y-97730000D03*
X156593766Y-98390000D03*
X156593766Y-99030000D03*
X159473766Y-97090000D03*
D26*
X158893766Y-97450000D03*
X158893766Y-98670000D03*
X157943766Y-98670000D03*
D25*
X159473766Y-97730000D03*
D26*
X157943766Y-97450000D03*
D25*
X159473766Y-98390000D03*
X159473766Y-99030000D03*
D12*
X113927500Y-122600000D03*
X114897500Y-122600000D03*
D15*
X118850000Y-113140000D03*
X117880000Y-113140000D03*
D10*
X120880000Y-112200000D03*
X120880000Y-113170000D03*
D11*
X167000000Y-88315000D03*
X167000000Y-87345000D03*
D15*
X118530000Y-106410000D03*
X117560000Y-106410000D03*
X160878766Y-104350000D03*
X159908766Y-104350000D03*
D10*
X164188527Y-101415000D03*
X164188527Y-102385000D03*
D12*
X79229634Y-134690000D03*
X80199634Y-134690000D03*
D11*
X98460000Y-132825000D03*
X98460000Y-131855000D03*
D15*
X73350000Y-90850000D03*
X72380000Y-90850000D03*
X73600000Y-127130000D03*
X72630000Y-127130000D03*
D27*
X89900000Y-135410000D03*
X95300000Y-135410000D03*
X103270000Y-135420000D03*
X97870000Y-135420000D03*
D28*
X121412000Y-107990000D03*
X121412000Y-109390000D03*
D10*
X150243380Y-111045806D03*
X150243380Y-112015806D03*
X150250000Y-113015000D03*
X150250000Y-113985000D03*
D12*
X87640000Y-130755000D03*
X88610000Y-130755000D03*
X89510000Y-130745000D03*
X90480000Y-130745000D03*
X74290000Y-90860000D03*
X75260000Y-90860000D03*
D15*
X75260000Y-89930000D03*
X74290000Y-89930000D03*
X72559000Y-109200000D03*
X71589000Y-109200000D03*
X70700000Y-109200000D03*
X69730000Y-109200000D03*
D19*
X110280000Y-128940000D03*
X111680000Y-128940000D03*
D15*
X157350000Y-104760000D03*
X156380000Y-104760000D03*
X156385000Y-103760000D03*
X155415000Y-103760000D03*
X156393766Y-102757500D03*
X155423766Y-102757500D03*
D12*
X153470000Y-103710000D03*
X154440000Y-103710000D03*
D15*
X156393486Y-101760000D03*
X155423486Y-101760000D03*
D11*
X154450000Y-102720000D03*
X154450000Y-101750000D03*
D10*
X153440000Y-101750000D03*
X153440000Y-102720000D03*
D15*
X84999634Y-134740000D03*
X84029634Y-134740000D03*
D29*
X156450000Y-89100000D03*
X145350000Y-89100000D03*
D15*
X131555000Y-126620000D03*
X130585000Y-126620000D03*
D12*
X132561400Y-126623200D03*
X133531400Y-126623200D03*
D15*
X130710000Y-108490000D03*
X129740000Y-108490000D03*
X132575000Y-108490000D03*
X131605000Y-108490000D03*
D16*
X136385000Y-126620000D03*
X134810000Y-126620000D03*
D20*
X132480000Y-123350000D03*
X138850000Y-123350000D03*
X132815000Y-94000000D03*
X139185000Y-94000000D03*
D11*
X129430000Y-125870000D03*
X129430000Y-124900000D03*
D10*
X157380000Y-102750000D03*
X157380000Y-103720000D03*
D30*
X156729140Y-110202080D03*
X156729140Y-113002080D03*
X158980000Y-110200000D03*
X158980000Y-113000000D03*
X152230000Y-110190000D03*
X152230000Y-112990000D03*
X154489700Y-110200600D03*
X154489700Y-113000600D03*
D18*
X140785630Y-131080000D03*
X142360630Y-131080000D03*
D20*
X146460000Y-134540000D03*
X140090000Y-134540000D03*
D31*
X146470630Y-131330000D03*
X145450630Y-131330000D03*
D32*
X145450630Y-130380000D03*
X146470630Y-130380000D03*
D31*
X144530630Y-131330000D03*
X143510630Y-131330000D03*
D33*
X120350000Y-132650000D03*
X120350000Y-131690000D03*
D34*
X118190000Y-135960000D03*
X120090000Y-135960000D03*
D35*
X122280000Y-132310000D03*
X122280000Y-130410000D03*
D36*
X124480000Y-133270000D03*
X124480000Y-130470000D03*
D37*
X121180000Y-128380000D03*
X123980000Y-128380000D03*
D38*
X118850000Y-131710000D03*
X117900000Y-131710000D03*
X116950000Y-131710000D03*
X116950000Y-133910000D03*
X117900000Y-133910000D03*
X118850000Y-133910000D03*
D39*
X120445000Y-134000000D03*
X122570000Y-134000000D03*
D31*
X117930000Y-129320000D03*
X116910000Y-129320000D03*
X117890000Y-130360000D03*
X116870000Y-130360000D03*
D34*
X151900000Y-98620000D03*
X153800000Y-98620000D03*
D40*
X162000000Y-120500000D03*
X162000000Y-122500000D03*
D41*
X164250000Y-118100000D03*
X164250000Y-124900000D03*
D36*
X148340000Y-106490000D03*
X148340000Y-109290000D03*
D34*
X148730000Y-104600000D03*
X150630000Y-104600000D03*
D31*
X153020000Y-106150000D03*
X152000000Y-106150000D03*
D37*
X145810000Y-111320000D03*
X148610000Y-111320000D03*
D42*
X148070000Y-100525000D03*
X148070000Y-102650000D03*
D32*
X150080000Y-106150000D03*
X151100000Y-106150000D03*
D38*
X149840000Y-102730000D03*
X150790000Y-102730000D03*
X151740000Y-102730000D03*
X151740000Y-100530000D03*
X150790000Y-100530000D03*
X149840000Y-100530000D03*
D43*
X148060000Y-99150000D03*
X149020000Y-99150000D03*
D17*
X128766800Y-93270400D03*
X128766800Y-94845400D03*
D10*
X130036800Y-93875200D03*
X130036800Y-94845200D03*
D32*
X103355000Y-131625000D03*
X104375000Y-131625000D03*
D44*
X97530000Y-111345000D03*
X97530000Y-112195000D03*
X97530000Y-113045000D03*
X97530000Y-113895000D03*
X97530000Y-114745000D03*
X97530000Y-115595000D03*
X97530000Y-116445000D03*
X97530000Y-117295000D03*
X97530000Y-118145000D03*
X97530000Y-118995000D03*
X97530000Y-119845000D03*
X97530000Y-120695000D03*
X97530000Y-121545000D03*
X97530000Y-122395000D03*
X97530000Y-123245000D03*
D45*
X98580000Y-124295000D03*
X99430000Y-124295000D03*
X100280000Y-124295000D03*
X101130000Y-124295000D03*
X101980000Y-124295000D03*
X102830000Y-124295000D03*
X103680000Y-124295000D03*
X104530000Y-124295000D03*
X105380000Y-124295000D03*
X106230000Y-124295000D03*
X107080000Y-124295000D03*
X107930000Y-124295000D03*
X108780000Y-124295000D03*
X109630000Y-124295000D03*
X110480000Y-124295000D03*
D44*
X111530000Y-123245000D03*
X111530000Y-122395000D03*
X111530000Y-121545000D03*
X111530000Y-120695000D03*
X111530000Y-119845000D03*
X111530000Y-118995000D03*
X111530000Y-118145000D03*
X111530000Y-117295000D03*
X111530000Y-116445000D03*
X111530000Y-115595000D03*
X111530000Y-114745000D03*
X111530000Y-113895000D03*
X111530000Y-113045000D03*
X111530000Y-112195000D03*
X111530000Y-111345000D03*
D45*
X110480000Y-110295000D03*
X109630000Y-110295000D03*
X108780000Y-110295000D03*
X107930000Y-110295000D03*
X107080000Y-110295000D03*
X106230000Y-110295000D03*
X105380000Y-110295000D03*
X104530000Y-110295000D03*
X103680000Y-110295000D03*
X102830000Y-110295000D03*
X101980000Y-110295000D03*
X101130000Y-110295000D03*
X100280000Y-110295000D03*
X99430000Y-110295000D03*
X98580000Y-110295000D03*
D46*
X104530000Y-117295000D03*
D47*
X97530000Y-110295000D03*
X97530000Y-124295000D03*
X111530000Y-124295000D03*
X111530000Y-110295000D03*
D46*
X102880000Y-115645000D03*
X102880000Y-117295000D03*
X102880000Y-118945000D03*
X104530000Y-118945000D03*
X106180000Y-118945000D03*
X106180000Y-117295000D03*
X106180000Y-115645000D03*
X104530000Y-115645000D03*
D48*
X119713000Y-107530000D03*
D49*
X118900000Y-107467000D03*
X118400000Y-107467000D03*
X117900000Y-107467000D03*
X117400000Y-107467000D03*
D48*
X116587000Y-107530000D03*
X116587000Y-108030000D03*
X116587000Y-108530000D03*
X116587000Y-109030000D03*
X116587000Y-109530000D03*
X116587000Y-110030000D03*
X116587000Y-110530000D03*
X116587000Y-111030000D03*
X116587000Y-111530000D03*
X116587000Y-112030000D03*
D49*
X117400000Y-112093000D03*
X117900000Y-112093000D03*
X118400000Y-112093000D03*
X118900000Y-112093000D03*
D48*
X119713000Y-112030000D03*
X119713000Y-111530000D03*
X119713000Y-111030000D03*
X119713000Y-110530000D03*
X119713000Y-110030000D03*
X119713000Y-109530000D03*
X119713000Y-109030000D03*
X119713000Y-108530000D03*
X119713000Y-108030000D03*
D50*
X115390000Y-111090000D03*
X115390000Y-110070000D03*
D32*
X103355000Y-132650000D03*
X104375000Y-132650000D03*
M02*
