M48
; DRILL file {KiCad 5.1.7-a382d34a8~88~ubuntu18.04.1} date Sat Jan 23 16:47:11 2021
; FORMAT={-:-/ absolute / inch / decimal}
; #@! TF.CreationDate,2021-01-23T16:47:11-05:00
; #@! TF.GenerationSoftware,Kicad,Pcbnew,5.1.7-a382d34a8~88~ubuntu18.04.1
; #@! TF.FileFunction,Plated,1,4,PTH
FMAT,2
INCH
T1C0.0118
T2C0.0157
T3C0.0197
T4C0.0236
T5C0.0394
T6C0.1181
T7C0.1260
%
G90
G05
T1
X2.7244Y-4.2992
X2.7677Y-3.5768
X2.7748Y-5.0154
X2.7992Y-4.2992
X2.9035Y-3.5394
X2.9606Y-3.6102
X3.3469Y-4.411
X3.3602Y-4.5354
X3.3858Y-5.2087
X3.4114Y-3.7441
X3.4331Y-4.3524
X3.4429Y-4.4528
X3.4486Y-4.5549
X3.5039Y-4.0512
X3.5039Y-4.248
X3.5045Y-4.099
X3.5179Y-4.553
X3.6179Y-4.203
X3.6227Y-3.9682
X3.6244Y-4.0059
X3.6436Y-3.955
X3.6693Y-5.2047
X3.6695Y-4.3325
X3.6724Y-4.4539
X3.6772Y-3.9685
X3.6839Y-4.0579
X3.7014Y-4.3281
X3.7146Y-5.2067
X3.7579Y-5.3406
X3.7618Y-4.4055
X3.7924Y-4.503
X3.7992Y-5.2047
X3.815Y-4.2028
X3.8543Y-4.3953
X3.8551Y-4.2228
X3.8858Y-5.2067
X3.9173Y-4.4528
X3.9291Y-5.2087
X3.9335Y-4.3272
X3.937Y-4.9134
X3.9724Y-5.2067
X3.9921Y-3.498
X4.002Y-4.9075
X4.0053Y-4.6069
X4.0217Y-4.6831
X4.028Y-4.3933
X4.0287Y-4.2201
X4.0492Y-3.5295
X4.0512Y-4.8268
X4.0768Y-3.9724
X4.1083Y-4.1673
X4.1366Y-4.5047
X4.1496Y-4.3504
X4.1732Y-4.1988
X4.1752Y-3.9724
X4.187Y-4.3031
X4.189Y-4.0079
X4.2087Y-4.6909
X4.2106Y-3.4705
X4.2815Y-4.8051
X4.2854Y-3.9134
X4.2886Y-4.2539
X4.2913Y-4.4311
X4.2953Y-4.4016
X4.2992Y-4.0866
X4.3386Y-3.687
X4.3583Y-4.7441
X4.3661Y-4.9272
X4.3701Y-4.4665
X4.3878Y-4.5315
X4.3878Y-4.6398
X4.3895Y-4.7436
X4.3944Y-4.809
X4.3944Y-4.9342
X4.4126Y-3.7114
X4.4178Y-4.9391
X4.4295Y-4.0705
X4.4475Y-4.8918
X4.45Y-4.9156
X4.4563Y-4.302
X4.4567Y-4.0118
X4.4587Y-3.9331
X4.4587Y-3.9606
X4.4587Y-3.9862
X4.4587Y-4.0374
X4.4606Y-5.0709
X4.4764Y-4.8543
X4.4902Y-3.8661
X4.5079Y-3.8484
X4.5201Y-4.1087
X4.5394Y-4.5031
X4.5412Y-4.5352
X4.5469Y-4.1043
X4.5512Y-5.1712
X4.5638Y-4.1484
X4.565Y-3.3189
X4.5724Y-4.1075
X4.5906Y-5.1693
X4.6066Y-4.228
X4.6083Y-4.4094
X4.6264Y-3.8154
X4.6282Y-4.1043
X4.6528Y-3.8146
X4.6535Y-4.1043
X4.6594Y-5.0709
X4.6614Y-4.3937
X4.6732Y-3.2795
X4.6791Y-4.1043
X4.6811Y-4.252
X4.6811Y-4.376
X4.6949Y-4.313
X4.6969Y-3.7264
X4.7067Y-4.4252
X4.7362Y-4.9134
X4.7362Y-4.9508
X4.7362Y-4.9882
X4.7461Y-3.9094
X4.75Y-3.935
X4.75Y-3.9606
X4.75Y-3.9862
X4.75Y-4.0118
X4.75Y-4.0413
X4.7555Y-3.8677
X4.7953Y-5.1354
X4.8154Y-5.1354
X4.8209Y-4.3996
X4.8366Y-5.1354
X4.8559Y-5.1354
X4.8642Y-4.2795
X4.8768Y-5.1354
X5.0138Y-4.1437
X5.0354Y-3.6969
X5.0693Y-4.9492
X5.1083Y-4.2461
X5.1181Y-4.9606
X5.2224Y-5.0335
X5.2726Y-5.2396
X5.2776Y-3.2382
X5.2776Y-3.2559
X5.2776Y-3.2736
X5.2776Y-3.2913
X5.2776Y-3.3091
X5.2776Y-3.3268
X5.2776Y-3.3445
X5.2776Y-3.3622
X5.2776Y-3.3799
X5.2776Y-3.3976
X5.2882Y-5.2512
X5.2953Y-3.2382
X5.2953Y-3.2559
X5.2953Y-3.2736
X5.2953Y-3.2913
X5.2953Y-3.3091
X5.2953Y-3.3268
X5.2953Y-3.3445
X5.2953Y-3.3622
X5.2953Y-3.3799
X5.2953Y-3.3976
X5.3014Y-5.2644
X5.313Y-3.2382
X5.313Y-3.2559
X5.313Y-3.2736
X5.313Y-3.2913
X5.313Y-3.3091
X5.313Y-3.3268
X5.313Y-3.3445
X5.313Y-3.3622
X5.313Y-3.3799
X5.313Y-3.3976
X5.3146Y-5.2776
X5.3299Y-5.2886
X5.3307Y-3.2382
X5.3307Y-3.2559
X5.3307Y-3.2736
X5.3307Y-3.2913
X5.3307Y-3.3091
X5.3307Y-3.3268
X5.3307Y-3.3445
X5.3307Y-3.3622
X5.3307Y-3.3799
X5.3307Y-3.3976
X5.3484Y-3.2382
X5.3484Y-3.2559
X5.3484Y-3.2736
X5.3484Y-3.2913
X5.3484Y-3.3091
X5.3484Y-3.3268
X5.3484Y-3.3445
X5.3484Y-3.3622
X5.3484Y-3.3799
X5.3484Y-3.3976
X5.3606Y-5.2094
X5.3622Y-5.2496
X5.3661Y-3.2382
X5.3661Y-3.2559
X5.3661Y-3.2736
X5.3661Y-3.2913
X5.3661Y-3.3091
X5.3839Y-3.2382
X5.3839Y-3.2559
X5.3839Y-3.2736
X5.3839Y-3.2913
X5.3839Y-3.3091
X5.4016Y-3.2382
X5.4016Y-3.2559
X5.4016Y-3.2736
X5.4016Y-3.2913
X5.4016Y-3.3091
X5.4193Y-3.2382
X5.4193Y-3.2559
X5.4193Y-3.2736
X5.4193Y-3.2913
X5.4193Y-3.3091
X5.437Y-3.2382
X5.437Y-3.2559
X5.437Y-3.2736
X5.437Y-3.2913
X5.437Y-3.3091
X5.448Y-5.3276
X5.4547Y-3.2382
X5.4547Y-3.2559
X5.4547Y-3.2736
X5.4547Y-3.2913
X5.4547Y-3.3091
X5.4724Y-3.2382
X5.4724Y-3.2559
X5.4724Y-3.2736
X5.4724Y-3.2913
X5.4724Y-3.3091
X5.4902Y-3.2382
X5.4902Y-3.2559
X5.4902Y-3.2736
X5.4902Y-3.2913
X5.4902Y-3.3091
X5.5079Y-3.2382
X5.5079Y-3.2559
X5.5079Y-3.2736
X5.5079Y-3.2913
X5.5079Y-3.3091
X5.5256Y-3.2382
X5.5256Y-3.2559
X5.5256Y-3.2736
X5.5256Y-3.2913
X5.5256Y-3.3091
X5.5335Y-4.122
X5.5433Y-3.2382
X5.5433Y-3.2559
X5.5433Y-3.2736
X5.5433Y-3.2913
X5.5433Y-3.3091
X5.561Y-3.2382
X5.561Y-3.2559
X5.561Y-3.2736
X5.561Y-3.2913
X5.561Y-3.3091
X5.5787Y-3.2382
X5.5787Y-3.2559
X5.5787Y-3.2736
X5.5787Y-3.2913
X5.5787Y-3.3091
X5.5965Y-3.2382
X5.5965Y-3.2559
X5.5965Y-3.2736
X5.5965Y-3.2913
X5.5965Y-3.3091
X5.6055Y-4.2067
X5.6142Y-3.2382
X5.6142Y-3.2559
X5.6142Y-3.2736
X5.6142Y-3.2913
X5.6142Y-3.3091
X5.6142Y-3.3268
X5.6142Y-3.3445
X5.6319Y-3.2382
X5.6319Y-3.2559
X5.6319Y-3.2736
X5.6319Y-3.2913
X5.6319Y-3.3091
X5.6319Y-3.3268
X5.6319Y-3.3445
X5.6839Y-4.5854
X5.7461Y-4.3071
X5.7579Y-4.4039
X5.7642Y-4.5713
X5.7972Y-4.0256
X5.815Y-3.7736
X5.815Y-3.7913
X5.815Y-3.8091
X5.815Y-3.8268
X5.815Y-3.8445
X5.815Y-3.8622
X5.815Y-3.8799
X5.815Y-3.8976
X5.815Y-3.9154
X5.815Y-3.9331
X5.815Y-3.9508
X5.815Y-3.9685
X5.815Y-3.9862
X5.815Y-4.0039
X5.8209Y-4.0709
X5.8291Y-4.4083
X5.8327Y-3.7736
X5.8327Y-3.7913
X5.8327Y-3.8091
X5.8327Y-3.8268
X5.8327Y-3.8445
X5.8327Y-3.8622
X5.8327Y-3.8799
X5.8327Y-3.8976
X5.8327Y-3.9154
X5.8327Y-3.9331
X5.8327Y-3.9508
X5.8327Y-3.9685
X5.8327Y-3.9862
X5.8327Y-4.0039
X5.8461Y-4.5874
X5.8504Y-3.7736
X5.8504Y-3.7913
X5.8504Y-3.8091
X5.8504Y-3.8268
X5.8504Y-3.8445
X5.8504Y-3.8622
X5.8504Y-3.8799
X5.8504Y-3.8976
X5.8504Y-3.9154
X5.8504Y-3.9331
X5.8504Y-3.9508
X5.8504Y-3.9685
X5.8504Y-3.9862
X5.8504Y-4.0039
X5.8681Y-3.7736
X5.8681Y-3.7913
X5.8681Y-3.8091
X5.8681Y-3.8268
X5.8681Y-3.8445
X5.8681Y-3.8622
X5.8681Y-3.8799
X5.8681Y-3.8976
X5.8681Y-3.9154
X5.8681Y-3.9331
X5.8681Y-3.9508
X5.8681Y-3.9685
X5.8681Y-3.9862
X5.8681Y-4.0039
X5.8858Y-3.7736
X5.8858Y-3.7913
X5.8858Y-3.8091
X5.8858Y-3.8268
X5.8858Y-3.8445
X5.8858Y-3.8622
X5.8858Y-3.8799
X5.8858Y-3.8976
X5.8858Y-3.9154
X5.8858Y-3.9331
X5.8858Y-3.9508
X5.8858Y-3.9685
X5.8858Y-3.9862
X5.8858Y-4.0039
X5.9035Y-3.7736
X5.9035Y-3.7913
X5.9035Y-3.8091
X5.9035Y-3.8268
X5.9035Y-3.8445
X5.9035Y-3.8622
X5.9035Y-3.8799
X5.9035Y-3.8976
X5.9035Y-3.9154
X5.9035Y-3.9331
X5.9035Y-3.9508
X5.9035Y-3.9685
X5.9035Y-3.9862
X5.9213Y-3.7736
X5.9213Y-3.7913
X5.9213Y-3.8091
X5.9213Y-3.8268
X5.9213Y-3.8445
X5.9213Y-3.8622
X5.9213Y-3.8799
X5.9213Y-3.8976
X5.9213Y-3.9154
X5.9213Y-3.9331
X5.9213Y-3.9508
X5.9213Y-3.9685
X5.9213Y-3.9862
X5.935Y-4.0453
X5.939Y-3.7736
X5.939Y-3.7913
X5.939Y-3.8091
X5.939Y-3.8268
X5.939Y-3.8445
X5.939Y-3.8622
X5.939Y-3.8799
X5.939Y-3.8976
X5.939Y-3.9154
X5.939Y-3.9331
X5.939Y-3.9508
X5.939Y-3.9685
X5.939Y-3.9862
X5.9567Y-3.7736
X5.9567Y-3.7913
X5.9567Y-3.8091
X5.9567Y-3.8268
X5.9567Y-3.8445
X5.9567Y-3.8622
X5.9567Y-3.8799
X5.9567Y-3.8976
X5.9567Y-3.9154
X5.9567Y-3.9331
X5.9567Y-3.9508
X5.9567Y-3.9685
X5.9567Y-3.9862
X5.9744Y-3.7736
X5.9744Y-3.7913
X5.9744Y-3.8091
X5.9744Y-3.8268
X5.9744Y-3.8445
X5.9744Y-3.8622
X5.9744Y-3.8799
X5.9921Y-3.7736
X5.9921Y-3.7913
X6.0Y-3.9193
X6.0098Y-3.7736
X6.0098Y-3.7913
X6.0226Y-3.9968
X6.0591Y-4.0394
X6.0689Y-4.1457
X6.0913Y-4.0831
X6.122Y-3.9449
X6.1339Y-3.9902
X6.1339Y-4.0079
X6.1339Y-4.0256
X6.1339Y-4.0433
X6.1358Y-3.8732
X6.1516Y-3.9902
X6.1516Y-4.0079
X6.1516Y-4.0256
X6.1516Y-4.0433
X6.1724Y-3.9224
X6.185Y-4.1693
X6.2239Y-3.9783
X6.2303Y-4.0394
X6.2402Y-4.1772
X6.2441Y-4.0827
X6.2457Y-3.998
X6.5031Y-3.7224
X6.5591Y-3.9087
T2
X3.622Y-5.3701
X3.6424Y-4.6037
X3.6778Y-4.6037
X3.712Y-4.6037
X3.9917Y-4.8118
X4.0689Y-5.378
X4.0748Y-4.9941
X4.0748Y-5.1417
X4.1266Y-3.9869
X4.1266Y-4.0223
X4.1266Y-4.0564
X4.1293Y-4.603
X4.1647Y-4.603
X4.24Y-5.2685
X4.5217Y-4.8996
X4.5217Y-4.9646
X4.5374Y-4.0256
X4.5394Y-3.8957
X4.5866Y-4.8976
X4.5886Y-4.9646
X4.5984Y-3.9705
X4.6673Y-3.8957
X4.6673Y-4.0256
X4.787Y-4.8756
X4.787Y-4.9114
X4.787Y-4.9469
X4.9411Y-4.2037
X4.9644Y-4.227
X4.9876Y-4.2502
X5.0108Y-4.2734
X5.052Y-5.0996
X5.0866Y-5.0996
X5.1201Y-5.0996
X5.6776Y-4.1598
X5.711Y-4.1598
X5.7445Y-4.1598
X5.7776Y-4.1598
X6.3209Y-4.4134
X6.3209Y-4.4488
X6.3209Y-4.4843
X6.3209Y-4.5197
X6.3209Y-4.5551
X6.3209Y-4.5906
X6.3209Y-4.626
X6.3209Y-4.6614
X6.3209Y-4.6969
X6.3209Y-4.7323
X6.3209Y-4.7677
X6.3209Y-4.8031
X6.3209Y-4.8386
X6.3209Y-4.874
X6.3563Y-4.5514
X6.3563Y-4.5869
X6.3563Y-4.6223
X6.3563Y-4.6577
X6.3563Y-4.6931
X6.3563Y-4.7286
X6.3563Y-4.764
X6.3563Y-4.8031
X6.3563Y-4.8386
X6.3563Y-4.874
X6.3917Y-4.6223
X6.3917Y-4.6577
X6.3917Y-4.6931
X6.3917Y-4.7286
X6.3917Y-4.764
X6.3917Y-4.8031
X6.3917Y-4.8386
X6.3917Y-4.874
X6.4311Y-4.6223
X6.4311Y-4.6577
X6.4311Y-4.6931
X6.4311Y-4.7286
X6.4311Y-4.764
X6.4311Y-4.8031
X6.4311Y-4.8386
X6.4311Y-4.874
X6.4665Y-4.6223
X6.4665Y-4.6577
X6.4665Y-4.6931
X6.4665Y-4.7286
X6.4665Y-4.764
X6.4665Y-4.8031
X6.4665Y-4.8386
X6.4665Y-4.874
X6.502Y-4.6223
X6.502Y-4.6577
X6.502Y-4.6931
X6.502Y-4.7286
X6.502Y-4.764
X6.502Y-4.8031
X6.502Y-4.8386
X6.502Y-4.874
X6.5433Y-4.5849
X6.5433Y-4.6203
X6.5433Y-4.6557
X6.5433Y-4.69
X6.5433Y-4.7266
X6.5433Y-4.762
X6.5433Y-4.8
X6.5433Y-4.8366
X6.5433Y-4.872
X6.5437Y-4.55
X6.5787Y-4.4114
X6.5787Y-4.4469
X6.5787Y-4.4823
X6.5787Y-4.5177
X6.5787Y-4.5531
X6.5787Y-4.5886
X6.5787Y-4.624
X6.5787Y-4.6594
X6.5787Y-4.6949
X6.5787Y-4.7303
X6.5787Y-4.7657
X6.5787Y-4.8012
X6.5787Y-4.8366
X6.5787Y-4.872
T3
X5.0098Y-3.3583
X5.0375Y-3.2915
X5.0375Y-3.4251
X5.1043Y-3.2638
X5.1043Y-3.4528
X5.1711Y-3.2915
X5.1711Y-3.4251
X5.1988Y-3.3583
X2.7264Y-3.3583
X2.7541Y-3.2915
X2.7541Y-3.4251
X2.8209Y-3.2638
X2.8209Y-3.4528
X2.8877Y-3.2915
X2.8877Y-3.4251
X2.9154Y-3.3583
X2.7264Y-5.2874
X2.7541Y-5.2206
X2.7541Y-5.3542
X2.8209Y-5.1929
X2.8209Y-5.3819
X2.8877Y-5.2206
X2.8877Y-5.3542
X2.9154Y-5.2874
X5.0098Y-5.2874
X5.0375Y-5.2206
X5.0375Y-5.3542
X5.1043Y-5.1929
X5.1043Y-5.3819
X5.1711Y-5.2206
X5.1711Y-5.3542
X5.1988Y-5.2874
T5
X5.119Y-4.1736
X5.219Y-4.1736
X5.319Y-4.1736
X2.7576Y-4.1032
X2.8576Y-4.1032
X2.9576Y-4.1032
X5.119Y-3.9736
X5.219Y-3.9736
X5.319Y-3.9736
X2.7566Y-3.9032
X2.8566Y-3.9032
X2.9566Y-3.9032
X2.7575Y-4.3892
X2.8575Y-4.3892
X2.9575Y-4.3892
X3.7362Y-3.2937
X3.7362Y-3.3937
X3.7362Y-3.4937
X5.119Y-3.8736
X5.219Y-3.8736
X5.319Y-3.8736
X5.1179Y-4.5848
X5.2179Y-4.5848
X5.3179Y-4.5848
X3.8366Y-3.2941
X3.8366Y-3.3941
X3.8366Y-3.4941
X2.7575Y-4.5892
X2.8575Y-4.5892
X2.9575Y-4.5892
X3.5354Y-3.2941
X3.5354Y-3.3941
X3.5354Y-3.4941
X5.1179Y-4.3848
X5.2179Y-4.3848
X5.3179Y-4.3848
X3.6358Y-3.2941
X3.6358Y-3.3941
X3.6358Y-3.4941
X2.756Y-4.6892
X2.856Y-4.6892
X2.956Y-4.6892
X5.119Y-4.0736
X5.219Y-4.0736
X5.319Y-4.0736
X2.7576Y-4.2032
X2.8576Y-4.2032
X2.9576Y-4.2032
X2.7566Y-4.0032
X2.8566Y-4.0032
X2.9566Y-4.0032
X2.7575Y-4.4892
X2.8575Y-4.4892
X2.9575Y-4.4892
X5.1179Y-4.4848
X5.2179Y-4.4848
X5.3179Y-4.4848
X5.1179Y-4.6848
X5.2179Y-4.6848
X5.3179Y-4.6848
T6
X6.4484Y-4.2949
X6.4484Y-4.4917
T7
X5.1043Y-5.2874
X5.1043Y-3.3583
X2.8209Y-3.3583
X2.8209Y-5.2874
T4
G00X4.3909Y-5.1368
M15
G01X4.3909Y-5.1801
M16
G05
G00X4.3909Y-5.3061
M15
G01X4.3909Y-5.3376
M16
G05
G00X4.7311Y-5.1368
M15
G01X4.7311Y-5.1801
M16
G05
G00X4.7313Y-5.3061
M15
G01X4.7313Y-5.3376
M16
G05
T0
M30
