G04 #@! TF.GenerationSoftware,KiCad,Pcbnew,6.0.7-f9a2dced07~116~ubuntu20.04.1*
G04 #@! TF.CreationDate,2022-12-31T15:09:28-05:00*
G04 #@! TF.ProjectId,SmallKat v2,536d616c-6c4b-4617-9420-76322e6b6963,rev?*
G04 #@! TF.SameCoordinates,Original*
G04 #@! TF.FileFunction,Soldermask,Bot*
G04 #@! TF.FilePolarity,Negative*
%FSLAX46Y46*%
G04 Gerber Fmt 4.6, Leading zero omitted, Abs format (unit mm)*
G04 Created by KiCad (PCBNEW 6.0.7-f9a2dced07~116~ubuntu20.04.1) date 2022-12-31 15:09:28*
%MOMM*%
%LPD*%
G01*
G04 APERTURE LIST*
G04 Aperture macros list*
%AMRoundRect*
0 Rectangle with rounded corners*
0 $1 Rounding radius*
0 $2 $3 $4 $5 $6 $7 $8 $9 X,Y pos of 4 corners*
0 Add a 4 corners polygon primitive as box body*
4,1,4,$2,$3,$4,$5,$6,$7,$8,$9,$2,$3,0*
0 Add four circle primitives for the rounded corners*
1,1,$1+$1,$2,$3*
1,1,$1+$1,$4,$5*
1,1,$1+$1,$6,$7*
1,1,$1+$1,$8,$9*
0 Add four rect primitives between the rounded corners*
20,1,$1+$1,$2,$3,$4,$5,0*
20,1,$1+$1,$4,$5,$6,$7,0*
20,1,$1+$1,$6,$7,$8,$9,0*
20,1,$1+$1,$8,$9,$2,$3,0*%
G04 Aperture macros list end*
%ADD10C,6.502000*%
%ADD11C,0.902000*%
%ADD12RoundRect,0.051000X-0.850000X0.850000X-0.850000X-0.850000X0.850000X-0.850000X0.850000X0.850000X0*%
%ADD13O,1.802000X1.802000*%
%ADD14C,0.752000*%
%ADD15O,1.102000X2.202000*%
%ADD16O,1.102000X1.902000*%
%ADD17RoundRect,0.051000X0.850000X-0.850000X0.850000X0.850000X-0.850000X0.850000X-0.850000X-0.850000X0*%
%ADD18RoundRect,0.051000X-0.850000X-0.850000X0.850000X-0.850000X0.850000X0.850000X-0.850000X0.850000X0*%
%ADD19C,4.602000*%
%ADD20C,2.102000*%
G04 APERTURE END LIST*
D10*
X71650000Y-134300000D03*
D11*
X73347056Y-132602944D03*
X71650000Y-136700000D03*
X69952944Y-135997056D03*
X71650000Y-131900000D03*
X69250000Y-134300000D03*
X74050000Y-134300000D03*
X69952944Y-132602944D03*
X73347056Y-135997056D03*
X129650000Y-131900000D03*
X127250000Y-134300000D03*
X132050000Y-134300000D03*
X129650000Y-136700000D03*
X131347056Y-132602944D03*
D10*
X129650000Y-134300000D03*
D11*
X131347056Y-135997056D03*
X127952944Y-132602944D03*
X127952944Y-135997056D03*
D10*
X129650000Y-85300000D03*
D11*
X132050000Y-85300000D03*
X127250000Y-85300000D03*
X131347056Y-86997056D03*
X127952944Y-83602944D03*
X129650000Y-87700000D03*
X127952944Y-86997056D03*
X131347056Y-83602944D03*
X129650000Y-82900000D03*
X71650000Y-82900000D03*
X69952944Y-86997056D03*
X73347056Y-86997056D03*
D10*
X71650000Y-85300000D03*
D11*
X69952944Y-83602944D03*
X71650000Y-87700000D03*
X69250000Y-85300000D03*
X74050000Y-85300000D03*
X73347056Y-83602944D03*
D12*
X75122700Y-104222000D03*
D13*
X72582700Y-104222000D03*
X70042700Y-104222000D03*
D12*
X75122700Y-106762000D03*
D13*
X72582700Y-106762000D03*
X70042700Y-106762000D03*
D12*
X75121400Y-111486400D03*
D13*
X72581400Y-111486400D03*
X70041400Y-111486400D03*
D12*
X75121400Y-114026400D03*
D13*
X72581400Y-114026400D03*
X70041400Y-114026400D03*
D12*
X75121400Y-116566400D03*
D13*
X72581400Y-116566400D03*
X70041400Y-116566400D03*
D12*
X75081400Y-119106400D03*
D13*
X72541400Y-119106400D03*
X70001400Y-119106400D03*
D14*
X107468846Y-131475000D03*
X113248846Y-131475000D03*
D15*
X106038846Y-130975000D03*
X114678846Y-130975000D03*
D16*
X114683846Y-135125000D03*
X106038846Y-135125000D03*
D12*
X75097700Y-101682000D03*
D13*
X72557700Y-101682000D03*
X70017700Y-101682000D03*
D12*
X75097700Y-99142000D03*
D13*
X72557700Y-99142000D03*
X70017700Y-99142000D03*
D17*
X130022800Y-106008800D03*
D13*
X132562800Y-106008800D03*
X135102800Y-106008800D03*
D17*
X130022800Y-98388800D03*
D13*
X132562800Y-98388800D03*
X135102800Y-98388800D03*
D17*
X129993600Y-118994800D03*
D13*
X132533600Y-118994800D03*
X135073600Y-118994800D03*
D17*
X129993600Y-111374800D03*
D13*
X132533600Y-111374800D03*
X135073600Y-111374800D03*
D17*
X129993600Y-116454800D03*
D13*
X132533600Y-116454800D03*
X135073600Y-116454800D03*
D17*
X129993600Y-113914800D03*
D13*
X132533600Y-113914800D03*
X135073600Y-113914800D03*
D17*
X130022800Y-103468800D03*
D13*
X132562800Y-103468800D03*
X135102800Y-103468800D03*
D17*
X130022800Y-100928800D03*
D13*
X132562800Y-100928800D03*
X135102800Y-100928800D03*
D18*
X151510000Y-130490000D03*
D13*
X151510000Y-133030000D03*
X151510000Y-135570000D03*
D18*
X156610000Y-130490000D03*
D13*
X156610000Y-133030000D03*
X156610000Y-135570000D03*
D18*
X154070000Y-130490000D03*
D13*
X154070000Y-133030000D03*
X154070000Y-135570000D03*
D18*
X159160000Y-130490000D03*
D13*
X159160000Y-133030000D03*
X159160000Y-135570000D03*
D19*
X163790000Y-114090000D03*
X163790000Y-109090000D03*
D20*
X77570000Y-135000000D03*
X166220000Y-93910000D03*
X165720000Y-135000000D03*
X124150000Y-113625000D03*
X90000000Y-128430000D03*
X114000000Y-122500000D03*
X121025000Y-115250000D03*
X109250000Y-115500000D03*
X100550000Y-135000000D03*
X92650000Y-135000000D03*
X113900000Y-116500000D03*
X110744000Y-135000000D03*
M02*
