G04 #@! TF.GenerationSoftware,KiCad,Pcbnew,5.1.4-e60b266~84~ubuntu18.04.1*
G04 #@! TF.CreationDate,2019-11-18T10:08:55-05:00*
G04 #@! TF.ProjectId,SmallKat v2,536d616c-6c4b-4617-9420-76322e6b6963,rev?*
G04 #@! TF.SameCoordinates,Original*
G04 #@! TF.FileFunction,Soldermask,Bot*
G04 #@! TF.FilePolarity,Negative*
%FSLAX46Y46*%
G04 Gerber Fmt 4.6, Leading zero omitted, Abs format (unit mm)*
G04 Created by KiCad (PCBNEW 5.1.4-e60b266~84~ubuntu18.04.1) date 2019-11-18 10:08:55*
%MOMM*%
%LPD*%
G04 APERTURE LIST*
%ADD10C,0.100000*%
G04 APERTURE END LIST*
D10*
G36*
X161096693Y-136796859D02*
G01*
X161362437Y-136849719D01*
X161863087Y-137057095D01*
X162043561Y-137177684D01*
X162313660Y-137358158D01*
X162696842Y-137741340D01*
X162877316Y-138011439D01*
X162997905Y-138191913D01*
X163131363Y-138514109D01*
X163205281Y-138692564D01*
X163311000Y-139224049D01*
X163311000Y-139765951D01*
X163275186Y-139946000D01*
X163205281Y-140297437D01*
X162997905Y-140798087D01*
X162941521Y-140882471D01*
X162696842Y-141248660D01*
X162313660Y-141631842D01*
X162050774Y-141807496D01*
X161863087Y-141932905D01*
X161362437Y-142140281D01*
X161096694Y-142193140D01*
X160830951Y-142246000D01*
X160289049Y-142246000D01*
X160023306Y-142193140D01*
X159757563Y-142140281D01*
X159256913Y-141932905D01*
X159069226Y-141807496D01*
X158806340Y-141631842D01*
X158423158Y-141248660D01*
X158178479Y-140882471D01*
X158122095Y-140798087D01*
X157914719Y-140297437D01*
X157844814Y-139946000D01*
X157809000Y-139765951D01*
X157809000Y-139224049D01*
X157914719Y-138692564D01*
X157988637Y-138514109D01*
X158122095Y-138191913D01*
X158242684Y-138011439D01*
X158423158Y-137741340D01*
X158806340Y-137358158D01*
X159076439Y-137177684D01*
X159256913Y-137057095D01*
X159757563Y-136849719D01*
X160023307Y-136796859D01*
X160289049Y-136744000D01*
X160830951Y-136744000D01*
X161096693Y-136796859D01*
X161096693Y-136796859D01*
G37*
G36*
X103096693Y-136796859D02*
G01*
X103362437Y-136849719D01*
X103863087Y-137057095D01*
X104043561Y-137177684D01*
X104313660Y-137358158D01*
X104696842Y-137741340D01*
X104877316Y-138011439D01*
X104997905Y-138191913D01*
X105131363Y-138514109D01*
X105205281Y-138692564D01*
X105311000Y-139224049D01*
X105311000Y-139765951D01*
X105275186Y-139946000D01*
X105205281Y-140297437D01*
X104997905Y-140798087D01*
X104941521Y-140882471D01*
X104696842Y-141248660D01*
X104313660Y-141631842D01*
X104050774Y-141807496D01*
X103863087Y-141932905D01*
X103362437Y-142140281D01*
X103096694Y-142193140D01*
X102830951Y-142246000D01*
X102289049Y-142246000D01*
X102023306Y-142193140D01*
X101757563Y-142140281D01*
X101256913Y-141932905D01*
X101069226Y-141807496D01*
X100806340Y-141631842D01*
X100423158Y-141248660D01*
X100178479Y-140882471D01*
X100122095Y-140798087D01*
X99914719Y-140297437D01*
X99844814Y-139946000D01*
X99809000Y-139765951D01*
X99809000Y-139224049D01*
X99914719Y-138692564D01*
X99988637Y-138514109D01*
X100122095Y-138191913D01*
X100242684Y-138011439D01*
X100423158Y-137741340D01*
X100806340Y-137358158D01*
X101076439Y-137177684D01*
X101256913Y-137057095D01*
X101757563Y-136849719D01*
X102023307Y-136796859D01*
X102289049Y-136744000D01*
X102830951Y-136744000D01*
X103096693Y-136796859D01*
X103096693Y-136796859D01*
G37*
G36*
X145972287Y-131921196D02*
G01*
X146209053Y-132019268D01*
X146209055Y-132019269D01*
X146271514Y-132061003D01*
X146422139Y-132161647D01*
X146603353Y-132342861D01*
X146745732Y-132555947D01*
X146843804Y-132792713D01*
X146893800Y-133044061D01*
X146893800Y-133300339D01*
X146843804Y-133551687D01*
X146745732Y-133788453D01*
X146745731Y-133788455D01*
X146603353Y-134001539D01*
X146422139Y-134182753D01*
X146209055Y-134325131D01*
X146209054Y-134325132D01*
X146209053Y-134325132D01*
X145972287Y-134423204D01*
X145720939Y-134473200D01*
X145464661Y-134473200D01*
X145213313Y-134423204D01*
X144976547Y-134325132D01*
X144976546Y-134325132D01*
X144976545Y-134325131D01*
X144763461Y-134182753D01*
X144582247Y-134001539D01*
X144439869Y-133788455D01*
X144439868Y-133788453D01*
X144341796Y-133551687D01*
X144291800Y-133300339D01*
X144291800Y-133044061D01*
X144341796Y-132792713D01*
X144439868Y-132555947D01*
X144582247Y-132342861D01*
X144763461Y-132161647D01*
X144914086Y-132061003D01*
X144976545Y-132019269D01*
X144976547Y-132019268D01*
X145213313Y-131921196D01*
X145464661Y-131871200D01*
X145720939Y-131871200D01*
X145972287Y-131921196D01*
X145972287Y-131921196D01*
G37*
G36*
X105520443Y-130550519D02*
G01*
X105586627Y-130557037D01*
X105756466Y-130608557D01*
X105912991Y-130692222D01*
X105937101Y-130712009D01*
X106050186Y-130804814D01*
X106133448Y-130906271D01*
X106162778Y-130942009D01*
X106246443Y-131098534D01*
X106297963Y-131268373D01*
X106315359Y-131445000D01*
X106297963Y-131621627D01*
X106246443Y-131791466D01*
X106162778Y-131947991D01*
X106150517Y-131962931D01*
X106050186Y-132085186D01*
X105948729Y-132168448D01*
X105912991Y-132197778D01*
X105756466Y-132281443D01*
X105586627Y-132332963D01*
X105520442Y-132339482D01*
X105454260Y-132346000D01*
X105365740Y-132346000D01*
X105299558Y-132339482D01*
X105233373Y-132332963D01*
X105063534Y-132281443D01*
X104907009Y-132197778D01*
X104871271Y-132168448D01*
X104769814Y-132085186D01*
X104669483Y-131962931D01*
X104657222Y-131947991D01*
X104573557Y-131791466D01*
X104522037Y-131621627D01*
X104504641Y-131445000D01*
X104522037Y-131268373D01*
X104573557Y-131098534D01*
X104657222Y-130942009D01*
X104686552Y-130906271D01*
X104769814Y-130804814D01*
X104882899Y-130712009D01*
X104907009Y-130692222D01*
X105063534Y-130608557D01*
X105233373Y-130557037D01*
X105299557Y-130550519D01*
X105365740Y-130544000D01*
X105454260Y-130544000D01*
X105520443Y-130550519D01*
X105520443Y-130550519D01*
G37*
G36*
X108060443Y-130550519D02*
G01*
X108126627Y-130557037D01*
X108296466Y-130608557D01*
X108452991Y-130692222D01*
X108477101Y-130712009D01*
X108590186Y-130804814D01*
X108673448Y-130906271D01*
X108702778Y-130942009D01*
X108786443Y-131098534D01*
X108837963Y-131268373D01*
X108855359Y-131445000D01*
X108837963Y-131621627D01*
X108786443Y-131791466D01*
X108702778Y-131947991D01*
X108690517Y-131962931D01*
X108590186Y-132085186D01*
X108488729Y-132168448D01*
X108452991Y-132197778D01*
X108296466Y-132281443D01*
X108126627Y-132332963D01*
X108060442Y-132339482D01*
X107994260Y-132346000D01*
X107905740Y-132346000D01*
X107839558Y-132339482D01*
X107773373Y-132332963D01*
X107603534Y-132281443D01*
X107447009Y-132197778D01*
X107411271Y-132168448D01*
X107309814Y-132085186D01*
X107209483Y-131962931D01*
X107197222Y-131947991D01*
X107113557Y-131791466D01*
X107062037Y-131621627D01*
X107044641Y-131445000D01*
X107062037Y-131268373D01*
X107113557Y-131098534D01*
X107197222Y-130942009D01*
X107226552Y-130906271D01*
X107309814Y-130804814D01*
X107422899Y-130712009D01*
X107447009Y-130692222D01*
X107603534Y-130608557D01*
X107773373Y-130557037D01*
X107839557Y-130550519D01*
X107905740Y-130544000D01*
X107994260Y-130544000D01*
X108060443Y-130550519D01*
X108060443Y-130550519D01*
G37*
G36*
X103771000Y-132346000D02*
G01*
X101969000Y-132346000D01*
X101969000Y-130544000D01*
X103771000Y-130544000D01*
X103771000Y-132346000D01*
X103771000Y-132346000D01*
G37*
G36*
X123340887Y-129685996D02*
G01*
X123474747Y-129741443D01*
X123577655Y-129784069D01*
X123790739Y-129926447D01*
X123971953Y-130107661D01*
X124100812Y-130300512D01*
X124114332Y-130320747D01*
X124212404Y-130557513D01*
X124262400Y-130808861D01*
X124262400Y-131065139D01*
X124212404Y-131316487D01*
X124166937Y-131426253D01*
X124114331Y-131553255D01*
X123971953Y-131766339D01*
X123790739Y-131947553D01*
X123577655Y-132089931D01*
X123577654Y-132089932D01*
X123577653Y-132089932D01*
X123340887Y-132188004D01*
X123089539Y-132238000D01*
X122833261Y-132238000D01*
X122581913Y-132188004D01*
X122345147Y-132089932D01*
X122345146Y-132089932D01*
X122345145Y-132089931D01*
X122132061Y-131947553D01*
X121950847Y-131766339D01*
X121808469Y-131553255D01*
X121755863Y-131426253D01*
X121710396Y-131316487D01*
X121660400Y-131065139D01*
X121660400Y-130808861D01*
X121710396Y-130557513D01*
X121808468Y-130320747D01*
X121821989Y-130300512D01*
X121950847Y-130107661D01*
X122132061Y-129926447D01*
X122345145Y-129784069D01*
X122448053Y-129741443D01*
X122581913Y-129685996D01*
X122833261Y-129636000D01*
X123089539Y-129636000D01*
X123340887Y-129685996D01*
X123340887Y-129685996D01*
G37*
G36*
X179090443Y-130320519D02*
G01*
X179156627Y-130327037D01*
X179326466Y-130378557D01*
X179482991Y-130462222D01*
X179518729Y-130491552D01*
X179620186Y-130574814D01*
X179703448Y-130676271D01*
X179732778Y-130712009D01*
X179816443Y-130868534D01*
X179867963Y-131038373D01*
X179885359Y-131215000D01*
X179867963Y-131391627D01*
X179816443Y-131561466D01*
X179732778Y-131717991D01*
X179703448Y-131753729D01*
X179620186Y-131855186D01*
X179539751Y-131921196D01*
X179482991Y-131967778D01*
X179326466Y-132051443D01*
X179156627Y-132102963D01*
X179090443Y-132109481D01*
X179024260Y-132116000D01*
X178935740Y-132116000D01*
X178869557Y-132109481D01*
X178803373Y-132102963D01*
X178633534Y-132051443D01*
X178477009Y-131967778D01*
X178420249Y-131921196D01*
X178339814Y-131855186D01*
X178256552Y-131753729D01*
X178227222Y-131717991D01*
X178143557Y-131561466D01*
X178092037Y-131391627D01*
X178074641Y-131215000D01*
X178092037Y-131038373D01*
X178143557Y-130868534D01*
X178227222Y-130712009D01*
X178256552Y-130676271D01*
X178339814Y-130574814D01*
X178441271Y-130491552D01*
X178477009Y-130462222D01*
X178633534Y-130378557D01*
X178803373Y-130327037D01*
X178869557Y-130320519D01*
X178935740Y-130314000D01*
X179024260Y-130314000D01*
X179090443Y-130320519D01*
X179090443Y-130320519D01*
G37*
G36*
X181630443Y-130320519D02*
G01*
X181696627Y-130327037D01*
X181866466Y-130378557D01*
X182022991Y-130462222D01*
X182058729Y-130491552D01*
X182160186Y-130574814D01*
X182243448Y-130676271D01*
X182272778Y-130712009D01*
X182356443Y-130868534D01*
X182407963Y-131038373D01*
X182425359Y-131215000D01*
X182407963Y-131391627D01*
X182356443Y-131561466D01*
X182272778Y-131717991D01*
X182243448Y-131753729D01*
X182160186Y-131855186D01*
X182079751Y-131921196D01*
X182022991Y-131967778D01*
X181866466Y-132051443D01*
X181696627Y-132102963D01*
X181630443Y-132109481D01*
X181564260Y-132116000D01*
X181475740Y-132116000D01*
X181409557Y-132109481D01*
X181343373Y-132102963D01*
X181173534Y-132051443D01*
X181017009Y-131967778D01*
X180960249Y-131921196D01*
X180879814Y-131855186D01*
X180796552Y-131753729D01*
X180767222Y-131717991D01*
X180683557Y-131561466D01*
X180632037Y-131391627D01*
X180614641Y-131215000D01*
X180632037Y-131038373D01*
X180683557Y-130868534D01*
X180767222Y-130712009D01*
X180796552Y-130676271D01*
X180879814Y-130574814D01*
X180981271Y-130491552D01*
X181017009Y-130462222D01*
X181173534Y-130378557D01*
X181343373Y-130327037D01*
X181409557Y-130320519D01*
X181475740Y-130314000D01*
X181564260Y-130314000D01*
X181630443Y-130320519D01*
X181630443Y-130320519D01*
G37*
G36*
X184961000Y-132116000D02*
G01*
X183159000Y-132116000D01*
X183159000Y-130314000D01*
X184961000Y-130314000D01*
X184961000Y-132116000D01*
X184961000Y-132116000D01*
G37*
G36*
X127176287Y-129558996D02*
G01*
X127413053Y-129657068D01*
X127413055Y-129657069D01*
X127626139Y-129799447D01*
X127807353Y-129980661D01*
X127892212Y-130107661D01*
X127949732Y-130193747D01*
X128047804Y-130430513D01*
X128097800Y-130681861D01*
X128097800Y-130938139D01*
X128047804Y-131189487D01*
X127949732Y-131426253D01*
X127949731Y-131426255D01*
X127807353Y-131639339D01*
X127626139Y-131820553D01*
X127413055Y-131962931D01*
X127413054Y-131962932D01*
X127413053Y-131962932D01*
X127176287Y-132061004D01*
X126924939Y-132111000D01*
X126668661Y-132111000D01*
X126417313Y-132061004D01*
X126180547Y-131962932D01*
X126180546Y-131962932D01*
X126180545Y-131962931D01*
X125967461Y-131820553D01*
X125786247Y-131639339D01*
X125643869Y-131426255D01*
X125643868Y-131426253D01*
X125545796Y-131189487D01*
X125495800Y-130938139D01*
X125495800Y-130681861D01*
X125545796Y-130430513D01*
X125643868Y-130193747D01*
X125701389Y-130107661D01*
X125786247Y-129980661D01*
X125967461Y-129799447D01*
X126180545Y-129657069D01*
X126180547Y-129657068D01*
X126417313Y-129558996D01*
X126668661Y-129509000D01*
X126924939Y-129509000D01*
X127176287Y-129558996D01*
X127176287Y-129558996D01*
G37*
G36*
X132709487Y-129428996D02*
G01*
X132946253Y-129527068D01*
X132946255Y-129527069D01*
X133159339Y-129669447D01*
X133340553Y-129850661D01*
X133391192Y-129926447D01*
X133482932Y-130063747D01*
X133581004Y-130300513D01*
X133631000Y-130551861D01*
X133631000Y-130808139D01*
X133581004Y-131059487D01*
X133516588Y-131215000D01*
X133482931Y-131296255D01*
X133340553Y-131509339D01*
X133159339Y-131690553D01*
X132946255Y-131832931D01*
X132946254Y-131832932D01*
X132946253Y-131832932D01*
X132709487Y-131931004D01*
X132458139Y-131981000D01*
X132201861Y-131981000D01*
X131950513Y-131931004D01*
X131713747Y-131832932D01*
X131713746Y-131832932D01*
X131713745Y-131832931D01*
X131500661Y-131690553D01*
X131319447Y-131509339D01*
X131177069Y-131296255D01*
X131143412Y-131215000D01*
X131078996Y-131059487D01*
X131029000Y-130808139D01*
X131029000Y-130551861D01*
X131078996Y-130300513D01*
X131177068Y-130063747D01*
X131268809Y-129926447D01*
X131319447Y-129850661D01*
X131500661Y-129669447D01*
X131713745Y-129527069D01*
X131713747Y-129527068D01*
X131950513Y-129428996D01*
X132201861Y-129379000D01*
X132458139Y-129379000D01*
X132709487Y-129428996D01*
X132709487Y-129428996D01*
G37*
G36*
X103771000Y-129806000D02*
G01*
X101969000Y-129806000D01*
X101969000Y-128004000D01*
X103771000Y-128004000D01*
X103771000Y-129806000D01*
X103771000Y-129806000D01*
G37*
G36*
X105520443Y-128010519D02*
G01*
X105586627Y-128017037D01*
X105756466Y-128068557D01*
X105912991Y-128152222D01*
X105937101Y-128172009D01*
X106050186Y-128264814D01*
X106133448Y-128366271D01*
X106162778Y-128402009D01*
X106246443Y-128558534D01*
X106297963Y-128728373D01*
X106315359Y-128905000D01*
X106297963Y-129081627D01*
X106246443Y-129251466D01*
X106162778Y-129407991D01*
X106133448Y-129443729D01*
X106050186Y-129545186D01*
X105948729Y-129628448D01*
X105912991Y-129657778D01*
X105756466Y-129741443D01*
X105586627Y-129792963D01*
X105520793Y-129799447D01*
X105454260Y-129806000D01*
X105365740Y-129806000D01*
X105299207Y-129799447D01*
X105233373Y-129792963D01*
X105063534Y-129741443D01*
X104907009Y-129657778D01*
X104871271Y-129628448D01*
X104769814Y-129545186D01*
X104686552Y-129443729D01*
X104657222Y-129407991D01*
X104573557Y-129251466D01*
X104522037Y-129081627D01*
X104504641Y-128905000D01*
X104522037Y-128728373D01*
X104573557Y-128558534D01*
X104657222Y-128402009D01*
X104686552Y-128366271D01*
X104769814Y-128264814D01*
X104882899Y-128172009D01*
X104907009Y-128152222D01*
X105063534Y-128068557D01*
X105233373Y-128017037D01*
X105299557Y-128010519D01*
X105365740Y-128004000D01*
X105454260Y-128004000D01*
X105520443Y-128010519D01*
X105520443Y-128010519D01*
G37*
G36*
X108060443Y-128010519D02*
G01*
X108126627Y-128017037D01*
X108296466Y-128068557D01*
X108452991Y-128152222D01*
X108477101Y-128172009D01*
X108590186Y-128264814D01*
X108673448Y-128366271D01*
X108702778Y-128402009D01*
X108786443Y-128558534D01*
X108837963Y-128728373D01*
X108855359Y-128905000D01*
X108837963Y-129081627D01*
X108786443Y-129251466D01*
X108702778Y-129407991D01*
X108673448Y-129443729D01*
X108590186Y-129545186D01*
X108488729Y-129628448D01*
X108452991Y-129657778D01*
X108296466Y-129741443D01*
X108126627Y-129792963D01*
X108060793Y-129799447D01*
X107994260Y-129806000D01*
X107905740Y-129806000D01*
X107839207Y-129799447D01*
X107773373Y-129792963D01*
X107603534Y-129741443D01*
X107447009Y-129657778D01*
X107411271Y-129628448D01*
X107309814Y-129545186D01*
X107226552Y-129443729D01*
X107197222Y-129407991D01*
X107113557Y-129251466D01*
X107062037Y-129081627D01*
X107044641Y-128905000D01*
X107062037Y-128728373D01*
X107113557Y-128558534D01*
X107197222Y-128402009D01*
X107226552Y-128366271D01*
X107309814Y-128264814D01*
X107422899Y-128172009D01*
X107447009Y-128152222D01*
X107603534Y-128068557D01*
X107773373Y-128017037D01*
X107839557Y-128010519D01*
X107905740Y-128004000D01*
X107994260Y-128004000D01*
X108060443Y-128010519D01*
X108060443Y-128010519D01*
G37*
G36*
X179090443Y-127780519D02*
G01*
X179156627Y-127787037D01*
X179326466Y-127838557D01*
X179482991Y-127922222D01*
X179518729Y-127951552D01*
X179620186Y-128034814D01*
X179703448Y-128136271D01*
X179732778Y-128172009D01*
X179732779Y-128172011D01*
X179790465Y-128279932D01*
X179816443Y-128328534D01*
X179867963Y-128498373D01*
X179885359Y-128675000D01*
X179867963Y-128851627D01*
X179816443Y-129021466D01*
X179732778Y-129177991D01*
X179703448Y-129213729D01*
X179620186Y-129315186D01*
X179542427Y-129379000D01*
X179482991Y-129427778D01*
X179482989Y-129427779D01*
X179331037Y-129509000D01*
X179326466Y-129511443D01*
X179156627Y-129562963D01*
X179090442Y-129569482D01*
X179024260Y-129576000D01*
X178935740Y-129576000D01*
X178869558Y-129569482D01*
X178803373Y-129562963D01*
X178633534Y-129511443D01*
X178628964Y-129509000D01*
X178477011Y-129427779D01*
X178477009Y-129427778D01*
X178417573Y-129379000D01*
X178339814Y-129315186D01*
X178256552Y-129213729D01*
X178227222Y-129177991D01*
X178143557Y-129021466D01*
X178092037Y-128851627D01*
X178074641Y-128675000D01*
X178092037Y-128498373D01*
X178143557Y-128328534D01*
X178169536Y-128279932D01*
X178227221Y-128172011D01*
X178227222Y-128172009D01*
X178256552Y-128136271D01*
X178339814Y-128034814D01*
X178441271Y-127951552D01*
X178477009Y-127922222D01*
X178633534Y-127838557D01*
X178803373Y-127787037D01*
X178869557Y-127780519D01*
X178935740Y-127774000D01*
X179024260Y-127774000D01*
X179090443Y-127780519D01*
X179090443Y-127780519D01*
G37*
G36*
X181630443Y-127780519D02*
G01*
X181696627Y-127787037D01*
X181866466Y-127838557D01*
X182022991Y-127922222D01*
X182058729Y-127951552D01*
X182160186Y-128034814D01*
X182243448Y-128136271D01*
X182272778Y-128172009D01*
X182272779Y-128172011D01*
X182330465Y-128279932D01*
X182356443Y-128328534D01*
X182407963Y-128498373D01*
X182425359Y-128675000D01*
X182407963Y-128851627D01*
X182356443Y-129021466D01*
X182272778Y-129177991D01*
X182243448Y-129213729D01*
X182160186Y-129315186D01*
X182082427Y-129379000D01*
X182022991Y-129427778D01*
X182022989Y-129427779D01*
X181871037Y-129509000D01*
X181866466Y-129511443D01*
X181696627Y-129562963D01*
X181630442Y-129569482D01*
X181564260Y-129576000D01*
X181475740Y-129576000D01*
X181409558Y-129569482D01*
X181343373Y-129562963D01*
X181173534Y-129511443D01*
X181168964Y-129509000D01*
X181017011Y-129427779D01*
X181017009Y-129427778D01*
X180957573Y-129379000D01*
X180879814Y-129315186D01*
X180796552Y-129213729D01*
X180767222Y-129177991D01*
X180683557Y-129021466D01*
X180632037Y-128851627D01*
X180614641Y-128675000D01*
X180632037Y-128498373D01*
X180683557Y-128328534D01*
X180709536Y-128279932D01*
X180767221Y-128172011D01*
X180767222Y-128172009D01*
X180796552Y-128136271D01*
X180879814Y-128034814D01*
X180981271Y-127951552D01*
X181017009Y-127922222D01*
X181173534Y-127838557D01*
X181343373Y-127787037D01*
X181409557Y-127780519D01*
X181475740Y-127774000D01*
X181564260Y-127774000D01*
X181630443Y-127780519D01*
X181630443Y-127780519D01*
G37*
G36*
X184961000Y-129576000D02*
G01*
X183159000Y-129576000D01*
X183159000Y-127774000D01*
X184961000Y-127774000D01*
X184961000Y-129576000D01*
X184961000Y-129576000D01*
G37*
G36*
X152525487Y-125875996D02*
G01*
X152762253Y-125974068D01*
X152762255Y-125974069D01*
X152975339Y-126116447D01*
X153156553Y-126297661D01*
X153286927Y-126492779D01*
X153298932Y-126510747D01*
X153397004Y-126747513D01*
X153447000Y-126998861D01*
X153447000Y-127255139D01*
X153397004Y-127506487D01*
X153298932Y-127743253D01*
X153298931Y-127743255D01*
X153156553Y-127956339D01*
X152975339Y-128137553D01*
X152762255Y-128279931D01*
X152762254Y-128279932D01*
X152762253Y-128279932D01*
X152525487Y-128378004D01*
X152274139Y-128428000D01*
X152017861Y-128428000D01*
X151766513Y-128378004D01*
X151529747Y-128279932D01*
X151529746Y-128279932D01*
X151529745Y-128279931D01*
X151316661Y-128137553D01*
X151135447Y-127956339D01*
X150993069Y-127743255D01*
X150993068Y-127743253D01*
X150894996Y-127506487D01*
X150845000Y-127255139D01*
X150845000Y-126998861D01*
X150894996Y-126747513D01*
X150993068Y-126510747D01*
X151005074Y-126492779D01*
X151135447Y-126297661D01*
X151316661Y-126116447D01*
X151529745Y-125974069D01*
X151529747Y-125974068D01*
X151766513Y-125875996D01*
X152017861Y-125826000D01*
X152274139Y-125826000D01*
X152525487Y-125875996D01*
X152525487Y-125875996D01*
G37*
G36*
X105520442Y-125470518D02*
G01*
X105586627Y-125477037D01*
X105756466Y-125528557D01*
X105912991Y-125612222D01*
X105929779Y-125626000D01*
X106050186Y-125724814D01*
X106133226Y-125826000D01*
X106162778Y-125862009D01*
X106246443Y-126018534D01*
X106297963Y-126188373D01*
X106315359Y-126365000D01*
X106297963Y-126541627D01*
X106246443Y-126711466D01*
X106162778Y-126867991D01*
X106146539Y-126887778D01*
X106050186Y-127005186D01*
X105948729Y-127088448D01*
X105912991Y-127117778D01*
X105756466Y-127201443D01*
X105586627Y-127252963D01*
X105520443Y-127259481D01*
X105454260Y-127266000D01*
X105365740Y-127266000D01*
X105299557Y-127259481D01*
X105233373Y-127252963D01*
X105063534Y-127201443D01*
X104907009Y-127117778D01*
X104871271Y-127088448D01*
X104769814Y-127005186D01*
X104673461Y-126887778D01*
X104657222Y-126867991D01*
X104573557Y-126711466D01*
X104522037Y-126541627D01*
X104504641Y-126365000D01*
X104522037Y-126188373D01*
X104573557Y-126018534D01*
X104657222Y-125862009D01*
X104686774Y-125826000D01*
X104769814Y-125724814D01*
X104890221Y-125626000D01*
X104907009Y-125612222D01*
X105063534Y-125528557D01*
X105233373Y-125477037D01*
X105299558Y-125470518D01*
X105365740Y-125464000D01*
X105454260Y-125464000D01*
X105520442Y-125470518D01*
X105520442Y-125470518D01*
G37*
G36*
X103771000Y-127266000D02*
G01*
X101969000Y-127266000D01*
X101969000Y-125464000D01*
X103771000Y-125464000D01*
X103771000Y-127266000D01*
X103771000Y-127266000D01*
G37*
G36*
X108060442Y-125470518D02*
G01*
X108126627Y-125477037D01*
X108296466Y-125528557D01*
X108452991Y-125612222D01*
X108469779Y-125626000D01*
X108590186Y-125724814D01*
X108673226Y-125826000D01*
X108702778Y-125862009D01*
X108786443Y-126018534D01*
X108837963Y-126188373D01*
X108855359Y-126365000D01*
X108837963Y-126541627D01*
X108786443Y-126711466D01*
X108702778Y-126867991D01*
X108686539Y-126887778D01*
X108590186Y-127005186D01*
X108488729Y-127088448D01*
X108452991Y-127117778D01*
X108296466Y-127201443D01*
X108126627Y-127252963D01*
X108060443Y-127259481D01*
X107994260Y-127266000D01*
X107905740Y-127266000D01*
X107839557Y-127259481D01*
X107773373Y-127252963D01*
X107603534Y-127201443D01*
X107447009Y-127117778D01*
X107411271Y-127088448D01*
X107309814Y-127005186D01*
X107213461Y-126887778D01*
X107197222Y-126867991D01*
X107113557Y-126711466D01*
X107062037Y-126541627D01*
X107044641Y-126365000D01*
X107062037Y-126188373D01*
X107113557Y-126018534D01*
X107197222Y-125862009D01*
X107226774Y-125826000D01*
X107309814Y-125724814D01*
X107430221Y-125626000D01*
X107447009Y-125612222D01*
X107603534Y-125528557D01*
X107773373Y-125477037D01*
X107839558Y-125470518D01*
X107905740Y-125464000D01*
X107994260Y-125464000D01*
X108060442Y-125470518D01*
X108060442Y-125470518D01*
G37*
G36*
X179090443Y-125240519D02*
G01*
X179156627Y-125247037D01*
X179326466Y-125298557D01*
X179482991Y-125382222D01*
X179518729Y-125411552D01*
X179620186Y-125494814D01*
X179703448Y-125596271D01*
X179732778Y-125632009D01*
X179816443Y-125788534D01*
X179867963Y-125958373D01*
X179885359Y-126135000D01*
X179867963Y-126311627D01*
X179816443Y-126481466D01*
X179732778Y-126637991D01*
X179703448Y-126673729D01*
X179620186Y-126775186D01*
X179518729Y-126858448D01*
X179482991Y-126887778D01*
X179326466Y-126971443D01*
X179156627Y-127022963D01*
X179090443Y-127029481D01*
X179024260Y-127036000D01*
X178935740Y-127036000D01*
X178869557Y-127029481D01*
X178803373Y-127022963D01*
X178633534Y-126971443D01*
X178477009Y-126887778D01*
X178441271Y-126858448D01*
X178339814Y-126775186D01*
X178256552Y-126673729D01*
X178227222Y-126637991D01*
X178143557Y-126481466D01*
X178092037Y-126311627D01*
X178074641Y-126135000D01*
X178092037Y-125958373D01*
X178143557Y-125788534D01*
X178227222Y-125632009D01*
X178256552Y-125596271D01*
X178339814Y-125494814D01*
X178441271Y-125411552D01*
X178477009Y-125382222D01*
X178633534Y-125298557D01*
X178803373Y-125247037D01*
X178869557Y-125240519D01*
X178935740Y-125234000D01*
X179024260Y-125234000D01*
X179090443Y-125240519D01*
X179090443Y-125240519D01*
G37*
G36*
X181630443Y-125240519D02*
G01*
X181696627Y-125247037D01*
X181866466Y-125298557D01*
X182022991Y-125382222D01*
X182058729Y-125411552D01*
X182160186Y-125494814D01*
X182243448Y-125596271D01*
X182272778Y-125632009D01*
X182356443Y-125788534D01*
X182407963Y-125958373D01*
X182425359Y-126135000D01*
X182407963Y-126311627D01*
X182356443Y-126481466D01*
X182272778Y-126637991D01*
X182243448Y-126673729D01*
X182160186Y-126775186D01*
X182058729Y-126858448D01*
X182022991Y-126887778D01*
X181866466Y-126971443D01*
X181696627Y-127022963D01*
X181630443Y-127029481D01*
X181564260Y-127036000D01*
X181475740Y-127036000D01*
X181409557Y-127029481D01*
X181343373Y-127022963D01*
X181173534Y-126971443D01*
X181017009Y-126887778D01*
X180981271Y-126858448D01*
X180879814Y-126775186D01*
X180796552Y-126673729D01*
X180767222Y-126637991D01*
X180683557Y-126481466D01*
X180632037Y-126311627D01*
X180614641Y-126135000D01*
X180632037Y-125958373D01*
X180683557Y-125788534D01*
X180767222Y-125632009D01*
X180796552Y-125596271D01*
X180879814Y-125494814D01*
X180981271Y-125411552D01*
X181017009Y-125382222D01*
X181173534Y-125298557D01*
X181343373Y-125247037D01*
X181409557Y-125240519D01*
X181475740Y-125234000D01*
X181564260Y-125234000D01*
X181630443Y-125240519D01*
X181630443Y-125240519D01*
G37*
G36*
X184961000Y-127036000D02*
G01*
X183159000Y-127036000D01*
X183159000Y-125234000D01*
X184961000Y-125234000D01*
X184961000Y-127036000D01*
X184961000Y-127036000D01*
G37*
G36*
X159388001Y-126117299D02*
G01*
X159398045Y-126121460D01*
X159427314Y-126133583D01*
X159462692Y-126157222D01*
X159492778Y-126187308D01*
X159516417Y-126222686D01*
X159528540Y-126251955D01*
X159532701Y-126261999D01*
X159541000Y-126303724D01*
X159541000Y-126346276D01*
X159532701Y-126388001D01*
X159532699Y-126388005D01*
X159516417Y-126427314D01*
X159492778Y-126462692D01*
X159462692Y-126492778D01*
X159427314Y-126516417D01*
X159398045Y-126528540D01*
X159388001Y-126532701D01*
X159346276Y-126541000D01*
X159303724Y-126541000D01*
X159261999Y-126532701D01*
X159251955Y-126528540D01*
X159222686Y-126516417D01*
X159187308Y-126492778D01*
X159157222Y-126462692D01*
X159133583Y-126427314D01*
X159117301Y-126388005D01*
X159117299Y-126388001D01*
X159109000Y-126346276D01*
X159109000Y-126303724D01*
X159117299Y-126261999D01*
X159121460Y-126251955D01*
X159133583Y-126222686D01*
X159157222Y-126187308D01*
X159187308Y-126157222D01*
X159222686Y-126133583D01*
X159251955Y-126121460D01*
X159261999Y-126117299D01*
X159303724Y-126109000D01*
X159346276Y-126109000D01*
X159388001Y-126117299D01*
X159388001Y-126117299D01*
G37*
G36*
X157259173Y-124327989D02*
G01*
X157364890Y-124349017D01*
X157483364Y-124398091D01*
X157589988Y-124469335D01*
X157680665Y-124560012D01*
X157726721Y-124628939D01*
X157751910Y-124666638D01*
X157800983Y-124785110D01*
X157826000Y-124910881D01*
X157826000Y-125039119D01*
X157800983Y-125164890D01*
X157772357Y-125234000D01*
X157751909Y-125283364D01*
X157680665Y-125389988D01*
X157589988Y-125480665D01*
X157483364Y-125551909D01*
X157483363Y-125551910D01*
X157483362Y-125551910D01*
X157364890Y-125600983D01*
X157239119Y-125626000D01*
X157110881Y-125626000D01*
X156985110Y-125600983D01*
X156866638Y-125551910D01*
X156866637Y-125551910D01*
X156866636Y-125551909D01*
X156760012Y-125480665D01*
X156669335Y-125389988D01*
X156598091Y-125283364D01*
X156577644Y-125234000D01*
X156549017Y-125164890D01*
X156524000Y-125039119D01*
X156524000Y-124910881D01*
X156549017Y-124785110D01*
X156598090Y-124666638D01*
X156623280Y-124628939D01*
X156669335Y-124560012D01*
X156760012Y-124469335D01*
X156866636Y-124398091D01*
X156985110Y-124349017D01*
X157090827Y-124327989D01*
X157110881Y-124324000D01*
X157239119Y-124324000D01*
X157259173Y-124327989D01*
X157259173Y-124327989D01*
G37*
G36*
X161559173Y-124327989D02*
G01*
X161664890Y-124349017D01*
X161783364Y-124398091D01*
X161889988Y-124469335D01*
X161980665Y-124560012D01*
X162026721Y-124628939D01*
X162051910Y-124666638D01*
X162100983Y-124785110D01*
X162126000Y-124910881D01*
X162126000Y-125039119D01*
X162100983Y-125164890D01*
X162072357Y-125234000D01*
X162051909Y-125283364D01*
X161980665Y-125389988D01*
X161889988Y-125480665D01*
X161783364Y-125551909D01*
X161783363Y-125551910D01*
X161783362Y-125551910D01*
X161664890Y-125600983D01*
X161539119Y-125626000D01*
X161410881Y-125626000D01*
X161285110Y-125600983D01*
X161166638Y-125551910D01*
X161166637Y-125551910D01*
X161166636Y-125551909D01*
X161060012Y-125480665D01*
X160969335Y-125389988D01*
X160898091Y-125283364D01*
X160877644Y-125234000D01*
X160849017Y-125164890D01*
X160824000Y-125039119D01*
X160824000Y-124910881D01*
X160849017Y-124785110D01*
X160898090Y-124666638D01*
X160923280Y-124628939D01*
X160969335Y-124560012D01*
X161060012Y-124469335D01*
X161166636Y-124398091D01*
X161285110Y-124349017D01*
X161390827Y-124327989D01*
X161410881Y-124324000D01*
X161539119Y-124324000D01*
X161559173Y-124327989D01*
X161559173Y-124327989D01*
G37*
G36*
X130097287Y-122548596D02*
G01*
X130334053Y-122646668D01*
X130334055Y-122646669D01*
X130547139Y-122789047D01*
X130728353Y-122970261D01*
X130809704Y-123092011D01*
X130870732Y-123183347D01*
X130968804Y-123420113D01*
X131018800Y-123671461D01*
X131018800Y-123927739D01*
X130968804Y-124179087D01*
X130878089Y-124398091D01*
X130870731Y-124415855D01*
X130728353Y-124628939D01*
X130547139Y-124810153D01*
X130334055Y-124952531D01*
X130334054Y-124952532D01*
X130334053Y-124952532D01*
X130097287Y-125050604D01*
X129845939Y-125100600D01*
X129589661Y-125100600D01*
X129338313Y-125050604D01*
X129101547Y-124952532D01*
X129101546Y-124952532D01*
X129101545Y-124952531D01*
X128888461Y-124810153D01*
X128707247Y-124628939D01*
X128564869Y-124415855D01*
X128557511Y-124398091D01*
X128466796Y-124179087D01*
X128416800Y-123927739D01*
X128416800Y-123671461D01*
X128466796Y-123420113D01*
X128564868Y-123183347D01*
X128625897Y-123092011D01*
X128707247Y-122970261D01*
X128888461Y-122789047D01*
X129101545Y-122646669D01*
X129101547Y-122646668D01*
X129338313Y-122548596D01*
X129589661Y-122498600D01*
X129845939Y-122498600D01*
X130097287Y-122548596D01*
X130097287Y-122548596D01*
G37*
G36*
X105520443Y-122930519D02*
G01*
X105586627Y-122937037D01*
X105756466Y-122988557D01*
X105912991Y-123072222D01*
X105937101Y-123092009D01*
X106050186Y-123184814D01*
X106133448Y-123286271D01*
X106162778Y-123322009D01*
X106246443Y-123478534D01*
X106297963Y-123648373D01*
X106315359Y-123825000D01*
X106297963Y-124001627D01*
X106268731Y-124097991D01*
X106246442Y-124171468D01*
X106242369Y-124179088D01*
X106162778Y-124327991D01*
X106146539Y-124347778D01*
X106050186Y-124465186D01*
X105948729Y-124548448D01*
X105912991Y-124577778D01*
X105756466Y-124661443D01*
X105586627Y-124712963D01*
X105520443Y-124719481D01*
X105454260Y-124726000D01*
X105365740Y-124726000D01*
X105299557Y-124719481D01*
X105233373Y-124712963D01*
X105063534Y-124661443D01*
X104907009Y-124577778D01*
X104871271Y-124548448D01*
X104769814Y-124465186D01*
X104673461Y-124347778D01*
X104657222Y-124327991D01*
X104577631Y-124179088D01*
X104573558Y-124171468D01*
X104551269Y-124097991D01*
X104522037Y-124001627D01*
X104504641Y-123825000D01*
X104522037Y-123648373D01*
X104573557Y-123478534D01*
X104657222Y-123322009D01*
X104686552Y-123286271D01*
X104769814Y-123184814D01*
X104882899Y-123092009D01*
X104907009Y-123072222D01*
X105063534Y-122988557D01*
X105233373Y-122937037D01*
X105299557Y-122930519D01*
X105365740Y-122924000D01*
X105454260Y-122924000D01*
X105520443Y-122930519D01*
X105520443Y-122930519D01*
G37*
G36*
X103771000Y-124726000D02*
G01*
X101969000Y-124726000D01*
X101969000Y-122924000D01*
X103771000Y-122924000D01*
X103771000Y-124726000D01*
X103771000Y-124726000D01*
G37*
G36*
X108060443Y-122930519D02*
G01*
X108126627Y-122937037D01*
X108296466Y-122988557D01*
X108452991Y-123072222D01*
X108477101Y-123092009D01*
X108590186Y-123184814D01*
X108673448Y-123286271D01*
X108702778Y-123322009D01*
X108786443Y-123478534D01*
X108837963Y-123648373D01*
X108855359Y-123825000D01*
X108837963Y-124001627D01*
X108808731Y-124097991D01*
X108786442Y-124171468D01*
X108782369Y-124179088D01*
X108702778Y-124327991D01*
X108686539Y-124347778D01*
X108590186Y-124465186D01*
X108488729Y-124548448D01*
X108452991Y-124577778D01*
X108296466Y-124661443D01*
X108126627Y-124712963D01*
X108060443Y-124719481D01*
X107994260Y-124726000D01*
X107905740Y-124726000D01*
X107839557Y-124719481D01*
X107773373Y-124712963D01*
X107603534Y-124661443D01*
X107447009Y-124577778D01*
X107411271Y-124548448D01*
X107309814Y-124465186D01*
X107213461Y-124347778D01*
X107197222Y-124327991D01*
X107117631Y-124179088D01*
X107113558Y-124171468D01*
X107091269Y-124097991D01*
X107062037Y-124001627D01*
X107044641Y-123825000D01*
X107062037Y-123648373D01*
X107113557Y-123478534D01*
X107197222Y-123322009D01*
X107226552Y-123286271D01*
X107309814Y-123184814D01*
X107422899Y-123092009D01*
X107447009Y-123072222D01*
X107603534Y-122988557D01*
X107773373Y-122937037D01*
X107839557Y-122930519D01*
X107905740Y-122924000D01*
X107994260Y-122924000D01*
X108060443Y-122930519D01*
X108060443Y-122930519D01*
G37*
G36*
X179090442Y-122700518D02*
G01*
X179156627Y-122707037D01*
X179326466Y-122758557D01*
X179482991Y-122842222D01*
X179518729Y-122871552D01*
X179620186Y-122954814D01*
X179703448Y-123056271D01*
X179732778Y-123092009D01*
X179816443Y-123248534D01*
X179867963Y-123418373D01*
X179885359Y-123595000D01*
X179867963Y-123771627D01*
X179816443Y-123941466D01*
X179732778Y-124097991D01*
X179703448Y-124133729D01*
X179620186Y-124235186D01*
X179518729Y-124318448D01*
X179482991Y-124347778D01*
X179326466Y-124431443D01*
X179156627Y-124482963D01*
X179090443Y-124489481D01*
X179024260Y-124496000D01*
X178935740Y-124496000D01*
X178869557Y-124489481D01*
X178803373Y-124482963D01*
X178633534Y-124431443D01*
X178477009Y-124347778D01*
X178441271Y-124318448D01*
X178339814Y-124235186D01*
X178256552Y-124133729D01*
X178227222Y-124097991D01*
X178143557Y-123941466D01*
X178092037Y-123771627D01*
X178074641Y-123595000D01*
X178092037Y-123418373D01*
X178143557Y-123248534D01*
X178227222Y-123092009D01*
X178256552Y-123056271D01*
X178339814Y-122954814D01*
X178441271Y-122871552D01*
X178477009Y-122842222D01*
X178633534Y-122758557D01*
X178803373Y-122707037D01*
X178869558Y-122700518D01*
X178935740Y-122694000D01*
X179024260Y-122694000D01*
X179090442Y-122700518D01*
X179090442Y-122700518D01*
G37*
G36*
X184961000Y-124496000D02*
G01*
X183159000Y-124496000D01*
X183159000Y-122694000D01*
X184961000Y-122694000D01*
X184961000Y-124496000D01*
X184961000Y-124496000D01*
G37*
G36*
X181630442Y-122700518D02*
G01*
X181696627Y-122707037D01*
X181866466Y-122758557D01*
X182022991Y-122842222D01*
X182058729Y-122871552D01*
X182160186Y-122954814D01*
X182243448Y-123056271D01*
X182272778Y-123092009D01*
X182356443Y-123248534D01*
X182407963Y-123418373D01*
X182425359Y-123595000D01*
X182407963Y-123771627D01*
X182356443Y-123941466D01*
X182272778Y-124097991D01*
X182243448Y-124133729D01*
X182160186Y-124235186D01*
X182058729Y-124318448D01*
X182022991Y-124347778D01*
X181866466Y-124431443D01*
X181696627Y-124482963D01*
X181630443Y-124489481D01*
X181564260Y-124496000D01*
X181475740Y-124496000D01*
X181409557Y-124489481D01*
X181343373Y-124482963D01*
X181173534Y-124431443D01*
X181017009Y-124347778D01*
X180981271Y-124318448D01*
X180879814Y-124235186D01*
X180796552Y-124133729D01*
X180767222Y-124097991D01*
X180683557Y-123941466D01*
X180632037Y-123771627D01*
X180614641Y-123595000D01*
X180632037Y-123418373D01*
X180683557Y-123248534D01*
X180767222Y-123092009D01*
X180796552Y-123056271D01*
X180879814Y-122954814D01*
X180981271Y-122871552D01*
X181017009Y-122842222D01*
X181173534Y-122758557D01*
X181343373Y-122707037D01*
X181409558Y-122700518D01*
X181475740Y-122694000D01*
X181564260Y-122694000D01*
X181630442Y-122700518D01*
X181630442Y-122700518D01*
G37*
G36*
X161664890Y-119549017D02*
G01*
X161783364Y-119598091D01*
X161889988Y-119669335D01*
X161980665Y-119760012D01*
X162051909Y-119866636D01*
X162100983Y-119985110D01*
X162126000Y-120110882D01*
X162126000Y-120239118D01*
X162100983Y-120364890D01*
X162051909Y-120483364D01*
X161980665Y-120589988D01*
X161889988Y-120680665D01*
X161783364Y-120751909D01*
X161783363Y-120751910D01*
X161783362Y-120751910D01*
X161664890Y-120800983D01*
X161539119Y-120826000D01*
X161410881Y-120826000D01*
X161285110Y-120800983D01*
X161166638Y-120751910D01*
X161166637Y-120751910D01*
X161166636Y-120751909D01*
X161060012Y-120680665D01*
X160969335Y-120589988D01*
X160898091Y-120483364D01*
X160849017Y-120364890D01*
X160824000Y-120239118D01*
X160824000Y-120110882D01*
X160849017Y-119985110D01*
X160898091Y-119866636D01*
X160969335Y-119760012D01*
X161060012Y-119669335D01*
X161166636Y-119598091D01*
X161285110Y-119549017D01*
X161410881Y-119524000D01*
X161539119Y-119524000D01*
X161664890Y-119549017D01*
X161664890Y-119549017D01*
G37*
G36*
X157364890Y-119549017D02*
G01*
X157483364Y-119598091D01*
X157589988Y-119669335D01*
X157680665Y-119760012D01*
X157751909Y-119866636D01*
X157800983Y-119985110D01*
X157826000Y-120110882D01*
X157826000Y-120239118D01*
X157800983Y-120364890D01*
X157751909Y-120483364D01*
X157680665Y-120589988D01*
X157589988Y-120680665D01*
X157483364Y-120751909D01*
X157483363Y-120751910D01*
X157483362Y-120751910D01*
X157364890Y-120800983D01*
X157239119Y-120826000D01*
X157110881Y-120826000D01*
X156985110Y-120800983D01*
X156866638Y-120751910D01*
X156866637Y-120751910D01*
X156866636Y-120751909D01*
X156760012Y-120680665D01*
X156669335Y-120589988D01*
X156598091Y-120483364D01*
X156549017Y-120364890D01*
X156524000Y-120239118D01*
X156524000Y-120110882D01*
X156549017Y-119985110D01*
X156598091Y-119866636D01*
X156669335Y-119760012D01*
X156760012Y-119669335D01*
X156866636Y-119598091D01*
X156985110Y-119549017D01*
X157110881Y-119524000D01*
X157239119Y-119524000D01*
X157364890Y-119549017D01*
X157364890Y-119549017D01*
G37*
G36*
X159439049Y-118449025D02*
G01*
X159439052Y-118449026D01*
X159439051Y-118449026D01*
X159510208Y-118478500D01*
X159574248Y-118521290D01*
X159628710Y-118575752D01*
X159628711Y-118575754D01*
X159671501Y-118639794D01*
X159700975Y-118710951D01*
X159716000Y-118786488D01*
X159716000Y-118863512D01*
X159700975Y-118939049D01*
X159700974Y-118939051D01*
X159671500Y-119010208D01*
X159628710Y-119074248D01*
X159574248Y-119128710D01*
X159510208Y-119171500D01*
X159510207Y-119171501D01*
X159510206Y-119171501D01*
X159439049Y-119200975D01*
X159363512Y-119216000D01*
X159286488Y-119216000D01*
X159210951Y-119200975D01*
X159139794Y-119171501D01*
X159139793Y-119171501D01*
X159139792Y-119171500D01*
X159075752Y-119128710D01*
X159021290Y-119074248D01*
X158978500Y-119010208D01*
X158949026Y-118939051D01*
X158949025Y-118939049D01*
X158934000Y-118863512D01*
X158934000Y-118786488D01*
X158949025Y-118710951D01*
X158978499Y-118639794D01*
X159021289Y-118575754D01*
X159021290Y-118575752D01*
X159075752Y-118521290D01*
X159139792Y-118478500D01*
X159210949Y-118449026D01*
X159210948Y-118449026D01*
X159210951Y-118449025D01*
X159286488Y-118434000D01*
X159363512Y-118434000D01*
X159439049Y-118449025D01*
X159439049Y-118449025D01*
G37*
G36*
X150010887Y-112972796D02*
G01*
X150247653Y-113070868D01*
X150247655Y-113070869D01*
X150460739Y-113213247D01*
X150641953Y-113394461D01*
X150784332Y-113607547D01*
X150882404Y-113844313D01*
X150932400Y-114095661D01*
X150932400Y-114351939D01*
X150882404Y-114603287D01*
X150784332Y-114840053D01*
X150784331Y-114840055D01*
X150641953Y-115053139D01*
X150460739Y-115234353D01*
X150247655Y-115376731D01*
X150247654Y-115376732D01*
X150247653Y-115376732D01*
X150010887Y-115474804D01*
X149759539Y-115524800D01*
X149503261Y-115524800D01*
X149251913Y-115474804D01*
X149015147Y-115376732D01*
X149015146Y-115376732D01*
X149015145Y-115376731D01*
X148802061Y-115234353D01*
X148620847Y-115053139D01*
X148478469Y-114840055D01*
X148478468Y-114840053D01*
X148380396Y-114603287D01*
X148330400Y-114351939D01*
X148330400Y-114095661D01*
X148380396Y-113844313D01*
X148478468Y-113607547D01*
X148620847Y-113394461D01*
X148802061Y-113213247D01*
X149015145Y-113070869D01*
X149015147Y-113070868D01*
X149251913Y-112972796D01*
X149503261Y-112922800D01*
X149759539Y-112922800D01*
X150010887Y-112972796D01*
X150010887Y-112972796D01*
G37*
G36*
X166622487Y-108019796D02*
G01*
X166859253Y-108117868D01*
X166859255Y-108117869D01*
X167072339Y-108260247D01*
X167253553Y-108441461D01*
X167349463Y-108585000D01*
X167395932Y-108654547D01*
X167494004Y-108891313D01*
X167544000Y-109142661D01*
X167544000Y-109398939D01*
X167494004Y-109650287D01*
X167402358Y-109871539D01*
X167395931Y-109887055D01*
X167253553Y-110100139D01*
X167072339Y-110281353D01*
X166859255Y-110423731D01*
X166859254Y-110423732D01*
X166859253Y-110423732D01*
X166622487Y-110521804D01*
X166371139Y-110571800D01*
X166114861Y-110571800D01*
X165863513Y-110521804D01*
X165626747Y-110423732D01*
X165626746Y-110423732D01*
X165626745Y-110423731D01*
X165413661Y-110281353D01*
X165232447Y-110100139D01*
X165090069Y-109887055D01*
X165083642Y-109871539D01*
X164991996Y-109650287D01*
X164942000Y-109398939D01*
X164942000Y-109142661D01*
X164991996Y-108891313D01*
X165090068Y-108654547D01*
X165136538Y-108585000D01*
X165232447Y-108441461D01*
X165413661Y-108260247D01*
X165626745Y-108117869D01*
X165626747Y-108117868D01*
X165863513Y-108019796D01*
X166114861Y-107969800D01*
X166371139Y-107969800D01*
X166622487Y-108019796D01*
X166622487Y-108019796D01*
G37*
G36*
X146886687Y-107791196D02*
G01*
X147123453Y-107889268D01*
X147123455Y-107889269D01*
X147336539Y-108031647D01*
X147517753Y-108212861D01*
X147648390Y-108408373D01*
X147660132Y-108425947D01*
X147758204Y-108662713D01*
X147808200Y-108914061D01*
X147808200Y-109170339D01*
X147758204Y-109421687D01*
X147663514Y-109650287D01*
X147660131Y-109658455D01*
X147517753Y-109871539D01*
X147336539Y-110052753D01*
X147123455Y-110195131D01*
X147123454Y-110195132D01*
X147123453Y-110195132D01*
X146886687Y-110293204D01*
X146635339Y-110343200D01*
X146379061Y-110343200D01*
X146127713Y-110293204D01*
X145890947Y-110195132D01*
X145890946Y-110195132D01*
X145890945Y-110195131D01*
X145677861Y-110052753D01*
X145496647Y-109871539D01*
X145354269Y-109658455D01*
X145350886Y-109650287D01*
X145256196Y-109421687D01*
X145206200Y-109170339D01*
X145206200Y-108914061D01*
X145256196Y-108662713D01*
X145354268Y-108425947D01*
X145366011Y-108408373D01*
X145496647Y-108212861D01*
X145677861Y-108031647D01*
X145890945Y-107889269D01*
X145890947Y-107889268D01*
X146127713Y-107791196D01*
X146379061Y-107741200D01*
X146635339Y-107741200D01*
X146886687Y-107791196D01*
X146886687Y-107791196D01*
G37*
G36*
X108060443Y-107690519D02*
G01*
X108126627Y-107697037D01*
X108296466Y-107748557D01*
X108452991Y-107832222D01*
X108488729Y-107861552D01*
X108590186Y-107944814D01*
X108651721Y-108019796D01*
X108702778Y-108082009D01*
X108786443Y-108238534D01*
X108837963Y-108408373D01*
X108855359Y-108585000D01*
X108837963Y-108761627D01*
X108786443Y-108931466D01*
X108702778Y-109087991D01*
X108673448Y-109123729D01*
X108590186Y-109225186D01*
X108488729Y-109308448D01*
X108452991Y-109337778D01*
X108296466Y-109421443D01*
X108126627Y-109472963D01*
X108060442Y-109479482D01*
X107994260Y-109486000D01*
X107905740Y-109486000D01*
X107839558Y-109479482D01*
X107773373Y-109472963D01*
X107603534Y-109421443D01*
X107447009Y-109337778D01*
X107411271Y-109308448D01*
X107309814Y-109225186D01*
X107226552Y-109123729D01*
X107197222Y-109087991D01*
X107113557Y-108931466D01*
X107062037Y-108761627D01*
X107044641Y-108585000D01*
X107062037Y-108408373D01*
X107113557Y-108238534D01*
X107197222Y-108082009D01*
X107248279Y-108019796D01*
X107309814Y-107944814D01*
X107411271Y-107861552D01*
X107447009Y-107832222D01*
X107603534Y-107748557D01*
X107773373Y-107697037D01*
X107839557Y-107690519D01*
X107905740Y-107684000D01*
X107994260Y-107684000D01*
X108060443Y-107690519D01*
X108060443Y-107690519D01*
G37*
G36*
X103771000Y-109486000D02*
G01*
X101969000Y-109486000D01*
X101969000Y-107684000D01*
X103771000Y-107684000D01*
X103771000Y-109486000D01*
X103771000Y-109486000D01*
G37*
G36*
X105520443Y-107690519D02*
G01*
X105586627Y-107697037D01*
X105756466Y-107748557D01*
X105912991Y-107832222D01*
X105948729Y-107861552D01*
X106050186Y-107944814D01*
X106111721Y-108019796D01*
X106162778Y-108082009D01*
X106246443Y-108238534D01*
X106297963Y-108408373D01*
X106315359Y-108585000D01*
X106297963Y-108761627D01*
X106246443Y-108931466D01*
X106162778Y-109087991D01*
X106133448Y-109123729D01*
X106050186Y-109225186D01*
X105948729Y-109308448D01*
X105912991Y-109337778D01*
X105756466Y-109421443D01*
X105586627Y-109472963D01*
X105520442Y-109479482D01*
X105454260Y-109486000D01*
X105365740Y-109486000D01*
X105299558Y-109479482D01*
X105233373Y-109472963D01*
X105063534Y-109421443D01*
X104907009Y-109337778D01*
X104871271Y-109308448D01*
X104769814Y-109225186D01*
X104686552Y-109123729D01*
X104657222Y-109087991D01*
X104573557Y-108931466D01*
X104522037Y-108761627D01*
X104504641Y-108585000D01*
X104522037Y-108408373D01*
X104573557Y-108238534D01*
X104657222Y-108082009D01*
X104708279Y-108019796D01*
X104769814Y-107944814D01*
X104871271Y-107861552D01*
X104907009Y-107832222D01*
X105063534Y-107748557D01*
X105233373Y-107697037D01*
X105299557Y-107690519D01*
X105365740Y-107684000D01*
X105454260Y-107684000D01*
X105520443Y-107690519D01*
X105520443Y-107690519D01*
G37*
G36*
X103771000Y-106946000D02*
G01*
X101969000Y-106946000D01*
X101969000Y-105144000D01*
X103771000Y-105144000D01*
X103771000Y-106946000D01*
X103771000Y-106946000D01*
G37*
G36*
X108060443Y-105150519D02*
G01*
X108126627Y-105157037D01*
X108296466Y-105208557D01*
X108452991Y-105292222D01*
X108488729Y-105321552D01*
X108590186Y-105404814D01*
X108673448Y-105506271D01*
X108702778Y-105542009D01*
X108786443Y-105698534D01*
X108837963Y-105868373D01*
X108855359Y-106045000D01*
X108837963Y-106221627D01*
X108786443Y-106391466D01*
X108702778Y-106547991D01*
X108673448Y-106583729D01*
X108590186Y-106685186D01*
X108488729Y-106768448D01*
X108452991Y-106797778D01*
X108296466Y-106881443D01*
X108126627Y-106932963D01*
X108060442Y-106939482D01*
X107994260Y-106946000D01*
X107905740Y-106946000D01*
X107839558Y-106939482D01*
X107773373Y-106932963D01*
X107603534Y-106881443D01*
X107447009Y-106797778D01*
X107411271Y-106768448D01*
X107309814Y-106685186D01*
X107226552Y-106583729D01*
X107197222Y-106547991D01*
X107113557Y-106391466D01*
X107062037Y-106221627D01*
X107044641Y-106045000D01*
X107062037Y-105868373D01*
X107113557Y-105698534D01*
X107197222Y-105542009D01*
X107226552Y-105506271D01*
X107309814Y-105404814D01*
X107411271Y-105321552D01*
X107447009Y-105292222D01*
X107603534Y-105208557D01*
X107773373Y-105157037D01*
X107839558Y-105150518D01*
X107905740Y-105144000D01*
X107994260Y-105144000D01*
X108060443Y-105150519D01*
X108060443Y-105150519D01*
G37*
G36*
X105520443Y-105150519D02*
G01*
X105586627Y-105157037D01*
X105756466Y-105208557D01*
X105912991Y-105292222D01*
X105948729Y-105321552D01*
X106050186Y-105404814D01*
X106133448Y-105506271D01*
X106162778Y-105542009D01*
X106246443Y-105698534D01*
X106297963Y-105868373D01*
X106315359Y-106045000D01*
X106297963Y-106221627D01*
X106246443Y-106391466D01*
X106162778Y-106547991D01*
X106133448Y-106583729D01*
X106050186Y-106685186D01*
X105948729Y-106768448D01*
X105912991Y-106797778D01*
X105756466Y-106881443D01*
X105586627Y-106932963D01*
X105520442Y-106939482D01*
X105454260Y-106946000D01*
X105365740Y-106946000D01*
X105299558Y-106939482D01*
X105233373Y-106932963D01*
X105063534Y-106881443D01*
X104907009Y-106797778D01*
X104871271Y-106768448D01*
X104769814Y-106685186D01*
X104686552Y-106583729D01*
X104657222Y-106547991D01*
X104573557Y-106391466D01*
X104522037Y-106221627D01*
X104504641Y-106045000D01*
X104522037Y-105868373D01*
X104573557Y-105698534D01*
X104657222Y-105542009D01*
X104686552Y-105506271D01*
X104769814Y-105404814D01*
X104871271Y-105321552D01*
X104907009Y-105292222D01*
X105063534Y-105208557D01*
X105233373Y-105157037D01*
X105299558Y-105150518D01*
X105365740Y-105144000D01*
X105454260Y-105144000D01*
X105520443Y-105150519D01*
X105520443Y-105150519D01*
G37*
G36*
X103771000Y-104406000D02*
G01*
X101969000Y-104406000D01*
X101969000Y-102604000D01*
X103771000Y-102604000D01*
X103771000Y-104406000D01*
X103771000Y-104406000D01*
G37*
G36*
X108060442Y-102610518D02*
G01*
X108126627Y-102617037D01*
X108296466Y-102668557D01*
X108452991Y-102752222D01*
X108488729Y-102781552D01*
X108590186Y-102864814D01*
X108673448Y-102966271D01*
X108702778Y-103002009D01*
X108786443Y-103158534D01*
X108837963Y-103328373D01*
X108855359Y-103505000D01*
X108837963Y-103681627D01*
X108786443Y-103851466D01*
X108702778Y-104007991D01*
X108673448Y-104043729D01*
X108590186Y-104145186D01*
X108488729Y-104228448D01*
X108452991Y-104257778D01*
X108296466Y-104341443D01*
X108126627Y-104392963D01*
X108060442Y-104399482D01*
X107994260Y-104406000D01*
X107905740Y-104406000D01*
X107839558Y-104399482D01*
X107773373Y-104392963D01*
X107603534Y-104341443D01*
X107447009Y-104257778D01*
X107411271Y-104228448D01*
X107309814Y-104145186D01*
X107226552Y-104043729D01*
X107197222Y-104007991D01*
X107113557Y-103851466D01*
X107062037Y-103681627D01*
X107044641Y-103505000D01*
X107062037Y-103328373D01*
X107113557Y-103158534D01*
X107197222Y-103002009D01*
X107226552Y-102966271D01*
X107309814Y-102864814D01*
X107411271Y-102781552D01*
X107447009Y-102752222D01*
X107603534Y-102668557D01*
X107773373Y-102617037D01*
X107839558Y-102610518D01*
X107905740Y-102604000D01*
X107994260Y-102604000D01*
X108060442Y-102610518D01*
X108060442Y-102610518D01*
G37*
G36*
X105520442Y-102610518D02*
G01*
X105586627Y-102617037D01*
X105756466Y-102668557D01*
X105912991Y-102752222D01*
X105948729Y-102781552D01*
X106050186Y-102864814D01*
X106133448Y-102966271D01*
X106162778Y-103002009D01*
X106246443Y-103158534D01*
X106297963Y-103328373D01*
X106315359Y-103505000D01*
X106297963Y-103681627D01*
X106246443Y-103851466D01*
X106162778Y-104007991D01*
X106133448Y-104043729D01*
X106050186Y-104145186D01*
X105948729Y-104228448D01*
X105912991Y-104257778D01*
X105756466Y-104341443D01*
X105586627Y-104392963D01*
X105520442Y-104399482D01*
X105454260Y-104406000D01*
X105365740Y-104406000D01*
X105299558Y-104399482D01*
X105233373Y-104392963D01*
X105063534Y-104341443D01*
X104907009Y-104257778D01*
X104871271Y-104228448D01*
X104769814Y-104145186D01*
X104686552Y-104043729D01*
X104657222Y-104007991D01*
X104573557Y-103851466D01*
X104522037Y-103681627D01*
X104504641Y-103505000D01*
X104522037Y-103328373D01*
X104573557Y-103158534D01*
X104657222Y-103002009D01*
X104686552Y-102966271D01*
X104769814Y-102864814D01*
X104871271Y-102781552D01*
X104907009Y-102752222D01*
X105063534Y-102668557D01*
X105233373Y-102617037D01*
X105299558Y-102610518D01*
X105365740Y-102604000D01*
X105454260Y-102604000D01*
X105520442Y-102610518D01*
X105520442Y-102610518D01*
G37*
G36*
X184949400Y-102221600D02*
G01*
X183147400Y-102221600D01*
X183147400Y-100419600D01*
X184949400Y-100419600D01*
X184949400Y-102221600D01*
X184949400Y-102221600D01*
G37*
G36*
X181618842Y-100426118D02*
G01*
X181685027Y-100432637D01*
X181854866Y-100484157D01*
X182011391Y-100567822D01*
X182047129Y-100597152D01*
X182148586Y-100680414D01*
X182231848Y-100781871D01*
X182261178Y-100817609D01*
X182344843Y-100974134D01*
X182396363Y-101143973D01*
X182413759Y-101320600D01*
X182396363Y-101497227D01*
X182344843Y-101667066D01*
X182261178Y-101823591D01*
X182237073Y-101852963D01*
X182148586Y-101960786D01*
X182047129Y-102044048D01*
X182011391Y-102073378D01*
X181854866Y-102157043D01*
X181685027Y-102208563D01*
X181618843Y-102215081D01*
X181552660Y-102221600D01*
X181464140Y-102221600D01*
X181397957Y-102215081D01*
X181331773Y-102208563D01*
X181161934Y-102157043D01*
X181005409Y-102073378D01*
X180969671Y-102044048D01*
X180868214Y-101960786D01*
X180779727Y-101852963D01*
X180755622Y-101823591D01*
X180671957Y-101667066D01*
X180620437Y-101497227D01*
X180603041Y-101320600D01*
X180620437Y-101143973D01*
X180671957Y-100974134D01*
X180755622Y-100817609D01*
X180784952Y-100781871D01*
X180868214Y-100680414D01*
X180969671Y-100597152D01*
X181005409Y-100567822D01*
X181161934Y-100484157D01*
X181331773Y-100432637D01*
X181397958Y-100426118D01*
X181464140Y-100419600D01*
X181552660Y-100419600D01*
X181618842Y-100426118D01*
X181618842Y-100426118D01*
G37*
G36*
X179078842Y-100426118D02*
G01*
X179145027Y-100432637D01*
X179314866Y-100484157D01*
X179471391Y-100567822D01*
X179507129Y-100597152D01*
X179608586Y-100680414D01*
X179691848Y-100781871D01*
X179721178Y-100817609D01*
X179804843Y-100974134D01*
X179856363Y-101143973D01*
X179873759Y-101320600D01*
X179856363Y-101497227D01*
X179804843Y-101667066D01*
X179721178Y-101823591D01*
X179697073Y-101852963D01*
X179608586Y-101960786D01*
X179507129Y-102044048D01*
X179471391Y-102073378D01*
X179314866Y-102157043D01*
X179145027Y-102208563D01*
X179078843Y-102215081D01*
X179012660Y-102221600D01*
X178924140Y-102221600D01*
X178857957Y-102215081D01*
X178791773Y-102208563D01*
X178621934Y-102157043D01*
X178465409Y-102073378D01*
X178429671Y-102044048D01*
X178328214Y-101960786D01*
X178239727Y-101852963D01*
X178215622Y-101823591D01*
X178131957Y-101667066D01*
X178080437Y-101497227D01*
X178063041Y-101320600D01*
X178080437Y-101143973D01*
X178131957Y-100974134D01*
X178215622Y-100817609D01*
X178244952Y-100781871D01*
X178328214Y-100680414D01*
X178429671Y-100597152D01*
X178465409Y-100567822D01*
X178621934Y-100484157D01*
X178791773Y-100432637D01*
X178857958Y-100426118D01*
X178924140Y-100419600D01*
X179012660Y-100419600D01*
X179078842Y-100426118D01*
X179078842Y-100426118D01*
G37*
G36*
X108060442Y-100070518D02*
G01*
X108126627Y-100077037D01*
X108296466Y-100128557D01*
X108452991Y-100212222D01*
X108488729Y-100241552D01*
X108590186Y-100324814D01*
X108667974Y-100419600D01*
X108702778Y-100462009D01*
X108786443Y-100618534D01*
X108837963Y-100788373D01*
X108855359Y-100965000D01*
X108837963Y-101141627D01*
X108786443Y-101311466D01*
X108702778Y-101467991D01*
X108678786Y-101497225D01*
X108590186Y-101605186D01*
X108514781Y-101667068D01*
X108452991Y-101717778D01*
X108296466Y-101801443D01*
X108126627Y-101852963D01*
X108060443Y-101859481D01*
X107994260Y-101866000D01*
X107905740Y-101866000D01*
X107839558Y-101859482D01*
X107773373Y-101852963D01*
X107603534Y-101801443D01*
X107447009Y-101717778D01*
X107385219Y-101667068D01*
X107309814Y-101605186D01*
X107221214Y-101497225D01*
X107197222Y-101467991D01*
X107113557Y-101311466D01*
X107062037Y-101141627D01*
X107044641Y-100965000D01*
X107062037Y-100788373D01*
X107113557Y-100618534D01*
X107197222Y-100462009D01*
X107232026Y-100419600D01*
X107309814Y-100324814D01*
X107411271Y-100241552D01*
X107447009Y-100212222D01*
X107603534Y-100128557D01*
X107773373Y-100077037D01*
X107839557Y-100070519D01*
X107905740Y-100064000D01*
X107994260Y-100064000D01*
X108060442Y-100070518D01*
X108060442Y-100070518D01*
G37*
G36*
X103771000Y-101866000D02*
G01*
X101969000Y-101866000D01*
X101969000Y-100064000D01*
X103771000Y-100064000D01*
X103771000Y-101866000D01*
X103771000Y-101866000D01*
G37*
G36*
X105520442Y-100070518D02*
G01*
X105586627Y-100077037D01*
X105756466Y-100128557D01*
X105912991Y-100212222D01*
X105948729Y-100241552D01*
X106050186Y-100324814D01*
X106127974Y-100419600D01*
X106162778Y-100462009D01*
X106246443Y-100618534D01*
X106297963Y-100788373D01*
X106315359Y-100965000D01*
X106297963Y-101141627D01*
X106246443Y-101311466D01*
X106162778Y-101467991D01*
X106138786Y-101497225D01*
X106050186Y-101605186D01*
X105974781Y-101667068D01*
X105912991Y-101717778D01*
X105756466Y-101801443D01*
X105586627Y-101852963D01*
X105520443Y-101859481D01*
X105454260Y-101866000D01*
X105365740Y-101866000D01*
X105299558Y-101859482D01*
X105233373Y-101852963D01*
X105063534Y-101801443D01*
X104907009Y-101717778D01*
X104845219Y-101667068D01*
X104769814Y-101605186D01*
X104681214Y-101497225D01*
X104657222Y-101467991D01*
X104573557Y-101311466D01*
X104522037Y-101141627D01*
X104504641Y-100965000D01*
X104522037Y-100788373D01*
X104573557Y-100618534D01*
X104657222Y-100462009D01*
X104692026Y-100419600D01*
X104769814Y-100324814D01*
X104871271Y-100241552D01*
X104907009Y-100212222D01*
X105063534Y-100128557D01*
X105233373Y-100077037D01*
X105299557Y-100070519D01*
X105365740Y-100064000D01*
X105454260Y-100064000D01*
X105520442Y-100070518D01*
X105520442Y-100070518D01*
G37*
G36*
X184961000Y-99681600D02*
G01*
X183159000Y-99681600D01*
X183159000Y-97879600D01*
X184961000Y-97879600D01*
X184961000Y-99681600D01*
X184961000Y-99681600D01*
G37*
G36*
X181630443Y-97886119D02*
G01*
X181696627Y-97892637D01*
X181866466Y-97944157D01*
X182022991Y-98027822D01*
X182058729Y-98057152D01*
X182160186Y-98140414D01*
X182243448Y-98241871D01*
X182272778Y-98277609D01*
X182356443Y-98434134D01*
X182407963Y-98603973D01*
X182425359Y-98780600D01*
X182407963Y-98957227D01*
X182356443Y-99127066D01*
X182272778Y-99283591D01*
X182243448Y-99319329D01*
X182160186Y-99420786D01*
X182058729Y-99504048D01*
X182022991Y-99533378D01*
X181866466Y-99617043D01*
X181696627Y-99668563D01*
X181630443Y-99675081D01*
X181564260Y-99681600D01*
X181475740Y-99681600D01*
X181409557Y-99675081D01*
X181343373Y-99668563D01*
X181173534Y-99617043D01*
X181017009Y-99533378D01*
X180981271Y-99504048D01*
X180879814Y-99420786D01*
X180796552Y-99319329D01*
X180767222Y-99283591D01*
X180683557Y-99127066D01*
X180632037Y-98957227D01*
X180614641Y-98780600D01*
X180632037Y-98603973D01*
X180683557Y-98434134D01*
X180767222Y-98277609D01*
X180796552Y-98241871D01*
X180879814Y-98140414D01*
X180981271Y-98057152D01*
X181017009Y-98027822D01*
X181173534Y-97944157D01*
X181343373Y-97892637D01*
X181409557Y-97886119D01*
X181475740Y-97879600D01*
X181564260Y-97879600D01*
X181630443Y-97886119D01*
X181630443Y-97886119D01*
G37*
G36*
X179090443Y-97886119D02*
G01*
X179156627Y-97892637D01*
X179326466Y-97944157D01*
X179482991Y-98027822D01*
X179518729Y-98057152D01*
X179620186Y-98140414D01*
X179703448Y-98241871D01*
X179732778Y-98277609D01*
X179816443Y-98434134D01*
X179867963Y-98603973D01*
X179885359Y-98780600D01*
X179867963Y-98957227D01*
X179816443Y-99127066D01*
X179732778Y-99283591D01*
X179703448Y-99319329D01*
X179620186Y-99420786D01*
X179518729Y-99504048D01*
X179482991Y-99533378D01*
X179326466Y-99617043D01*
X179156627Y-99668563D01*
X179090443Y-99675081D01*
X179024260Y-99681600D01*
X178935740Y-99681600D01*
X178869557Y-99675081D01*
X178803373Y-99668563D01*
X178633534Y-99617043D01*
X178477009Y-99533378D01*
X178441271Y-99504048D01*
X178339814Y-99420786D01*
X178256552Y-99319329D01*
X178227222Y-99283591D01*
X178143557Y-99127066D01*
X178092037Y-98957227D01*
X178074641Y-98780600D01*
X178092037Y-98603973D01*
X178143557Y-98434134D01*
X178227222Y-98277609D01*
X178256552Y-98241871D01*
X178339814Y-98140414D01*
X178441271Y-98057152D01*
X178477009Y-98027822D01*
X178633534Y-97944157D01*
X178803373Y-97892637D01*
X178869557Y-97886119D01*
X178935740Y-97879600D01*
X179024260Y-97879600D01*
X179090443Y-97886119D01*
X179090443Y-97886119D01*
G37*
G36*
X179090443Y-95340519D02*
G01*
X179156627Y-95347037D01*
X179326466Y-95398557D01*
X179482991Y-95482222D01*
X179507684Y-95502487D01*
X179620186Y-95594814D01*
X179703448Y-95696271D01*
X179732778Y-95732009D01*
X179816443Y-95888534D01*
X179867963Y-96058373D01*
X179885359Y-96235000D01*
X179867963Y-96411627D01*
X179816443Y-96581466D01*
X179732778Y-96737991D01*
X179703448Y-96773729D01*
X179620186Y-96875186D01*
X179518729Y-96958448D01*
X179482991Y-96987778D01*
X179326466Y-97071443D01*
X179156627Y-97122963D01*
X179090443Y-97129481D01*
X179024260Y-97136000D01*
X178935740Y-97136000D01*
X178869557Y-97129481D01*
X178803373Y-97122963D01*
X178633534Y-97071443D01*
X178477009Y-96987778D01*
X178441271Y-96958448D01*
X178339814Y-96875186D01*
X178256552Y-96773729D01*
X178227222Y-96737991D01*
X178143557Y-96581466D01*
X178092037Y-96411627D01*
X178074641Y-96235000D01*
X178092037Y-96058373D01*
X178143557Y-95888534D01*
X178227222Y-95732009D01*
X178256552Y-95696271D01*
X178339814Y-95594814D01*
X178452316Y-95502487D01*
X178477009Y-95482222D01*
X178633534Y-95398557D01*
X178803373Y-95347037D01*
X178869557Y-95340519D01*
X178935740Y-95334000D01*
X179024260Y-95334000D01*
X179090443Y-95340519D01*
X179090443Y-95340519D01*
G37*
G36*
X181630443Y-95340519D02*
G01*
X181696627Y-95347037D01*
X181866466Y-95398557D01*
X182022991Y-95482222D01*
X182047684Y-95502487D01*
X182160186Y-95594814D01*
X182243448Y-95696271D01*
X182272778Y-95732009D01*
X182356443Y-95888534D01*
X182407963Y-96058373D01*
X182425359Y-96235000D01*
X182407963Y-96411627D01*
X182356443Y-96581466D01*
X182272778Y-96737991D01*
X182243448Y-96773729D01*
X182160186Y-96875186D01*
X182058729Y-96958448D01*
X182022991Y-96987778D01*
X181866466Y-97071443D01*
X181696627Y-97122963D01*
X181630443Y-97129481D01*
X181564260Y-97136000D01*
X181475740Y-97136000D01*
X181409557Y-97129481D01*
X181343373Y-97122963D01*
X181173534Y-97071443D01*
X181017009Y-96987778D01*
X180981271Y-96958448D01*
X180879814Y-96875186D01*
X180796552Y-96773729D01*
X180767222Y-96737991D01*
X180683557Y-96581466D01*
X180632037Y-96411627D01*
X180614641Y-96235000D01*
X180632037Y-96058373D01*
X180683557Y-95888534D01*
X180767222Y-95732009D01*
X180796552Y-95696271D01*
X180879814Y-95594814D01*
X180992316Y-95502487D01*
X181017009Y-95482222D01*
X181173534Y-95398557D01*
X181343373Y-95347037D01*
X181409557Y-95340519D01*
X181475740Y-95334000D01*
X181564260Y-95334000D01*
X181630443Y-95340519D01*
X181630443Y-95340519D01*
G37*
G36*
X184961000Y-97136000D02*
G01*
X183159000Y-97136000D01*
X183159000Y-95334000D01*
X184961000Y-95334000D01*
X184961000Y-97136000D01*
X184961000Y-97136000D01*
G37*
G36*
X116965487Y-93871996D02*
G01*
X117202253Y-93970068D01*
X117202255Y-93970069D01*
X117415339Y-94112447D01*
X117596553Y-94293661D01*
X117699531Y-94447778D01*
X117738932Y-94506747D01*
X117837004Y-94743513D01*
X117887000Y-94994861D01*
X117887000Y-95251139D01*
X117837004Y-95502487D01*
X117741932Y-95732011D01*
X117738931Y-95739255D01*
X117596553Y-95952339D01*
X117415339Y-96133553D01*
X117202255Y-96275931D01*
X117202254Y-96275932D01*
X117202253Y-96275932D01*
X116965487Y-96374004D01*
X116714139Y-96424000D01*
X116457861Y-96424000D01*
X116206513Y-96374004D01*
X115969747Y-96275932D01*
X115969746Y-96275932D01*
X115969745Y-96275931D01*
X115756661Y-96133553D01*
X115575447Y-95952339D01*
X115433069Y-95739255D01*
X115430068Y-95732011D01*
X115334996Y-95502487D01*
X115285000Y-95251139D01*
X115285000Y-94994861D01*
X115334996Y-94743513D01*
X115433068Y-94506747D01*
X115472470Y-94447778D01*
X115575447Y-94293661D01*
X115756661Y-94112447D01*
X115969745Y-93970069D01*
X115969747Y-93970068D01*
X116206513Y-93871996D01*
X116457861Y-93822000D01*
X116714139Y-93822000D01*
X116965487Y-93871996D01*
X116965487Y-93871996D01*
G37*
G36*
X181630442Y-92800518D02*
G01*
X181696627Y-92807037D01*
X181866466Y-92858557D01*
X182022991Y-92942222D01*
X182058057Y-92971000D01*
X182160186Y-93054814D01*
X182230326Y-93140281D01*
X182272778Y-93192009D01*
X182356443Y-93348534D01*
X182407963Y-93518373D01*
X182425359Y-93695000D01*
X182407963Y-93871627D01*
X182356443Y-94041466D01*
X182272778Y-94197991D01*
X182243448Y-94233729D01*
X182160186Y-94335186D01*
X182058729Y-94418448D01*
X182022991Y-94447778D01*
X181866466Y-94531443D01*
X181696627Y-94582963D01*
X181630443Y-94589481D01*
X181564260Y-94596000D01*
X181475740Y-94596000D01*
X181409557Y-94589481D01*
X181343373Y-94582963D01*
X181173534Y-94531443D01*
X181017009Y-94447778D01*
X180981271Y-94418448D01*
X180879814Y-94335186D01*
X180796552Y-94233729D01*
X180767222Y-94197991D01*
X180683557Y-94041466D01*
X180632037Y-93871627D01*
X180614641Y-93695000D01*
X180632037Y-93518373D01*
X180683557Y-93348534D01*
X180767222Y-93192009D01*
X180809674Y-93140281D01*
X180879814Y-93054814D01*
X180981943Y-92971000D01*
X181017009Y-92942222D01*
X181173534Y-92858557D01*
X181343373Y-92807037D01*
X181409558Y-92800518D01*
X181475740Y-92794000D01*
X181564260Y-92794000D01*
X181630442Y-92800518D01*
X181630442Y-92800518D01*
G37*
G36*
X179090442Y-92800518D02*
G01*
X179156627Y-92807037D01*
X179326466Y-92858557D01*
X179482991Y-92942222D01*
X179518057Y-92971000D01*
X179620186Y-93054814D01*
X179690326Y-93140281D01*
X179732778Y-93192009D01*
X179816443Y-93348534D01*
X179867963Y-93518373D01*
X179885359Y-93695000D01*
X179867963Y-93871627D01*
X179816443Y-94041466D01*
X179732778Y-94197991D01*
X179703448Y-94233729D01*
X179620186Y-94335186D01*
X179518729Y-94418448D01*
X179482991Y-94447778D01*
X179326466Y-94531443D01*
X179156627Y-94582963D01*
X179090443Y-94589481D01*
X179024260Y-94596000D01*
X178935740Y-94596000D01*
X178869557Y-94589481D01*
X178803373Y-94582963D01*
X178633534Y-94531443D01*
X178477009Y-94447778D01*
X178441271Y-94418448D01*
X178339814Y-94335186D01*
X178256552Y-94233729D01*
X178227222Y-94197991D01*
X178143557Y-94041466D01*
X178092037Y-93871627D01*
X178074641Y-93695000D01*
X178092037Y-93518373D01*
X178143557Y-93348534D01*
X178227222Y-93192009D01*
X178269674Y-93140281D01*
X178339814Y-93054814D01*
X178441943Y-92971000D01*
X178477009Y-92942222D01*
X178633534Y-92858557D01*
X178803373Y-92807037D01*
X178869558Y-92800518D01*
X178935740Y-92794000D01*
X179024260Y-92794000D01*
X179090442Y-92800518D01*
X179090442Y-92800518D01*
G37*
G36*
X184961000Y-94596000D02*
G01*
X183159000Y-94596000D01*
X183159000Y-92794000D01*
X184961000Y-92794000D01*
X184961000Y-94596000D01*
X184961000Y-94596000D01*
G37*
G36*
X151392974Y-89477978D02*
G01*
X151693208Y-89602339D01*
X151766233Y-89632587D01*
X152102156Y-89857044D01*
X152387836Y-90142724D01*
X152588472Y-90442996D01*
X152612294Y-90478649D01*
X152766902Y-90851906D01*
X152845720Y-91248153D01*
X152845720Y-91652167D01*
X152766902Y-92048414D01*
X152658445Y-92310253D01*
X152612293Y-92421673D01*
X152387836Y-92757596D01*
X152102156Y-93043276D01*
X151766233Y-93267733D01*
X151766232Y-93267734D01*
X151766231Y-93267734D01*
X151392974Y-93422342D01*
X150996727Y-93501160D01*
X150592713Y-93501160D01*
X150196466Y-93422342D01*
X149823209Y-93267734D01*
X149823208Y-93267734D01*
X149823207Y-93267733D01*
X149487284Y-93043276D01*
X149201604Y-92757596D01*
X148977147Y-92421673D01*
X148930995Y-92310253D01*
X148822538Y-92048414D01*
X148743720Y-91652167D01*
X148743720Y-91248153D01*
X148822538Y-90851906D01*
X148977146Y-90478649D01*
X149000969Y-90442996D01*
X149201604Y-90142724D01*
X149487284Y-89857044D01*
X149823207Y-89632587D01*
X149896232Y-89602339D01*
X150196466Y-89477978D01*
X150592713Y-89399160D01*
X150996727Y-89399160D01*
X151392974Y-89477978D01*
X151392974Y-89477978D01*
G37*
G36*
X147845720Y-93501160D02*
G01*
X143743720Y-93501160D01*
X143743720Y-89399160D01*
X147845720Y-89399160D01*
X147845720Y-93501160D01*
X147845720Y-93501160D01*
G37*
G36*
X160923690Y-87762447D02*
G01*
X161362437Y-87849719D01*
X161863087Y-88057095D01*
X162012223Y-88156745D01*
X162313660Y-88358158D01*
X162696842Y-88741340D01*
X162877316Y-89011439D01*
X162997905Y-89191913D01*
X163180438Y-89632587D01*
X163205281Y-89692564D01*
X163311000Y-90224049D01*
X163311000Y-90765951D01*
X163275186Y-90946000D01*
X163205281Y-91297437D01*
X162997905Y-91798087D01*
X162941521Y-91882471D01*
X162696842Y-92248660D01*
X162313660Y-92631842D01*
X162125455Y-92757596D01*
X161863087Y-92932905D01*
X161362437Y-93140281D01*
X161102382Y-93192009D01*
X160830951Y-93246000D01*
X160289049Y-93246000D01*
X160017618Y-93192009D01*
X159757563Y-93140281D01*
X159256913Y-92932905D01*
X158994545Y-92757596D01*
X158806340Y-92631842D01*
X158423158Y-92248660D01*
X158178479Y-91882471D01*
X158122095Y-91798087D01*
X157914719Y-91297437D01*
X157844814Y-90946000D01*
X157809000Y-90765951D01*
X157809000Y-90224049D01*
X157914719Y-89692564D01*
X157939562Y-89632587D01*
X158122095Y-89191913D01*
X158242684Y-89011439D01*
X158423158Y-88741340D01*
X158806340Y-88358158D01*
X159107777Y-88156745D01*
X159256913Y-88057095D01*
X159757563Y-87849719D01*
X160196310Y-87762447D01*
X160289049Y-87744000D01*
X160830951Y-87744000D01*
X160923690Y-87762447D01*
X160923690Y-87762447D01*
G37*
G36*
X102923690Y-87762447D02*
G01*
X103362437Y-87849719D01*
X103863087Y-88057095D01*
X104012223Y-88156745D01*
X104313660Y-88358158D01*
X104696842Y-88741340D01*
X104877316Y-89011439D01*
X104997905Y-89191913D01*
X105180438Y-89632587D01*
X105205281Y-89692564D01*
X105311000Y-90224049D01*
X105311000Y-90765951D01*
X105275186Y-90946000D01*
X105205281Y-91297437D01*
X104997905Y-91798087D01*
X104941521Y-91882471D01*
X104696842Y-92248660D01*
X104313660Y-92631842D01*
X104125455Y-92757596D01*
X103863087Y-92932905D01*
X103362437Y-93140281D01*
X103102382Y-93192009D01*
X102830951Y-93246000D01*
X102289049Y-93246000D01*
X102017618Y-93192009D01*
X101757563Y-93140281D01*
X101256913Y-92932905D01*
X100994545Y-92757596D01*
X100806340Y-92631842D01*
X100423158Y-92248660D01*
X100178479Y-91882471D01*
X100122095Y-91798087D01*
X99914719Y-91297437D01*
X99844814Y-90946000D01*
X99809000Y-90765951D01*
X99809000Y-90224049D01*
X99914719Y-89692564D01*
X99939562Y-89632587D01*
X100122095Y-89191913D01*
X100242684Y-89011439D01*
X100423158Y-88741340D01*
X100806340Y-88358158D01*
X101107777Y-88156745D01*
X101256913Y-88057095D01*
X101757563Y-87849719D01*
X102196310Y-87762447D01*
X102289049Y-87744000D01*
X102830951Y-87744000D01*
X102923690Y-87762447D01*
X102923690Y-87762447D01*
G37*
G36*
X140358887Y-90442996D02*
G01*
X140591674Y-90539420D01*
X140595655Y-90541069D01*
X140808739Y-90683447D01*
X140989953Y-90864661D01*
X141132332Y-91077747D01*
X141230404Y-91314513D01*
X141280400Y-91565861D01*
X141280400Y-91822139D01*
X141230404Y-92073487D01*
X141146021Y-92277205D01*
X141132331Y-92310255D01*
X140989953Y-92523339D01*
X140808739Y-92704553D01*
X140595655Y-92846931D01*
X140595654Y-92846932D01*
X140595653Y-92846932D01*
X140358887Y-92945004D01*
X140107539Y-92995000D01*
X139851261Y-92995000D01*
X139599913Y-92945004D01*
X139363147Y-92846932D01*
X139363146Y-92846932D01*
X139363145Y-92846931D01*
X139150061Y-92704553D01*
X138968847Y-92523339D01*
X138826469Y-92310255D01*
X138812779Y-92277205D01*
X138728396Y-92073487D01*
X138678400Y-91822139D01*
X138678400Y-91565861D01*
X138728396Y-91314513D01*
X138826468Y-91077747D01*
X138968847Y-90864661D01*
X139150061Y-90683447D01*
X139363145Y-90541069D01*
X139367126Y-90539420D01*
X139599913Y-90442996D01*
X139851261Y-90393000D01*
X140107539Y-90393000D01*
X140358887Y-90442996D01*
X140358887Y-90442996D01*
G37*
G36*
X156462487Y-87521996D02*
G01*
X156699253Y-87620068D01*
X156699255Y-87620069D01*
X156884731Y-87744000D01*
X156912339Y-87762447D01*
X157093553Y-87943661D01*
X157235932Y-88156747D01*
X157334004Y-88393513D01*
X157384000Y-88644861D01*
X157384000Y-88901139D01*
X157334004Y-89152487D01*
X157235932Y-89389253D01*
X157235931Y-89389255D01*
X157093553Y-89602339D01*
X156912339Y-89783553D01*
X156699255Y-89925931D01*
X156699254Y-89925932D01*
X156699253Y-89925932D01*
X156462487Y-90024004D01*
X156211139Y-90074000D01*
X155954861Y-90074000D01*
X155703513Y-90024004D01*
X155466747Y-89925932D01*
X155466746Y-89925932D01*
X155466745Y-89925931D01*
X155253661Y-89783553D01*
X155072447Y-89602339D01*
X154930069Y-89389255D01*
X154930068Y-89389253D01*
X154831996Y-89152487D01*
X154782000Y-88901139D01*
X154782000Y-88644861D01*
X154831996Y-88393513D01*
X154930068Y-88156747D01*
X155072447Y-87943661D01*
X155253661Y-87762447D01*
X155281269Y-87744000D01*
X155466745Y-87620069D01*
X155466747Y-87620068D01*
X155703513Y-87521996D01*
X155954861Y-87472000D01*
X156211139Y-87472000D01*
X156462487Y-87521996D01*
X156462487Y-87521996D01*
G37*
G36*
X114278433Y-78234893D02*
G01*
X114368657Y-78252839D01*
X114474267Y-78296585D01*
X114623621Y-78358449D01*
X114623622Y-78358450D01*
X114853086Y-78511772D01*
X115048228Y-78706914D01*
X115150675Y-78860237D01*
X115201551Y-78936379D01*
X115307161Y-79191344D01*
X115361000Y-79462012D01*
X115361000Y-79737988D01*
X115307161Y-80008656D01*
X115201551Y-80263621D01*
X115201550Y-80263622D01*
X115048228Y-80493086D01*
X114853086Y-80688228D01*
X114756141Y-80753004D01*
X114623621Y-80841551D01*
X114474267Y-80903415D01*
X114368657Y-80947161D01*
X114278433Y-80965107D01*
X114097988Y-81001000D01*
X113822012Y-81001000D01*
X113641567Y-80965107D01*
X113551343Y-80947161D01*
X113445733Y-80903415D01*
X113296379Y-80841551D01*
X113163859Y-80753004D01*
X113066914Y-80688228D01*
X112871772Y-80493086D01*
X112718450Y-80263622D01*
X112718449Y-80263621D01*
X112612839Y-80008656D01*
X112559000Y-79737988D01*
X112559000Y-79462012D01*
X112612839Y-79191344D01*
X112718449Y-78936379D01*
X112769325Y-78860237D01*
X112871772Y-78706914D01*
X113066914Y-78511772D01*
X113296378Y-78358450D01*
X113296379Y-78358449D01*
X113445733Y-78296585D01*
X113551343Y-78252839D01*
X113641567Y-78234893D01*
X113822012Y-78199000D01*
X114097988Y-78199000D01*
X114278433Y-78234893D01*
X114278433Y-78234893D01*
G37*
G36*
X173278433Y-78234893D02*
G01*
X173368657Y-78252839D01*
X173474267Y-78296585D01*
X173623621Y-78358449D01*
X173623622Y-78358450D01*
X173853086Y-78511772D01*
X174048228Y-78706914D01*
X174150675Y-78860237D01*
X174201551Y-78936379D01*
X174307161Y-79191344D01*
X174361000Y-79462012D01*
X174361000Y-79737988D01*
X174307161Y-80008656D01*
X174201551Y-80263621D01*
X174201550Y-80263622D01*
X174048228Y-80493086D01*
X173853086Y-80688228D01*
X173756141Y-80753004D01*
X173623621Y-80841551D01*
X173474267Y-80903415D01*
X173368657Y-80947161D01*
X173278433Y-80965107D01*
X173097988Y-81001000D01*
X172822012Y-81001000D01*
X172641567Y-80965107D01*
X172551343Y-80947161D01*
X172445733Y-80903415D01*
X172296379Y-80841551D01*
X172163859Y-80753004D01*
X172066914Y-80688228D01*
X171871772Y-80493086D01*
X171718450Y-80263622D01*
X171718449Y-80263621D01*
X171612839Y-80008656D01*
X171559000Y-79737988D01*
X171559000Y-79462012D01*
X171612839Y-79191344D01*
X171718449Y-78936379D01*
X171769325Y-78860237D01*
X171871772Y-78706914D01*
X172066914Y-78511772D01*
X172296378Y-78358450D01*
X172296379Y-78358449D01*
X172445733Y-78296585D01*
X172551343Y-78252839D01*
X172641567Y-78234893D01*
X172822012Y-78199000D01*
X173097988Y-78199000D01*
X173278433Y-78234893D01*
X173278433Y-78234893D01*
G37*
G36*
X133729487Y-78250996D02*
G01*
X133966253Y-78349068D01*
X133966255Y-78349069D01*
X134179339Y-78491447D01*
X134360553Y-78672661D01*
X134502932Y-78885747D01*
X134601004Y-79122513D01*
X134651000Y-79373861D01*
X134651000Y-79630139D01*
X134601004Y-79881487D01*
X134548328Y-80008657D01*
X134502931Y-80118255D01*
X134360553Y-80331339D01*
X134179339Y-80512553D01*
X133966255Y-80654931D01*
X133966254Y-80654932D01*
X133966253Y-80654932D01*
X133729487Y-80753004D01*
X133478139Y-80803000D01*
X133221861Y-80803000D01*
X132970513Y-80753004D01*
X132733747Y-80654932D01*
X132733746Y-80654932D01*
X132733745Y-80654931D01*
X132520661Y-80512553D01*
X132339447Y-80331339D01*
X132197069Y-80118255D01*
X132151672Y-80008657D01*
X132098996Y-79881487D01*
X132049000Y-79630139D01*
X132049000Y-79373861D01*
X132098996Y-79122513D01*
X132197068Y-78885747D01*
X132339447Y-78672661D01*
X132520661Y-78491447D01*
X132733745Y-78349069D01*
X132733747Y-78349068D01*
X132970513Y-78250996D01*
X133221861Y-78201000D01*
X133478139Y-78201000D01*
X133729487Y-78250996D01*
X133729487Y-78250996D01*
G37*
G36*
X116457487Y-71900996D02*
G01*
X116694253Y-71999068D01*
X116694255Y-71999069D01*
X116907339Y-72141447D01*
X117088553Y-72322661D01*
X117230932Y-72535747D01*
X117329004Y-72772513D01*
X117379000Y-73023861D01*
X117379000Y-73280139D01*
X117329004Y-73531487D01*
X117230932Y-73768253D01*
X117230931Y-73768255D01*
X117088553Y-73981339D01*
X116907339Y-74162553D01*
X116694255Y-74304931D01*
X116694254Y-74304932D01*
X116694253Y-74304932D01*
X116457487Y-74403004D01*
X116206139Y-74453000D01*
X115949861Y-74453000D01*
X115698513Y-74403004D01*
X115461747Y-74304932D01*
X115461746Y-74304932D01*
X115461745Y-74304931D01*
X115248661Y-74162553D01*
X115067447Y-73981339D01*
X114925069Y-73768255D01*
X114925068Y-73768253D01*
X114826996Y-73531487D01*
X114777000Y-73280139D01*
X114777000Y-73023861D01*
X114826996Y-72772513D01*
X114925068Y-72535747D01*
X115067447Y-72322661D01*
X115248661Y-72141447D01*
X115461745Y-71999069D01*
X115461747Y-71999068D01*
X115698513Y-71900996D01*
X115949861Y-71851000D01*
X116206139Y-71851000D01*
X116457487Y-71900996D01*
X116457487Y-71900996D01*
G37*
G36*
X159383487Y-67582996D02*
G01*
X159620253Y-67681068D01*
X159620255Y-67681069D01*
X159833339Y-67823447D01*
X160014553Y-68004661D01*
X160156932Y-68217747D01*
X160255004Y-68454513D01*
X160305000Y-68705861D01*
X160305000Y-68962139D01*
X160255004Y-69213487D01*
X160156932Y-69450253D01*
X160156931Y-69450255D01*
X160014553Y-69663339D01*
X159833339Y-69844553D01*
X159620255Y-69986931D01*
X159620254Y-69986932D01*
X159620253Y-69986932D01*
X159383487Y-70085004D01*
X159132139Y-70135000D01*
X158875861Y-70135000D01*
X158624513Y-70085004D01*
X158387747Y-69986932D01*
X158387746Y-69986932D01*
X158387745Y-69986931D01*
X158174661Y-69844553D01*
X157993447Y-69663339D01*
X157851069Y-69450255D01*
X157851068Y-69450253D01*
X157752996Y-69213487D01*
X157703000Y-68962139D01*
X157703000Y-68705861D01*
X157752996Y-68454513D01*
X157851068Y-68217747D01*
X157993447Y-68004661D01*
X158174661Y-67823447D01*
X158387745Y-67681069D01*
X158387747Y-67681068D01*
X158624513Y-67582996D01*
X158875861Y-67533000D01*
X159132139Y-67533000D01*
X159383487Y-67582996D01*
X159383487Y-67582996D01*
G37*
G36*
X142289287Y-64458796D02*
G01*
X142526053Y-64556868D01*
X142526055Y-64556869D01*
X142739139Y-64699247D01*
X142920353Y-64880461D01*
X143046103Y-65068659D01*
X143062732Y-65093547D01*
X143160804Y-65330313D01*
X143210800Y-65581661D01*
X143210800Y-65837939D01*
X143160804Y-66089287D01*
X143128106Y-66168226D01*
X143062731Y-66326055D01*
X142920353Y-66539139D01*
X142739139Y-66720353D01*
X142526055Y-66862731D01*
X142526054Y-66862732D01*
X142526053Y-66862732D01*
X142289287Y-66960804D01*
X142037939Y-67010800D01*
X141781661Y-67010800D01*
X141530313Y-66960804D01*
X141293547Y-66862732D01*
X141293546Y-66862732D01*
X141293545Y-66862731D01*
X141080461Y-66720353D01*
X140899247Y-66539139D01*
X140756869Y-66326055D01*
X140691494Y-66168226D01*
X140658796Y-66089287D01*
X140608800Y-65837939D01*
X140608800Y-65581661D01*
X140658796Y-65330313D01*
X140756868Y-65093547D01*
X140773498Y-65068659D01*
X140899247Y-64880461D01*
X141080461Y-64699247D01*
X141293545Y-64556869D01*
X141293547Y-64556868D01*
X141530313Y-64458796D01*
X141781661Y-64408800D01*
X142037939Y-64408800D01*
X142289287Y-64458796D01*
X142289287Y-64458796D01*
G37*
G36*
X118829855Y-65156940D02*
G01*
X118893618Y-65163220D01*
X118984404Y-65190760D01*
X119016336Y-65200446D01*
X119129425Y-65260894D01*
X119228554Y-65342246D01*
X119309906Y-65441375D01*
X119370354Y-65554464D01*
X119370355Y-65554468D01*
X119407580Y-65677182D01*
X119420149Y-65804800D01*
X119407580Y-65932418D01*
X119380040Y-66023204D01*
X119370354Y-66055136D01*
X119309906Y-66168225D01*
X119228554Y-66267354D01*
X119129425Y-66348706D01*
X119016336Y-66409154D01*
X118984404Y-66418840D01*
X118893618Y-66446380D01*
X118829855Y-66452660D01*
X118797974Y-66455800D01*
X118184026Y-66455800D01*
X118152145Y-66452660D01*
X118088382Y-66446380D01*
X117997596Y-66418840D01*
X117965664Y-66409154D01*
X117852575Y-66348706D01*
X117753446Y-66267354D01*
X117672094Y-66168225D01*
X117611646Y-66055136D01*
X117601960Y-66023204D01*
X117574420Y-65932418D01*
X117561851Y-65804800D01*
X117574420Y-65677182D01*
X117611645Y-65554468D01*
X117611646Y-65554464D01*
X117672094Y-65441375D01*
X117753446Y-65342246D01*
X117852575Y-65260894D01*
X117965664Y-65200446D01*
X117997596Y-65190760D01*
X118088382Y-65163220D01*
X118152145Y-65156940D01*
X118184026Y-65153800D01*
X118797974Y-65153800D01*
X118829855Y-65156940D01*
X118829855Y-65156940D01*
G37*
G36*
X132434087Y-63645996D02*
G01*
X132670853Y-63744068D01*
X132670855Y-63744069D01*
X132883939Y-63886447D01*
X133065153Y-64067661D01*
X133207532Y-64280747D01*
X133305604Y-64517513D01*
X133355600Y-64768861D01*
X133355600Y-65025139D01*
X133305604Y-65276487D01*
X133278365Y-65342247D01*
X133207531Y-65513255D01*
X133065153Y-65726339D01*
X132883939Y-65907553D01*
X132670855Y-66049931D01*
X132670854Y-66049932D01*
X132670853Y-66049932D01*
X132434087Y-66148004D01*
X132182739Y-66198000D01*
X131926461Y-66198000D01*
X131675113Y-66148004D01*
X131438347Y-66049932D01*
X131438346Y-66049932D01*
X131438345Y-66049931D01*
X131225261Y-65907553D01*
X131044047Y-65726339D01*
X130901669Y-65513255D01*
X130830835Y-65342247D01*
X130803596Y-65276487D01*
X130753600Y-65025139D01*
X130753600Y-64768861D01*
X130803596Y-64517513D01*
X130901668Y-64280747D01*
X131044047Y-64067661D01*
X131225261Y-63886447D01*
X131438345Y-63744069D01*
X131438347Y-63744068D01*
X131675113Y-63645996D01*
X131926461Y-63596000D01*
X132182739Y-63596000D01*
X132434087Y-63645996D01*
X132434087Y-63645996D01*
G37*
G36*
X177977800Y-65074800D02*
G01*
X169849800Y-65074800D01*
X169849800Y-58445400D01*
X177977800Y-58445400D01*
X177977800Y-65074800D01*
X177977800Y-65074800D01*
G37*
G36*
X119257242Y-63158204D02*
G01*
X119294337Y-63169457D01*
X119328515Y-63187725D01*
X119358481Y-63212319D01*
X119383075Y-63242285D01*
X119401343Y-63276463D01*
X119412596Y-63313558D01*
X119417000Y-63358274D01*
X119417000Y-64251326D01*
X119412596Y-64296042D01*
X119401343Y-64333137D01*
X119383075Y-64367315D01*
X119358481Y-64397281D01*
X119328515Y-64421875D01*
X119294337Y-64440143D01*
X119257242Y-64451396D01*
X119212526Y-64455800D01*
X117769474Y-64455800D01*
X117724758Y-64451396D01*
X117687663Y-64440143D01*
X117653485Y-64421875D01*
X117623519Y-64397281D01*
X117598925Y-64367315D01*
X117580657Y-64333137D01*
X117569404Y-64296042D01*
X117565000Y-64251326D01*
X117565000Y-63358274D01*
X117569404Y-63313558D01*
X117580657Y-63276463D01*
X117598925Y-63242285D01*
X117623519Y-63212319D01*
X117653485Y-63187725D01*
X117687663Y-63169457D01*
X117724758Y-63158204D01*
X117769474Y-63153800D01*
X119212526Y-63153800D01*
X119257242Y-63158204D01*
X119257242Y-63158204D01*
G37*
G36*
X152677887Y-56533996D02*
G01*
X152914653Y-56632068D01*
X152914655Y-56632069D01*
X153127739Y-56774447D01*
X153308953Y-56955661D01*
X153417388Y-57117945D01*
X153451332Y-57168747D01*
X153549404Y-57405513D01*
X153599400Y-57656861D01*
X153599400Y-57913139D01*
X153549404Y-58164487D01*
X153472374Y-58350453D01*
X153451331Y-58401255D01*
X153308953Y-58614339D01*
X153127739Y-58795553D01*
X152914655Y-58937931D01*
X152914654Y-58937932D01*
X152914653Y-58937932D01*
X152677887Y-59036004D01*
X152426539Y-59086000D01*
X152170261Y-59086000D01*
X151918913Y-59036004D01*
X151682147Y-58937932D01*
X151682146Y-58937932D01*
X151682145Y-58937931D01*
X151469061Y-58795553D01*
X151287847Y-58614339D01*
X151145469Y-58401255D01*
X151124426Y-58350453D01*
X151047396Y-58164487D01*
X150997400Y-57913139D01*
X150997400Y-57656861D01*
X151047396Y-57405513D01*
X151145468Y-57168747D01*
X151179413Y-57117945D01*
X151287847Y-56955661D01*
X151469061Y-56774447D01*
X151682145Y-56632069D01*
X151682147Y-56632068D01*
X151918913Y-56533996D01*
X152170261Y-56484000D01*
X152426539Y-56484000D01*
X152677887Y-56533996D01*
X152677887Y-56533996D01*
G37*
G36*
X156310087Y-56483196D02*
G01*
X156546853Y-56581268D01*
X156546855Y-56581269D01*
X156759939Y-56723647D01*
X156941153Y-56904861D01*
X157083532Y-57117947D01*
X157181604Y-57354713D01*
X157231600Y-57606061D01*
X157231600Y-57862339D01*
X157181604Y-58113687D01*
X157160561Y-58164488D01*
X157083531Y-58350455D01*
X156941153Y-58563539D01*
X156759939Y-58744753D01*
X156546855Y-58887131D01*
X156546854Y-58887132D01*
X156546853Y-58887132D01*
X156310087Y-58985204D01*
X156058739Y-59035200D01*
X155802461Y-59035200D01*
X155551113Y-58985204D01*
X155314347Y-58887132D01*
X155314346Y-58887132D01*
X155314345Y-58887131D01*
X155101261Y-58744753D01*
X154920047Y-58563539D01*
X154777669Y-58350455D01*
X154700639Y-58164488D01*
X154679596Y-58113687D01*
X154629600Y-57862339D01*
X154629600Y-57606061D01*
X154679596Y-57354713D01*
X154777668Y-57117947D01*
X154920047Y-56904861D01*
X155101261Y-56723647D01*
X155314345Y-56581269D01*
X155314347Y-56581268D01*
X155551113Y-56483196D01*
X155802461Y-56433200D01*
X156058739Y-56433200D01*
X156310087Y-56483196D01*
X156310087Y-56483196D01*
G37*
G36*
X133914890Y-51874017D02*
G01*
X134033364Y-51923091D01*
X134139988Y-51994335D01*
X134230665Y-52085012D01*
X134301909Y-52191636D01*
X134350983Y-52310110D01*
X134376000Y-52435882D01*
X134376000Y-52564118D01*
X134350983Y-52689890D01*
X134301909Y-52808364D01*
X134230665Y-52914988D01*
X134139988Y-53005665D01*
X134033364Y-53076909D01*
X134033363Y-53076910D01*
X134033362Y-53076910D01*
X133914890Y-53125983D01*
X133789119Y-53151000D01*
X133660881Y-53151000D01*
X133535110Y-53125983D01*
X133416638Y-53076910D01*
X133416637Y-53076910D01*
X133416636Y-53076909D01*
X133310012Y-53005665D01*
X133219335Y-52914988D01*
X133148091Y-52808364D01*
X133099017Y-52689890D01*
X133074000Y-52564118D01*
X133074000Y-52435882D01*
X133099017Y-52310110D01*
X133148091Y-52191636D01*
X133219335Y-52085012D01*
X133310012Y-51994335D01*
X133416636Y-51923091D01*
X133535110Y-51874017D01*
X133660881Y-51849000D01*
X133789119Y-51849000D01*
X133914890Y-51874017D01*
X133914890Y-51874017D01*
G37*
G36*
X129114890Y-51874017D02*
G01*
X129233364Y-51923091D01*
X129339988Y-51994335D01*
X129430665Y-52085012D01*
X129501909Y-52191636D01*
X129550983Y-52310110D01*
X129576000Y-52435882D01*
X129576000Y-52564118D01*
X129550983Y-52689890D01*
X129501909Y-52808364D01*
X129430665Y-52914988D01*
X129339988Y-53005665D01*
X129233364Y-53076909D01*
X129233363Y-53076910D01*
X129233362Y-53076910D01*
X129114890Y-53125983D01*
X128989119Y-53151000D01*
X128860881Y-53151000D01*
X128735110Y-53125983D01*
X128616638Y-53076910D01*
X128616637Y-53076910D01*
X128616636Y-53076909D01*
X128510012Y-53005665D01*
X128419335Y-52914988D01*
X128348091Y-52808364D01*
X128299017Y-52689890D01*
X128274000Y-52564118D01*
X128274000Y-52435882D01*
X128299017Y-52310110D01*
X128348091Y-52191636D01*
X128419335Y-52085012D01*
X128510012Y-51994335D01*
X128616636Y-51923091D01*
X128735110Y-51874017D01*
X128860881Y-51849000D01*
X128989119Y-51849000D01*
X129114890Y-51874017D01*
X129114890Y-51874017D01*
G37*
G36*
X135189049Y-49974025D02*
G01*
X135189052Y-49974026D01*
X135189051Y-49974026D01*
X135260208Y-50003500D01*
X135324248Y-50046290D01*
X135378710Y-50100752D01*
X135406472Y-50142301D01*
X135421501Y-50164794D01*
X135450975Y-50235951D01*
X135466000Y-50311488D01*
X135466000Y-50388512D01*
X135450975Y-50464049D01*
X135441182Y-50487692D01*
X135421500Y-50535208D01*
X135378710Y-50599248D01*
X135324248Y-50653710D01*
X135260208Y-50696500D01*
X135260207Y-50696501D01*
X135260206Y-50696501D01*
X135189049Y-50725975D01*
X135113512Y-50741000D01*
X135036488Y-50741000D01*
X134960951Y-50725975D01*
X134889794Y-50696501D01*
X134889793Y-50696501D01*
X134889792Y-50696500D01*
X134825752Y-50653710D01*
X134771290Y-50599248D01*
X134728500Y-50535208D01*
X134708818Y-50487692D01*
X134699025Y-50464049D01*
X134684000Y-50388512D01*
X134684000Y-50311488D01*
X134699025Y-50235951D01*
X134728499Y-50164794D01*
X134743528Y-50142301D01*
X134771290Y-50100752D01*
X134825752Y-50046290D01*
X134889792Y-50003500D01*
X134960949Y-49974026D01*
X134960948Y-49974026D01*
X134960951Y-49974025D01*
X135036488Y-49959000D01*
X135113512Y-49959000D01*
X135189049Y-49974025D01*
X135189049Y-49974025D01*
G37*
G36*
X127638001Y-50142299D02*
G01*
X127648045Y-50146460D01*
X127677314Y-50158583D01*
X127712692Y-50182222D01*
X127742778Y-50212308D01*
X127766417Y-50247686D01*
X127778145Y-50276000D01*
X127782701Y-50286999D01*
X127791000Y-50328724D01*
X127791000Y-50371276D01*
X127782701Y-50413001D01*
X127782699Y-50413005D01*
X127766417Y-50452314D01*
X127742778Y-50487692D01*
X127712692Y-50517778D01*
X127677314Y-50541417D01*
X127648045Y-50553540D01*
X127638001Y-50557701D01*
X127596276Y-50566000D01*
X127553724Y-50566000D01*
X127511999Y-50557701D01*
X127501955Y-50553540D01*
X127472686Y-50541417D01*
X127437308Y-50517778D01*
X127407222Y-50487692D01*
X127383583Y-50452314D01*
X127367301Y-50413005D01*
X127367299Y-50413001D01*
X127359000Y-50371276D01*
X127359000Y-50328724D01*
X127367299Y-50286999D01*
X127371855Y-50276000D01*
X127383583Y-50247686D01*
X127407222Y-50212308D01*
X127437308Y-50182222D01*
X127472686Y-50158583D01*
X127501955Y-50146460D01*
X127511999Y-50142299D01*
X127553724Y-50134000D01*
X127596276Y-50134000D01*
X127638001Y-50142299D01*
X127638001Y-50142299D01*
G37*
G36*
X173278433Y-47509893D02*
G01*
X173368657Y-47527839D01*
X173474267Y-47571585D01*
X173623621Y-47633449D01*
X173623622Y-47633450D01*
X173853086Y-47786772D01*
X174048228Y-47981914D01*
X174150675Y-48135237D01*
X174201551Y-48211379D01*
X174307161Y-48466344D01*
X174361000Y-48737012D01*
X174361000Y-49012988D01*
X174307161Y-49283656D01*
X174201551Y-49538621D01*
X174201550Y-49538622D01*
X174048228Y-49768086D01*
X173853086Y-49963228D01*
X173728774Y-50046290D01*
X173623621Y-50116551D01*
X173522144Y-50158584D01*
X173368657Y-50222161D01*
X173299339Y-50235949D01*
X173097988Y-50276000D01*
X172822012Y-50276000D01*
X172620661Y-50235949D01*
X172551343Y-50222161D01*
X172397856Y-50158584D01*
X172296379Y-50116551D01*
X172191226Y-50046290D01*
X172066914Y-49963228D01*
X171871772Y-49768086D01*
X171718450Y-49538622D01*
X171718449Y-49538621D01*
X171612839Y-49283656D01*
X171559000Y-49012988D01*
X171559000Y-48737012D01*
X171612839Y-48466344D01*
X171718449Y-48211379D01*
X171769325Y-48135237D01*
X171871772Y-47981914D01*
X172066914Y-47786772D01*
X172296378Y-47633450D01*
X172296379Y-47633449D01*
X172445733Y-47571585D01*
X172551343Y-47527839D01*
X172641567Y-47509893D01*
X172822012Y-47474000D01*
X173097988Y-47474000D01*
X173278433Y-47509893D01*
X173278433Y-47509893D01*
G37*
G36*
X114278433Y-47509893D02*
G01*
X114368657Y-47527839D01*
X114474267Y-47571585D01*
X114623621Y-47633449D01*
X114623622Y-47633450D01*
X114853086Y-47786772D01*
X115048228Y-47981914D01*
X115150675Y-48135237D01*
X115201551Y-48211379D01*
X115307161Y-48466344D01*
X115361000Y-48737012D01*
X115361000Y-49012988D01*
X115307161Y-49283656D01*
X115201551Y-49538621D01*
X115201550Y-49538622D01*
X115048228Y-49768086D01*
X114853086Y-49963228D01*
X114728774Y-50046290D01*
X114623621Y-50116551D01*
X114522144Y-50158584D01*
X114368657Y-50222161D01*
X114299339Y-50235949D01*
X114097988Y-50276000D01*
X113822012Y-50276000D01*
X113620661Y-50235949D01*
X113551343Y-50222161D01*
X113397856Y-50158584D01*
X113296379Y-50116551D01*
X113191226Y-50046290D01*
X113066914Y-49963228D01*
X112871772Y-49768086D01*
X112718450Y-49538622D01*
X112718449Y-49538621D01*
X112612839Y-49283656D01*
X112559000Y-49012988D01*
X112559000Y-48737012D01*
X112612839Y-48466344D01*
X112718449Y-48211379D01*
X112769325Y-48135237D01*
X112871772Y-47981914D01*
X113066914Y-47786772D01*
X113296378Y-47633450D01*
X113296379Y-47633449D01*
X113445733Y-47571585D01*
X113551343Y-47527839D01*
X113641567Y-47509893D01*
X113822012Y-47474000D01*
X114097988Y-47474000D01*
X114278433Y-47509893D01*
X114278433Y-47509893D01*
G37*
G36*
X133914890Y-47574017D02*
G01*
X134033364Y-47623091D01*
X134048867Y-47633450D01*
X134139988Y-47694335D01*
X134230665Y-47785012D01*
X134301910Y-47891638D01*
X134350983Y-48010110D01*
X134376000Y-48135881D01*
X134376000Y-48264119D01*
X134350983Y-48389890D01*
X134319315Y-48466344D01*
X134301909Y-48508364D01*
X134230665Y-48614988D01*
X134139988Y-48705665D01*
X134033364Y-48776909D01*
X134033363Y-48776910D01*
X134033362Y-48776910D01*
X133914890Y-48825983D01*
X133789119Y-48851000D01*
X133660881Y-48851000D01*
X133535110Y-48825983D01*
X133416638Y-48776910D01*
X133416637Y-48776910D01*
X133416636Y-48776909D01*
X133310012Y-48705665D01*
X133219335Y-48614988D01*
X133148091Y-48508364D01*
X133130686Y-48466344D01*
X133099017Y-48389890D01*
X133074000Y-48264119D01*
X133074000Y-48135881D01*
X133099017Y-48010110D01*
X133148090Y-47891638D01*
X133219335Y-47785012D01*
X133310012Y-47694335D01*
X133401133Y-47633450D01*
X133416636Y-47623091D01*
X133535110Y-47574017D01*
X133660881Y-47549000D01*
X133789119Y-47549000D01*
X133914890Y-47574017D01*
X133914890Y-47574017D01*
G37*
G36*
X129114890Y-47574017D02*
G01*
X129233364Y-47623091D01*
X129248867Y-47633450D01*
X129339988Y-47694335D01*
X129430665Y-47785012D01*
X129501910Y-47891638D01*
X129550983Y-48010110D01*
X129576000Y-48135881D01*
X129576000Y-48264119D01*
X129550983Y-48389890D01*
X129519315Y-48466344D01*
X129501909Y-48508364D01*
X129430665Y-48614988D01*
X129339988Y-48705665D01*
X129233364Y-48776909D01*
X129233363Y-48776910D01*
X129233362Y-48776910D01*
X129114890Y-48825983D01*
X128989119Y-48851000D01*
X128860881Y-48851000D01*
X128735110Y-48825983D01*
X128616638Y-48776910D01*
X128616637Y-48776910D01*
X128616636Y-48776909D01*
X128510012Y-48705665D01*
X128419335Y-48614988D01*
X128348091Y-48508364D01*
X128330686Y-48466344D01*
X128299017Y-48389890D01*
X128274000Y-48264119D01*
X128274000Y-48135881D01*
X128299017Y-48010110D01*
X128348090Y-47891638D01*
X128419335Y-47785012D01*
X128510012Y-47694335D01*
X128601133Y-47633450D01*
X128616636Y-47623091D01*
X128735110Y-47574017D01*
X128860881Y-47549000D01*
X128989119Y-47549000D01*
X129114890Y-47574017D01*
X129114890Y-47574017D01*
G37*
M02*
