G04 #@! TF.GenerationSoftware,KiCad,Pcbnew,5.1.7-a382d34a8~88~ubuntu18.04.1*
G04 #@! TF.CreationDate,2021-02-07T13:52:12-05:00*
G04 #@! TF.ProjectId,SmallKat v2,536d616c-6c4b-4617-9420-76322e6b6963,rev?*
G04 #@! TF.SameCoordinates,Original*
G04 #@! TF.FileFunction,Legend,Bot*
G04 #@! TF.FilePolarity,Positive*
%FSLAX46Y46*%
G04 Gerber Fmt 4.6, Leading zero omitted, Abs format (unit mm)*
G04 Created by KiCad (PCBNEW 5.1.7-a382d34a8~88~ubuntu18.04.1) date 2021-02-07 13:52:12*
%MOMM*%
%LPD*%
G01*
G04 APERTURE LIST*
%ADD10C,0.300000*%
%ADD11C,0.200000*%
%ADD12C,0.150000*%
%ADD13C,0.250000*%
%ADD14C,0.375000*%
%ADD15C,0.500000*%
%ADD16C,0.750000*%
%ADD17C,0.120000*%
G04 APERTURE END LIST*
D10*
X88077142Y-98478571D02*
X88077142Y-96978571D01*
X88077142Y-97692857D02*
X87220000Y-97692857D01*
X87220000Y-98478571D02*
X87220000Y-96978571D01*
X85934285Y-98407142D02*
X86077142Y-98478571D01*
X86362857Y-98478571D01*
X86505714Y-98407142D01*
X86577142Y-98264285D01*
X86577142Y-97692857D01*
X86505714Y-97550000D01*
X86362857Y-97478571D01*
X86077142Y-97478571D01*
X85934285Y-97550000D01*
X85862857Y-97692857D01*
X85862857Y-97835714D01*
X86577142Y-97978571D01*
X84577142Y-98478571D02*
X84577142Y-97692857D01*
X84648571Y-97550000D01*
X84791428Y-97478571D01*
X85077142Y-97478571D01*
X85220000Y-97550000D01*
X84577142Y-98407142D02*
X84720000Y-98478571D01*
X85077142Y-98478571D01*
X85220000Y-98407142D01*
X85291428Y-98264285D01*
X85291428Y-98121428D01*
X85220000Y-97978571D01*
X85077142Y-97907142D01*
X84720000Y-97907142D01*
X84577142Y-97835714D01*
X83220000Y-98478571D02*
X83220000Y-96978571D01*
X83220000Y-98407142D02*
X83362857Y-98478571D01*
X83648571Y-98478571D01*
X83791428Y-98407142D01*
X83862857Y-98335714D01*
X83934285Y-98192857D01*
X83934285Y-97764285D01*
X83862857Y-97621428D01*
X83791428Y-97550000D01*
X83648571Y-97478571D01*
X83362857Y-97478571D01*
X83220000Y-97550000D01*
X81362857Y-97907142D02*
X80220000Y-97907142D01*
X79505714Y-97478571D02*
X78362857Y-97907142D01*
X79505714Y-98335714D01*
D11*
X105975714Y-112054285D02*
X105575714Y-112054285D01*
X105404285Y-112682857D02*
X105975714Y-112682857D01*
X105975714Y-111482857D01*
X105404285Y-111482857D01*
X104890000Y-112682857D02*
X104890000Y-111482857D01*
X104204285Y-112682857D01*
X104204285Y-111482857D01*
D12*
X97290000Y-101302857D02*
X97290000Y-100102857D01*
X96490000Y-100102857D02*
X96261428Y-100102857D01*
X96147142Y-100160000D01*
X96032857Y-100274285D01*
X95975714Y-100502857D01*
X95975714Y-100902857D01*
X96032857Y-101131428D01*
X96147142Y-101245714D01*
X96261428Y-101302857D01*
X96490000Y-101302857D01*
X96604285Y-101245714D01*
X96718571Y-101131428D01*
X96775714Y-100902857D01*
X96775714Y-100502857D01*
X96718571Y-100274285D01*
X96604285Y-100160000D01*
X96490000Y-100102857D01*
X95232857Y-100102857D02*
X95118571Y-100102857D01*
X95004285Y-100160000D01*
X94947142Y-100217142D01*
X94890000Y-100331428D01*
X94832857Y-100560000D01*
X94832857Y-100845714D01*
X94890000Y-101074285D01*
X94947142Y-101188571D01*
X95004285Y-101245714D01*
X95118571Y-101302857D01*
X95232857Y-101302857D01*
X95347142Y-101245714D01*
X95404285Y-101188571D01*
X95461428Y-101074285D01*
X95518571Y-100845714D01*
X95518571Y-100560000D01*
X95461428Y-100331428D01*
X95404285Y-100217142D01*
X95347142Y-100160000D01*
X95232857Y-100102857D01*
D11*
X117595714Y-97315714D02*
X117424285Y-97372857D01*
X117138571Y-97372857D01*
X117024285Y-97315714D01*
X116967142Y-97258571D01*
X116910000Y-97144285D01*
X116910000Y-97030000D01*
X116967142Y-96915714D01*
X117024285Y-96858571D01*
X117138571Y-96801428D01*
X117367142Y-96744285D01*
X117481428Y-96687142D01*
X117538571Y-96630000D01*
X117595714Y-96515714D01*
X117595714Y-96401428D01*
X117538571Y-96287142D01*
X117481428Y-96230000D01*
X117367142Y-96172857D01*
X117081428Y-96172857D01*
X116910000Y-96230000D01*
X116395714Y-97372857D02*
X116395714Y-96172857D01*
X116110000Y-96172857D01*
X115938571Y-96230000D01*
X115824285Y-96344285D01*
X115767142Y-96458571D01*
X115710000Y-96687142D01*
X115710000Y-96858571D01*
X115767142Y-97087142D01*
X115824285Y-97201428D01*
X115938571Y-97315714D01*
X116110000Y-97372857D01*
X116395714Y-97372857D01*
X115252857Y-97030000D02*
X114681428Y-97030000D01*
X115367142Y-97372857D02*
X114967142Y-96172857D01*
X114567142Y-97372857D01*
X112624285Y-97372857D02*
X113310000Y-97372857D01*
X112967142Y-97372857D02*
X112967142Y-96172857D01*
X113081428Y-96344285D01*
X113195714Y-96458571D01*
X113310000Y-96515714D01*
X119387142Y-90015714D02*
X119215714Y-90072857D01*
X118930000Y-90072857D01*
X118815714Y-90015714D01*
X118758571Y-89958571D01*
X118701428Y-89844285D01*
X118701428Y-89730000D01*
X118758571Y-89615714D01*
X118815714Y-89558571D01*
X118930000Y-89501428D01*
X119158571Y-89444285D01*
X119272857Y-89387142D01*
X119330000Y-89330000D01*
X119387142Y-89215714D01*
X119387142Y-89101428D01*
X119330000Y-88987142D01*
X119272857Y-88930000D01*
X119158571Y-88872857D01*
X118872857Y-88872857D01*
X118701428Y-88930000D01*
X117501428Y-89958571D02*
X117558571Y-90015714D01*
X117730000Y-90072857D01*
X117844285Y-90072857D01*
X118015714Y-90015714D01*
X118130000Y-89901428D01*
X118187142Y-89787142D01*
X118244285Y-89558571D01*
X118244285Y-89387142D01*
X118187142Y-89158571D01*
X118130000Y-89044285D01*
X118015714Y-88930000D01*
X117844285Y-88872857D01*
X117730000Y-88872857D01*
X117558571Y-88930000D01*
X117501428Y-88987142D01*
X116415714Y-90072857D02*
X116987142Y-90072857D01*
X116987142Y-88872857D01*
X114472857Y-90072857D02*
X115158571Y-90072857D01*
X114815714Y-90072857D02*
X114815714Y-88872857D01*
X114930000Y-89044285D01*
X115044285Y-89158571D01*
X115158571Y-89215714D01*
D13*
X166352857Y-91604285D02*
X166181428Y-91661428D01*
X166124285Y-91718571D01*
X166067142Y-91832857D01*
X166067142Y-92004285D01*
X166124285Y-92118571D01*
X166181428Y-92175714D01*
X166295714Y-92232857D01*
X166752857Y-92232857D01*
X166752857Y-91032857D01*
X166352857Y-91032857D01*
X166238571Y-91090000D01*
X166181428Y-91147142D01*
X166124285Y-91261428D01*
X166124285Y-91375714D01*
X166181428Y-91490000D01*
X166238571Y-91547142D01*
X166352857Y-91604285D01*
X166752857Y-91604285D01*
X165038571Y-92232857D02*
X165038571Y-91604285D01*
X165095714Y-91490000D01*
X165210000Y-91432857D01*
X165438571Y-91432857D01*
X165552857Y-91490000D01*
X165038571Y-92175714D02*
X165152857Y-92232857D01*
X165438571Y-92232857D01*
X165552857Y-92175714D01*
X165610000Y-92061428D01*
X165610000Y-91947142D01*
X165552857Y-91832857D01*
X165438571Y-91775714D01*
X165152857Y-91775714D01*
X165038571Y-91718571D01*
X164638571Y-91432857D02*
X164181428Y-91432857D01*
X164467142Y-91032857D02*
X164467142Y-92061428D01*
X164410000Y-92175714D01*
X164295714Y-92232857D01*
X164181428Y-92232857D01*
X163952857Y-91432857D02*
X163495714Y-91432857D01*
X163781428Y-91032857D02*
X163781428Y-92061428D01*
X163724285Y-92175714D01*
X163610000Y-92232857D01*
X163495714Y-92232857D01*
D14*
X158377142Y-135888571D02*
X158877142Y-135174285D01*
X159234285Y-135888571D02*
X159234285Y-134388571D01*
X158662857Y-134388571D01*
X158520000Y-134460000D01*
X158448571Y-134531428D01*
X158377142Y-134674285D01*
X158377142Y-134888571D01*
X158448571Y-135031428D01*
X158520000Y-135102857D01*
X158662857Y-135174285D01*
X159234285Y-135174285D01*
X157162857Y-135817142D02*
X157305714Y-135888571D01*
X157591428Y-135888571D01*
X157734285Y-135817142D01*
X157805714Y-135674285D01*
X157805714Y-135102857D01*
X157734285Y-134960000D01*
X157591428Y-134888571D01*
X157305714Y-134888571D01*
X157162857Y-134960000D01*
X157091428Y-135102857D01*
X157091428Y-135245714D01*
X157805714Y-135388571D01*
X156591428Y-134888571D02*
X156234285Y-135888571D01*
X155877142Y-134888571D01*
X153377142Y-135888571D02*
X154234285Y-135888571D01*
X153805714Y-135888571D02*
X153805714Y-134388571D01*
X153948571Y-134602857D01*
X154091428Y-134745714D01*
X154234285Y-134817142D01*
X152734285Y-135745714D02*
X152662857Y-135817142D01*
X152734285Y-135888571D01*
X152805714Y-135817142D01*
X152734285Y-135745714D01*
X152734285Y-135888571D01*
X151734285Y-134388571D02*
X151591428Y-134388571D01*
X151448571Y-134460000D01*
X151377142Y-134531428D01*
X151305714Y-134674285D01*
X151234285Y-134960000D01*
X151234285Y-135317142D01*
X151305714Y-135602857D01*
X151377142Y-135745714D01*
X151448571Y-135817142D01*
X151591428Y-135888571D01*
X151734285Y-135888571D01*
X151877142Y-135817142D01*
X151948571Y-135745714D01*
X152020000Y-135602857D01*
X152091428Y-135317142D01*
X152091428Y-134960000D01*
X152020000Y-134674285D01*
X151948571Y-134531428D01*
X151877142Y-134460000D01*
X151734285Y-134388571D01*
D15*
X164441904Y-131294761D02*
X164441904Y-129294761D01*
X163775238Y-130723333D01*
X163108571Y-129294761D01*
X163108571Y-131294761D01*
X161870476Y-131294761D02*
X162060952Y-131199523D01*
X162156190Y-131104285D01*
X162251428Y-130913809D01*
X162251428Y-130342380D01*
X162156190Y-130151904D01*
X162060952Y-130056666D01*
X161870476Y-129961428D01*
X161584761Y-129961428D01*
X161394285Y-130056666D01*
X161299047Y-130151904D01*
X161203809Y-130342380D01*
X161203809Y-130913809D01*
X161299047Y-131104285D01*
X161394285Y-131199523D01*
X161584761Y-131294761D01*
X161870476Y-131294761D01*
X160632380Y-129961428D02*
X159870476Y-129961428D01*
X160346666Y-129294761D02*
X160346666Y-131009047D01*
X160251428Y-131199523D01*
X160060952Y-131294761D01*
X159870476Y-131294761D01*
X159203809Y-131294761D02*
X159203809Y-129294761D01*
X158346666Y-131294761D02*
X158346666Y-130247142D01*
X158441904Y-130056666D01*
X158632380Y-129961428D01*
X158918095Y-129961428D01*
X159108571Y-130056666D01*
X159203809Y-130151904D01*
X156632380Y-131199523D02*
X156822857Y-131294761D01*
X157203809Y-131294761D01*
X157394285Y-131199523D01*
X157489523Y-131009047D01*
X157489523Y-130247142D01*
X157394285Y-130056666D01*
X157203809Y-129961428D01*
X156822857Y-129961428D01*
X156632380Y-130056666D01*
X156537142Y-130247142D01*
X156537142Y-130437619D01*
X157489523Y-130628095D01*
X155680000Y-131294761D02*
X155680000Y-129961428D01*
X155680000Y-130342380D02*
X155584761Y-130151904D01*
X155489523Y-130056666D01*
X155299047Y-129961428D01*
X155108571Y-129961428D01*
X154441904Y-131294761D02*
X154441904Y-129294761D01*
X154441904Y-130056666D02*
X154251428Y-129961428D01*
X153870476Y-129961428D01*
X153680000Y-130056666D01*
X153584761Y-130151904D01*
X153489523Y-130342380D01*
X153489523Y-130913809D01*
X153584761Y-131104285D01*
X153680000Y-131199523D01*
X153870476Y-131294761D01*
X154251428Y-131294761D01*
X154441904Y-131199523D01*
X152346666Y-131294761D02*
X152537142Y-131199523D01*
X152632380Y-131104285D01*
X152727619Y-130913809D01*
X152727619Y-130342380D01*
X152632380Y-130151904D01*
X152537142Y-130056666D01*
X152346666Y-129961428D01*
X152060952Y-129961428D01*
X151870476Y-130056666D01*
X151775238Y-130151904D01*
X151680000Y-130342380D01*
X151680000Y-130913809D01*
X151775238Y-131104285D01*
X151870476Y-131199523D01*
X152060952Y-131294761D01*
X152346666Y-131294761D01*
X149965714Y-131294761D02*
X149965714Y-130247142D01*
X150060952Y-130056666D01*
X150251428Y-129961428D01*
X150632380Y-129961428D01*
X150822857Y-130056666D01*
X149965714Y-131199523D02*
X150156190Y-131294761D01*
X150632380Y-131294761D01*
X150822857Y-131199523D01*
X150918095Y-131009047D01*
X150918095Y-130818571D01*
X150822857Y-130628095D01*
X150632380Y-130532857D01*
X150156190Y-130532857D01*
X149965714Y-130437619D01*
X149013333Y-131294761D02*
X149013333Y-129961428D01*
X149013333Y-130342380D02*
X148918095Y-130151904D01*
X148822857Y-130056666D01*
X148632380Y-129961428D01*
X148441904Y-129961428D01*
X146918095Y-131294761D02*
X146918095Y-129294761D01*
X146918095Y-131199523D02*
X147108571Y-131294761D01*
X147489523Y-131294761D01*
X147680000Y-131199523D01*
X147775238Y-131104285D01*
X147870476Y-130913809D01*
X147870476Y-130342380D01*
X147775238Y-130151904D01*
X147680000Y-130056666D01*
X147489523Y-129961428D01*
X147108571Y-129961428D01*
X146918095Y-130056666D01*
D16*
X165472857Y-128004285D02*
X165044285Y-128147142D01*
X164330000Y-128147142D01*
X164044285Y-128004285D01*
X163901428Y-127861428D01*
X163758571Y-127575714D01*
X163758571Y-127290000D01*
X163901428Y-127004285D01*
X164044285Y-126861428D01*
X164330000Y-126718571D01*
X164901428Y-126575714D01*
X165187142Y-126432857D01*
X165330000Y-126290000D01*
X165472857Y-126004285D01*
X165472857Y-125718571D01*
X165330000Y-125432857D01*
X165187142Y-125290000D01*
X164901428Y-125147142D01*
X164187142Y-125147142D01*
X163758571Y-125290000D01*
X162472857Y-128147142D02*
X162472857Y-126147142D01*
X162472857Y-126432857D02*
X162330000Y-126290000D01*
X162044285Y-126147142D01*
X161615714Y-126147142D01*
X161330000Y-126290000D01*
X161187142Y-126575714D01*
X161187142Y-128147142D01*
X161187142Y-126575714D02*
X161044285Y-126290000D01*
X160758571Y-126147142D01*
X160330000Y-126147142D01*
X160044285Y-126290000D01*
X159901428Y-126575714D01*
X159901428Y-128147142D01*
X157187142Y-128147142D02*
X157187142Y-126575714D01*
X157330000Y-126290000D01*
X157615714Y-126147142D01*
X158187142Y-126147142D01*
X158472857Y-126290000D01*
X157187142Y-128004285D02*
X157472857Y-128147142D01*
X158187142Y-128147142D01*
X158472857Y-128004285D01*
X158615714Y-127718571D01*
X158615714Y-127432857D01*
X158472857Y-127147142D01*
X158187142Y-127004285D01*
X157472857Y-127004285D01*
X157187142Y-126861428D01*
X155330000Y-128147142D02*
X155615714Y-128004285D01*
X155758571Y-127718571D01*
X155758571Y-125147142D01*
X153758571Y-128147142D02*
X154044285Y-128004285D01*
X154187142Y-127718571D01*
X154187142Y-125147142D01*
X152615714Y-128147142D02*
X152615714Y-125147142D01*
X150901428Y-128147142D02*
X152187142Y-126432857D01*
X150901428Y-125147142D02*
X152615714Y-126861428D01*
X148330000Y-128147142D02*
X148330000Y-126575714D01*
X148472857Y-126290000D01*
X148758571Y-126147142D01*
X149330000Y-126147142D01*
X149615714Y-126290000D01*
X148330000Y-128004285D02*
X148615714Y-128147142D01*
X149330000Y-128147142D01*
X149615714Y-128004285D01*
X149758571Y-127718571D01*
X149758571Y-127432857D01*
X149615714Y-127147142D01*
X149330000Y-127004285D01*
X148615714Y-127004285D01*
X148330000Y-126861428D01*
X147330000Y-126147142D02*
X146187142Y-126147142D01*
X146901428Y-125147142D02*
X146901428Y-127718571D01*
X146758571Y-128004285D01*
X146472857Y-128147142D01*
X146187142Y-128147142D01*
D11*
X118687142Y-121382857D02*
X119087142Y-120811428D01*
X119372857Y-121382857D02*
X119372857Y-120182857D01*
X118915714Y-120182857D01*
X118801428Y-120240000D01*
X118744285Y-120297142D01*
X118687142Y-120411428D01*
X118687142Y-120582857D01*
X118744285Y-120697142D01*
X118801428Y-120754285D01*
X118915714Y-120811428D01*
X119372857Y-120811428D01*
X118344285Y-120182857D02*
X117658571Y-120182857D01*
X118001428Y-121382857D02*
X118001428Y-120182857D01*
X117315714Y-121325714D02*
X117144285Y-121382857D01*
X116858571Y-121382857D01*
X116744285Y-121325714D01*
X116687142Y-121268571D01*
X116630000Y-121154285D01*
X116630000Y-121040000D01*
X116687142Y-120925714D01*
X116744285Y-120868571D01*
X116858571Y-120811428D01*
X117087142Y-120754285D01*
X117201428Y-120697142D01*
X117258571Y-120640000D01*
X117315714Y-120525714D01*
X117315714Y-120411428D01*
X117258571Y-120297142D01*
X117201428Y-120240000D01*
X117087142Y-120182857D01*
X116801428Y-120182857D01*
X116630000Y-120240000D01*
X106921428Y-122792857D02*
X106921428Y-121592857D01*
X106635714Y-121592857D01*
X106464285Y-121650000D01*
X106350000Y-121764285D01*
X106292857Y-121878571D01*
X106235714Y-122107142D01*
X106235714Y-122278571D01*
X106292857Y-122507142D01*
X106350000Y-122621428D01*
X106464285Y-122735714D01*
X106635714Y-122792857D01*
X106921428Y-122792857D01*
X105892857Y-121592857D02*
X105207142Y-121592857D01*
X105550000Y-122792857D02*
X105550000Y-121592857D01*
X104121428Y-122792857D02*
X104521428Y-122221428D01*
X104807142Y-122792857D02*
X104807142Y-121592857D01*
X104350000Y-121592857D01*
X104235714Y-121650000D01*
X104178571Y-121707142D01*
X104121428Y-121821428D01*
X104121428Y-121992857D01*
X104178571Y-122107142D01*
X104235714Y-122164285D01*
X104350000Y-122221428D01*
X104807142Y-122221428D01*
X90728571Y-121142857D02*
X90728571Y-119942857D01*
X89928571Y-119942857D02*
X89700000Y-119942857D01*
X89585714Y-120000000D01*
X89471428Y-120114285D01*
X89414285Y-120342857D01*
X89414285Y-120742857D01*
X89471428Y-120971428D01*
X89585714Y-121085714D01*
X89700000Y-121142857D01*
X89928571Y-121142857D01*
X90042857Y-121085714D01*
X90157142Y-120971428D01*
X90214285Y-120742857D01*
X90214285Y-120342857D01*
X90157142Y-120114285D01*
X90042857Y-120000000D01*
X89928571Y-119942857D01*
X88042857Y-120057142D02*
X87985714Y-120000000D01*
X87871428Y-119942857D01*
X87585714Y-119942857D01*
X87471428Y-120000000D01*
X87414285Y-120057142D01*
X87357142Y-120171428D01*
X87357142Y-120285714D01*
X87414285Y-120457142D01*
X88100000Y-121142857D01*
X87357142Y-121142857D01*
X86957142Y-119942857D02*
X86214285Y-119942857D01*
X86614285Y-120400000D01*
X86442857Y-120400000D01*
X86328571Y-120457142D01*
X86271428Y-120514285D01*
X86214285Y-120628571D01*
X86214285Y-120914285D01*
X86271428Y-121028571D01*
X86328571Y-121085714D01*
X86442857Y-121142857D01*
X86785714Y-121142857D01*
X86900000Y-121085714D01*
X86957142Y-121028571D01*
X85807142Y-110885714D02*
X85635714Y-110942857D01*
X85350000Y-110942857D01*
X85235714Y-110885714D01*
X85178571Y-110828571D01*
X85121428Y-110714285D01*
X85121428Y-110600000D01*
X85178571Y-110485714D01*
X85235714Y-110428571D01*
X85350000Y-110371428D01*
X85578571Y-110314285D01*
X85692857Y-110257142D01*
X85750000Y-110200000D01*
X85807142Y-110085714D01*
X85807142Y-109971428D01*
X85750000Y-109857142D01*
X85692857Y-109800000D01*
X85578571Y-109742857D01*
X85292857Y-109742857D01*
X85121428Y-109800000D01*
X84607142Y-110942857D02*
X84607142Y-109742857D01*
X84321428Y-109742857D01*
X84150000Y-109800000D01*
X84035714Y-109914285D01*
X83978571Y-110028571D01*
X83921428Y-110257142D01*
X83921428Y-110428571D01*
X83978571Y-110657142D01*
X84035714Y-110771428D01*
X84150000Y-110885714D01*
X84321428Y-110942857D01*
X84607142Y-110942857D01*
X83464285Y-110600000D02*
X82892857Y-110600000D01*
X83578571Y-110942857D02*
X83178571Y-109742857D01*
X82778571Y-110942857D01*
X86128571Y-113685714D02*
X85957142Y-113742857D01*
X85671428Y-113742857D01*
X85557142Y-113685714D01*
X85500000Y-113628571D01*
X85442857Y-113514285D01*
X85442857Y-113400000D01*
X85500000Y-113285714D01*
X85557142Y-113228571D01*
X85671428Y-113171428D01*
X85900000Y-113114285D01*
X86014285Y-113057142D01*
X86071428Y-113000000D01*
X86128571Y-112885714D01*
X86128571Y-112771428D01*
X86071428Y-112657142D01*
X86014285Y-112600000D01*
X85900000Y-112542857D01*
X85614285Y-112542857D01*
X85442857Y-112600000D01*
X84242857Y-113628571D02*
X84300000Y-113685714D01*
X84471428Y-113742857D01*
X84585714Y-113742857D01*
X84757142Y-113685714D01*
X84871428Y-113571428D01*
X84928571Y-113457142D01*
X84985714Y-113228571D01*
X84985714Y-113057142D01*
X84928571Y-112828571D01*
X84871428Y-112714285D01*
X84757142Y-112600000D01*
X84585714Y-112542857D01*
X84471428Y-112542857D01*
X84300000Y-112600000D01*
X84242857Y-112657142D01*
X83157142Y-113742857D02*
X83728571Y-113742857D01*
X83728571Y-112542857D01*
X94264285Y-114722857D02*
X93578571Y-114722857D01*
X93921428Y-115922857D02*
X93921428Y-114722857D01*
X93292857Y-114722857D02*
X92492857Y-115922857D01*
X92492857Y-114722857D02*
X93292857Y-115922857D01*
X95900000Y-110392857D02*
X96300000Y-109821428D01*
X96585714Y-110392857D02*
X96585714Y-109192857D01*
X96128571Y-109192857D01*
X96014285Y-109250000D01*
X95957142Y-109307142D01*
X95900000Y-109421428D01*
X95900000Y-109592857D01*
X95957142Y-109707142D01*
X96014285Y-109764285D01*
X96128571Y-109821428D01*
X96585714Y-109821428D01*
X95500000Y-109192857D02*
X94700000Y-110392857D01*
X94700000Y-109192857D02*
X95500000Y-110392857D01*
X122464285Y-86350000D02*
X122578571Y-86292857D01*
X122750000Y-86292857D01*
X122921428Y-86350000D01*
X123035714Y-86464285D01*
X123092857Y-86578571D01*
X123150000Y-86807142D01*
X123150000Y-86978571D01*
X123092857Y-87207142D01*
X123035714Y-87321428D01*
X122921428Y-87435714D01*
X122750000Y-87492857D01*
X122635714Y-87492857D01*
X122464285Y-87435714D01*
X122407142Y-87378571D01*
X122407142Y-86978571D01*
X122635714Y-86978571D01*
X121892857Y-87492857D02*
X121892857Y-86292857D01*
X121207142Y-87492857D01*
X121207142Y-86292857D01*
X120635714Y-87492857D02*
X120635714Y-86292857D01*
X120350000Y-86292857D01*
X120178571Y-86350000D01*
X120064285Y-86464285D01*
X120007142Y-86578571D01*
X119950000Y-86807142D01*
X119950000Y-86978571D01*
X120007142Y-87207142D01*
X120064285Y-87321428D01*
X120178571Y-87435714D01*
X120350000Y-87492857D01*
X120635714Y-87492857D01*
X116078571Y-86242857D02*
X116307142Y-86242857D01*
X116421428Y-86300000D01*
X116478571Y-86357142D01*
X116592857Y-86528571D01*
X116650000Y-86757142D01*
X116650000Y-87214285D01*
X116592857Y-87328571D01*
X116535714Y-87385714D01*
X116421428Y-87442857D01*
X116192857Y-87442857D01*
X116078571Y-87385714D01*
X116021428Y-87328571D01*
X115964285Y-87214285D01*
X115964285Y-86928571D01*
X116021428Y-86814285D01*
X116078571Y-86757142D01*
X116192857Y-86700000D01*
X116421428Y-86700000D01*
X116535714Y-86757142D01*
X116592857Y-86814285D01*
X116650000Y-86928571D01*
X115564285Y-86642857D02*
X115278571Y-87442857D01*
X114992857Y-86642857D01*
X124664285Y-93902857D02*
X123921428Y-93902857D01*
X124321428Y-94360000D01*
X124150000Y-94360000D01*
X124035714Y-94417142D01*
X123978571Y-94474285D01*
X123921428Y-94588571D01*
X123921428Y-94874285D01*
X123978571Y-94988571D01*
X124035714Y-95045714D01*
X124150000Y-95102857D01*
X124492857Y-95102857D01*
X124607142Y-95045714D01*
X124664285Y-94988571D01*
X123407142Y-94988571D02*
X123350000Y-95045714D01*
X123407142Y-95102857D01*
X123464285Y-95045714D01*
X123407142Y-94988571D01*
X123407142Y-95102857D01*
X122950000Y-93902857D02*
X122207142Y-93902857D01*
X122607142Y-94360000D01*
X122435714Y-94360000D01*
X122321428Y-94417142D01*
X122264285Y-94474285D01*
X122207142Y-94588571D01*
X122207142Y-94874285D01*
X122264285Y-94988571D01*
X122321428Y-95045714D01*
X122435714Y-95102857D01*
X122778571Y-95102857D01*
X122892857Y-95045714D01*
X122950000Y-94988571D01*
X121807142Y-94302857D02*
X121521428Y-95102857D01*
X121235714Y-94302857D01*
D17*
X96950000Y-102800000D02*
G75*
G03*
X96950000Y-102800000I-950000J0D01*
G01*
X106020000Y-114420000D02*
G75*
G03*
X106020000Y-114420000I-950000J0D01*
G01*
X118220000Y-91710000D02*
G75*
G03*
X118220000Y-91710000I-950000J0D01*
G01*
X116880000Y-94620000D02*
G75*
G03*
X116880000Y-94620000I-950000J0D01*
G01*
X115520000Y-120860000D02*
G75*
G03*
X115520000Y-120860000I-950000J0D01*
G01*
X109660000Y-122070000D02*
G75*
G03*
X109660000Y-122070000I-950000J0D01*
G01*
X96500000Y-111900000D02*
G75*
G03*
X96500000Y-111900000I-950000J0D01*
G01*
X94250000Y-113150000D02*
G75*
G03*
X94250000Y-113150000I-950000J0D01*
G01*
X122950000Y-84300000D02*
G75*
G03*
X122950000Y-84300000I-1450000J0D01*
G01*
X166630000Y-94500000D02*
G75*
G03*
X166630000Y-94500000I-1450000J0D01*
G01*
X120340000Y-94690000D02*
G75*
G03*
X120340000Y-94690000I-950000J0D01*
G01*
X117200000Y-84250000D02*
G75*
G03*
X117200000Y-84250000I-1450000J0D01*
G01*
X88500000Y-113050000D02*
G75*
G03*
X88500000Y-113050000I-950000J0D01*
G01*
X88100000Y-110550000D02*
G75*
G03*
X88100000Y-110550000I-950000J0D01*
G01*
X89610000Y-118430000D02*
G75*
G03*
X89610000Y-118430000I-950000J0D01*
G01*
M02*
