G04 #@! TF.GenerationSoftware,KiCad,Pcbnew,5.1.7-a382d34a8~88~ubuntu18.04.1*
G04 #@! TF.CreationDate,2020-12-05T15:12:05-05:00*
G04 #@! TF.ProjectId,SmallKat v2,536d616c-6c4b-4617-9420-76322e6b6963,rev?*
G04 #@! TF.SameCoordinates,Original*
G04 #@! TF.FileFunction,Soldermask,Bot*
G04 #@! TF.FilePolarity,Negative*
%FSLAX46Y46*%
G04 Gerber Fmt 4.6, Leading zero omitted, Abs format (unit mm)*
G04 Created by KiCad (PCBNEW 5.1.7-a382d34a8~88~ubuntu18.04.1) date 2020-12-05 15:12:05*
%MOMM*%
%LPD*%
G01*
G04 APERTURE LIST*
%ADD10O,1.802000X1.802000*%
%ADD11C,1.602000*%
%ADD12C,2.602000*%
%ADD13O,2.052000X1.802000*%
%ADD14O,1.102000X2.202000*%
%ADD15O,1.102000X1.902000*%
%ADD16C,0.752000*%
%ADD17C,0.902000*%
%ADD18C,6.502000*%
%ADD19C,0.100000*%
G04 APERTURE END LIST*
D10*
X89800000Y-83670000D03*
X89800000Y-86210000D03*
G36*
G01*
X90701000Y-87900000D02*
X90701000Y-89600000D01*
G75*
G02*
X90650000Y-89651000I-51000J0D01*
G01*
X88950000Y-89651000D01*
G75*
G02*
X88899000Y-89600000I0J51000D01*
G01*
X88899000Y-87900000D01*
G75*
G02*
X88950000Y-87849000I51000J0D01*
G01*
X90650000Y-87849000D01*
G75*
G02*
X90701000Y-87900000I0J-51000D01*
G01*
G37*
X94900000Y-83660000D03*
X94900000Y-86200000D03*
G36*
G01*
X95801000Y-87890000D02*
X95801000Y-89590000D01*
G75*
G02*
X95750000Y-89641000I-51000J0D01*
G01*
X94050000Y-89641000D01*
G75*
G02*
X93999000Y-89590000I0J51000D01*
G01*
X93999000Y-87890000D01*
G75*
G02*
X94050000Y-87839000I51000J0D01*
G01*
X95750000Y-87839000D01*
G75*
G02*
X95801000Y-87890000I0J-51000D01*
G01*
G37*
X92350000Y-83670000D03*
X92350000Y-86210000D03*
G36*
G01*
X93251000Y-87900000D02*
X93251000Y-89600000D01*
G75*
G02*
X93200000Y-89651000I-51000J0D01*
G01*
X91500000Y-89651000D01*
G75*
G02*
X91449000Y-89600000I0J51000D01*
G01*
X91449000Y-87900000D01*
G75*
G02*
X91500000Y-87849000I51000J0D01*
G01*
X93200000Y-87849000D01*
G75*
G02*
X93251000Y-87900000I0J-51000D01*
G01*
G37*
X97450000Y-83670000D03*
X97450000Y-86210000D03*
G36*
G01*
X98351000Y-87900000D02*
X98351000Y-89600000D01*
G75*
G02*
X98300000Y-89651000I-51000J0D01*
G01*
X96600000Y-89651000D01*
G75*
G02*
X96549000Y-89600000I0J51000D01*
G01*
X96549000Y-87900000D01*
G75*
G02*
X96600000Y-87849000I51000J0D01*
G01*
X98300000Y-87849000D01*
G75*
G02*
X98351000Y-87900000I0J-51000D01*
G01*
G37*
D11*
X114570000Y-120860000D03*
X108710000Y-122070000D03*
X95550000Y-111900000D03*
X93300000Y-113150000D03*
D12*
X121500000Y-84300000D03*
X161100000Y-107200000D03*
D11*
X119390000Y-94690000D03*
D12*
X115750000Y-84250000D03*
D11*
X87550000Y-113050000D03*
X87150000Y-110550000D03*
X88660000Y-118430000D03*
G36*
G01*
X165111000Y-121140500D02*
X163589000Y-121140500D01*
G75*
G02*
X163324000Y-120875500I0J265000D01*
G01*
X163324000Y-119603500D01*
G75*
G02*
X163589000Y-119338500I265000J0D01*
G01*
X165111000Y-119338500D01*
G75*
G02*
X165376000Y-119603500I0J-265000D01*
G01*
X165376000Y-120875500D01*
G75*
G02*
X165111000Y-121140500I-265000J0D01*
G01*
G37*
D13*
X164350000Y-117739500D03*
X164350000Y-115239500D03*
X164350000Y-112739500D03*
X164350000Y-110239500D03*
X164350000Y-107739500D03*
X164350000Y-105239500D03*
X164350000Y-102739500D03*
X164350000Y-100239500D03*
X164350000Y-97739500D03*
D14*
X111530000Y-131025000D03*
X120170000Y-131025000D03*
D15*
X111530000Y-135175000D03*
X120175000Y-135175000D03*
D16*
X118740000Y-131525000D03*
X112960000Y-131525000D03*
G36*
G01*
X130872800Y-99289800D02*
X129172800Y-99289800D01*
G75*
G02*
X129121800Y-99238800I0J51000D01*
G01*
X129121800Y-97538800D01*
G75*
G02*
X129172800Y-97487800I51000J0D01*
G01*
X130872800Y-97487800D01*
G75*
G02*
X130923800Y-97538800I0J-51000D01*
G01*
X130923800Y-99238800D01*
G75*
G02*
X130872800Y-99289800I-51000J0D01*
G01*
G37*
D10*
X132562800Y-98388800D03*
X135102800Y-98388800D03*
X70001400Y-119106400D03*
X72541400Y-119106400D03*
G36*
G01*
X74231400Y-118205400D02*
X75931400Y-118205400D01*
G75*
G02*
X75982400Y-118256400I0J-51000D01*
G01*
X75982400Y-119956400D01*
G75*
G02*
X75931400Y-120007400I-51000J0D01*
G01*
X74231400Y-120007400D01*
G75*
G02*
X74180400Y-119956400I0J51000D01*
G01*
X74180400Y-118256400D01*
G75*
G02*
X74231400Y-118205400I51000J0D01*
G01*
G37*
G36*
G01*
X130872800Y-101829800D02*
X129172800Y-101829800D01*
G75*
G02*
X129121800Y-101778800I0J51000D01*
G01*
X129121800Y-100078800D01*
G75*
G02*
X129172800Y-100027800I51000J0D01*
G01*
X130872800Y-100027800D01*
G75*
G02*
X130923800Y-100078800I0J-51000D01*
G01*
X130923800Y-101778800D01*
G75*
G02*
X130872800Y-101829800I-51000J0D01*
G01*
G37*
X132562800Y-100928800D03*
X135102800Y-100928800D03*
X70041400Y-116566400D03*
X72581400Y-116566400D03*
G36*
G01*
X74271400Y-115665400D02*
X75971400Y-115665400D01*
G75*
G02*
X76022400Y-115716400I0J-51000D01*
G01*
X76022400Y-117416400D01*
G75*
G02*
X75971400Y-117467400I-51000J0D01*
G01*
X74271400Y-117467400D01*
G75*
G02*
X74220400Y-117416400I0J51000D01*
G01*
X74220400Y-115716400D01*
G75*
G02*
X74271400Y-115665400I51000J0D01*
G01*
G37*
G36*
G01*
X130872800Y-104369800D02*
X129172800Y-104369800D01*
G75*
G02*
X129121800Y-104318800I0J51000D01*
G01*
X129121800Y-102618800D01*
G75*
G02*
X129172800Y-102567800I51000J0D01*
G01*
X130872800Y-102567800D01*
G75*
G02*
X130923800Y-102618800I0J-51000D01*
G01*
X130923800Y-104318800D01*
G75*
G02*
X130872800Y-104369800I-51000J0D01*
G01*
G37*
X132562800Y-103468800D03*
X135102800Y-103468800D03*
X70041400Y-114026400D03*
X72581400Y-114026400D03*
G36*
G01*
X74271400Y-113125400D02*
X75971400Y-113125400D01*
G75*
G02*
X76022400Y-113176400I0J-51000D01*
G01*
X76022400Y-114876400D01*
G75*
G02*
X75971400Y-114927400I-51000J0D01*
G01*
X74271400Y-114927400D01*
G75*
G02*
X74220400Y-114876400I0J51000D01*
G01*
X74220400Y-113176400D01*
G75*
G02*
X74271400Y-113125400I51000J0D01*
G01*
G37*
G36*
G01*
X130872800Y-106909800D02*
X129172800Y-106909800D01*
G75*
G02*
X129121800Y-106858800I0J51000D01*
G01*
X129121800Y-105158800D01*
G75*
G02*
X129172800Y-105107800I51000J0D01*
G01*
X130872800Y-105107800D01*
G75*
G02*
X130923800Y-105158800I0J-51000D01*
G01*
X130923800Y-106858800D01*
G75*
G02*
X130872800Y-106909800I-51000J0D01*
G01*
G37*
X132562800Y-106008800D03*
X135102800Y-106008800D03*
X70041400Y-111486400D03*
X72581400Y-111486400D03*
G36*
G01*
X74271400Y-110585400D02*
X75971400Y-110585400D01*
G75*
G02*
X76022400Y-110636400I0J-51000D01*
G01*
X76022400Y-112336400D01*
G75*
G02*
X75971400Y-112387400I-51000J0D01*
G01*
X74271400Y-112387400D01*
G75*
G02*
X74220400Y-112336400I0J51000D01*
G01*
X74220400Y-110636400D01*
G75*
G02*
X74271400Y-110585400I51000J0D01*
G01*
G37*
G36*
G01*
X130843600Y-112275800D02*
X129143600Y-112275800D01*
G75*
G02*
X129092600Y-112224800I0J51000D01*
G01*
X129092600Y-110524800D01*
G75*
G02*
X129143600Y-110473800I51000J0D01*
G01*
X130843600Y-110473800D01*
G75*
G02*
X130894600Y-110524800I0J-51000D01*
G01*
X130894600Y-112224800D01*
G75*
G02*
X130843600Y-112275800I-51000J0D01*
G01*
G37*
X132533600Y-111374800D03*
X135073600Y-111374800D03*
X70042700Y-106762000D03*
X72582700Y-106762000D03*
G36*
G01*
X74272700Y-105861000D02*
X75972700Y-105861000D01*
G75*
G02*
X76023700Y-105912000I0J-51000D01*
G01*
X76023700Y-107612000D01*
G75*
G02*
X75972700Y-107663000I-51000J0D01*
G01*
X74272700Y-107663000D01*
G75*
G02*
X74221700Y-107612000I0J51000D01*
G01*
X74221700Y-105912000D01*
G75*
G02*
X74272700Y-105861000I51000J0D01*
G01*
G37*
G36*
G01*
X130843600Y-114815800D02*
X129143600Y-114815800D01*
G75*
G02*
X129092600Y-114764800I0J51000D01*
G01*
X129092600Y-113064800D01*
G75*
G02*
X129143600Y-113013800I51000J0D01*
G01*
X130843600Y-113013800D01*
G75*
G02*
X130894600Y-113064800I0J-51000D01*
G01*
X130894600Y-114764800D01*
G75*
G02*
X130843600Y-114815800I-51000J0D01*
G01*
G37*
X132533600Y-113914800D03*
X135073600Y-113914800D03*
X70042700Y-104222000D03*
X72582700Y-104222000D03*
G36*
G01*
X74272700Y-103321000D02*
X75972700Y-103321000D01*
G75*
G02*
X76023700Y-103372000I0J-51000D01*
G01*
X76023700Y-105072000D01*
G75*
G02*
X75972700Y-105123000I-51000J0D01*
G01*
X74272700Y-105123000D01*
G75*
G02*
X74221700Y-105072000I0J51000D01*
G01*
X74221700Y-103372000D01*
G75*
G02*
X74272700Y-103321000I51000J0D01*
G01*
G37*
G36*
G01*
X130843600Y-117355800D02*
X129143600Y-117355800D01*
G75*
G02*
X129092600Y-117304800I0J51000D01*
G01*
X129092600Y-115604800D01*
G75*
G02*
X129143600Y-115553800I51000J0D01*
G01*
X130843600Y-115553800D01*
G75*
G02*
X130894600Y-115604800I0J-51000D01*
G01*
X130894600Y-117304800D01*
G75*
G02*
X130843600Y-117355800I-51000J0D01*
G01*
G37*
X132533600Y-116454800D03*
X135073600Y-116454800D03*
X70017700Y-101682000D03*
X72557700Y-101682000D03*
G36*
G01*
X74247700Y-100781000D02*
X75947700Y-100781000D01*
G75*
G02*
X75998700Y-100832000I0J-51000D01*
G01*
X75998700Y-102532000D01*
G75*
G02*
X75947700Y-102583000I-51000J0D01*
G01*
X74247700Y-102583000D01*
G75*
G02*
X74196700Y-102532000I0J51000D01*
G01*
X74196700Y-100832000D01*
G75*
G02*
X74247700Y-100781000I51000J0D01*
G01*
G37*
G36*
G01*
X130843600Y-119895800D02*
X129143600Y-119895800D01*
G75*
G02*
X129092600Y-119844800I0J51000D01*
G01*
X129092600Y-118144800D01*
G75*
G02*
X129143600Y-118093800I51000J0D01*
G01*
X130843600Y-118093800D01*
G75*
G02*
X130894600Y-118144800I0J-51000D01*
G01*
X130894600Y-119844800D01*
G75*
G02*
X130843600Y-119895800I-51000J0D01*
G01*
G37*
X132533600Y-118994800D03*
X135073600Y-118994800D03*
X70017700Y-99142000D03*
X72557700Y-99142000D03*
G36*
G01*
X74247700Y-98241000D02*
X75947700Y-98241000D01*
G75*
G02*
X75998700Y-98292000I0J-51000D01*
G01*
X75998700Y-99992000D01*
G75*
G02*
X75947700Y-100043000I-51000J0D01*
G01*
X74247700Y-100043000D01*
G75*
G02*
X74196700Y-99992000I0J51000D01*
G01*
X74196700Y-98292000D01*
G75*
G02*
X74247700Y-98241000I51000J0D01*
G01*
G37*
D17*
X73347056Y-83602944D03*
X71650000Y-82900000D03*
X69952944Y-83602944D03*
X69250000Y-85300000D03*
X69952944Y-86997056D03*
X71650000Y-87700000D03*
X73347056Y-86997056D03*
X74050000Y-85300000D03*
D18*
X71650000Y-85300000D03*
D17*
X131347056Y-83602944D03*
X129650000Y-82900000D03*
X127952944Y-83602944D03*
X127250000Y-85300000D03*
X127952944Y-86997056D03*
X129650000Y-87700000D03*
X131347056Y-86997056D03*
X132050000Y-85300000D03*
D18*
X129650000Y-85300000D03*
D17*
X131347056Y-132602944D03*
X129650000Y-131900000D03*
X127952944Y-132602944D03*
X127250000Y-134300000D03*
X127952944Y-135997056D03*
X129650000Y-136700000D03*
X131347056Y-135997056D03*
X132050000Y-134300000D03*
D18*
X129650000Y-134300000D03*
D17*
X73347056Y-132602944D03*
X71650000Y-131900000D03*
X69952944Y-132602944D03*
X69250000Y-134300000D03*
X69952944Y-135997056D03*
X71650000Y-136700000D03*
X73347056Y-135997056D03*
X74050000Y-134300000D03*
D18*
X71650000Y-134300000D03*
D19*
G36*
X165377165Y-120873874D02*
G01*
X165378000Y-120875500D01*
X165378000Y-120957597D01*
X165377990Y-120957793D01*
X165374001Y-120998296D01*
X165373925Y-120998681D01*
X165363899Y-121031733D01*
X165363749Y-121032095D01*
X165347472Y-121062546D01*
X165347254Y-121062872D01*
X165325345Y-121089568D01*
X165325068Y-121089845D01*
X165298372Y-121111754D01*
X165298046Y-121111972D01*
X165267595Y-121128249D01*
X165267233Y-121128399D01*
X165234181Y-121138425D01*
X165233796Y-121138501D01*
X165193293Y-121142490D01*
X165193097Y-121142500D01*
X165111000Y-121142500D01*
X165109268Y-121141500D01*
X165109268Y-121139500D01*
X165110804Y-121138510D01*
X165162304Y-121133438D01*
X165211642Y-121118471D01*
X165257110Y-121094168D01*
X165296962Y-121061462D01*
X165329668Y-121021610D01*
X165353971Y-120976142D01*
X165368938Y-120926804D01*
X165374010Y-120875304D01*
X165375175Y-120873678D01*
X165377165Y-120873874D01*
G37*
G36*
X163325990Y-120875304D02*
G01*
X163331062Y-120926804D01*
X163346029Y-120976142D01*
X163370332Y-121021610D01*
X163403038Y-121061462D01*
X163442890Y-121094168D01*
X163488358Y-121118471D01*
X163537696Y-121133438D01*
X163589196Y-121138510D01*
X163590822Y-121139675D01*
X163590626Y-121141665D01*
X163589000Y-121142500D01*
X163506903Y-121142500D01*
X163506707Y-121142490D01*
X163466204Y-121138501D01*
X163465819Y-121138425D01*
X163432767Y-121128399D01*
X163432405Y-121128249D01*
X163401954Y-121111972D01*
X163401628Y-121111754D01*
X163374932Y-121089845D01*
X163374655Y-121089568D01*
X163352746Y-121062872D01*
X163352528Y-121062546D01*
X163336251Y-121032095D01*
X163336101Y-121031733D01*
X163326075Y-120998681D01*
X163325999Y-120998296D01*
X163322010Y-120957793D01*
X163322000Y-120957597D01*
X163322000Y-120875500D01*
X163323000Y-120873768D01*
X163325000Y-120873768D01*
X163325990Y-120875304D01*
G37*
G36*
X163590732Y-119337500D02*
G01*
X163590732Y-119339500D01*
X163589196Y-119340490D01*
X163537696Y-119345562D01*
X163488358Y-119360529D01*
X163442890Y-119384832D01*
X163403038Y-119417538D01*
X163370332Y-119457390D01*
X163346029Y-119502858D01*
X163331062Y-119552196D01*
X163325990Y-119603696D01*
X163324825Y-119605322D01*
X163322835Y-119605126D01*
X163322000Y-119603500D01*
X163322000Y-119521403D01*
X163322010Y-119521207D01*
X163325999Y-119480704D01*
X163326075Y-119480319D01*
X163336101Y-119447267D01*
X163336251Y-119446905D01*
X163352528Y-119416454D01*
X163352746Y-119416128D01*
X163374655Y-119389432D01*
X163374932Y-119389155D01*
X163401628Y-119367246D01*
X163401954Y-119367028D01*
X163432405Y-119350751D01*
X163432767Y-119350601D01*
X163465819Y-119340575D01*
X163466204Y-119340499D01*
X163506707Y-119336510D01*
X163506903Y-119336500D01*
X163589000Y-119336500D01*
X163590732Y-119337500D01*
G37*
G36*
X165193293Y-119336510D02*
G01*
X165233796Y-119340499D01*
X165234181Y-119340575D01*
X165267233Y-119350601D01*
X165267595Y-119350751D01*
X165298046Y-119367028D01*
X165298372Y-119367246D01*
X165325068Y-119389155D01*
X165325345Y-119389432D01*
X165347254Y-119416128D01*
X165347472Y-119416454D01*
X165363749Y-119446905D01*
X165363899Y-119447267D01*
X165373925Y-119480319D01*
X165374001Y-119480704D01*
X165377990Y-119521207D01*
X165378000Y-119521403D01*
X165378000Y-119603500D01*
X165377000Y-119605232D01*
X165375000Y-119605232D01*
X165374010Y-119603696D01*
X165368938Y-119552196D01*
X165353971Y-119502858D01*
X165329668Y-119457390D01*
X165296962Y-119417538D01*
X165257110Y-119384832D01*
X165211642Y-119360529D01*
X165162304Y-119345562D01*
X165110804Y-119340490D01*
X165109178Y-119339325D01*
X165109374Y-119337335D01*
X165111000Y-119336500D01*
X165193097Y-119336500D01*
X165193293Y-119336510D01*
G37*
M02*
