G04 #@! TF.GenerationSoftware,KiCad,Pcbnew,5.1.6-c6e7f7d~86~ubuntu18.04.1*
G04 #@! TF.CreationDate,2020-11-11T20:00:30-05:00*
G04 #@! TF.ProjectId,SmallKat v2,536d616c-6c4b-4617-9420-76322e6b6963,rev?*
G04 #@! TF.SameCoordinates,Original*
G04 #@! TF.FileFunction,Legend,Bot*
G04 #@! TF.FilePolarity,Positive*
%FSLAX46Y46*%
G04 Gerber Fmt 4.6, Leading zero omitted, Abs format (unit mm)*
G04 Created by KiCad (PCBNEW 5.1.6-c6e7f7d~86~ubuntu18.04.1) date 2020-11-11 20:00:30*
%MOMM*%
%LPD*%
G01*
G04 APERTURE LIST*
%ADD10C,0.120000*%
%ADD11C,0.150000*%
G04 APERTURE END LIST*
D10*
X115520000Y-120860000D02*
G75*
G03*
X115520000Y-120860000I-950000J0D01*
G01*
X109660000Y-122070000D02*
G75*
G03*
X109660000Y-122070000I-950000J0D01*
G01*
X104160000Y-116490000D02*
G75*
G03*
X104160000Y-116490000I-950000J0D01*
G01*
X100890000Y-112930000D02*
G75*
G03*
X100890000Y-112930000I-950000J0D01*
G01*
X143330000Y-84910000D02*
G75*
G03*
X143330000Y-84910000I-1450000J0D01*
G01*
X136580000Y-95480000D02*
G75*
G03*
X136580000Y-95480000I-1450000J0D01*
G01*
X120340000Y-94690000D02*
G75*
G03*
X120340000Y-94690000I-950000J0D01*
G01*
X136540000Y-85100000D02*
G75*
G03*
X136540000Y-85100000I-1450000J0D01*
G01*
X87400000Y-113100000D02*
G75*
G03*
X87400000Y-113100000I-950000J0D01*
G01*
X87440000Y-110380000D02*
G75*
G03*
X87440000Y-110380000I-950000J0D01*
G01*
X89610000Y-118430000D02*
G75*
G03*
X89610000Y-118430000I-950000J0D01*
G01*
X145860000Y-94690000D02*
X145860000Y-124690000D01*
X150860000Y-124690000D02*
X150860000Y-94690000D01*
X150860000Y-94690000D02*
X145860000Y-94690000D01*
X150860000Y-124690000D02*
X145860000Y-124690000D01*
D11*
X116308095Y-121960380D02*
X115736666Y-121960380D01*
X116022380Y-122960380D02*
X116022380Y-121960380D01*
X115403333Y-122960380D02*
X115403333Y-121960380D01*
X115022380Y-121960380D01*
X114927142Y-122008000D01*
X114879523Y-122055619D01*
X114831904Y-122150857D01*
X114831904Y-122293714D01*
X114879523Y-122388952D01*
X114927142Y-122436571D01*
X115022380Y-122484190D01*
X115403333Y-122484190D01*
X113879523Y-122960380D02*
X114450952Y-122960380D01*
X114165238Y-122960380D02*
X114165238Y-121960380D01*
X114260476Y-122103238D01*
X114355714Y-122198476D01*
X114450952Y-122246095D01*
X113498571Y-122055619D02*
X113450952Y-122008000D01*
X113355714Y-121960380D01*
X113117619Y-121960380D01*
X113022380Y-122008000D01*
X112974761Y-122055619D01*
X112927142Y-122150857D01*
X112927142Y-122246095D01*
X112974761Y-122388952D01*
X113546190Y-122960380D01*
X112927142Y-122960380D01*
X110448095Y-123170380D02*
X109876666Y-123170380D01*
X110162380Y-124170380D02*
X110162380Y-123170380D01*
X109543333Y-124170380D02*
X109543333Y-123170380D01*
X109162380Y-123170380D01*
X109067142Y-123218000D01*
X109019523Y-123265619D01*
X108971904Y-123360857D01*
X108971904Y-123503714D01*
X109019523Y-123598952D01*
X109067142Y-123646571D01*
X109162380Y-123694190D01*
X109543333Y-123694190D01*
X108019523Y-124170380D02*
X108590952Y-124170380D01*
X108305238Y-124170380D02*
X108305238Y-123170380D01*
X108400476Y-123313238D01*
X108495714Y-123408476D01*
X108590952Y-123456095D01*
X107067142Y-124170380D02*
X107638571Y-124170380D01*
X107352857Y-124170380D02*
X107352857Y-123170380D01*
X107448095Y-123313238D01*
X107543333Y-123408476D01*
X107638571Y-123456095D01*
X104948095Y-117590380D02*
X104376666Y-117590380D01*
X104662380Y-118590380D02*
X104662380Y-117590380D01*
X104043333Y-118590380D02*
X104043333Y-117590380D01*
X103662380Y-117590380D01*
X103567142Y-117638000D01*
X103519523Y-117685619D01*
X103471904Y-117780857D01*
X103471904Y-117923714D01*
X103519523Y-118018952D01*
X103567142Y-118066571D01*
X103662380Y-118114190D01*
X104043333Y-118114190D01*
X102519523Y-118590380D02*
X103090952Y-118590380D01*
X102805238Y-118590380D02*
X102805238Y-117590380D01*
X102900476Y-117733238D01*
X102995714Y-117828476D01*
X103090952Y-117876095D01*
X101900476Y-117590380D02*
X101805238Y-117590380D01*
X101710000Y-117638000D01*
X101662380Y-117685619D01*
X101614761Y-117780857D01*
X101567142Y-117971333D01*
X101567142Y-118209428D01*
X101614761Y-118399904D01*
X101662380Y-118495142D01*
X101710000Y-118542761D01*
X101805238Y-118590380D01*
X101900476Y-118590380D01*
X101995714Y-118542761D01*
X102043333Y-118495142D01*
X102090952Y-118399904D01*
X102138571Y-118209428D01*
X102138571Y-117971333D01*
X102090952Y-117780857D01*
X102043333Y-117685619D01*
X101995714Y-117638000D01*
X101900476Y-117590380D01*
X101201904Y-114030380D02*
X100630476Y-114030380D01*
X100916190Y-115030380D02*
X100916190Y-114030380D01*
X100297142Y-115030380D02*
X100297142Y-114030380D01*
X99916190Y-114030380D01*
X99820952Y-114078000D01*
X99773333Y-114125619D01*
X99725714Y-114220857D01*
X99725714Y-114363714D01*
X99773333Y-114458952D01*
X99820952Y-114506571D01*
X99916190Y-114554190D01*
X100297142Y-114554190D01*
X99249523Y-115030380D02*
X99059047Y-115030380D01*
X98963809Y-114982761D01*
X98916190Y-114935142D01*
X98820952Y-114792285D01*
X98773333Y-114601809D01*
X98773333Y-114220857D01*
X98820952Y-114125619D01*
X98868571Y-114078000D01*
X98963809Y-114030380D01*
X99154285Y-114030380D01*
X99249523Y-114078000D01*
X99297142Y-114125619D01*
X99344761Y-114220857D01*
X99344761Y-114458952D01*
X99297142Y-114554190D01*
X99249523Y-114601809D01*
X99154285Y-114649428D01*
X98963809Y-114649428D01*
X98868571Y-114601809D01*
X98820952Y-114554190D01*
X98773333Y-114458952D01*
X143141904Y-86510380D02*
X142570476Y-86510380D01*
X142856190Y-87510380D02*
X142856190Y-86510380D01*
X142237142Y-87510380D02*
X142237142Y-86510380D01*
X141856190Y-86510380D01*
X141760952Y-86558000D01*
X141713333Y-86605619D01*
X141665714Y-86700857D01*
X141665714Y-86843714D01*
X141713333Y-86938952D01*
X141760952Y-86986571D01*
X141856190Y-87034190D01*
X142237142Y-87034190D01*
X141332380Y-86510380D02*
X140665714Y-86510380D01*
X141094285Y-87510380D01*
X136391904Y-97080380D02*
X135820476Y-97080380D01*
X136106190Y-98080380D02*
X136106190Y-97080380D01*
X135487142Y-98080380D02*
X135487142Y-97080380D01*
X135106190Y-97080380D01*
X135010952Y-97128000D01*
X134963333Y-97175619D01*
X134915714Y-97270857D01*
X134915714Y-97413714D01*
X134963333Y-97508952D01*
X135010952Y-97556571D01*
X135106190Y-97604190D01*
X135487142Y-97604190D01*
X134058571Y-97080380D02*
X134249047Y-97080380D01*
X134344285Y-97128000D01*
X134391904Y-97175619D01*
X134487142Y-97318476D01*
X134534761Y-97508952D01*
X134534761Y-97889904D01*
X134487142Y-97985142D01*
X134439523Y-98032761D01*
X134344285Y-98080380D01*
X134153809Y-98080380D01*
X134058571Y-98032761D01*
X134010952Y-97985142D01*
X133963333Y-97889904D01*
X133963333Y-97651809D01*
X134010952Y-97556571D01*
X134058571Y-97508952D01*
X134153809Y-97461333D01*
X134344285Y-97461333D01*
X134439523Y-97508952D01*
X134487142Y-97556571D01*
X134534761Y-97651809D01*
X120651904Y-95790380D02*
X120080476Y-95790380D01*
X120366190Y-96790380D02*
X120366190Y-95790380D01*
X119747142Y-96790380D02*
X119747142Y-95790380D01*
X119366190Y-95790380D01*
X119270952Y-95838000D01*
X119223333Y-95885619D01*
X119175714Y-95980857D01*
X119175714Y-96123714D01*
X119223333Y-96218952D01*
X119270952Y-96266571D01*
X119366190Y-96314190D01*
X119747142Y-96314190D01*
X118270952Y-95790380D02*
X118747142Y-95790380D01*
X118794761Y-96266571D01*
X118747142Y-96218952D01*
X118651904Y-96171333D01*
X118413809Y-96171333D01*
X118318571Y-96218952D01*
X118270952Y-96266571D01*
X118223333Y-96361809D01*
X118223333Y-96599904D01*
X118270952Y-96695142D01*
X118318571Y-96742761D01*
X118413809Y-96790380D01*
X118651904Y-96790380D01*
X118747142Y-96742761D01*
X118794761Y-96695142D01*
X136351904Y-86700380D02*
X135780476Y-86700380D01*
X136066190Y-87700380D02*
X136066190Y-86700380D01*
X135447142Y-87700380D02*
X135447142Y-86700380D01*
X135066190Y-86700380D01*
X134970952Y-86748000D01*
X134923333Y-86795619D01*
X134875714Y-86890857D01*
X134875714Y-87033714D01*
X134923333Y-87128952D01*
X134970952Y-87176571D01*
X135066190Y-87224190D01*
X135447142Y-87224190D01*
X134018571Y-87033714D02*
X134018571Y-87700380D01*
X134256666Y-86652761D02*
X134494761Y-87367047D01*
X133875714Y-87367047D01*
X87711904Y-114200380D02*
X87140476Y-114200380D01*
X87426190Y-115200380D02*
X87426190Y-114200380D01*
X86807142Y-115200380D02*
X86807142Y-114200380D01*
X86426190Y-114200380D01*
X86330952Y-114248000D01*
X86283333Y-114295619D01*
X86235714Y-114390857D01*
X86235714Y-114533714D01*
X86283333Y-114628952D01*
X86330952Y-114676571D01*
X86426190Y-114724190D01*
X86807142Y-114724190D01*
X85902380Y-114200380D02*
X85283333Y-114200380D01*
X85616666Y-114581333D01*
X85473809Y-114581333D01*
X85378571Y-114628952D01*
X85330952Y-114676571D01*
X85283333Y-114771809D01*
X85283333Y-115009904D01*
X85330952Y-115105142D01*
X85378571Y-115152761D01*
X85473809Y-115200380D01*
X85759523Y-115200380D01*
X85854761Y-115152761D01*
X85902380Y-115105142D01*
X87751904Y-111480380D02*
X87180476Y-111480380D01*
X87466190Y-112480380D02*
X87466190Y-111480380D01*
X86847142Y-112480380D02*
X86847142Y-111480380D01*
X86466190Y-111480380D01*
X86370952Y-111528000D01*
X86323333Y-111575619D01*
X86275714Y-111670857D01*
X86275714Y-111813714D01*
X86323333Y-111908952D01*
X86370952Y-111956571D01*
X86466190Y-112004190D01*
X86847142Y-112004190D01*
X85894761Y-111575619D02*
X85847142Y-111528000D01*
X85751904Y-111480380D01*
X85513809Y-111480380D01*
X85418571Y-111528000D01*
X85370952Y-111575619D01*
X85323333Y-111670857D01*
X85323333Y-111766095D01*
X85370952Y-111908952D01*
X85942380Y-112480380D01*
X85323333Y-112480380D01*
X89921904Y-119530380D02*
X89350476Y-119530380D01*
X89636190Y-120530380D02*
X89636190Y-119530380D01*
X89017142Y-120530380D02*
X89017142Y-119530380D01*
X88636190Y-119530380D01*
X88540952Y-119578000D01*
X88493333Y-119625619D01*
X88445714Y-119720857D01*
X88445714Y-119863714D01*
X88493333Y-119958952D01*
X88540952Y-120006571D01*
X88636190Y-120054190D01*
X89017142Y-120054190D01*
X87493333Y-120530380D02*
X88064761Y-120530380D01*
X87779047Y-120530380D02*
X87779047Y-119530380D01*
X87874285Y-119673238D01*
X87969523Y-119768476D01*
X88064761Y-119816095D01*
M02*
