G04 #@! TF.GenerationSoftware,KiCad,Pcbnew,5.1.7-a382d34a8~88~ubuntu18.04.1*
G04 #@! TF.CreationDate,2020-12-16T19:11:53-05:00*
G04 #@! TF.ProjectId,SmallKat v2,536d616c-6c4b-4617-9420-76322e6b6963,rev?*
G04 #@! TF.SameCoordinates,Original*
G04 #@! TF.FileFunction,Legend,Top*
G04 #@! TF.FilePolarity,Positive*
%FSLAX46Y46*%
G04 Gerber Fmt 4.6, Leading zero omitted, Abs format (unit mm)*
G04 Created by KiCad (PCBNEW 5.1.7-a382d34a8~88~ubuntu18.04.1) date 2020-12-16 19:11:53*
%MOMM*%
%LPD*%
G01*
G04 APERTURE LIST*
%ADD10C,0.150000*%
%ADD11C,0.250000*%
%ADD12C,0.300000*%
%ADD13C,0.120000*%
%ADD14C,0.254000*%
%ADD15C,0.200000*%
G04 APERTURE END LIST*
D10*
X140000000Y-114450000D02*
X143650000Y-116100000D01*
D11*
X163952857Y-101418571D02*
X164024285Y-101204285D01*
X164095714Y-101132857D01*
X164238571Y-101061428D01*
X164452857Y-101061428D01*
X164595714Y-101132857D01*
X164667142Y-101204285D01*
X164738571Y-101347142D01*
X164738571Y-101918571D01*
X163238571Y-101918571D01*
X163238571Y-101418571D01*
X163310000Y-101275714D01*
X163381428Y-101204285D01*
X163524285Y-101132857D01*
X163667142Y-101132857D01*
X163810000Y-101204285D01*
X163881428Y-101275714D01*
X163952857Y-101418571D01*
X163952857Y-101918571D01*
X164738571Y-99775714D02*
X163952857Y-99775714D01*
X163810000Y-99847142D01*
X163738571Y-99990000D01*
X163738571Y-100275714D01*
X163810000Y-100418571D01*
X164667142Y-99775714D02*
X164738571Y-99918571D01*
X164738571Y-100275714D01*
X164667142Y-100418571D01*
X164524285Y-100490000D01*
X164381428Y-100490000D01*
X164238571Y-100418571D01*
X164167142Y-100275714D01*
X164167142Y-99918571D01*
X164095714Y-99775714D01*
X163738571Y-99275714D02*
X163738571Y-98704285D01*
X163238571Y-99061428D02*
X164524285Y-99061428D01*
X164667142Y-98990000D01*
X164738571Y-98847142D01*
X164738571Y-98704285D01*
X163738571Y-98418571D02*
X163738571Y-97847142D01*
X163238571Y-98204285D02*
X164524285Y-98204285D01*
X164667142Y-98132857D01*
X164738571Y-97990000D01*
X164738571Y-97847142D01*
X126185714Y-91242857D02*
X125685714Y-91242857D01*
X125685714Y-92028571D02*
X125685714Y-90528571D01*
X126400000Y-90528571D01*
X127614285Y-91028571D02*
X127614285Y-92028571D01*
X126971428Y-91028571D02*
X126971428Y-91814285D01*
X127042857Y-91957142D01*
X127185714Y-92028571D01*
X127400000Y-92028571D01*
X127542857Y-91957142D01*
X127614285Y-91885714D01*
X128257142Y-91957142D02*
X128400000Y-92028571D01*
X128685714Y-92028571D01*
X128828571Y-91957142D01*
X128900000Y-91814285D01*
X128900000Y-91742857D01*
X128828571Y-91600000D01*
X128685714Y-91528571D01*
X128471428Y-91528571D01*
X128328571Y-91457142D01*
X128257142Y-91314285D01*
X128257142Y-91242857D01*
X128328571Y-91100000D01*
X128471428Y-91028571D01*
X128685714Y-91028571D01*
X128828571Y-91100000D01*
X130114285Y-91957142D02*
X129971428Y-92028571D01*
X129685714Y-92028571D01*
X129542857Y-91957142D01*
X129471428Y-91814285D01*
X129471428Y-91242857D01*
X129542857Y-91100000D01*
X129685714Y-91028571D01*
X129971428Y-91028571D01*
X130114285Y-91100000D01*
X130185714Y-91242857D01*
X130185714Y-91385714D01*
X129471428Y-91528571D01*
X104935714Y-89592857D02*
X104435714Y-89592857D01*
X104435714Y-90378571D02*
X104435714Y-88878571D01*
X105150000Y-88878571D01*
X106364285Y-89378571D02*
X106364285Y-90378571D01*
X105721428Y-89378571D02*
X105721428Y-90164285D01*
X105792857Y-90307142D01*
X105935714Y-90378571D01*
X106150000Y-90378571D01*
X106292857Y-90307142D01*
X106364285Y-90235714D01*
X107007142Y-90307142D02*
X107150000Y-90378571D01*
X107435714Y-90378571D01*
X107578571Y-90307142D01*
X107650000Y-90164285D01*
X107650000Y-90092857D01*
X107578571Y-89950000D01*
X107435714Y-89878571D01*
X107221428Y-89878571D01*
X107078571Y-89807142D01*
X107007142Y-89664285D01*
X107007142Y-89592857D01*
X107078571Y-89450000D01*
X107221428Y-89378571D01*
X107435714Y-89378571D01*
X107578571Y-89450000D01*
X108864285Y-90307142D02*
X108721428Y-90378571D01*
X108435714Y-90378571D01*
X108292857Y-90307142D01*
X108221428Y-90164285D01*
X108221428Y-89592857D01*
X108292857Y-89450000D01*
X108435714Y-89378571D01*
X108721428Y-89378571D01*
X108864285Y-89450000D01*
X108935714Y-89592857D01*
X108935714Y-89735714D01*
X108221428Y-89878571D01*
X130585714Y-129292857D02*
X130085714Y-129292857D01*
X130085714Y-130078571D02*
X130085714Y-128578571D01*
X130800000Y-128578571D01*
X132014285Y-129078571D02*
X132014285Y-130078571D01*
X131371428Y-129078571D02*
X131371428Y-129864285D01*
X131442857Y-130007142D01*
X131585714Y-130078571D01*
X131800000Y-130078571D01*
X131942857Y-130007142D01*
X132014285Y-129935714D01*
X132657142Y-130007142D02*
X132800000Y-130078571D01*
X133085714Y-130078571D01*
X133228571Y-130007142D01*
X133300000Y-129864285D01*
X133300000Y-129792857D01*
X133228571Y-129650000D01*
X133085714Y-129578571D01*
X132871428Y-129578571D01*
X132728571Y-129507142D01*
X132657142Y-129364285D01*
X132657142Y-129292857D01*
X132728571Y-129150000D01*
X132871428Y-129078571D01*
X133085714Y-129078571D01*
X133228571Y-129150000D01*
X134514285Y-130007142D02*
X134371428Y-130078571D01*
X134085714Y-130078571D01*
X133942857Y-130007142D01*
X133871428Y-129864285D01*
X133871428Y-129292857D01*
X133942857Y-129150000D01*
X134085714Y-129078571D01*
X134371428Y-129078571D01*
X134514285Y-129150000D01*
X134585714Y-129292857D01*
X134585714Y-129435714D01*
X133871428Y-129578571D01*
X69435714Y-129242857D02*
X68935714Y-129242857D01*
X68935714Y-130028571D02*
X68935714Y-128528571D01*
X69650000Y-128528571D01*
X70864285Y-129028571D02*
X70864285Y-130028571D01*
X70221428Y-129028571D02*
X70221428Y-129814285D01*
X70292857Y-129957142D01*
X70435714Y-130028571D01*
X70650000Y-130028571D01*
X70792857Y-129957142D01*
X70864285Y-129885714D01*
X71507142Y-129957142D02*
X71650000Y-130028571D01*
X71935714Y-130028571D01*
X72078571Y-129957142D01*
X72150000Y-129814285D01*
X72150000Y-129742857D01*
X72078571Y-129600000D01*
X71935714Y-129528571D01*
X71721428Y-129528571D01*
X71578571Y-129457142D01*
X71507142Y-129314285D01*
X71507142Y-129242857D01*
X71578571Y-129100000D01*
X71721428Y-129028571D01*
X71935714Y-129028571D01*
X72078571Y-129100000D01*
X73364285Y-129957142D02*
X73221428Y-130028571D01*
X72935714Y-130028571D01*
X72792857Y-129957142D01*
X72721428Y-129814285D01*
X72721428Y-129242857D01*
X72792857Y-129100000D01*
X72935714Y-129028571D01*
X73221428Y-129028571D01*
X73364285Y-129100000D01*
X73435714Y-129242857D01*
X73435714Y-129385714D01*
X72721428Y-129528571D01*
X69085714Y-89042857D02*
X68585714Y-89042857D01*
X68585714Y-89828571D02*
X68585714Y-88328571D01*
X69300000Y-88328571D01*
X70514285Y-88828571D02*
X70514285Y-89828571D01*
X69871428Y-88828571D02*
X69871428Y-89614285D01*
X69942857Y-89757142D01*
X70085714Y-89828571D01*
X70300000Y-89828571D01*
X70442857Y-89757142D01*
X70514285Y-89685714D01*
X71157142Y-89757142D02*
X71300000Y-89828571D01*
X71585714Y-89828571D01*
X71728571Y-89757142D01*
X71800000Y-89614285D01*
X71800000Y-89542857D01*
X71728571Y-89400000D01*
X71585714Y-89328571D01*
X71371428Y-89328571D01*
X71228571Y-89257142D01*
X71157142Y-89114285D01*
X71157142Y-89042857D01*
X71228571Y-88900000D01*
X71371428Y-88828571D01*
X71585714Y-88828571D01*
X71728571Y-88900000D01*
X73014285Y-89757142D02*
X72871428Y-89828571D01*
X72585714Y-89828571D01*
X72442857Y-89757142D01*
X72371428Y-89614285D01*
X72371428Y-89042857D01*
X72442857Y-88900000D01*
X72585714Y-88828571D01*
X72871428Y-88828571D01*
X73014285Y-88900000D01*
X73085714Y-89042857D01*
X73085714Y-89185714D01*
X72371428Y-89328571D01*
X87678571Y-94978571D02*
X88607142Y-94978571D01*
X88107142Y-95550000D01*
X88321428Y-95550000D01*
X88464285Y-95621428D01*
X88535714Y-95692857D01*
X88607142Y-95835714D01*
X88607142Y-96192857D01*
X88535714Y-96335714D01*
X88464285Y-96407142D01*
X88321428Y-96478571D01*
X87892857Y-96478571D01*
X87750000Y-96407142D01*
X87678571Y-96335714D01*
X89107142Y-95478571D02*
X89464285Y-96478571D01*
X89821428Y-95478571D01*
X118014285Y-85278571D02*
X117728571Y-85278571D01*
X117585714Y-85350000D01*
X117514285Y-85421428D01*
X117371428Y-85635714D01*
X117300000Y-85921428D01*
X117300000Y-86492857D01*
X117371428Y-86635714D01*
X117442857Y-86707142D01*
X117585714Y-86778571D01*
X117871428Y-86778571D01*
X118014285Y-86707142D01*
X118085714Y-86635714D01*
X118157142Y-86492857D01*
X118157142Y-86135714D01*
X118085714Y-85992857D01*
X118014285Y-85921428D01*
X117871428Y-85850000D01*
X117585714Y-85850000D01*
X117442857Y-85921428D01*
X117371428Y-85992857D01*
X117300000Y-86135714D01*
X118657142Y-85778571D02*
X119014285Y-86778571D01*
X119371428Y-85778571D01*
D12*
X94271428Y-122052857D02*
X94485714Y-122124285D01*
X94557142Y-122195714D01*
X94628571Y-122338571D01*
X94628571Y-122552857D01*
X94557142Y-122695714D01*
X94485714Y-122767142D01*
X94342857Y-122838571D01*
X93771428Y-122838571D01*
X93771428Y-121338571D01*
X94271428Y-121338571D01*
X94414285Y-121410000D01*
X94485714Y-121481428D01*
X94557142Y-121624285D01*
X94557142Y-121767142D01*
X94485714Y-121910000D01*
X94414285Y-121981428D01*
X94271428Y-122052857D01*
X93771428Y-122052857D01*
X95485714Y-122838571D02*
X95342857Y-122767142D01*
X95271428Y-122695714D01*
X95200000Y-122552857D01*
X95200000Y-122124285D01*
X95271428Y-121981428D01*
X95342857Y-121910000D01*
X95485714Y-121838571D01*
X95700000Y-121838571D01*
X95842857Y-121910000D01*
X95914285Y-121981428D01*
X95985714Y-122124285D01*
X95985714Y-122552857D01*
X95914285Y-122695714D01*
X95842857Y-122767142D01*
X95700000Y-122838571D01*
X95485714Y-122838571D01*
X96842857Y-122838571D02*
X96700000Y-122767142D01*
X96628571Y-122695714D01*
X96557142Y-122552857D01*
X96557142Y-122124285D01*
X96628571Y-121981428D01*
X96700000Y-121910000D01*
X96842857Y-121838571D01*
X97057142Y-121838571D01*
X97200000Y-121910000D01*
X97271428Y-121981428D01*
X97342857Y-122124285D01*
X97342857Y-122552857D01*
X97271428Y-122695714D01*
X97200000Y-122767142D01*
X97057142Y-122838571D01*
X96842857Y-122838571D01*
X97771428Y-121838571D02*
X98342857Y-121838571D01*
X97985714Y-121338571D02*
X97985714Y-122624285D01*
X98057142Y-122767142D01*
X98200000Y-122838571D01*
X98342857Y-122838571D01*
X106588857Y-127400857D02*
X107088857Y-127400857D01*
X107303142Y-128186571D02*
X106588857Y-128186571D01*
X106588857Y-126686571D01*
X107303142Y-126686571D01*
X107946000Y-128186571D02*
X107946000Y-126686571D01*
X108803142Y-128186571D01*
X108803142Y-126686571D01*
X77450000Y-112228571D02*
X77450000Y-110728571D01*
X78021428Y-110728571D01*
X78164285Y-110800000D01*
X78235714Y-110871428D01*
X78307142Y-111014285D01*
X78307142Y-111228571D01*
X78235714Y-111371428D01*
X78164285Y-111442857D01*
X78021428Y-111514285D01*
X77450000Y-111514285D01*
X79592857Y-112228571D02*
X79592857Y-111442857D01*
X79521428Y-111300000D01*
X79378571Y-111228571D01*
X79092857Y-111228571D01*
X78950000Y-111300000D01*
X79592857Y-112157142D02*
X79450000Y-112228571D01*
X79092857Y-112228571D01*
X78950000Y-112157142D01*
X78878571Y-112014285D01*
X78878571Y-111871428D01*
X78950000Y-111728571D01*
X79092857Y-111657142D01*
X79450000Y-111657142D01*
X79592857Y-111585714D01*
X80307142Y-111228571D02*
X80307142Y-112228571D01*
X80307142Y-111371428D02*
X80378571Y-111300000D01*
X80521428Y-111228571D01*
X80735714Y-111228571D01*
X80878571Y-111300000D01*
X80950000Y-111442857D01*
X80950000Y-112228571D01*
X77292857Y-106028571D02*
X78150000Y-106028571D01*
X77721428Y-107528571D02*
X77721428Y-106028571D01*
X78650000Y-107528571D02*
X78650000Y-106528571D01*
X78650000Y-106028571D02*
X78578571Y-106100000D01*
X78650000Y-106171428D01*
X78721428Y-106100000D01*
X78650000Y-106028571D01*
X78650000Y-106171428D01*
X79578571Y-107528571D02*
X79435714Y-107457142D01*
X79364285Y-107314285D01*
X79364285Y-106028571D01*
X79935714Y-106528571D02*
X80507142Y-106528571D01*
X80150000Y-106028571D02*
X80150000Y-107314285D01*
X80221428Y-107457142D01*
X80364285Y-107528571D01*
X80507142Y-107528571D01*
X137392857Y-110628571D02*
X138250000Y-110628571D01*
X137821428Y-112128571D02*
X137821428Y-110628571D01*
X138750000Y-112128571D02*
X138750000Y-111128571D01*
X138750000Y-110628571D02*
X138678571Y-110700000D01*
X138750000Y-110771428D01*
X138821428Y-110700000D01*
X138750000Y-110628571D01*
X138750000Y-110771428D01*
X139678571Y-112128571D02*
X139535714Y-112057142D01*
X139464285Y-111914285D01*
X139464285Y-110628571D01*
X140035714Y-111128571D02*
X140607142Y-111128571D01*
X140250000Y-110628571D02*
X140250000Y-111914285D01*
X140321428Y-112057142D01*
X140464285Y-112128571D01*
X140607142Y-112128571D01*
X137300000Y-106878571D02*
X137300000Y-105378571D01*
X137871428Y-105378571D01*
X138014285Y-105450000D01*
X138085714Y-105521428D01*
X138157142Y-105664285D01*
X138157142Y-105878571D01*
X138085714Y-106021428D01*
X138014285Y-106092857D01*
X137871428Y-106164285D01*
X137300000Y-106164285D01*
X139442857Y-106878571D02*
X139442857Y-106092857D01*
X139371428Y-105950000D01*
X139228571Y-105878571D01*
X138942857Y-105878571D01*
X138800000Y-105950000D01*
X139442857Y-106807142D02*
X139300000Y-106878571D01*
X138942857Y-106878571D01*
X138800000Y-106807142D01*
X138728571Y-106664285D01*
X138728571Y-106521428D01*
X138800000Y-106378571D01*
X138942857Y-106307142D01*
X139300000Y-106307142D01*
X139442857Y-106235714D01*
X140157142Y-105878571D02*
X140157142Y-106878571D01*
X140157142Y-106021428D02*
X140228571Y-105950000D01*
X140371428Y-105878571D01*
X140585714Y-105878571D01*
X140728571Y-105950000D01*
X140800000Y-106092857D01*
X140800000Y-106878571D01*
D10*
X143650000Y-116100000D02*
X144280000Y-117680000D01*
X136900000Y-113850000D02*
X140000000Y-114450000D01*
D12*
X144527142Y-119197142D02*
X144741428Y-119268571D01*
X145098571Y-119268571D01*
X145241428Y-119197142D01*
X145312857Y-119125714D01*
X145384285Y-118982857D01*
X145384285Y-118840000D01*
X145312857Y-118697142D01*
X145241428Y-118625714D01*
X145098571Y-118554285D01*
X144812857Y-118482857D01*
X144670000Y-118411428D01*
X144598571Y-118340000D01*
X144527142Y-118197142D01*
X144527142Y-118054285D01*
X144598571Y-117911428D01*
X144670000Y-117840000D01*
X144812857Y-117768571D01*
X145170000Y-117768571D01*
X145384285Y-117840000D01*
X146027142Y-119268571D02*
X146027142Y-117768571D01*
X146670000Y-119268571D02*
X146670000Y-118482857D01*
X146598571Y-118340000D01*
X146455714Y-118268571D01*
X146241428Y-118268571D01*
X146098571Y-118340000D01*
X146027142Y-118411428D01*
X147598571Y-119268571D02*
X147455714Y-119197142D01*
X147384285Y-119125714D01*
X147312857Y-118982857D01*
X147312857Y-118554285D01*
X147384285Y-118411428D01*
X147455714Y-118340000D01*
X147598571Y-118268571D01*
X147812857Y-118268571D01*
X147955714Y-118340000D01*
X148027142Y-118411428D01*
X148098571Y-118554285D01*
X148098571Y-118982857D01*
X148027142Y-119125714D01*
X147955714Y-119197142D01*
X147812857Y-119268571D01*
X147598571Y-119268571D01*
X149384285Y-118268571D02*
X149384285Y-119268571D01*
X148741428Y-118268571D02*
X148741428Y-119054285D01*
X148812857Y-119197142D01*
X148955714Y-119268571D01*
X149170000Y-119268571D01*
X149312857Y-119197142D01*
X149384285Y-119125714D01*
X150312857Y-119268571D02*
X150170000Y-119197142D01*
X150098571Y-119054285D01*
X150098571Y-117768571D01*
X151527142Y-119268571D02*
X151527142Y-117768571D01*
X151527142Y-119197142D02*
X151384285Y-119268571D01*
X151098571Y-119268571D01*
X150955714Y-119197142D01*
X150884285Y-119125714D01*
X150812857Y-118982857D01*
X150812857Y-118554285D01*
X150884285Y-118411428D01*
X150955714Y-118340000D01*
X151098571Y-118268571D01*
X151384285Y-118268571D01*
X151527142Y-118340000D01*
X152812857Y-119197142D02*
X152670000Y-119268571D01*
X152384285Y-119268571D01*
X152241428Y-119197142D01*
X152170000Y-119054285D01*
X152170000Y-118482857D01*
X152241428Y-118340000D01*
X152384285Y-118268571D01*
X152670000Y-118268571D01*
X152812857Y-118340000D01*
X152884285Y-118482857D01*
X152884285Y-118625714D01*
X152170000Y-118768571D01*
X153527142Y-119268571D02*
X153527142Y-118268571D01*
X153527142Y-118554285D02*
X153598571Y-118411428D01*
X153670000Y-118340000D01*
X153812857Y-118268571D01*
X153955714Y-118268571D01*
X137207142Y-104107142D02*
X137421428Y-104178571D01*
X137778571Y-104178571D01*
X137921428Y-104107142D01*
X137992857Y-104035714D01*
X138064285Y-103892857D01*
X138064285Y-103750000D01*
X137992857Y-103607142D01*
X137921428Y-103535714D01*
X137778571Y-103464285D01*
X137492857Y-103392857D01*
X137350000Y-103321428D01*
X137278571Y-103250000D01*
X137207142Y-103107142D01*
X137207142Y-102964285D01*
X137278571Y-102821428D01*
X137350000Y-102750000D01*
X137492857Y-102678571D01*
X137850000Y-102678571D01*
X138064285Y-102750000D01*
X138707142Y-104178571D02*
X138707142Y-102678571D01*
X139350000Y-104178571D02*
X139350000Y-103392857D01*
X139278571Y-103250000D01*
X139135714Y-103178571D01*
X138921428Y-103178571D01*
X138778571Y-103250000D01*
X138707142Y-103321428D01*
X140278571Y-104178571D02*
X140135714Y-104107142D01*
X140064285Y-104035714D01*
X139992857Y-103892857D01*
X139992857Y-103464285D01*
X140064285Y-103321428D01*
X140135714Y-103250000D01*
X140278571Y-103178571D01*
X140492857Y-103178571D01*
X140635714Y-103250000D01*
X140707142Y-103321428D01*
X140778571Y-103464285D01*
X140778571Y-103892857D01*
X140707142Y-104035714D01*
X140635714Y-104107142D01*
X140492857Y-104178571D01*
X140278571Y-104178571D01*
X142064285Y-103178571D02*
X142064285Y-104178571D01*
X141421428Y-103178571D02*
X141421428Y-103964285D01*
X141492857Y-104107142D01*
X141635714Y-104178571D01*
X141850000Y-104178571D01*
X141992857Y-104107142D01*
X142064285Y-104035714D01*
X142992857Y-104178571D02*
X142850000Y-104107142D01*
X142778571Y-103964285D01*
X142778571Y-102678571D01*
X144207142Y-104178571D02*
X144207142Y-102678571D01*
X144207142Y-104107142D02*
X144064285Y-104178571D01*
X143778571Y-104178571D01*
X143635714Y-104107142D01*
X143564285Y-104035714D01*
X143492857Y-103892857D01*
X143492857Y-103464285D01*
X143564285Y-103321428D01*
X143635714Y-103250000D01*
X143778571Y-103178571D01*
X144064285Y-103178571D01*
X144207142Y-103250000D01*
X145492857Y-104107142D02*
X145350000Y-104178571D01*
X145064285Y-104178571D01*
X144921428Y-104107142D01*
X144850000Y-103964285D01*
X144850000Y-103392857D01*
X144921428Y-103250000D01*
X145064285Y-103178571D01*
X145350000Y-103178571D01*
X145492857Y-103250000D01*
X145564285Y-103392857D01*
X145564285Y-103535714D01*
X144850000Y-103678571D01*
X146207142Y-104178571D02*
X146207142Y-103178571D01*
X146207142Y-103464285D02*
X146278571Y-103321428D01*
X146350000Y-103250000D01*
X146492857Y-103178571D01*
X146635714Y-103178571D01*
X77357142Y-114707142D02*
X77571428Y-114778571D01*
X77928571Y-114778571D01*
X78071428Y-114707142D01*
X78142857Y-114635714D01*
X78214285Y-114492857D01*
X78214285Y-114350000D01*
X78142857Y-114207142D01*
X78071428Y-114135714D01*
X77928571Y-114064285D01*
X77642857Y-113992857D01*
X77500000Y-113921428D01*
X77428571Y-113850000D01*
X77357142Y-113707142D01*
X77357142Y-113564285D01*
X77428571Y-113421428D01*
X77500000Y-113350000D01*
X77642857Y-113278571D01*
X78000000Y-113278571D01*
X78214285Y-113350000D01*
X78857142Y-114778571D02*
X78857142Y-113278571D01*
X79500000Y-114778571D02*
X79500000Y-113992857D01*
X79428571Y-113850000D01*
X79285714Y-113778571D01*
X79071428Y-113778571D01*
X78928571Y-113850000D01*
X78857142Y-113921428D01*
X80428571Y-114778571D02*
X80285714Y-114707142D01*
X80214285Y-114635714D01*
X80142857Y-114492857D01*
X80142857Y-114064285D01*
X80214285Y-113921428D01*
X80285714Y-113850000D01*
X80428571Y-113778571D01*
X80642857Y-113778571D01*
X80785714Y-113850000D01*
X80857142Y-113921428D01*
X80928571Y-114064285D01*
X80928571Y-114492857D01*
X80857142Y-114635714D01*
X80785714Y-114707142D01*
X80642857Y-114778571D01*
X80428571Y-114778571D01*
X82214285Y-113778571D02*
X82214285Y-114778571D01*
X81571428Y-113778571D02*
X81571428Y-114564285D01*
X81642857Y-114707142D01*
X81785714Y-114778571D01*
X82000000Y-114778571D01*
X82142857Y-114707142D01*
X82214285Y-114635714D01*
X83142857Y-114778571D02*
X83000000Y-114707142D01*
X82928571Y-114564285D01*
X82928571Y-113278571D01*
X84357142Y-114778571D02*
X84357142Y-113278571D01*
X84357142Y-114707142D02*
X84214285Y-114778571D01*
X83928571Y-114778571D01*
X83785714Y-114707142D01*
X83714285Y-114635714D01*
X83642857Y-114492857D01*
X83642857Y-114064285D01*
X83714285Y-113921428D01*
X83785714Y-113850000D01*
X83928571Y-113778571D01*
X84214285Y-113778571D01*
X84357142Y-113850000D01*
X85642857Y-114707142D02*
X85500000Y-114778571D01*
X85214285Y-114778571D01*
X85071428Y-114707142D01*
X85000000Y-114564285D01*
X85000000Y-113992857D01*
X85071428Y-113850000D01*
X85214285Y-113778571D01*
X85500000Y-113778571D01*
X85642857Y-113850000D01*
X85714285Y-113992857D01*
X85714285Y-114135714D01*
X85000000Y-114278571D01*
X86357142Y-114778571D02*
X86357142Y-113778571D01*
X86357142Y-114064285D02*
X86428571Y-113921428D01*
X86500000Y-113850000D01*
X86642857Y-113778571D01*
X86785714Y-113778571D01*
X77307142Y-104907142D02*
X77521428Y-104978571D01*
X77878571Y-104978571D01*
X78021428Y-104907142D01*
X78092857Y-104835714D01*
X78164285Y-104692857D01*
X78164285Y-104550000D01*
X78092857Y-104407142D01*
X78021428Y-104335714D01*
X77878571Y-104264285D01*
X77592857Y-104192857D01*
X77450000Y-104121428D01*
X77378571Y-104050000D01*
X77307142Y-103907142D01*
X77307142Y-103764285D01*
X77378571Y-103621428D01*
X77450000Y-103550000D01*
X77592857Y-103478571D01*
X77950000Y-103478571D01*
X78164285Y-103550000D01*
X78807142Y-104978571D02*
X78807142Y-103478571D01*
X79450000Y-104978571D02*
X79450000Y-104192857D01*
X79378571Y-104050000D01*
X79235714Y-103978571D01*
X79021428Y-103978571D01*
X78878571Y-104050000D01*
X78807142Y-104121428D01*
X80378571Y-104978571D02*
X80235714Y-104907142D01*
X80164285Y-104835714D01*
X80092857Y-104692857D01*
X80092857Y-104264285D01*
X80164285Y-104121428D01*
X80235714Y-104050000D01*
X80378571Y-103978571D01*
X80592857Y-103978571D01*
X80735714Y-104050000D01*
X80807142Y-104121428D01*
X80878571Y-104264285D01*
X80878571Y-104692857D01*
X80807142Y-104835714D01*
X80735714Y-104907142D01*
X80592857Y-104978571D01*
X80378571Y-104978571D01*
X82164285Y-103978571D02*
X82164285Y-104978571D01*
X81521428Y-103978571D02*
X81521428Y-104764285D01*
X81592857Y-104907142D01*
X81735714Y-104978571D01*
X81950000Y-104978571D01*
X82092857Y-104907142D01*
X82164285Y-104835714D01*
X83092857Y-104978571D02*
X82950000Y-104907142D01*
X82878571Y-104764285D01*
X82878571Y-103478571D01*
X84307142Y-104978571D02*
X84307142Y-103478571D01*
X84307142Y-104907142D02*
X84164285Y-104978571D01*
X83878571Y-104978571D01*
X83735714Y-104907142D01*
X83664285Y-104835714D01*
X83592857Y-104692857D01*
X83592857Y-104264285D01*
X83664285Y-104121428D01*
X83735714Y-104050000D01*
X83878571Y-103978571D01*
X84164285Y-103978571D01*
X84307142Y-104050000D01*
X85592857Y-104907142D02*
X85450000Y-104978571D01*
X85164285Y-104978571D01*
X85021428Y-104907142D01*
X84950000Y-104764285D01*
X84950000Y-104192857D01*
X85021428Y-104050000D01*
X85164285Y-103978571D01*
X85450000Y-103978571D01*
X85592857Y-104050000D01*
X85664285Y-104192857D01*
X85664285Y-104335714D01*
X84950000Y-104478571D01*
X86307142Y-104978571D02*
X86307142Y-103978571D01*
X86307142Y-104264285D02*
X86378571Y-104121428D01*
X86450000Y-104050000D01*
X86592857Y-103978571D01*
X86735714Y-103978571D01*
X77392857Y-101592857D02*
X77892857Y-101592857D01*
X78107142Y-102378571D02*
X77392857Y-102378571D01*
X77392857Y-100878571D01*
X78107142Y-100878571D01*
X78964285Y-102378571D02*
X78821428Y-102307142D01*
X78750000Y-102164285D01*
X78750000Y-100878571D01*
X79535714Y-102378571D02*
X79535714Y-100878571D01*
X79535714Y-101450000D02*
X79678571Y-101378571D01*
X79964285Y-101378571D01*
X80107142Y-101450000D01*
X80178571Y-101521428D01*
X80250000Y-101664285D01*
X80250000Y-102092857D01*
X80178571Y-102235714D01*
X80107142Y-102307142D01*
X79964285Y-102378571D01*
X79678571Y-102378571D01*
X79535714Y-102307142D01*
X81107142Y-102378571D02*
X80964285Y-102307142D01*
X80892857Y-102235714D01*
X80821428Y-102092857D01*
X80821428Y-101664285D01*
X80892857Y-101521428D01*
X80964285Y-101450000D01*
X81107142Y-101378571D01*
X81321428Y-101378571D01*
X81464285Y-101450000D01*
X81535714Y-101521428D01*
X81607142Y-101664285D01*
X81607142Y-102092857D01*
X81535714Y-102235714D01*
X81464285Y-102307142D01*
X81321428Y-102378571D01*
X81107142Y-102378571D01*
X82107142Y-101378571D02*
X82392857Y-102378571D01*
X82678571Y-101664285D01*
X82964285Y-102378571D01*
X83250000Y-101378571D01*
X77392857Y-116492857D02*
X77892857Y-116492857D01*
X78107142Y-117278571D02*
X77392857Y-117278571D01*
X77392857Y-115778571D01*
X78107142Y-115778571D01*
X78964285Y-117278571D02*
X78821428Y-117207142D01*
X78750000Y-117064285D01*
X78750000Y-115778571D01*
X79535714Y-117278571D02*
X79535714Y-115778571D01*
X79535714Y-116350000D02*
X79678571Y-116278571D01*
X79964285Y-116278571D01*
X80107142Y-116350000D01*
X80178571Y-116421428D01*
X80250000Y-116564285D01*
X80250000Y-116992857D01*
X80178571Y-117135714D01*
X80107142Y-117207142D01*
X79964285Y-117278571D01*
X79678571Y-117278571D01*
X79535714Y-117207142D01*
X81107142Y-117278571D02*
X80964285Y-117207142D01*
X80892857Y-117135714D01*
X80821428Y-116992857D01*
X80821428Y-116564285D01*
X80892857Y-116421428D01*
X80964285Y-116350000D01*
X81107142Y-116278571D01*
X81321428Y-116278571D01*
X81464285Y-116350000D01*
X81535714Y-116421428D01*
X81607142Y-116564285D01*
X81607142Y-116992857D01*
X81535714Y-117135714D01*
X81464285Y-117207142D01*
X81321428Y-117278571D01*
X81107142Y-117278571D01*
X82107142Y-116278571D02*
X82392857Y-117278571D01*
X82678571Y-116564285D01*
X82964285Y-117278571D01*
X83250000Y-116278571D01*
X137242857Y-116492857D02*
X137742857Y-116492857D01*
X137957142Y-117278571D02*
X137242857Y-117278571D01*
X137242857Y-115778571D01*
X137957142Y-115778571D01*
X138814285Y-117278571D02*
X138671428Y-117207142D01*
X138600000Y-117064285D01*
X138600000Y-115778571D01*
X139385714Y-117278571D02*
X139385714Y-115778571D01*
X139385714Y-116350000D02*
X139528571Y-116278571D01*
X139814285Y-116278571D01*
X139957142Y-116350000D01*
X140028571Y-116421428D01*
X140100000Y-116564285D01*
X140100000Y-116992857D01*
X140028571Y-117135714D01*
X139957142Y-117207142D01*
X139814285Y-117278571D01*
X139528571Y-117278571D01*
X139385714Y-117207142D01*
X140957142Y-117278571D02*
X140814285Y-117207142D01*
X140742857Y-117135714D01*
X140671428Y-116992857D01*
X140671428Y-116564285D01*
X140742857Y-116421428D01*
X140814285Y-116350000D01*
X140957142Y-116278571D01*
X141171428Y-116278571D01*
X141314285Y-116350000D01*
X141385714Y-116421428D01*
X141457142Y-116564285D01*
X141457142Y-116992857D01*
X141385714Y-117135714D01*
X141314285Y-117207142D01*
X141171428Y-117278571D01*
X140957142Y-117278571D01*
X141957142Y-116278571D02*
X142242857Y-117278571D01*
X142528571Y-116564285D01*
X142814285Y-117278571D01*
X143100000Y-116278571D01*
X137242857Y-100892857D02*
X137742857Y-100892857D01*
X137957142Y-101678571D02*
X137242857Y-101678571D01*
X137242857Y-100178571D01*
X137957142Y-100178571D01*
X138814285Y-101678571D02*
X138671428Y-101607142D01*
X138600000Y-101464285D01*
X138600000Y-100178571D01*
X139385714Y-101678571D02*
X139385714Y-100178571D01*
X139385714Y-100750000D02*
X139528571Y-100678571D01*
X139814285Y-100678571D01*
X139957142Y-100750000D01*
X140028571Y-100821428D01*
X140100000Y-100964285D01*
X140100000Y-101392857D01*
X140028571Y-101535714D01*
X139957142Y-101607142D01*
X139814285Y-101678571D01*
X139528571Y-101678571D01*
X139385714Y-101607142D01*
X140957142Y-101678571D02*
X140814285Y-101607142D01*
X140742857Y-101535714D01*
X140671428Y-101392857D01*
X140671428Y-100964285D01*
X140742857Y-100821428D01*
X140814285Y-100750000D01*
X140957142Y-100678571D01*
X141171428Y-100678571D01*
X141314285Y-100750000D01*
X141385714Y-100821428D01*
X141457142Y-100964285D01*
X141457142Y-101392857D01*
X141385714Y-101535714D01*
X141314285Y-101607142D01*
X141171428Y-101678571D01*
X140957142Y-101678571D01*
X141957142Y-100678571D02*
X142242857Y-101678571D01*
X142528571Y-100964285D01*
X142814285Y-101678571D01*
X143100000Y-100678571D01*
X137421428Y-98750000D02*
X138135714Y-98750000D01*
X137278571Y-99178571D02*
X137778571Y-97678571D01*
X138278571Y-99178571D01*
X138778571Y-98178571D02*
X138778571Y-99178571D01*
X138778571Y-98321428D02*
X138850000Y-98250000D01*
X138992857Y-98178571D01*
X139207142Y-98178571D01*
X139350000Y-98250000D01*
X139421428Y-98392857D01*
X139421428Y-99178571D01*
X140135714Y-99178571D02*
X140135714Y-97678571D01*
X140278571Y-98607142D02*
X140707142Y-99178571D01*
X140707142Y-98178571D02*
X140135714Y-98750000D01*
X141564285Y-99178571D02*
X141421428Y-99107142D01*
X141350000Y-98964285D01*
X141350000Y-97678571D01*
X142707142Y-99107142D02*
X142564285Y-99178571D01*
X142278571Y-99178571D01*
X142135714Y-99107142D01*
X142064285Y-98964285D01*
X142064285Y-98392857D01*
X142135714Y-98250000D01*
X142278571Y-98178571D01*
X142564285Y-98178571D01*
X142707142Y-98250000D01*
X142778571Y-98392857D01*
X142778571Y-98535714D01*
X142064285Y-98678571D01*
X137421428Y-119550000D02*
X138135714Y-119550000D01*
X137278571Y-119978571D02*
X137778571Y-118478571D01*
X138278571Y-119978571D01*
X138778571Y-118978571D02*
X138778571Y-119978571D01*
X138778571Y-119121428D02*
X138850000Y-119050000D01*
X138992857Y-118978571D01*
X139207142Y-118978571D01*
X139350000Y-119050000D01*
X139421428Y-119192857D01*
X139421428Y-119978571D01*
X140135714Y-119978571D02*
X140135714Y-118478571D01*
X140278571Y-119407142D02*
X140707142Y-119978571D01*
X140707142Y-118978571D02*
X140135714Y-119550000D01*
X141564285Y-119978571D02*
X141421428Y-119907142D01*
X141350000Y-119764285D01*
X141350000Y-118478571D01*
X142707142Y-119907142D02*
X142564285Y-119978571D01*
X142278571Y-119978571D01*
X142135714Y-119907142D01*
X142064285Y-119764285D01*
X142064285Y-119192857D01*
X142135714Y-119050000D01*
X142278571Y-118978571D01*
X142564285Y-118978571D01*
X142707142Y-119050000D01*
X142778571Y-119192857D01*
X142778571Y-119335714D01*
X142064285Y-119478571D01*
X77421428Y-119550000D02*
X78135714Y-119550000D01*
X77278571Y-119978571D02*
X77778571Y-118478571D01*
X78278571Y-119978571D01*
X78778571Y-118978571D02*
X78778571Y-119978571D01*
X78778571Y-119121428D02*
X78850000Y-119050000D01*
X78992857Y-118978571D01*
X79207142Y-118978571D01*
X79350000Y-119050000D01*
X79421428Y-119192857D01*
X79421428Y-119978571D01*
X80135714Y-119978571D02*
X80135714Y-118478571D01*
X80278571Y-119407142D02*
X80707142Y-119978571D01*
X80707142Y-118978571D02*
X80135714Y-119550000D01*
X81564285Y-119978571D02*
X81421428Y-119907142D01*
X81350000Y-119764285D01*
X81350000Y-118478571D01*
X82707142Y-119907142D02*
X82564285Y-119978571D01*
X82278571Y-119978571D01*
X82135714Y-119907142D01*
X82064285Y-119764285D01*
X82064285Y-119192857D01*
X82135714Y-119050000D01*
X82278571Y-118978571D01*
X82564285Y-118978571D01*
X82707142Y-119050000D01*
X82778571Y-119192857D01*
X82778571Y-119335714D01*
X82064285Y-119478571D01*
X77421428Y-99400000D02*
X78135714Y-99400000D01*
X77278571Y-99828571D02*
X77778571Y-98328571D01*
X78278571Y-99828571D01*
X78778571Y-98828571D02*
X78778571Y-99828571D01*
X78778571Y-98971428D02*
X78850000Y-98900000D01*
X78992857Y-98828571D01*
X79207142Y-98828571D01*
X79350000Y-98900000D01*
X79421428Y-99042857D01*
X79421428Y-99828571D01*
X80135714Y-99828571D02*
X80135714Y-98328571D01*
X80278571Y-99257142D02*
X80707142Y-99828571D01*
X80707142Y-98828571D02*
X80135714Y-99400000D01*
X81564285Y-99828571D02*
X81421428Y-99757142D01*
X81350000Y-99614285D01*
X81350000Y-98328571D01*
X82707142Y-99757142D02*
X82564285Y-99828571D01*
X82278571Y-99828571D01*
X82135714Y-99757142D01*
X82064285Y-99614285D01*
X82064285Y-99042857D01*
X82135714Y-98900000D01*
X82278571Y-98828571D01*
X82564285Y-98828571D01*
X82707142Y-98900000D01*
X82778571Y-99042857D01*
X82778571Y-99185714D01*
X82064285Y-99328571D01*
D13*
X108230800Y-118106200D02*
X108610800Y-118106200D01*
X89990800Y-98781200D02*
X90990800Y-98781200D01*
X89990800Y-99561200D02*
X89990800Y-98781200D01*
X108230800Y-98781200D02*
X107230800Y-98781200D01*
X108230800Y-99561200D02*
X108230800Y-98781200D01*
X143720000Y-106457936D02*
X143720000Y-107662064D01*
X141000000Y-106457936D02*
X141000000Y-107662064D01*
X123177936Y-113910000D02*
X124382064Y-113910000D01*
X123177936Y-116630000D02*
X124382064Y-116630000D01*
X143410000Y-109410000D02*
X141410000Y-109410000D01*
X141410000Y-109410000D02*
X141410000Y-113260000D01*
X143410000Y-109410000D02*
X143410000Y-113260000D01*
X126190000Y-116910000D02*
X124190000Y-116910000D01*
X124190000Y-116910000D02*
X124190000Y-120760000D01*
X126190000Y-116910000D02*
X126190000Y-120760000D01*
X123090000Y-128350000D02*
X124890000Y-128350000D01*
X124890000Y-125130000D02*
X122440000Y-125130000D01*
X145316359Y-116120000D02*
X145623641Y-116120000D01*
X145316359Y-116880000D02*
X145623641Y-116880000D01*
X147513641Y-116880000D02*
X147206359Y-116880000D01*
X147513641Y-116120000D02*
X147206359Y-116120000D01*
X144980000Y-111417878D02*
X144980000Y-112217122D01*
X143860000Y-111417878D02*
X143860000Y-112217122D01*
X144782164Y-109020000D02*
X144997836Y-109020000D01*
X144782164Y-109740000D02*
X144997836Y-109740000D01*
X145768748Y-114095000D02*
X146291252Y-114095000D01*
X145768748Y-115565000D02*
X146291252Y-115565000D01*
X150755000Y-111468748D02*
X150755000Y-111991252D01*
X149285000Y-111468748D02*
X149285000Y-111991252D01*
X117450000Y-95593641D02*
X117450000Y-95286359D01*
X118210000Y-95593641D02*
X118210000Y-95286359D01*
X119586359Y-96070000D02*
X119893641Y-96070000D01*
X119586359Y-96830000D02*
X119893641Y-96830000D01*
X105803641Y-97870000D02*
X105496359Y-97870000D01*
X105803641Y-97110000D02*
X105496359Y-97110000D01*
X121920000Y-127106359D02*
X121920000Y-127413641D01*
X121160000Y-127106359D02*
X121160000Y-127413641D01*
X120926359Y-128320000D02*
X121233641Y-128320000D01*
X120926359Y-129080000D02*
X121233641Y-129080000D01*
X124620000Y-123532122D02*
X124620000Y-122732878D01*
X125740000Y-123532122D02*
X125740000Y-122732878D01*
X148750000Y-112760000D02*
X148750000Y-110960000D01*
X145530000Y-110960000D02*
X145530000Y-113410000D01*
X122801252Y-123095000D02*
X122278748Y-123095000D01*
X122801252Y-121625000D02*
X122278748Y-121625000D01*
X125898748Y-128795000D02*
X126421252Y-128795000D01*
X125898748Y-130265000D02*
X126421252Y-130265000D01*
X123457836Y-124650000D02*
X123242164Y-124650000D01*
X123457836Y-123930000D02*
X123242164Y-123930000D01*
X166390076Y-114003000D02*
X166390000Y-106490000D01*
X161190000Y-106490000D02*
X161189924Y-114003000D01*
X166390000Y-106490000D02*
X161190000Y-106490000D01*
X166390076Y-114003000D02*
G75*
G02*
X161189924Y-114003000I-2600076J0D01*
G01*
X105846000Y-129488000D02*
X106496000Y-129488000D01*
X109546000Y-129488000D02*
X108896000Y-129488000D01*
X108896000Y-135688000D02*
X109546000Y-135688000D01*
X105846000Y-135688000D02*
X106496000Y-135688000D01*
X105846000Y-129488000D02*
X105846000Y-135688000D01*
X109546000Y-135688000D02*
X109546000Y-129488000D01*
X105716000Y-120324000D02*
X105716000Y-120974000D01*
X105716000Y-124024000D02*
X105716000Y-123374000D01*
X99516000Y-123374000D02*
X99516000Y-124024000D01*
X99516000Y-120324000D02*
X99516000Y-120974000D01*
X105716000Y-120324000D02*
X99516000Y-120324000D01*
X99516000Y-124024000D02*
X105716000Y-124024000D01*
X103870000Y-135750000D02*
X103870000Y-131300000D01*
X103870000Y-129900000D02*
X103870000Y-127600000D01*
X103870000Y-126200000D02*
X103870000Y-125480000D01*
X103870000Y-125480000D02*
X101190000Y-125480000D01*
X98890000Y-125480000D02*
X95220000Y-125480000D01*
X92920000Y-125480000D02*
X91690000Y-125480000D01*
X91690000Y-125480000D02*
X91690000Y-135300000D01*
X102390000Y-137120000D02*
X101530000Y-137120000D01*
X104236359Y-87520000D02*
X104543641Y-87520000D01*
X104236359Y-88280000D02*
X104543641Y-88280000D01*
X102603641Y-89230000D02*
X102296359Y-89230000D01*
X102603641Y-88470000D02*
X102296359Y-88470000D01*
X102296359Y-87520000D02*
X102603641Y-87520000D01*
X102296359Y-88280000D02*
X102603641Y-88280000D01*
X91130000Y-82340000D02*
X88470000Y-82340000D01*
X91130000Y-87480000D02*
X91130000Y-82340000D01*
X88470000Y-87480000D02*
X88470000Y-82340000D01*
X91130000Y-87480000D02*
X88470000Y-87480000D01*
X91130000Y-88750000D02*
X91130000Y-90080000D01*
X91130000Y-90080000D02*
X89800000Y-90080000D01*
X96230000Y-82330000D02*
X93570000Y-82330000D01*
X96230000Y-87470000D02*
X96230000Y-82330000D01*
X93570000Y-87470000D02*
X93570000Y-82330000D01*
X96230000Y-87470000D02*
X93570000Y-87470000D01*
X96230000Y-88740000D02*
X96230000Y-90070000D01*
X96230000Y-90070000D02*
X94900000Y-90070000D01*
X93680000Y-82340000D02*
X91020000Y-82340000D01*
X93680000Y-87480000D02*
X93680000Y-82340000D01*
X91020000Y-87480000D02*
X91020000Y-82340000D01*
X93680000Y-87480000D02*
X91020000Y-87480000D01*
X93680000Y-88750000D02*
X93680000Y-90080000D01*
X93680000Y-90080000D02*
X92350000Y-90080000D01*
X98780000Y-82340000D02*
X96120000Y-82340000D01*
X98780000Y-87480000D02*
X98780000Y-82340000D01*
X96120000Y-87480000D02*
X96120000Y-82340000D01*
X98780000Y-87480000D02*
X96120000Y-87480000D01*
X98780000Y-88750000D02*
X98780000Y-90080000D01*
X98780000Y-90080000D02*
X97450000Y-90080000D01*
X84335000Y-130690000D02*
X86835000Y-130690000D01*
X86835000Y-130690000D02*
X86835000Y-131740000D01*
X86835000Y-131740000D02*
X87825000Y-131740000D01*
X84335000Y-136910000D02*
X86835000Y-136910000D01*
X86835000Y-136910000D02*
X86835000Y-135860000D01*
X82365000Y-131860000D02*
X82365000Y-135740000D01*
D14*
X99095260Y-84833000D02*
G75*
G03*
X99095260Y-84833000I-106630J0D01*
G01*
D15*
X100270630Y-87205000D02*
X110000630Y-87205000D01*
X100270630Y-82175000D02*
X110000630Y-82175000D01*
D13*
X106037500Y-88885000D02*
X108322500Y-88885000D01*
X108322500Y-88885000D02*
X108322500Y-87415000D01*
X108322500Y-87415000D02*
X106037500Y-87415000D01*
X113570000Y-126885000D02*
X113570000Y-127360000D01*
X117790000Y-123140000D02*
X117315000Y-123140000D01*
X117790000Y-123615000D02*
X117790000Y-123140000D01*
X117790000Y-127360000D02*
X117315000Y-127360000D01*
X117790000Y-126885000D02*
X117790000Y-127360000D01*
X113570000Y-123140000D02*
X114045000Y-123140000D01*
X113570000Y-123615000D02*
X113570000Y-123140000D01*
X114527720Y-97476740D02*
X113777720Y-97476740D01*
X119997720Y-103696740D02*
X119997720Y-102946740D01*
X119247720Y-103696740D02*
X119997720Y-103696740D01*
X113777720Y-103696740D02*
X113777720Y-102946740D01*
X114527720Y-103696740D02*
X113777720Y-103696740D01*
X119997720Y-97476740D02*
X119997720Y-98226740D01*
X119247720Y-97476740D02*
X119997720Y-97476740D01*
X122655000Y-108015000D02*
X122655000Y-109365000D01*
X120905000Y-108015000D02*
X120905000Y-109365000D01*
X110520000Y-124380000D02*
X110520000Y-125780000D01*
X112840000Y-125780000D02*
X112840000Y-123880000D01*
X152610000Y-99860000D02*
X155070000Y-99860000D01*
X151940000Y-96260000D02*
X155070000Y-96260000D01*
X156620000Y-99850000D02*
X159080000Y-99850000D01*
X155950000Y-96250000D02*
X159080000Y-96250000D01*
X144450000Y-86300000D02*
X144450000Y-83400000D01*
X157350000Y-86300000D02*
X157350000Y-83400000D01*
X144450000Y-94800000D02*
X144450000Y-91900000D01*
X145150000Y-82700000D02*
X156650000Y-82700000D01*
X157350000Y-94850000D02*
X157350000Y-91900000D01*
X156650000Y-95500000D02*
X145150000Y-95500000D01*
X145150000Y-95500000D02*
G75*
G02*
X144450000Y-94800000I0J700000D01*
G01*
X144450000Y-83400000D02*
G75*
G02*
X145150000Y-82700000I700000J0D01*
G01*
X156650000Y-82700000D02*
G75*
G02*
X157350000Y-83400000I0J-700000D01*
G01*
X157350000Y-94800000D02*
G75*
G02*
X156650000Y-95500000I-700000J0D01*
G01*
X111500000Y-137775000D02*
X120200000Y-137775000D01*
X136432800Y-99718800D02*
X136432800Y-97058800D01*
X131292800Y-99718800D02*
X136432800Y-99718800D01*
X131292800Y-97058800D02*
X136432800Y-97058800D01*
X131292800Y-99718800D02*
X131292800Y-97058800D01*
X130022800Y-99718800D02*
X128692800Y-99718800D01*
X128692800Y-99718800D02*
X128692800Y-98388800D01*
X76411400Y-117776400D02*
X76411400Y-119106400D01*
X75081400Y-117776400D02*
X76411400Y-117776400D01*
X73811400Y-117776400D02*
X73811400Y-120436400D01*
X73811400Y-120436400D02*
X68671400Y-120436400D01*
X73811400Y-117776400D02*
X68671400Y-117776400D01*
X68671400Y-117776400D02*
X68671400Y-120436400D01*
X136432800Y-102258800D02*
X136432800Y-99598800D01*
X131292800Y-102258800D02*
X136432800Y-102258800D01*
X131292800Y-99598800D02*
X136432800Y-99598800D01*
X131292800Y-102258800D02*
X131292800Y-99598800D01*
X130022800Y-102258800D02*
X128692800Y-102258800D01*
X128692800Y-102258800D02*
X128692800Y-100928800D01*
X76451400Y-115236400D02*
X76451400Y-116566400D01*
X75121400Y-115236400D02*
X76451400Y-115236400D01*
X73851400Y-115236400D02*
X73851400Y-117896400D01*
X73851400Y-117896400D02*
X68711400Y-117896400D01*
X73851400Y-115236400D02*
X68711400Y-115236400D01*
X68711400Y-115236400D02*
X68711400Y-117896400D01*
X136432800Y-104798800D02*
X136432800Y-102138800D01*
X131292800Y-104798800D02*
X136432800Y-104798800D01*
X131292800Y-102138800D02*
X136432800Y-102138800D01*
X131292800Y-104798800D02*
X131292800Y-102138800D01*
X130022800Y-104798800D02*
X128692800Y-104798800D01*
X128692800Y-104798800D02*
X128692800Y-103468800D01*
X76451400Y-112696400D02*
X76451400Y-114026400D01*
X75121400Y-112696400D02*
X76451400Y-112696400D01*
X73851400Y-112696400D02*
X73851400Y-115356400D01*
X73851400Y-115356400D02*
X68711400Y-115356400D01*
X73851400Y-112696400D02*
X68711400Y-112696400D01*
X68711400Y-112696400D02*
X68711400Y-115356400D01*
X136432800Y-107338800D02*
X136432800Y-104678800D01*
X131292800Y-107338800D02*
X136432800Y-107338800D01*
X131292800Y-104678800D02*
X136432800Y-104678800D01*
X131292800Y-107338800D02*
X131292800Y-104678800D01*
X130022800Y-107338800D02*
X128692800Y-107338800D01*
X128692800Y-107338800D02*
X128692800Y-106008800D01*
X76451400Y-110156400D02*
X76451400Y-111486400D01*
X75121400Y-110156400D02*
X76451400Y-110156400D01*
X73851400Y-110156400D02*
X73851400Y-112816400D01*
X73851400Y-112816400D02*
X68711400Y-112816400D01*
X73851400Y-110156400D02*
X68711400Y-110156400D01*
X68711400Y-110156400D02*
X68711400Y-112816400D01*
X136403600Y-112704800D02*
X136403600Y-110044800D01*
X131263600Y-112704800D02*
X136403600Y-112704800D01*
X131263600Y-110044800D02*
X136403600Y-110044800D01*
X131263600Y-112704800D02*
X131263600Y-110044800D01*
X129993600Y-112704800D02*
X128663600Y-112704800D01*
X128663600Y-112704800D02*
X128663600Y-111374800D01*
X76452700Y-105432000D02*
X76452700Y-106762000D01*
X75122700Y-105432000D02*
X76452700Y-105432000D01*
X73852700Y-105432000D02*
X73852700Y-108092000D01*
X73852700Y-108092000D02*
X68712700Y-108092000D01*
X73852700Y-105432000D02*
X68712700Y-105432000D01*
X68712700Y-105432000D02*
X68712700Y-108092000D01*
X136403600Y-115244800D02*
X136403600Y-112584800D01*
X131263600Y-115244800D02*
X136403600Y-115244800D01*
X131263600Y-112584800D02*
X136403600Y-112584800D01*
X131263600Y-115244800D02*
X131263600Y-112584800D01*
X129993600Y-115244800D02*
X128663600Y-115244800D01*
X128663600Y-115244800D02*
X128663600Y-113914800D01*
X76452700Y-102892000D02*
X76452700Y-104222000D01*
X75122700Y-102892000D02*
X76452700Y-102892000D01*
X73852700Y-102892000D02*
X73852700Y-105552000D01*
X73852700Y-105552000D02*
X68712700Y-105552000D01*
X73852700Y-102892000D02*
X68712700Y-102892000D01*
X68712700Y-102892000D02*
X68712700Y-105552000D01*
X136403600Y-117784800D02*
X136403600Y-115124800D01*
X131263600Y-117784800D02*
X136403600Y-117784800D01*
X131263600Y-115124800D02*
X136403600Y-115124800D01*
X131263600Y-117784800D02*
X131263600Y-115124800D01*
X129993600Y-117784800D02*
X128663600Y-117784800D01*
X128663600Y-117784800D02*
X128663600Y-116454800D01*
X76427700Y-100352000D02*
X76427700Y-101682000D01*
X75097700Y-100352000D02*
X76427700Y-100352000D01*
X73827700Y-100352000D02*
X73827700Y-103012000D01*
X73827700Y-103012000D02*
X68687700Y-103012000D01*
X73827700Y-100352000D02*
X68687700Y-100352000D01*
X68687700Y-100352000D02*
X68687700Y-103012000D01*
X136403600Y-120324800D02*
X136403600Y-117664800D01*
X131263600Y-120324800D02*
X136403600Y-120324800D01*
X131263600Y-117664800D02*
X136403600Y-117664800D01*
X131263600Y-120324800D02*
X131263600Y-117664800D01*
X129993600Y-120324800D02*
X128663600Y-120324800D01*
X128663600Y-120324800D02*
X128663600Y-118994800D01*
X76427700Y-97812000D02*
X76427700Y-99142000D01*
X75097700Y-97812000D02*
X76427700Y-97812000D01*
X73827700Y-97812000D02*
X73827700Y-100472000D01*
X73827700Y-100472000D02*
X68687700Y-100472000D01*
X73827700Y-97812000D02*
X68687700Y-97812000D01*
X68687700Y-97812000D02*
X68687700Y-100472000D01*
X154550000Y-103660000D02*
X157550000Y-103660000D01*
X156050000Y-100440000D02*
X157550000Y-100440000D01*
D14*
X129959630Y-94143000D02*
G75*
G03*
X129959630Y-94143000I-106630J0D01*
G01*
D15*
X131135000Y-96515000D02*
X140865000Y-96515000D01*
X131135000Y-91485000D02*
X140865000Y-91485000D01*
D14*
X129624630Y-123493000D02*
G75*
G03*
X129624630Y-123493000I-106630J0D01*
G01*
D15*
X130800000Y-125865000D02*
X140530000Y-125865000D01*
X130800000Y-120835000D02*
X140530000Y-120835000D01*
X70842400Y-121417400D02*
X80572400Y-121417400D01*
X70842400Y-126447400D02*
X80572400Y-126447400D01*
D14*
X69667030Y-124075400D02*
G75*
G03*
X69667030Y-124075400I-106630J0D01*
G01*
D15*
X70766200Y-91801000D02*
X80496200Y-91801000D01*
X70766200Y-96831000D02*
X80496200Y-96831000D01*
D14*
X69590830Y-94459000D02*
G75*
G03*
X69590830Y-94459000I-106630J0D01*
G01*
D13*
X128631800Y-94777900D02*
X128631800Y-92492900D01*
X128631800Y-92492900D02*
X127161800Y-92492900D01*
X127161800Y-92492900D02*
X127161800Y-94777900D01*
X133514000Y-127143400D02*
X131229000Y-127143400D01*
X131229000Y-127143400D02*
X131229000Y-128613400D01*
X131229000Y-128613400D02*
X133514000Y-128613400D01*
X69155000Y-128125000D02*
X71440000Y-128125000D01*
X69155000Y-126655000D02*
X69155000Y-128125000D01*
X71440000Y-126655000D02*
X69155000Y-126655000D01*
X68915000Y-91585000D02*
X71200000Y-91585000D01*
X68915000Y-90115000D02*
X68915000Y-91585000D01*
X71200000Y-90115000D02*
X68915000Y-90115000D01*
X113851600Y-128207600D02*
X115701600Y-128207600D01*
X113851600Y-129407600D02*
X115701600Y-129407600D01*
X115701600Y-129407600D02*
X115701600Y-128207600D01*
X117802800Y-129407600D02*
X115952800Y-129407600D01*
X117802800Y-128207600D02*
X115952800Y-128207600D01*
X115952800Y-128207600D02*
X115952800Y-129407600D01*
X120055000Y-82515000D02*
X117770000Y-82515000D01*
X120055000Y-83985000D02*
X120055000Y-82515000D01*
X117770000Y-83985000D02*
X120055000Y-83985000D01*
X87345000Y-96517500D02*
X87345000Y-94232500D01*
X85875000Y-96517500D02*
X87345000Y-96517500D01*
X85875000Y-94232500D02*
X85875000Y-96517500D01*
X167265000Y-100147500D02*
X167265000Y-97862500D01*
X167265000Y-97862500D02*
X165795000Y-97862500D01*
X165795000Y-97862500D02*
X165795000Y-100147500D01*
X86845000Y-114327500D02*
X86845000Y-116612500D01*
X88315000Y-114327500D02*
X86845000Y-114327500D01*
X88315000Y-116612500D02*
X88315000Y-114327500D01*
X153140000Y-110987936D02*
X153140000Y-112192064D01*
X151320000Y-110987936D02*
X151320000Y-112192064D01*
X158070000Y-110997936D02*
X158070000Y-112202064D01*
X159890000Y-110997936D02*
X159890000Y-112202064D01*
X109270000Y-116538922D02*
X109270000Y-117056078D01*
X110690000Y-116538922D02*
X110690000Y-117056078D01*
X142130000Y-87072064D02*
X142130000Y-85867936D01*
X139410000Y-87072064D02*
X139410000Y-85867936D01*
X138991600Y-87069664D02*
X138991600Y-85865536D01*
X136271600Y-87069664D02*
X136271600Y-85865536D01*
X153579700Y-110998536D02*
X153579700Y-112202664D01*
X155399700Y-110998536D02*
X155399700Y-112202664D01*
X155819140Y-111000016D02*
X155819140Y-112204144D01*
X157639140Y-111000016D02*
X157639140Y-112204144D01*
X116150800Y-107068800D02*
X116150800Y-107328800D01*
X116150800Y-107068800D02*
X116410800Y-107068800D01*
X120170800Y-107068800D02*
X120170800Y-107328800D01*
X116150800Y-112488800D02*
X116150800Y-112228800D01*
X116150800Y-112488800D02*
X116410800Y-112488800D01*
X120170800Y-112488800D02*
X120170800Y-112228800D01*
X120170800Y-112488800D02*
X119910800Y-112488800D01*
D10*
X144568571Y-107393333D02*
X144568571Y-107726666D01*
X145092380Y-107726666D02*
X144092380Y-107726666D01*
X144092380Y-107250476D01*
X144092380Y-106440952D02*
X144092380Y-106631428D01*
X144140000Y-106726666D01*
X144187619Y-106774285D01*
X144330476Y-106869523D01*
X144520952Y-106917142D01*
X144901904Y-106917142D01*
X144997142Y-106869523D01*
X145044761Y-106821904D01*
X145092380Y-106726666D01*
X145092380Y-106536190D01*
X145044761Y-106440952D01*
X144997142Y-106393333D01*
X144901904Y-106345714D01*
X144663809Y-106345714D01*
X144568571Y-106393333D01*
X144520952Y-106440952D01*
X144473333Y-106536190D01*
X144473333Y-106726666D01*
X144520952Y-106821904D01*
X144568571Y-106869523D01*
X144663809Y-106917142D01*
X123446666Y-112918571D02*
X123113333Y-112918571D01*
X123113333Y-113442380D02*
X123113333Y-112442380D01*
X123589523Y-112442380D01*
X123875238Y-112442380D02*
X124541904Y-112442380D01*
X124113333Y-113442380D01*
D15*
X165893428Y-107271952D02*
X165893428Y-106510047D01*
X166274380Y-106891000D02*
X165512476Y-106891000D01*
M02*
