M48
; DRILL file {KiCad 5.1.5-52549c5~84~ubuntu18.04.1} date Sun 29 Mar 2020 07:49:43 PM EDT
; FORMAT={-:-/ absolute / inch / decimal}
; #@! TF.CreationDate,2020-03-29T19:49:43-04:00
; #@! TF.GenerationSoftware,Kicad,Pcbnew,5.1.5-52549c5~84~ubuntu18.04.1
; #@! TF.FileFunction,Plated,1,4,PTH
FMAT,2
INCH
T1C0.0138
T2C0.0197
T3C0.0236
T4C0.0374
T5C0.0394
T6C0.0709
T7C0.1063
%
G90
G05
T1
X2.9244Y-3.6024
X3.099Y-4.16
X3.1Y-4.282
X3.101Y-4.38
X3.102Y-4.898
X3.102Y-4.799
X3.102Y-5.002
X3.107Y-4.484
X3.1119Y-3.689
X3.114Y-3.8984
X3.115Y-3.801
X3.118Y-3.631
X3.133Y-5.106
X3.192Y-3.669
X3.193Y-3.695
X3.209Y-5.0
X3.209Y-5.026
X3.235Y-3.772
X3.239Y-4.458
X3.239Y-4.483
X3.24Y-3.606
X3.2559Y-3.6417
X3.2559Y-3.7244
X3.2727Y-4.9703
X3.2727Y-5.0529
X3.274Y-4.91
X3.274Y-5.116
X3.285Y-4.548
X3.287Y-4.394
X3.29Y-3.805
X3.3Y-4.4312
X3.3Y-4.5139
X3.325Y-5.16
X3.3386Y-3.6417
X3.3386Y-3.7244
X3.354Y-3.605
X3.3553Y-4.9703
X3.3553Y-5.0529
X3.3572Y-3.775
X3.363Y-4.612
X3.363Y-4.864
X3.364Y-3.302
X3.365Y-5.168
X3.368Y-4.936
X3.37Y-3.555
X3.372Y-4.509
X3.373Y-3.626
X3.377Y-4.431
X3.389Y-4.957
X3.4046Y-4.566
X3.4164Y-4.395
X3.421Y-4.347
X3.4347Y-4.4163
X3.4528Y-4.1339
X3.49Y-4.544
X3.5315Y-5.315
X3.5433Y-4.5079
X3.5472Y-3.2362
X3.5472Y-3.315
X3.5472Y-3.3346
X3.5472Y-3.3543
X3.548Y-3.256
X3.548Y-3.276
X3.548Y-3.296
X3.566Y-3.276
X3.5669Y-3.2362
X3.5669Y-3.2559
X3.5669Y-3.2953
X3.5669Y-3.315
X3.5669Y-3.3346
X3.5669Y-3.3543
X3.5866Y-3.2362
X3.5866Y-3.2559
X3.5866Y-3.2756
X3.5866Y-3.2953
X3.5866Y-3.315
X3.602Y-4.325
X3.6063Y-3.2362
X3.6063Y-3.2559
X3.6063Y-3.2756
X3.6063Y-3.2953
X3.6063Y-3.315
X3.6142Y-4.4724
X3.615Y-3.9166
X3.617Y-4.449
X3.626Y-3.2362
X3.626Y-3.2559
X3.633Y-4.6
X3.634Y-3.842
X3.634Y-3.875
X3.635Y-4.318
X3.6457Y-3.2362
X3.6457Y-3.2559
X3.6566Y-4.4207
X3.6654Y-3.2362
X3.666Y-3.256
X3.685Y-3.2362
X3.686Y-3.256
X3.7047Y-3.2362
X3.7047Y-3.2559
X3.7244Y-3.2362
X3.7244Y-3.2559
X3.7441Y-3.2362
X3.7441Y-3.2559
X3.76Y-4.449
X3.7626Y-4.5484
X3.7638Y-3.2362
X3.7638Y-3.2559
X3.764Y-4.348
X3.764Y-4.371
X3.765Y-4.297
X3.7803Y-4.5484
X3.7835Y-3.2362
X3.7835Y-3.2559
X3.7835Y-4.4764
X3.7981Y-4.5484
X3.8031Y-3.2362
X3.8031Y-3.2559
X3.815Y-4.5472
X3.822Y-4.12
X3.8228Y-3.2362
X3.8228Y-3.2559
X3.842Y-4.136
X3.8425Y-3.2362
X3.8425Y-3.2559
X3.8622Y-3.2362
X3.8622Y-3.2559
X3.865Y-4.121
X3.8701Y-3.6693
X3.8819Y-3.2362
X3.8819Y-3.2559
X3.8819Y-3.2756
X3.8819Y-3.2953
X3.8819Y-3.315
X3.8819Y-3.3346
X3.8819Y-3.3543
X3.885Y-4.108
X3.885Y-4.3776
X3.9016Y-3.2362
X3.9016Y-3.2559
X3.9016Y-3.2756
X3.9016Y-3.2953
X3.9016Y-3.315
X3.9016Y-3.3346
X3.9016Y-3.3543
X3.916Y-4.554
X3.98Y-4.046
X4.004Y-4.175
X4.005Y-4.337
X4.018Y-4.554
X4.082Y-4.05
X4.085Y-4.25
X4.165Y-4.177
X4.167Y-4.339
X4.23Y-3.808
X4.252Y-4.342
X4.2677Y-4.5472
X4.2698Y-3.9172
X4.2698Y-3.9342
X4.27Y-3.9422
X4.28Y-4.048
X4.2862Y-4.5484
X4.304Y-4.5484
X4.3132Y-4.3756
X4.3207Y-4.3533
X4.3217Y-4.5484
X4.326Y-3.994
X4.433Y-5.363
X4.434Y-3.906
X4.514Y-5.366
X4.5276Y-4.3543
X4.5291Y-3.7906
X4.5315Y-3.5945
X4.5315Y-3.6142
X4.5315Y-3.6339
X4.5315Y-3.6535
X4.5315Y-3.6732
X4.5315Y-3.6929
X4.5315Y-4.0315
X4.532Y-4.3766
X4.5335Y-4.4359
X4.5354Y-4.2724
X4.5512Y-3.6339
X4.5512Y-3.6535
X4.5512Y-3.6732
X4.5512Y-3.6929
X4.5528Y-3.8496
X4.5709Y-3.6339
X4.5709Y-3.6535
X4.5709Y-3.6732
X4.5709Y-3.6929
X4.5709Y-3.9528
X4.578Y-4.455
X4.5803Y-4.3331
X4.5848Y-4.3028
X4.5906Y-3.6339
X4.5906Y-3.6535
X4.5906Y-3.6732
X4.5906Y-3.6929
X4.6102Y-3.6339
X4.6102Y-3.6535
X4.6102Y-3.6732
X4.6102Y-3.6929
X4.618Y-5.124
X4.6209Y-4.2134
X4.636Y-5.024
X4.6417Y-3.7205
X4.645Y-4.36
X4.6457Y-3.7874
X4.6535Y-3.9311
X4.6614Y-4.0433
X4.6654Y-3.5669
X4.6772Y-3.9882
X4.6945Y-4.515
X4.7087Y-3.6299
X4.7165Y-4.1378
X4.7165Y-4.1575
X4.7165Y-4.1772
X4.7165Y-4.1969
X4.7165Y-4.2165
X4.719Y-4.691
X4.7205Y-3.7402
X4.7205Y-3.7598
X4.7205Y-3.7795
X4.7217Y-4.3528
X4.7228Y-4.2925
X4.736Y-4.603
X4.7362Y-3.889
X4.748Y-3.7402
X4.748Y-3.7598
X4.748Y-3.7795
X4.7638Y-3.6457
X4.7717Y-4.1299
X4.7723Y-4.282
X4.7815Y-3.669
X4.7924Y-4.338
X4.794Y-4.27
X4.7951Y-4.7952
X4.796Y-4.724
X4.7964Y-4.8341
X4.7978Y-4.8722
X4.7981Y-4.5978
X4.7985Y-4.9125
X4.7992Y-3.685
X4.8036Y-4.5422
X4.804Y-4.504
X4.808Y-4.404
X4.808Y-4.934
X4.8082Y-4.8147
X4.8089Y-4.8923
X4.8095Y-4.8527
X4.821Y-4.523
X4.8226Y-4.5806
X4.8268Y-4.0787
X4.8268Y-4.0984
X4.8268Y-4.1181
X4.8268Y-4.1378
X4.8268Y-4.1575
X4.83Y-4.396
X4.83Y-4.958
X4.8307Y-3.7953
X4.8346Y-3.8858
X4.8346Y-3.9055
X4.8425Y-3.6811
X4.8465Y-4.0787
X4.8465Y-4.0984
X4.8465Y-4.1181
X4.8465Y-4.1378
X4.8465Y-4.1575
X4.8484Y-4.4462
X4.8543Y-3.8858
X4.8543Y-3.9055
X4.8583Y-3.7087
X4.8583Y-3.8386
X4.862Y-4.999
X4.8714Y-4.4076
X4.874Y-4.809
X4.874Y-3.8858
X4.874Y-3.9055
X4.877Y-4.92
X4.882Y-4.988
X4.886Y-4.494
X4.886Y-4.61
X4.8937Y-3.8858
X4.8937Y-3.9055
X4.894Y-4.426
X4.9017Y-4.9994
X4.9055Y-4.0787
X4.9134Y-3.8858
X4.9134Y-3.9055
X4.916Y-4.676
X4.9213Y-4.9878
X4.933Y-4.4155
X4.934Y-3.434
X4.9411Y-4.999
X4.9535Y-4.4275
X4.961Y-4.988
X4.9691Y-4.1463
X4.974Y-4.414
X4.975Y-4.264
X4.9807Y-4.9994
X4.986Y-4.81
X4.986Y-4.919
X4.9882Y-4.1476
X4.9924Y-4.428
X4.998Y-4.396
X5.0Y-4.61
X5.0003Y-4.9878
X5.002Y-4.494
X5.0079Y-4.1476
X5.0118Y-3.5236
X5.0118Y-3.5433
X5.0118Y-3.563
X5.0118Y-3.5827
X5.0118Y-3.6024
X5.0118Y-3.622
X5.0118Y-3.6417
X5.0118Y-3.6614
X5.0118Y-3.6811
X5.0118Y-3.7008
X5.0118Y-3.7205
X5.0118Y-3.7402
X5.0118Y-3.7598
X5.0118Y-3.7795
X5.0118Y-3.7992
X5.0118Y-3.8189
X5.0118Y-3.8386
X5.0118Y-3.8583
X5.0157Y-4.065
X5.0276Y-4.1476
X5.0315Y-3.5236
X5.0315Y-3.5433
X5.0315Y-3.563
X5.0315Y-3.5827
X5.0315Y-3.6024
X5.0315Y-3.622
X5.0315Y-3.6417
X5.0315Y-3.6614
X5.0315Y-3.6811
X5.0315Y-3.7008
X5.0315Y-3.7205
X5.0315Y-3.7402
X5.0315Y-3.7598
X5.0315Y-3.7795
X5.0315Y-3.7992
X5.0315Y-3.8189
X5.0315Y-3.8386
X5.0315Y-3.8583
X5.035Y-4.723
X5.036Y-4.959
X5.038Y-4.468
X5.0472Y-3.8858
X5.0472Y-3.9055
X5.0483Y-4.1476
X5.0517Y-4.1314
X5.0539Y-4.9139
X5.054Y-4.875
X5.0551Y-3.8701
X5.066Y-4.682
X5.0669Y-3.8858
X5.0669Y-3.9055
X5.067Y-4.894
X5.0686Y-4.9336
X5.074Y-4.468
X5.0748Y-3.8701
X5.0787Y-3.9528
X5.08Y-4.014
X5.08Y-4.03
X5.08Y-4.046
X5.08Y-4.062
X5.08Y-4.078
X5.08Y-4.094
X5.08Y-4.11
X5.0866Y-3.8858
X5.0866Y-3.9055
X5.0867Y-4.2114
X5.096Y-4.014
X5.096Y-4.03
X5.096Y-4.046
X5.096Y-4.062
X5.096Y-4.078
X5.096Y-4.094
X5.096Y-4.11
X5.096Y-4.126
X5.1024Y-3.8307
X5.1024Y-3.8504
X5.1024Y-3.8701
X5.104Y-4.14
X5.104Y-4.156
X5.1063Y-3.9055
X5.1102Y-3.5118
X5.1102Y-3.5315
X5.1102Y-3.5512
X5.1102Y-3.5709
X5.1102Y-3.5906
X5.1102Y-3.6102
X5.1102Y-3.6299
X5.1102Y-3.6496
X5.1102Y-3.6693
X5.1102Y-3.689
X5.1102Y-3.7087
X5.1102Y-3.7283
X5.1102Y-3.748
X5.1102Y-3.7677
X5.1102Y-3.7874
X5.1102Y-3.8071
X5.112Y-4.014
X5.112Y-4.03
X5.112Y-4.046
X5.112Y-4.062
X5.112Y-4.078
X5.112Y-4.094
X5.112Y-4.11
X5.112Y-4.126
X5.116Y-4.63
X5.122Y-3.8307
X5.124Y-4.6
X5.1299Y-3.5118
X5.1299Y-3.5315
X5.1299Y-3.5512
X5.1299Y-3.5709
X5.1299Y-3.5906
X5.1299Y-3.6102
X5.1299Y-3.6299
X5.1299Y-3.6496
X5.1299Y-3.6693
X5.1299Y-3.689
X5.1299Y-3.7087
X5.1299Y-3.7283
X5.1299Y-3.748
X5.1299Y-3.7677
X5.1299Y-3.7874
X5.1299Y-3.8071
X5.1417Y-3.8307
X5.146Y-4.58
X5.1496Y-3.7638
X5.1496Y-3.7835
X5.1496Y-3.8031
X5.1496Y-3.8465
X5.1614Y-3.8307
X5.1614Y-3.9055
X5.1614Y-3.9646
X5.1614Y-4.0236
X5.1614Y-4.0433
X5.172Y-4.58
X5.173Y-4.155
X5.1732Y-4.2126
X5.174Y-4.42
X5.174Y-4.52
X5.1949Y-4.3209
X5.2165Y-3.6732
X5.2165Y-4.2815
X5.2165Y-4.3445
X5.224Y-4.816
X5.2323Y-3.7598
X5.2323Y-3.7795
X5.2323Y-3.7992
X5.2323Y-3.8189
X5.2323Y-3.8386
X5.2323Y-3.8583
X5.2323Y-3.878
X5.2323Y-3.8976
X5.2323Y-3.9173
X5.2323Y-3.937
X5.2323Y-3.9567
X5.2323Y-3.9764
X5.2323Y-3.9921
X5.2323Y-4.0118
X5.2323Y-4.0315
X5.233Y-3.288
X5.2335Y-3.3265
X5.2343Y-3.6732
X5.252Y-3.6732
X5.2559Y-3.7224
X5.2697Y-3.6732
X5.2701Y-3.5731
X5.2815Y-3.4331
X5.2854Y-3.5098
X5.286Y-4.956
X5.2902Y-3.5837
X5.2933Y-3.4685
X5.304Y-4.956
X5.311Y-3.5745
X5.3209Y-3.4429
X5.324Y-4.956
X5.33Y-4.654
X5.332Y-4.615
X5.3371Y-4.5629
X5.344Y-4.956
X5.35Y-3.5745
X5.3524Y-3.4429
X5.3615Y-3.361
X5.362Y-4.958
X5.3622Y-3.6299
X5.366Y-3.2735
X5.3722Y-4.5896
X5.382Y-4.404
X5.3935Y-3.36
X5.396Y-4.502
X5.3986Y-3.8415
X5.4144Y-4.5162
X5.417Y-4.194
X5.4276Y-3.4875
X5.4324Y-3.4635
X5.4331Y-3.7972
X5.437Y-3.4291
X5.4469Y-3.811
X5.4508Y-3.6378
X5.4606Y-3.8248
X5.467Y-4.053
X5.467Y-4.07
X5.467Y-4.087
X5.467Y-4.104
X5.467Y-4.121
X5.467Y-4.138
X5.467Y-4.156
X5.484Y-4.105
X5.484Y-4.122
X5.484Y-4.139
X5.484Y-4.156
X5.4911Y-3.8474
X5.497Y-3.9459
X5.5197Y-3.9291
X5.525Y-3.5813
X5.5256Y-3.5984
X5.5335Y-3.7953
X5.536Y-4.169
X5.536Y-4.187
X5.536Y-4.205
X5.536Y-4.8385
X5.553Y-4.17
X5.553Y-4.188
X5.553Y-4.205
X5.5551Y-4.25
X5.5571Y-4.0246
X5.565Y-4.08
X5.618Y-3.5445
X5.6189Y-4.0827
X5.6319Y-4.126
X5.6394Y-3.7994
X5.6405Y-4.038
X5.6415Y-3.4695
X5.6575Y-3.8241
X5.6713Y-4.1339
X5.6762Y-4.0531
X5.6918Y-4.2685
X5.7234Y-4.0138
X5.725Y-3.649
X5.729Y-3.618
X5.7479Y-4.1591
X5.7479Y-4.1761
X5.7479Y-4.1931
X5.7479Y-4.2441
X5.748Y-3.703
X5.75Y-4.3091
X5.7503Y-3.793
X5.754Y-3.864
X5.7547Y-3.9918
X5.7577Y-4.0263
X5.7624Y-3.9332
X5.7696Y-3.7656
X5.777Y-3.5321
X5.777Y-3.5537
X5.7776Y-3.5748
X5.7894Y-3.7145
X5.7894Y-3.7303
X5.79Y-5.045
X5.7981Y-4.8984
X5.8025Y-3.695
X5.811Y-5.067
X5.8116Y-3.7978
X5.8228Y-4.0551
X5.8257Y-4.9483
X5.828Y-5.02
X5.832Y-5.13
X5.8371Y-3.7996
X5.845Y-4.838
X5.8543Y-3.9173
X5.8622Y-3.878
X5.8756Y-3.3942
X5.892Y-3.272
X5.8975Y-3.8796
X5.901Y-3.568
X5.9016Y-3.5514
X5.902Y-3.534
X5.9029Y-3.9262
X5.9084Y-4.9483
X5.9084Y-5.0309
X5.9213Y-3.7126
X5.9213Y-3.7953
X5.922Y-5.066
X5.923Y-3.3038
X5.9236Y-3.3388
X5.9252Y-3.8189
X5.93Y-4.908
X5.9449Y-3.4587
X5.9604Y-3.3024
X5.9604Y-3.3388
X5.97Y-5.002
X5.972Y-4.976
X5.976Y-3.539
X5.9774Y-4.0246
X5.9774Y-4.061
X5.9793Y-3.9852
X6.0118Y-3.9724
X6.0118Y-5.1949
X6.0138Y-3.311
X6.0236Y-3.2894
X6.0487Y-3.3608
X6.0551Y-3.7677
X6.144Y-3.918
X6.1456Y-3.5252
X6.1496Y-3.3622
X6.152Y-3.453
X6.16Y-4.01
X6.164Y-3.94
X6.1704Y-3.7638
X6.171Y-3.48
X6.189Y-3.815
X6.189Y-3.8976
X6.198Y-4.658
X6.198Y-4.758
X6.198Y-4.8616
X6.198Y-4.976
X6.25Y-3.73
X6.27Y-3.672
X6.27Y-3.96
X6.2717Y-3.815
X6.2717Y-3.8976
X6.29Y-3.776
X6.315Y-3.3661
X6.3189Y-3.6457
X6.3268Y-3.624
X6.334Y-3.87
X6.336Y-3.844
X6.3758Y-3.4424
X6.433Y-3.526
X6.4331Y-3.5846
X6.437Y-3.4744
T2
X2.7444Y-5.2921
X2.7677Y-5.2357
X2.7677Y-5.3484
X2.8241Y-5.2123
X2.8241Y-5.3718
X2.8805Y-5.2357
X2.8805Y-5.3484
X2.9038Y-5.2921
X5.0305Y-3.3642
X5.0539Y-3.3078
X5.0539Y-3.4205
X5.1102Y-3.2844
X5.1102Y-3.4439
X5.1666Y-3.3078
X5.1666Y-3.4205
X5.19Y-3.3642
X2.747Y-3.3622
X2.7704Y-3.3058
X2.7704Y-3.4186
X2.8268Y-3.2825
X2.8268Y-3.4419
X2.8831Y-3.3058
X2.8831Y-3.4186
X2.9065Y-3.3622
X5.0285Y-5.2933
X5.0519Y-5.2369
X5.0519Y-5.3497
X5.1083Y-5.2136
X5.1083Y-5.373
X5.1646Y-5.2369
X5.1646Y-5.3497
X5.188Y-5.2933
T4
X6.1181Y-3.2894
X6.2165Y-3.2894
X6.315Y-3.2894
X6.4134Y-3.2894
X6.5118Y-3.2894
T5
X6.3Y-4.68
X6.4Y-4.68
X6.5Y-4.68
X6.3Y-4.16
X6.4Y-4.16
X6.5Y-4.16
X2.8Y-4.92
X2.9Y-4.92
X3.0Y-4.92
X2.8Y-4.4
X2.9Y-4.4
X3.0Y-4.4
X2.8Y-3.68
X2.9Y-3.68
X3.0Y-3.68
X2.8Y-4.2
X2.9Y-4.2
X3.0Y-4.2
X6.3Y-4.36
X6.4Y-4.36
X6.5Y-4.36
X6.3Y-4.78
X6.4Y-4.78
X6.5Y-4.78
X2.8Y-3.88
X2.9Y-3.88
X3.0Y-3.88
X6.3Y-4.06
X6.4Y-4.06
X6.5Y-4.06
X2.8Y-5.02
X2.9Y-5.02
X3.0Y-5.02
X6.3Y-4.26
X6.4Y-4.26
X6.5Y-4.26
X6.3Y-4.58
X6.4Y-4.58
X6.5Y-4.58
X2.8Y-4.3
X2.9Y-4.3
X3.0Y-4.3
X2.8Y-4.82
X2.9Y-4.82
X3.0Y-4.82
X2.8Y-3.98
X2.9Y-3.98
X3.0Y-3.98
X2.8Y-4.5
X2.9Y-4.5
X3.0Y-4.5
X2.8Y-3.78
X2.9Y-3.78
X3.0Y-3.78
X6.3Y-4.88
X6.4Y-4.88
X6.5Y-4.88
X2.8Y-4.72
X2.9Y-4.72
X3.0Y-4.72
T6
X4.6417Y-3.3228
X4.8386Y-3.3228
T7
X2.8241Y-5.2921
X5.1102Y-3.3642
X2.8268Y-3.3622
X5.1083Y-5.2933
T3
G00X5.4807Y-3.3371
M15
G01X5.4807Y-3.3056
M16
G05
G00X5.4809Y-3.5063
M15
G01X5.4809Y-3.463
M16
G05
G00X5.8211Y-3.3371
M15
G01X5.8211Y-3.3056
M16
G05
G00X5.8211Y-3.5063
M15
G01X5.8211Y-3.463
M16
G05
T0
M30
