G04 #@! TF.GenerationSoftware,KiCad,Pcbnew,5.1.6-c6e7f7d~86~ubuntu18.04.1*
G04 #@! TF.CreationDate,2020-11-11T20:00:30-05:00*
G04 #@! TF.ProjectId,SmallKat v2,536d616c-6c4b-4617-9420-76322e6b6963,rev?*
G04 #@! TF.SameCoordinates,Original*
G04 #@! TF.FileFunction,Paste,Top*
G04 #@! TF.FilePolarity,Positive*
%FSLAX46Y46*%
G04 Gerber Fmt 4.6, Leading zero omitted, Abs format (unit mm)*
G04 Created by KiCad (PCBNEW 5.1.6-c6e7f7d~86~ubuntu18.04.1) date 2020-11-11 20:00:30*
%MOMM*%
%LPD*%
G01*
G04 APERTURE LIST*
%ADD10R,0.800000X1.500000*%
%ADD11R,1.450000X2.000000*%
%ADD12R,1.060000X0.650000*%
%ADD13R,2.000000X0.900000*%
%ADD14R,0.900000X2.000000*%
%ADD15R,5.000000X5.000000*%
%ADD16R,1.800000X1.000000*%
%ADD17R,0.254000X0.675000*%
%ADD18R,0.675000X0.254000*%
%ADD19R,0.550000X1.500000*%
%ADD20R,0.900000X0.800000*%
%ADD21R,0.400000X0.650000*%
%ADD22R,0.500000X0.630000*%
%ADD23R,0.738000X0.570000*%
%ADD24R,5.000000X3.100000*%
%ADD25R,0.620000X1.000000*%
%ADD26R,0.300000X1.000000*%
%ADD27R,0.650000X1.060000*%
%ADD28R,4.240000X3.810000*%
%ADD29R,0.600000X0.700000*%
G04 APERTURE END LIST*
G36*
G01*
X116605001Y-125125000D02*
X116054999Y-125125000D01*
G75*
G02*
X115805000Y-124875001I0J249999D01*
G01*
X115805000Y-124324999D01*
G75*
G02*
X116054999Y-124075000I249999J0D01*
G01*
X116605001Y-124075000D01*
G75*
G02*
X116855000Y-124324999I0J-249999D01*
G01*
X116855000Y-124875001D01*
G75*
G02*
X116605001Y-125125000I-249999J0D01*
G01*
G37*
G36*
G01*
X115305001Y-125125000D02*
X114754999Y-125125000D01*
G75*
G02*
X114505000Y-124875001I0J249999D01*
G01*
X114505000Y-124324999D01*
G75*
G02*
X114754999Y-124075000I249999J0D01*
G01*
X115305001Y-124075000D01*
G75*
G02*
X115555000Y-124324999I0J-249999D01*
G01*
X115555000Y-124875001D01*
G75*
G02*
X115305001Y-125125000I-249999J0D01*
G01*
G37*
G36*
G01*
X116605001Y-126425000D02*
X116054999Y-126425000D01*
G75*
G02*
X115805000Y-126175001I0J249999D01*
G01*
X115805000Y-125624999D01*
G75*
G02*
X116054999Y-125375000I249999J0D01*
G01*
X116605001Y-125375000D01*
G75*
G02*
X116855000Y-125624999I0J-249999D01*
G01*
X116855000Y-126175001D01*
G75*
G02*
X116605001Y-126425000I-249999J0D01*
G01*
G37*
G36*
G01*
X115305001Y-126425000D02*
X114754999Y-126425000D01*
G75*
G02*
X114505000Y-126175001I0J249999D01*
G01*
X114505000Y-125624999D01*
G75*
G02*
X114754999Y-125375000I249999J0D01*
G01*
X115305001Y-125375000D01*
G75*
G02*
X115555000Y-125624999I0J-249999D01*
G01*
X115555000Y-126175001D01*
G75*
G02*
X115305001Y-126425000I-249999J0D01*
G01*
G37*
G36*
G01*
X114092500Y-126625000D02*
X113392500Y-126625000D01*
G75*
G02*
X113330000Y-126562500I0J62500D01*
G01*
X113330000Y-126437500D01*
G75*
G02*
X113392500Y-126375000I62500J0D01*
G01*
X114092500Y-126375000D01*
G75*
G02*
X114155000Y-126437500I0J-62500D01*
G01*
X114155000Y-126562500D01*
G75*
G02*
X114092500Y-126625000I-62500J0D01*
G01*
G37*
G36*
G01*
X114092500Y-126125000D02*
X113392500Y-126125000D01*
G75*
G02*
X113330000Y-126062500I0J62500D01*
G01*
X113330000Y-125937500D01*
G75*
G02*
X113392500Y-125875000I62500J0D01*
G01*
X114092500Y-125875000D01*
G75*
G02*
X114155000Y-125937500I0J-62500D01*
G01*
X114155000Y-126062500D01*
G75*
G02*
X114092500Y-126125000I-62500J0D01*
G01*
G37*
G36*
G01*
X114092500Y-125625000D02*
X113392500Y-125625000D01*
G75*
G02*
X113330000Y-125562500I0J62500D01*
G01*
X113330000Y-125437500D01*
G75*
G02*
X113392500Y-125375000I62500J0D01*
G01*
X114092500Y-125375000D01*
G75*
G02*
X114155000Y-125437500I0J-62500D01*
G01*
X114155000Y-125562500D01*
G75*
G02*
X114092500Y-125625000I-62500J0D01*
G01*
G37*
G36*
G01*
X114092500Y-125125000D02*
X113392500Y-125125000D01*
G75*
G02*
X113330000Y-125062500I0J62500D01*
G01*
X113330000Y-124937500D01*
G75*
G02*
X113392500Y-124875000I62500J0D01*
G01*
X114092500Y-124875000D01*
G75*
G02*
X114155000Y-124937500I0J-62500D01*
G01*
X114155000Y-125062500D01*
G75*
G02*
X114092500Y-125125000I-62500J0D01*
G01*
G37*
G36*
G01*
X114092500Y-124625000D02*
X113392500Y-124625000D01*
G75*
G02*
X113330000Y-124562500I0J62500D01*
G01*
X113330000Y-124437500D01*
G75*
G02*
X113392500Y-124375000I62500J0D01*
G01*
X114092500Y-124375000D01*
G75*
G02*
X114155000Y-124437500I0J-62500D01*
G01*
X114155000Y-124562500D01*
G75*
G02*
X114092500Y-124625000I-62500J0D01*
G01*
G37*
G36*
G01*
X114092500Y-124125000D02*
X113392500Y-124125000D01*
G75*
G02*
X113330000Y-124062500I0J62500D01*
G01*
X113330000Y-123937500D01*
G75*
G02*
X113392500Y-123875000I62500J0D01*
G01*
X114092500Y-123875000D01*
G75*
G02*
X114155000Y-123937500I0J-62500D01*
G01*
X114155000Y-124062500D01*
G75*
G02*
X114092500Y-124125000I-62500J0D01*
G01*
G37*
G36*
G01*
X114492500Y-123725000D02*
X114367500Y-123725000D01*
G75*
G02*
X114305000Y-123662500I0J62500D01*
G01*
X114305000Y-122962500D01*
G75*
G02*
X114367500Y-122900000I62500J0D01*
G01*
X114492500Y-122900000D01*
G75*
G02*
X114555000Y-122962500I0J-62500D01*
G01*
X114555000Y-123662500D01*
G75*
G02*
X114492500Y-123725000I-62500J0D01*
G01*
G37*
G36*
G01*
X114992500Y-123725000D02*
X114867500Y-123725000D01*
G75*
G02*
X114805000Y-123662500I0J62500D01*
G01*
X114805000Y-122962500D01*
G75*
G02*
X114867500Y-122900000I62500J0D01*
G01*
X114992500Y-122900000D01*
G75*
G02*
X115055000Y-122962500I0J-62500D01*
G01*
X115055000Y-123662500D01*
G75*
G02*
X114992500Y-123725000I-62500J0D01*
G01*
G37*
G36*
G01*
X115492500Y-123725000D02*
X115367500Y-123725000D01*
G75*
G02*
X115305000Y-123662500I0J62500D01*
G01*
X115305000Y-122962500D01*
G75*
G02*
X115367500Y-122900000I62500J0D01*
G01*
X115492500Y-122900000D01*
G75*
G02*
X115555000Y-122962500I0J-62500D01*
G01*
X115555000Y-123662500D01*
G75*
G02*
X115492500Y-123725000I-62500J0D01*
G01*
G37*
G36*
G01*
X115992500Y-123725000D02*
X115867500Y-123725000D01*
G75*
G02*
X115805000Y-123662500I0J62500D01*
G01*
X115805000Y-122962500D01*
G75*
G02*
X115867500Y-122900000I62500J0D01*
G01*
X115992500Y-122900000D01*
G75*
G02*
X116055000Y-122962500I0J-62500D01*
G01*
X116055000Y-123662500D01*
G75*
G02*
X115992500Y-123725000I-62500J0D01*
G01*
G37*
G36*
G01*
X116492500Y-123725000D02*
X116367500Y-123725000D01*
G75*
G02*
X116305000Y-123662500I0J62500D01*
G01*
X116305000Y-122962500D01*
G75*
G02*
X116367500Y-122900000I62500J0D01*
G01*
X116492500Y-122900000D01*
G75*
G02*
X116555000Y-122962500I0J-62500D01*
G01*
X116555000Y-123662500D01*
G75*
G02*
X116492500Y-123725000I-62500J0D01*
G01*
G37*
G36*
G01*
X116992500Y-123725000D02*
X116867500Y-123725000D01*
G75*
G02*
X116805000Y-123662500I0J62500D01*
G01*
X116805000Y-122962500D01*
G75*
G02*
X116867500Y-122900000I62500J0D01*
G01*
X116992500Y-122900000D01*
G75*
G02*
X117055000Y-122962500I0J-62500D01*
G01*
X117055000Y-123662500D01*
G75*
G02*
X116992500Y-123725000I-62500J0D01*
G01*
G37*
G36*
G01*
X117967500Y-124125000D02*
X117267500Y-124125000D01*
G75*
G02*
X117205000Y-124062500I0J62500D01*
G01*
X117205000Y-123937500D01*
G75*
G02*
X117267500Y-123875000I62500J0D01*
G01*
X117967500Y-123875000D01*
G75*
G02*
X118030000Y-123937500I0J-62500D01*
G01*
X118030000Y-124062500D01*
G75*
G02*
X117967500Y-124125000I-62500J0D01*
G01*
G37*
G36*
G01*
X117967500Y-124625000D02*
X117267500Y-124625000D01*
G75*
G02*
X117205000Y-124562500I0J62500D01*
G01*
X117205000Y-124437500D01*
G75*
G02*
X117267500Y-124375000I62500J0D01*
G01*
X117967500Y-124375000D01*
G75*
G02*
X118030000Y-124437500I0J-62500D01*
G01*
X118030000Y-124562500D01*
G75*
G02*
X117967500Y-124625000I-62500J0D01*
G01*
G37*
G36*
G01*
X117967500Y-125125000D02*
X117267500Y-125125000D01*
G75*
G02*
X117205000Y-125062500I0J62500D01*
G01*
X117205000Y-124937500D01*
G75*
G02*
X117267500Y-124875000I62500J0D01*
G01*
X117967500Y-124875000D01*
G75*
G02*
X118030000Y-124937500I0J-62500D01*
G01*
X118030000Y-125062500D01*
G75*
G02*
X117967500Y-125125000I-62500J0D01*
G01*
G37*
G36*
G01*
X117967500Y-125625000D02*
X117267500Y-125625000D01*
G75*
G02*
X117205000Y-125562500I0J62500D01*
G01*
X117205000Y-125437500D01*
G75*
G02*
X117267500Y-125375000I62500J0D01*
G01*
X117967500Y-125375000D01*
G75*
G02*
X118030000Y-125437500I0J-62500D01*
G01*
X118030000Y-125562500D01*
G75*
G02*
X117967500Y-125625000I-62500J0D01*
G01*
G37*
G36*
G01*
X117967500Y-126125000D02*
X117267500Y-126125000D01*
G75*
G02*
X117205000Y-126062500I0J62500D01*
G01*
X117205000Y-125937500D01*
G75*
G02*
X117267500Y-125875000I62500J0D01*
G01*
X117967500Y-125875000D01*
G75*
G02*
X118030000Y-125937500I0J-62500D01*
G01*
X118030000Y-126062500D01*
G75*
G02*
X117967500Y-126125000I-62500J0D01*
G01*
G37*
G36*
G01*
X117967500Y-126625000D02*
X117267500Y-126625000D01*
G75*
G02*
X117205000Y-126562500I0J62500D01*
G01*
X117205000Y-126437500D01*
G75*
G02*
X117267500Y-126375000I62500J0D01*
G01*
X117967500Y-126375000D01*
G75*
G02*
X118030000Y-126437500I0J-62500D01*
G01*
X118030000Y-126562500D01*
G75*
G02*
X117967500Y-126625000I-62500J0D01*
G01*
G37*
G36*
G01*
X116992500Y-127600000D02*
X116867500Y-127600000D01*
G75*
G02*
X116805000Y-127537500I0J62500D01*
G01*
X116805000Y-126837500D01*
G75*
G02*
X116867500Y-126775000I62500J0D01*
G01*
X116992500Y-126775000D01*
G75*
G02*
X117055000Y-126837500I0J-62500D01*
G01*
X117055000Y-127537500D01*
G75*
G02*
X116992500Y-127600000I-62500J0D01*
G01*
G37*
G36*
G01*
X116492500Y-127600000D02*
X116367500Y-127600000D01*
G75*
G02*
X116305000Y-127537500I0J62500D01*
G01*
X116305000Y-126837500D01*
G75*
G02*
X116367500Y-126775000I62500J0D01*
G01*
X116492500Y-126775000D01*
G75*
G02*
X116555000Y-126837500I0J-62500D01*
G01*
X116555000Y-127537500D01*
G75*
G02*
X116492500Y-127600000I-62500J0D01*
G01*
G37*
G36*
G01*
X115992500Y-127600000D02*
X115867500Y-127600000D01*
G75*
G02*
X115805000Y-127537500I0J62500D01*
G01*
X115805000Y-126837500D01*
G75*
G02*
X115867500Y-126775000I62500J0D01*
G01*
X115992500Y-126775000D01*
G75*
G02*
X116055000Y-126837500I0J-62500D01*
G01*
X116055000Y-127537500D01*
G75*
G02*
X115992500Y-127600000I-62500J0D01*
G01*
G37*
G36*
G01*
X115492500Y-127600000D02*
X115367500Y-127600000D01*
G75*
G02*
X115305000Y-127537500I0J62500D01*
G01*
X115305000Y-126837500D01*
G75*
G02*
X115367500Y-126775000I62500J0D01*
G01*
X115492500Y-126775000D01*
G75*
G02*
X115555000Y-126837500I0J-62500D01*
G01*
X115555000Y-127537500D01*
G75*
G02*
X115492500Y-127600000I-62500J0D01*
G01*
G37*
G36*
G01*
X114992500Y-127600000D02*
X114867500Y-127600000D01*
G75*
G02*
X114805000Y-127537500I0J62500D01*
G01*
X114805000Y-126837500D01*
G75*
G02*
X114867500Y-126775000I62500J0D01*
G01*
X114992500Y-126775000D01*
G75*
G02*
X115055000Y-126837500I0J-62500D01*
G01*
X115055000Y-127537500D01*
G75*
G02*
X114992500Y-127600000I-62500J0D01*
G01*
G37*
G36*
G01*
X114492500Y-127600000D02*
X114367500Y-127600000D01*
G75*
G02*
X114305000Y-127537500I0J62500D01*
G01*
X114305000Y-126837500D01*
G75*
G02*
X114367500Y-126775000I62500J0D01*
G01*
X114492500Y-126775000D01*
G75*
G02*
X114555000Y-126837500I0J-62500D01*
G01*
X114555000Y-127537500D01*
G75*
G02*
X114492500Y-127600000I-62500J0D01*
G01*
G37*
G36*
G01*
X117737720Y-102326741D02*
X117737720Y-101686739D01*
G75*
G02*
X117987719Y-101436740I249999J0D01*
G01*
X118627721Y-101436740D01*
G75*
G02*
X118877720Y-101686739I0J-249999D01*
G01*
X118877720Y-102326741D01*
G75*
G02*
X118627721Y-102576740I-249999J0D01*
G01*
X117987719Y-102576740D01*
G75*
G02*
X117737720Y-102326741I0J249999D01*
G01*
G37*
G36*
G01*
X117737720Y-100906741D02*
X117737720Y-100266739D01*
G75*
G02*
X117987719Y-100016740I249999J0D01*
G01*
X118627721Y-100016740D01*
G75*
G02*
X118877720Y-100266739I0J-249999D01*
G01*
X118877720Y-100906741D01*
G75*
G02*
X118627721Y-101156740I-249999J0D01*
G01*
X117987719Y-101156740D01*
G75*
G02*
X117737720Y-100906741I0J249999D01*
G01*
G37*
G36*
G01*
X117737720Y-99486741D02*
X117737720Y-98846739D01*
G75*
G02*
X117987719Y-98596740I249999J0D01*
G01*
X118627721Y-98596740D01*
G75*
G02*
X118877720Y-98846739I0J-249999D01*
G01*
X118877720Y-99486741D01*
G75*
G02*
X118627721Y-99736740I-249999J0D01*
G01*
X117987719Y-99736740D01*
G75*
G02*
X117737720Y-99486741I0J249999D01*
G01*
G37*
G36*
G01*
X116317720Y-102326741D02*
X116317720Y-101686739D01*
G75*
G02*
X116567719Y-101436740I249999J0D01*
G01*
X117207721Y-101436740D01*
G75*
G02*
X117457720Y-101686739I0J-249999D01*
G01*
X117457720Y-102326741D01*
G75*
G02*
X117207721Y-102576740I-249999J0D01*
G01*
X116567719Y-102576740D01*
G75*
G02*
X116317720Y-102326741I0J249999D01*
G01*
G37*
G36*
G01*
X116317720Y-100906741D02*
X116317720Y-100266739D01*
G75*
G02*
X116567719Y-100016740I249999J0D01*
G01*
X117207721Y-100016740D01*
G75*
G02*
X117457720Y-100266739I0J-249999D01*
G01*
X117457720Y-100906741D01*
G75*
G02*
X117207721Y-101156740I-249999J0D01*
G01*
X116567719Y-101156740D01*
G75*
G02*
X116317720Y-100906741I0J249999D01*
G01*
G37*
G36*
G01*
X116317720Y-99486741D02*
X116317720Y-98846739D01*
G75*
G02*
X116567719Y-98596740I249999J0D01*
G01*
X117207721Y-98596740D01*
G75*
G02*
X117457720Y-98846739I0J-249999D01*
G01*
X117457720Y-99486741D01*
G75*
G02*
X117207721Y-99736740I-249999J0D01*
G01*
X116567719Y-99736740D01*
G75*
G02*
X116317720Y-99486741I0J249999D01*
G01*
G37*
G36*
G01*
X114897720Y-102326741D02*
X114897720Y-101686739D01*
G75*
G02*
X115147719Y-101436740I249999J0D01*
G01*
X115787721Y-101436740D01*
G75*
G02*
X116037720Y-101686739I0J-249999D01*
G01*
X116037720Y-102326741D01*
G75*
G02*
X115787721Y-102576740I-249999J0D01*
G01*
X115147719Y-102576740D01*
G75*
G02*
X114897720Y-102326741I0J249999D01*
G01*
G37*
G36*
G01*
X114897720Y-100906741D02*
X114897720Y-100266739D01*
G75*
G02*
X115147719Y-100016740I249999J0D01*
G01*
X115787721Y-100016740D01*
G75*
G02*
X116037720Y-100266739I0J-249999D01*
G01*
X116037720Y-100906741D01*
G75*
G02*
X115787721Y-101156740I-249999J0D01*
G01*
X115147719Y-101156740D01*
G75*
G02*
X114897720Y-100906741I0J249999D01*
G01*
G37*
G36*
G01*
X114897720Y-99486741D02*
X114897720Y-98846739D01*
G75*
G02*
X115147719Y-98596740I249999J0D01*
G01*
X115787721Y-98596740D01*
G75*
G02*
X116037720Y-98846739I0J-249999D01*
G01*
X116037720Y-99486741D01*
G75*
G02*
X115787721Y-99736740I-249999J0D01*
G01*
X115147719Y-99736740D01*
G75*
G02*
X114897720Y-99486741I0J249999D01*
G01*
G37*
G36*
G01*
X114787720Y-98186740D02*
X114787720Y-97311740D01*
G75*
G02*
X114862720Y-97236740I75000J0D01*
G01*
X115012720Y-97236740D01*
G75*
G02*
X115087720Y-97311740I0J-75000D01*
G01*
X115087720Y-98186740D01*
G75*
G02*
X115012720Y-98261740I-75000J0D01*
G01*
X114862720Y-98261740D01*
G75*
G02*
X114787720Y-98186740I0J75000D01*
G01*
G37*
G36*
G01*
X115437720Y-98186740D02*
X115437720Y-97311740D01*
G75*
G02*
X115512720Y-97236740I75000J0D01*
G01*
X115662720Y-97236740D01*
G75*
G02*
X115737720Y-97311740I0J-75000D01*
G01*
X115737720Y-98186740D01*
G75*
G02*
X115662720Y-98261740I-75000J0D01*
G01*
X115512720Y-98261740D01*
G75*
G02*
X115437720Y-98186740I0J75000D01*
G01*
G37*
G36*
G01*
X116087720Y-98186740D02*
X116087720Y-97311740D01*
G75*
G02*
X116162720Y-97236740I75000J0D01*
G01*
X116312720Y-97236740D01*
G75*
G02*
X116387720Y-97311740I0J-75000D01*
G01*
X116387720Y-98186740D01*
G75*
G02*
X116312720Y-98261740I-75000J0D01*
G01*
X116162720Y-98261740D01*
G75*
G02*
X116087720Y-98186740I0J75000D01*
G01*
G37*
G36*
G01*
X116737720Y-98186740D02*
X116737720Y-97311740D01*
G75*
G02*
X116812720Y-97236740I75000J0D01*
G01*
X116962720Y-97236740D01*
G75*
G02*
X117037720Y-97311740I0J-75000D01*
G01*
X117037720Y-98186740D01*
G75*
G02*
X116962720Y-98261740I-75000J0D01*
G01*
X116812720Y-98261740D01*
G75*
G02*
X116737720Y-98186740I0J75000D01*
G01*
G37*
G36*
G01*
X117387720Y-98186740D02*
X117387720Y-97311740D01*
G75*
G02*
X117462720Y-97236740I75000J0D01*
G01*
X117612720Y-97236740D01*
G75*
G02*
X117687720Y-97311740I0J-75000D01*
G01*
X117687720Y-98186740D01*
G75*
G02*
X117612720Y-98261740I-75000J0D01*
G01*
X117462720Y-98261740D01*
G75*
G02*
X117387720Y-98186740I0J75000D01*
G01*
G37*
G36*
G01*
X118037720Y-98186740D02*
X118037720Y-97311740D01*
G75*
G02*
X118112720Y-97236740I75000J0D01*
G01*
X118262720Y-97236740D01*
G75*
G02*
X118337720Y-97311740I0J-75000D01*
G01*
X118337720Y-98186740D01*
G75*
G02*
X118262720Y-98261740I-75000J0D01*
G01*
X118112720Y-98261740D01*
G75*
G02*
X118037720Y-98186740I0J75000D01*
G01*
G37*
G36*
G01*
X118687720Y-98186740D02*
X118687720Y-97311740D01*
G75*
G02*
X118762720Y-97236740I75000J0D01*
G01*
X118912720Y-97236740D01*
G75*
G02*
X118987720Y-97311740I0J-75000D01*
G01*
X118987720Y-98186740D01*
G75*
G02*
X118912720Y-98261740I-75000J0D01*
G01*
X118762720Y-98261740D01*
G75*
G02*
X118687720Y-98186740I0J75000D01*
G01*
G37*
G36*
G01*
X119212720Y-98711740D02*
X119212720Y-98561740D01*
G75*
G02*
X119287720Y-98486740I75000J0D01*
G01*
X120162720Y-98486740D01*
G75*
G02*
X120237720Y-98561740I0J-75000D01*
G01*
X120237720Y-98711740D01*
G75*
G02*
X120162720Y-98786740I-75000J0D01*
G01*
X119287720Y-98786740D01*
G75*
G02*
X119212720Y-98711740I0J75000D01*
G01*
G37*
G36*
G01*
X119212720Y-99361740D02*
X119212720Y-99211740D01*
G75*
G02*
X119287720Y-99136740I75000J0D01*
G01*
X120162720Y-99136740D01*
G75*
G02*
X120237720Y-99211740I0J-75000D01*
G01*
X120237720Y-99361740D01*
G75*
G02*
X120162720Y-99436740I-75000J0D01*
G01*
X119287720Y-99436740D01*
G75*
G02*
X119212720Y-99361740I0J75000D01*
G01*
G37*
G36*
G01*
X119212720Y-100011740D02*
X119212720Y-99861740D01*
G75*
G02*
X119287720Y-99786740I75000J0D01*
G01*
X120162720Y-99786740D01*
G75*
G02*
X120237720Y-99861740I0J-75000D01*
G01*
X120237720Y-100011740D01*
G75*
G02*
X120162720Y-100086740I-75000J0D01*
G01*
X119287720Y-100086740D01*
G75*
G02*
X119212720Y-100011740I0J75000D01*
G01*
G37*
G36*
G01*
X119212720Y-100661740D02*
X119212720Y-100511740D01*
G75*
G02*
X119287720Y-100436740I75000J0D01*
G01*
X120162720Y-100436740D01*
G75*
G02*
X120237720Y-100511740I0J-75000D01*
G01*
X120237720Y-100661740D01*
G75*
G02*
X120162720Y-100736740I-75000J0D01*
G01*
X119287720Y-100736740D01*
G75*
G02*
X119212720Y-100661740I0J75000D01*
G01*
G37*
G36*
G01*
X119212720Y-101311740D02*
X119212720Y-101161740D01*
G75*
G02*
X119287720Y-101086740I75000J0D01*
G01*
X120162720Y-101086740D01*
G75*
G02*
X120237720Y-101161740I0J-75000D01*
G01*
X120237720Y-101311740D01*
G75*
G02*
X120162720Y-101386740I-75000J0D01*
G01*
X119287720Y-101386740D01*
G75*
G02*
X119212720Y-101311740I0J75000D01*
G01*
G37*
G36*
G01*
X119212720Y-101961740D02*
X119212720Y-101811740D01*
G75*
G02*
X119287720Y-101736740I75000J0D01*
G01*
X120162720Y-101736740D01*
G75*
G02*
X120237720Y-101811740I0J-75000D01*
G01*
X120237720Y-101961740D01*
G75*
G02*
X120162720Y-102036740I-75000J0D01*
G01*
X119287720Y-102036740D01*
G75*
G02*
X119212720Y-101961740I0J75000D01*
G01*
G37*
G36*
G01*
X119212720Y-102611740D02*
X119212720Y-102461740D01*
G75*
G02*
X119287720Y-102386740I75000J0D01*
G01*
X120162720Y-102386740D01*
G75*
G02*
X120237720Y-102461740I0J-75000D01*
G01*
X120237720Y-102611740D01*
G75*
G02*
X120162720Y-102686740I-75000J0D01*
G01*
X119287720Y-102686740D01*
G75*
G02*
X119212720Y-102611740I0J75000D01*
G01*
G37*
G36*
G01*
X118687720Y-103861740D02*
X118687720Y-102986740D01*
G75*
G02*
X118762720Y-102911740I75000J0D01*
G01*
X118912720Y-102911740D01*
G75*
G02*
X118987720Y-102986740I0J-75000D01*
G01*
X118987720Y-103861740D01*
G75*
G02*
X118912720Y-103936740I-75000J0D01*
G01*
X118762720Y-103936740D01*
G75*
G02*
X118687720Y-103861740I0J75000D01*
G01*
G37*
G36*
G01*
X118037720Y-103861740D02*
X118037720Y-102986740D01*
G75*
G02*
X118112720Y-102911740I75000J0D01*
G01*
X118262720Y-102911740D01*
G75*
G02*
X118337720Y-102986740I0J-75000D01*
G01*
X118337720Y-103861740D01*
G75*
G02*
X118262720Y-103936740I-75000J0D01*
G01*
X118112720Y-103936740D01*
G75*
G02*
X118037720Y-103861740I0J75000D01*
G01*
G37*
G36*
G01*
X117387720Y-103861740D02*
X117387720Y-102986740D01*
G75*
G02*
X117462720Y-102911740I75000J0D01*
G01*
X117612720Y-102911740D01*
G75*
G02*
X117687720Y-102986740I0J-75000D01*
G01*
X117687720Y-103861740D01*
G75*
G02*
X117612720Y-103936740I-75000J0D01*
G01*
X117462720Y-103936740D01*
G75*
G02*
X117387720Y-103861740I0J75000D01*
G01*
G37*
G36*
G01*
X116737720Y-103861740D02*
X116737720Y-102986740D01*
G75*
G02*
X116812720Y-102911740I75000J0D01*
G01*
X116962720Y-102911740D01*
G75*
G02*
X117037720Y-102986740I0J-75000D01*
G01*
X117037720Y-103861740D01*
G75*
G02*
X116962720Y-103936740I-75000J0D01*
G01*
X116812720Y-103936740D01*
G75*
G02*
X116737720Y-103861740I0J75000D01*
G01*
G37*
G36*
G01*
X116087720Y-103861740D02*
X116087720Y-102986740D01*
G75*
G02*
X116162720Y-102911740I75000J0D01*
G01*
X116312720Y-102911740D01*
G75*
G02*
X116387720Y-102986740I0J-75000D01*
G01*
X116387720Y-103861740D01*
G75*
G02*
X116312720Y-103936740I-75000J0D01*
G01*
X116162720Y-103936740D01*
G75*
G02*
X116087720Y-103861740I0J75000D01*
G01*
G37*
G36*
G01*
X115437720Y-103861740D02*
X115437720Y-102986740D01*
G75*
G02*
X115512720Y-102911740I75000J0D01*
G01*
X115662720Y-102911740D01*
G75*
G02*
X115737720Y-102986740I0J-75000D01*
G01*
X115737720Y-103861740D01*
G75*
G02*
X115662720Y-103936740I-75000J0D01*
G01*
X115512720Y-103936740D01*
G75*
G02*
X115437720Y-103861740I0J75000D01*
G01*
G37*
G36*
G01*
X114787720Y-103861740D02*
X114787720Y-102986740D01*
G75*
G02*
X114862720Y-102911740I75000J0D01*
G01*
X115012720Y-102911740D01*
G75*
G02*
X115087720Y-102986740I0J-75000D01*
G01*
X115087720Y-103861740D01*
G75*
G02*
X115012720Y-103936740I-75000J0D01*
G01*
X114862720Y-103936740D01*
G75*
G02*
X114787720Y-103861740I0J75000D01*
G01*
G37*
G36*
G01*
X113537720Y-102611740D02*
X113537720Y-102461740D01*
G75*
G02*
X113612720Y-102386740I75000J0D01*
G01*
X114487720Y-102386740D01*
G75*
G02*
X114562720Y-102461740I0J-75000D01*
G01*
X114562720Y-102611740D01*
G75*
G02*
X114487720Y-102686740I-75000J0D01*
G01*
X113612720Y-102686740D01*
G75*
G02*
X113537720Y-102611740I0J75000D01*
G01*
G37*
G36*
G01*
X113537720Y-101961740D02*
X113537720Y-101811740D01*
G75*
G02*
X113612720Y-101736740I75000J0D01*
G01*
X114487720Y-101736740D01*
G75*
G02*
X114562720Y-101811740I0J-75000D01*
G01*
X114562720Y-101961740D01*
G75*
G02*
X114487720Y-102036740I-75000J0D01*
G01*
X113612720Y-102036740D01*
G75*
G02*
X113537720Y-101961740I0J75000D01*
G01*
G37*
G36*
G01*
X113537720Y-101311740D02*
X113537720Y-101161740D01*
G75*
G02*
X113612720Y-101086740I75000J0D01*
G01*
X114487720Y-101086740D01*
G75*
G02*
X114562720Y-101161740I0J-75000D01*
G01*
X114562720Y-101311740D01*
G75*
G02*
X114487720Y-101386740I-75000J0D01*
G01*
X113612720Y-101386740D01*
G75*
G02*
X113537720Y-101311740I0J75000D01*
G01*
G37*
G36*
G01*
X113537720Y-100661740D02*
X113537720Y-100511740D01*
G75*
G02*
X113612720Y-100436740I75000J0D01*
G01*
X114487720Y-100436740D01*
G75*
G02*
X114562720Y-100511740I0J-75000D01*
G01*
X114562720Y-100661740D01*
G75*
G02*
X114487720Y-100736740I-75000J0D01*
G01*
X113612720Y-100736740D01*
G75*
G02*
X113537720Y-100661740I0J75000D01*
G01*
G37*
G36*
G01*
X113537720Y-100011740D02*
X113537720Y-99861740D01*
G75*
G02*
X113612720Y-99786740I75000J0D01*
G01*
X114487720Y-99786740D01*
G75*
G02*
X114562720Y-99861740I0J-75000D01*
G01*
X114562720Y-100011740D01*
G75*
G02*
X114487720Y-100086740I-75000J0D01*
G01*
X113612720Y-100086740D01*
G75*
G02*
X113537720Y-100011740I0J75000D01*
G01*
G37*
G36*
G01*
X113537720Y-99361740D02*
X113537720Y-99211740D01*
G75*
G02*
X113612720Y-99136740I75000J0D01*
G01*
X114487720Y-99136740D01*
G75*
G02*
X114562720Y-99211740I0J-75000D01*
G01*
X114562720Y-99361740D01*
G75*
G02*
X114487720Y-99436740I-75000J0D01*
G01*
X113612720Y-99436740D01*
G75*
G02*
X113537720Y-99361740I0J75000D01*
G01*
G37*
G36*
G01*
X113537720Y-98711740D02*
X113537720Y-98561740D01*
G75*
G02*
X113612720Y-98486740I75000J0D01*
G01*
X114487720Y-98486740D01*
G75*
G02*
X114562720Y-98561740I0J-75000D01*
G01*
X114562720Y-98711740D01*
G75*
G02*
X114487720Y-98786740I-75000J0D01*
G01*
X113612720Y-98786740D01*
G75*
G02*
X113537720Y-98711740I0J75000D01*
G01*
G37*
G36*
G01*
X162005000Y-109267500D02*
X162005000Y-109612500D01*
G75*
G02*
X161857500Y-109760000I-147500J0D01*
G01*
X161562500Y-109760000D01*
G75*
G02*
X161415000Y-109612500I0J147500D01*
G01*
X161415000Y-109267500D01*
G75*
G02*
X161562500Y-109120000I147500J0D01*
G01*
X161857500Y-109120000D01*
G75*
G02*
X162005000Y-109267500I0J-147500D01*
G01*
G37*
G36*
G01*
X161035000Y-109267500D02*
X161035000Y-109612500D01*
G75*
G02*
X160887500Y-109760000I-147500J0D01*
G01*
X160592500Y-109760000D01*
G75*
G02*
X160445000Y-109612500I0J147500D01*
G01*
X160445000Y-109267500D01*
G75*
G02*
X160592500Y-109120000I147500J0D01*
G01*
X160887500Y-109120000D01*
G75*
G02*
X161035000Y-109267500I0J-147500D01*
G01*
G37*
G36*
G01*
X163870000Y-109267500D02*
X163870000Y-109612500D01*
G75*
G02*
X163722500Y-109760000I-147500J0D01*
G01*
X163427500Y-109760000D01*
G75*
G02*
X163280000Y-109612500I0J147500D01*
G01*
X163280000Y-109267500D01*
G75*
G02*
X163427500Y-109120000I147500J0D01*
G01*
X163722500Y-109120000D01*
G75*
G02*
X163870000Y-109267500I0J-147500D01*
G01*
G37*
G36*
G01*
X162900000Y-109267500D02*
X162900000Y-109612500D01*
G75*
G02*
X162752500Y-109760000I-147500J0D01*
G01*
X162457500Y-109760000D01*
G75*
G02*
X162310000Y-109612500I0J147500D01*
G01*
X162310000Y-109267500D01*
G75*
G02*
X162457500Y-109120000I147500J0D01*
G01*
X162752500Y-109120000D01*
G75*
G02*
X162900000Y-109267500I0J-147500D01*
G01*
G37*
G36*
G01*
X160995000Y-127397500D02*
X160995000Y-127742500D01*
G75*
G02*
X160847500Y-127890000I-147500J0D01*
G01*
X160552500Y-127890000D01*
G75*
G02*
X160405000Y-127742500I0J147500D01*
G01*
X160405000Y-127397500D01*
G75*
G02*
X160552500Y-127250000I147500J0D01*
G01*
X160847500Y-127250000D01*
G75*
G02*
X160995000Y-127397500I0J-147500D01*
G01*
G37*
G36*
G01*
X160025000Y-127397500D02*
X160025000Y-127742500D01*
G75*
G02*
X159877500Y-127890000I-147500J0D01*
G01*
X159582500Y-127890000D01*
G75*
G02*
X159435000Y-127742500I0J147500D01*
G01*
X159435000Y-127397500D01*
G75*
G02*
X159582500Y-127250000I147500J0D01*
G01*
X159877500Y-127250000D01*
G75*
G02*
X160025000Y-127397500I0J-147500D01*
G01*
G37*
G36*
G01*
X162850000Y-127397500D02*
X162850000Y-127742500D01*
G75*
G02*
X162702500Y-127890000I-147500J0D01*
G01*
X162407500Y-127890000D01*
G75*
G02*
X162260000Y-127742500I0J147500D01*
G01*
X162260000Y-127397500D01*
G75*
G02*
X162407500Y-127250000I147500J0D01*
G01*
X162702500Y-127250000D01*
G75*
G02*
X162850000Y-127397500I0J-147500D01*
G01*
G37*
G36*
G01*
X161880000Y-127397500D02*
X161880000Y-127742500D01*
G75*
G02*
X161732500Y-127890000I-147500J0D01*
G01*
X161437500Y-127890000D01*
G75*
G02*
X161290000Y-127742500I0J147500D01*
G01*
X161290000Y-127397500D01*
G75*
G02*
X161437500Y-127250000I147500J0D01*
G01*
X161732500Y-127250000D01*
G75*
G02*
X161880000Y-127397500I0J-147500D01*
G01*
G37*
G36*
G01*
X70025000Y-110977500D02*
X70025000Y-111322500D01*
G75*
G02*
X69877500Y-111470000I-147500J0D01*
G01*
X69582500Y-111470000D01*
G75*
G02*
X69435000Y-111322500I0J147500D01*
G01*
X69435000Y-110977500D01*
G75*
G02*
X69582500Y-110830000I147500J0D01*
G01*
X69877500Y-110830000D01*
G75*
G02*
X70025000Y-110977500I0J-147500D01*
G01*
G37*
G36*
G01*
X70995000Y-110977500D02*
X70995000Y-111322500D01*
G75*
G02*
X70847500Y-111470000I-147500J0D01*
G01*
X70552500Y-111470000D01*
G75*
G02*
X70405000Y-111322500I0J147500D01*
G01*
X70405000Y-110977500D01*
G75*
G02*
X70552500Y-110830000I147500J0D01*
G01*
X70847500Y-110830000D01*
G75*
G02*
X70995000Y-110977500I0J-147500D01*
G01*
G37*
G36*
G01*
X71884000Y-110977500D02*
X71884000Y-111322500D01*
G75*
G02*
X71736500Y-111470000I-147500J0D01*
G01*
X71441500Y-111470000D01*
G75*
G02*
X71294000Y-111322500I0J147500D01*
G01*
X71294000Y-110977500D01*
G75*
G02*
X71441500Y-110830000I147500J0D01*
G01*
X71736500Y-110830000D01*
G75*
G02*
X71884000Y-110977500I0J-147500D01*
G01*
G37*
G36*
G01*
X72854000Y-110977500D02*
X72854000Y-111322500D01*
G75*
G02*
X72706500Y-111470000I-147500J0D01*
G01*
X72411500Y-111470000D01*
G75*
G02*
X72264000Y-111322500I0J147500D01*
G01*
X72264000Y-110977500D01*
G75*
G02*
X72411500Y-110830000I147500J0D01*
G01*
X72706500Y-110830000D01*
G75*
G02*
X72854000Y-110977500I0J-147500D01*
G01*
G37*
G36*
G01*
X74585000Y-91707500D02*
X74585000Y-92052500D01*
G75*
G02*
X74437500Y-92200000I-147500J0D01*
G01*
X74142500Y-92200000D01*
G75*
G02*
X73995000Y-92052500I0J147500D01*
G01*
X73995000Y-91707500D01*
G75*
G02*
X74142500Y-91560000I147500J0D01*
G01*
X74437500Y-91560000D01*
G75*
G02*
X74585000Y-91707500I0J-147500D01*
G01*
G37*
G36*
G01*
X75555000Y-91707500D02*
X75555000Y-92052500D01*
G75*
G02*
X75407500Y-92200000I-147500J0D01*
G01*
X75112500Y-92200000D01*
G75*
G02*
X74965000Y-92052500I0J147500D01*
G01*
X74965000Y-91707500D01*
G75*
G02*
X75112500Y-91560000I147500J0D01*
G01*
X75407500Y-91560000D01*
G75*
G02*
X75555000Y-91707500I0J-147500D01*
G01*
G37*
G36*
G01*
X74965000Y-92982500D02*
X74965000Y-92637500D01*
G75*
G02*
X75112500Y-92490000I147500J0D01*
G01*
X75407500Y-92490000D01*
G75*
G02*
X75555000Y-92637500I0J-147500D01*
G01*
X75555000Y-92982500D01*
G75*
G02*
X75407500Y-93130000I-147500J0D01*
G01*
X75112500Y-93130000D01*
G75*
G02*
X74965000Y-92982500I0J147500D01*
G01*
G37*
G36*
G01*
X73995000Y-92982500D02*
X73995000Y-92637500D01*
G75*
G02*
X74142500Y-92490000I147500J0D01*
G01*
X74437500Y-92490000D01*
G75*
G02*
X74585000Y-92637500I0J-147500D01*
G01*
X74585000Y-92982500D01*
G75*
G02*
X74437500Y-93130000I-147500J0D01*
G01*
X74142500Y-93130000D01*
G75*
G02*
X73995000Y-92982500I0J147500D01*
G01*
G37*
G36*
G01*
X127060000Y-121367500D02*
X127060000Y-121712500D01*
G75*
G02*
X126912500Y-121860000I-147500J0D01*
G01*
X126617500Y-121860000D01*
G75*
G02*
X126470000Y-121712500I0J147500D01*
G01*
X126470000Y-121367500D01*
G75*
G02*
X126617500Y-121220000I147500J0D01*
G01*
X126912500Y-121220000D01*
G75*
G02*
X127060000Y-121367500I0J-147500D01*
G01*
G37*
G36*
G01*
X128030000Y-121367500D02*
X128030000Y-121712500D01*
G75*
G02*
X127882500Y-121860000I-147500J0D01*
G01*
X127587500Y-121860000D01*
G75*
G02*
X127440000Y-121712500I0J147500D01*
G01*
X127440000Y-121367500D01*
G75*
G02*
X127587500Y-121220000I147500J0D01*
G01*
X127882500Y-121220000D01*
G75*
G02*
X128030000Y-121367500I0J-147500D01*
G01*
G37*
G36*
G01*
X127902500Y-122865000D02*
X127557500Y-122865000D01*
G75*
G02*
X127410000Y-122717500I0J147500D01*
G01*
X127410000Y-122422500D01*
G75*
G02*
X127557500Y-122275000I147500J0D01*
G01*
X127902500Y-122275000D01*
G75*
G02*
X128050000Y-122422500I0J-147500D01*
G01*
X128050000Y-122717500D01*
G75*
G02*
X127902500Y-122865000I-147500J0D01*
G01*
G37*
G36*
G01*
X127902500Y-123835000D02*
X127557500Y-123835000D01*
G75*
G02*
X127410000Y-123687500I0J147500D01*
G01*
X127410000Y-123392500D01*
G75*
G02*
X127557500Y-123245000I147500J0D01*
G01*
X127902500Y-123245000D01*
G75*
G02*
X128050000Y-123392500I0J-147500D01*
G01*
X128050000Y-123687500D01*
G75*
G02*
X127902500Y-123835000I-147500J0D01*
G01*
G37*
G36*
G01*
X126962500Y-122865000D02*
X126617500Y-122865000D01*
G75*
G02*
X126470000Y-122717500I0J147500D01*
G01*
X126470000Y-122422500D01*
G75*
G02*
X126617500Y-122275000I147500J0D01*
G01*
X126962500Y-122275000D01*
G75*
G02*
X127110000Y-122422500I0J-147500D01*
G01*
X127110000Y-122717500D01*
G75*
G02*
X126962500Y-122865000I-147500J0D01*
G01*
G37*
G36*
G01*
X126962500Y-123835000D02*
X126617500Y-123835000D01*
G75*
G02*
X126470000Y-123687500I0J147500D01*
G01*
X126470000Y-123392500D01*
G75*
G02*
X126617500Y-123245000I147500J0D01*
G01*
X126962500Y-123245000D01*
G75*
G02*
X127110000Y-123392500I0J-147500D01*
G01*
X127110000Y-123687500D01*
G75*
G02*
X126962500Y-123835000I-147500J0D01*
G01*
G37*
G36*
G01*
X107707500Y-94530000D02*
X108052500Y-94530000D01*
G75*
G02*
X108200000Y-94677500I0J-147500D01*
G01*
X108200000Y-94972500D01*
G75*
G02*
X108052500Y-95120000I-147500J0D01*
G01*
X107707500Y-95120000D01*
G75*
G02*
X107560000Y-94972500I0J147500D01*
G01*
X107560000Y-94677500D01*
G75*
G02*
X107707500Y-94530000I147500J0D01*
G01*
G37*
G36*
G01*
X107707500Y-93560000D02*
X108052500Y-93560000D01*
G75*
G02*
X108200000Y-93707500I0J-147500D01*
G01*
X108200000Y-94002500D01*
G75*
G02*
X108052500Y-94150000I-147500J0D01*
G01*
X107707500Y-94150000D01*
G75*
G02*
X107560000Y-94002500I0J147500D01*
G01*
X107560000Y-93707500D01*
G75*
G02*
X107707500Y-93560000I147500J0D01*
G01*
G37*
G36*
G01*
X107697500Y-92660000D02*
X108042500Y-92660000D01*
G75*
G02*
X108190000Y-92807500I0J-147500D01*
G01*
X108190000Y-93102500D01*
G75*
G02*
X108042500Y-93250000I-147500J0D01*
G01*
X107697500Y-93250000D01*
G75*
G02*
X107550000Y-93102500I0J147500D01*
G01*
X107550000Y-92807500D01*
G75*
G02*
X107697500Y-92660000I147500J0D01*
G01*
G37*
G36*
G01*
X107697500Y-91690000D02*
X108042500Y-91690000D01*
G75*
G02*
X108190000Y-91837500I0J-147500D01*
G01*
X108190000Y-92132500D01*
G75*
G02*
X108042500Y-92280000I-147500J0D01*
G01*
X107697500Y-92280000D01*
G75*
G02*
X107550000Y-92132500I0J147500D01*
G01*
X107550000Y-91837500D01*
G75*
G02*
X107697500Y-91690000I147500J0D01*
G01*
G37*
G36*
G01*
X131965000Y-104502500D02*
X131965000Y-104157500D01*
G75*
G02*
X132112500Y-104010000I147500J0D01*
G01*
X132407500Y-104010000D01*
G75*
G02*
X132555000Y-104157500I0J-147500D01*
G01*
X132555000Y-104502500D01*
G75*
G02*
X132407500Y-104650000I-147500J0D01*
G01*
X132112500Y-104650000D01*
G75*
G02*
X131965000Y-104502500I0J147500D01*
G01*
G37*
G36*
G01*
X132935000Y-104502500D02*
X132935000Y-104157500D01*
G75*
G02*
X133082500Y-104010000I147500J0D01*
G01*
X133377500Y-104010000D01*
G75*
G02*
X133525000Y-104157500I0J-147500D01*
G01*
X133525000Y-104502500D01*
G75*
G02*
X133377500Y-104650000I-147500J0D01*
G01*
X133082500Y-104650000D01*
G75*
G02*
X132935000Y-104502500I0J147500D01*
G01*
G37*
G36*
G01*
X130112040Y-104509120D02*
X130112040Y-104164120D01*
G75*
G02*
X130259540Y-104016620I147500J0D01*
G01*
X130554540Y-104016620D01*
G75*
G02*
X130702040Y-104164120I0J-147500D01*
G01*
X130702040Y-104509120D01*
G75*
G02*
X130554540Y-104656620I-147500J0D01*
G01*
X130259540Y-104656620D01*
G75*
G02*
X130112040Y-104509120I0J147500D01*
G01*
G37*
G36*
G01*
X131082040Y-104509120D02*
X131082040Y-104164120D01*
G75*
G02*
X131229540Y-104016620I147500J0D01*
G01*
X131524540Y-104016620D01*
G75*
G02*
X131672040Y-104164120I0J-147500D01*
G01*
X131672040Y-104509120D01*
G75*
G02*
X131524540Y-104656620I-147500J0D01*
G01*
X131229540Y-104656620D01*
G75*
G02*
X131082040Y-104509120I0J147500D01*
G01*
G37*
G36*
G01*
X121182540Y-121974730D02*
X121182540Y-121062230D01*
G75*
G02*
X121426290Y-120818480I243750J0D01*
G01*
X121913790Y-120818480D01*
G75*
G02*
X122157540Y-121062230I0J-243750D01*
G01*
X122157540Y-121974730D01*
G75*
G02*
X121913790Y-122218480I-243750J0D01*
G01*
X121426290Y-122218480D01*
G75*
G02*
X121182540Y-121974730I0J243750D01*
G01*
G37*
G36*
G01*
X119307540Y-121974730D02*
X119307540Y-121062230D01*
G75*
G02*
X119551290Y-120818480I243750J0D01*
G01*
X120038790Y-120818480D01*
G75*
G02*
X120282540Y-121062230I0J-243750D01*
G01*
X120282540Y-121974730D01*
G75*
G02*
X120038790Y-122218480I-243750J0D01*
G01*
X119551290Y-122218480D01*
G75*
G02*
X119307540Y-121974730I0J243750D01*
G01*
G37*
D10*
X100920000Y-133440000D03*
X99820000Y-133440000D03*
X98720000Y-133440000D03*
X97620000Y-133440000D03*
X96520000Y-133440000D03*
X95420000Y-133440000D03*
X94320000Y-133440000D03*
X93220000Y-133440000D03*
D11*
X90845000Y-127740000D03*
X104595000Y-127740000D03*
X104595000Y-136040000D03*
X90845000Y-136040000D03*
D12*
X125460000Y-121530000D03*
X125460000Y-120580000D03*
X125460000Y-122480000D03*
X123260000Y-122480000D03*
X123260000Y-121530000D03*
X123260000Y-120580000D03*
G36*
G01*
X124335000Y-119017500D02*
X124335000Y-119362500D01*
G75*
G02*
X124187500Y-119510000I-147500J0D01*
G01*
X123892500Y-119510000D01*
G75*
G02*
X123745000Y-119362500I0J147500D01*
G01*
X123745000Y-119017500D01*
G75*
G02*
X123892500Y-118870000I147500J0D01*
G01*
X124187500Y-118870000D01*
G75*
G02*
X124335000Y-119017500I0J-147500D01*
G01*
G37*
G36*
G01*
X125305000Y-119017500D02*
X125305000Y-119362500D01*
G75*
G02*
X125157500Y-119510000I-147500J0D01*
G01*
X124862500Y-119510000D01*
G75*
G02*
X124715000Y-119362500I0J147500D01*
G01*
X124715000Y-119017500D01*
G75*
G02*
X124862500Y-118870000I147500J0D01*
G01*
X125157500Y-118870000D01*
G75*
G02*
X125305000Y-119017500I0J-147500D01*
G01*
G37*
G36*
G01*
X121170000Y-118156250D02*
X121170000Y-117243750D01*
G75*
G02*
X121413750Y-117000000I243750J0D01*
G01*
X121901250Y-117000000D01*
G75*
G02*
X122145000Y-117243750I0J-243750D01*
G01*
X122145000Y-118156250D01*
G75*
G02*
X121901250Y-118400000I-243750J0D01*
G01*
X121413750Y-118400000D01*
G75*
G02*
X121170000Y-118156250I0J243750D01*
G01*
G37*
G36*
G01*
X119295000Y-118156250D02*
X119295000Y-117243750D01*
G75*
G02*
X119538750Y-117000000I243750J0D01*
G01*
X120026250Y-117000000D01*
G75*
G02*
X120270000Y-117243750I0J-243750D01*
G01*
X120270000Y-118156250D01*
G75*
G02*
X120026250Y-118400000I-243750J0D01*
G01*
X119538750Y-118400000D01*
G75*
G02*
X119295000Y-118156250I0J243750D01*
G01*
G37*
G36*
G01*
X123815000Y-127487500D02*
X123815000Y-127832500D01*
G75*
G02*
X123667500Y-127980000I-147500J0D01*
G01*
X123372500Y-127980000D01*
G75*
G02*
X123225000Y-127832500I0J147500D01*
G01*
X123225000Y-127487500D01*
G75*
G02*
X123372500Y-127340000I147500J0D01*
G01*
X123667500Y-127340000D01*
G75*
G02*
X123815000Y-127487500I0J-147500D01*
G01*
G37*
G36*
G01*
X124785000Y-127487500D02*
X124785000Y-127832500D01*
G75*
G02*
X124637500Y-127980000I-147500J0D01*
G01*
X124342500Y-127980000D01*
G75*
G02*
X124195000Y-127832500I0J147500D01*
G01*
X124195000Y-127487500D01*
G75*
G02*
X124342500Y-127340000I147500J0D01*
G01*
X124637500Y-127340000D01*
G75*
G02*
X124785000Y-127487500I0J-147500D01*
G01*
G37*
G36*
G01*
X121169040Y-120056450D02*
X121169040Y-119143950D01*
G75*
G02*
X121412790Y-118900200I243750J0D01*
G01*
X121900290Y-118900200D01*
G75*
G02*
X122144040Y-119143950I0J-243750D01*
G01*
X122144040Y-120056450D01*
G75*
G02*
X121900290Y-120300200I-243750J0D01*
G01*
X121412790Y-120300200D01*
G75*
G02*
X121169040Y-120056450I0J243750D01*
G01*
G37*
G36*
G01*
X119294040Y-120056450D02*
X119294040Y-119143950D01*
G75*
G02*
X119537790Y-118900200I243750J0D01*
G01*
X120025290Y-118900200D01*
G75*
G02*
X120269040Y-119143950I0J-243750D01*
G01*
X120269040Y-120056450D01*
G75*
G02*
X120025290Y-120300200I-243750J0D01*
G01*
X119537790Y-120300200D01*
G75*
G02*
X119294040Y-120056450I0J243750D01*
G01*
G37*
G36*
G01*
X123640000Y-125723750D02*
X123640000Y-126636250D01*
G75*
G02*
X123396250Y-126880000I-243750J0D01*
G01*
X122908750Y-126880000D01*
G75*
G02*
X122665000Y-126636250I0J243750D01*
G01*
X122665000Y-125723750D01*
G75*
G02*
X122908750Y-125480000I243750J0D01*
G01*
X123396250Y-125480000D01*
G75*
G02*
X123640000Y-125723750I0J-243750D01*
G01*
G37*
G36*
G01*
X125515000Y-125723750D02*
X125515000Y-126636250D01*
G75*
G02*
X125271250Y-126880000I-243750J0D01*
G01*
X124783750Y-126880000D01*
G75*
G02*
X124540000Y-126636250I0J243750D01*
G01*
X124540000Y-125723750D01*
G75*
G02*
X124783750Y-125480000I243750J0D01*
G01*
X125271250Y-125480000D01*
G75*
G02*
X125515000Y-125723750I0J-243750D01*
G01*
G37*
G36*
G01*
X123645480Y-123818470D02*
X123645480Y-124730970D01*
G75*
G02*
X123401730Y-124974720I-243750J0D01*
G01*
X122914230Y-124974720D01*
G75*
G02*
X122670480Y-124730970I0J243750D01*
G01*
X122670480Y-123818470D01*
G75*
G02*
X122914230Y-123574720I243750J0D01*
G01*
X123401730Y-123574720D01*
G75*
G02*
X123645480Y-123818470I0J-243750D01*
G01*
G37*
G36*
G01*
X125520480Y-123818470D02*
X125520480Y-124730970D01*
G75*
G02*
X125276730Y-124974720I-243750J0D01*
G01*
X124789230Y-124974720D01*
G75*
G02*
X124545480Y-124730970I0J243750D01*
G01*
X124545480Y-123818470D01*
G75*
G02*
X124789230Y-123574720I243750J0D01*
G01*
X125276730Y-123574720D01*
G75*
G02*
X125520480Y-123818470I0J-243750D01*
G01*
G37*
G36*
G01*
X116190000Y-96177500D02*
X116190000Y-96522500D01*
G75*
G02*
X116042500Y-96670000I-147500J0D01*
G01*
X115747500Y-96670000D01*
G75*
G02*
X115600000Y-96522500I0J147500D01*
G01*
X115600000Y-96177500D01*
G75*
G02*
X115747500Y-96030000I147500J0D01*
G01*
X116042500Y-96030000D01*
G75*
G02*
X116190000Y-96177500I0J-147500D01*
G01*
G37*
G36*
G01*
X117160000Y-96177500D02*
X117160000Y-96522500D01*
G75*
G02*
X117012500Y-96670000I-147500J0D01*
G01*
X116717500Y-96670000D01*
G75*
G02*
X116570000Y-96522500I0J147500D01*
G01*
X116570000Y-96177500D01*
G75*
G02*
X116717500Y-96030000I147500J0D01*
G01*
X117012500Y-96030000D01*
G75*
G02*
X117160000Y-96177500I0J-147500D01*
G01*
G37*
D13*
X90610800Y-116916200D03*
X90610800Y-115646200D03*
X90610800Y-114376200D03*
X90610800Y-113106200D03*
X90610800Y-111836200D03*
X90610800Y-110566200D03*
X90610800Y-109296200D03*
X90610800Y-108026200D03*
X90610800Y-106756200D03*
X90610800Y-105486200D03*
X90610800Y-104216200D03*
X90610800Y-102946200D03*
X90610800Y-101676200D03*
X90610800Y-100406200D03*
D14*
X93395800Y-99406200D03*
X94665800Y-99406200D03*
X95935800Y-99406200D03*
X97205800Y-99406200D03*
X98475800Y-99406200D03*
X99745800Y-99406200D03*
X101015800Y-99406200D03*
X102285800Y-99406200D03*
X103555800Y-99406200D03*
X104825800Y-99406200D03*
D13*
X107610800Y-100406200D03*
X107610800Y-101676200D03*
X107610800Y-102946200D03*
X107610800Y-104216200D03*
X107610800Y-105486200D03*
X107610800Y-106756200D03*
X107610800Y-108026200D03*
X107610800Y-109296200D03*
X107610800Y-110566200D03*
X107610800Y-111836200D03*
X107610800Y-113106200D03*
X107610800Y-114376200D03*
X107610800Y-115646200D03*
X107610800Y-116916200D03*
D15*
X100110800Y-109416200D03*
D16*
X121780000Y-107440000D03*
X121780000Y-109940000D03*
D17*
X117410800Y-112166300D03*
X117910800Y-112166300D03*
X118410800Y-112166300D03*
D18*
X116498300Y-112028800D03*
X116498300Y-111528800D03*
X116498300Y-111028800D03*
X116498300Y-110528800D03*
X116498300Y-110028800D03*
X116498300Y-109528800D03*
X116498300Y-109028800D03*
X116498300Y-108528800D03*
X116498300Y-108028800D03*
X119823300Y-112028800D03*
X119823300Y-111528800D03*
X119823300Y-111028800D03*
X119823300Y-110528800D03*
X119823300Y-110028800D03*
X119823300Y-109528800D03*
X119823300Y-109028800D03*
X119823300Y-108528800D03*
X119823300Y-108028800D03*
D17*
X117410800Y-107391300D03*
X117910800Y-107391300D03*
X118410800Y-107391300D03*
D18*
X119823300Y-107528800D03*
D17*
X118910800Y-107391300D03*
D18*
X116498300Y-107528800D03*
D17*
X118910800Y-112166300D03*
D19*
X109695000Y-127310000D03*
X106445000Y-127310000D03*
X109689200Y-124798400D03*
X106439200Y-124798400D03*
G36*
G01*
X163699800Y-91244300D02*
X163699800Y-91589300D01*
G75*
G02*
X163552300Y-91736800I-147500J0D01*
G01*
X163257300Y-91736800D01*
G75*
G02*
X163109800Y-91589300I0J147500D01*
G01*
X163109800Y-91244300D01*
G75*
G02*
X163257300Y-91096800I147500J0D01*
G01*
X163552300Y-91096800D01*
G75*
G02*
X163699800Y-91244300I0J-147500D01*
G01*
G37*
G36*
G01*
X162729800Y-91244300D02*
X162729800Y-91589300D01*
G75*
G02*
X162582300Y-91736800I-147500J0D01*
G01*
X162287300Y-91736800D01*
G75*
G02*
X162139800Y-91589300I0J147500D01*
G01*
X162139800Y-91244300D01*
G75*
G02*
X162287300Y-91096800I147500J0D01*
G01*
X162582300Y-91096800D01*
G75*
G02*
X162729800Y-91244300I0J-147500D01*
G01*
G37*
G36*
G01*
X163266400Y-127745700D02*
X163266400Y-127400700D01*
G75*
G02*
X163413900Y-127253200I147500J0D01*
G01*
X163708900Y-127253200D01*
G75*
G02*
X163856400Y-127400700I0J-147500D01*
G01*
X163856400Y-127745700D01*
G75*
G02*
X163708900Y-127893200I-147500J0D01*
G01*
X163413900Y-127893200D01*
G75*
G02*
X163266400Y-127745700I0J147500D01*
G01*
G37*
G36*
G01*
X164236400Y-127745700D02*
X164236400Y-127400700D01*
G75*
G02*
X164383900Y-127253200I147500J0D01*
G01*
X164678900Y-127253200D01*
G75*
G02*
X164826400Y-127400700I0J-147500D01*
G01*
X164826400Y-127745700D01*
G75*
G02*
X164678900Y-127893200I-147500J0D01*
G01*
X164383900Y-127893200D01*
G75*
G02*
X164236400Y-127745700I0J147500D01*
G01*
G37*
G36*
G01*
X72925000Y-128907500D02*
X72925000Y-129252500D01*
G75*
G02*
X72777500Y-129400000I-147500J0D01*
G01*
X72482500Y-129400000D01*
G75*
G02*
X72335000Y-129252500I0J147500D01*
G01*
X72335000Y-128907500D01*
G75*
G02*
X72482500Y-128760000I147500J0D01*
G01*
X72777500Y-128760000D01*
G75*
G02*
X72925000Y-128907500I0J-147500D01*
G01*
G37*
G36*
G01*
X73895000Y-128907500D02*
X73895000Y-129252500D01*
G75*
G02*
X73747500Y-129400000I-147500J0D01*
G01*
X73452500Y-129400000D01*
G75*
G02*
X73305000Y-129252500I0J147500D01*
G01*
X73305000Y-128907500D01*
G75*
G02*
X73452500Y-128760000I147500J0D01*
G01*
X73747500Y-128760000D01*
G75*
G02*
X73895000Y-128907500I0J-147500D01*
G01*
G37*
G36*
G01*
X72675000Y-92627500D02*
X72675000Y-92972500D01*
G75*
G02*
X72527500Y-93120000I-147500J0D01*
G01*
X72232500Y-93120000D01*
G75*
G02*
X72085000Y-92972500I0J147500D01*
G01*
X72085000Y-92627500D01*
G75*
G02*
X72232500Y-92480000I147500J0D01*
G01*
X72527500Y-92480000D01*
G75*
G02*
X72675000Y-92627500I0J-147500D01*
G01*
G37*
G36*
G01*
X73645000Y-92627500D02*
X73645000Y-92972500D01*
G75*
G02*
X73497500Y-93120000I-147500J0D01*
G01*
X73202500Y-93120000D01*
G75*
G02*
X73055000Y-92972500I0J147500D01*
G01*
X73055000Y-92627500D01*
G75*
G02*
X73202500Y-92480000I147500J0D01*
G01*
X73497500Y-92480000D01*
G75*
G02*
X73645000Y-92627500I0J-147500D01*
G01*
G37*
G36*
G01*
X111670000Y-114197500D02*
X111670000Y-114542500D01*
G75*
G02*
X111522500Y-114690000I-147500J0D01*
G01*
X111227500Y-114690000D01*
G75*
G02*
X111080000Y-114542500I0J147500D01*
G01*
X111080000Y-114197500D01*
G75*
G02*
X111227500Y-114050000I147500J0D01*
G01*
X111522500Y-114050000D01*
G75*
G02*
X111670000Y-114197500I0J-147500D01*
G01*
G37*
G36*
G01*
X112640000Y-114197500D02*
X112640000Y-114542500D01*
G75*
G02*
X112492500Y-114690000I-147500J0D01*
G01*
X112197500Y-114690000D01*
G75*
G02*
X112050000Y-114542500I0J147500D01*
G01*
X112050000Y-114197500D01*
G75*
G02*
X112197500Y-114050000I147500J0D01*
G01*
X112492500Y-114050000D01*
G75*
G02*
X112640000Y-114197500I0J-147500D01*
G01*
G37*
G36*
G01*
X112315000Y-127382500D02*
X112315000Y-127037500D01*
G75*
G02*
X112462500Y-126890000I147500J0D01*
G01*
X112757500Y-126890000D01*
G75*
G02*
X112905000Y-127037500I0J-147500D01*
G01*
X112905000Y-127382500D01*
G75*
G02*
X112757500Y-127530000I-147500J0D01*
G01*
X112462500Y-127530000D01*
G75*
G02*
X112315000Y-127382500I0J147500D01*
G01*
G37*
G36*
G01*
X111345000Y-127382500D02*
X111345000Y-127037500D01*
G75*
G02*
X111492500Y-126890000I147500J0D01*
G01*
X111787500Y-126890000D01*
G75*
G02*
X111935000Y-127037500I0J-147500D01*
G01*
X111935000Y-127382500D01*
G75*
G02*
X111787500Y-127530000I-147500J0D01*
G01*
X111492500Y-127530000D01*
G75*
G02*
X111345000Y-127382500I0J147500D01*
G01*
G37*
G36*
G01*
X110900000Y-122777500D02*
X110900000Y-123122500D01*
G75*
G02*
X110752500Y-123270000I-147500J0D01*
G01*
X110457500Y-123270000D01*
G75*
G02*
X110310000Y-123122500I0J147500D01*
G01*
X110310000Y-122777500D01*
G75*
G02*
X110457500Y-122630000I147500J0D01*
G01*
X110752500Y-122630000D01*
G75*
G02*
X110900000Y-122777500I0J-147500D01*
G01*
G37*
G36*
G01*
X111870000Y-122777500D02*
X111870000Y-123122500D01*
G75*
G02*
X111722500Y-123270000I-147500J0D01*
G01*
X111427500Y-123270000D01*
G75*
G02*
X111280000Y-123122500I0J147500D01*
G01*
X111280000Y-122777500D01*
G75*
G02*
X111427500Y-122630000I147500J0D01*
G01*
X111722500Y-122630000D01*
G75*
G02*
X111870000Y-122777500I0J-147500D01*
G01*
G37*
G36*
G01*
X109592500Y-99725000D02*
X109247500Y-99725000D01*
G75*
G02*
X109100000Y-99577500I0J147500D01*
G01*
X109100000Y-99282500D01*
G75*
G02*
X109247500Y-99135000I147500J0D01*
G01*
X109592500Y-99135000D01*
G75*
G02*
X109740000Y-99282500I0J-147500D01*
G01*
X109740000Y-99577500D01*
G75*
G02*
X109592500Y-99725000I-147500J0D01*
G01*
G37*
G36*
G01*
X109592500Y-100695000D02*
X109247500Y-100695000D01*
G75*
G02*
X109100000Y-100547500I0J147500D01*
G01*
X109100000Y-100252500D01*
G75*
G02*
X109247500Y-100105000I147500J0D01*
G01*
X109592500Y-100105000D01*
G75*
G02*
X109740000Y-100252500I0J-147500D01*
G01*
X109740000Y-100547500D01*
G75*
G02*
X109592500Y-100695000I-147500J0D01*
G01*
G37*
G36*
G01*
X148490000Y-135232500D02*
X148490000Y-134887500D01*
G75*
G02*
X148637500Y-134740000I147500J0D01*
G01*
X148932500Y-134740000D01*
G75*
G02*
X149080000Y-134887500I0J-147500D01*
G01*
X149080000Y-135232500D01*
G75*
G02*
X148932500Y-135380000I-147500J0D01*
G01*
X148637500Y-135380000D01*
G75*
G02*
X148490000Y-135232500I0J147500D01*
G01*
G37*
G36*
G01*
X147520000Y-135232500D02*
X147520000Y-134887500D01*
G75*
G02*
X147667500Y-134740000I147500J0D01*
G01*
X147962500Y-134740000D01*
G75*
G02*
X148110000Y-134887500I0J-147500D01*
G01*
X148110000Y-135232500D01*
G75*
G02*
X147962500Y-135380000I-147500J0D01*
G01*
X147667500Y-135380000D01*
G75*
G02*
X147520000Y-135232500I0J147500D01*
G01*
G37*
G36*
G01*
X129926280Y-108897020D02*
X129581280Y-108897020D01*
G75*
G02*
X129433780Y-108749520I0J147500D01*
G01*
X129433780Y-108454520D01*
G75*
G02*
X129581280Y-108307020I147500J0D01*
G01*
X129926280Y-108307020D01*
G75*
G02*
X130073780Y-108454520I0J-147500D01*
G01*
X130073780Y-108749520D01*
G75*
G02*
X129926280Y-108897020I-147500J0D01*
G01*
G37*
G36*
G01*
X129926280Y-109867020D02*
X129581280Y-109867020D01*
G75*
G02*
X129433780Y-109719520I0J147500D01*
G01*
X129433780Y-109424520D01*
G75*
G02*
X129581280Y-109277020I147500J0D01*
G01*
X129926280Y-109277020D01*
G75*
G02*
X130073780Y-109424520I0J-147500D01*
G01*
X130073780Y-109719520D01*
G75*
G02*
X129926280Y-109867020I-147500J0D01*
G01*
G37*
G36*
G01*
X132869720Y-105746560D02*
X132869720Y-105401560D01*
G75*
G02*
X133017220Y-105254060I147500J0D01*
G01*
X133312220Y-105254060D01*
G75*
G02*
X133459720Y-105401560I0J-147500D01*
G01*
X133459720Y-105746560D01*
G75*
G02*
X133312220Y-105894060I-147500J0D01*
G01*
X133017220Y-105894060D01*
G75*
G02*
X132869720Y-105746560I0J147500D01*
G01*
G37*
G36*
G01*
X131899720Y-105746560D02*
X131899720Y-105401560D01*
G75*
G02*
X132047220Y-105254060I147500J0D01*
G01*
X132342220Y-105254060D01*
G75*
G02*
X132489720Y-105401560I0J-147500D01*
G01*
X132489720Y-105746560D01*
G75*
G02*
X132342220Y-105894060I-147500J0D01*
G01*
X132047220Y-105894060D01*
G75*
G02*
X131899720Y-105746560I0J147500D01*
G01*
G37*
G36*
G01*
X135396740Y-111323280D02*
X135051740Y-111323280D01*
G75*
G02*
X134904240Y-111175780I0J147500D01*
G01*
X134904240Y-110880780D01*
G75*
G02*
X135051740Y-110733280I147500J0D01*
G01*
X135396740Y-110733280D01*
G75*
G02*
X135544240Y-110880780I0J-147500D01*
G01*
X135544240Y-111175780D01*
G75*
G02*
X135396740Y-111323280I-147500J0D01*
G01*
G37*
G36*
G01*
X135396740Y-112293280D02*
X135051740Y-112293280D01*
G75*
G02*
X134904240Y-112145780I0J147500D01*
G01*
X134904240Y-111850780D01*
G75*
G02*
X135051740Y-111703280I147500J0D01*
G01*
X135396740Y-111703280D01*
G75*
G02*
X135544240Y-111850780I0J-147500D01*
G01*
X135544240Y-112145780D01*
G75*
G02*
X135396740Y-112293280I-147500J0D01*
G01*
G37*
G36*
G01*
X137975280Y-109957340D02*
X137975280Y-109612340D01*
G75*
G02*
X138122780Y-109464840I147500J0D01*
G01*
X138417780Y-109464840D01*
G75*
G02*
X138565280Y-109612340I0J-147500D01*
G01*
X138565280Y-109957340D01*
G75*
G02*
X138417780Y-110104840I-147500J0D01*
G01*
X138122780Y-110104840D01*
G75*
G02*
X137975280Y-109957340I0J147500D01*
G01*
G37*
G36*
G01*
X137005280Y-109957340D02*
X137005280Y-109612340D01*
G75*
G02*
X137152780Y-109464840I147500J0D01*
G01*
X137447780Y-109464840D01*
G75*
G02*
X137595280Y-109612340I0J-147500D01*
G01*
X137595280Y-109957340D01*
G75*
G02*
X137447780Y-110104840I-147500J0D01*
G01*
X137152780Y-110104840D01*
G75*
G02*
X137005280Y-109957340I0J147500D01*
G01*
G37*
G36*
G01*
X137025000Y-107082500D02*
X137025000Y-106737500D01*
G75*
G02*
X137172500Y-106590000I147500J0D01*
G01*
X137467500Y-106590000D01*
G75*
G02*
X137615000Y-106737500I0J-147500D01*
G01*
X137615000Y-107082500D01*
G75*
G02*
X137467500Y-107230000I-147500J0D01*
G01*
X137172500Y-107230000D01*
G75*
G02*
X137025000Y-107082500I0J147500D01*
G01*
G37*
G36*
G01*
X136055000Y-107082500D02*
X136055000Y-106737500D01*
G75*
G02*
X136202500Y-106590000I147500J0D01*
G01*
X136497500Y-106590000D01*
G75*
G02*
X136645000Y-106737500I0J-147500D01*
G01*
X136645000Y-107082500D01*
G75*
G02*
X136497500Y-107230000I-147500J0D01*
G01*
X136202500Y-107230000D01*
G75*
G02*
X136055000Y-107082500I0J147500D01*
G01*
G37*
G36*
G01*
X137996060Y-108062020D02*
X137996060Y-107717020D01*
G75*
G02*
X138143560Y-107569520I147500J0D01*
G01*
X138438560Y-107569520D01*
G75*
G02*
X138586060Y-107717020I0J-147500D01*
G01*
X138586060Y-108062020D01*
G75*
G02*
X138438560Y-108209520I-147500J0D01*
G01*
X138143560Y-108209520D01*
G75*
G02*
X137996060Y-108062020I0J147500D01*
G01*
G37*
G36*
G01*
X137026060Y-108062020D02*
X137026060Y-107717020D01*
G75*
G02*
X137173560Y-107569520I147500J0D01*
G01*
X137468560Y-107569520D01*
G75*
G02*
X137616060Y-107717020I0J-147500D01*
G01*
X137616060Y-108062020D01*
G75*
G02*
X137468560Y-108209520I-147500J0D01*
G01*
X137173560Y-108209520D01*
G75*
G02*
X137026060Y-108062020I0J147500D01*
G01*
G37*
G36*
G01*
X136341620Y-111325960D02*
X135996620Y-111325960D01*
G75*
G02*
X135849120Y-111178460I0J147500D01*
G01*
X135849120Y-110883460D01*
G75*
G02*
X135996620Y-110735960I147500J0D01*
G01*
X136341620Y-110735960D01*
G75*
G02*
X136489120Y-110883460I0J-147500D01*
G01*
X136489120Y-111178460D01*
G75*
G02*
X136341620Y-111325960I-147500J0D01*
G01*
G37*
G36*
G01*
X136341620Y-112295960D02*
X135996620Y-112295960D01*
G75*
G02*
X135849120Y-112148460I0J147500D01*
G01*
X135849120Y-111853460D01*
G75*
G02*
X135996620Y-111705960I147500J0D01*
G01*
X136341620Y-111705960D01*
G75*
G02*
X136489120Y-111853460I0J-147500D01*
G01*
X136489120Y-112148460D01*
G75*
G02*
X136341620Y-112295960I-147500J0D01*
G01*
G37*
G36*
G01*
X139070600Y-109487020D02*
X139415600Y-109487020D01*
G75*
G02*
X139563100Y-109634520I0J-147500D01*
G01*
X139563100Y-109929520D01*
G75*
G02*
X139415600Y-110077020I-147500J0D01*
G01*
X139070600Y-110077020D01*
G75*
G02*
X138923100Y-109929520I0J147500D01*
G01*
X138923100Y-109634520D01*
G75*
G02*
X139070600Y-109487020I147500J0D01*
G01*
G37*
G36*
G01*
X139070600Y-108517020D02*
X139415600Y-108517020D01*
G75*
G02*
X139563100Y-108664520I0J-147500D01*
G01*
X139563100Y-108959520D01*
G75*
G02*
X139415600Y-109107020I-147500J0D01*
G01*
X139070600Y-109107020D01*
G75*
G02*
X138923100Y-108959520I0J147500D01*
G01*
X138923100Y-108664520D01*
G75*
G02*
X139070600Y-108517020I147500J0D01*
G01*
G37*
G36*
G01*
X118445000Y-113472500D02*
X118445000Y-113127500D01*
G75*
G02*
X118592500Y-112980000I147500J0D01*
G01*
X118887500Y-112980000D01*
G75*
G02*
X119035000Y-113127500I0J-147500D01*
G01*
X119035000Y-113472500D01*
G75*
G02*
X118887500Y-113620000I-147500J0D01*
G01*
X118592500Y-113620000D01*
G75*
G02*
X118445000Y-113472500I0J147500D01*
G01*
G37*
G36*
G01*
X117475000Y-113472500D02*
X117475000Y-113127500D01*
G75*
G02*
X117622500Y-112980000I147500J0D01*
G01*
X117917500Y-112980000D01*
G75*
G02*
X118065000Y-113127500I0J-147500D01*
G01*
X118065000Y-113472500D01*
G75*
G02*
X117917500Y-113620000I-147500J0D01*
G01*
X117622500Y-113620000D01*
G75*
G02*
X117475000Y-113472500I0J147500D01*
G01*
G37*
G36*
G01*
X125341260Y-95224180D02*
X125686260Y-95224180D01*
G75*
G02*
X125833760Y-95371680I0J-147500D01*
G01*
X125833760Y-95666680D01*
G75*
G02*
X125686260Y-95814180I-147500J0D01*
G01*
X125341260Y-95814180D01*
G75*
G02*
X125193760Y-95666680I0J147500D01*
G01*
X125193760Y-95371680D01*
G75*
G02*
X125341260Y-95224180I147500J0D01*
G01*
G37*
G36*
G01*
X125341260Y-94254180D02*
X125686260Y-94254180D01*
G75*
G02*
X125833760Y-94401680I0J-147500D01*
G01*
X125833760Y-94696680D01*
G75*
G02*
X125686260Y-94844180I-147500J0D01*
G01*
X125341260Y-94844180D01*
G75*
G02*
X125193760Y-94696680I0J147500D01*
G01*
X125193760Y-94401680D01*
G75*
G02*
X125341260Y-94254180I147500J0D01*
G01*
G37*
G36*
G01*
X126283600Y-94286780D02*
X126628600Y-94286780D01*
G75*
G02*
X126776100Y-94434280I0J-147500D01*
G01*
X126776100Y-94729280D01*
G75*
G02*
X126628600Y-94876780I-147500J0D01*
G01*
X126283600Y-94876780D01*
G75*
G02*
X126136100Y-94729280I0J147500D01*
G01*
X126136100Y-94434280D01*
G75*
G02*
X126283600Y-94286780I147500J0D01*
G01*
G37*
G36*
G01*
X126283600Y-93316780D02*
X126628600Y-93316780D01*
G75*
G02*
X126776100Y-93464280I0J-147500D01*
G01*
X126776100Y-93759280D01*
G75*
G02*
X126628600Y-93906780I-147500J0D01*
G01*
X126283600Y-93906780D01*
G75*
G02*
X126136100Y-93759280I0J147500D01*
G01*
X126136100Y-93464280D01*
G75*
G02*
X126283600Y-93316780I147500J0D01*
G01*
G37*
G36*
G01*
X126720760Y-95321420D02*
X126720760Y-95666420D01*
G75*
G02*
X126573260Y-95813920I-147500J0D01*
G01*
X126278260Y-95813920D01*
G75*
G02*
X126130760Y-95666420I0J147500D01*
G01*
X126130760Y-95321420D01*
G75*
G02*
X126278260Y-95173920I147500J0D01*
G01*
X126573260Y-95173920D01*
G75*
G02*
X126720760Y-95321420I0J-147500D01*
G01*
G37*
G36*
G01*
X127690760Y-95321420D02*
X127690760Y-95666420D01*
G75*
G02*
X127543260Y-95813920I-147500J0D01*
G01*
X127248260Y-95813920D01*
G75*
G02*
X127100760Y-95666420I0J147500D01*
G01*
X127100760Y-95321420D01*
G75*
G02*
X127248260Y-95173920I147500J0D01*
G01*
X127543260Y-95173920D01*
G75*
G02*
X127690760Y-95321420I0J-147500D01*
G01*
G37*
G36*
G01*
X124977500Y-104515000D02*
X125322500Y-104515000D01*
G75*
G02*
X125470000Y-104662500I0J-147500D01*
G01*
X125470000Y-104957500D01*
G75*
G02*
X125322500Y-105105000I-147500J0D01*
G01*
X124977500Y-105105000D01*
G75*
G02*
X124830000Y-104957500I0J147500D01*
G01*
X124830000Y-104662500D01*
G75*
G02*
X124977500Y-104515000I147500J0D01*
G01*
G37*
G36*
G01*
X124977500Y-103545000D02*
X125322500Y-103545000D01*
G75*
G02*
X125470000Y-103692500I0J-147500D01*
G01*
X125470000Y-103987500D01*
G75*
G02*
X125322500Y-104135000I-147500J0D01*
G01*
X124977500Y-104135000D01*
G75*
G02*
X124830000Y-103987500I0J147500D01*
G01*
X124830000Y-103692500D01*
G75*
G02*
X124977500Y-103545000I147500J0D01*
G01*
G37*
G36*
G01*
X129775000Y-102962500D02*
X129775000Y-102617500D01*
G75*
G02*
X129922500Y-102470000I147500J0D01*
G01*
X130217500Y-102470000D01*
G75*
G02*
X130365000Y-102617500I0J-147500D01*
G01*
X130365000Y-102962500D01*
G75*
G02*
X130217500Y-103110000I-147500J0D01*
G01*
X129922500Y-103110000D01*
G75*
G02*
X129775000Y-102962500I0J147500D01*
G01*
G37*
G36*
G01*
X130745000Y-102962500D02*
X130745000Y-102617500D01*
G75*
G02*
X130892500Y-102470000I147500J0D01*
G01*
X131187500Y-102470000D01*
G75*
G02*
X131335000Y-102617500I0J-147500D01*
G01*
X131335000Y-102962500D01*
G75*
G02*
X131187500Y-103110000I-147500J0D01*
G01*
X130892500Y-103110000D01*
G75*
G02*
X130745000Y-102962500I0J147500D01*
G01*
G37*
G36*
G01*
X88707500Y-111230000D02*
X89052500Y-111230000D01*
G75*
G02*
X89200000Y-111377500I0J-147500D01*
G01*
X89200000Y-111672500D01*
G75*
G02*
X89052500Y-111820000I-147500J0D01*
G01*
X88707500Y-111820000D01*
G75*
G02*
X88560000Y-111672500I0J147500D01*
G01*
X88560000Y-111377500D01*
G75*
G02*
X88707500Y-111230000I147500J0D01*
G01*
G37*
G36*
G01*
X88707500Y-110260000D02*
X89052500Y-110260000D01*
G75*
G02*
X89200000Y-110407500I0J-147500D01*
G01*
X89200000Y-110702500D01*
G75*
G02*
X89052500Y-110850000I-147500J0D01*
G01*
X88707500Y-110850000D01*
G75*
G02*
X88560000Y-110702500I0J147500D01*
G01*
X88560000Y-110407500D01*
G75*
G02*
X88707500Y-110260000I147500J0D01*
G01*
G37*
G36*
G01*
X89032500Y-113695000D02*
X88687500Y-113695000D01*
G75*
G02*
X88540000Y-113547500I0J147500D01*
G01*
X88540000Y-113252500D01*
G75*
G02*
X88687500Y-113105000I147500J0D01*
G01*
X89032500Y-113105000D01*
G75*
G02*
X89180000Y-113252500I0J-147500D01*
G01*
X89180000Y-113547500D01*
G75*
G02*
X89032500Y-113695000I-147500J0D01*
G01*
G37*
G36*
G01*
X89032500Y-114665000D02*
X88687500Y-114665000D01*
G75*
G02*
X88540000Y-114517500I0J147500D01*
G01*
X88540000Y-114222500D01*
G75*
G02*
X88687500Y-114075000I147500J0D01*
G01*
X89032500Y-114075000D01*
G75*
G02*
X89180000Y-114222500I0J-147500D01*
G01*
X89180000Y-114517500D01*
G75*
G02*
X89032500Y-114665000I-147500J0D01*
G01*
G37*
G36*
G01*
X88637500Y-116305000D02*
X88982500Y-116305000D01*
G75*
G02*
X89130000Y-116452500I0J-147500D01*
G01*
X89130000Y-116747500D01*
G75*
G02*
X88982500Y-116895000I-147500J0D01*
G01*
X88637500Y-116895000D01*
G75*
G02*
X88490000Y-116747500I0J147500D01*
G01*
X88490000Y-116452500D01*
G75*
G02*
X88637500Y-116305000I147500J0D01*
G01*
G37*
G36*
G01*
X88637500Y-115335000D02*
X88982500Y-115335000D01*
G75*
G02*
X89130000Y-115482500I0J-147500D01*
G01*
X89130000Y-115777500D01*
G75*
G02*
X88982500Y-115925000I-147500J0D01*
G01*
X88637500Y-115925000D01*
G75*
G02*
X88490000Y-115777500I0J147500D01*
G01*
X88490000Y-115482500D01*
G75*
G02*
X88637500Y-115335000I147500J0D01*
G01*
G37*
D20*
X129600000Y-113600000D03*
X131600000Y-112650000D03*
X131600000Y-114550000D03*
D21*
X112330000Y-126030000D03*
X111030000Y-126030000D03*
X111680000Y-124130000D03*
X111680000Y-126030000D03*
X111030000Y-124130000D03*
X112330000Y-124130000D03*
D22*
X142670000Y-115670000D03*
X143310000Y-115670000D03*
X143970000Y-115670000D03*
X144610000Y-115670000D03*
X144610000Y-112790000D03*
X143970000Y-112790000D03*
X143310000Y-112790000D03*
X142670000Y-112790000D03*
D23*
X144250000Y-113370000D03*
X143030000Y-113370000D03*
X144250000Y-114320000D03*
X143030000Y-114320000D03*
D22*
X142653440Y-111702320D03*
X143293440Y-111702320D03*
X143953440Y-111702320D03*
X144593440Y-111702320D03*
X144593440Y-108822320D03*
X143953440Y-108822320D03*
X143293440Y-108822320D03*
X142653440Y-108822320D03*
D23*
X144233440Y-109402320D03*
X143013440Y-109402320D03*
X144233440Y-110352320D03*
X143013440Y-110352320D03*
D24*
X135690000Y-118020000D03*
X135690000Y-129120000D03*
G36*
G01*
X126094450Y-101097460D02*
X125181950Y-101097460D01*
G75*
G02*
X124938200Y-100853710I0J243750D01*
G01*
X124938200Y-100366210D01*
G75*
G02*
X125181950Y-100122460I243750J0D01*
G01*
X126094450Y-100122460D01*
G75*
G02*
X126338200Y-100366210I0J-243750D01*
G01*
X126338200Y-100853710D01*
G75*
G02*
X126094450Y-101097460I-243750J0D01*
G01*
G37*
G36*
G01*
X126094450Y-102972460D02*
X125181950Y-102972460D01*
G75*
G02*
X124938200Y-102728710I0J243750D01*
G01*
X124938200Y-102241210D01*
G75*
G02*
X125181950Y-101997460I243750J0D01*
G01*
X126094450Y-101997460D01*
G75*
G02*
X126338200Y-102241210I0J-243750D01*
G01*
X126338200Y-102728710D01*
G75*
G02*
X126094450Y-102972460I-243750J0D01*
G01*
G37*
D25*
X112650000Y-130525000D03*
X119050000Y-130525000D03*
X113450000Y-130525000D03*
X118250000Y-130525000D03*
D26*
X115600000Y-130525000D03*
X115100000Y-130525000D03*
X114600000Y-130525000D03*
X114100000Y-130525000D03*
X117600000Y-130525000D03*
X116100000Y-130525000D03*
X116600000Y-130525000D03*
X117100000Y-130525000D03*
G36*
G01*
X133587600Y-108030100D02*
X133587600Y-108600100D01*
G75*
G02*
X133467600Y-108720100I-120000J0D01*
G01*
X133227600Y-108720100D01*
G75*
G02*
X133107600Y-108600100I0J120000D01*
G01*
X133107600Y-108030100D01*
G75*
G02*
X133227600Y-107910100I120000J0D01*
G01*
X133467600Y-107910100D01*
G75*
G02*
X133587600Y-108030100I0J-120000D01*
G01*
G37*
G36*
G01*
X133587600Y-109030100D02*
X133587600Y-109600100D01*
G75*
G02*
X133467600Y-109720100I-120000J0D01*
G01*
X133227600Y-109720100D01*
G75*
G02*
X133107600Y-109600100I0J120000D01*
G01*
X133107600Y-109030100D01*
G75*
G02*
X133227600Y-108910100I120000J0D01*
G01*
X133467600Y-108910100D01*
G75*
G02*
X133587600Y-109030100I0J-120000D01*
G01*
G37*
G36*
G01*
X134187600Y-108030100D02*
X134187600Y-108600100D01*
G75*
G02*
X134067600Y-108720100I-120000J0D01*
G01*
X133827600Y-108720100D01*
G75*
G02*
X133707600Y-108600100I0J120000D01*
G01*
X133707600Y-108030100D01*
G75*
G02*
X133827600Y-107910100I120000J0D01*
G01*
X134067600Y-107910100D01*
G75*
G02*
X134187600Y-108030100I0J-120000D01*
G01*
G37*
G36*
G01*
X134187600Y-109030100D02*
X134187600Y-109600100D01*
G75*
G02*
X134067600Y-109720100I-120000J0D01*
G01*
X133827600Y-109720100D01*
G75*
G02*
X133707600Y-109600100I0J120000D01*
G01*
X133707600Y-109030100D01*
G75*
G02*
X133827600Y-108910100I120000J0D01*
G01*
X134067600Y-108910100D01*
G75*
G02*
X134187600Y-109030100I0J-120000D01*
G01*
G37*
G36*
G01*
X132647600Y-109752600D02*
X132647600Y-109877600D01*
G75*
G02*
X132585100Y-109940100I-62500J0D01*
G01*
X131835100Y-109940100D01*
G75*
G02*
X131772600Y-109877600I0J62500D01*
G01*
X131772600Y-109752600D01*
G75*
G02*
X131835100Y-109690100I62500J0D01*
G01*
X132585100Y-109690100D01*
G75*
G02*
X132647600Y-109752600I0J-62500D01*
G01*
G37*
G36*
G01*
X132647600Y-109252600D02*
X132647600Y-109377600D01*
G75*
G02*
X132585100Y-109440100I-62500J0D01*
G01*
X131835100Y-109440100D01*
G75*
G02*
X131772600Y-109377600I0J62500D01*
G01*
X131772600Y-109252600D01*
G75*
G02*
X131835100Y-109190100I62500J0D01*
G01*
X132585100Y-109190100D01*
G75*
G02*
X132647600Y-109252600I0J-62500D01*
G01*
G37*
G36*
G01*
X132647600Y-108752600D02*
X132647600Y-108877600D01*
G75*
G02*
X132585100Y-108940100I-62500J0D01*
G01*
X131835100Y-108940100D01*
G75*
G02*
X131772600Y-108877600I0J62500D01*
G01*
X131772600Y-108752600D01*
G75*
G02*
X131835100Y-108690100I62500J0D01*
G01*
X132585100Y-108690100D01*
G75*
G02*
X132647600Y-108752600I0J-62500D01*
G01*
G37*
G36*
G01*
X132647600Y-108252600D02*
X132647600Y-108377600D01*
G75*
G02*
X132585100Y-108440100I-62500J0D01*
G01*
X131835100Y-108440100D01*
G75*
G02*
X131772600Y-108377600I0J62500D01*
G01*
X131772600Y-108252600D01*
G75*
G02*
X131835100Y-108190100I62500J0D01*
G01*
X132585100Y-108190100D01*
G75*
G02*
X132647600Y-108252600I0J-62500D01*
G01*
G37*
G36*
G01*
X132647600Y-107752600D02*
X132647600Y-107877600D01*
G75*
G02*
X132585100Y-107940100I-62500J0D01*
G01*
X131835100Y-107940100D01*
G75*
G02*
X131772600Y-107877600I0J62500D01*
G01*
X131772600Y-107752600D01*
G75*
G02*
X131835100Y-107690100I62500J0D01*
G01*
X132585100Y-107690100D01*
G75*
G02*
X132647600Y-107752600I0J-62500D01*
G01*
G37*
G36*
G01*
X135522600Y-107752600D02*
X135522600Y-107877600D01*
G75*
G02*
X135460100Y-107940100I-62500J0D01*
G01*
X134710100Y-107940100D01*
G75*
G02*
X134647600Y-107877600I0J62500D01*
G01*
X134647600Y-107752600D01*
G75*
G02*
X134710100Y-107690100I62500J0D01*
G01*
X135460100Y-107690100D01*
G75*
G02*
X135522600Y-107752600I0J-62500D01*
G01*
G37*
G36*
G01*
X135522600Y-108252600D02*
X135522600Y-108377600D01*
G75*
G02*
X135460100Y-108440100I-62500J0D01*
G01*
X134710100Y-108440100D01*
G75*
G02*
X134647600Y-108377600I0J62500D01*
G01*
X134647600Y-108252600D01*
G75*
G02*
X134710100Y-108190100I62500J0D01*
G01*
X135460100Y-108190100D01*
G75*
G02*
X135522600Y-108252600I0J-62500D01*
G01*
G37*
G36*
G01*
X135522600Y-108752600D02*
X135522600Y-108877600D01*
G75*
G02*
X135460100Y-108940100I-62500J0D01*
G01*
X134710100Y-108940100D01*
G75*
G02*
X134647600Y-108877600I0J62500D01*
G01*
X134647600Y-108752600D01*
G75*
G02*
X134710100Y-108690100I62500J0D01*
G01*
X135460100Y-108690100D01*
G75*
G02*
X135522600Y-108752600I0J-62500D01*
G01*
G37*
G36*
G01*
X135522600Y-109252600D02*
X135522600Y-109377600D01*
G75*
G02*
X135460100Y-109440100I-62500J0D01*
G01*
X134710100Y-109440100D01*
G75*
G02*
X134647600Y-109377600I0J62500D01*
G01*
X134647600Y-109252600D01*
G75*
G02*
X134710100Y-109190100I62500J0D01*
G01*
X135460100Y-109190100D01*
G75*
G02*
X135522600Y-109252600I0J-62500D01*
G01*
G37*
G36*
G01*
X135522600Y-109752600D02*
X135522600Y-109877600D01*
G75*
G02*
X135460100Y-109940100I-62500J0D01*
G01*
X134710100Y-109940100D01*
G75*
G02*
X134647600Y-109877600I0J62500D01*
G01*
X134647600Y-109752600D01*
G75*
G02*
X134710100Y-109690100I62500J0D01*
G01*
X135460100Y-109690100D01*
G75*
G02*
X135522600Y-109752600I0J-62500D01*
G01*
G37*
D27*
X125480000Y-96830000D03*
X124530000Y-96830000D03*
X126430000Y-96830000D03*
X126430000Y-99030000D03*
X125480000Y-99030000D03*
X124530000Y-99030000D03*
D28*
X163715000Y-94750000D03*
X157345000Y-94750000D03*
X163575000Y-124160000D03*
X157205000Y-124160000D03*
X78892400Y-125882400D03*
X72522400Y-125882400D03*
X78816200Y-96266000D03*
X72446200Y-96266000D03*
G36*
G01*
X164447100Y-89890550D02*
X164447100Y-90403050D01*
G75*
G02*
X164228350Y-90621800I-218750J0D01*
G01*
X163790850Y-90621800D01*
G75*
G02*
X163572100Y-90403050I0J218750D01*
G01*
X163572100Y-89890550D01*
G75*
G02*
X163790850Y-89671800I218750J0D01*
G01*
X164228350Y-89671800D01*
G75*
G02*
X164447100Y-89890550I0J-218750D01*
G01*
G37*
G36*
G01*
X162872100Y-89890550D02*
X162872100Y-90403050D01*
G75*
G02*
X162653350Y-90621800I-218750J0D01*
G01*
X162215850Y-90621800D01*
G75*
G02*
X161997100Y-90403050I0J218750D01*
G01*
X161997100Y-89890550D01*
G75*
G02*
X162215850Y-89671800I218750J0D01*
G01*
X162653350Y-89671800D01*
G75*
G02*
X162872100Y-89890550I0J-218750D01*
G01*
G37*
G36*
G01*
X162489000Y-129084650D02*
X162489000Y-128572150D01*
G75*
G02*
X162707750Y-128353400I218750J0D01*
G01*
X163145250Y-128353400D01*
G75*
G02*
X163364000Y-128572150I0J-218750D01*
G01*
X163364000Y-129084650D01*
G75*
G02*
X163145250Y-129303400I-218750J0D01*
G01*
X162707750Y-129303400D01*
G75*
G02*
X162489000Y-129084650I0J218750D01*
G01*
G37*
G36*
G01*
X164064000Y-129084650D02*
X164064000Y-128572150D01*
G75*
G02*
X164282750Y-128353400I218750J0D01*
G01*
X164720250Y-128353400D01*
G75*
G02*
X164939000Y-128572150I0J-218750D01*
G01*
X164939000Y-129084650D01*
G75*
G02*
X164720250Y-129303400I-218750J0D01*
G01*
X164282750Y-129303400D01*
G75*
G02*
X164064000Y-129084650I0J218750D01*
G01*
G37*
G36*
G01*
X70990000Y-129596250D02*
X70990000Y-129083750D01*
G75*
G02*
X71208750Y-128865000I218750J0D01*
G01*
X71646250Y-128865000D01*
G75*
G02*
X71865000Y-129083750I0J-218750D01*
G01*
X71865000Y-129596250D01*
G75*
G02*
X71646250Y-129815000I-218750J0D01*
G01*
X71208750Y-129815000D01*
G75*
G02*
X70990000Y-129596250I0J218750D01*
G01*
G37*
G36*
G01*
X69415000Y-129596250D02*
X69415000Y-129083750D01*
G75*
G02*
X69633750Y-128865000I218750J0D01*
G01*
X70071250Y-128865000D01*
G75*
G02*
X70290000Y-129083750I0J-218750D01*
G01*
X70290000Y-129596250D01*
G75*
G02*
X70071250Y-129815000I-218750J0D01*
G01*
X69633750Y-129815000D01*
G75*
G02*
X69415000Y-129596250I0J218750D01*
G01*
G37*
G36*
G01*
X70750000Y-93056250D02*
X70750000Y-92543750D01*
G75*
G02*
X70968750Y-92325000I218750J0D01*
G01*
X71406250Y-92325000D01*
G75*
G02*
X71625000Y-92543750I0J-218750D01*
G01*
X71625000Y-93056250D01*
G75*
G02*
X71406250Y-93275000I-218750J0D01*
G01*
X70968750Y-93275000D01*
G75*
G02*
X70750000Y-93056250I0J218750D01*
G01*
G37*
G36*
G01*
X69175000Y-93056250D02*
X69175000Y-92543750D01*
G75*
G02*
X69393750Y-92325000I218750J0D01*
G01*
X69831250Y-92325000D01*
G75*
G02*
X70050000Y-92543750I0J-218750D01*
G01*
X70050000Y-93056250D01*
G75*
G02*
X69831250Y-93275000I-218750J0D01*
G01*
X69393750Y-93275000D01*
G75*
G02*
X69175000Y-93056250I0J218750D01*
G01*
G37*
D29*
X115251600Y-128807600D03*
X113851600Y-128807600D03*
X116402800Y-128807600D03*
X117802800Y-128807600D03*
G36*
G01*
X148430000Y-136606250D02*
X148430000Y-136093750D01*
G75*
G02*
X148648750Y-135875000I218750J0D01*
G01*
X149086250Y-135875000D01*
G75*
G02*
X149305000Y-136093750I0J-218750D01*
G01*
X149305000Y-136606250D01*
G75*
G02*
X149086250Y-136825000I-218750J0D01*
G01*
X148648750Y-136825000D01*
G75*
G02*
X148430000Y-136606250I0J218750D01*
G01*
G37*
G36*
G01*
X146855000Y-136606250D02*
X146855000Y-136093750D01*
G75*
G02*
X147073750Y-135875000I218750J0D01*
G01*
X147511250Y-135875000D01*
G75*
G02*
X147730000Y-136093750I0J-218750D01*
G01*
X147730000Y-136606250D01*
G75*
G02*
X147511250Y-136825000I-218750J0D01*
G01*
X147073750Y-136825000D01*
G75*
G02*
X146855000Y-136606250I0J218750D01*
G01*
G37*
G36*
G01*
X126782500Y-104283750D02*
X126782500Y-104796250D01*
G75*
G02*
X126563750Y-105015000I-218750J0D01*
G01*
X126126250Y-105015000D01*
G75*
G02*
X125907500Y-104796250I0J218750D01*
G01*
X125907500Y-104283750D01*
G75*
G02*
X126126250Y-104065000I218750J0D01*
G01*
X126563750Y-104065000D01*
G75*
G02*
X126782500Y-104283750I0J-218750D01*
G01*
G37*
G36*
G01*
X128357500Y-104283750D02*
X128357500Y-104796250D01*
G75*
G02*
X128138750Y-105015000I-218750J0D01*
G01*
X127701250Y-105015000D01*
G75*
G02*
X127482500Y-104796250I0J218750D01*
G01*
X127482500Y-104283750D01*
G75*
G02*
X127701250Y-104065000I218750J0D01*
G01*
X128138750Y-104065000D01*
G75*
G02*
X128357500Y-104283750I0J-218750D01*
G01*
G37*
G36*
G01*
X134207500Y-102823750D02*
X134207500Y-103336250D01*
G75*
G02*
X133988750Y-103555000I-218750J0D01*
G01*
X133551250Y-103555000D01*
G75*
G02*
X133332500Y-103336250I0J218750D01*
G01*
X133332500Y-102823750D01*
G75*
G02*
X133551250Y-102605000I218750J0D01*
G01*
X133988750Y-102605000D01*
G75*
G02*
X134207500Y-102823750I0J-218750D01*
G01*
G37*
G36*
G01*
X132632500Y-102823750D02*
X132632500Y-103336250D01*
G75*
G02*
X132413750Y-103555000I-218750J0D01*
G01*
X131976250Y-103555000D01*
G75*
G02*
X131757500Y-103336250I0J218750D01*
G01*
X131757500Y-102823750D01*
G75*
G02*
X131976250Y-102605000I218750J0D01*
G01*
X132413750Y-102605000D01*
G75*
G02*
X132632500Y-102823750I0J-218750D01*
G01*
G37*
G36*
G01*
X87323750Y-116162500D02*
X87836250Y-116162500D01*
G75*
G02*
X88055000Y-116381250I0J-218750D01*
G01*
X88055000Y-116818750D01*
G75*
G02*
X87836250Y-117037500I-218750J0D01*
G01*
X87323750Y-117037500D01*
G75*
G02*
X87105000Y-116818750I0J218750D01*
G01*
X87105000Y-116381250D01*
G75*
G02*
X87323750Y-116162500I218750J0D01*
G01*
G37*
G36*
G01*
X87323750Y-114587500D02*
X87836250Y-114587500D01*
G75*
G02*
X88055000Y-114806250I0J-218750D01*
G01*
X88055000Y-115243750D01*
G75*
G02*
X87836250Y-115462500I-218750J0D01*
G01*
X87323750Y-115462500D01*
G75*
G02*
X87105000Y-115243750I0J218750D01*
G01*
X87105000Y-114806250D01*
G75*
G02*
X87323750Y-114587500I218750J0D01*
G01*
G37*
G36*
G01*
X138497500Y-133975000D02*
X138842500Y-133975000D01*
G75*
G02*
X138990000Y-134122500I0J-147500D01*
G01*
X138990000Y-134417500D01*
G75*
G02*
X138842500Y-134565000I-147500J0D01*
G01*
X138497500Y-134565000D01*
G75*
G02*
X138350000Y-134417500I0J147500D01*
G01*
X138350000Y-134122500D01*
G75*
G02*
X138497500Y-133975000I147500J0D01*
G01*
G37*
G36*
G01*
X138497500Y-133005000D02*
X138842500Y-133005000D01*
G75*
G02*
X138990000Y-133152500I0J-147500D01*
G01*
X138990000Y-133447500D01*
G75*
G02*
X138842500Y-133595000I-147500J0D01*
G01*
X138497500Y-133595000D01*
G75*
G02*
X138350000Y-133447500I0J147500D01*
G01*
X138350000Y-133152500D01*
G75*
G02*
X138497500Y-133005000I147500J0D01*
G01*
G37*
G36*
G01*
X145565000Y-95975000D02*
X145565000Y-97225000D01*
G75*
G02*
X145315000Y-97475000I-250000J0D01*
G01*
X144565000Y-97475000D01*
G75*
G02*
X144315000Y-97225000I0J250000D01*
G01*
X144315000Y-95975000D01*
G75*
G02*
X144565000Y-95725000I250000J0D01*
G01*
X145315000Y-95725000D01*
G75*
G02*
X145565000Y-95975000I0J-250000D01*
G01*
G37*
G36*
G01*
X142765000Y-95975000D02*
X142765000Y-97225000D01*
G75*
G02*
X142515000Y-97475000I-250000J0D01*
G01*
X141765000Y-97475000D01*
G75*
G02*
X141515000Y-97225000I0J250000D01*
G01*
X141515000Y-95975000D01*
G75*
G02*
X141765000Y-95725000I250000J0D01*
G01*
X142515000Y-95725000D01*
G75*
G02*
X142765000Y-95975000I0J-250000D01*
G01*
G37*
G36*
G01*
X142769220Y-102716940D02*
X142769220Y-103966940D01*
G75*
G02*
X142519220Y-104216940I-250000J0D01*
G01*
X141769220Y-104216940D01*
G75*
G02*
X141519220Y-103966940I0J250000D01*
G01*
X141519220Y-102716940D01*
G75*
G02*
X141769220Y-102466940I250000J0D01*
G01*
X142519220Y-102466940D01*
G75*
G02*
X142769220Y-102716940I0J-250000D01*
G01*
G37*
G36*
G01*
X145569220Y-102716940D02*
X145569220Y-103966940D01*
G75*
G02*
X145319220Y-104216940I-250000J0D01*
G01*
X144569220Y-104216940D01*
G75*
G02*
X144319220Y-103966940I0J250000D01*
G01*
X144319220Y-102716940D01*
G75*
G02*
X144569220Y-102466940I250000J0D01*
G01*
X145319220Y-102466940D01*
G75*
G02*
X145569220Y-102716940I0J-250000D01*
G01*
G37*
G36*
G01*
X109632500Y-113715000D02*
X109287500Y-113715000D01*
G75*
G02*
X109140000Y-113567500I0J147500D01*
G01*
X109140000Y-113272500D01*
G75*
G02*
X109287500Y-113125000I147500J0D01*
G01*
X109632500Y-113125000D01*
G75*
G02*
X109780000Y-113272500I0J-147500D01*
G01*
X109780000Y-113567500D01*
G75*
G02*
X109632500Y-113715000I-147500J0D01*
G01*
G37*
G36*
G01*
X109632500Y-114685000D02*
X109287500Y-114685000D01*
G75*
G02*
X109140000Y-114537500I0J147500D01*
G01*
X109140000Y-114242500D01*
G75*
G02*
X109287500Y-114095000I147500J0D01*
G01*
X109632500Y-114095000D01*
G75*
G02*
X109780000Y-114242500I0J-147500D01*
G01*
X109780000Y-114537500D01*
G75*
G02*
X109632500Y-114685000I-147500J0D01*
G01*
G37*
G36*
G01*
X110572500Y-113715000D02*
X110227500Y-113715000D01*
G75*
G02*
X110080000Y-113567500I0J147500D01*
G01*
X110080000Y-113272500D01*
G75*
G02*
X110227500Y-113125000I147500J0D01*
G01*
X110572500Y-113125000D01*
G75*
G02*
X110720000Y-113272500I0J-147500D01*
G01*
X110720000Y-113567500D01*
G75*
G02*
X110572500Y-113715000I-147500J0D01*
G01*
G37*
G36*
G01*
X110572500Y-114685000D02*
X110227500Y-114685000D01*
G75*
G02*
X110080000Y-114537500I0J147500D01*
G01*
X110080000Y-114242500D01*
G75*
G02*
X110227500Y-114095000I147500J0D01*
G01*
X110572500Y-114095000D01*
G75*
G02*
X110720000Y-114242500I0J-147500D01*
G01*
X110720000Y-114537500D01*
G75*
G02*
X110572500Y-114685000I-147500J0D01*
G01*
G37*
G36*
G01*
X119090000Y-125577500D02*
X119090000Y-125922500D01*
G75*
G02*
X118942500Y-126070000I-147500J0D01*
G01*
X118647500Y-126070000D01*
G75*
G02*
X118500000Y-125922500I0J147500D01*
G01*
X118500000Y-125577500D01*
G75*
G02*
X118647500Y-125430000I147500J0D01*
G01*
X118942500Y-125430000D01*
G75*
G02*
X119090000Y-125577500I0J-147500D01*
G01*
G37*
G36*
G01*
X120060000Y-125577500D02*
X120060000Y-125922500D01*
G75*
G02*
X119912500Y-126070000I-147500J0D01*
G01*
X119617500Y-126070000D01*
G75*
G02*
X119470000Y-125922500I0J147500D01*
G01*
X119470000Y-125577500D01*
G75*
G02*
X119617500Y-125430000I147500J0D01*
G01*
X119912500Y-125430000D01*
G75*
G02*
X120060000Y-125577500I0J-147500D01*
G01*
G37*
G36*
G01*
X119470000Y-126862500D02*
X119470000Y-126517500D01*
G75*
G02*
X119617500Y-126370000I147500J0D01*
G01*
X119912500Y-126370000D01*
G75*
G02*
X120060000Y-126517500I0J-147500D01*
G01*
X120060000Y-126862500D01*
G75*
G02*
X119912500Y-127010000I-147500J0D01*
G01*
X119617500Y-127010000D01*
G75*
G02*
X119470000Y-126862500I0J147500D01*
G01*
G37*
G36*
G01*
X118500000Y-126862500D02*
X118500000Y-126517500D01*
G75*
G02*
X118647500Y-126370000I147500J0D01*
G01*
X118942500Y-126370000D01*
G75*
G02*
X119090000Y-126517500I0J-147500D01*
G01*
X119090000Y-126862500D01*
G75*
G02*
X118942500Y-127010000I-147500J0D01*
G01*
X118647500Y-127010000D01*
G75*
G02*
X118500000Y-126862500I0J147500D01*
G01*
G37*
G36*
G01*
X119460000Y-124972500D02*
X119460000Y-124627500D01*
G75*
G02*
X119607500Y-124480000I147500J0D01*
G01*
X119902500Y-124480000D01*
G75*
G02*
X120050000Y-124627500I0J-147500D01*
G01*
X120050000Y-124972500D01*
G75*
G02*
X119902500Y-125120000I-147500J0D01*
G01*
X119607500Y-125120000D01*
G75*
G02*
X119460000Y-124972500I0J147500D01*
G01*
G37*
G36*
G01*
X118490000Y-124972500D02*
X118490000Y-124627500D01*
G75*
G02*
X118637500Y-124480000I147500J0D01*
G01*
X118932500Y-124480000D01*
G75*
G02*
X119080000Y-124627500I0J-147500D01*
G01*
X119080000Y-124972500D01*
G75*
G02*
X118932500Y-125120000I-147500J0D01*
G01*
X118637500Y-125120000D01*
G75*
G02*
X118490000Y-124972500I0J147500D01*
G01*
G37*
G36*
G01*
X111287500Y-116635000D02*
X111632500Y-116635000D01*
G75*
G02*
X111780000Y-116782500I0J-147500D01*
G01*
X111780000Y-117077500D01*
G75*
G02*
X111632500Y-117225000I-147500J0D01*
G01*
X111287500Y-117225000D01*
G75*
G02*
X111140000Y-117077500I0J147500D01*
G01*
X111140000Y-116782500D01*
G75*
G02*
X111287500Y-116635000I147500J0D01*
G01*
G37*
G36*
G01*
X111287500Y-115665000D02*
X111632500Y-115665000D01*
G75*
G02*
X111780000Y-115812500I0J-147500D01*
G01*
X111780000Y-116107500D01*
G75*
G02*
X111632500Y-116255000I-147500J0D01*
G01*
X111287500Y-116255000D01*
G75*
G02*
X111140000Y-116107500I0J147500D01*
G01*
X111140000Y-115812500D01*
G75*
G02*
X111287500Y-115665000I147500J0D01*
G01*
G37*
G36*
G01*
X109523750Y-117247500D02*
X110436250Y-117247500D01*
G75*
G02*
X110680000Y-117491250I0J-243750D01*
G01*
X110680000Y-117978750D01*
G75*
G02*
X110436250Y-118222500I-243750J0D01*
G01*
X109523750Y-118222500D01*
G75*
G02*
X109280000Y-117978750I0J243750D01*
G01*
X109280000Y-117491250D01*
G75*
G02*
X109523750Y-117247500I243750J0D01*
G01*
G37*
G36*
G01*
X109523750Y-115372500D02*
X110436250Y-115372500D01*
G75*
G02*
X110680000Y-115616250I0J-243750D01*
G01*
X110680000Y-116103750D01*
G75*
G02*
X110436250Y-116347500I-243750J0D01*
G01*
X109523750Y-116347500D01*
G75*
G02*
X109280000Y-116103750I0J243750D01*
G01*
X109280000Y-115616250D01*
G75*
G02*
X109523750Y-115372500I243750J0D01*
G01*
G37*
G36*
G01*
X139755000Y-134455000D02*
X141905000Y-134455000D01*
G75*
G02*
X142155000Y-134705000I0J-250000D01*
G01*
X142155000Y-135455000D01*
G75*
G02*
X141905000Y-135705000I-250000J0D01*
G01*
X139755000Y-135705000D01*
G75*
G02*
X139505000Y-135455000I0J250000D01*
G01*
X139505000Y-134705000D01*
G75*
G02*
X139755000Y-134455000I250000J0D01*
G01*
G37*
G36*
G01*
X139755000Y-131655000D02*
X141905000Y-131655000D01*
G75*
G02*
X142155000Y-131905000I0J-250000D01*
G01*
X142155000Y-132655000D01*
G75*
G02*
X141905000Y-132905000I-250000J0D01*
G01*
X139755000Y-132905000D01*
G75*
G02*
X139505000Y-132655000I0J250000D01*
G01*
X139505000Y-131905000D01*
G75*
G02*
X139755000Y-131655000I250000J0D01*
G01*
G37*
G36*
G01*
X142893400Y-134457400D02*
X145043400Y-134457400D01*
G75*
G02*
X145293400Y-134707400I0J-250000D01*
G01*
X145293400Y-135457400D01*
G75*
G02*
X145043400Y-135707400I-250000J0D01*
G01*
X142893400Y-135707400D01*
G75*
G02*
X142643400Y-135457400I0J250000D01*
G01*
X142643400Y-134707400D01*
G75*
G02*
X142893400Y-134457400I250000J0D01*
G01*
G37*
G36*
G01*
X142893400Y-131657400D02*
X145043400Y-131657400D01*
G75*
G02*
X145293400Y-131907400I0J-250000D01*
G01*
X145293400Y-132657400D01*
G75*
G02*
X145043400Y-132907400I-250000J0D01*
G01*
X142893400Y-132907400D01*
G75*
G02*
X142643400Y-132657400I0J250000D01*
G01*
X142643400Y-131907400D01*
G75*
G02*
X142893400Y-131657400I250000J0D01*
G01*
G37*
G36*
G01*
X142764400Y-98234700D02*
X142764400Y-99484700D01*
G75*
G02*
X142514400Y-99734700I-250000J0D01*
G01*
X141764400Y-99734700D01*
G75*
G02*
X141514400Y-99484700I0J250000D01*
G01*
X141514400Y-98234700D01*
G75*
G02*
X141764400Y-97984700I250000J0D01*
G01*
X142514400Y-97984700D01*
G75*
G02*
X142764400Y-98234700I0J-250000D01*
G01*
G37*
G36*
G01*
X145564400Y-98234700D02*
X145564400Y-99484700D01*
G75*
G02*
X145314400Y-99734700I-250000J0D01*
G01*
X144564400Y-99734700D01*
G75*
G02*
X144314400Y-99484700I0J250000D01*
G01*
X144314400Y-98234700D01*
G75*
G02*
X144564400Y-97984700I250000J0D01*
G01*
X145314400Y-97984700D01*
G75*
G02*
X145564400Y-98234700I0J-250000D01*
G01*
G37*
G36*
G01*
X142762920Y-100474140D02*
X142762920Y-101724140D01*
G75*
G02*
X142512920Y-101974140I-250000J0D01*
G01*
X141762920Y-101974140D01*
G75*
G02*
X141512920Y-101724140I0J250000D01*
G01*
X141512920Y-100474140D01*
G75*
G02*
X141762920Y-100224140I250000J0D01*
G01*
X142512920Y-100224140D01*
G75*
G02*
X142762920Y-100474140I0J-250000D01*
G01*
G37*
G36*
G01*
X145562920Y-100474140D02*
X145562920Y-101724140D01*
G75*
G02*
X145312920Y-101974140I-250000J0D01*
G01*
X144562920Y-101974140D01*
G75*
G02*
X144312920Y-101724140I0J250000D01*
G01*
X144312920Y-100474140D01*
G75*
G02*
X144562920Y-100224140I250000J0D01*
G01*
X145312920Y-100224140D01*
G75*
G02*
X145562920Y-100474140I0J-250000D01*
G01*
G37*
G36*
G01*
X130868620Y-108896740D02*
X130523620Y-108896740D01*
G75*
G02*
X130376120Y-108749240I0J147500D01*
G01*
X130376120Y-108454240D01*
G75*
G02*
X130523620Y-108306740I147500J0D01*
G01*
X130868620Y-108306740D01*
G75*
G02*
X131016120Y-108454240I0J-147500D01*
G01*
X131016120Y-108749240D01*
G75*
G02*
X130868620Y-108896740I-147500J0D01*
G01*
G37*
G36*
G01*
X130868620Y-109866740D02*
X130523620Y-109866740D01*
G75*
G02*
X130376120Y-109719240I0J147500D01*
G01*
X130376120Y-109424240D01*
G75*
G02*
X130523620Y-109276740I147500J0D01*
G01*
X130868620Y-109276740D01*
G75*
G02*
X131016120Y-109424240I0J-147500D01*
G01*
X131016120Y-109719240D01*
G75*
G02*
X130868620Y-109866740I-147500J0D01*
G01*
G37*
G36*
G01*
X132870000Y-106686360D02*
X132870000Y-106341360D01*
G75*
G02*
X133017500Y-106193860I147500J0D01*
G01*
X133312500Y-106193860D01*
G75*
G02*
X133460000Y-106341360I0J-147500D01*
G01*
X133460000Y-106686360D01*
G75*
G02*
X133312500Y-106833860I-147500J0D01*
G01*
X133017500Y-106833860D01*
G75*
G02*
X132870000Y-106686360I0J147500D01*
G01*
G37*
G36*
G01*
X131900000Y-106686360D02*
X131900000Y-106341360D01*
G75*
G02*
X132047500Y-106193860I147500J0D01*
G01*
X132342500Y-106193860D01*
G75*
G02*
X132490000Y-106341360I0J-147500D01*
G01*
X132490000Y-106686360D01*
G75*
G02*
X132342500Y-106833860I-147500J0D01*
G01*
X132047500Y-106833860D01*
G75*
G02*
X131900000Y-106686360I0J147500D01*
G01*
G37*
G36*
G01*
X134932620Y-105635660D02*
X134587620Y-105635660D01*
G75*
G02*
X134440120Y-105488160I0J147500D01*
G01*
X134440120Y-105193160D01*
G75*
G02*
X134587620Y-105045660I147500J0D01*
G01*
X134932620Y-105045660D01*
G75*
G02*
X135080120Y-105193160I0J-147500D01*
G01*
X135080120Y-105488160D01*
G75*
G02*
X134932620Y-105635660I-147500J0D01*
G01*
G37*
G36*
G01*
X134932620Y-106605660D02*
X134587620Y-106605660D01*
G75*
G02*
X134440120Y-106458160I0J147500D01*
G01*
X134440120Y-106163160D01*
G75*
G02*
X134587620Y-106015660I147500J0D01*
G01*
X134932620Y-106015660D01*
G75*
G02*
X135080120Y-106163160I0J-147500D01*
G01*
X135080120Y-106458160D01*
G75*
G02*
X134932620Y-106605660I-147500J0D01*
G01*
G37*
G36*
G01*
X136542500Y-108145000D02*
X136197500Y-108145000D01*
G75*
G02*
X136050000Y-107997500I0J147500D01*
G01*
X136050000Y-107702500D01*
G75*
G02*
X136197500Y-107555000I147500J0D01*
G01*
X136542500Y-107555000D01*
G75*
G02*
X136690000Y-107702500I0J-147500D01*
G01*
X136690000Y-107997500D01*
G75*
G02*
X136542500Y-108145000I-147500J0D01*
G01*
G37*
G36*
G01*
X136542500Y-109115000D02*
X136197500Y-109115000D01*
G75*
G02*
X136050000Y-108967500I0J147500D01*
G01*
X136050000Y-108672500D01*
G75*
G02*
X136197500Y-108525000I147500J0D01*
G01*
X136542500Y-108525000D01*
G75*
G02*
X136690000Y-108672500I0J-147500D01*
G01*
X136690000Y-108967500D01*
G75*
G02*
X136542500Y-109115000I-147500J0D01*
G01*
G37*
G36*
G01*
X137975000Y-109015000D02*
X137975000Y-108670000D01*
G75*
G02*
X138122500Y-108522500I147500J0D01*
G01*
X138417500Y-108522500D01*
G75*
G02*
X138565000Y-108670000I0J-147500D01*
G01*
X138565000Y-109015000D01*
G75*
G02*
X138417500Y-109162500I-147500J0D01*
G01*
X138122500Y-109162500D01*
G75*
G02*
X137975000Y-109015000I0J147500D01*
G01*
G37*
G36*
G01*
X137005000Y-109015000D02*
X137005000Y-108670000D01*
G75*
G02*
X137152500Y-108522500I147500J0D01*
G01*
X137447500Y-108522500D01*
G75*
G02*
X137595000Y-108670000I0J-147500D01*
G01*
X137595000Y-109015000D01*
G75*
G02*
X137447500Y-109162500I-147500J0D01*
G01*
X137152500Y-109162500D01*
G75*
G02*
X137005000Y-109015000I0J147500D01*
G01*
G37*
G36*
G01*
X139490000Y-107717500D02*
X139490000Y-108062500D01*
G75*
G02*
X139342500Y-108210000I-147500J0D01*
G01*
X139047500Y-108210000D01*
G75*
G02*
X138900000Y-108062500I0J147500D01*
G01*
X138900000Y-107717500D01*
G75*
G02*
X139047500Y-107570000I147500J0D01*
G01*
X139342500Y-107570000D01*
G75*
G02*
X139490000Y-107717500I0J-147500D01*
G01*
G37*
G36*
G01*
X140460000Y-107717500D02*
X140460000Y-108062500D01*
G75*
G02*
X140312500Y-108210000I-147500J0D01*
G01*
X140017500Y-108210000D01*
G75*
G02*
X139870000Y-108062500I0J147500D01*
G01*
X139870000Y-107717500D01*
G75*
G02*
X140017500Y-107570000I147500J0D01*
G01*
X140312500Y-107570000D01*
G75*
G02*
X140460000Y-107717500I0J-147500D01*
G01*
G37*
G36*
G01*
X123672500Y-107545000D02*
X123327500Y-107545000D01*
G75*
G02*
X123180000Y-107397500I0J147500D01*
G01*
X123180000Y-107102500D01*
G75*
G02*
X123327500Y-106955000I147500J0D01*
G01*
X123672500Y-106955000D01*
G75*
G02*
X123820000Y-107102500I0J-147500D01*
G01*
X123820000Y-107397500D01*
G75*
G02*
X123672500Y-107545000I-147500J0D01*
G01*
G37*
G36*
G01*
X123672500Y-108515000D02*
X123327500Y-108515000D01*
G75*
G02*
X123180000Y-108367500I0J147500D01*
G01*
X123180000Y-108072500D01*
G75*
G02*
X123327500Y-107925000I147500J0D01*
G01*
X123672500Y-107925000D01*
G75*
G02*
X123820000Y-108072500I0J-147500D01*
G01*
X123820000Y-108367500D01*
G75*
G02*
X123672500Y-108515000I-147500J0D01*
G01*
G37*
G36*
G01*
X123327500Y-109790000D02*
X123672500Y-109790000D01*
G75*
G02*
X123820000Y-109937500I0J-147500D01*
G01*
X123820000Y-110232500D01*
G75*
G02*
X123672500Y-110380000I-147500J0D01*
G01*
X123327500Y-110380000D01*
G75*
G02*
X123180000Y-110232500I0J147500D01*
G01*
X123180000Y-109937500D01*
G75*
G02*
X123327500Y-109790000I147500J0D01*
G01*
G37*
G36*
G01*
X123327500Y-108820000D02*
X123672500Y-108820000D01*
G75*
G02*
X123820000Y-108967500I0J-147500D01*
G01*
X123820000Y-109262500D01*
G75*
G02*
X123672500Y-109410000I-147500J0D01*
G01*
X123327500Y-109410000D01*
G75*
G02*
X123180000Y-109262500I0J147500D01*
G01*
X123180000Y-108967500D01*
G75*
G02*
X123327500Y-108820000I147500J0D01*
G01*
G37*
G36*
G01*
X115187500Y-108635000D02*
X115532500Y-108635000D01*
G75*
G02*
X115680000Y-108782500I0J-147500D01*
G01*
X115680000Y-109077500D01*
G75*
G02*
X115532500Y-109225000I-147500J0D01*
G01*
X115187500Y-109225000D01*
G75*
G02*
X115040000Y-109077500I0J147500D01*
G01*
X115040000Y-108782500D01*
G75*
G02*
X115187500Y-108635000I147500J0D01*
G01*
G37*
G36*
G01*
X115187500Y-107665000D02*
X115532500Y-107665000D01*
G75*
G02*
X115680000Y-107812500I0J-147500D01*
G01*
X115680000Y-108107500D01*
G75*
G02*
X115532500Y-108255000I-147500J0D01*
G01*
X115187500Y-108255000D01*
G75*
G02*
X115040000Y-108107500I0J147500D01*
G01*
X115040000Y-107812500D01*
G75*
G02*
X115187500Y-107665000I147500J0D01*
G01*
G37*
G36*
G01*
X122991760Y-98251720D02*
X123336760Y-98251720D01*
G75*
G02*
X123484260Y-98399220I0J-147500D01*
G01*
X123484260Y-98694220D01*
G75*
G02*
X123336760Y-98841720I-147500J0D01*
G01*
X122991760Y-98841720D01*
G75*
G02*
X122844260Y-98694220I0J147500D01*
G01*
X122844260Y-98399220D01*
G75*
G02*
X122991760Y-98251720I147500J0D01*
G01*
G37*
G36*
G01*
X122991760Y-97281720D02*
X123336760Y-97281720D01*
G75*
G02*
X123484260Y-97429220I0J-147500D01*
G01*
X123484260Y-97724220D01*
G75*
G02*
X123336760Y-97871720I-147500J0D01*
G01*
X122991760Y-97871720D01*
G75*
G02*
X122844260Y-97724220I0J147500D01*
G01*
X122844260Y-97429220D01*
G75*
G02*
X122991760Y-97281720I147500J0D01*
G01*
G37*
G36*
G01*
X122500000Y-103243750D02*
X122500000Y-104156250D01*
G75*
G02*
X122256250Y-104400000I-243750J0D01*
G01*
X121768750Y-104400000D01*
G75*
G02*
X121525000Y-104156250I0J243750D01*
G01*
X121525000Y-103243750D01*
G75*
G02*
X121768750Y-103000000I243750J0D01*
G01*
X122256250Y-103000000D01*
G75*
G02*
X122500000Y-103243750I0J-243750D01*
G01*
G37*
G36*
G01*
X124375000Y-103243750D02*
X124375000Y-104156250D01*
G75*
G02*
X124131250Y-104400000I-243750J0D01*
G01*
X123643750Y-104400000D01*
G75*
G02*
X123400000Y-104156250I0J243750D01*
G01*
X123400000Y-103243750D01*
G75*
G02*
X123643750Y-103000000I243750J0D01*
G01*
X124131250Y-103000000D01*
G75*
G02*
X124375000Y-103243750I0J-243750D01*
G01*
G37*
G36*
G01*
X131502500Y-99890000D02*
X131157500Y-99890000D01*
G75*
G02*
X131010000Y-99742500I0J147500D01*
G01*
X131010000Y-99447500D01*
G75*
G02*
X131157500Y-99300000I147500J0D01*
G01*
X131502500Y-99300000D01*
G75*
G02*
X131650000Y-99447500I0J-147500D01*
G01*
X131650000Y-99742500D01*
G75*
G02*
X131502500Y-99890000I-147500J0D01*
G01*
G37*
G36*
G01*
X131502500Y-100860000D02*
X131157500Y-100860000D01*
G75*
G02*
X131010000Y-100712500I0J147500D01*
G01*
X131010000Y-100417500D01*
G75*
G02*
X131157500Y-100270000I147500J0D01*
G01*
X131502500Y-100270000D01*
G75*
G02*
X131650000Y-100417500I0J-147500D01*
G01*
X131650000Y-100712500D01*
G75*
G02*
X131502500Y-100860000I-147500J0D01*
G01*
G37*
G36*
G01*
X122500000Y-101353750D02*
X122500000Y-102266250D01*
G75*
G02*
X122256250Y-102510000I-243750J0D01*
G01*
X121768750Y-102510000D01*
G75*
G02*
X121525000Y-102266250I0J243750D01*
G01*
X121525000Y-101353750D01*
G75*
G02*
X121768750Y-101110000I243750J0D01*
G01*
X122256250Y-101110000D01*
G75*
G02*
X122500000Y-101353750I0J-243750D01*
G01*
G37*
G36*
G01*
X124375000Y-101353750D02*
X124375000Y-102266250D01*
G75*
G02*
X124131250Y-102510000I-243750J0D01*
G01*
X123643750Y-102510000D01*
G75*
G02*
X123400000Y-102266250I0J243750D01*
G01*
X123400000Y-101353750D01*
G75*
G02*
X123643750Y-101110000I243750J0D01*
G01*
X124131250Y-101110000D01*
G75*
G02*
X124375000Y-101353750I0J-243750D01*
G01*
G37*
G36*
G01*
X130323250Y-99738060D02*
X129410750Y-99738060D01*
G75*
G02*
X129167000Y-99494310I0J243750D01*
G01*
X129167000Y-99006810D01*
G75*
G02*
X129410750Y-98763060I243750J0D01*
G01*
X130323250Y-98763060D01*
G75*
G02*
X130567000Y-99006810I0J-243750D01*
G01*
X130567000Y-99494310D01*
G75*
G02*
X130323250Y-99738060I-243750J0D01*
G01*
G37*
G36*
G01*
X130323250Y-101613060D02*
X129410750Y-101613060D01*
G75*
G02*
X129167000Y-101369310I0J243750D01*
G01*
X129167000Y-100881810D01*
G75*
G02*
X129410750Y-100638060I243750J0D01*
G01*
X130323250Y-100638060D01*
G75*
G02*
X130567000Y-100881810I0J-243750D01*
G01*
X130567000Y-101369310D01*
G75*
G02*
X130323250Y-101613060I-243750J0D01*
G01*
G37*
G36*
G01*
X128423330Y-99738300D02*
X127510830Y-99738300D01*
G75*
G02*
X127267080Y-99494550I0J243750D01*
G01*
X127267080Y-99007050D01*
G75*
G02*
X127510830Y-98763300I243750J0D01*
G01*
X128423330Y-98763300D01*
G75*
G02*
X128667080Y-99007050I0J-243750D01*
G01*
X128667080Y-99494550D01*
G75*
G02*
X128423330Y-99738300I-243750J0D01*
G01*
G37*
G36*
G01*
X128423330Y-101613300D02*
X127510830Y-101613300D01*
G75*
G02*
X127267080Y-101369550I0J243750D01*
G01*
X127267080Y-100882050D01*
G75*
G02*
X127510830Y-100638300I243750J0D01*
G01*
X128423330Y-100638300D01*
G75*
G02*
X128667080Y-100882050I0J-243750D01*
G01*
X128667080Y-101369550D01*
G75*
G02*
X128423330Y-101613300I-243750J0D01*
G01*
G37*
M02*
