M48
; DRILL file {KiCad 5.1.4-e60b266~84~ubuntu18.04.1} date Mon 21 Oct 2019 03:53:26 PM EDT
; FORMAT={-:-/ absolute / inch / decimal}
; #@! TF.CreationDate,2019-10-21T15:53:26-04:00
; #@! TF.GenerationSoftware,Kicad,Pcbnew,5.1.4-e60b266~84~ubuntu18.04.1
FMAT,2
INCH
T1C0.0138
T2C0.0197
T3C0.0217
T4C0.0295
T5C0.0315
T6C0.0394
T7C0.0945
T8C0.1063
T9C0.0236
T10C0.1063
%
G90
G05
T1
X4.0217Y-3.8602
X4.2Y-5.525
X4.2Y-5.55
X4.2Y-5.575
X4.2Y-5.6
X4.225Y-5.525
X4.225Y-5.55
X4.225Y-5.575
X4.225Y-5.6
X4.25Y-5.525
X4.25Y-5.55
X4.25Y-5.575
X4.25Y-5.6
X4.27Y-3.435
X4.27Y-3.4525
X4.27Y-3.47
X4.27Y-3.4875
X4.27Y-3.505
X4.27Y-3.5225
X4.27Y-3.54
X4.275Y-5.525
X4.275Y-5.55
X4.275Y-5.575
X4.275Y-5.6
X4.2925Y-3.435
X4.2925Y-3.4525
X4.2925Y-3.47
X4.2925Y-3.4875
X4.2925Y-3.505
X4.2925Y-3.5225
X4.2925Y-3.54
X4.3Y-5.525
X4.3Y-5.55
X4.3Y-5.575
X4.3Y-5.6
X4.3125Y-3.435
X4.3125Y-3.4525
X4.3125Y-3.47
X4.3125Y-3.4875
X4.3125Y-3.505
X4.3125Y-3.5225
X4.3125Y-3.54
X4.325Y-5.525
X4.325Y-5.55
X4.325Y-5.575
X4.325Y-5.6
X4.335Y-3.435
X4.335Y-3.4525
X4.335Y-3.47
X4.335Y-3.4875
X4.335Y-3.505
X4.335Y-3.5225
X4.335Y-3.54
X4.3465Y-5.2815
X4.35Y-5.525
X4.35Y-5.55
X4.35Y-5.575
X4.35Y-5.6
X4.355Y-3.435
X4.355Y-3.4525
X4.355Y-3.47
X4.355Y-3.4875
X4.355Y-3.505
X4.355Y-3.5225
X4.355Y-3.54
X4.375Y-5.525
X4.375Y-5.55
X4.375Y-5.575
X4.375Y-5.6
X4.3775Y-3.435
X4.3775Y-3.4525
X4.3775Y-3.47
X4.3775Y-3.4875
X4.3775Y-3.505
X4.3975Y-3.435
X4.3975Y-3.4525
X4.3975Y-3.47
X4.3975Y-3.4875
X4.3975Y-3.505
X4.4Y-5.525
X4.4Y-5.55
X4.4Y-5.575
X4.4Y-5.6
X4.415Y-3.435
X4.415Y-3.4525
X4.415Y-3.47
X4.415Y-3.4875
X4.415Y-3.505
X4.415Y-5.0175
X4.4225Y-5.16
X4.425Y-5.075
X4.425Y-5.13
X4.425Y-5.525
X4.425Y-5.55
X4.425Y-5.575
X4.425Y-5.6
X4.4325Y-4.97
X4.435Y-3.435
X4.435Y-3.4525
X4.4475Y-5.205
X4.45Y-5.525
X4.45Y-5.55
X4.45Y-5.575
X4.45Y-5.6
X4.455Y-3.435
X4.455Y-3.4525
X4.4675Y-4.8075
X4.475Y-3.435
X4.475Y-3.4525
X4.475Y-5.525
X4.475Y-5.55
X4.475Y-5.575
X4.475Y-5.6
X4.4875Y-5.275
X4.495Y-3.435
X4.495Y-3.4525
X4.5Y-5.525
X4.5Y-5.55
X4.5Y-5.575
X4.5Y-5.6
X4.5025Y-4.8875
X4.5075Y-5.3075
X4.5125Y-3.435
X4.5125Y-3.4525
X4.525Y-5.525
X4.525Y-5.55
X4.525Y-5.575
X4.525Y-5.6
X4.5325Y-3.435
X4.5325Y-3.4525
X4.55Y-5.525
X4.55Y-5.55
X4.55Y-5.575
X4.55Y-5.6
X4.5525Y-3.435
X4.5525Y-3.4525
X4.57Y-2.88
X4.5725Y-3.435
X4.5725Y-3.4525
X4.575Y-5.525
X4.575Y-5.55
X4.575Y-5.575
X4.575Y-5.6
X4.589Y-3.747
X4.5925Y-3.435
X4.5925Y-3.4525
X4.6Y-5.525
X4.6Y-5.55
X4.6Y-5.575
X4.6Y-5.6
X4.61Y-3.435
X4.61Y-3.4525
X4.625Y-5.525
X4.625Y-5.55
X4.625Y-5.575
X4.625Y-5.6
X4.63Y-3.435
X4.63Y-3.4525
X4.645Y-3.9625
X4.65Y-3.435
X4.65Y-3.4525
X4.65Y-5.525
X4.65Y-5.55
X4.65Y-5.575
X4.65Y-5.6
X4.6625Y-4.625
X4.665Y-2.807
X4.67Y-3.435
X4.67Y-3.4525
X4.675Y-5.525
X4.675Y-5.55
X4.675Y-5.575
X4.675Y-5.6
X4.68Y-4.625
X4.69Y-3.435
X4.69Y-3.4525
X4.6975Y-4.625
X4.7Y-5.525
X4.7Y-5.55
X4.7Y-5.575
X4.7Y-5.6
X4.715Y-4.625
X4.725Y-5.255
X4.725Y-5.525
X4.725Y-5.55
X4.725Y-5.575
X4.725Y-5.6
X4.7325Y-4.625
X4.75Y-4.625
X4.75Y-5.525
X4.75Y-5.55
X4.75Y-5.575
X4.75Y-5.6
X4.752Y-2.844
X4.7675Y-4.625
X4.775Y-5.525
X4.775Y-5.55
X4.775Y-5.575
X4.775Y-5.6
X4.8Y-5.525
X4.8Y-5.55
X4.8Y-5.575
X4.8Y-5.6
X4.82Y-2.317
X4.825Y-5.525
X4.825Y-5.55
X4.825Y-5.575
X4.825Y-5.6
X4.838Y-2.317
X4.84Y-2.205
X4.85Y-5.525
X4.85Y-5.55
X4.85Y-5.575
X4.85Y-5.6
X4.8566Y-2.3164
X4.859Y-5.123
X4.868Y-2.845
X4.875Y-5.525
X4.875Y-5.55
X4.875Y-5.575
X4.875Y-5.6
X4.889Y-3.049
X4.9Y-5.525
X4.9Y-5.55
X4.9Y-5.575
X4.9Y-5.6
X4.921Y-2.638
X4.925Y-5.525
X4.925Y-5.55
X4.925Y-5.575
X4.925Y-5.6
X4.94Y-2.638
X4.95Y-5.525
X4.95Y-5.55
X4.95Y-5.575
X4.95Y-5.6
X4.959Y-2.638
X4.962Y-2.904
X4.965Y-2.743
X4.975Y-5.525
X4.975Y-5.55
X4.975Y-5.575
X4.975Y-5.6
X4.978Y-2.397
X4.982Y-2.638
X5.0Y-2.251
X5.0Y-5.525
X5.0Y-5.55
X5.0Y-5.575
X5.0Y-5.6
X5.016Y-5.125
X5.025Y-5.525
X5.025Y-5.55
X5.025Y-5.575
X5.025Y-5.6
X5.034Y-1.77
X5.05Y-5.525
X5.05Y-5.55
X5.05Y-5.575
X5.05Y-5.6
X5.0628Y-2.017
X5.063Y-1.918
X5.075Y-5.525
X5.075Y-5.55
X5.075Y-5.575
X5.075Y-5.6
X5.1Y-5.525
X5.1Y-5.55
X5.1Y-5.575
X5.1Y-5.6
X5.116Y-4.833
X5.125Y-2.32
X5.125Y-2.4
X5.125Y-5.525
X5.125Y-5.55
X5.125Y-5.575
X5.125Y-5.6
X5.135Y-4.625
X5.15Y-4.745
X5.15Y-5.525
X5.15Y-5.55
X5.15Y-5.575
X5.15Y-5.6
X5.1525Y-4.625
X5.158Y-1.822
X5.16Y-2.012
X5.16Y-2.768
X5.165Y-2.36
X5.17Y-4.625
X5.175Y-5.525
X5.175Y-5.55
X5.175Y-5.575
X5.175Y-5.6
X5.18Y-2.002
X5.1875Y-4.625
X5.2Y-5.525
X5.2Y-5.55
X5.2Y-5.575
X5.2Y-5.6
X5.205Y-2.325
X5.205Y-2.4
X5.205Y-4.625
X5.2075Y-4.765
X5.2225Y-4.625
X5.225Y-5.525
X5.225Y-5.55
X5.225Y-5.575
X5.225Y-5.6
X5.24Y-4.625
X5.246Y-1.774
X5.25Y-3.13
X5.25Y-5.525
X5.25Y-5.55
X5.25Y-5.575
X5.25Y-5.6
X5.27Y-2.387
X5.275Y-5.525
X5.275Y-5.55
X5.275Y-5.575
X5.275Y-5.6
X5.277Y-2.016
X5.279Y-1.921
X5.282Y-2.298
X5.3Y-1.811
X5.3Y-5.525
X5.3Y-5.55
X5.3Y-5.575
X5.3Y-5.6
X5.325Y-5.525
X5.325Y-5.55
X5.325Y-5.575
X5.325Y-5.6
X5.35Y-5.275
X5.35Y-5.525
X5.35Y-5.55
X5.35Y-5.575
X5.35Y-5.6
X5.354Y-2.491
X5.375Y-5.525
X5.375Y-5.55
X5.375Y-5.575
X5.375Y-5.6
X5.386Y-2.481
X5.3975Y-4.825
X5.4Y-5.525
X5.4Y-5.55
X5.4Y-5.575
X5.4Y-5.6
X5.413Y-4.943
X5.415Y-2.367
X5.425Y-5.525
X5.425Y-5.55
X5.425Y-5.575
X5.425Y-5.6
X5.4425Y-4.655
X5.4494Y-4.7737
X5.45Y-5.525
X5.45Y-5.55
X5.45Y-5.575
X5.45Y-5.6
X5.4525Y-4.825
X5.4625Y-3.99
X5.473Y-3.192
X5.475Y-5.525
X5.475Y-5.55
X5.475Y-5.575
X5.475Y-5.6
X5.4875Y-4.8625
X5.499Y-4.7762
X5.5Y-2.555
X5.5Y-5.525
X5.5Y-5.55
X5.5Y-5.575
X5.5Y-5.6
X5.508Y-3.245
X5.515Y-2.901
X5.5162Y-5.0713
X5.52Y-2.512
X5.52Y-5.23
X5.522Y-4.569
X5.5225Y-4.095
X5.525Y-4.6525
X5.525Y-5.525
X5.525Y-5.55
X5.525Y-5.575
X5.525Y-5.6
X5.5275Y-5.095
X5.5297Y-4.2477
X5.5425Y-5.255
X5.5475Y-5.0375
X5.55Y-5.525
X5.55Y-5.55
X5.55Y-5.575
X5.55Y-5.6
X5.552Y-2.942
X5.555Y-4.6275
X5.564Y-2.888
X5.575Y-3.058
X5.575Y-5.525
X5.575Y-5.55
X5.575Y-5.575
X5.575Y-5.6
X5.58Y-3.795
X5.58Y-3.815
X5.58Y-3.835
X5.58Y-3.855
X5.58Y-3.875
X5.58Y-4.495
X5.585Y-4.56
X5.6Y-3.795
X5.6Y-3.815
X5.6Y-3.835
X5.6Y-3.855
X5.6Y-3.875
X5.6Y-5.525
X5.6Y-5.55
X5.6Y-5.575
X5.6Y-5.6
X5.6024Y-3.3898
X5.6024Y-3.4134
X5.6083Y-2.8425
X5.6138Y-4.0087
X5.615Y-4.0525
X5.615Y-4.15
X5.616Y-4.699
X5.62Y-3.795
X5.62Y-3.815
X5.62Y-3.835
X5.62Y-3.855
X5.62Y-3.875
X5.6201Y-3.3898
X5.6201Y-3.4134
X5.6225Y-4.075
X5.625Y-5.525
X5.625Y-5.55
X5.625Y-5.575
X5.625Y-5.6
X5.63Y-4.3175
X5.6354Y-4.4855
X5.6378Y-3.3898
X5.6378Y-3.4134
X5.64Y-3.795
X5.64Y-3.815
X5.64Y-3.835
X5.64Y-3.855
X5.64Y-3.875
X5.644Y-2.42
X5.65Y-5.525
X5.65Y-5.55
X5.65Y-5.575
X5.65Y-5.6
X5.6555Y-3.3898
X5.6555Y-3.4134
X5.66Y-3.795
X5.66Y-3.815
X5.66Y-3.835
X5.66Y-3.855
X5.66Y-3.875
X5.6689Y-4.8267
X5.675Y-5.525
X5.675Y-5.55
X5.675Y-5.575
X5.675Y-5.6
X5.68Y-3.9425
X5.685Y-4.015
X5.685Y-4.035
X5.685Y-4.055
X5.685Y-4.075
X5.685Y-4.095
X5.686Y-3.104
X5.6925Y-4.54
X5.695Y-4.675
X5.7Y-5.525
X5.7Y-5.55
X5.7Y-5.575
X5.7Y-5.6
X5.7025Y-4.8725
X5.7025Y-4.9025
X5.7046Y-4.8079
X5.71Y-4.015
X5.71Y-4.035
X5.71Y-4.055
X5.71Y-4.075
X5.71Y-4.095
X5.7147Y-4.5155
X5.7147Y-4.555
X5.725Y-4.7875
X5.725Y-5.525
X5.725Y-5.55
X5.725Y-5.575
X5.725Y-5.6
X5.7325Y-4.6575
X5.7332Y-4.897
X5.735Y-4.015
X5.735Y-4.035
X5.735Y-4.055
X5.735Y-4.075
X5.735Y-4.095
X5.745Y-4.8175
X5.7491Y-4.9103
X5.75Y-3.975
X5.75Y-5.094
X5.75Y-5.525
X5.75Y-5.55
X5.75Y-5.575
X5.75Y-5.6
X5.7575Y-4.3825
X5.7625Y-4.835
X5.767Y-4.293
X5.775Y-5.525
X5.775Y-5.55
X5.775Y-5.575
X5.775Y-5.6
X5.7751Y-4.8525
X5.7844Y-4.938
X5.785Y-2.243
X5.7917Y-4.6042
X5.7975Y-5.18
X5.798Y-4.083
X5.8Y-5.525
X5.8Y-5.55
X5.8Y-5.575
X5.8Y-5.6
X5.802Y-4.004
X5.8025Y-5.1525
X5.804Y-2.243
X5.823Y-2.243
X5.8233Y-2.8572
X5.825Y-5.525
X5.825Y-5.55
X5.825Y-5.575
X5.825Y-5.6
X5.8275Y-4.37
X5.83Y-4.12
X5.8301Y-4.9024
X5.831Y-4.313
X5.8371Y-5.0453
X5.842Y-2.243
X5.85Y-5.525
X5.85Y-5.55
X5.85Y-5.575
X5.85Y-5.6
X5.8575Y-5.175
X5.858Y-4.502
X5.859Y-3.9328
X5.86Y-2.243
X5.86Y-4.785
X5.86Y-4.865
X5.8669Y-4.6788
X5.875Y-5.525
X5.875Y-5.55
X5.875Y-5.575
X5.875Y-5.6
X5.9Y-4.8225
X5.9Y-5.525
X5.9Y-5.55
X5.9Y-5.575
X5.9Y-5.6
X5.9125Y-3.915
X5.925Y-5.525
X5.925Y-5.55
X5.925Y-5.575
X5.925Y-5.6
X5.94Y-4.785
X5.94Y-4.8625
X5.95Y-5.525
X5.95Y-5.55
X5.95Y-5.575
X5.95Y-5.6
X5.9575Y-4.7075
X5.975Y-4.975
X5.975Y-5.525
X5.975Y-5.55
X5.975Y-5.575
X5.975Y-5.6
X5.9863Y-5.1387
X5.995Y-4.33
X5.999Y-4.603
X6.0Y-5.525
X6.0Y-5.55
X6.0Y-5.575
X6.0Y-5.6
X6.01Y-4.19
X6.0119Y-5.1658
X6.0119Y-5.1881
X6.0119Y-5.2106
X6.0225Y-4.8725
X6.025Y-5.525
X6.025Y-5.55
X6.025Y-5.575
X6.025Y-5.6
X6.0325Y-4.515
X6.035Y-4.57
X6.035Y-5.1375
X6.05Y-5.525
X6.05Y-5.55
X6.05Y-5.575
X6.05Y-5.6
X6.0525Y-4.5506
X6.0675Y-4.5328
X6.0718Y-4.7157
X6.075Y-5.525
X6.075Y-5.55
X6.075Y-5.575
X6.075Y-5.6
X6.0969Y-4.4131
X6.1Y-5.525
X6.1Y-5.55
X6.1Y-5.575
X6.1Y-5.6
X6.105Y-3.69
X6.1107Y-4.4268
X6.113Y-3.512
X6.1244Y-4.4406
X6.125Y-5.525
X6.125Y-5.55
X6.125Y-5.575
X6.125Y-5.6
X6.139Y-2.273
X6.1425Y-4.4475
X6.146Y-2.875
X6.15Y-5.525
X6.15Y-5.55
X6.15Y-5.575
X6.15Y-5.6
X6.1625Y-4.4475
X6.175Y-5.525
X6.175Y-5.55
X6.175Y-5.575
X6.175Y-5.6
X6.1825Y-4.4475
X6.185Y-3.512
X6.2Y-3.725
X6.2Y-3.75
X6.2025Y-4.4475
X6.205Y-4.9325
X6.2051Y-4.7154
X6.2225Y-4.4475
X6.225Y-3.725
X6.225Y-3.75
X6.24Y-4.84
X6.242Y-2.243
X6.2425Y-4.4475
X6.2425Y-4.815
X6.25Y-3.725
X6.25Y-3.75
X6.25Y-4.175
X6.25Y-4.2
X6.25Y-4.225
X6.25Y-4.25
X6.26Y-2.243
X6.275Y-3.725
X6.275Y-3.75
X6.275Y-3.775
X6.275Y-3.8
X6.275Y-3.825
X6.275Y-3.85
X6.275Y-3.875
X6.275Y-3.9
X6.275Y-3.925
X6.275Y-3.95
X6.275Y-3.975
X6.275Y-4.0
X6.275Y-4.025
X6.275Y-4.05
X6.275Y-4.075
X6.275Y-4.1
X6.275Y-4.125
X6.275Y-4.15
X6.275Y-4.175
X6.275Y-4.2
X6.275Y-4.225
X6.275Y-4.25
X6.2765Y-2.3995
X6.279Y-2.243
X6.29Y-4.7175
X6.295Y-4.935
X6.298Y-2.243
X6.3Y-3.725
X6.3Y-3.75
X6.3Y-3.775
X6.3Y-3.8
X6.3Y-3.825
X6.3Y-3.85
X6.3Y-3.875
X6.3Y-3.9
X6.3Y-3.925
X6.3Y-3.95
X6.3Y-3.975
X6.3Y-4.0
X6.3Y-4.025
X6.3Y-4.05
X6.3Y-4.075
X6.3Y-4.1
X6.3Y-4.125
X6.3Y-4.15
X6.3Y-4.175
X6.3Y-4.2
X6.3Y-4.225
X6.3Y-4.25
X6.313Y-2.9134
X6.315Y-2.438
X6.316Y-2.391
X6.317Y-2.243
X6.32Y-4.405
X6.325Y-4.24
X6.338Y-2.243
X6.35Y-4.24
X6.375Y-4.24
X6.4Y-4.24
X6.4075Y-4.8375
X6.41Y-4.895
X6.42Y-4.24
X6.427Y-2.99
X6.445Y-4.24
X6.445Y-5.12
X6.452Y-4.693
X6.466Y-4.24
X6.472Y-4.693
X6.485Y-5.1575
X6.49Y-4.693
X6.49Y-4.805
X6.49Y-4.865
X6.5Y-5.13
X6.5075Y-5.1775
X6.508Y-4.693
X6.519Y-4.316
X6.526Y-4.693
X6.534Y-2.478
X6.5442Y-4.6928
X6.586Y-2.615
X6.586Y-2.635
X6.586Y-2.656
X6.586Y-2.675
X6.586Y-2.694
X6.5937Y-2.5927
X6.6067Y-2.5797
X6.613Y-2.224
X6.613Y-2.243
X6.613Y-2.263
X6.613Y-2.284
X6.6197Y-2.5667
X6.6247Y-2.3033
X6.6327Y-2.5537
X6.6412Y-2.3198
X6.6467Y-2.5397
X7.1201Y-4.6634
X7.2795Y-4.2992
T2
X6.2415Y-3.5628
X6.2649Y-3.5064
X6.2649Y-3.6192
X6.3213Y-3.4831
X6.3213Y-3.6425
X6.3776Y-3.5064
X6.3776Y-3.6192
X6.401Y-3.5628
X3.9581Y-3.5628
X3.9814Y-3.5064
X3.9814Y-3.6192
X4.0378Y-3.4831
X4.0378Y-3.6425
X4.0942Y-3.5064
X4.0942Y-3.6192
X4.1175Y-3.5628
X3.9581Y-5.4919
X3.9814Y-5.4356
X3.9814Y-5.5483
X4.0378Y-5.4122
X4.0378Y-5.5717
X4.0942Y-5.4356
X4.0942Y-5.5483
X4.1175Y-5.4919
X6.2415Y-5.4919
X6.2649Y-5.4356
X6.2649Y-5.5483
X6.3213Y-5.4122
X6.3213Y-5.5717
X6.3776Y-5.4356
X6.3776Y-5.5483
X6.401Y-5.4919
T4
X4.665Y-2.512
X4.665Y-2.5907
T6
X4.05Y-4.175
X4.15Y-4.175
X4.25Y-4.175
X7.0465Y-4.9659
X7.1465Y-4.9659
X7.2465Y-4.9659
X7.0465Y-4.8659
X7.1465Y-4.8659
X7.2465Y-4.8659
X7.0465Y-5.1659
X7.1465Y-5.1659
X7.2465Y-5.1659
X4.05Y-4.075
X4.15Y-4.075
X4.25Y-4.075
X7.0465Y-3.7888
X7.1465Y-3.7888
X7.2465Y-3.7888
X7.0465Y-5.0659
X7.1465Y-5.0659
X7.2465Y-5.0659
X4.05Y-3.975
X4.15Y-3.975
X4.25Y-3.975
X4.05Y-5.075
X4.15Y-5.075
X4.25Y-5.075
X4.05Y-4.975
X4.15Y-4.975
X4.25Y-4.975
X4.05Y-4.875
X4.15Y-4.875
X4.25Y-4.875
X7.0465Y-3.889
X7.1465Y-3.889
X7.2465Y-3.889
X4.05Y-5.175
X4.15Y-5.175
X4.25Y-5.175
X7.046Y-3.989
X7.146Y-3.989
X7.246Y-3.989
X4.05Y-4.275
X4.15Y-4.275
X4.25Y-4.275
X7.0465Y-3.6888
X7.1465Y-3.6888
X7.2465Y-3.6888
T7
X5.7399Y-3.6004
X5.9368Y-3.6004
T8
X6.3213Y-3.5628
X4.0378Y-3.5628
X4.0378Y-5.4919
X6.3213Y-5.4919
T9
X5.3088Y-2.0181
X6.1969Y-4.9628
T10
X4.4866Y-1.9242
X6.8094Y-1.9242
X4.4866Y-3.1841
X6.8094Y-3.1841
T3
G00X5.0303Y-1.965
M15
G01X5.0145Y-1.965
M16
G05
G00X5.3275Y-1.965
M15
G01X5.3117Y-1.965
M16
G05
G00X6.25Y-4.6843
M15
G01X6.25Y-4.6685
M16
G05
G00X6.25Y-4.9815
M15
G01X6.25Y-4.9657
M16
G05
T5
G00X5.0194Y-1.8441
M15
G01X4.9997Y-1.8441
M16
G05
G00X5.0194Y-2.0859
M15
G01X4.9997Y-2.0859
M16
G05
G00X5.3423Y-1.8441
M15
G01X5.3226Y-1.8441
M16
G05
G00X5.3423Y-2.0859
M15
G01X5.3226Y-2.0859
M16
G05
G00X6.1291Y-4.6734
M15
G01X6.1291Y-4.6537
M16
G05
G00X6.1291Y-4.9963
M15
G01X6.1291Y-4.9766
M16
G05
G00X6.3709Y-4.6734
M15
G01X6.3709Y-4.6537
M16
G05
G00X6.3709Y-4.9963
M15
G01X6.3709Y-4.9766
M16
G05
T9
G00X5.0381Y-2.0181
M15
G01X5.0283Y-2.0181
M16
G05
G00X6.1969Y-4.6921
M15
G01X6.1969Y-4.6823
M16
G05
T0
M30
