G04 #@! TF.GenerationSoftware,KiCad,Pcbnew,5.1.5-52549c5~84~ubuntu18.04.1*
G04 #@! TF.CreationDate,2020-03-29T19:49:40-04:00*
G04 #@! TF.ProjectId,SmallKat v2,536d616c-6c4b-4617-9420-76322e6b6963,rev?*
G04 #@! TF.SameCoordinates,Original*
G04 #@! TF.FileFunction,Legend,Bot*
G04 #@! TF.FilePolarity,Positive*
%FSLAX46Y46*%
G04 Gerber Fmt 4.6, Leading zero omitted, Abs format (unit mm)*
G04 Created by KiCad (PCBNEW 5.1.5-52549c5~84~ubuntu18.04.1) date 2020-03-29 19:49:40*
%MOMM*%
%LPD*%
G04 APERTURE LIST*
%ADD10C,0.120000*%
G04 APERTURE END LIST*
D10*
X131048800Y-112166400D02*
G75*
G03X131048800Y-112166400I-950000J0D01*
G01*
X118552000Y-98145600D02*
G75*
G03X118552000Y-98145600I-950000J0D01*
G01*
X126426000Y-114960400D02*
G75*
G03X126426000Y-114960400I-950000J0D01*
G01*
X124190800Y-119329200D02*
G75*
G03X124190800Y-119329200I-950000J0D01*
G01*
X133284000Y-89814400D02*
G75*
G03X133284000Y-89814400I-950000J0D01*
G01*
X138313200Y-91135200D02*
G75*
G03X138313200Y-91135200I-950000J0D01*
G01*
X103007200Y-115671600D02*
G75*
G03X103007200Y-115671600I-950000J0D01*
G01*
X100365600Y-115671600D02*
G75*
G03X100365600Y-115671600I-950000J0D01*
G01*
X121701600Y-117957600D02*
G75*
G03X121701600Y-117957600I-950000J0D01*
G01*
X116359600Y-86360000D02*
G75*
G03X116359600Y-86360000I-1450000J0D01*
G01*
X126773600Y-87223600D02*
G75*
G03X126773600Y-87223600I-1450000J0D01*
G01*
X137652800Y-111810800D02*
G75*
G03X137652800Y-111810800I-950000J0D01*
G01*
X86895600Y-83870800D02*
G75*
G03X86895600Y-83870800I-1450000J0D01*
G01*
X104683600Y-102819200D02*
G75*
G03X104683600Y-102819200I-950000J0D01*
G01*
X101940400Y-102768400D02*
G75*
G03X101940400Y-102768400I-950000J0D01*
G01*
X89646800Y-115417600D02*
G75*
G03X89646800Y-115417600I-950000J0D01*
G01*
X155700000Y-81450000D02*
X155400000Y-82050000D01*
X155100000Y-81450000D02*
X155700000Y-81450000D01*
X155400000Y-82050000D02*
X155100000Y-81450000D01*
X165720000Y-85140000D02*
X165400000Y-85140000D01*
X165720000Y-88560000D02*
X165720000Y-85140000D01*
X165400000Y-88640000D02*
X165720000Y-88560000D01*
X165080000Y-88560000D02*
X165400000Y-88640000D01*
X165080000Y-85140000D02*
X165080000Y-88560000D01*
X165400000Y-85140000D02*
X165080000Y-85140000D01*
X164070000Y-84140000D02*
X164230000Y-84140000D01*
X163220000Y-85140000D02*
X162900000Y-85140000D01*
X163220000Y-88560000D02*
X163220000Y-85140000D01*
X162900000Y-88640000D02*
X163220000Y-88560000D01*
X162580000Y-88560000D02*
X162900000Y-88640000D01*
X162580000Y-85140000D02*
X162580000Y-88560000D01*
X162900000Y-85140000D02*
X162580000Y-85140000D01*
X161570000Y-84140000D02*
X161730000Y-84140000D01*
X160720000Y-85140000D02*
X160400000Y-85140000D01*
X160720000Y-88560000D02*
X160720000Y-85140000D01*
X160400000Y-88640000D02*
X160720000Y-88560000D01*
X160080000Y-88560000D02*
X160400000Y-88640000D01*
X160080000Y-85140000D02*
X160080000Y-88560000D01*
X160400000Y-85140000D02*
X160080000Y-85140000D01*
X159070000Y-84140000D02*
X159230000Y-84140000D01*
X158220000Y-85140000D02*
X157900000Y-85140000D01*
X158220000Y-88560000D02*
X158220000Y-85140000D01*
X157900000Y-88640000D02*
X158220000Y-88560000D01*
X157580000Y-88560000D02*
X157900000Y-88640000D01*
X157580000Y-85140000D02*
X157580000Y-88560000D01*
X157900000Y-85140000D02*
X157580000Y-85140000D01*
X156570000Y-84140000D02*
X156730000Y-84140000D01*
X155720000Y-85140000D02*
X155400000Y-85140000D01*
X155720000Y-88560000D02*
X155720000Y-85140000D01*
X155400000Y-88640000D02*
X155720000Y-88560000D01*
X155080000Y-88560000D02*
X155400000Y-88640000D01*
X155080000Y-85140000D02*
X155080000Y-88560000D01*
X155400000Y-85140000D02*
X155080000Y-85140000D01*
X154010000Y-85140000D02*
X166790000Y-85140000D01*
X166790000Y-84140000D02*
X168010000Y-84140000D01*
X166790000Y-89140000D02*
X166790000Y-84140000D01*
X168010000Y-89140000D02*
X166790000Y-89140000D01*
X154010000Y-84140000D02*
X152790000Y-84140000D01*
X154010000Y-89140000D02*
X154010000Y-84140000D01*
X152790000Y-89140000D02*
X154010000Y-89140000D01*
X166790000Y-81940000D02*
X166790000Y-84140000D01*
X168010000Y-81940000D02*
X166790000Y-81940000D01*
X168010000Y-90360000D02*
X168010000Y-81940000D01*
X152790000Y-90360000D02*
X168010000Y-90360000D01*
X152790000Y-81940000D02*
X152790000Y-90360000D01*
X154010000Y-81940000D02*
X152790000Y-81940000D01*
X154010000Y-84140000D02*
X154010000Y-81940000D01*
M02*
