G04 #@! TF.GenerationSoftware,KiCad,Pcbnew,5.1.7-a382d34a8~88~ubuntu18.04.1*
G04 #@! TF.CreationDate,2020-12-05T15:11:51-05:00*
G04 #@! TF.ProjectId,SmallKat v2,536d616c-6c4b-4617-9420-76322e6b6963,rev?*
G04 #@! TF.SameCoordinates,Original*
G04 #@! TF.FileFunction,Paste,Top*
G04 #@! TF.FilePolarity,Positive*
%FSLAX46Y46*%
G04 Gerber Fmt 4.6, Leading zero omitted, Abs format (unit mm)*
G04 Created by KiCad (PCBNEW 5.1.7-a382d34a8~88~ubuntu18.04.1) date 2020-12-05 15:11:51*
%MOMM*%
%LPD*%
G01*
G04 APERTURE LIST*
%ADD10R,1.900000X1.350000*%
%ADD11R,1.200000X1.000000*%
%ADD12R,1.550000X1.350000*%
%ADD13R,1.170000X1.800000*%
%ADD14R,0.850000X1.100000*%
%ADD15R,0.750000X1.100000*%
%ADD16R,4.240000X3.810000*%
%ADD17R,1.100000X1.100000*%
%ADD18R,1.060000X0.650000*%
%ADD19R,2.000000X0.900000*%
%ADD20R,0.900000X2.000000*%
%ADD21R,5.000000X5.000000*%
%ADD22R,1.800000X1.000000*%
%ADD23R,0.254000X0.675000*%
%ADD24R,0.675000X0.254000*%
%ADD25R,0.550000X1.500000*%
%ADD26R,0.400000X0.650000*%
%ADD27R,0.630000X0.500000*%
%ADD28R,0.570000X0.738000*%
%ADD29R,3.100000X5.000000*%
%ADD30R,0.620000X1.000000*%
%ADD31R,0.300000X1.000000*%
%ADD32R,0.600000X0.700000*%
G04 APERTURE END LIST*
D10*
X94070000Y-125925000D03*
X100040000Y-125925000D03*
D11*
X103540000Y-130600000D03*
X103540000Y-126900000D03*
D12*
X103365000Y-136625000D03*
D13*
X92045000Y-136400000D03*
D14*
X94305000Y-136750000D03*
X95405000Y-136750000D03*
X96505000Y-136750000D03*
X97605000Y-136750000D03*
X98705000Y-136750000D03*
X99805000Y-136750000D03*
D15*
X93255000Y-136750000D03*
D14*
X100905000Y-136750000D03*
G36*
G01*
X104630000Y-88085000D02*
X104630000Y-87715000D01*
G75*
G02*
X104765000Y-87580000I135000J0D01*
G01*
X105035000Y-87580000D01*
G75*
G02*
X105170000Y-87715000I0J-135000D01*
G01*
X105170000Y-88085000D01*
G75*
G02*
X105035000Y-88220000I-135000J0D01*
G01*
X104765000Y-88220000D01*
G75*
G02*
X104630000Y-88085000I0J135000D01*
G01*
G37*
G36*
G01*
X103610000Y-88085000D02*
X103610000Y-87715000D01*
G75*
G02*
X103745000Y-87580000I135000J0D01*
G01*
X104015000Y-87580000D01*
G75*
G02*
X104150000Y-87715000I0J-135000D01*
G01*
X104150000Y-88085000D01*
G75*
G02*
X104015000Y-88220000I-135000J0D01*
G01*
X103745000Y-88220000D01*
G75*
G02*
X103610000Y-88085000I0J135000D01*
G01*
G37*
G36*
G01*
X102210000Y-88665000D02*
X102210000Y-89035000D01*
G75*
G02*
X102075000Y-89170000I-135000J0D01*
G01*
X101805000Y-89170000D01*
G75*
G02*
X101670000Y-89035000I0J135000D01*
G01*
X101670000Y-88665000D01*
G75*
G02*
X101805000Y-88530000I135000J0D01*
G01*
X102075000Y-88530000D01*
G75*
G02*
X102210000Y-88665000I0J-135000D01*
G01*
G37*
G36*
G01*
X103230000Y-88665000D02*
X103230000Y-89035000D01*
G75*
G02*
X103095000Y-89170000I-135000J0D01*
G01*
X102825000Y-89170000D01*
G75*
G02*
X102690000Y-89035000I0J135000D01*
G01*
X102690000Y-88665000D01*
G75*
G02*
X102825000Y-88530000I135000J0D01*
G01*
X103095000Y-88530000D01*
G75*
G02*
X103230000Y-88665000I0J-135000D01*
G01*
G37*
G36*
G01*
X102690000Y-88085000D02*
X102690000Y-87715000D01*
G75*
G02*
X102825000Y-87580000I135000J0D01*
G01*
X103095000Y-87580000D01*
G75*
G02*
X103230000Y-87715000I0J-135000D01*
G01*
X103230000Y-88085000D01*
G75*
G02*
X103095000Y-88220000I-135000J0D01*
G01*
X102825000Y-88220000D01*
G75*
G02*
X102690000Y-88085000I0J135000D01*
G01*
G37*
G36*
G01*
X101670000Y-88085000D02*
X101670000Y-87715000D01*
G75*
G02*
X101805000Y-87580000I135000J0D01*
G01*
X102075000Y-87580000D01*
G75*
G02*
X102210000Y-87715000I0J-135000D01*
G01*
X102210000Y-88085000D01*
G75*
G02*
X102075000Y-88220000I-135000J0D01*
G01*
X101805000Y-88220000D01*
G75*
G02*
X101670000Y-88085000I0J135000D01*
G01*
G37*
G36*
G01*
X82524999Y-136000000D02*
X83825001Y-136000000D01*
G75*
G02*
X84075000Y-136249999I0J-249999D01*
G01*
X84075000Y-136950001D01*
G75*
G02*
X83825001Y-137200000I-249999J0D01*
G01*
X82524999Y-137200000D01*
G75*
G02*
X82275000Y-136950001I0J249999D01*
G01*
X82275000Y-136249999D01*
G75*
G02*
X82524999Y-136000000I249999J0D01*
G01*
G37*
G36*
G01*
X82524999Y-130400000D02*
X83825001Y-130400000D01*
G75*
G02*
X84075000Y-130649999I0J-249999D01*
G01*
X84075000Y-131350001D01*
G75*
G02*
X83825001Y-131600000I-249999J0D01*
G01*
X82524999Y-131600000D01*
G75*
G02*
X82275000Y-131350001I0J249999D01*
G01*
X82275000Y-130649999D01*
G75*
G02*
X82524999Y-130400000I249999J0D01*
G01*
G37*
G36*
G01*
X86425000Y-135000000D02*
X87675000Y-135000000D01*
G75*
G02*
X87825000Y-135150000I0J-150000D01*
G01*
X87825000Y-135450000D01*
G75*
G02*
X87675000Y-135600000I-150000J0D01*
G01*
X86425000Y-135600000D01*
G75*
G02*
X86275000Y-135450000I0J150000D01*
G01*
X86275000Y-135150000D01*
G75*
G02*
X86425000Y-135000000I150000J0D01*
G01*
G37*
G36*
G01*
X86425000Y-134000000D02*
X87675000Y-134000000D01*
G75*
G02*
X87825000Y-134150000I0J-150000D01*
G01*
X87825000Y-134450000D01*
G75*
G02*
X87675000Y-134600000I-150000J0D01*
G01*
X86425000Y-134600000D01*
G75*
G02*
X86275000Y-134450000I0J150000D01*
G01*
X86275000Y-134150000D01*
G75*
G02*
X86425000Y-134000000I150000J0D01*
G01*
G37*
G36*
G01*
X86425000Y-133000000D02*
X87675000Y-133000000D01*
G75*
G02*
X87825000Y-133150000I0J-150000D01*
G01*
X87825000Y-133450000D01*
G75*
G02*
X87675000Y-133600000I-150000J0D01*
G01*
X86425000Y-133600000D01*
G75*
G02*
X86275000Y-133450000I0J150000D01*
G01*
X86275000Y-133150000D01*
G75*
G02*
X86425000Y-133000000I150000J0D01*
G01*
G37*
G36*
G01*
X86425000Y-132000000D02*
X87675000Y-132000000D01*
G75*
G02*
X87825000Y-132150000I0J-150000D01*
G01*
X87825000Y-132450000D01*
G75*
G02*
X87675000Y-132600000I-150000J0D01*
G01*
X86425000Y-132600000D01*
G75*
G02*
X86275000Y-132450000I0J150000D01*
G01*
X86275000Y-132150000D01*
G75*
G02*
X86425000Y-132000000I150000J0D01*
G01*
G37*
D16*
X108320630Y-84690000D03*
X101950630Y-84690000D03*
G36*
G01*
X106487500Y-87893750D02*
X106487500Y-88406250D01*
G75*
G02*
X106268750Y-88625000I-218750J0D01*
G01*
X105831250Y-88625000D01*
G75*
G02*
X105612500Y-88406250I0J218750D01*
G01*
X105612500Y-87893750D01*
G75*
G02*
X105831250Y-87675000I218750J0D01*
G01*
X106268750Y-87675000D01*
G75*
G02*
X106487500Y-87893750I0J-218750D01*
G01*
G37*
G36*
G01*
X108062500Y-87893750D02*
X108062500Y-88406250D01*
G75*
G02*
X107843750Y-88625000I-218750J0D01*
G01*
X107406250Y-88625000D01*
G75*
G02*
X107187500Y-88406250I0J218750D01*
G01*
X107187500Y-87893750D01*
G75*
G02*
X107406250Y-87675000I218750J0D01*
G01*
X107843750Y-87675000D01*
G75*
G02*
X108062500Y-87893750I0J-218750D01*
G01*
G37*
D17*
X146750000Y-114550000D03*
X143950000Y-114550000D03*
X117850000Y-119450000D03*
X117850000Y-116650000D03*
G36*
G01*
X116605001Y-125125000D02*
X116054999Y-125125000D01*
G75*
G02*
X115805000Y-124875001I0J249999D01*
G01*
X115805000Y-124324999D01*
G75*
G02*
X116054999Y-124075000I249999J0D01*
G01*
X116605001Y-124075000D01*
G75*
G02*
X116855000Y-124324999I0J-249999D01*
G01*
X116855000Y-124875001D01*
G75*
G02*
X116605001Y-125125000I-249999J0D01*
G01*
G37*
G36*
G01*
X115305001Y-125125000D02*
X114754999Y-125125000D01*
G75*
G02*
X114505000Y-124875001I0J249999D01*
G01*
X114505000Y-124324999D01*
G75*
G02*
X114754999Y-124075000I249999J0D01*
G01*
X115305001Y-124075000D01*
G75*
G02*
X115555000Y-124324999I0J-249999D01*
G01*
X115555000Y-124875001D01*
G75*
G02*
X115305001Y-125125000I-249999J0D01*
G01*
G37*
G36*
G01*
X116605001Y-126425000D02*
X116054999Y-126425000D01*
G75*
G02*
X115805000Y-126175001I0J249999D01*
G01*
X115805000Y-125624999D01*
G75*
G02*
X116054999Y-125375000I249999J0D01*
G01*
X116605001Y-125375000D01*
G75*
G02*
X116855000Y-125624999I0J-249999D01*
G01*
X116855000Y-126175001D01*
G75*
G02*
X116605001Y-126425000I-249999J0D01*
G01*
G37*
G36*
G01*
X115305001Y-126425000D02*
X114754999Y-126425000D01*
G75*
G02*
X114505000Y-126175001I0J249999D01*
G01*
X114505000Y-125624999D01*
G75*
G02*
X114754999Y-125375000I249999J0D01*
G01*
X115305001Y-125375000D01*
G75*
G02*
X115555000Y-125624999I0J-249999D01*
G01*
X115555000Y-126175001D01*
G75*
G02*
X115305001Y-126425000I-249999J0D01*
G01*
G37*
G36*
G01*
X114092500Y-126625000D02*
X113392500Y-126625000D01*
G75*
G02*
X113330000Y-126562500I0J62500D01*
G01*
X113330000Y-126437500D01*
G75*
G02*
X113392500Y-126375000I62500J0D01*
G01*
X114092500Y-126375000D01*
G75*
G02*
X114155000Y-126437500I0J-62500D01*
G01*
X114155000Y-126562500D01*
G75*
G02*
X114092500Y-126625000I-62500J0D01*
G01*
G37*
G36*
G01*
X114092500Y-126125000D02*
X113392500Y-126125000D01*
G75*
G02*
X113330000Y-126062500I0J62500D01*
G01*
X113330000Y-125937500D01*
G75*
G02*
X113392500Y-125875000I62500J0D01*
G01*
X114092500Y-125875000D01*
G75*
G02*
X114155000Y-125937500I0J-62500D01*
G01*
X114155000Y-126062500D01*
G75*
G02*
X114092500Y-126125000I-62500J0D01*
G01*
G37*
G36*
G01*
X114092500Y-125625000D02*
X113392500Y-125625000D01*
G75*
G02*
X113330000Y-125562500I0J62500D01*
G01*
X113330000Y-125437500D01*
G75*
G02*
X113392500Y-125375000I62500J0D01*
G01*
X114092500Y-125375000D01*
G75*
G02*
X114155000Y-125437500I0J-62500D01*
G01*
X114155000Y-125562500D01*
G75*
G02*
X114092500Y-125625000I-62500J0D01*
G01*
G37*
G36*
G01*
X114092500Y-125125000D02*
X113392500Y-125125000D01*
G75*
G02*
X113330000Y-125062500I0J62500D01*
G01*
X113330000Y-124937500D01*
G75*
G02*
X113392500Y-124875000I62500J0D01*
G01*
X114092500Y-124875000D01*
G75*
G02*
X114155000Y-124937500I0J-62500D01*
G01*
X114155000Y-125062500D01*
G75*
G02*
X114092500Y-125125000I-62500J0D01*
G01*
G37*
G36*
G01*
X114092500Y-124625000D02*
X113392500Y-124625000D01*
G75*
G02*
X113330000Y-124562500I0J62500D01*
G01*
X113330000Y-124437500D01*
G75*
G02*
X113392500Y-124375000I62500J0D01*
G01*
X114092500Y-124375000D01*
G75*
G02*
X114155000Y-124437500I0J-62500D01*
G01*
X114155000Y-124562500D01*
G75*
G02*
X114092500Y-124625000I-62500J0D01*
G01*
G37*
G36*
G01*
X114092500Y-124125000D02*
X113392500Y-124125000D01*
G75*
G02*
X113330000Y-124062500I0J62500D01*
G01*
X113330000Y-123937500D01*
G75*
G02*
X113392500Y-123875000I62500J0D01*
G01*
X114092500Y-123875000D01*
G75*
G02*
X114155000Y-123937500I0J-62500D01*
G01*
X114155000Y-124062500D01*
G75*
G02*
X114092500Y-124125000I-62500J0D01*
G01*
G37*
G36*
G01*
X114492500Y-123725000D02*
X114367500Y-123725000D01*
G75*
G02*
X114305000Y-123662500I0J62500D01*
G01*
X114305000Y-122962500D01*
G75*
G02*
X114367500Y-122900000I62500J0D01*
G01*
X114492500Y-122900000D01*
G75*
G02*
X114555000Y-122962500I0J-62500D01*
G01*
X114555000Y-123662500D01*
G75*
G02*
X114492500Y-123725000I-62500J0D01*
G01*
G37*
G36*
G01*
X114992500Y-123725000D02*
X114867500Y-123725000D01*
G75*
G02*
X114805000Y-123662500I0J62500D01*
G01*
X114805000Y-122962500D01*
G75*
G02*
X114867500Y-122900000I62500J0D01*
G01*
X114992500Y-122900000D01*
G75*
G02*
X115055000Y-122962500I0J-62500D01*
G01*
X115055000Y-123662500D01*
G75*
G02*
X114992500Y-123725000I-62500J0D01*
G01*
G37*
G36*
G01*
X115492500Y-123725000D02*
X115367500Y-123725000D01*
G75*
G02*
X115305000Y-123662500I0J62500D01*
G01*
X115305000Y-122962500D01*
G75*
G02*
X115367500Y-122900000I62500J0D01*
G01*
X115492500Y-122900000D01*
G75*
G02*
X115555000Y-122962500I0J-62500D01*
G01*
X115555000Y-123662500D01*
G75*
G02*
X115492500Y-123725000I-62500J0D01*
G01*
G37*
G36*
G01*
X115992500Y-123725000D02*
X115867500Y-123725000D01*
G75*
G02*
X115805000Y-123662500I0J62500D01*
G01*
X115805000Y-122962500D01*
G75*
G02*
X115867500Y-122900000I62500J0D01*
G01*
X115992500Y-122900000D01*
G75*
G02*
X116055000Y-122962500I0J-62500D01*
G01*
X116055000Y-123662500D01*
G75*
G02*
X115992500Y-123725000I-62500J0D01*
G01*
G37*
G36*
G01*
X116492500Y-123725000D02*
X116367500Y-123725000D01*
G75*
G02*
X116305000Y-123662500I0J62500D01*
G01*
X116305000Y-122962500D01*
G75*
G02*
X116367500Y-122900000I62500J0D01*
G01*
X116492500Y-122900000D01*
G75*
G02*
X116555000Y-122962500I0J-62500D01*
G01*
X116555000Y-123662500D01*
G75*
G02*
X116492500Y-123725000I-62500J0D01*
G01*
G37*
G36*
G01*
X116992500Y-123725000D02*
X116867500Y-123725000D01*
G75*
G02*
X116805000Y-123662500I0J62500D01*
G01*
X116805000Y-122962500D01*
G75*
G02*
X116867500Y-122900000I62500J0D01*
G01*
X116992500Y-122900000D01*
G75*
G02*
X117055000Y-122962500I0J-62500D01*
G01*
X117055000Y-123662500D01*
G75*
G02*
X116992500Y-123725000I-62500J0D01*
G01*
G37*
G36*
G01*
X117967500Y-124125000D02*
X117267500Y-124125000D01*
G75*
G02*
X117205000Y-124062500I0J62500D01*
G01*
X117205000Y-123937500D01*
G75*
G02*
X117267500Y-123875000I62500J0D01*
G01*
X117967500Y-123875000D01*
G75*
G02*
X118030000Y-123937500I0J-62500D01*
G01*
X118030000Y-124062500D01*
G75*
G02*
X117967500Y-124125000I-62500J0D01*
G01*
G37*
G36*
G01*
X117967500Y-124625000D02*
X117267500Y-124625000D01*
G75*
G02*
X117205000Y-124562500I0J62500D01*
G01*
X117205000Y-124437500D01*
G75*
G02*
X117267500Y-124375000I62500J0D01*
G01*
X117967500Y-124375000D01*
G75*
G02*
X118030000Y-124437500I0J-62500D01*
G01*
X118030000Y-124562500D01*
G75*
G02*
X117967500Y-124625000I-62500J0D01*
G01*
G37*
G36*
G01*
X117967500Y-125125000D02*
X117267500Y-125125000D01*
G75*
G02*
X117205000Y-125062500I0J62500D01*
G01*
X117205000Y-124937500D01*
G75*
G02*
X117267500Y-124875000I62500J0D01*
G01*
X117967500Y-124875000D01*
G75*
G02*
X118030000Y-124937500I0J-62500D01*
G01*
X118030000Y-125062500D01*
G75*
G02*
X117967500Y-125125000I-62500J0D01*
G01*
G37*
G36*
G01*
X117967500Y-125625000D02*
X117267500Y-125625000D01*
G75*
G02*
X117205000Y-125562500I0J62500D01*
G01*
X117205000Y-125437500D01*
G75*
G02*
X117267500Y-125375000I62500J0D01*
G01*
X117967500Y-125375000D01*
G75*
G02*
X118030000Y-125437500I0J-62500D01*
G01*
X118030000Y-125562500D01*
G75*
G02*
X117967500Y-125625000I-62500J0D01*
G01*
G37*
G36*
G01*
X117967500Y-126125000D02*
X117267500Y-126125000D01*
G75*
G02*
X117205000Y-126062500I0J62500D01*
G01*
X117205000Y-125937500D01*
G75*
G02*
X117267500Y-125875000I62500J0D01*
G01*
X117967500Y-125875000D01*
G75*
G02*
X118030000Y-125937500I0J-62500D01*
G01*
X118030000Y-126062500D01*
G75*
G02*
X117967500Y-126125000I-62500J0D01*
G01*
G37*
G36*
G01*
X117967500Y-126625000D02*
X117267500Y-126625000D01*
G75*
G02*
X117205000Y-126562500I0J62500D01*
G01*
X117205000Y-126437500D01*
G75*
G02*
X117267500Y-126375000I62500J0D01*
G01*
X117967500Y-126375000D01*
G75*
G02*
X118030000Y-126437500I0J-62500D01*
G01*
X118030000Y-126562500D01*
G75*
G02*
X117967500Y-126625000I-62500J0D01*
G01*
G37*
G36*
G01*
X116992500Y-127600000D02*
X116867500Y-127600000D01*
G75*
G02*
X116805000Y-127537500I0J62500D01*
G01*
X116805000Y-126837500D01*
G75*
G02*
X116867500Y-126775000I62500J0D01*
G01*
X116992500Y-126775000D01*
G75*
G02*
X117055000Y-126837500I0J-62500D01*
G01*
X117055000Y-127537500D01*
G75*
G02*
X116992500Y-127600000I-62500J0D01*
G01*
G37*
G36*
G01*
X116492500Y-127600000D02*
X116367500Y-127600000D01*
G75*
G02*
X116305000Y-127537500I0J62500D01*
G01*
X116305000Y-126837500D01*
G75*
G02*
X116367500Y-126775000I62500J0D01*
G01*
X116492500Y-126775000D01*
G75*
G02*
X116555000Y-126837500I0J-62500D01*
G01*
X116555000Y-127537500D01*
G75*
G02*
X116492500Y-127600000I-62500J0D01*
G01*
G37*
G36*
G01*
X115992500Y-127600000D02*
X115867500Y-127600000D01*
G75*
G02*
X115805000Y-127537500I0J62500D01*
G01*
X115805000Y-126837500D01*
G75*
G02*
X115867500Y-126775000I62500J0D01*
G01*
X115992500Y-126775000D01*
G75*
G02*
X116055000Y-126837500I0J-62500D01*
G01*
X116055000Y-127537500D01*
G75*
G02*
X115992500Y-127600000I-62500J0D01*
G01*
G37*
G36*
G01*
X115492500Y-127600000D02*
X115367500Y-127600000D01*
G75*
G02*
X115305000Y-127537500I0J62500D01*
G01*
X115305000Y-126837500D01*
G75*
G02*
X115367500Y-126775000I62500J0D01*
G01*
X115492500Y-126775000D01*
G75*
G02*
X115555000Y-126837500I0J-62500D01*
G01*
X115555000Y-127537500D01*
G75*
G02*
X115492500Y-127600000I-62500J0D01*
G01*
G37*
G36*
G01*
X114992500Y-127600000D02*
X114867500Y-127600000D01*
G75*
G02*
X114805000Y-127537500I0J62500D01*
G01*
X114805000Y-126837500D01*
G75*
G02*
X114867500Y-126775000I62500J0D01*
G01*
X114992500Y-126775000D01*
G75*
G02*
X115055000Y-126837500I0J-62500D01*
G01*
X115055000Y-127537500D01*
G75*
G02*
X114992500Y-127600000I-62500J0D01*
G01*
G37*
G36*
G01*
X114492500Y-127600000D02*
X114367500Y-127600000D01*
G75*
G02*
X114305000Y-127537500I0J62500D01*
G01*
X114305000Y-126837500D01*
G75*
G02*
X114367500Y-126775000I62500J0D01*
G01*
X114492500Y-126775000D01*
G75*
G02*
X114555000Y-126837500I0J-62500D01*
G01*
X114555000Y-127537500D01*
G75*
G02*
X114492500Y-127600000I-62500J0D01*
G01*
G37*
G36*
G01*
X117737720Y-102326741D02*
X117737720Y-101686739D01*
G75*
G02*
X117987719Y-101436740I249999J0D01*
G01*
X118627721Y-101436740D01*
G75*
G02*
X118877720Y-101686739I0J-249999D01*
G01*
X118877720Y-102326741D01*
G75*
G02*
X118627721Y-102576740I-249999J0D01*
G01*
X117987719Y-102576740D01*
G75*
G02*
X117737720Y-102326741I0J249999D01*
G01*
G37*
G36*
G01*
X117737720Y-100906741D02*
X117737720Y-100266739D01*
G75*
G02*
X117987719Y-100016740I249999J0D01*
G01*
X118627721Y-100016740D01*
G75*
G02*
X118877720Y-100266739I0J-249999D01*
G01*
X118877720Y-100906741D01*
G75*
G02*
X118627721Y-101156740I-249999J0D01*
G01*
X117987719Y-101156740D01*
G75*
G02*
X117737720Y-100906741I0J249999D01*
G01*
G37*
G36*
G01*
X117737720Y-99486741D02*
X117737720Y-98846739D01*
G75*
G02*
X117987719Y-98596740I249999J0D01*
G01*
X118627721Y-98596740D01*
G75*
G02*
X118877720Y-98846739I0J-249999D01*
G01*
X118877720Y-99486741D01*
G75*
G02*
X118627721Y-99736740I-249999J0D01*
G01*
X117987719Y-99736740D01*
G75*
G02*
X117737720Y-99486741I0J249999D01*
G01*
G37*
G36*
G01*
X116317720Y-102326741D02*
X116317720Y-101686739D01*
G75*
G02*
X116567719Y-101436740I249999J0D01*
G01*
X117207721Y-101436740D01*
G75*
G02*
X117457720Y-101686739I0J-249999D01*
G01*
X117457720Y-102326741D01*
G75*
G02*
X117207721Y-102576740I-249999J0D01*
G01*
X116567719Y-102576740D01*
G75*
G02*
X116317720Y-102326741I0J249999D01*
G01*
G37*
G36*
G01*
X116317720Y-100906741D02*
X116317720Y-100266739D01*
G75*
G02*
X116567719Y-100016740I249999J0D01*
G01*
X117207721Y-100016740D01*
G75*
G02*
X117457720Y-100266739I0J-249999D01*
G01*
X117457720Y-100906741D01*
G75*
G02*
X117207721Y-101156740I-249999J0D01*
G01*
X116567719Y-101156740D01*
G75*
G02*
X116317720Y-100906741I0J249999D01*
G01*
G37*
G36*
G01*
X116317720Y-99486741D02*
X116317720Y-98846739D01*
G75*
G02*
X116567719Y-98596740I249999J0D01*
G01*
X117207721Y-98596740D01*
G75*
G02*
X117457720Y-98846739I0J-249999D01*
G01*
X117457720Y-99486741D01*
G75*
G02*
X117207721Y-99736740I-249999J0D01*
G01*
X116567719Y-99736740D01*
G75*
G02*
X116317720Y-99486741I0J249999D01*
G01*
G37*
G36*
G01*
X114897720Y-102326741D02*
X114897720Y-101686739D01*
G75*
G02*
X115147719Y-101436740I249999J0D01*
G01*
X115787721Y-101436740D01*
G75*
G02*
X116037720Y-101686739I0J-249999D01*
G01*
X116037720Y-102326741D01*
G75*
G02*
X115787721Y-102576740I-249999J0D01*
G01*
X115147719Y-102576740D01*
G75*
G02*
X114897720Y-102326741I0J249999D01*
G01*
G37*
G36*
G01*
X114897720Y-100906741D02*
X114897720Y-100266739D01*
G75*
G02*
X115147719Y-100016740I249999J0D01*
G01*
X115787721Y-100016740D01*
G75*
G02*
X116037720Y-100266739I0J-249999D01*
G01*
X116037720Y-100906741D01*
G75*
G02*
X115787721Y-101156740I-249999J0D01*
G01*
X115147719Y-101156740D01*
G75*
G02*
X114897720Y-100906741I0J249999D01*
G01*
G37*
G36*
G01*
X114897720Y-99486741D02*
X114897720Y-98846739D01*
G75*
G02*
X115147719Y-98596740I249999J0D01*
G01*
X115787721Y-98596740D01*
G75*
G02*
X116037720Y-98846739I0J-249999D01*
G01*
X116037720Y-99486741D01*
G75*
G02*
X115787721Y-99736740I-249999J0D01*
G01*
X115147719Y-99736740D01*
G75*
G02*
X114897720Y-99486741I0J249999D01*
G01*
G37*
G36*
G01*
X114787720Y-98186740D02*
X114787720Y-97311740D01*
G75*
G02*
X114862720Y-97236740I75000J0D01*
G01*
X115012720Y-97236740D01*
G75*
G02*
X115087720Y-97311740I0J-75000D01*
G01*
X115087720Y-98186740D01*
G75*
G02*
X115012720Y-98261740I-75000J0D01*
G01*
X114862720Y-98261740D01*
G75*
G02*
X114787720Y-98186740I0J75000D01*
G01*
G37*
G36*
G01*
X115437720Y-98186740D02*
X115437720Y-97311740D01*
G75*
G02*
X115512720Y-97236740I75000J0D01*
G01*
X115662720Y-97236740D01*
G75*
G02*
X115737720Y-97311740I0J-75000D01*
G01*
X115737720Y-98186740D01*
G75*
G02*
X115662720Y-98261740I-75000J0D01*
G01*
X115512720Y-98261740D01*
G75*
G02*
X115437720Y-98186740I0J75000D01*
G01*
G37*
G36*
G01*
X116087720Y-98186740D02*
X116087720Y-97311740D01*
G75*
G02*
X116162720Y-97236740I75000J0D01*
G01*
X116312720Y-97236740D01*
G75*
G02*
X116387720Y-97311740I0J-75000D01*
G01*
X116387720Y-98186740D01*
G75*
G02*
X116312720Y-98261740I-75000J0D01*
G01*
X116162720Y-98261740D01*
G75*
G02*
X116087720Y-98186740I0J75000D01*
G01*
G37*
G36*
G01*
X116737720Y-98186740D02*
X116737720Y-97311740D01*
G75*
G02*
X116812720Y-97236740I75000J0D01*
G01*
X116962720Y-97236740D01*
G75*
G02*
X117037720Y-97311740I0J-75000D01*
G01*
X117037720Y-98186740D01*
G75*
G02*
X116962720Y-98261740I-75000J0D01*
G01*
X116812720Y-98261740D01*
G75*
G02*
X116737720Y-98186740I0J75000D01*
G01*
G37*
G36*
G01*
X117387720Y-98186740D02*
X117387720Y-97311740D01*
G75*
G02*
X117462720Y-97236740I75000J0D01*
G01*
X117612720Y-97236740D01*
G75*
G02*
X117687720Y-97311740I0J-75000D01*
G01*
X117687720Y-98186740D01*
G75*
G02*
X117612720Y-98261740I-75000J0D01*
G01*
X117462720Y-98261740D01*
G75*
G02*
X117387720Y-98186740I0J75000D01*
G01*
G37*
G36*
G01*
X118037720Y-98186740D02*
X118037720Y-97311740D01*
G75*
G02*
X118112720Y-97236740I75000J0D01*
G01*
X118262720Y-97236740D01*
G75*
G02*
X118337720Y-97311740I0J-75000D01*
G01*
X118337720Y-98186740D01*
G75*
G02*
X118262720Y-98261740I-75000J0D01*
G01*
X118112720Y-98261740D01*
G75*
G02*
X118037720Y-98186740I0J75000D01*
G01*
G37*
G36*
G01*
X118687720Y-98186740D02*
X118687720Y-97311740D01*
G75*
G02*
X118762720Y-97236740I75000J0D01*
G01*
X118912720Y-97236740D01*
G75*
G02*
X118987720Y-97311740I0J-75000D01*
G01*
X118987720Y-98186740D01*
G75*
G02*
X118912720Y-98261740I-75000J0D01*
G01*
X118762720Y-98261740D01*
G75*
G02*
X118687720Y-98186740I0J75000D01*
G01*
G37*
G36*
G01*
X119212720Y-98711740D02*
X119212720Y-98561740D01*
G75*
G02*
X119287720Y-98486740I75000J0D01*
G01*
X120162720Y-98486740D01*
G75*
G02*
X120237720Y-98561740I0J-75000D01*
G01*
X120237720Y-98711740D01*
G75*
G02*
X120162720Y-98786740I-75000J0D01*
G01*
X119287720Y-98786740D01*
G75*
G02*
X119212720Y-98711740I0J75000D01*
G01*
G37*
G36*
G01*
X119212720Y-99361740D02*
X119212720Y-99211740D01*
G75*
G02*
X119287720Y-99136740I75000J0D01*
G01*
X120162720Y-99136740D01*
G75*
G02*
X120237720Y-99211740I0J-75000D01*
G01*
X120237720Y-99361740D01*
G75*
G02*
X120162720Y-99436740I-75000J0D01*
G01*
X119287720Y-99436740D01*
G75*
G02*
X119212720Y-99361740I0J75000D01*
G01*
G37*
G36*
G01*
X119212720Y-100011740D02*
X119212720Y-99861740D01*
G75*
G02*
X119287720Y-99786740I75000J0D01*
G01*
X120162720Y-99786740D01*
G75*
G02*
X120237720Y-99861740I0J-75000D01*
G01*
X120237720Y-100011740D01*
G75*
G02*
X120162720Y-100086740I-75000J0D01*
G01*
X119287720Y-100086740D01*
G75*
G02*
X119212720Y-100011740I0J75000D01*
G01*
G37*
G36*
G01*
X119212720Y-100661740D02*
X119212720Y-100511740D01*
G75*
G02*
X119287720Y-100436740I75000J0D01*
G01*
X120162720Y-100436740D01*
G75*
G02*
X120237720Y-100511740I0J-75000D01*
G01*
X120237720Y-100661740D01*
G75*
G02*
X120162720Y-100736740I-75000J0D01*
G01*
X119287720Y-100736740D01*
G75*
G02*
X119212720Y-100661740I0J75000D01*
G01*
G37*
G36*
G01*
X119212720Y-101311740D02*
X119212720Y-101161740D01*
G75*
G02*
X119287720Y-101086740I75000J0D01*
G01*
X120162720Y-101086740D01*
G75*
G02*
X120237720Y-101161740I0J-75000D01*
G01*
X120237720Y-101311740D01*
G75*
G02*
X120162720Y-101386740I-75000J0D01*
G01*
X119287720Y-101386740D01*
G75*
G02*
X119212720Y-101311740I0J75000D01*
G01*
G37*
G36*
G01*
X119212720Y-101961740D02*
X119212720Y-101811740D01*
G75*
G02*
X119287720Y-101736740I75000J0D01*
G01*
X120162720Y-101736740D01*
G75*
G02*
X120237720Y-101811740I0J-75000D01*
G01*
X120237720Y-101961740D01*
G75*
G02*
X120162720Y-102036740I-75000J0D01*
G01*
X119287720Y-102036740D01*
G75*
G02*
X119212720Y-101961740I0J75000D01*
G01*
G37*
G36*
G01*
X119212720Y-102611740D02*
X119212720Y-102461740D01*
G75*
G02*
X119287720Y-102386740I75000J0D01*
G01*
X120162720Y-102386740D01*
G75*
G02*
X120237720Y-102461740I0J-75000D01*
G01*
X120237720Y-102611740D01*
G75*
G02*
X120162720Y-102686740I-75000J0D01*
G01*
X119287720Y-102686740D01*
G75*
G02*
X119212720Y-102611740I0J75000D01*
G01*
G37*
G36*
G01*
X118687720Y-103861740D02*
X118687720Y-102986740D01*
G75*
G02*
X118762720Y-102911740I75000J0D01*
G01*
X118912720Y-102911740D01*
G75*
G02*
X118987720Y-102986740I0J-75000D01*
G01*
X118987720Y-103861740D01*
G75*
G02*
X118912720Y-103936740I-75000J0D01*
G01*
X118762720Y-103936740D01*
G75*
G02*
X118687720Y-103861740I0J75000D01*
G01*
G37*
G36*
G01*
X118037720Y-103861740D02*
X118037720Y-102986740D01*
G75*
G02*
X118112720Y-102911740I75000J0D01*
G01*
X118262720Y-102911740D01*
G75*
G02*
X118337720Y-102986740I0J-75000D01*
G01*
X118337720Y-103861740D01*
G75*
G02*
X118262720Y-103936740I-75000J0D01*
G01*
X118112720Y-103936740D01*
G75*
G02*
X118037720Y-103861740I0J75000D01*
G01*
G37*
G36*
G01*
X117387720Y-103861740D02*
X117387720Y-102986740D01*
G75*
G02*
X117462720Y-102911740I75000J0D01*
G01*
X117612720Y-102911740D01*
G75*
G02*
X117687720Y-102986740I0J-75000D01*
G01*
X117687720Y-103861740D01*
G75*
G02*
X117612720Y-103936740I-75000J0D01*
G01*
X117462720Y-103936740D01*
G75*
G02*
X117387720Y-103861740I0J75000D01*
G01*
G37*
G36*
G01*
X116737720Y-103861740D02*
X116737720Y-102986740D01*
G75*
G02*
X116812720Y-102911740I75000J0D01*
G01*
X116962720Y-102911740D01*
G75*
G02*
X117037720Y-102986740I0J-75000D01*
G01*
X117037720Y-103861740D01*
G75*
G02*
X116962720Y-103936740I-75000J0D01*
G01*
X116812720Y-103936740D01*
G75*
G02*
X116737720Y-103861740I0J75000D01*
G01*
G37*
G36*
G01*
X116087720Y-103861740D02*
X116087720Y-102986740D01*
G75*
G02*
X116162720Y-102911740I75000J0D01*
G01*
X116312720Y-102911740D01*
G75*
G02*
X116387720Y-102986740I0J-75000D01*
G01*
X116387720Y-103861740D01*
G75*
G02*
X116312720Y-103936740I-75000J0D01*
G01*
X116162720Y-103936740D01*
G75*
G02*
X116087720Y-103861740I0J75000D01*
G01*
G37*
G36*
G01*
X115437720Y-103861740D02*
X115437720Y-102986740D01*
G75*
G02*
X115512720Y-102911740I75000J0D01*
G01*
X115662720Y-102911740D01*
G75*
G02*
X115737720Y-102986740I0J-75000D01*
G01*
X115737720Y-103861740D01*
G75*
G02*
X115662720Y-103936740I-75000J0D01*
G01*
X115512720Y-103936740D01*
G75*
G02*
X115437720Y-103861740I0J75000D01*
G01*
G37*
G36*
G01*
X114787720Y-103861740D02*
X114787720Y-102986740D01*
G75*
G02*
X114862720Y-102911740I75000J0D01*
G01*
X115012720Y-102911740D01*
G75*
G02*
X115087720Y-102986740I0J-75000D01*
G01*
X115087720Y-103861740D01*
G75*
G02*
X115012720Y-103936740I-75000J0D01*
G01*
X114862720Y-103936740D01*
G75*
G02*
X114787720Y-103861740I0J75000D01*
G01*
G37*
G36*
G01*
X113537720Y-102611740D02*
X113537720Y-102461740D01*
G75*
G02*
X113612720Y-102386740I75000J0D01*
G01*
X114487720Y-102386740D01*
G75*
G02*
X114562720Y-102461740I0J-75000D01*
G01*
X114562720Y-102611740D01*
G75*
G02*
X114487720Y-102686740I-75000J0D01*
G01*
X113612720Y-102686740D01*
G75*
G02*
X113537720Y-102611740I0J75000D01*
G01*
G37*
G36*
G01*
X113537720Y-101961740D02*
X113537720Y-101811740D01*
G75*
G02*
X113612720Y-101736740I75000J0D01*
G01*
X114487720Y-101736740D01*
G75*
G02*
X114562720Y-101811740I0J-75000D01*
G01*
X114562720Y-101961740D01*
G75*
G02*
X114487720Y-102036740I-75000J0D01*
G01*
X113612720Y-102036740D01*
G75*
G02*
X113537720Y-101961740I0J75000D01*
G01*
G37*
G36*
G01*
X113537720Y-101311740D02*
X113537720Y-101161740D01*
G75*
G02*
X113612720Y-101086740I75000J0D01*
G01*
X114487720Y-101086740D01*
G75*
G02*
X114562720Y-101161740I0J-75000D01*
G01*
X114562720Y-101311740D01*
G75*
G02*
X114487720Y-101386740I-75000J0D01*
G01*
X113612720Y-101386740D01*
G75*
G02*
X113537720Y-101311740I0J75000D01*
G01*
G37*
G36*
G01*
X113537720Y-100661740D02*
X113537720Y-100511740D01*
G75*
G02*
X113612720Y-100436740I75000J0D01*
G01*
X114487720Y-100436740D01*
G75*
G02*
X114562720Y-100511740I0J-75000D01*
G01*
X114562720Y-100661740D01*
G75*
G02*
X114487720Y-100736740I-75000J0D01*
G01*
X113612720Y-100736740D01*
G75*
G02*
X113537720Y-100661740I0J75000D01*
G01*
G37*
G36*
G01*
X113537720Y-100011740D02*
X113537720Y-99861740D01*
G75*
G02*
X113612720Y-99786740I75000J0D01*
G01*
X114487720Y-99786740D01*
G75*
G02*
X114562720Y-99861740I0J-75000D01*
G01*
X114562720Y-100011740D01*
G75*
G02*
X114487720Y-100086740I-75000J0D01*
G01*
X113612720Y-100086740D01*
G75*
G02*
X113537720Y-100011740I0J75000D01*
G01*
G37*
G36*
G01*
X113537720Y-99361740D02*
X113537720Y-99211740D01*
G75*
G02*
X113612720Y-99136740I75000J0D01*
G01*
X114487720Y-99136740D01*
G75*
G02*
X114562720Y-99211740I0J-75000D01*
G01*
X114562720Y-99361740D01*
G75*
G02*
X114487720Y-99436740I-75000J0D01*
G01*
X113612720Y-99436740D01*
G75*
G02*
X113537720Y-99361740I0J75000D01*
G01*
G37*
G36*
G01*
X113537720Y-98711740D02*
X113537720Y-98561740D01*
G75*
G02*
X113612720Y-98486740I75000J0D01*
G01*
X114487720Y-98486740D01*
G75*
G02*
X114562720Y-98561740I0J-75000D01*
G01*
X114562720Y-98711740D01*
G75*
G02*
X114487720Y-98786740I-75000J0D01*
G01*
X113612720Y-98786740D01*
G75*
G02*
X113537720Y-98711740I0J75000D01*
G01*
G37*
G36*
G01*
X131005000Y-108317500D02*
X131005000Y-108662500D01*
G75*
G02*
X130857500Y-108810000I-147500J0D01*
G01*
X130562500Y-108810000D01*
G75*
G02*
X130415000Y-108662500I0J147500D01*
G01*
X130415000Y-108317500D01*
G75*
G02*
X130562500Y-108170000I147500J0D01*
G01*
X130857500Y-108170000D01*
G75*
G02*
X131005000Y-108317500I0J-147500D01*
G01*
G37*
G36*
G01*
X130035000Y-108317500D02*
X130035000Y-108662500D01*
G75*
G02*
X129887500Y-108810000I-147500J0D01*
G01*
X129592500Y-108810000D01*
G75*
G02*
X129445000Y-108662500I0J147500D01*
G01*
X129445000Y-108317500D01*
G75*
G02*
X129592500Y-108170000I147500J0D01*
G01*
X129887500Y-108170000D01*
G75*
G02*
X130035000Y-108317500I0J-147500D01*
G01*
G37*
G36*
G01*
X132870000Y-108317500D02*
X132870000Y-108662500D01*
G75*
G02*
X132722500Y-108810000I-147500J0D01*
G01*
X132427500Y-108810000D01*
G75*
G02*
X132280000Y-108662500I0J147500D01*
G01*
X132280000Y-108317500D01*
G75*
G02*
X132427500Y-108170000I147500J0D01*
G01*
X132722500Y-108170000D01*
G75*
G02*
X132870000Y-108317500I0J-147500D01*
G01*
G37*
G36*
G01*
X131900000Y-108317500D02*
X131900000Y-108662500D01*
G75*
G02*
X131752500Y-108810000I-147500J0D01*
G01*
X131457500Y-108810000D01*
G75*
G02*
X131310000Y-108662500I0J147500D01*
G01*
X131310000Y-108317500D01*
G75*
G02*
X131457500Y-108170000I147500J0D01*
G01*
X131752500Y-108170000D01*
G75*
G02*
X131900000Y-108317500I0J-147500D01*
G01*
G37*
G36*
G01*
X129995000Y-126447500D02*
X129995000Y-126792500D01*
G75*
G02*
X129847500Y-126940000I-147500J0D01*
G01*
X129552500Y-126940000D01*
G75*
G02*
X129405000Y-126792500I0J147500D01*
G01*
X129405000Y-126447500D01*
G75*
G02*
X129552500Y-126300000I147500J0D01*
G01*
X129847500Y-126300000D01*
G75*
G02*
X129995000Y-126447500I0J-147500D01*
G01*
G37*
G36*
G01*
X129025000Y-126447500D02*
X129025000Y-126792500D01*
G75*
G02*
X128877500Y-126940000I-147500J0D01*
G01*
X128582500Y-126940000D01*
G75*
G02*
X128435000Y-126792500I0J147500D01*
G01*
X128435000Y-126447500D01*
G75*
G02*
X128582500Y-126300000I147500J0D01*
G01*
X128877500Y-126300000D01*
G75*
G02*
X129025000Y-126447500I0J-147500D01*
G01*
G37*
G36*
G01*
X131850000Y-126447500D02*
X131850000Y-126792500D01*
G75*
G02*
X131702500Y-126940000I-147500J0D01*
G01*
X131407500Y-126940000D01*
G75*
G02*
X131260000Y-126792500I0J147500D01*
G01*
X131260000Y-126447500D01*
G75*
G02*
X131407500Y-126300000I147500J0D01*
G01*
X131702500Y-126300000D01*
G75*
G02*
X131850000Y-126447500I0J-147500D01*
G01*
G37*
G36*
G01*
X130880000Y-126447500D02*
X130880000Y-126792500D01*
G75*
G02*
X130732500Y-126940000I-147500J0D01*
G01*
X130437500Y-126940000D01*
G75*
G02*
X130290000Y-126792500I0J147500D01*
G01*
X130290000Y-126447500D01*
G75*
G02*
X130437500Y-126300000I147500J0D01*
G01*
X130732500Y-126300000D01*
G75*
G02*
X130880000Y-126447500I0J-147500D01*
G01*
G37*
G36*
G01*
X70025000Y-109027500D02*
X70025000Y-109372500D01*
G75*
G02*
X69877500Y-109520000I-147500J0D01*
G01*
X69582500Y-109520000D01*
G75*
G02*
X69435000Y-109372500I0J147500D01*
G01*
X69435000Y-109027500D01*
G75*
G02*
X69582500Y-108880000I147500J0D01*
G01*
X69877500Y-108880000D01*
G75*
G02*
X70025000Y-109027500I0J-147500D01*
G01*
G37*
G36*
G01*
X70995000Y-109027500D02*
X70995000Y-109372500D01*
G75*
G02*
X70847500Y-109520000I-147500J0D01*
G01*
X70552500Y-109520000D01*
G75*
G02*
X70405000Y-109372500I0J147500D01*
G01*
X70405000Y-109027500D01*
G75*
G02*
X70552500Y-108880000I147500J0D01*
G01*
X70847500Y-108880000D01*
G75*
G02*
X70995000Y-109027500I0J-147500D01*
G01*
G37*
G36*
G01*
X71884000Y-109027500D02*
X71884000Y-109372500D01*
G75*
G02*
X71736500Y-109520000I-147500J0D01*
G01*
X71441500Y-109520000D01*
G75*
G02*
X71294000Y-109372500I0J147500D01*
G01*
X71294000Y-109027500D01*
G75*
G02*
X71441500Y-108880000I147500J0D01*
G01*
X71736500Y-108880000D01*
G75*
G02*
X71884000Y-109027500I0J-147500D01*
G01*
G37*
G36*
G01*
X72854000Y-109027500D02*
X72854000Y-109372500D01*
G75*
G02*
X72706500Y-109520000I-147500J0D01*
G01*
X72411500Y-109520000D01*
G75*
G02*
X72264000Y-109372500I0J147500D01*
G01*
X72264000Y-109027500D01*
G75*
G02*
X72411500Y-108880000I147500J0D01*
G01*
X72706500Y-108880000D01*
G75*
G02*
X72854000Y-109027500I0J-147500D01*
G01*
G37*
G36*
G01*
X74585000Y-89757500D02*
X74585000Y-90102500D01*
G75*
G02*
X74437500Y-90250000I-147500J0D01*
G01*
X74142500Y-90250000D01*
G75*
G02*
X73995000Y-90102500I0J147500D01*
G01*
X73995000Y-89757500D01*
G75*
G02*
X74142500Y-89610000I147500J0D01*
G01*
X74437500Y-89610000D01*
G75*
G02*
X74585000Y-89757500I0J-147500D01*
G01*
G37*
G36*
G01*
X75555000Y-89757500D02*
X75555000Y-90102500D01*
G75*
G02*
X75407500Y-90250000I-147500J0D01*
G01*
X75112500Y-90250000D01*
G75*
G02*
X74965000Y-90102500I0J147500D01*
G01*
X74965000Y-89757500D01*
G75*
G02*
X75112500Y-89610000I147500J0D01*
G01*
X75407500Y-89610000D01*
G75*
G02*
X75555000Y-89757500I0J-147500D01*
G01*
G37*
G36*
G01*
X74965000Y-91032500D02*
X74965000Y-90687500D01*
G75*
G02*
X75112500Y-90540000I147500J0D01*
G01*
X75407500Y-90540000D01*
G75*
G02*
X75555000Y-90687500I0J-147500D01*
G01*
X75555000Y-91032500D01*
G75*
G02*
X75407500Y-91180000I-147500J0D01*
G01*
X75112500Y-91180000D01*
G75*
G02*
X74965000Y-91032500I0J147500D01*
G01*
G37*
G36*
G01*
X73995000Y-91032500D02*
X73995000Y-90687500D01*
G75*
G02*
X74142500Y-90540000I147500J0D01*
G01*
X74437500Y-90540000D01*
G75*
G02*
X74585000Y-90687500I0J-147500D01*
G01*
X74585000Y-91032500D01*
G75*
G02*
X74437500Y-91180000I-147500J0D01*
G01*
X74142500Y-91180000D01*
G75*
G02*
X73995000Y-91032500I0J147500D01*
G01*
G37*
G36*
G01*
X126677500Y-121175000D02*
X127022500Y-121175000D01*
G75*
G02*
X127170000Y-121322500I0J-147500D01*
G01*
X127170000Y-121617500D01*
G75*
G02*
X127022500Y-121765000I-147500J0D01*
G01*
X126677500Y-121765000D01*
G75*
G02*
X126530000Y-121617500I0J147500D01*
G01*
X126530000Y-121322500D01*
G75*
G02*
X126677500Y-121175000I147500J0D01*
G01*
G37*
G36*
G01*
X126677500Y-120205000D02*
X127022500Y-120205000D01*
G75*
G02*
X127170000Y-120352500I0J-147500D01*
G01*
X127170000Y-120647500D01*
G75*
G02*
X127022500Y-120795000I-147500J0D01*
G01*
X126677500Y-120795000D01*
G75*
G02*
X126530000Y-120647500I0J147500D01*
G01*
X126530000Y-120352500D01*
G75*
G02*
X126677500Y-120205000I147500J0D01*
G01*
G37*
G36*
G01*
X127902500Y-122865000D02*
X127557500Y-122865000D01*
G75*
G02*
X127410000Y-122717500I0J147500D01*
G01*
X127410000Y-122422500D01*
G75*
G02*
X127557500Y-122275000I147500J0D01*
G01*
X127902500Y-122275000D01*
G75*
G02*
X128050000Y-122422500I0J-147500D01*
G01*
X128050000Y-122717500D01*
G75*
G02*
X127902500Y-122865000I-147500J0D01*
G01*
G37*
G36*
G01*
X127902500Y-123835000D02*
X127557500Y-123835000D01*
G75*
G02*
X127410000Y-123687500I0J147500D01*
G01*
X127410000Y-123392500D01*
G75*
G02*
X127557500Y-123245000I147500J0D01*
G01*
X127902500Y-123245000D01*
G75*
G02*
X128050000Y-123392500I0J-147500D01*
G01*
X128050000Y-123687500D01*
G75*
G02*
X127902500Y-123835000I-147500J0D01*
G01*
G37*
G36*
G01*
X126962500Y-122865000D02*
X126617500Y-122865000D01*
G75*
G02*
X126470000Y-122717500I0J147500D01*
G01*
X126470000Y-122422500D01*
G75*
G02*
X126617500Y-122275000I147500J0D01*
G01*
X126962500Y-122275000D01*
G75*
G02*
X127110000Y-122422500I0J-147500D01*
G01*
X127110000Y-122717500D01*
G75*
G02*
X126962500Y-122865000I-147500J0D01*
G01*
G37*
G36*
G01*
X126962500Y-123835000D02*
X126617500Y-123835000D01*
G75*
G02*
X126470000Y-123687500I0J147500D01*
G01*
X126470000Y-123392500D01*
G75*
G02*
X126617500Y-123245000I147500J0D01*
G01*
X126962500Y-123245000D01*
G75*
G02*
X127110000Y-123392500I0J-147500D01*
G01*
X127110000Y-123687500D01*
G75*
G02*
X126962500Y-123835000I-147500J0D01*
G01*
G37*
G36*
G01*
X110857500Y-94380000D02*
X111202500Y-94380000D01*
G75*
G02*
X111350000Y-94527500I0J-147500D01*
G01*
X111350000Y-94822500D01*
G75*
G02*
X111202500Y-94970000I-147500J0D01*
G01*
X110857500Y-94970000D01*
G75*
G02*
X110710000Y-94822500I0J147500D01*
G01*
X110710000Y-94527500D01*
G75*
G02*
X110857500Y-94380000I147500J0D01*
G01*
G37*
G36*
G01*
X110857500Y-93410000D02*
X111202500Y-93410000D01*
G75*
G02*
X111350000Y-93557500I0J-147500D01*
G01*
X111350000Y-93852500D01*
G75*
G02*
X111202500Y-94000000I-147500J0D01*
G01*
X110857500Y-94000000D01*
G75*
G02*
X110710000Y-93852500I0J147500D01*
G01*
X110710000Y-93557500D01*
G75*
G02*
X110857500Y-93410000I147500J0D01*
G01*
G37*
G36*
G01*
X110847500Y-92510000D02*
X111192500Y-92510000D01*
G75*
G02*
X111340000Y-92657500I0J-147500D01*
G01*
X111340000Y-92952500D01*
G75*
G02*
X111192500Y-93100000I-147500J0D01*
G01*
X110847500Y-93100000D01*
G75*
G02*
X110700000Y-92952500I0J147500D01*
G01*
X110700000Y-92657500D01*
G75*
G02*
X110847500Y-92510000I147500J0D01*
G01*
G37*
G36*
G01*
X110847500Y-91540000D02*
X111192500Y-91540000D01*
G75*
G02*
X111340000Y-91687500I0J-147500D01*
G01*
X111340000Y-91982500D01*
G75*
G02*
X111192500Y-92130000I-147500J0D01*
G01*
X110847500Y-92130000D01*
G75*
G02*
X110700000Y-91982500I0J147500D01*
G01*
X110700000Y-91687500D01*
G75*
G02*
X110847500Y-91540000I147500J0D01*
G01*
G37*
G36*
G01*
X157265000Y-105552500D02*
X157265000Y-105207500D01*
G75*
G02*
X157412500Y-105060000I147500J0D01*
G01*
X157707500Y-105060000D01*
G75*
G02*
X157855000Y-105207500I0J-147500D01*
G01*
X157855000Y-105552500D01*
G75*
G02*
X157707500Y-105700000I-147500J0D01*
G01*
X157412500Y-105700000D01*
G75*
G02*
X157265000Y-105552500I0J147500D01*
G01*
G37*
G36*
G01*
X158235000Y-105552500D02*
X158235000Y-105207500D01*
G75*
G02*
X158382500Y-105060000I147500J0D01*
G01*
X158677500Y-105060000D01*
G75*
G02*
X158825000Y-105207500I0J-147500D01*
G01*
X158825000Y-105552500D01*
G75*
G02*
X158677500Y-105700000I-147500J0D01*
G01*
X158382500Y-105700000D01*
G75*
G02*
X158235000Y-105552500I0J147500D01*
G01*
G37*
G36*
G01*
X155412040Y-105559120D02*
X155412040Y-105214120D01*
G75*
G02*
X155559540Y-105066620I147500J0D01*
G01*
X155854540Y-105066620D01*
G75*
G02*
X156002040Y-105214120I0J-147500D01*
G01*
X156002040Y-105559120D01*
G75*
G02*
X155854540Y-105706620I-147500J0D01*
G01*
X155559540Y-105706620D01*
G75*
G02*
X155412040Y-105559120I0J147500D01*
G01*
G37*
G36*
G01*
X156382040Y-105559120D02*
X156382040Y-105214120D01*
G75*
G02*
X156529540Y-105066620I147500J0D01*
G01*
X156824540Y-105066620D01*
G75*
G02*
X156972040Y-105214120I0J-147500D01*
G01*
X156972040Y-105559120D01*
G75*
G02*
X156824540Y-105706620I-147500J0D01*
G01*
X156529540Y-105706620D01*
G75*
G02*
X156382040Y-105559120I0J147500D01*
G01*
G37*
G36*
G01*
X121182540Y-121974730D02*
X121182540Y-121062230D01*
G75*
G02*
X121426290Y-120818480I243750J0D01*
G01*
X121913790Y-120818480D01*
G75*
G02*
X122157540Y-121062230I0J-243750D01*
G01*
X122157540Y-121974730D01*
G75*
G02*
X121913790Y-122218480I-243750J0D01*
G01*
X121426290Y-122218480D01*
G75*
G02*
X121182540Y-121974730I0J243750D01*
G01*
G37*
G36*
G01*
X119307540Y-121974730D02*
X119307540Y-121062230D01*
G75*
G02*
X119551290Y-120818480I243750J0D01*
G01*
X120038790Y-120818480D01*
G75*
G02*
X120282540Y-121062230I0J-243750D01*
G01*
X120282540Y-121974730D01*
G75*
G02*
X120038790Y-122218480I-243750J0D01*
G01*
X119551290Y-122218480D01*
G75*
G02*
X119307540Y-121974730I0J243750D01*
G01*
G37*
D18*
X125460000Y-121530000D03*
X125460000Y-120580000D03*
X125460000Y-122480000D03*
X123260000Y-122480000D03*
X123260000Y-121530000D03*
X123260000Y-120580000D03*
G36*
G01*
X124335000Y-119017500D02*
X124335000Y-119362500D01*
G75*
G02*
X124187500Y-119510000I-147500J0D01*
G01*
X123892500Y-119510000D01*
G75*
G02*
X123745000Y-119362500I0J147500D01*
G01*
X123745000Y-119017500D01*
G75*
G02*
X123892500Y-118870000I147500J0D01*
G01*
X124187500Y-118870000D01*
G75*
G02*
X124335000Y-119017500I0J-147500D01*
G01*
G37*
G36*
G01*
X125305000Y-119017500D02*
X125305000Y-119362500D01*
G75*
G02*
X125157500Y-119510000I-147500J0D01*
G01*
X124862500Y-119510000D01*
G75*
G02*
X124715000Y-119362500I0J147500D01*
G01*
X124715000Y-119017500D01*
G75*
G02*
X124862500Y-118870000I147500J0D01*
G01*
X125157500Y-118870000D01*
G75*
G02*
X125305000Y-119017500I0J-147500D01*
G01*
G37*
G36*
G01*
X121170000Y-118156250D02*
X121170000Y-117243750D01*
G75*
G02*
X121413750Y-117000000I243750J0D01*
G01*
X121901250Y-117000000D01*
G75*
G02*
X122145000Y-117243750I0J-243750D01*
G01*
X122145000Y-118156250D01*
G75*
G02*
X121901250Y-118400000I-243750J0D01*
G01*
X121413750Y-118400000D01*
G75*
G02*
X121170000Y-118156250I0J243750D01*
G01*
G37*
G36*
G01*
X119295000Y-118156250D02*
X119295000Y-117243750D01*
G75*
G02*
X119538750Y-117000000I243750J0D01*
G01*
X120026250Y-117000000D01*
G75*
G02*
X120270000Y-117243750I0J-243750D01*
G01*
X120270000Y-118156250D01*
G75*
G02*
X120026250Y-118400000I-243750J0D01*
G01*
X119538750Y-118400000D01*
G75*
G02*
X119295000Y-118156250I0J243750D01*
G01*
G37*
G36*
G01*
X123815000Y-127487500D02*
X123815000Y-127832500D01*
G75*
G02*
X123667500Y-127980000I-147500J0D01*
G01*
X123372500Y-127980000D01*
G75*
G02*
X123225000Y-127832500I0J147500D01*
G01*
X123225000Y-127487500D01*
G75*
G02*
X123372500Y-127340000I147500J0D01*
G01*
X123667500Y-127340000D01*
G75*
G02*
X123815000Y-127487500I0J-147500D01*
G01*
G37*
G36*
G01*
X124785000Y-127487500D02*
X124785000Y-127832500D01*
G75*
G02*
X124637500Y-127980000I-147500J0D01*
G01*
X124342500Y-127980000D01*
G75*
G02*
X124195000Y-127832500I0J147500D01*
G01*
X124195000Y-127487500D01*
G75*
G02*
X124342500Y-127340000I147500J0D01*
G01*
X124637500Y-127340000D01*
G75*
G02*
X124785000Y-127487500I0J-147500D01*
G01*
G37*
G36*
G01*
X121169040Y-120056450D02*
X121169040Y-119143950D01*
G75*
G02*
X121412790Y-118900200I243750J0D01*
G01*
X121900290Y-118900200D01*
G75*
G02*
X122144040Y-119143950I0J-243750D01*
G01*
X122144040Y-120056450D01*
G75*
G02*
X121900290Y-120300200I-243750J0D01*
G01*
X121412790Y-120300200D01*
G75*
G02*
X121169040Y-120056450I0J243750D01*
G01*
G37*
G36*
G01*
X119294040Y-120056450D02*
X119294040Y-119143950D01*
G75*
G02*
X119537790Y-118900200I243750J0D01*
G01*
X120025290Y-118900200D01*
G75*
G02*
X120269040Y-119143950I0J-243750D01*
G01*
X120269040Y-120056450D01*
G75*
G02*
X120025290Y-120300200I-243750J0D01*
G01*
X119537790Y-120300200D01*
G75*
G02*
X119294040Y-120056450I0J243750D01*
G01*
G37*
G36*
G01*
X123640000Y-125723750D02*
X123640000Y-126636250D01*
G75*
G02*
X123396250Y-126880000I-243750J0D01*
G01*
X122908750Y-126880000D01*
G75*
G02*
X122665000Y-126636250I0J243750D01*
G01*
X122665000Y-125723750D01*
G75*
G02*
X122908750Y-125480000I243750J0D01*
G01*
X123396250Y-125480000D01*
G75*
G02*
X123640000Y-125723750I0J-243750D01*
G01*
G37*
G36*
G01*
X125515000Y-125723750D02*
X125515000Y-126636250D01*
G75*
G02*
X125271250Y-126880000I-243750J0D01*
G01*
X124783750Y-126880000D01*
G75*
G02*
X124540000Y-126636250I0J243750D01*
G01*
X124540000Y-125723750D01*
G75*
G02*
X124783750Y-125480000I243750J0D01*
G01*
X125271250Y-125480000D01*
G75*
G02*
X125515000Y-125723750I0J-243750D01*
G01*
G37*
G36*
G01*
X123645480Y-123818470D02*
X123645480Y-124730970D01*
G75*
G02*
X123401730Y-124974720I-243750J0D01*
G01*
X122914230Y-124974720D01*
G75*
G02*
X122670480Y-124730970I0J243750D01*
G01*
X122670480Y-123818470D01*
G75*
G02*
X122914230Y-123574720I243750J0D01*
G01*
X123401730Y-123574720D01*
G75*
G02*
X123645480Y-123818470I0J-243750D01*
G01*
G37*
G36*
G01*
X125520480Y-123818470D02*
X125520480Y-124730970D01*
G75*
G02*
X125276730Y-124974720I-243750J0D01*
G01*
X124789230Y-124974720D01*
G75*
G02*
X124545480Y-124730970I0J243750D01*
G01*
X124545480Y-123818470D01*
G75*
G02*
X124789230Y-123574720I243750J0D01*
G01*
X125276730Y-123574720D01*
G75*
G02*
X125520480Y-123818470I0J-243750D01*
G01*
G37*
G36*
G01*
X116190000Y-96177500D02*
X116190000Y-96522500D01*
G75*
G02*
X116042500Y-96670000I-147500J0D01*
G01*
X115747500Y-96670000D01*
G75*
G02*
X115600000Y-96522500I0J147500D01*
G01*
X115600000Y-96177500D01*
G75*
G02*
X115747500Y-96030000I147500J0D01*
G01*
X116042500Y-96030000D01*
G75*
G02*
X116190000Y-96177500I0J-147500D01*
G01*
G37*
G36*
G01*
X117160000Y-96177500D02*
X117160000Y-96522500D01*
G75*
G02*
X117012500Y-96670000I-147500J0D01*
G01*
X116717500Y-96670000D01*
G75*
G02*
X116570000Y-96522500I0J147500D01*
G01*
X116570000Y-96177500D01*
G75*
G02*
X116717500Y-96030000I147500J0D01*
G01*
X117012500Y-96030000D01*
G75*
G02*
X117160000Y-96177500I0J-147500D01*
G01*
G37*
D19*
X90610800Y-116916200D03*
X90610800Y-115646200D03*
X90610800Y-114376200D03*
X90610800Y-113106200D03*
X90610800Y-111836200D03*
X90610800Y-110566200D03*
X90610800Y-109296200D03*
X90610800Y-108026200D03*
X90610800Y-106756200D03*
X90610800Y-105486200D03*
X90610800Y-104216200D03*
X90610800Y-102946200D03*
X90610800Y-101676200D03*
X90610800Y-100406200D03*
D20*
X93395800Y-99406200D03*
X94665800Y-99406200D03*
X95935800Y-99406200D03*
X97205800Y-99406200D03*
X98475800Y-99406200D03*
X99745800Y-99406200D03*
X101015800Y-99406200D03*
X102285800Y-99406200D03*
X103555800Y-99406200D03*
X104825800Y-99406200D03*
D19*
X107610800Y-100406200D03*
X107610800Y-101676200D03*
X107610800Y-102946200D03*
X107610800Y-104216200D03*
X107610800Y-105486200D03*
X107610800Y-106756200D03*
X107610800Y-108026200D03*
X107610800Y-109296200D03*
X107610800Y-110566200D03*
X107610800Y-111836200D03*
X107610800Y-113106200D03*
X107610800Y-114376200D03*
X107610800Y-115646200D03*
X107610800Y-116916200D03*
D21*
X100110800Y-109416200D03*
D22*
X121780000Y-107440000D03*
X121780000Y-109940000D03*
D23*
X117410800Y-112166300D03*
X117910800Y-112166300D03*
X118410800Y-112166300D03*
D24*
X116498300Y-112028800D03*
X116498300Y-111528800D03*
X116498300Y-111028800D03*
X116498300Y-110528800D03*
X116498300Y-110028800D03*
X116498300Y-109528800D03*
X116498300Y-109028800D03*
X116498300Y-108528800D03*
X116498300Y-108028800D03*
X119823300Y-112028800D03*
X119823300Y-111528800D03*
X119823300Y-111028800D03*
X119823300Y-110528800D03*
X119823300Y-110028800D03*
X119823300Y-109528800D03*
X119823300Y-109028800D03*
X119823300Y-108528800D03*
X119823300Y-108028800D03*
D23*
X117410800Y-107391300D03*
X117910800Y-107391300D03*
X118410800Y-107391300D03*
D24*
X119823300Y-107528800D03*
D23*
X118910800Y-107391300D03*
D24*
X116498300Y-107528800D03*
D23*
X118910800Y-112166300D03*
D25*
X109695000Y-127310000D03*
X106445000Y-127310000D03*
X109689200Y-124798400D03*
X106439200Y-124798400D03*
G36*
G01*
X128994300Y-93500200D02*
X129339300Y-93500200D01*
G75*
G02*
X129486800Y-93647700I0J-147500D01*
G01*
X129486800Y-93942700D01*
G75*
G02*
X129339300Y-94090200I-147500J0D01*
G01*
X128994300Y-94090200D01*
G75*
G02*
X128846800Y-93942700I0J147500D01*
G01*
X128846800Y-93647700D01*
G75*
G02*
X128994300Y-93500200I147500J0D01*
G01*
G37*
G36*
G01*
X128994300Y-94470200D02*
X129339300Y-94470200D01*
G75*
G02*
X129486800Y-94617700I0J-147500D01*
G01*
X129486800Y-94912700D01*
G75*
G02*
X129339300Y-95060200I-147500J0D01*
G01*
X128994300Y-95060200D01*
G75*
G02*
X128846800Y-94912700I0J147500D01*
G01*
X128846800Y-94617700D01*
G75*
G02*
X128994300Y-94470200I147500J0D01*
G01*
G37*
G36*
G01*
X132266400Y-126795700D02*
X132266400Y-126450700D01*
G75*
G02*
X132413900Y-126303200I147500J0D01*
G01*
X132708900Y-126303200D01*
G75*
G02*
X132856400Y-126450700I0J-147500D01*
G01*
X132856400Y-126795700D01*
G75*
G02*
X132708900Y-126943200I-147500J0D01*
G01*
X132413900Y-126943200D01*
G75*
G02*
X132266400Y-126795700I0J147500D01*
G01*
G37*
G36*
G01*
X133236400Y-126795700D02*
X133236400Y-126450700D01*
G75*
G02*
X133383900Y-126303200I147500J0D01*
G01*
X133678900Y-126303200D01*
G75*
G02*
X133826400Y-126450700I0J-147500D01*
G01*
X133826400Y-126795700D01*
G75*
G02*
X133678900Y-126943200I-147500J0D01*
G01*
X133383900Y-126943200D01*
G75*
G02*
X133236400Y-126795700I0J147500D01*
G01*
G37*
G36*
G01*
X72925000Y-126957500D02*
X72925000Y-127302500D01*
G75*
G02*
X72777500Y-127450000I-147500J0D01*
G01*
X72482500Y-127450000D01*
G75*
G02*
X72335000Y-127302500I0J147500D01*
G01*
X72335000Y-126957500D01*
G75*
G02*
X72482500Y-126810000I147500J0D01*
G01*
X72777500Y-126810000D01*
G75*
G02*
X72925000Y-126957500I0J-147500D01*
G01*
G37*
G36*
G01*
X73895000Y-126957500D02*
X73895000Y-127302500D01*
G75*
G02*
X73747500Y-127450000I-147500J0D01*
G01*
X73452500Y-127450000D01*
G75*
G02*
X73305000Y-127302500I0J147500D01*
G01*
X73305000Y-126957500D01*
G75*
G02*
X73452500Y-126810000I147500J0D01*
G01*
X73747500Y-126810000D01*
G75*
G02*
X73895000Y-126957500I0J-147500D01*
G01*
G37*
G36*
G01*
X72675000Y-90677500D02*
X72675000Y-91022500D01*
G75*
G02*
X72527500Y-91170000I-147500J0D01*
G01*
X72232500Y-91170000D01*
G75*
G02*
X72085000Y-91022500I0J147500D01*
G01*
X72085000Y-90677500D01*
G75*
G02*
X72232500Y-90530000I147500J0D01*
G01*
X72527500Y-90530000D01*
G75*
G02*
X72675000Y-90677500I0J-147500D01*
G01*
G37*
G36*
G01*
X73645000Y-90677500D02*
X73645000Y-91022500D01*
G75*
G02*
X73497500Y-91170000I-147500J0D01*
G01*
X73202500Y-91170000D01*
G75*
G02*
X73055000Y-91022500I0J147500D01*
G01*
X73055000Y-90677500D01*
G75*
G02*
X73202500Y-90530000I147500J0D01*
G01*
X73497500Y-90530000D01*
G75*
G02*
X73645000Y-90677500I0J-147500D01*
G01*
G37*
G36*
G01*
X111670000Y-114197500D02*
X111670000Y-114542500D01*
G75*
G02*
X111522500Y-114690000I-147500J0D01*
G01*
X111227500Y-114690000D01*
G75*
G02*
X111080000Y-114542500I0J147500D01*
G01*
X111080000Y-114197500D01*
G75*
G02*
X111227500Y-114050000I147500J0D01*
G01*
X111522500Y-114050000D01*
G75*
G02*
X111670000Y-114197500I0J-147500D01*
G01*
G37*
G36*
G01*
X112640000Y-114197500D02*
X112640000Y-114542500D01*
G75*
G02*
X112492500Y-114690000I-147500J0D01*
G01*
X112197500Y-114690000D01*
G75*
G02*
X112050000Y-114542500I0J147500D01*
G01*
X112050000Y-114197500D01*
G75*
G02*
X112197500Y-114050000I147500J0D01*
G01*
X112492500Y-114050000D01*
G75*
G02*
X112640000Y-114197500I0J-147500D01*
G01*
G37*
G36*
G01*
X112377500Y-122690000D02*
X112722500Y-122690000D01*
G75*
G02*
X112870000Y-122837500I0J-147500D01*
G01*
X112870000Y-123132500D01*
G75*
G02*
X112722500Y-123280000I-147500J0D01*
G01*
X112377500Y-123280000D01*
G75*
G02*
X112230000Y-123132500I0J147500D01*
G01*
X112230000Y-122837500D01*
G75*
G02*
X112377500Y-122690000I147500J0D01*
G01*
G37*
G36*
G01*
X112377500Y-121720000D02*
X112722500Y-121720000D01*
G75*
G02*
X112870000Y-121867500I0J-147500D01*
G01*
X112870000Y-122162500D01*
G75*
G02*
X112722500Y-122310000I-147500J0D01*
G01*
X112377500Y-122310000D01*
G75*
G02*
X112230000Y-122162500I0J147500D01*
G01*
X112230000Y-121867500D01*
G75*
G02*
X112377500Y-121720000I147500J0D01*
G01*
G37*
G36*
G01*
X110900000Y-122777500D02*
X110900000Y-123122500D01*
G75*
G02*
X110752500Y-123270000I-147500J0D01*
G01*
X110457500Y-123270000D01*
G75*
G02*
X110310000Y-123122500I0J147500D01*
G01*
X110310000Y-122777500D01*
G75*
G02*
X110457500Y-122630000I147500J0D01*
G01*
X110752500Y-122630000D01*
G75*
G02*
X110900000Y-122777500I0J-147500D01*
G01*
G37*
G36*
G01*
X111870000Y-122777500D02*
X111870000Y-123122500D01*
G75*
G02*
X111722500Y-123270000I-147500J0D01*
G01*
X111427500Y-123270000D01*
G75*
G02*
X111280000Y-123122500I0J147500D01*
G01*
X111280000Y-122777500D01*
G75*
G02*
X111427500Y-122630000I147500J0D01*
G01*
X111722500Y-122630000D01*
G75*
G02*
X111870000Y-122777500I0J-147500D01*
G01*
G37*
G36*
G01*
X109592500Y-99725000D02*
X109247500Y-99725000D01*
G75*
G02*
X109100000Y-99577500I0J147500D01*
G01*
X109100000Y-99282500D01*
G75*
G02*
X109247500Y-99135000I147500J0D01*
G01*
X109592500Y-99135000D01*
G75*
G02*
X109740000Y-99282500I0J-147500D01*
G01*
X109740000Y-99577500D01*
G75*
G02*
X109592500Y-99725000I-147500J0D01*
G01*
G37*
G36*
G01*
X109592500Y-100695000D02*
X109247500Y-100695000D01*
G75*
G02*
X109100000Y-100547500I0J147500D01*
G01*
X109100000Y-100252500D01*
G75*
G02*
X109247500Y-100105000I147500J0D01*
G01*
X109592500Y-100105000D01*
G75*
G02*
X109740000Y-100252500I0J-147500D01*
G01*
X109740000Y-100547500D01*
G75*
G02*
X109592500Y-100695000I-147500J0D01*
G01*
G37*
G36*
G01*
X118160000Y-84367500D02*
X118160000Y-84712500D01*
G75*
G02*
X118012500Y-84860000I-147500J0D01*
G01*
X117717500Y-84860000D01*
G75*
G02*
X117570000Y-84712500I0J147500D01*
G01*
X117570000Y-84367500D01*
G75*
G02*
X117717500Y-84220000I147500J0D01*
G01*
X118012500Y-84220000D01*
G75*
G02*
X118160000Y-84367500I0J-147500D01*
G01*
G37*
G36*
G01*
X119130000Y-84367500D02*
X119130000Y-84712500D01*
G75*
G02*
X118982500Y-84860000I-147500J0D01*
G01*
X118687500Y-84860000D01*
G75*
G02*
X118540000Y-84712500I0J147500D01*
G01*
X118540000Y-84367500D01*
G75*
G02*
X118687500Y-84220000I147500J0D01*
G01*
X118982500Y-84220000D01*
G75*
G02*
X119130000Y-84367500I0J-147500D01*
G01*
G37*
G36*
G01*
X160123720Y-102102980D02*
X160468720Y-102102980D01*
G75*
G02*
X160616220Y-102250480I0J-147500D01*
G01*
X160616220Y-102545480D01*
G75*
G02*
X160468720Y-102692980I-147500J0D01*
G01*
X160123720Y-102692980D01*
G75*
G02*
X159976220Y-102545480I0J147500D01*
G01*
X159976220Y-102250480D01*
G75*
G02*
X160123720Y-102102980I147500J0D01*
G01*
G37*
G36*
G01*
X160123720Y-101132980D02*
X160468720Y-101132980D01*
G75*
G02*
X160616220Y-101280480I0J-147500D01*
G01*
X160616220Y-101575480D01*
G75*
G02*
X160468720Y-101722980I-147500J0D01*
G01*
X160123720Y-101722980D01*
G75*
G02*
X159976220Y-101575480I0J147500D01*
G01*
X159976220Y-101280480D01*
G75*
G02*
X160123720Y-101132980I147500J0D01*
G01*
G37*
G36*
G01*
X156010000Y-104177500D02*
X156010000Y-104522500D01*
G75*
G02*
X155862500Y-104670000I-147500J0D01*
G01*
X155567500Y-104670000D01*
G75*
G02*
X155420000Y-104522500I0J147500D01*
G01*
X155420000Y-104177500D01*
G75*
G02*
X155567500Y-104030000I147500J0D01*
G01*
X155862500Y-104030000D01*
G75*
G02*
X156010000Y-104177500I0J-147500D01*
G01*
G37*
G36*
G01*
X156980000Y-104177500D02*
X156980000Y-104522500D01*
G75*
G02*
X156832500Y-104670000I-147500J0D01*
G01*
X156537500Y-104670000D01*
G75*
G02*
X156390000Y-104522500I0J147500D01*
G01*
X156390000Y-104177500D01*
G75*
G02*
X156537500Y-104030000I147500J0D01*
G01*
X156832500Y-104030000D01*
G75*
G02*
X156980000Y-104177500I0J-147500D01*
G01*
G37*
G36*
G01*
X151524720Y-101642660D02*
X151524720Y-101987660D01*
G75*
G02*
X151377220Y-102135160I-147500J0D01*
G01*
X151082220Y-102135160D01*
G75*
G02*
X150934720Y-101987660I0J147500D01*
G01*
X150934720Y-101642660D01*
G75*
G02*
X151082220Y-101495160I147500J0D01*
G01*
X151377220Y-101495160D01*
G75*
G02*
X151524720Y-101642660I0J-147500D01*
G01*
G37*
G36*
G01*
X152494720Y-101642660D02*
X152494720Y-101987660D01*
G75*
G02*
X152347220Y-102135160I-147500J0D01*
G01*
X152052220Y-102135160D01*
G75*
G02*
X151904720Y-101987660I0J147500D01*
G01*
X151904720Y-101642660D01*
G75*
G02*
X152052220Y-101495160I147500J0D01*
G01*
X152347220Y-101495160D01*
G75*
G02*
X152494720Y-101642660I0J-147500D01*
G01*
G37*
G36*
G01*
X152475000Y-104517500D02*
X152475000Y-104862500D01*
G75*
G02*
X152327500Y-105010000I-147500J0D01*
G01*
X152032500Y-105010000D01*
G75*
G02*
X151885000Y-104862500I0J147500D01*
G01*
X151885000Y-104517500D01*
G75*
G02*
X152032500Y-104370000I147500J0D01*
G01*
X152327500Y-104370000D01*
G75*
G02*
X152475000Y-104517500I0J-147500D01*
G01*
G37*
G36*
G01*
X153445000Y-104517500D02*
X153445000Y-104862500D01*
G75*
G02*
X153297500Y-105010000I-147500J0D01*
G01*
X153002500Y-105010000D01*
G75*
G02*
X152855000Y-104862500I0J147500D01*
G01*
X152855000Y-104517500D01*
G75*
G02*
X153002500Y-104370000I147500J0D01*
G01*
X153297500Y-104370000D01*
G75*
G02*
X153445000Y-104517500I0J-147500D01*
G01*
G37*
G36*
G01*
X151503940Y-103537980D02*
X151503940Y-103882980D01*
G75*
G02*
X151356440Y-104030480I-147500J0D01*
G01*
X151061440Y-104030480D01*
G75*
G02*
X150913940Y-103882980I0J147500D01*
G01*
X150913940Y-103537980D01*
G75*
G02*
X151061440Y-103390480I147500J0D01*
G01*
X151356440Y-103390480D01*
G75*
G02*
X151503940Y-103537980I0J-147500D01*
G01*
G37*
G36*
G01*
X152473940Y-103537980D02*
X152473940Y-103882980D01*
G75*
G02*
X152326440Y-104030480I-147500J0D01*
G01*
X152031440Y-104030480D01*
G75*
G02*
X151883940Y-103882980I0J147500D01*
G01*
X151883940Y-103537980D01*
G75*
G02*
X152031440Y-103390480I147500J0D01*
G01*
X152326440Y-103390480D01*
G75*
G02*
X152473940Y-103537980I0J-147500D01*
G01*
G37*
G36*
G01*
X149055000Y-102922500D02*
X149055000Y-102577500D01*
G75*
G02*
X149202500Y-102430000I147500J0D01*
G01*
X149497500Y-102430000D01*
G75*
G02*
X149645000Y-102577500I0J-147500D01*
G01*
X149645000Y-102922500D01*
G75*
G02*
X149497500Y-103070000I-147500J0D01*
G01*
X149202500Y-103070000D01*
G75*
G02*
X149055000Y-102922500I0J147500D01*
G01*
G37*
G36*
G01*
X148085000Y-102922500D02*
X148085000Y-102577500D01*
G75*
G02*
X148232500Y-102430000I147500J0D01*
G01*
X148527500Y-102430000D01*
G75*
G02*
X148675000Y-102577500I0J-147500D01*
G01*
X148675000Y-102922500D01*
G75*
G02*
X148527500Y-103070000I-147500J0D01*
G01*
X148232500Y-103070000D01*
G75*
G02*
X148085000Y-102922500I0J147500D01*
G01*
G37*
G36*
G01*
X150429400Y-102112980D02*
X150084400Y-102112980D01*
G75*
G02*
X149936900Y-101965480I0J147500D01*
G01*
X149936900Y-101670480D01*
G75*
G02*
X150084400Y-101522980I147500J0D01*
G01*
X150429400Y-101522980D01*
G75*
G02*
X150576900Y-101670480I0J-147500D01*
G01*
X150576900Y-101965480D01*
G75*
G02*
X150429400Y-102112980I-147500J0D01*
G01*
G37*
G36*
G01*
X150429400Y-103082980D02*
X150084400Y-103082980D01*
G75*
G02*
X149936900Y-102935480I0J147500D01*
G01*
X149936900Y-102640480D01*
G75*
G02*
X150084400Y-102492980I147500J0D01*
G01*
X150429400Y-102492980D01*
G75*
G02*
X150576900Y-102640480I0J-147500D01*
G01*
X150576900Y-102935480D01*
G75*
G02*
X150429400Y-103082980I-147500J0D01*
G01*
G37*
G36*
G01*
X118445000Y-113472500D02*
X118445000Y-113127500D01*
G75*
G02*
X118592500Y-112980000I147500J0D01*
G01*
X118887500Y-112980000D01*
G75*
G02*
X119035000Y-113127500I0J-147500D01*
G01*
X119035000Y-113472500D01*
G75*
G02*
X118887500Y-113620000I-147500J0D01*
G01*
X118592500Y-113620000D01*
G75*
G02*
X118445000Y-113472500I0J147500D01*
G01*
G37*
G36*
G01*
X117475000Y-113472500D02*
X117475000Y-113127500D01*
G75*
G02*
X117622500Y-112980000I147500J0D01*
G01*
X117917500Y-112980000D01*
G75*
G02*
X118065000Y-113127500I0J-147500D01*
G01*
X118065000Y-113472500D01*
G75*
G02*
X117917500Y-113620000I-147500J0D01*
G01*
X117622500Y-113620000D01*
G75*
G02*
X117475000Y-113472500I0J147500D01*
G01*
G37*
G36*
G01*
X142874180Y-109058740D02*
X142874180Y-108713740D01*
G75*
G02*
X143021680Y-108566240I147500J0D01*
G01*
X143316680Y-108566240D01*
G75*
G02*
X143464180Y-108713740I0J-147500D01*
G01*
X143464180Y-109058740D01*
G75*
G02*
X143316680Y-109206240I-147500J0D01*
G01*
X143021680Y-109206240D01*
G75*
G02*
X142874180Y-109058740I0J147500D01*
G01*
G37*
G36*
G01*
X141904180Y-109058740D02*
X141904180Y-108713740D01*
G75*
G02*
X142051680Y-108566240I147500J0D01*
G01*
X142346680Y-108566240D01*
G75*
G02*
X142494180Y-108713740I0J-147500D01*
G01*
X142494180Y-109058740D01*
G75*
G02*
X142346680Y-109206240I-147500J0D01*
G01*
X142051680Y-109206240D01*
G75*
G02*
X141904180Y-109058740I0J147500D01*
G01*
G37*
G36*
G01*
X142027500Y-107675000D02*
X142372500Y-107675000D01*
G75*
G02*
X142520000Y-107822500I0J-147500D01*
G01*
X142520000Y-108117500D01*
G75*
G02*
X142372500Y-108265000I-147500J0D01*
G01*
X142027500Y-108265000D01*
G75*
G02*
X141880000Y-108117500I0J147500D01*
G01*
X141880000Y-107822500D01*
G75*
G02*
X142027500Y-107675000I147500J0D01*
G01*
G37*
G36*
G01*
X142027500Y-106705000D02*
X142372500Y-106705000D01*
G75*
G02*
X142520000Y-106852500I0J-147500D01*
G01*
X142520000Y-107147500D01*
G75*
G02*
X142372500Y-107295000I-147500J0D01*
G01*
X142027500Y-107295000D01*
G75*
G02*
X141880000Y-107147500I0J147500D01*
G01*
X141880000Y-106852500D01*
G75*
G02*
X142027500Y-106705000I147500J0D01*
G01*
G37*
G36*
G01*
X142971420Y-107679240D02*
X143316420Y-107679240D01*
G75*
G02*
X143463920Y-107826740I0J-147500D01*
G01*
X143463920Y-108121740D01*
G75*
G02*
X143316420Y-108269240I-147500J0D01*
G01*
X142971420Y-108269240D01*
G75*
G02*
X142823920Y-108121740I0J147500D01*
G01*
X142823920Y-107826740D01*
G75*
G02*
X142971420Y-107679240I147500J0D01*
G01*
G37*
G36*
G01*
X142971420Y-106709240D02*
X143316420Y-106709240D01*
G75*
G02*
X143463920Y-106856740I0J-147500D01*
G01*
X143463920Y-107151740D01*
G75*
G02*
X143316420Y-107299240I-147500J0D01*
G01*
X142971420Y-107299240D01*
G75*
G02*
X142823920Y-107151740I0J147500D01*
G01*
X142823920Y-106856740D01*
G75*
G02*
X142971420Y-106709240I147500J0D01*
G01*
G37*
G36*
G01*
X88195000Y-94027500D02*
X88195000Y-94372500D01*
G75*
G02*
X88047500Y-94520000I-147500J0D01*
G01*
X87752500Y-94520000D01*
G75*
G02*
X87605000Y-94372500I0J147500D01*
G01*
X87605000Y-94027500D01*
G75*
G02*
X87752500Y-93880000I147500J0D01*
G01*
X88047500Y-93880000D01*
G75*
G02*
X88195000Y-94027500I0J-147500D01*
G01*
G37*
G36*
G01*
X89165000Y-94027500D02*
X89165000Y-94372500D01*
G75*
G02*
X89017500Y-94520000I-147500J0D01*
G01*
X88722500Y-94520000D01*
G75*
G02*
X88575000Y-94372500I0J147500D01*
G01*
X88575000Y-94027500D01*
G75*
G02*
X88722500Y-93880000I147500J0D01*
G01*
X89017500Y-93880000D01*
G75*
G02*
X89165000Y-94027500I0J-147500D01*
G01*
G37*
G36*
G01*
X164612500Y-95725000D02*
X164267500Y-95725000D01*
G75*
G02*
X164120000Y-95577500I0J147500D01*
G01*
X164120000Y-95282500D01*
G75*
G02*
X164267500Y-95135000I147500J0D01*
G01*
X164612500Y-95135000D01*
G75*
G02*
X164760000Y-95282500I0J-147500D01*
G01*
X164760000Y-95577500D01*
G75*
G02*
X164612500Y-95725000I-147500J0D01*
G01*
G37*
G36*
G01*
X164612500Y-94755000D02*
X164267500Y-94755000D01*
G75*
G02*
X164120000Y-94607500I0J147500D01*
G01*
X164120000Y-94312500D01*
G75*
G02*
X164267500Y-94165000I147500J0D01*
G01*
X164612500Y-94165000D01*
G75*
G02*
X164760000Y-94312500I0J-147500D01*
G01*
X164760000Y-94607500D01*
G75*
G02*
X164612500Y-94755000I-147500J0D01*
G01*
G37*
G36*
G01*
X88707500Y-111230000D02*
X89052500Y-111230000D01*
G75*
G02*
X89200000Y-111377500I0J-147500D01*
G01*
X89200000Y-111672500D01*
G75*
G02*
X89052500Y-111820000I-147500J0D01*
G01*
X88707500Y-111820000D01*
G75*
G02*
X88560000Y-111672500I0J147500D01*
G01*
X88560000Y-111377500D01*
G75*
G02*
X88707500Y-111230000I147500J0D01*
G01*
G37*
G36*
G01*
X88707500Y-110260000D02*
X89052500Y-110260000D01*
G75*
G02*
X89200000Y-110407500I0J-147500D01*
G01*
X89200000Y-110702500D01*
G75*
G02*
X89052500Y-110850000I-147500J0D01*
G01*
X88707500Y-110850000D01*
G75*
G02*
X88560000Y-110702500I0J147500D01*
G01*
X88560000Y-110407500D01*
G75*
G02*
X88707500Y-110260000I147500J0D01*
G01*
G37*
G36*
G01*
X89032500Y-113695000D02*
X88687500Y-113695000D01*
G75*
G02*
X88540000Y-113547500I0J147500D01*
G01*
X88540000Y-113252500D01*
G75*
G02*
X88687500Y-113105000I147500J0D01*
G01*
X89032500Y-113105000D01*
G75*
G02*
X89180000Y-113252500I0J-147500D01*
G01*
X89180000Y-113547500D01*
G75*
G02*
X89032500Y-113695000I-147500J0D01*
G01*
G37*
G36*
G01*
X89032500Y-114665000D02*
X88687500Y-114665000D01*
G75*
G02*
X88540000Y-114517500I0J147500D01*
G01*
X88540000Y-114222500D01*
G75*
G02*
X88687500Y-114075000I147500J0D01*
G01*
X89032500Y-114075000D01*
G75*
G02*
X89180000Y-114222500I0J-147500D01*
G01*
X89180000Y-114517500D01*
G75*
G02*
X89032500Y-114665000I-147500J0D01*
G01*
G37*
G36*
G01*
X88637500Y-116305000D02*
X88982500Y-116305000D01*
G75*
G02*
X89130000Y-116452500I0J-147500D01*
G01*
X89130000Y-116747500D01*
G75*
G02*
X88982500Y-116895000I-147500J0D01*
G01*
X88637500Y-116895000D01*
G75*
G02*
X88490000Y-116747500I0J147500D01*
G01*
X88490000Y-116452500D01*
G75*
G02*
X88637500Y-116305000I147500J0D01*
G01*
G37*
G36*
G01*
X88637500Y-115335000D02*
X88982500Y-115335000D01*
G75*
G02*
X89130000Y-115482500I0J-147500D01*
G01*
X89130000Y-115777500D01*
G75*
G02*
X88982500Y-115925000I-147500J0D01*
G01*
X88637500Y-115925000D01*
G75*
G02*
X88490000Y-115777500I0J147500D01*
G01*
X88490000Y-115482500D01*
G75*
G02*
X88637500Y-115335000I147500J0D01*
G01*
G37*
D26*
X112330000Y-126030000D03*
X111030000Y-126030000D03*
X111680000Y-124130000D03*
X111680000Y-126030000D03*
X111030000Y-124130000D03*
X112330000Y-124130000D03*
D27*
X152400000Y-97090000D03*
X152400000Y-97730000D03*
X152400000Y-98390000D03*
X152400000Y-99030000D03*
X155280000Y-99030000D03*
X155280000Y-98390000D03*
X155280000Y-97730000D03*
X155280000Y-97090000D03*
D28*
X154700000Y-98670000D03*
X154700000Y-97450000D03*
X153750000Y-98670000D03*
X153750000Y-97450000D03*
D27*
X156410000Y-97080000D03*
X156410000Y-97720000D03*
X156410000Y-98380000D03*
X156410000Y-99020000D03*
X159290000Y-99020000D03*
X159290000Y-98380000D03*
X159290000Y-97720000D03*
X159290000Y-97080000D03*
D28*
X158710000Y-98660000D03*
X158710000Y-97440000D03*
X157760000Y-98660000D03*
X157760000Y-97440000D03*
D29*
X156450000Y-89100000D03*
X145350000Y-89100000D03*
G36*
G01*
X149106250Y-109387500D02*
X148193750Y-109387500D01*
G75*
G02*
X147950000Y-109143750I0J243750D01*
G01*
X147950000Y-108656250D01*
G75*
G02*
X148193750Y-108412500I243750J0D01*
G01*
X149106250Y-108412500D01*
G75*
G02*
X149350000Y-108656250I0J-243750D01*
G01*
X149350000Y-109143750D01*
G75*
G02*
X149106250Y-109387500I-243750J0D01*
G01*
G37*
G36*
G01*
X149106250Y-111262500D02*
X148193750Y-111262500D01*
G75*
G02*
X147950000Y-111018750I0J243750D01*
G01*
X147950000Y-110531250D01*
G75*
G02*
X148193750Y-110287500I243750J0D01*
G01*
X149106250Y-110287500D01*
G75*
G02*
X149350000Y-110531250I0J-243750D01*
G01*
X149350000Y-111018750D01*
G75*
G02*
X149106250Y-111262500I-243750J0D01*
G01*
G37*
D30*
X112650000Y-130525000D03*
X119050000Y-130525000D03*
X113450000Y-130525000D03*
X118250000Y-130525000D03*
D31*
X115600000Y-130525000D03*
X115100000Y-130525000D03*
X114600000Y-130525000D03*
X114100000Y-130525000D03*
X117600000Y-130525000D03*
X116100000Y-130525000D03*
X116600000Y-130525000D03*
X117100000Y-130525000D03*
G36*
G01*
X156110000Y-102835000D02*
X156110000Y-102265000D01*
G75*
G02*
X156230000Y-102145000I120000J0D01*
G01*
X156470000Y-102145000D01*
G75*
G02*
X156590000Y-102265000I0J-120000D01*
G01*
X156590000Y-102835000D01*
G75*
G02*
X156470000Y-102955000I-120000J0D01*
G01*
X156230000Y-102955000D01*
G75*
G02*
X156110000Y-102835000I0J120000D01*
G01*
G37*
G36*
G01*
X156110000Y-101835000D02*
X156110000Y-101265000D01*
G75*
G02*
X156230000Y-101145000I120000J0D01*
G01*
X156470000Y-101145000D01*
G75*
G02*
X156590000Y-101265000I0J-120000D01*
G01*
X156590000Y-101835000D01*
G75*
G02*
X156470000Y-101955000I-120000J0D01*
G01*
X156230000Y-101955000D01*
G75*
G02*
X156110000Y-101835000I0J120000D01*
G01*
G37*
G36*
G01*
X155510000Y-102835000D02*
X155510000Y-102265000D01*
G75*
G02*
X155630000Y-102145000I120000J0D01*
G01*
X155870000Y-102145000D01*
G75*
G02*
X155990000Y-102265000I0J-120000D01*
G01*
X155990000Y-102835000D01*
G75*
G02*
X155870000Y-102955000I-120000J0D01*
G01*
X155630000Y-102955000D01*
G75*
G02*
X155510000Y-102835000I0J120000D01*
G01*
G37*
G36*
G01*
X155510000Y-101835000D02*
X155510000Y-101265000D01*
G75*
G02*
X155630000Y-101145000I120000J0D01*
G01*
X155870000Y-101145000D01*
G75*
G02*
X155990000Y-101265000I0J-120000D01*
G01*
X155990000Y-101835000D01*
G75*
G02*
X155870000Y-101955000I-120000J0D01*
G01*
X155630000Y-101955000D01*
G75*
G02*
X155510000Y-101835000I0J120000D01*
G01*
G37*
G36*
G01*
X157050000Y-101112500D02*
X157050000Y-100987500D01*
G75*
G02*
X157112500Y-100925000I62500J0D01*
G01*
X157862500Y-100925000D01*
G75*
G02*
X157925000Y-100987500I0J-62500D01*
G01*
X157925000Y-101112500D01*
G75*
G02*
X157862500Y-101175000I-62500J0D01*
G01*
X157112500Y-101175000D01*
G75*
G02*
X157050000Y-101112500I0J62500D01*
G01*
G37*
G36*
G01*
X157050000Y-101612500D02*
X157050000Y-101487500D01*
G75*
G02*
X157112500Y-101425000I62500J0D01*
G01*
X157862500Y-101425000D01*
G75*
G02*
X157925000Y-101487500I0J-62500D01*
G01*
X157925000Y-101612500D01*
G75*
G02*
X157862500Y-101675000I-62500J0D01*
G01*
X157112500Y-101675000D01*
G75*
G02*
X157050000Y-101612500I0J62500D01*
G01*
G37*
G36*
G01*
X157050000Y-102112500D02*
X157050000Y-101987500D01*
G75*
G02*
X157112500Y-101925000I62500J0D01*
G01*
X157862500Y-101925000D01*
G75*
G02*
X157925000Y-101987500I0J-62500D01*
G01*
X157925000Y-102112500D01*
G75*
G02*
X157862500Y-102175000I-62500J0D01*
G01*
X157112500Y-102175000D01*
G75*
G02*
X157050000Y-102112500I0J62500D01*
G01*
G37*
G36*
G01*
X157050000Y-102612500D02*
X157050000Y-102487500D01*
G75*
G02*
X157112500Y-102425000I62500J0D01*
G01*
X157862500Y-102425000D01*
G75*
G02*
X157925000Y-102487500I0J-62500D01*
G01*
X157925000Y-102612500D01*
G75*
G02*
X157862500Y-102675000I-62500J0D01*
G01*
X157112500Y-102675000D01*
G75*
G02*
X157050000Y-102612500I0J62500D01*
G01*
G37*
G36*
G01*
X157050000Y-103112500D02*
X157050000Y-102987500D01*
G75*
G02*
X157112500Y-102925000I62500J0D01*
G01*
X157862500Y-102925000D01*
G75*
G02*
X157925000Y-102987500I0J-62500D01*
G01*
X157925000Y-103112500D01*
G75*
G02*
X157862500Y-103175000I-62500J0D01*
G01*
X157112500Y-103175000D01*
G75*
G02*
X157050000Y-103112500I0J62500D01*
G01*
G37*
G36*
G01*
X154175000Y-103112500D02*
X154175000Y-102987500D01*
G75*
G02*
X154237500Y-102925000I62500J0D01*
G01*
X154987500Y-102925000D01*
G75*
G02*
X155050000Y-102987500I0J-62500D01*
G01*
X155050000Y-103112500D01*
G75*
G02*
X154987500Y-103175000I-62500J0D01*
G01*
X154237500Y-103175000D01*
G75*
G02*
X154175000Y-103112500I0J62500D01*
G01*
G37*
G36*
G01*
X154175000Y-102612500D02*
X154175000Y-102487500D01*
G75*
G02*
X154237500Y-102425000I62500J0D01*
G01*
X154987500Y-102425000D01*
G75*
G02*
X155050000Y-102487500I0J-62500D01*
G01*
X155050000Y-102612500D01*
G75*
G02*
X154987500Y-102675000I-62500J0D01*
G01*
X154237500Y-102675000D01*
G75*
G02*
X154175000Y-102612500I0J62500D01*
G01*
G37*
G36*
G01*
X154175000Y-102112500D02*
X154175000Y-101987500D01*
G75*
G02*
X154237500Y-101925000I62500J0D01*
G01*
X154987500Y-101925000D01*
G75*
G02*
X155050000Y-101987500I0J-62500D01*
G01*
X155050000Y-102112500D01*
G75*
G02*
X154987500Y-102175000I-62500J0D01*
G01*
X154237500Y-102175000D01*
G75*
G02*
X154175000Y-102112500I0J62500D01*
G01*
G37*
G36*
G01*
X154175000Y-101612500D02*
X154175000Y-101487500D01*
G75*
G02*
X154237500Y-101425000I62500J0D01*
G01*
X154987500Y-101425000D01*
G75*
G02*
X155050000Y-101487500I0J-62500D01*
G01*
X155050000Y-101612500D01*
G75*
G02*
X154987500Y-101675000I-62500J0D01*
G01*
X154237500Y-101675000D01*
G75*
G02*
X154175000Y-101612500I0J62500D01*
G01*
G37*
G36*
G01*
X154175000Y-101112500D02*
X154175000Y-100987500D01*
G75*
G02*
X154237500Y-100925000I62500J0D01*
G01*
X154987500Y-100925000D01*
G75*
G02*
X155050000Y-100987500I0J-62500D01*
G01*
X155050000Y-101112500D01*
G75*
G02*
X154987500Y-101175000I-62500J0D01*
G01*
X154237500Y-101175000D01*
G75*
G02*
X154175000Y-101112500I0J62500D01*
G01*
G37*
D18*
X144480000Y-108920000D03*
X144480000Y-109870000D03*
X144480000Y-107970000D03*
X146680000Y-107970000D03*
X146680000Y-108920000D03*
X146680000Y-109870000D03*
D16*
X132815000Y-94000000D03*
X139185000Y-94000000D03*
X132480000Y-123350000D03*
X138850000Y-123350000D03*
X78892400Y-123932400D03*
X72522400Y-123932400D03*
X78816200Y-94316000D03*
X72446200Y-94316000D03*
G36*
G01*
X127640550Y-92752900D02*
X128153050Y-92752900D01*
G75*
G02*
X128371800Y-92971650I0J-218750D01*
G01*
X128371800Y-93409150D01*
G75*
G02*
X128153050Y-93627900I-218750J0D01*
G01*
X127640550Y-93627900D01*
G75*
G02*
X127421800Y-93409150I0J218750D01*
G01*
X127421800Y-92971650D01*
G75*
G02*
X127640550Y-92752900I218750J0D01*
G01*
G37*
G36*
G01*
X127640550Y-94327900D02*
X128153050Y-94327900D01*
G75*
G02*
X128371800Y-94546650I0J-218750D01*
G01*
X128371800Y-94984150D01*
G75*
G02*
X128153050Y-95202900I-218750J0D01*
G01*
X127640550Y-95202900D01*
G75*
G02*
X127421800Y-94984150I0J218750D01*
G01*
X127421800Y-94546650D01*
G75*
G02*
X127640550Y-94327900I218750J0D01*
G01*
G37*
G36*
G01*
X131489000Y-128134650D02*
X131489000Y-127622150D01*
G75*
G02*
X131707750Y-127403400I218750J0D01*
G01*
X132145250Y-127403400D01*
G75*
G02*
X132364000Y-127622150I0J-218750D01*
G01*
X132364000Y-128134650D01*
G75*
G02*
X132145250Y-128353400I-218750J0D01*
G01*
X131707750Y-128353400D01*
G75*
G02*
X131489000Y-128134650I0J218750D01*
G01*
G37*
G36*
G01*
X133064000Y-128134650D02*
X133064000Y-127622150D01*
G75*
G02*
X133282750Y-127403400I218750J0D01*
G01*
X133720250Y-127403400D01*
G75*
G02*
X133939000Y-127622150I0J-218750D01*
G01*
X133939000Y-128134650D01*
G75*
G02*
X133720250Y-128353400I-218750J0D01*
G01*
X133282750Y-128353400D01*
G75*
G02*
X133064000Y-128134650I0J218750D01*
G01*
G37*
G36*
G01*
X70990000Y-127646250D02*
X70990000Y-127133750D01*
G75*
G02*
X71208750Y-126915000I218750J0D01*
G01*
X71646250Y-126915000D01*
G75*
G02*
X71865000Y-127133750I0J-218750D01*
G01*
X71865000Y-127646250D01*
G75*
G02*
X71646250Y-127865000I-218750J0D01*
G01*
X71208750Y-127865000D01*
G75*
G02*
X70990000Y-127646250I0J218750D01*
G01*
G37*
G36*
G01*
X69415000Y-127646250D02*
X69415000Y-127133750D01*
G75*
G02*
X69633750Y-126915000I218750J0D01*
G01*
X70071250Y-126915000D01*
G75*
G02*
X70290000Y-127133750I0J-218750D01*
G01*
X70290000Y-127646250D01*
G75*
G02*
X70071250Y-127865000I-218750J0D01*
G01*
X69633750Y-127865000D01*
G75*
G02*
X69415000Y-127646250I0J218750D01*
G01*
G37*
G36*
G01*
X70750000Y-91106250D02*
X70750000Y-90593750D01*
G75*
G02*
X70968750Y-90375000I218750J0D01*
G01*
X71406250Y-90375000D01*
G75*
G02*
X71625000Y-90593750I0J-218750D01*
G01*
X71625000Y-91106250D01*
G75*
G02*
X71406250Y-91325000I-218750J0D01*
G01*
X70968750Y-91325000D01*
G75*
G02*
X70750000Y-91106250I0J218750D01*
G01*
G37*
G36*
G01*
X69175000Y-91106250D02*
X69175000Y-90593750D01*
G75*
G02*
X69393750Y-90375000I218750J0D01*
G01*
X69831250Y-90375000D01*
G75*
G02*
X70050000Y-90593750I0J-218750D01*
G01*
X70050000Y-91106250D01*
G75*
G02*
X69831250Y-91325000I-218750J0D01*
G01*
X69393750Y-91325000D01*
G75*
G02*
X69175000Y-91106250I0J218750D01*
G01*
G37*
D32*
X115251600Y-128807600D03*
X113851600Y-128807600D03*
X116402800Y-128807600D03*
X117802800Y-128807600D03*
G36*
G01*
X118220000Y-82993750D02*
X118220000Y-83506250D01*
G75*
G02*
X118001250Y-83725000I-218750J0D01*
G01*
X117563750Y-83725000D01*
G75*
G02*
X117345000Y-83506250I0J218750D01*
G01*
X117345000Y-82993750D01*
G75*
G02*
X117563750Y-82775000I218750J0D01*
G01*
X118001250Y-82775000D01*
G75*
G02*
X118220000Y-82993750I0J-218750D01*
G01*
G37*
G36*
G01*
X119795000Y-82993750D02*
X119795000Y-83506250D01*
G75*
G02*
X119576250Y-83725000I-218750J0D01*
G01*
X119138750Y-83725000D01*
G75*
G02*
X118920000Y-83506250I0J218750D01*
G01*
X118920000Y-82993750D01*
G75*
G02*
X119138750Y-82775000I218750J0D01*
G01*
X119576250Y-82775000D01*
G75*
G02*
X119795000Y-82993750I0J-218750D01*
G01*
G37*
G36*
G01*
X86866250Y-94682500D02*
X86353750Y-94682500D01*
G75*
G02*
X86135000Y-94463750I0J218750D01*
G01*
X86135000Y-94026250D01*
G75*
G02*
X86353750Y-93807500I218750J0D01*
G01*
X86866250Y-93807500D01*
G75*
G02*
X87085000Y-94026250I0J-218750D01*
G01*
X87085000Y-94463750D01*
G75*
G02*
X86866250Y-94682500I-218750J0D01*
G01*
G37*
G36*
G01*
X86866250Y-96257500D02*
X86353750Y-96257500D01*
G75*
G02*
X86135000Y-96038750I0J218750D01*
G01*
X86135000Y-95601250D01*
G75*
G02*
X86353750Y-95382500I218750J0D01*
G01*
X86866250Y-95382500D01*
G75*
G02*
X87085000Y-95601250I0J-218750D01*
G01*
X87085000Y-96038750D01*
G75*
G02*
X86866250Y-96257500I-218750J0D01*
G01*
G37*
G36*
G01*
X164473750Y-91292500D02*
X164986250Y-91292500D01*
G75*
G02*
X165205000Y-91511250I0J-218750D01*
G01*
X165205000Y-91948750D01*
G75*
G02*
X164986250Y-92167500I-218750J0D01*
G01*
X164473750Y-92167500D01*
G75*
G02*
X164255000Y-91948750I0J218750D01*
G01*
X164255000Y-91511250D01*
G75*
G02*
X164473750Y-91292500I218750J0D01*
G01*
G37*
G36*
G01*
X164473750Y-92867500D02*
X164986250Y-92867500D01*
G75*
G02*
X165205000Y-93086250I0J-218750D01*
G01*
X165205000Y-93523750D01*
G75*
G02*
X164986250Y-93742500I-218750J0D01*
G01*
X164473750Y-93742500D01*
G75*
G02*
X164255000Y-93523750I0J218750D01*
G01*
X164255000Y-93086250D01*
G75*
G02*
X164473750Y-92867500I218750J0D01*
G01*
G37*
G36*
G01*
X87323750Y-116162500D02*
X87836250Y-116162500D01*
G75*
G02*
X88055000Y-116381250I0J-218750D01*
G01*
X88055000Y-116818750D01*
G75*
G02*
X87836250Y-117037500I-218750J0D01*
G01*
X87323750Y-117037500D01*
G75*
G02*
X87105000Y-116818750I0J218750D01*
G01*
X87105000Y-116381250D01*
G75*
G02*
X87323750Y-116162500I218750J0D01*
G01*
G37*
G36*
G01*
X87323750Y-114587500D02*
X87836250Y-114587500D01*
G75*
G02*
X88055000Y-114806250I0J-218750D01*
G01*
X88055000Y-115243750D01*
G75*
G02*
X87836250Y-115462500I-218750J0D01*
G01*
X87323750Y-115462500D01*
G75*
G02*
X87105000Y-115243750I0J218750D01*
G01*
X87105000Y-114806250D01*
G75*
G02*
X87323750Y-114587500I218750J0D01*
G01*
G37*
G36*
G01*
X143102500Y-86375000D02*
X142757500Y-86375000D01*
G75*
G02*
X142610000Y-86227500I0J147500D01*
G01*
X142610000Y-85932500D01*
G75*
G02*
X142757500Y-85785000I147500J0D01*
G01*
X143102500Y-85785000D01*
G75*
G02*
X143250000Y-85932500I0J-147500D01*
G01*
X143250000Y-86227500D01*
G75*
G02*
X143102500Y-86375000I-147500J0D01*
G01*
G37*
G36*
G01*
X143102500Y-87345000D02*
X142757500Y-87345000D01*
G75*
G02*
X142610000Y-87197500I0J147500D01*
G01*
X142610000Y-86902500D01*
G75*
G02*
X142757500Y-86755000I147500J0D01*
G01*
X143102500Y-86755000D01*
G75*
G02*
X143250000Y-86902500I0J-147500D01*
G01*
X143250000Y-87197500D01*
G75*
G02*
X143102500Y-87345000I-147500J0D01*
G01*
G37*
G36*
G01*
X151725000Y-109425000D02*
X152975000Y-109425000D01*
G75*
G02*
X153225000Y-109675000I0J-250000D01*
G01*
X153225000Y-110425000D01*
G75*
G02*
X152975000Y-110675000I-250000J0D01*
G01*
X151725000Y-110675000D01*
G75*
G02*
X151475000Y-110425000I0J250000D01*
G01*
X151475000Y-109675000D01*
G75*
G02*
X151725000Y-109425000I250000J0D01*
G01*
G37*
G36*
G01*
X151725000Y-112225000D02*
X152975000Y-112225000D01*
G75*
G02*
X153225000Y-112475000I0J-250000D01*
G01*
X153225000Y-113225000D01*
G75*
G02*
X152975000Y-113475000I-250000J0D01*
G01*
X151725000Y-113475000D01*
G75*
G02*
X151475000Y-113225000I0J250000D01*
G01*
X151475000Y-112475000D01*
G75*
G02*
X151725000Y-112225000I250000J0D01*
G01*
G37*
G36*
G01*
X158466940Y-112230780D02*
X159716940Y-112230780D01*
G75*
G02*
X159966940Y-112480780I0J-250000D01*
G01*
X159966940Y-113230780D01*
G75*
G02*
X159716940Y-113480780I-250000J0D01*
G01*
X158466940Y-113480780D01*
G75*
G02*
X158216940Y-113230780I0J250000D01*
G01*
X158216940Y-112480780D01*
G75*
G02*
X158466940Y-112230780I250000J0D01*
G01*
G37*
G36*
G01*
X158466940Y-109430780D02*
X159716940Y-109430780D01*
G75*
G02*
X159966940Y-109680780I0J-250000D01*
G01*
X159966940Y-110430780D01*
G75*
G02*
X159716940Y-110680780I-250000J0D01*
G01*
X158466940Y-110680780D01*
G75*
G02*
X158216940Y-110430780I0J250000D01*
G01*
X158216940Y-109680780D01*
G75*
G02*
X158466940Y-109430780I250000J0D01*
G01*
G37*
G36*
G01*
X109632500Y-113715000D02*
X109287500Y-113715000D01*
G75*
G02*
X109140000Y-113567500I0J147500D01*
G01*
X109140000Y-113272500D01*
G75*
G02*
X109287500Y-113125000I147500J0D01*
G01*
X109632500Y-113125000D01*
G75*
G02*
X109780000Y-113272500I0J-147500D01*
G01*
X109780000Y-113567500D01*
G75*
G02*
X109632500Y-113715000I-147500J0D01*
G01*
G37*
G36*
G01*
X109632500Y-114685000D02*
X109287500Y-114685000D01*
G75*
G02*
X109140000Y-114537500I0J147500D01*
G01*
X109140000Y-114242500D01*
G75*
G02*
X109287500Y-114095000I147500J0D01*
G01*
X109632500Y-114095000D01*
G75*
G02*
X109780000Y-114242500I0J-147500D01*
G01*
X109780000Y-114537500D01*
G75*
G02*
X109632500Y-114685000I-147500J0D01*
G01*
G37*
G36*
G01*
X110572500Y-113715000D02*
X110227500Y-113715000D01*
G75*
G02*
X110080000Y-113567500I0J147500D01*
G01*
X110080000Y-113272500D01*
G75*
G02*
X110227500Y-113125000I147500J0D01*
G01*
X110572500Y-113125000D01*
G75*
G02*
X110720000Y-113272500I0J-147500D01*
G01*
X110720000Y-113567500D01*
G75*
G02*
X110572500Y-113715000I-147500J0D01*
G01*
G37*
G36*
G01*
X110572500Y-114685000D02*
X110227500Y-114685000D01*
G75*
G02*
X110080000Y-114537500I0J147500D01*
G01*
X110080000Y-114242500D01*
G75*
G02*
X110227500Y-114095000I147500J0D01*
G01*
X110572500Y-114095000D01*
G75*
G02*
X110720000Y-114242500I0J-147500D01*
G01*
X110720000Y-114537500D01*
G75*
G02*
X110572500Y-114685000I-147500J0D01*
G01*
G37*
G36*
G01*
X119090000Y-125577500D02*
X119090000Y-125922500D01*
G75*
G02*
X118942500Y-126070000I-147500J0D01*
G01*
X118647500Y-126070000D01*
G75*
G02*
X118500000Y-125922500I0J147500D01*
G01*
X118500000Y-125577500D01*
G75*
G02*
X118647500Y-125430000I147500J0D01*
G01*
X118942500Y-125430000D01*
G75*
G02*
X119090000Y-125577500I0J-147500D01*
G01*
G37*
G36*
G01*
X120060000Y-125577500D02*
X120060000Y-125922500D01*
G75*
G02*
X119912500Y-126070000I-147500J0D01*
G01*
X119617500Y-126070000D01*
G75*
G02*
X119470000Y-125922500I0J147500D01*
G01*
X119470000Y-125577500D01*
G75*
G02*
X119617500Y-125430000I147500J0D01*
G01*
X119912500Y-125430000D01*
G75*
G02*
X120060000Y-125577500I0J-147500D01*
G01*
G37*
G36*
G01*
X119470000Y-126862500D02*
X119470000Y-126517500D01*
G75*
G02*
X119617500Y-126370000I147500J0D01*
G01*
X119912500Y-126370000D01*
G75*
G02*
X120060000Y-126517500I0J-147500D01*
G01*
X120060000Y-126862500D01*
G75*
G02*
X119912500Y-127010000I-147500J0D01*
G01*
X119617500Y-127010000D01*
G75*
G02*
X119470000Y-126862500I0J147500D01*
G01*
G37*
G36*
G01*
X118500000Y-126862500D02*
X118500000Y-126517500D01*
G75*
G02*
X118647500Y-126370000I147500J0D01*
G01*
X118942500Y-126370000D01*
G75*
G02*
X119090000Y-126517500I0J-147500D01*
G01*
X119090000Y-126862500D01*
G75*
G02*
X118942500Y-127010000I-147500J0D01*
G01*
X118647500Y-127010000D01*
G75*
G02*
X118500000Y-126862500I0J147500D01*
G01*
G37*
G36*
G01*
X119460000Y-124972500D02*
X119460000Y-124627500D01*
G75*
G02*
X119607500Y-124480000I147500J0D01*
G01*
X119902500Y-124480000D01*
G75*
G02*
X120050000Y-124627500I0J-147500D01*
G01*
X120050000Y-124972500D01*
G75*
G02*
X119902500Y-125120000I-147500J0D01*
G01*
X119607500Y-125120000D01*
G75*
G02*
X119460000Y-124972500I0J147500D01*
G01*
G37*
G36*
G01*
X118490000Y-124972500D02*
X118490000Y-124627500D01*
G75*
G02*
X118637500Y-124480000I147500J0D01*
G01*
X118932500Y-124480000D01*
G75*
G02*
X119080000Y-124627500I0J-147500D01*
G01*
X119080000Y-124972500D01*
G75*
G02*
X118932500Y-125120000I-147500J0D01*
G01*
X118637500Y-125120000D01*
G75*
G02*
X118490000Y-124972500I0J147500D01*
G01*
G37*
G36*
G01*
X111287500Y-116635000D02*
X111632500Y-116635000D01*
G75*
G02*
X111780000Y-116782500I0J-147500D01*
G01*
X111780000Y-117077500D01*
G75*
G02*
X111632500Y-117225000I-147500J0D01*
G01*
X111287500Y-117225000D01*
G75*
G02*
X111140000Y-117077500I0J147500D01*
G01*
X111140000Y-116782500D01*
G75*
G02*
X111287500Y-116635000I147500J0D01*
G01*
G37*
G36*
G01*
X111287500Y-115665000D02*
X111632500Y-115665000D01*
G75*
G02*
X111780000Y-115812500I0J-147500D01*
G01*
X111780000Y-116107500D01*
G75*
G02*
X111632500Y-116255000I-147500J0D01*
G01*
X111287500Y-116255000D01*
G75*
G02*
X111140000Y-116107500I0J147500D01*
G01*
X111140000Y-115812500D01*
G75*
G02*
X111287500Y-115665000I147500J0D01*
G01*
G37*
G36*
G01*
X109523750Y-117247500D02*
X110436250Y-117247500D01*
G75*
G02*
X110680000Y-117491250I0J-243750D01*
G01*
X110680000Y-117978750D01*
G75*
G02*
X110436250Y-118222500I-243750J0D01*
G01*
X109523750Y-118222500D01*
G75*
G02*
X109280000Y-117978750I0J243750D01*
G01*
X109280000Y-117491250D01*
G75*
G02*
X109523750Y-117247500I243750J0D01*
G01*
G37*
G36*
G01*
X109523750Y-115372500D02*
X110436250Y-115372500D01*
G75*
G02*
X110680000Y-115616250I0J-243750D01*
G01*
X110680000Y-116103750D01*
G75*
G02*
X110436250Y-116347500I-243750J0D01*
G01*
X109523750Y-116347500D01*
G75*
G02*
X109280000Y-116103750I0J243750D01*
G01*
X109280000Y-115616250D01*
G75*
G02*
X109523750Y-115372500I243750J0D01*
G01*
G37*
G36*
G01*
X141845000Y-85695000D02*
X139695000Y-85695000D01*
G75*
G02*
X139445000Y-85445000I0J250000D01*
G01*
X139445000Y-84695000D01*
G75*
G02*
X139695000Y-84445000I250000J0D01*
G01*
X141845000Y-84445000D01*
G75*
G02*
X142095000Y-84695000I0J-250000D01*
G01*
X142095000Y-85445000D01*
G75*
G02*
X141845000Y-85695000I-250000J0D01*
G01*
G37*
G36*
G01*
X141845000Y-88495000D02*
X139695000Y-88495000D01*
G75*
G02*
X139445000Y-88245000I0J250000D01*
G01*
X139445000Y-87495000D01*
G75*
G02*
X139695000Y-87245000I250000J0D01*
G01*
X141845000Y-87245000D01*
G75*
G02*
X142095000Y-87495000I0J-250000D01*
G01*
X142095000Y-88245000D01*
G75*
G02*
X141845000Y-88495000I-250000J0D01*
G01*
G37*
G36*
G01*
X138706600Y-85692600D02*
X136556600Y-85692600D01*
G75*
G02*
X136306600Y-85442600I0J250000D01*
G01*
X136306600Y-84692600D01*
G75*
G02*
X136556600Y-84442600I250000J0D01*
G01*
X138706600Y-84442600D01*
G75*
G02*
X138956600Y-84692600I0J-250000D01*
G01*
X138956600Y-85442600D01*
G75*
G02*
X138706600Y-85692600I-250000J0D01*
G01*
G37*
G36*
G01*
X138706600Y-88492600D02*
X136556600Y-88492600D01*
G75*
G02*
X136306600Y-88242600I0J250000D01*
G01*
X136306600Y-87492600D01*
G75*
G02*
X136556600Y-87242600I250000J0D01*
G01*
X138706600Y-87242600D01*
G75*
G02*
X138956600Y-87492600I0J-250000D01*
G01*
X138956600Y-88242600D01*
G75*
G02*
X138706600Y-88492600I-250000J0D01*
G01*
G37*
G36*
G01*
X153984700Y-112235600D02*
X155234700Y-112235600D01*
G75*
G02*
X155484700Y-112485600I0J-250000D01*
G01*
X155484700Y-113235600D01*
G75*
G02*
X155234700Y-113485600I-250000J0D01*
G01*
X153984700Y-113485600D01*
G75*
G02*
X153734700Y-113235600I0J250000D01*
G01*
X153734700Y-112485600D01*
G75*
G02*
X153984700Y-112235600I250000J0D01*
G01*
G37*
G36*
G01*
X153984700Y-109435600D02*
X155234700Y-109435600D01*
G75*
G02*
X155484700Y-109685600I0J-250000D01*
G01*
X155484700Y-110435600D01*
G75*
G02*
X155234700Y-110685600I-250000J0D01*
G01*
X153984700Y-110685600D01*
G75*
G02*
X153734700Y-110435600I0J250000D01*
G01*
X153734700Y-109685600D01*
G75*
G02*
X153984700Y-109435600I250000J0D01*
G01*
G37*
G36*
G01*
X156224140Y-112237080D02*
X157474140Y-112237080D01*
G75*
G02*
X157724140Y-112487080I0J-250000D01*
G01*
X157724140Y-113237080D01*
G75*
G02*
X157474140Y-113487080I-250000J0D01*
G01*
X156224140Y-113487080D01*
G75*
G02*
X155974140Y-113237080I0J250000D01*
G01*
X155974140Y-112487080D01*
G75*
G02*
X156224140Y-112237080I250000J0D01*
G01*
G37*
G36*
G01*
X156224140Y-109437080D02*
X157474140Y-109437080D01*
G75*
G02*
X157724140Y-109687080I0J-250000D01*
G01*
X157724140Y-110437080D01*
G75*
G02*
X157474140Y-110687080I-250000J0D01*
G01*
X156224140Y-110687080D01*
G75*
G02*
X155974140Y-110437080I0J250000D01*
G01*
X155974140Y-109687080D01*
G75*
G02*
X156224140Y-109437080I250000J0D01*
G01*
G37*
G36*
G01*
X159181380Y-102103260D02*
X159526380Y-102103260D01*
G75*
G02*
X159673880Y-102250760I0J-147500D01*
G01*
X159673880Y-102545760D01*
G75*
G02*
X159526380Y-102693260I-147500J0D01*
G01*
X159181380Y-102693260D01*
G75*
G02*
X159033880Y-102545760I0J147500D01*
G01*
X159033880Y-102250760D01*
G75*
G02*
X159181380Y-102103260I147500J0D01*
G01*
G37*
G36*
G01*
X159181380Y-101133260D02*
X159526380Y-101133260D01*
G75*
G02*
X159673880Y-101280760I0J-147500D01*
G01*
X159673880Y-101575760D01*
G75*
G02*
X159526380Y-101723260I-147500J0D01*
G01*
X159181380Y-101723260D01*
G75*
G02*
X159033880Y-101575760I0J147500D01*
G01*
X159033880Y-101280760D01*
G75*
G02*
X159181380Y-101133260I147500J0D01*
G01*
G37*
G36*
G01*
X158290000Y-104522500D02*
X158290000Y-104177500D01*
G75*
G02*
X158437500Y-104030000I147500J0D01*
G01*
X158732500Y-104030000D01*
G75*
G02*
X158880000Y-104177500I0J-147500D01*
G01*
X158880000Y-104522500D01*
G75*
G02*
X158732500Y-104670000I-147500J0D01*
G01*
X158437500Y-104670000D01*
G75*
G02*
X158290000Y-104522500I0J147500D01*
G01*
G37*
G36*
G01*
X157320000Y-104522500D02*
X157320000Y-104177500D01*
G75*
G02*
X157467500Y-104030000I147500J0D01*
G01*
X157762500Y-104030000D01*
G75*
G02*
X157910000Y-104177500I0J-147500D01*
G01*
X157910000Y-104522500D01*
G75*
G02*
X157762500Y-104670000I-147500J0D01*
G01*
X157467500Y-104670000D01*
G75*
G02*
X157320000Y-104522500I0J147500D01*
G01*
G37*
G36*
G01*
X154577500Y-105005000D02*
X154922500Y-105005000D01*
G75*
G02*
X155070000Y-105152500I0J-147500D01*
G01*
X155070000Y-105447500D01*
G75*
G02*
X154922500Y-105595000I-147500J0D01*
G01*
X154577500Y-105595000D01*
G75*
G02*
X154430000Y-105447500I0J147500D01*
G01*
X154430000Y-105152500D01*
G75*
G02*
X154577500Y-105005000I147500J0D01*
G01*
G37*
G36*
G01*
X154577500Y-104035000D02*
X154922500Y-104035000D01*
G75*
G02*
X155070000Y-104182500I0J-147500D01*
G01*
X155070000Y-104477500D01*
G75*
G02*
X154922500Y-104625000I-147500J0D01*
G01*
X154577500Y-104625000D01*
G75*
G02*
X154430000Y-104477500I0J147500D01*
G01*
X154430000Y-104182500D01*
G75*
G02*
X154577500Y-104035000I147500J0D01*
G01*
G37*
G36*
G01*
X152957500Y-103455000D02*
X153302500Y-103455000D01*
G75*
G02*
X153450000Y-103602500I0J-147500D01*
G01*
X153450000Y-103897500D01*
G75*
G02*
X153302500Y-104045000I-147500J0D01*
G01*
X152957500Y-104045000D01*
G75*
G02*
X152810000Y-103897500I0J147500D01*
G01*
X152810000Y-103602500D01*
G75*
G02*
X152957500Y-103455000I147500J0D01*
G01*
G37*
G36*
G01*
X152957500Y-102485000D02*
X153302500Y-102485000D01*
G75*
G02*
X153450000Y-102632500I0J-147500D01*
G01*
X153450000Y-102927500D01*
G75*
G02*
X153302500Y-103075000I-147500J0D01*
G01*
X152957500Y-103075000D01*
G75*
G02*
X152810000Y-102927500I0J147500D01*
G01*
X152810000Y-102632500D01*
G75*
G02*
X152957500Y-102485000I147500J0D01*
G01*
G37*
G36*
G01*
X151525000Y-102585000D02*
X151525000Y-102930000D01*
G75*
G02*
X151377500Y-103077500I-147500J0D01*
G01*
X151082500Y-103077500D01*
G75*
G02*
X150935000Y-102930000I0J147500D01*
G01*
X150935000Y-102585000D01*
G75*
G02*
X151082500Y-102437500I147500J0D01*
G01*
X151377500Y-102437500D01*
G75*
G02*
X151525000Y-102585000I0J-147500D01*
G01*
G37*
G36*
G01*
X152495000Y-102585000D02*
X152495000Y-102930000D01*
G75*
G02*
X152347500Y-103077500I-147500J0D01*
G01*
X152052500Y-103077500D01*
G75*
G02*
X151905000Y-102930000I0J147500D01*
G01*
X151905000Y-102585000D01*
G75*
G02*
X152052500Y-102437500I147500J0D01*
G01*
X152347500Y-102437500D01*
G75*
G02*
X152495000Y-102585000I0J-147500D01*
G01*
G37*
G36*
G01*
X150010000Y-103882500D02*
X150010000Y-103537500D01*
G75*
G02*
X150157500Y-103390000I147500J0D01*
G01*
X150452500Y-103390000D01*
G75*
G02*
X150600000Y-103537500I0J-147500D01*
G01*
X150600000Y-103882500D01*
G75*
G02*
X150452500Y-104030000I-147500J0D01*
G01*
X150157500Y-104030000D01*
G75*
G02*
X150010000Y-103882500I0J147500D01*
G01*
G37*
G36*
G01*
X149040000Y-103882500D02*
X149040000Y-103537500D01*
G75*
G02*
X149187500Y-103390000I147500J0D01*
G01*
X149482500Y-103390000D01*
G75*
G02*
X149630000Y-103537500I0J-147500D01*
G01*
X149630000Y-103882500D01*
G75*
G02*
X149482500Y-104030000I-147500J0D01*
G01*
X149187500Y-104030000D01*
G75*
G02*
X149040000Y-103882500I0J147500D01*
G01*
G37*
G36*
G01*
X123672500Y-107545000D02*
X123327500Y-107545000D01*
G75*
G02*
X123180000Y-107397500I0J147500D01*
G01*
X123180000Y-107102500D01*
G75*
G02*
X123327500Y-106955000I147500J0D01*
G01*
X123672500Y-106955000D01*
G75*
G02*
X123820000Y-107102500I0J-147500D01*
G01*
X123820000Y-107397500D01*
G75*
G02*
X123672500Y-107545000I-147500J0D01*
G01*
G37*
G36*
G01*
X123672500Y-108515000D02*
X123327500Y-108515000D01*
G75*
G02*
X123180000Y-108367500I0J147500D01*
G01*
X123180000Y-108072500D01*
G75*
G02*
X123327500Y-107925000I147500J0D01*
G01*
X123672500Y-107925000D01*
G75*
G02*
X123820000Y-108072500I0J-147500D01*
G01*
X123820000Y-108367500D01*
G75*
G02*
X123672500Y-108515000I-147500J0D01*
G01*
G37*
G36*
G01*
X123327500Y-109790000D02*
X123672500Y-109790000D01*
G75*
G02*
X123820000Y-109937500I0J-147500D01*
G01*
X123820000Y-110232500D01*
G75*
G02*
X123672500Y-110380000I-147500J0D01*
G01*
X123327500Y-110380000D01*
G75*
G02*
X123180000Y-110232500I0J147500D01*
G01*
X123180000Y-109937500D01*
G75*
G02*
X123327500Y-109790000I147500J0D01*
G01*
G37*
G36*
G01*
X123327500Y-108820000D02*
X123672500Y-108820000D01*
G75*
G02*
X123820000Y-108967500I0J-147500D01*
G01*
X123820000Y-109262500D01*
G75*
G02*
X123672500Y-109410000I-147500J0D01*
G01*
X123327500Y-109410000D01*
G75*
G02*
X123180000Y-109262500I0J147500D01*
G01*
X123180000Y-108967500D01*
G75*
G02*
X123327500Y-108820000I147500J0D01*
G01*
G37*
G36*
G01*
X115187500Y-108635000D02*
X115532500Y-108635000D01*
G75*
G02*
X115680000Y-108782500I0J-147500D01*
G01*
X115680000Y-109077500D01*
G75*
G02*
X115532500Y-109225000I-147500J0D01*
G01*
X115187500Y-109225000D01*
G75*
G02*
X115040000Y-109077500I0J147500D01*
G01*
X115040000Y-108782500D01*
G75*
G02*
X115187500Y-108635000I147500J0D01*
G01*
G37*
G36*
G01*
X115187500Y-107665000D02*
X115532500Y-107665000D01*
G75*
G02*
X115680000Y-107812500I0J-147500D01*
G01*
X115680000Y-108107500D01*
G75*
G02*
X115532500Y-108255000I-147500J0D01*
G01*
X115187500Y-108255000D01*
G75*
G02*
X115040000Y-108107500I0J147500D01*
G01*
X115040000Y-107812500D01*
G75*
G02*
X115187500Y-107665000I147500J0D01*
G01*
G37*
G36*
G01*
X144905000Y-111422500D02*
X144905000Y-111077500D01*
G75*
G02*
X145052500Y-110930000I147500J0D01*
G01*
X145347500Y-110930000D01*
G75*
G02*
X145495000Y-111077500I0J-147500D01*
G01*
X145495000Y-111422500D01*
G75*
G02*
X145347500Y-111570000I-147500J0D01*
G01*
X145052500Y-111570000D01*
G75*
G02*
X144905000Y-111422500I0J147500D01*
G01*
G37*
G36*
G01*
X143935000Y-111422500D02*
X143935000Y-111077500D01*
G75*
G02*
X144082500Y-110930000I147500J0D01*
G01*
X144377500Y-110930000D01*
G75*
G02*
X144525000Y-111077500I0J-147500D01*
G01*
X144525000Y-111422500D01*
G75*
G02*
X144377500Y-111570000I-147500J0D01*
G01*
X144082500Y-111570000D01*
G75*
G02*
X143935000Y-111422500I0J147500D01*
G01*
G37*
G36*
G01*
X149850000Y-113006250D02*
X149850000Y-112093750D01*
G75*
G02*
X150093750Y-111850000I243750J0D01*
G01*
X150581250Y-111850000D01*
G75*
G02*
X150825000Y-112093750I0J-243750D01*
G01*
X150825000Y-113006250D01*
G75*
G02*
X150581250Y-113250000I-243750J0D01*
G01*
X150093750Y-113250000D01*
G75*
G02*
X149850000Y-113006250I0J243750D01*
G01*
G37*
G36*
G01*
X147975000Y-113006250D02*
X147975000Y-112093750D01*
G75*
G02*
X148218750Y-111850000I243750J0D01*
G01*
X148706250Y-111850000D01*
G75*
G02*
X148950000Y-112093750I0J-243750D01*
G01*
X148950000Y-113006250D01*
G75*
G02*
X148706250Y-113250000I-243750J0D01*
G01*
X148218750Y-113250000D01*
G75*
G02*
X147975000Y-113006250I0J243750D01*
G01*
G37*
G36*
G01*
X146897500Y-106410000D02*
X147242500Y-106410000D01*
G75*
G02*
X147390000Y-106557500I0J-147500D01*
G01*
X147390000Y-106852500D01*
G75*
G02*
X147242500Y-107000000I-147500J0D01*
G01*
X146897500Y-107000000D01*
G75*
G02*
X146750000Y-106852500I0J147500D01*
G01*
X146750000Y-106557500D01*
G75*
G02*
X146897500Y-106410000I147500J0D01*
G01*
G37*
G36*
G01*
X146897500Y-105440000D02*
X147242500Y-105440000D01*
G75*
G02*
X147390000Y-105587500I0J-147500D01*
G01*
X147390000Y-105882500D01*
G75*
G02*
X147242500Y-106030000I-147500J0D01*
G01*
X146897500Y-106030000D01*
G75*
G02*
X146750000Y-105882500I0J147500D01*
G01*
X146750000Y-105587500D01*
G75*
G02*
X146897500Y-105440000I147500J0D01*
G01*
G37*
G36*
G01*
X149850000Y-114896250D02*
X149850000Y-113983750D01*
G75*
G02*
X150093750Y-113740000I243750J0D01*
G01*
X150581250Y-113740000D01*
G75*
G02*
X150825000Y-113983750I0J-243750D01*
G01*
X150825000Y-114896250D01*
G75*
G02*
X150581250Y-115140000I-243750J0D01*
G01*
X150093750Y-115140000D01*
G75*
G02*
X149850000Y-114896250I0J243750D01*
G01*
G37*
G36*
G01*
X147975000Y-114896250D02*
X147975000Y-113983750D01*
G75*
G02*
X148218750Y-113740000I243750J0D01*
G01*
X148706250Y-113740000D01*
G75*
G02*
X148950000Y-113983750I0J-243750D01*
G01*
X148950000Y-114896250D01*
G75*
G02*
X148706250Y-115140000I-243750J0D01*
G01*
X148218750Y-115140000D01*
G75*
G02*
X147975000Y-114896250I0J243750D01*
G01*
G37*
G36*
G01*
X148076750Y-106561940D02*
X148989250Y-106561940D01*
G75*
G02*
X149233000Y-106805690I0J-243750D01*
G01*
X149233000Y-107293190D01*
G75*
G02*
X148989250Y-107536940I-243750J0D01*
G01*
X148076750Y-107536940D01*
G75*
G02*
X147833000Y-107293190I0J243750D01*
G01*
X147833000Y-106805690D01*
G75*
G02*
X148076750Y-106561940I243750J0D01*
G01*
G37*
G36*
G01*
X148076750Y-104686940D02*
X148989250Y-104686940D01*
G75*
G02*
X149233000Y-104930690I0J-243750D01*
G01*
X149233000Y-105418190D01*
G75*
G02*
X148989250Y-105661940I-243750J0D01*
G01*
X148076750Y-105661940D01*
G75*
G02*
X147833000Y-105418190I0J243750D01*
G01*
X147833000Y-104930690D01*
G75*
G02*
X148076750Y-104686940I243750J0D01*
G01*
G37*
G36*
G01*
X149976670Y-106561700D02*
X150889170Y-106561700D01*
G75*
G02*
X151132920Y-106805450I0J-243750D01*
G01*
X151132920Y-107292950D01*
G75*
G02*
X150889170Y-107536700I-243750J0D01*
G01*
X149976670Y-107536700D01*
G75*
G02*
X149732920Y-107292950I0J243750D01*
G01*
X149732920Y-106805450D01*
G75*
G02*
X149976670Y-106561700I243750J0D01*
G01*
G37*
G36*
G01*
X149976670Y-104686700D02*
X150889170Y-104686700D01*
G75*
G02*
X151132920Y-104930450I0J-243750D01*
G01*
X151132920Y-105417950D01*
G75*
G02*
X150889170Y-105661700I-243750J0D01*
G01*
X149976670Y-105661700D01*
G75*
G02*
X149732920Y-105417950I0J243750D01*
G01*
X149732920Y-104930450D01*
G75*
G02*
X149976670Y-104686700I243750J0D01*
G01*
G37*
M02*
