M48
; DRILL file {KiCad 6.0.7-f9a2dced07~116~ubuntu20.04.1} date Mon 26 Dec 2022 01:33:43 PM EST
; FORMAT={-:-/ absolute / inch / decimal}
; #@! TF.CreationDate,2022-12-26T13:33:43-05:00
; #@! TF.GenerationSoftware,Kicad,Pcbnew,6.0.7-f9a2dced07~116~ubuntu20.04.1
; #@! TF.FileFunction,Plated,1,2,PTH
FMAT,2
INCH
; #@! TA.AperFunction,Plated,PTH,ViaDrill
T1C0.0118
; #@! TA.AperFunction,Plated,PTH,ComponentDrill
T2C0.0197
; #@! TA.AperFunction,Plated,PTH,ComponentDrill
T3C0.0236
; #@! TA.AperFunction,Plated,PTH,ComponentDrill
T4C0.0394
; #@! TA.AperFunction,Plated,PTH,ComponentDrill
T5C0.1181
; #@! TA.AperFunction,Plated,PTH,ComponentDrill
T6C0.1260
%
G90
G05
T1
X2.7205Y-4.2992
X2.7362Y-3.622
X2.748Y-4.9724
X2.7953Y-4.2756
X2.8937Y-3.5394
X3.0148Y-3.9104
X3.0551Y-5.315
X3.0984Y-5.3898
X3.3268Y-5.3583
X3.3701Y-5.3071
X3.4793Y-5.3071
X3.5098Y-5.122
X3.5354Y-5.3819
X3.5429Y-5.0563
X3.59Y-5.15
X3.6476Y-5.315
X3.6988Y-4.9075
X3.7106Y-4.7524
X3.7146Y-4.9587
X3.7266Y-4.7104
X3.7283Y-4.9075
X3.7362Y-4.748
X3.7539Y-5.2539
X3.7551Y-4.7116
X3.758Y-4.6859
X3.7632Y-4.9704
X3.7677Y-4.9153
X3.7685Y-4.6635
X3.7992Y-5.2598
X3.8012Y-4.4843
X3.81Y-4.3829
X3.811Y-4.3415
X3.811Y-4.4173
X3.8131Y-4.8949
X3.8366Y-5.1575
X3.8819Y-4.3701
X3.8917Y-4.9902
X3.9154Y-4.3701
X3.9469Y-4.3701
X3.9587Y-5.3366
X3.9823Y-4.3701
X4.0138Y-4.3701
X4.0492Y-4.3701
X4.0669Y-5.3819
X4.0679Y-5.247
X4.0807Y-4.3701
X4.0846Y-4.5382
X4.0846Y-4.5571
X4.0846Y-4.5768
X4.0846Y-4.5965
X4.0846Y-4.6161
X4.0846Y-4.6358
X4.0846Y-4.6555
X4.0846Y-4.6752
X4.0846Y-4.6949
X4.1108Y-4.8362
X4.1161Y-4.3701
X4.127Y-4.812
X4.1388Y-5.2028
X4.1424Y-5.2276
X4.1437Y-4.7913
X4.1496Y-4.3701
X4.1496Y-4.5551
X4.1496Y-4.5748
X4.1496Y-4.5945
X4.1496Y-4.6142
X4.1496Y-4.6339
X4.1496Y-4.6535
X4.1496Y-4.6732
X4.1496Y-4.6929
X4.1502Y-4.5375
X4.1811Y-4.3701
X4.1821Y-4.8602
X4.185Y-4.4824
X4.2018Y-4.4626
X4.2165Y-4.3701
X4.2165Y-5.0748
X4.2185Y-4.44
X4.2185Y-4.937
X4.2205Y-4.3986
X4.2374Y-4.4204
X4.2382Y-4.7549
X4.248Y-4.368
X4.2539Y-4.9331
X4.2835Y-4.368
X4.2854Y-4.9331
X4.2963Y-5.1752
X4.3012Y-4.5472
X4.315Y-4.368
X4.3189Y-4.935
X4.3504Y-4.368
X4.3543Y-4.9331
X4.36Y-5.34
X4.3661Y-4.4951
X4.3898Y-4.937
X4.4134Y-5.1781
X4.4213Y-4.3425
X4.4213Y-5.0787
X4.4291Y-4.5177
X4.4291Y-4.752
X4.4291Y-4.8189
X4.43Y-4.9567
X4.4311Y-4.685
X4.435Y-4.4823
X4.4449Y-4.7185
X4.4488Y-4.7815
X4.4843Y-4.5866
X4.5669Y-4.2323
X4.6063Y-4.8031
X4.6161Y-4.311
X4.621Y-4.376
X4.625Y-4.2529
X4.626Y-4.5177
X4.6669Y-5.1323
X4.6811Y-4.4843
X4.6845Y-4.262
X4.6866Y-5.1323
X4.689Y-4.311
X4.7063Y-5.1323
X4.726Y-5.1323
X4.7457Y-5.1323
X4.7638Y-5.3528
X4.7648Y-4.5374
X4.7654Y-5.1323
X4.7835Y-5.3528
X4.7992Y-4.4263
X4.8031Y-5.3528
X4.8213Y-5.3504
X4.8279Y-4.2775
X4.9429Y-4.4026
X5.0354Y-3.6732
X5.063Y-4.3209
X5.0787Y-4.2717
X5.0827Y-4.9862
X5.0984Y-4.8898
X5.1634Y-4.2392
X5.2756Y-3.2382
X5.2756Y-3.2579
X5.2756Y-3.2776
X5.2756Y-3.2972
X5.2756Y-3.3169
X5.2756Y-3.3366
X5.2756Y-3.3563
X5.2756Y-3.376
X5.2756Y-3.3957
X5.2953Y-3.2382
X5.2953Y-3.2579
X5.2953Y-3.2776
X5.2953Y-3.2972
X5.2953Y-3.3169
X5.2953Y-3.3366
X5.2953Y-3.3563
X5.2953Y-3.376
X5.2953Y-3.3957
X5.315Y-3.2382
X5.315Y-3.2579
X5.315Y-3.2776
X5.315Y-3.2972
X5.315Y-3.3169
X5.315Y-3.3366
X5.315Y-3.3563
X5.315Y-3.376
X5.315Y-3.3957
X5.3346Y-3.2382
X5.3346Y-3.2579
X5.3346Y-3.2776
X5.3346Y-3.2972
X5.3346Y-3.3169
X5.3346Y-3.3366
X5.3346Y-3.3563
X5.3346Y-3.376
X5.3346Y-3.3957
X5.3543Y-3.2382
X5.3543Y-3.2579
X5.3543Y-3.2776
X5.3543Y-3.2972
X5.3543Y-3.3169
X5.3543Y-3.3366
X5.3543Y-3.3563
X5.3543Y-3.376
X5.3543Y-3.3957
X5.3543Y-4.9409
X5.374Y-3.2382
X5.374Y-3.2579
X5.374Y-3.2776
X5.374Y-3.2972
X5.374Y-3.3957
X5.3839Y-4.3159
X5.3937Y-3.2382
X5.3937Y-3.2579
X5.3937Y-3.2776
X5.3937Y-3.2972
X5.3937Y-3.3957
X5.4134Y-3.2382
X5.4134Y-3.2579
X5.4134Y-3.2776
X5.4134Y-3.2972
X5.4134Y-3.3957
X5.4331Y-3.2382
X5.4331Y-3.2579
X5.4331Y-3.2776
X5.4331Y-3.2972
X5.4331Y-3.3957
X5.4528Y-3.2382
X5.4528Y-3.2579
X5.4528Y-3.2776
X5.4528Y-3.2972
X5.4528Y-3.3957
X5.4724Y-3.2382
X5.4724Y-3.2579
X5.4724Y-3.2776
X5.4724Y-3.2972
X5.4724Y-3.3957
X5.4921Y-3.2382
X5.4921Y-3.2579
X5.4921Y-3.2776
X5.4921Y-3.2972
X5.4921Y-3.3957
X5.5079Y-5.1614
X5.5118Y-3.2382
X5.5118Y-3.2579
X5.5118Y-3.2776
X5.5118Y-3.2972
X5.5118Y-3.3957
X5.5315Y-3.2382
X5.5315Y-3.2579
X5.5315Y-3.2776
X5.5315Y-3.2972
X5.5315Y-3.3957
X5.5512Y-3.2382
X5.5512Y-3.2579
X5.5512Y-3.2776
X5.5512Y-3.2972
X5.5512Y-3.3957
X5.5709Y-3.2382
X5.5709Y-3.2579
X5.5709Y-3.2776
X5.5709Y-3.2972
X5.5709Y-3.3957
X5.5906Y-3.2382
X5.5906Y-3.2579
X5.5906Y-3.2776
X5.5906Y-3.2972
X5.5906Y-3.3957
X5.6102Y-3.2382
X5.6102Y-3.2579
X5.6102Y-3.2776
X5.6102Y-3.2972
X5.6102Y-3.3169
X5.6102Y-3.3366
X5.6102Y-3.3563
X5.6299Y-3.2382
X5.6299Y-3.2579
X5.6299Y-3.2776
X5.6299Y-3.2972
X5.6299Y-3.3169
X5.6299Y-3.3366
X5.6299Y-3.3563
X5.6594Y-4.3799
X5.6864Y-5.0207
X5.7913Y-5.1339
X5.7972Y-4.123
X5.8268Y-3.7795
X5.8268Y-3.7992
X5.8268Y-3.8189
X5.8268Y-3.8386
X5.8268Y-3.8583
X5.8465Y-3.7795
X5.8465Y-3.7992
X5.8465Y-3.8189
X5.8465Y-3.8386
X5.8465Y-3.8583
X5.8642Y-4.8337
X5.8661Y-3.7795
X5.8661Y-3.7992
X5.8661Y-3.8189
X5.8661Y-3.8386
X5.8661Y-3.874
X5.8858Y-3.7795
X5.8858Y-3.7992
X5.8858Y-3.8189
X5.8858Y-3.8386
X5.8858Y-3.8583
X5.8937Y-4.0079
X5.9055Y-3.7795
X5.9055Y-3.7992
X5.9055Y-3.8189
X5.9055Y-3.8386
X5.9055Y-3.8583
X5.9055Y-3.878
X5.9055Y-3.8976
X5.9055Y-3.9173
X5.9252Y-3.7795
X5.9252Y-3.7992
X5.9252Y-3.8189
X5.9252Y-3.8386
X5.9252Y-3.8583
X5.9449Y-3.7795
X5.9449Y-3.7992
X5.9449Y-3.8189
X5.9449Y-3.8386
X5.9449Y-3.8562
X5.9449Y-3.8819
X5.9646Y-3.7795
X5.9646Y-3.7992
X5.9646Y-3.8189
X5.9646Y-3.8386
X5.9843Y-3.7793
X5.9843Y-3.7989
X5.9843Y-3.8186
X5.9843Y-3.8383
X6.0039Y-3.7795
X6.0039Y-3.7992
X6.0039Y-3.8189
X6.0039Y-3.8386
X6.0039Y-4.1004
X6.0236Y-3.7795
X6.0236Y-3.7992
X6.0236Y-3.8189
X6.0236Y-3.8386
X6.0236Y-4.2077
X6.0394Y-3.9764
X6.0433Y-3.7795
X6.0433Y-3.7992
X6.0433Y-3.8189
X6.0433Y-3.8386
X6.063Y-3.7795
X6.063Y-3.7992
X6.063Y-3.8189
X6.063Y-3.8386
X6.063Y-3.937
X6.063Y-3.9567
X6.063Y-3.9764
X6.0709Y-4.1181
X6.0827Y-3.7795
X6.0827Y-3.7992
X6.0827Y-3.8189
X6.0827Y-3.8386
X6.0827Y-3.937
X6.0827Y-3.9567
X6.0827Y-3.9764
X6.1024Y-3.7795
X6.1024Y-3.7992
X6.1024Y-3.8189
X6.1024Y-3.8386
X6.1024Y-3.8583
X6.1024Y-3.878
X6.1024Y-3.8976
X6.1024Y-3.9173
X6.1024Y-3.937
X6.1024Y-3.9567
X6.1024Y-3.9764
X6.122Y-3.7795
X6.122Y-3.7992
X6.122Y-3.8189
X6.122Y-3.8386
X6.122Y-3.8583
X6.122Y-3.878
X6.122Y-3.8976
X6.122Y-3.9173
X6.122Y-3.937
X6.122Y-3.9567
X6.122Y-3.9764
X6.1417Y-3.7795
X6.1417Y-3.7992
X6.1693Y-3.9252
X6.1727Y-4.1032
X6.1929Y-4.0118
X6.2539Y-4.7461
X6.2559Y-4.1732
X6.2579Y-4.8268
X6.2951Y-3.9893
X6.2953Y-4.0236
X6.2992Y-3.8661
X6.311Y-4.0079
X6.311Y-4.0394
X6.3195Y-3.9217
X6.3227Y-3.9893
X6.3228Y-4.0236
X6.3435Y-3.9469
X6.3962Y-4.0396
X6.3976Y-4.0787
X6.4016Y-3.9843
X6.5453Y-3.7008
X6.5758Y-3.3012
T2
X2.7264Y-3.3583
X2.7264Y-5.2874
X2.7541Y-3.2915
X2.7541Y-3.4251
X2.7541Y-5.2206
X2.7541Y-5.3542
X2.8209Y-3.2638
X2.8209Y-3.4528
X2.8209Y-5.1929
X2.8209Y-5.3819
X2.8877Y-3.2915
X2.8877Y-3.4251
X2.8877Y-5.2206
X2.8877Y-5.3542
X2.9154Y-3.3583
X2.9154Y-5.2874
X5.0098Y-3.3583
X5.0098Y-5.2874
X5.0375Y-3.2915
X5.0375Y-3.4251
X5.0375Y-5.2206
X5.0375Y-5.3542
X5.1043Y-3.2638
X5.1043Y-3.4528
X5.1043Y-5.1929
X5.1043Y-5.3819
X5.1711Y-3.2915
X5.1711Y-3.4251
X5.1711Y-5.2206
X5.1711Y-5.3542
X5.1988Y-3.3583
X5.1988Y-5.2874
T4
X2.756Y-4.6892
X2.7566Y-3.9032
X2.7566Y-4.0032
X2.7575Y-4.3892
X2.7575Y-4.4892
X2.7575Y-4.5892
X2.7576Y-4.1032
X2.7576Y-4.2032
X2.856Y-4.6892
X2.8566Y-3.9032
X2.8566Y-4.0032
X2.8575Y-4.3892
X2.8575Y-4.4892
X2.8575Y-4.5892
X2.8576Y-4.1032
X2.8576Y-4.2032
X2.956Y-4.6892
X2.9566Y-3.9032
X2.9566Y-4.0032
X2.9575Y-4.3892
X2.9575Y-4.4892
X2.9575Y-4.5892
X2.9576Y-4.1032
X2.9576Y-4.2032
X5.1179Y-4.3848
X5.1179Y-4.4848
X5.1179Y-4.5848
X5.1179Y-4.6848
X5.119Y-3.8736
X5.119Y-3.9736
X5.119Y-4.0736
X5.119Y-4.1736
X5.2179Y-4.3848
X5.2179Y-4.4848
X5.2179Y-4.5848
X5.2179Y-4.6848
X5.219Y-3.8736
X5.219Y-3.9736
X5.219Y-4.0736
X5.219Y-4.1736
X5.3179Y-4.3848
X5.3179Y-4.4848
X5.3179Y-4.5848
X5.3179Y-4.6848
X5.319Y-3.8736
X5.319Y-3.9736
X5.319Y-4.0736
X5.319Y-4.1736
X5.965Y-5.1374
X5.965Y-5.2374
X5.965Y-5.3374
X6.0657Y-5.1374
X6.0657Y-5.2374
X6.0657Y-5.3374
X6.1657Y-5.1374
X6.1657Y-5.2374
X6.1657Y-5.3374
X6.2661Y-5.1374
X6.2661Y-5.2374
X6.2661Y-5.3374
T5
X6.4484Y-4.2949
X6.4484Y-4.4917
T6
X2.8209Y-3.3583
X2.8209Y-5.2874
X5.1043Y-3.3583
X5.1043Y-5.2874
T3
G00X4.1748Y-5.1348
M15
G01X4.1748Y-5.1781
M16
G05
G00X4.1748Y-5.3041
M15
G01X4.1748Y-5.3356
M16
G05
G00X4.5149Y-5.1348
M15
G01X4.5149Y-5.1781
M16
G05
G00X4.5151Y-5.3041
M15
G01X4.5151Y-5.3356
M16
G05
T0
M30
