G04 #@! TF.GenerationSoftware,KiCad,Pcbnew,5.1.7-a382d34a8~88~ubuntu18.04.1*
G04 #@! TF.CreationDate,2020-12-05T15:11:51-05:00*
G04 #@! TF.ProjectId,SmallKat v2,536d616c-6c4b-4617-9420-76322e6b6963,rev?*
G04 #@! TF.SameCoordinates,Original*
G04 #@! TF.FileFunction,Legend,Bot*
G04 #@! TF.FilePolarity,Positive*
%FSLAX46Y46*%
G04 Gerber Fmt 4.6, Leading zero omitted, Abs format (unit mm)*
G04 Created by KiCad (PCBNEW 5.1.7-a382d34a8~88~ubuntu18.04.1) date 2020-12-05 15:11:51*
%MOMM*%
%LPD*%
G01*
G04 APERTURE LIST*
%ADD10C,0.250000*%
%ADD11C,0.500000*%
%ADD12C,0.750000*%
%ADD13C,0.200000*%
%ADD14C,0.120000*%
G04 APERTURE END LIST*
D10*
X149818595Y-127535611D02*
X149805327Y-126954498D01*
X150279126Y-127197318D02*
X149687112Y-126391389D01*
X149380092Y-126616918D01*
X149331528Y-126711678D01*
X149321342Y-126778247D01*
X149339346Y-126883193D01*
X149423920Y-126998325D01*
X149518679Y-127046889D01*
X149585248Y-127057076D01*
X149690194Y-127039071D01*
X149997215Y-126813542D01*
X149137986Y-127976482D02*
X149242932Y-127958477D01*
X149396442Y-127845713D01*
X149445006Y-127750953D01*
X149427001Y-127646007D01*
X149201473Y-127338987D01*
X149106713Y-127290423D01*
X149001767Y-127308427D01*
X148848257Y-127421192D01*
X148799693Y-127515952D01*
X148817697Y-127620898D01*
X148874079Y-127697653D01*
X149314237Y-127492497D01*
X148464481Y-127703103D02*
X148667269Y-128381344D01*
X148080706Y-127985014D01*
X147382806Y-129206704D02*
X147372619Y-129273273D01*
X147439188Y-129283459D01*
X147449374Y-129216891D01*
X147382806Y-129206704D01*
X147439188Y-129283459D01*
X147028876Y-128403144D02*
X146923930Y-128421149D01*
X146732042Y-128562104D01*
X146683478Y-128656864D01*
X146701483Y-128761810D01*
X146757865Y-128838565D01*
X146852625Y-128887129D01*
X146919193Y-128897316D01*
X147024139Y-128879311D01*
X147090708Y-128889497D01*
X147185468Y-128938061D01*
X147213659Y-128976439D01*
X146692010Y-129714144D02*
X146681823Y-129780713D01*
X146748392Y-129790899D01*
X146758579Y-129724330D01*
X146692010Y-129714144D01*
X146748392Y-129790899D01*
X146338080Y-128910584D02*
X146233134Y-128928589D01*
X146041246Y-129069544D01*
X145992682Y-129164304D01*
X146010687Y-129269250D01*
X146067069Y-129346005D01*
X146161829Y-129394569D01*
X146228398Y-129404756D01*
X146333344Y-129386751D01*
X146399912Y-129396937D01*
X146494672Y-129445501D01*
X146522863Y-129483879D01*
D11*
X157311904Y-125054761D02*
X157311904Y-123054761D01*
X156645238Y-124483333D01*
X155978571Y-123054761D01*
X155978571Y-125054761D01*
X154740476Y-125054761D02*
X154930952Y-124959523D01*
X155026190Y-124864285D01*
X155121428Y-124673809D01*
X155121428Y-124102380D01*
X155026190Y-123911904D01*
X154930952Y-123816666D01*
X154740476Y-123721428D01*
X154454761Y-123721428D01*
X154264285Y-123816666D01*
X154169047Y-123911904D01*
X154073809Y-124102380D01*
X154073809Y-124673809D01*
X154169047Y-124864285D01*
X154264285Y-124959523D01*
X154454761Y-125054761D01*
X154740476Y-125054761D01*
X153502380Y-123721428D02*
X152740476Y-123721428D01*
X153216666Y-123054761D02*
X153216666Y-124769047D01*
X153121428Y-124959523D01*
X152930952Y-125054761D01*
X152740476Y-125054761D01*
X152073809Y-125054761D02*
X152073809Y-123054761D01*
X151216666Y-125054761D02*
X151216666Y-124007142D01*
X151311904Y-123816666D01*
X151502380Y-123721428D01*
X151788095Y-123721428D01*
X151978571Y-123816666D01*
X152073809Y-123911904D01*
X149502380Y-124959523D02*
X149692857Y-125054761D01*
X150073809Y-125054761D01*
X150264285Y-124959523D01*
X150359523Y-124769047D01*
X150359523Y-124007142D01*
X150264285Y-123816666D01*
X150073809Y-123721428D01*
X149692857Y-123721428D01*
X149502380Y-123816666D01*
X149407142Y-124007142D01*
X149407142Y-124197619D01*
X150359523Y-124388095D01*
X148550000Y-125054761D02*
X148550000Y-123721428D01*
X148550000Y-124102380D02*
X148454761Y-123911904D01*
X148359523Y-123816666D01*
X148169047Y-123721428D01*
X147978571Y-123721428D01*
X147311904Y-125054761D02*
X147311904Y-123054761D01*
X147311904Y-123816666D02*
X147121428Y-123721428D01*
X146740476Y-123721428D01*
X146550000Y-123816666D01*
X146454761Y-123911904D01*
X146359523Y-124102380D01*
X146359523Y-124673809D01*
X146454761Y-124864285D01*
X146550000Y-124959523D01*
X146740476Y-125054761D01*
X147121428Y-125054761D01*
X147311904Y-124959523D01*
X145216666Y-125054761D02*
X145407142Y-124959523D01*
X145502380Y-124864285D01*
X145597619Y-124673809D01*
X145597619Y-124102380D01*
X145502380Y-123911904D01*
X145407142Y-123816666D01*
X145216666Y-123721428D01*
X144930952Y-123721428D01*
X144740476Y-123816666D01*
X144645238Y-123911904D01*
X144550000Y-124102380D01*
X144550000Y-124673809D01*
X144645238Y-124864285D01*
X144740476Y-124959523D01*
X144930952Y-125054761D01*
X145216666Y-125054761D01*
X142835714Y-125054761D02*
X142835714Y-124007142D01*
X142930952Y-123816666D01*
X143121428Y-123721428D01*
X143502380Y-123721428D01*
X143692857Y-123816666D01*
X142835714Y-124959523D02*
X143026190Y-125054761D01*
X143502380Y-125054761D01*
X143692857Y-124959523D01*
X143788095Y-124769047D01*
X143788095Y-124578571D01*
X143692857Y-124388095D01*
X143502380Y-124292857D01*
X143026190Y-124292857D01*
X142835714Y-124197619D01*
X141883333Y-125054761D02*
X141883333Y-123721428D01*
X141883333Y-124102380D02*
X141788095Y-123911904D01*
X141692857Y-123816666D01*
X141502380Y-123721428D01*
X141311904Y-123721428D01*
X139788095Y-125054761D02*
X139788095Y-123054761D01*
X139788095Y-124959523D02*
X139978571Y-125054761D01*
X140359523Y-125054761D01*
X140550000Y-124959523D01*
X140645238Y-124864285D01*
X140740476Y-124673809D01*
X140740476Y-124102380D01*
X140645238Y-123911904D01*
X140550000Y-123816666D01*
X140359523Y-123721428D01*
X139978571Y-123721428D01*
X139788095Y-123816666D01*
D12*
X158342857Y-121764285D02*
X157914285Y-121907142D01*
X157200000Y-121907142D01*
X156914285Y-121764285D01*
X156771428Y-121621428D01*
X156628571Y-121335714D01*
X156628571Y-121050000D01*
X156771428Y-120764285D01*
X156914285Y-120621428D01*
X157200000Y-120478571D01*
X157771428Y-120335714D01*
X158057142Y-120192857D01*
X158200000Y-120050000D01*
X158342857Y-119764285D01*
X158342857Y-119478571D01*
X158200000Y-119192857D01*
X158057142Y-119050000D01*
X157771428Y-118907142D01*
X157057142Y-118907142D01*
X156628571Y-119050000D01*
X155342857Y-121907142D02*
X155342857Y-119907142D01*
X155342857Y-120192857D02*
X155200000Y-120050000D01*
X154914285Y-119907142D01*
X154485714Y-119907142D01*
X154200000Y-120050000D01*
X154057142Y-120335714D01*
X154057142Y-121907142D01*
X154057142Y-120335714D02*
X153914285Y-120050000D01*
X153628571Y-119907142D01*
X153200000Y-119907142D01*
X152914285Y-120050000D01*
X152771428Y-120335714D01*
X152771428Y-121907142D01*
X150057142Y-121907142D02*
X150057142Y-120335714D01*
X150200000Y-120050000D01*
X150485714Y-119907142D01*
X151057142Y-119907142D01*
X151342857Y-120050000D01*
X150057142Y-121764285D02*
X150342857Y-121907142D01*
X151057142Y-121907142D01*
X151342857Y-121764285D01*
X151485714Y-121478571D01*
X151485714Y-121192857D01*
X151342857Y-120907142D01*
X151057142Y-120764285D01*
X150342857Y-120764285D01*
X150057142Y-120621428D01*
X148200000Y-121907142D02*
X148485714Y-121764285D01*
X148628571Y-121478571D01*
X148628571Y-118907142D01*
X146628571Y-121907142D02*
X146914285Y-121764285D01*
X147057142Y-121478571D01*
X147057142Y-118907142D01*
X145485714Y-121907142D02*
X145485714Y-118907142D01*
X143771428Y-121907142D02*
X145057142Y-120192857D01*
X143771428Y-118907142D02*
X145485714Y-120621428D01*
X141200000Y-121907142D02*
X141200000Y-120335714D01*
X141342857Y-120050000D01*
X141628571Y-119907142D01*
X142200000Y-119907142D01*
X142485714Y-120050000D01*
X141200000Y-121764285D02*
X141485714Y-121907142D01*
X142200000Y-121907142D01*
X142485714Y-121764285D01*
X142628571Y-121478571D01*
X142628571Y-121192857D01*
X142485714Y-120907142D01*
X142200000Y-120764285D01*
X141485714Y-120764285D01*
X141200000Y-120621428D01*
X140200000Y-119907142D02*
X139057142Y-119907142D01*
X139771428Y-118907142D02*
X139771428Y-121478571D01*
X139628571Y-121764285D01*
X139342857Y-121907142D01*
X139057142Y-121907142D01*
D13*
X115321428Y-119278571D02*
X115821428Y-118564285D01*
X116178571Y-119278571D02*
X116178571Y-117778571D01*
X115607142Y-117778571D01*
X115464285Y-117850000D01*
X115392857Y-117921428D01*
X115321428Y-118064285D01*
X115321428Y-118278571D01*
X115392857Y-118421428D01*
X115464285Y-118492857D01*
X115607142Y-118564285D01*
X116178571Y-118564285D01*
X114892857Y-117778571D02*
X114035714Y-117778571D01*
X114464285Y-119278571D02*
X114464285Y-117778571D01*
X113607142Y-119207142D02*
X113392857Y-119278571D01*
X113035714Y-119278571D01*
X112892857Y-119207142D01*
X112821428Y-119135714D01*
X112750000Y-118992857D01*
X112750000Y-118850000D01*
X112821428Y-118707142D01*
X112892857Y-118635714D01*
X113035714Y-118564285D01*
X113321428Y-118492857D01*
X113464285Y-118421428D01*
X113535714Y-118350000D01*
X113607142Y-118207142D01*
X113607142Y-118064285D01*
X113535714Y-117921428D01*
X113464285Y-117850000D01*
X113321428Y-117778571D01*
X112964285Y-117778571D01*
X112750000Y-117850000D01*
X110264285Y-120728571D02*
X110264285Y-119228571D01*
X109907142Y-119228571D01*
X109692857Y-119300000D01*
X109550000Y-119442857D01*
X109478571Y-119585714D01*
X109407142Y-119871428D01*
X109407142Y-120085714D01*
X109478571Y-120371428D01*
X109550000Y-120514285D01*
X109692857Y-120657142D01*
X109907142Y-120728571D01*
X110264285Y-120728571D01*
X108978571Y-119228571D02*
X108121428Y-119228571D01*
X108550000Y-120728571D02*
X108550000Y-119228571D01*
X106764285Y-120728571D02*
X107264285Y-120014285D01*
X107621428Y-120728571D02*
X107621428Y-119228571D01*
X107050000Y-119228571D01*
X106907142Y-119300000D01*
X106835714Y-119371428D01*
X106764285Y-119514285D01*
X106764285Y-119728571D01*
X106835714Y-119871428D01*
X106907142Y-119942857D01*
X107050000Y-120014285D01*
X107621428Y-120014285D01*
X91285714Y-121278571D02*
X91285714Y-119778571D01*
X90285714Y-119778571D02*
X90000000Y-119778571D01*
X89857142Y-119850000D01*
X89714285Y-119992857D01*
X89642857Y-120278571D01*
X89642857Y-120778571D01*
X89714285Y-121064285D01*
X89857142Y-121207142D01*
X90000000Y-121278571D01*
X90285714Y-121278571D01*
X90428571Y-121207142D01*
X90571428Y-121064285D01*
X90642857Y-120778571D01*
X90642857Y-120278571D01*
X90571428Y-119992857D01*
X90428571Y-119850000D01*
X90285714Y-119778571D01*
X87928571Y-119921428D02*
X87857142Y-119850000D01*
X87714285Y-119778571D01*
X87357142Y-119778571D01*
X87214285Y-119850000D01*
X87142857Y-119921428D01*
X87071428Y-120064285D01*
X87071428Y-120207142D01*
X87142857Y-120421428D01*
X88000000Y-121278571D01*
X87071428Y-121278571D01*
X86571428Y-119778571D02*
X85642857Y-119778571D01*
X86142857Y-120350000D01*
X85928571Y-120350000D01*
X85785714Y-120421428D01*
X85714285Y-120492857D01*
X85642857Y-120635714D01*
X85642857Y-120992857D01*
X85714285Y-121135714D01*
X85785714Y-121207142D01*
X85928571Y-121278571D01*
X86357142Y-121278571D01*
X86500000Y-121207142D01*
X86571428Y-121135714D01*
X86171428Y-111007142D02*
X85957142Y-111078571D01*
X85600000Y-111078571D01*
X85457142Y-111007142D01*
X85385714Y-110935714D01*
X85314285Y-110792857D01*
X85314285Y-110650000D01*
X85385714Y-110507142D01*
X85457142Y-110435714D01*
X85600000Y-110364285D01*
X85885714Y-110292857D01*
X86028571Y-110221428D01*
X86100000Y-110150000D01*
X86171428Y-110007142D01*
X86171428Y-109864285D01*
X86100000Y-109721428D01*
X86028571Y-109650000D01*
X85885714Y-109578571D01*
X85528571Y-109578571D01*
X85314285Y-109650000D01*
X84671428Y-111078571D02*
X84671428Y-109578571D01*
X84314285Y-109578571D01*
X84100000Y-109650000D01*
X83957142Y-109792857D01*
X83885714Y-109935714D01*
X83814285Y-110221428D01*
X83814285Y-110435714D01*
X83885714Y-110721428D01*
X83957142Y-110864285D01*
X84100000Y-111007142D01*
X84314285Y-111078571D01*
X84671428Y-111078571D01*
X83242857Y-110650000D02*
X82528571Y-110650000D01*
X83385714Y-111078571D02*
X82885714Y-109578571D01*
X82385714Y-111078571D01*
X86485714Y-113807142D02*
X86271428Y-113878571D01*
X85914285Y-113878571D01*
X85771428Y-113807142D01*
X85700000Y-113735714D01*
X85628571Y-113592857D01*
X85628571Y-113450000D01*
X85700000Y-113307142D01*
X85771428Y-113235714D01*
X85914285Y-113164285D01*
X86200000Y-113092857D01*
X86342857Y-113021428D01*
X86414285Y-112950000D01*
X86485714Y-112807142D01*
X86485714Y-112664285D01*
X86414285Y-112521428D01*
X86342857Y-112450000D01*
X86200000Y-112378571D01*
X85842857Y-112378571D01*
X85628571Y-112450000D01*
X84128571Y-113735714D02*
X84200000Y-113807142D01*
X84414285Y-113878571D01*
X84557142Y-113878571D01*
X84771428Y-113807142D01*
X84914285Y-113664285D01*
X84985714Y-113521428D01*
X85057142Y-113235714D01*
X85057142Y-113021428D01*
X84985714Y-112735714D01*
X84914285Y-112592857D01*
X84771428Y-112450000D01*
X84557142Y-112378571D01*
X84414285Y-112378571D01*
X84200000Y-112450000D01*
X84128571Y-112521428D01*
X82771428Y-113878571D02*
X83485714Y-113878571D01*
X83485714Y-112378571D01*
X94492857Y-114578571D02*
X93635714Y-114578571D01*
X94064285Y-116078571D02*
X94064285Y-114578571D01*
X93278571Y-114578571D02*
X92278571Y-116078571D01*
X92278571Y-114578571D02*
X93278571Y-116078571D01*
X95950000Y-110528571D02*
X96450000Y-109814285D01*
X96807142Y-110528571D02*
X96807142Y-109028571D01*
X96235714Y-109028571D01*
X96092857Y-109100000D01*
X96021428Y-109171428D01*
X95950000Y-109314285D01*
X95950000Y-109528571D01*
X96021428Y-109671428D01*
X96092857Y-109742857D01*
X96235714Y-109814285D01*
X96807142Y-109814285D01*
X95450000Y-109028571D02*
X94450000Y-110528571D01*
X94450000Y-109028571D02*
X95450000Y-110528571D01*
X122692857Y-86200000D02*
X122835714Y-86128571D01*
X123050000Y-86128571D01*
X123264285Y-86200000D01*
X123407142Y-86342857D01*
X123478571Y-86485714D01*
X123550000Y-86771428D01*
X123550000Y-86985714D01*
X123478571Y-87271428D01*
X123407142Y-87414285D01*
X123264285Y-87557142D01*
X123050000Y-87628571D01*
X122907142Y-87628571D01*
X122692857Y-87557142D01*
X122621428Y-87485714D01*
X122621428Y-86985714D01*
X122907142Y-86985714D01*
X121978571Y-87628571D02*
X121978571Y-86128571D01*
X121121428Y-87628571D01*
X121121428Y-86128571D01*
X120407142Y-87628571D02*
X120407142Y-86128571D01*
X120050000Y-86128571D01*
X119835714Y-86200000D01*
X119692857Y-86342857D01*
X119621428Y-86485714D01*
X119550000Y-86771428D01*
X119550000Y-86985714D01*
X119621428Y-87271428D01*
X119692857Y-87414285D01*
X119835714Y-87557142D01*
X120050000Y-87628571D01*
X120407142Y-87628571D01*
X116135714Y-86078571D02*
X116421428Y-86078571D01*
X116564285Y-86150000D01*
X116635714Y-86221428D01*
X116778571Y-86435714D01*
X116850000Y-86721428D01*
X116850000Y-87292857D01*
X116778571Y-87435714D01*
X116707142Y-87507142D01*
X116564285Y-87578571D01*
X116278571Y-87578571D01*
X116135714Y-87507142D01*
X116064285Y-87435714D01*
X115992857Y-87292857D01*
X115992857Y-86935714D01*
X116064285Y-86792857D01*
X116135714Y-86721428D01*
X116278571Y-86650000D01*
X116564285Y-86650000D01*
X116707142Y-86721428D01*
X116778571Y-86792857D01*
X116850000Y-86935714D01*
X115492857Y-86578571D02*
X115135714Y-87578571D01*
X114778571Y-86578571D01*
X121042857Y-91478571D02*
X120114285Y-91478571D01*
X120614285Y-92050000D01*
X120400000Y-92050000D01*
X120257142Y-92121428D01*
X120185714Y-92192857D01*
X120114285Y-92335714D01*
X120114285Y-92692857D01*
X120185714Y-92835714D01*
X120257142Y-92907142D01*
X120400000Y-92978571D01*
X120828571Y-92978571D01*
X120971428Y-92907142D01*
X121042857Y-92835714D01*
X119471428Y-92835714D02*
X119400000Y-92907142D01*
X119471428Y-92978571D01*
X119542857Y-92907142D01*
X119471428Y-92835714D01*
X119471428Y-92978571D01*
X118900000Y-91478571D02*
X117971428Y-91478571D01*
X118471428Y-92050000D01*
X118257142Y-92050000D01*
X118114285Y-92121428D01*
X118042857Y-92192857D01*
X117971428Y-92335714D01*
X117971428Y-92692857D01*
X118042857Y-92835714D01*
X118114285Y-92907142D01*
X118257142Y-92978571D01*
X118685714Y-92978571D01*
X118828571Y-92907142D01*
X118900000Y-92835714D01*
X117471428Y-91978571D02*
X117114285Y-92978571D01*
X116757142Y-91978571D01*
D14*
X115520000Y-120860000D02*
G75*
G03*
X115520000Y-120860000I-950000J0D01*
G01*
X109660000Y-122070000D02*
G75*
G03*
X109660000Y-122070000I-950000J0D01*
G01*
X96500000Y-111900000D02*
G75*
G03*
X96500000Y-111900000I-950000J0D01*
G01*
X94250000Y-113150000D02*
G75*
G03*
X94250000Y-113150000I-950000J0D01*
G01*
X122950000Y-84300000D02*
G75*
G03*
X122950000Y-84300000I-1450000J0D01*
G01*
X162550000Y-107200000D02*
G75*
G03*
X162550000Y-107200000I-1450000J0D01*
G01*
X120340000Y-94690000D02*
G75*
G03*
X120340000Y-94690000I-950000J0D01*
G01*
X117200000Y-84250000D02*
G75*
G03*
X117200000Y-84250000I-1450000J0D01*
G01*
X88500000Y-113050000D02*
G75*
G03*
X88500000Y-113050000I-950000J0D01*
G01*
X88100000Y-110550000D02*
G75*
G03*
X88100000Y-110550000I-950000J0D01*
G01*
X89610000Y-118430000D02*
G75*
G03*
X89610000Y-118430000I-950000J0D01*
G01*
X166850000Y-124000000D02*
X161850000Y-124000000D01*
X166850000Y-94000000D02*
X161850000Y-94000000D01*
X166850000Y-124000000D02*
X166850000Y-94000000D01*
X161850000Y-94000000D02*
X161850000Y-124000000D01*
M02*
