G04 #@! TF.GenerationSoftware,KiCad,Pcbnew,5.1.4-e60b266~84~ubuntu18.04.1*
G04 #@! TF.CreationDate,2019-11-18T10:08:55-05:00*
G04 #@! TF.ProjectId,SmallKat v2,536d616c-6c4b-4617-9420-76322e6b6963,rev?*
G04 #@! TF.SameCoordinates,Original*
G04 #@! TF.FileFunction,Legend,Bot*
G04 #@! TF.FilePolarity,Positive*
%FSLAX46Y46*%
G04 Gerber Fmt 4.6, Leading zero omitted, Abs format (unit mm)*
G04 Created by KiCad (PCBNEW 5.1.4-e60b266~84~ubuntu18.04.1) date 2019-11-18 10:08:55*
%MOMM*%
%LPD*%
G04 APERTURE LIST*
%ADD10C,0.150000*%
%ADD11C,0.250000*%
%ADD12C,0.120000*%
G04 APERTURE END LIST*
D10*
X134245238Y-133765476D02*
X134245238Y-132515476D01*
X133411904Y-132515476D02*
X133173809Y-132515476D01*
X133054761Y-132575000D01*
X132935714Y-132694047D01*
X132876190Y-132932142D01*
X132876190Y-133348809D01*
X132935714Y-133586904D01*
X133054761Y-133705952D01*
X133173809Y-133765476D01*
X133411904Y-133765476D01*
X133530952Y-133705952D01*
X133650000Y-133586904D01*
X133709523Y-133348809D01*
X133709523Y-132932142D01*
X133650000Y-132694047D01*
X133530952Y-132575000D01*
X133411904Y-132515476D01*
X131685714Y-133765476D02*
X132400000Y-133765476D01*
X132042857Y-133765476D02*
X132042857Y-132515476D01*
X132161904Y-132694047D01*
X132280952Y-132813095D01*
X132400000Y-132872619D01*
X131090476Y-133765476D02*
X130852380Y-133765476D01*
X130733333Y-133705952D01*
X130673809Y-133646428D01*
X130554761Y-133467857D01*
X130495238Y-133229761D01*
X130495238Y-132753571D01*
X130554761Y-132634523D01*
X130614285Y-132575000D01*
X130733333Y-132515476D01*
X130971428Y-132515476D01*
X131090476Y-132575000D01*
X131150000Y-132634523D01*
X131209523Y-132753571D01*
X131209523Y-133051190D01*
X131150000Y-133170238D01*
X131090476Y-133229761D01*
X130971428Y-133289285D01*
X130733333Y-133289285D01*
X130614285Y-133229761D01*
X130554761Y-133170238D01*
X130495238Y-133051190D01*
D11*
X139192857Y-110657142D02*
X138978571Y-110728571D01*
X138621428Y-110728571D01*
X138478571Y-110657142D01*
X138407142Y-110585714D01*
X138335714Y-110442857D01*
X138335714Y-110300000D01*
X138407142Y-110157142D01*
X138478571Y-110085714D01*
X138621428Y-110014285D01*
X138907142Y-109942857D01*
X139050000Y-109871428D01*
X139121428Y-109800000D01*
X139192857Y-109657142D01*
X139192857Y-109514285D01*
X139121428Y-109371428D01*
X139050000Y-109300000D01*
X138907142Y-109228571D01*
X138550000Y-109228571D01*
X138335714Y-109300000D01*
X137692857Y-110728571D02*
X137692857Y-109728571D01*
X137692857Y-109871428D02*
X137621428Y-109800000D01*
X137478571Y-109728571D01*
X137264285Y-109728571D01*
X137121428Y-109800000D01*
X137050000Y-109942857D01*
X137050000Y-110728571D01*
X137050000Y-109942857D02*
X136978571Y-109800000D01*
X136835714Y-109728571D01*
X136621428Y-109728571D01*
X136478571Y-109800000D01*
X136407142Y-109942857D01*
X136407142Y-110728571D01*
X135050000Y-110728571D02*
X135050000Y-109942857D01*
X135121428Y-109800000D01*
X135264285Y-109728571D01*
X135550000Y-109728571D01*
X135692857Y-109800000D01*
X135050000Y-110657142D02*
X135192857Y-110728571D01*
X135550000Y-110728571D01*
X135692857Y-110657142D01*
X135764285Y-110514285D01*
X135764285Y-110371428D01*
X135692857Y-110228571D01*
X135550000Y-110157142D01*
X135192857Y-110157142D01*
X135050000Y-110085714D01*
X134121428Y-110728571D02*
X134264285Y-110657142D01*
X134335714Y-110514285D01*
X134335714Y-109228571D01*
X133335714Y-110728571D02*
X133478571Y-110657142D01*
X133550000Y-110514285D01*
X133550000Y-109228571D01*
X132764285Y-110728571D02*
X132764285Y-109228571D01*
X131907142Y-110728571D02*
X132550000Y-109871428D01*
X131907142Y-109228571D02*
X132764285Y-110085714D01*
X130621428Y-110728571D02*
X130621428Y-109942857D01*
X130692857Y-109800000D01*
X130835714Y-109728571D01*
X131121428Y-109728571D01*
X131264285Y-109800000D01*
X130621428Y-110657142D02*
X130764285Y-110728571D01*
X131121428Y-110728571D01*
X131264285Y-110657142D01*
X131335714Y-110514285D01*
X131335714Y-110371428D01*
X131264285Y-110228571D01*
X131121428Y-110157142D01*
X130764285Y-110157142D01*
X130621428Y-110085714D01*
X130121428Y-109728571D02*
X129549999Y-109728571D01*
X129907142Y-109228571D02*
X129907142Y-110514285D01*
X129835714Y-110657142D01*
X129692857Y-110728571D01*
X129549999Y-110728571D01*
X127907142Y-110728571D02*
X127907142Y-109228571D01*
X127407142Y-110300000D01*
X126907142Y-109228571D01*
X126907142Y-110728571D01*
X125978571Y-110728571D02*
X126121428Y-110657142D01*
X126192857Y-110585714D01*
X126264285Y-110442857D01*
X126264285Y-110014285D01*
X126192857Y-109871428D01*
X126121428Y-109800000D01*
X125978571Y-109728571D01*
X125764285Y-109728571D01*
X125621428Y-109800000D01*
X125549999Y-109871428D01*
X125478571Y-110014285D01*
X125478571Y-110442857D01*
X125549999Y-110585714D01*
X125621428Y-110657142D01*
X125764285Y-110728571D01*
X125978571Y-110728571D01*
X125049999Y-109728571D02*
X124478571Y-109728571D01*
X124835714Y-109228571D02*
X124835714Y-110514285D01*
X124764285Y-110657142D01*
X124621428Y-110728571D01*
X124478571Y-110728571D01*
X123978571Y-110728571D02*
X123978571Y-109228571D01*
X123335714Y-110728571D02*
X123335714Y-109942857D01*
X123407142Y-109800000D01*
X123550000Y-109728571D01*
X123764285Y-109728571D01*
X123907142Y-109800000D01*
X123978571Y-109871428D01*
X122050000Y-110657142D02*
X122192857Y-110728571D01*
X122478571Y-110728571D01*
X122621428Y-110657142D01*
X122692857Y-110514285D01*
X122692857Y-109942857D01*
X122621428Y-109800000D01*
X122478571Y-109728571D01*
X122192857Y-109728571D01*
X122050000Y-109800000D01*
X121978571Y-109942857D01*
X121978571Y-110085714D01*
X122692857Y-110228571D01*
X121335714Y-110728571D02*
X121335714Y-109728571D01*
X121335714Y-110014285D02*
X121264285Y-109871428D01*
X121192857Y-109800000D01*
X121050000Y-109728571D01*
X120907142Y-109728571D01*
X118764285Y-109942857D02*
X118550000Y-110014285D01*
X118478571Y-110085714D01*
X118407142Y-110228571D01*
X118407142Y-110442857D01*
X118478571Y-110585714D01*
X118550000Y-110657142D01*
X118692857Y-110728571D01*
X119264285Y-110728571D01*
X119264285Y-109228571D01*
X118764285Y-109228571D01*
X118621428Y-109300000D01*
X118550000Y-109371428D01*
X118478571Y-109514285D01*
X118478571Y-109657142D01*
X118550000Y-109800000D01*
X118621428Y-109871428D01*
X118764285Y-109942857D01*
X119264285Y-109942857D01*
X117550000Y-110728571D02*
X117692857Y-110657142D01*
X117764285Y-110585714D01*
X117835714Y-110442857D01*
X117835714Y-110014285D01*
X117764285Y-109871428D01*
X117692857Y-109800000D01*
X117550000Y-109728571D01*
X117335714Y-109728571D01*
X117192857Y-109800000D01*
X117121428Y-109871428D01*
X117050000Y-110014285D01*
X117050000Y-110442857D01*
X117121428Y-110585714D01*
X117192857Y-110657142D01*
X117335714Y-110728571D01*
X117550000Y-110728571D01*
X115764285Y-110728571D02*
X115764285Y-109942857D01*
X115835714Y-109800000D01*
X115978571Y-109728571D01*
X116264285Y-109728571D01*
X116407142Y-109800000D01*
X115764285Y-110657142D02*
X115907142Y-110728571D01*
X116264285Y-110728571D01*
X116407142Y-110657142D01*
X116478571Y-110514285D01*
X116478571Y-110371428D01*
X116407142Y-110228571D01*
X116264285Y-110157142D01*
X115907142Y-110157142D01*
X115764285Y-110085714D01*
X115050000Y-110728571D02*
X115050000Y-109728571D01*
X115050000Y-110014285D02*
X114978571Y-109871428D01*
X114907142Y-109800000D01*
X114764285Y-109728571D01*
X114621428Y-109728571D01*
X113478571Y-110728571D02*
X113478571Y-109228571D01*
X113478571Y-110657142D02*
X113621428Y-110728571D01*
X113907142Y-110728571D01*
X114050000Y-110657142D01*
X114121428Y-110585714D01*
X114192857Y-110442857D01*
X114192857Y-110014285D01*
X114121428Y-109871428D01*
X114050000Y-109800000D01*
X113907142Y-109728571D01*
X113621428Y-109728571D01*
X113478571Y-109800000D01*
D10*
X130926190Y-113752380D02*
X130926190Y-112752380D01*
X130354761Y-113752380D02*
X130783333Y-113180952D01*
X130354761Y-112752380D02*
X130926190Y-113323809D01*
X129545238Y-113704761D02*
X129640476Y-113752380D01*
X129830952Y-113752380D01*
X129926190Y-113704761D01*
X129973809Y-113609523D01*
X129973809Y-113228571D01*
X129926190Y-113133333D01*
X129830952Y-113085714D01*
X129640476Y-113085714D01*
X129545238Y-113133333D01*
X129497619Y-113228571D01*
X129497619Y-113323809D01*
X129973809Y-113419047D01*
X129069047Y-113752380D02*
X129069047Y-113085714D01*
X129069047Y-112752380D02*
X129116666Y-112800000D01*
X129069047Y-112847619D01*
X129021428Y-112800000D01*
X129069047Y-112752380D01*
X129069047Y-112847619D01*
X128450000Y-113752380D02*
X128545238Y-113704761D01*
X128592857Y-113657142D01*
X128640476Y-113561904D01*
X128640476Y-113276190D01*
X128592857Y-113180952D01*
X128545238Y-113133333D01*
X128450000Y-113085714D01*
X128307142Y-113085714D01*
X128211904Y-113133333D01*
X128164285Y-113180952D01*
X128116666Y-113276190D01*
X128116666Y-113561904D01*
X128164285Y-113657142D01*
X128211904Y-113704761D01*
X128307142Y-113752380D01*
X128450000Y-113752380D01*
X127688095Y-113085714D02*
X127688095Y-113752380D01*
X127688095Y-113180952D02*
X127640476Y-113133333D01*
X127545238Y-113085714D01*
X127402380Y-113085714D01*
X127307142Y-113133333D01*
X127259523Y-113228571D01*
X127259523Y-113752380D01*
X125688095Y-113228571D02*
X125545238Y-113276190D01*
X125497619Y-113323809D01*
X125450000Y-113419047D01*
X125450000Y-113561904D01*
X125497619Y-113657142D01*
X125545238Y-113704761D01*
X125640476Y-113752380D01*
X126021428Y-113752380D01*
X126021428Y-112752380D01*
X125688095Y-112752380D01*
X125592857Y-112800000D01*
X125545238Y-112847619D01*
X125497619Y-112942857D01*
X125497619Y-113038095D01*
X125545238Y-113133333D01*
X125592857Y-113180952D01*
X125688095Y-113228571D01*
X126021428Y-113228571D01*
X125021428Y-113752380D02*
X125021428Y-113085714D01*
X125021428Y-112752380D02*
X125069047Y-112800000D01*
X125021428Y-112847619D01*
X124973809Y-112800000D01*
X125021428Y-112752380D01*
X125021428Y-112847619D01*
X124592857Y-113704761D02*
X124497619Y-113752380D01*
X124307142Y-113752380D01*
X124211904Y-113704761D01*
X124164285Y-113609523D01*
X124164285Y-113561904D01*
X124211904Y-113466666D01*
X124307142Y-113419047D01*
X124450000Y-113419047D01*
X124545238Y-113371428D01*
X124592857Y-113276190D01*
X124592857Y-113228571D01*
X124545238Y-113133333D01*
X124450000Y-113085714D01*
X124307142Y-113085714D01*
X124211904Y-113133333D01*
X123592857Y-113752380D02*
X123688095Y-113704761D01*
X123735714Y-113609523D01*
X123735714Y-112752380D01*
X122783333Y-113752380D02*
X122783333Y-113228571D01*
X122830952Y-113133333D01*
X122926190Y-113085714D01*
X123116666Y-113085714D01*
X123211904Y-113133333D01*
X122783333Y-113704761D02*
X122878571Y-113752380D01*
X123116666Y-113752380D01*
X123211904Y-113704761D01*
X123259523Y-113609523D01*
X123259523Y-113514285D01*
X123211904Y-113419047D01*
X123116666Y-113371428D01*
X122878571Y-113371428D01*
X122783333Y-113323809D01*
X122307142Y-113085714D02*
X122307142Y-113752380D01*
X122307142Y-113180952D02*
X122259523Y-113133333D01*
X122164285Y-113085714D01*
X122021428Y-113085714D01*
X121926190Y-113133333D01*
X121878571Y-113228571D01*
X121878571Y-113752380D01*
X120973809Y-113752380D02*
X120973809Y-112752380D01*
X120973809Y-113704761D02*
X121069047Y-113752380D01*
X121259523Y-113752380D01*
X121354761Y-113704761D01*
X121402380Y-113657142D01*
X121450000Y-113561904D01*
X121450000Y-113276190D01*
X121402380Y-113180952D01*
X121354761Y-113133333D01*
X121259523Y-113085714D01*
X121069047Y-113085714D01*
X120973809Y-113133333D01*
X127671428Y-112202380D02*
X128004761Y-111726190D01*
X128242857Y-112202380D02*
X128242857Y-111202380D01*
X127861904Y-111202380D01*
X127766666Y-111250000D01*
X127719047Y-111297619D01*
X127671428Y-111392857D01*
X127671428Y-111535714D01*
X127719047Y-111630952D01*
X127766666Y-111678571D01*
X127861904Y-111726190D01*
X128242857Y-111726190D01*
X126861904Y-112154761D02*
X126957142Y-112202380D01*
X127147619Y-112202380D01*
X127242857Y-112154761D01*
X127290476Y-112059523D01*
X127290476Y-111678571D01*
X127242857Y-111583333D01*
X127147619Y-111535714D01*
X126957142Y-111535714D01*
X126861904Y-111583333D01*
X126814285Y-111678571D01*
X126814285Y-111773809D01*
X127290476Y-111869047D01*
X126480952Y-111535714D02*
X126242857Y-112202380D01*
X126004761Y-111535714D01*
X124338095Y-112202380D02*
X124909523Y-112202380D01*
X124623809Y-112202380D02*
X124623809Y-111202380D01*
X124719047Y-111345238D01*
X124814285Y-111440476D01*
X124909523Y-111488095D01*
X123909523Y-112107142D02*
X123861904Y-112154761D01*
X123909523Y-112202380D01*
X123957142Y-112154761D01*
X123909523Y-112107142D01*
X123909523Y-112202380D01*
X122909523Y-112202380D02*
X123480952Y-112202380D01*
X123195238Y-112202380D02*
X123195238Y-111202380D01*
X123290476Y-111345238D01*
X123385714Y-111440476D01*
X123480952Y-111488095D01*
X159826190Y-82052380D02*
X159826190Y-81052380D01*
X159254761Y-82052380D02*
X159683333Y-81480952D01*
X159254761Y-81052380D02*
X159826190Y-81623809D01*
X158445238Y-82004761D02*
X158540476Y-82052380D01*
X158730952Y-82052380D01*
X158826190Y-82004761D01*
X158873809Y-81909523D01*
X158873809Y-81528571D01*
X158826190Y-81433333D01*
X158730952Y-81385714D01*
X158540476Y-81385714D01*
X158445238Y-81433333D01*
X158397619Y-81528571D01*
X158397619Y-81623809D01*
X158873809Y-81719047D01*
X157969047Y-82052380D02*
X157969047Y-81385714D01*
X157969047Y-81052380D02*
X158016666Y-81100000D01*
X157969047Y-81147619D01*
X157921428Y-81100000D01*
X157969047Y-81052380D01*
X157969047Y-81147619D01*
X157350000Y-82052380D02*
X157445238Y-82004761D01*
X157492857Y-81957142D01*
X157540476Y-81861904D01*
X157540476Y-81576190D01*
X157492857Y-81480952D01*
X157445238Y-81433333D01*
X157350000Y-81385714D01*
X157207142Y-81385714D01*
X157111904Y-81433333D01*
X157064285Y-81480952D01*
X157016666Y-81576190D01*
X157016666Y-81861904D01*
X157064285Y-81957142D01*
X157111904Y-82004761D01*
X157207142Y-82052380D01*
X157350000Y-82052380D01*
X156588095Y-81385714D02*
X156588095Y-82052380D01*
X156588095Y-81480952D02*
X156540476Y-81433333D01*
X156445238Y-81385714D01*
X156302380Y-81385714D01*
X156207142Y-81433333D01*
X156159523Y-81528571D01*
X156159523Y-82052380D01*
X154588095Y-81528571D02*
X154445238Y-81576190D01*
X154397619Y-81623809D01*
X154350000Y-81719047D01*
X154350000Y-81861904D01*
X154397619Y-81957142D01*
X154445238Y-82004761D01*
X154540476Y-82052380D01*
X154921428Y-82052380D01*
X154921428Y-81052380D01*
X154588095Y-81052380D01*
X154492857Y-81100000D01*
X154445238Y-81147619D01*
X154397619Y-81242857D01*
X154397619Y-81338095D01*
X154445238Y-81433333D01*
X154492857Y-81480952D01*
X154588095Y-81528571D01*
X154921428Y-81528571D01*
X153921428Y-82052380D02*
X153921428Y-81385714D01*
X153921428Y-81052380D02*
X153969047Y-81100000D01*
X153921428Y-81147619D01*
X153873809Y-81100000D01*
X153921428Y-81052380D01*
X153921428Y-81147619D01*
X153492857Y-82004761D02*
X153397619Y-82052380D01*
X153207142Y-82052380D01*
X153111904Y-82004761D01*
X153064285Y-81909523D01*
X153064285Y-81861904D01*
X153111904Y-81766666D01*
X153207142Y-81719047D01*
X153350000Y-81719047D01*
X153445238Y-81671428D01*
X153492857Y-81576190D01*
X153492857Y-81528571D01*
X153445238Y-81433333D01*
X153350000Y-81385714D01*
X153207142Y-81385714D01*
X153111904Y-81433333D01*
X152492857Y-82052380D02*
X152588095Y-82004761D01*
X152635714Y-81909523D01*
X152635714Y-81052380D01*
X151683333Y-82052380D02*
X151683333Y-81528571D01*
X151730952Y-81433333D01*
X151826190Y-81385714D01*
X152016666Y-81385714D01*
X152111904Y-81433333D01*
X151683333Y-82004761D02*
X151778571Y-82052380D01*
X152016666Y-82052380D01*
X152111904Y-82004761D01*
X152159523Y-81909523D01*
X152159523Y-81814285D01*
X152111904Y-81719047D01*
X152016666Y-81671428D01*
X151778571Y-81671428D01*
X151683333Y-81623809D01*
X151207142Y-81385714D02*
X151207142Y-82052380D01*
X151207142Y-81480952D02*
X151159523Y-81433333D01*
X151064285Y-81385714D01*
X150921428Y-81385714D01*
X150826190Y-81433333D01*
X150778571Y-81528571D01*
X150778571Y-82052380D01*
X149873809Y-82052380D02*
X149873809Y-81052380D01*
X149873809Y-82004761D02*
X149969047Y-82052380D01*
X150159523Y-82052380D01*
X150254761Y-82004761D01*
X150302380Y-81957142D01*
X150350000Y-81861904D01*
X150350000Y-81576190D01*
X150302380Y-81480952D01*
X150254761Y-81433333D01*
X150159523Y-81385714D01*
X149969047Y-81385714D01*
X149873809Y-81433333D01*
X156571428Y-80502380D02*
X156904761Y-80026190D01*
X157142857Y-80502380D02*
X157142857Y-79502380D01*
X156761904Y-79502380D01*
X156666666Y-79550000D01*
X156619047Y-79597619D01*
X156571428Y-79692857D01*
X156571428Y-79835714D01*
X156619047Y-79930952D01*
X156666666Y-79978571D01*
X156761904Y-80026190D01*
X157142857Y-80026190D01*
X155761904Y-80454761D02*
X155857142Y-80502380D01*
X156047619Y-80502380D01*
X156142857Y-80454761D01*
X156190476Y-80359523D01*
X156190476Y-79978571D01*
X156142857Y-79883333D01*
X156047619Y-79835714D01*
X155857142Y-79835714D01*
X155761904Y-79883333D01*
X155714285Y-79978571D01*
X155714285Y-80073809D01*
X156190476Y-80169047D01*
X155380952Y-79835714D02*
X155142857Y-80502380D01*
X154904761Y-79835714D01*
X153238095Y-80502380D02*
X153809523Y-80502380D01*
X153523809Y-80502380D02*
X153523809Y-79502380D01*
X153619047Y-79645238D01*
X153714285Y-79740476D01*
X153809523Y-79788095D01*
X152809523Y-80407142D02*
X152761904Y-80454761D01*
X152809523Y-80502380D01*
X152857142Y-80454761D01*
X152809523Y-80407142D01*
X152809523Y-80502380D01*
X151809523Y-80502380D02*
X152380952Y-80502380D01*
X152095238Y-80502380D02*
X152095238Y-79502380D01*
X152190476Y-79645238D01*
X152285714Y-79740476D01*
X152380952Y-79788095D01*
D11*
X165285714Y-76407142D02*
X165071428Y-76478571D01*
X164714285Y-76478571D01*
X164571428Y-76407142D01*
X164500000Y-76335714D01*
X164428571Y-76192857D01*
X164428571Y-76050000D01*
X164500000Y-75907142D01*
X164571428Y-75835714D01*
X164714285Y-75764285D01*
X165000000Y-75692857D01*
X165142857Y-75621428D01*
X165214285Y-75550000D01*
X165285714Y-75407142D01*
X165285714Y-75264285D01*
X165214285Y-75121428D01*
X165142857Y-75050000D01*
X165000000Y-74978571D01*
X164642857Y-74978571D01*
X164428571Y-75050000D01*
X163785714Y-76478571D02*
X163785714Y-75478571D01*
X163785714Y-75621428D02*
X163714285Y-75550000D01*
X163571428Y-75478571D01*
X163357142Y-75478571D01*
X163214285Y-75550000D01*
X163142857Y-75692857D01*
X163142857Y-76478571D01*
X163142857Y-75692857D02*
X163071428Y-75550000D01*
X162928571Y-75478571D01*
X162714285Y-75478571D01*
X162571428Y-75550000D01*
X162500000Y-75692857D01*
X162500000Y-76478571D01*
X161142857Y-76478571D02*
X161142857Y-75692857D01*
X161214285Y-75550000D01*
X161357142Y-75478571D01*
X161642857Y-75478571D01*
X161785714Y-75550000D01*
X161142857Y-76407142D02*
X161285714Y-76478571D01*
X161642857Y-76478571D01*
X161785714Y-76407142D01*
X161857142Y-76264285D01*
X161857142Y-76121428D01*
X161785714Y-75978571D01*
X161642857Y-75907142D01*
X161285714Y-75907142D01*
X161142857Y-75835714D01*
X160214285Y-76478571D02*
X160357142Y-76407142D01*
X160428571Y-76264285D01*
X160428571Y-74978571D01*
X159428571Y-76478571D02*
X159571428Y-76407142D01*
X159642857Y-76264285D01*
X159642857Y-74978571D01*
X158857142Y-76478571D02*
X158857142Y-74978571D01*
X158000000Y-76478571D02*
X158642857Y-75621428D01*
X158000000Y-74978571D02*
X158857142Y-75835714D01*
X156714285Y-76478571D02*
X156714285Y-75692857D01*
X156785714Y-75550000D01*
X156928571Y-75478571D01*
X157214285Y-75478571D01*
X157357142Y-75550000D01*
X156714285Y-76407142D02*
X156857142Y-76478571D01*
X157214285Y-76478571D01*
X157357142Y-76407142D01*
X157428571Y-76264285D01*
X157428571Y-76121428D01*
X157357142Y-75978571D01*
X157214285Y-75907142D01*
X156857142Y-75907142D01*
X156714285Y-75835714D01*
X156214285Y-75478571D02*
X155642857Y-75478571D01*
X156000000Y-74978571D02*
X156000000Y-76264285D01*
X155928571Y-76407142D01*
X155785714Y-76478571D01*
X155642857Y-76478571D01*
X153142857Y-76478571D02*
X153642857Y-75764285D01*
X154000000Y-76478571D02*
X154000000Y-74978571D01*
X153428571Y-74978571D01*
X153285714Y-75050000D01*
X153214285Y-75121428D01*
X153142857Y-75264285D01*
X153142857Y-75478571D01*
X153214285Y-75621428D01*
X153285714Y-75692857D01*
X153428571Y-75764285D01*
X154000000Y-75764285D01*
X151928571Y-76407142D02*
X152071428Y-76478571D01*
X152357142Y-76478571D01*
X152500000Y-76407142D01*
X152571428Y-76264285D01*
X152571428Y-75692857D01*
X152500000Y-75550000D01*
X152357142Y-75478571D01*
X152071428Y-75478571D01*
X151928571Y-75550000D01*
X151857142Y-75692857D01*
X151857142Y-75835714D01*
X152571428Y-75978571D01*
X151214285Y-76478571D02*
X151214285Y-75478571D01*
X151214285Y-75621428D02*
X151142857Y-75550000D01*
X151000000Y-75478571D01*
X150785714Y-75478571D01*
X150642857Y-75550000D01*
X150571428Y-75692857D01*
X150571428Y-76478571D01*
X150571428Y-75692857D02*
X150500000Y-75550000D01*
X150357142Y-75478571D01*
X150142857Y-75478571D01*
X150000000Y-75550000D01*
X149928571Y-75692857D01*
X149928571Y-76478571D01*
X149000000Y-76478571D02*
X149142857Y-76407142D01*
X149214285Y-76335714D01*
X149285714Y-76192857D01*
X149285714Y-75764285D01*
X149214285Y-75621428D01*
X149142857Y-75550000D01*
X149000000Y-75478571D01*
X148785714Y-75478571D01*
X148642857Y-75550000D01*
X148571428Y-75621428D01*
X148500000Y-75764285D01*
X148500000Y-76192857D01*
X148571428Y-76335714D01*
X148642857Y-76407142D01*
X148785714Y-76478571D01*
X149000000Y-76478571D01*
X148071428Y-75478571D02*
X147500000Y-75478571D01*
X147857142Y-74978571D02*
X147857142Y-76264285D01*
X147785714Y-76407142D01*
X147642857Y-76478571D01*
X147500000Y-76478571D01*
X146428571Y-76407142D02*
X146571428Y-76478571D01*
X146857142Y-76478571D01*
X147000000Y-76407142D01*
X147071428Y-76264285D01*
X147071428Y-75692857D01*
X147000000Y-75550000D01*
X146857142Y-75478571D01*
X146571428Y-75478571D01*
X146428571Y-75550000D01*
X146357142Y-75692857D01*
X146357142Y-75835714D01*
X147071428Y-75978571D01*
X163428571Y-78835714D02*
X163500000Y-78907142D01*
X163714285Y-78978571D01*
X163857142Y-78978571D01*
X164071428Y-78907142D01*
X164214285Y-78764285D01*
X164285714Y-78621428D01*
X164357142Y-78335714D01*
X164357142Y-78121428D01*
X164285714Y-77835714D01*
X164214285Y-77692857D01*
X164071428Y-77550000D01*
X163857142Y-77478571D01*
X163714285Y-77478571D01*
X163500000Y-77550000D01*
X163428571Y-77621428D01*
X162571428Y-78978571D02*
X162714285Y-78907142D01*
X162785714Y-78835714D01*
X162857142Y-78692857D01*
X162857142Y-78264285D01*
X162785714Y-78121428D01*
X162714285Y-78050000D01*
X162571428Y-77978571D01*
X162357142Y-77978571D01*
X162214285Y-78050000D01*
X162142857Y-78121428D01*
X162071428Y-78264285D01*
X162071428Y-78692857D01*
X162142857Y-78835714D01*
X162214285Y-78907142D01*
X162357142Y-78978571D01*
X162571428Y-78978571D01*
X161428571Y-77978571D02*
X161428571Y-78978571D01*
X161428571Y-78121428D02*
X161357142Y-78050000D01*
X161214285Y-77978571D01*
X161000000Y-77978571D01*
X160857142Y-78050000D01*
X160785714Y-78192857D01*
X160785714Y-78978571D01*
X160285714Y-77978571D02*
X159714285Y-77978571D01*
X160071428Y-77478571D02*
X160071428Y-78764285D01*
X160000000Y-78907142D01*
X159857142Y-78978571D01*
X159714285Y-78978571D01*
X159214285Y-78978571D02*
X159214285Y-77978571D01*
X159214285Y-78264285D02*
X159142857Y-78121428D01*
X159071428Y-78050000D01*
X158928571Y-77978571D01*
X158785714Y-77978571D01*
X158071428Y-78978571D02*
X158214285Y-78907142D01*
X158285714Y-78835714D01*
X158357142Y-78692857D01*
X158357142Y-78264285D01*
X158285714Y-78121428D01*
X158214285Y-78050000D01*
X158071428Y-77978571D01*
X157857142Y-77978571D01*
X157714285Y-78050000D01*
X157642857Y-78121428D01*
X157571428Y-78264285D01*
X157571428Y-78692857D01*
X157642857Y-78835714D01*
X157714285Y-78907142D01*
X157857142Y-78978571D01*
X158071428Y-78978571D01*
X156714285Y-78978571D02*
X156857142Y-78907142D01*
X156928571Y-78764285D01*
X156928571Y-77478571D01*
X155928571Y-78978571D02*
X156071428Y-78907142D01*
X156142857Y-78764285D01*
X156142857Y-77478571D01*
X154785714Y-78907142D02*
X154928571Y-78978571D01*
X155214285Y-78978571D01*
X155357142Y-78907142D01*
X155428571Y-78764285D01*
X155428571Y-78192857D01*
X155357142Y-78050000D01*
X155214285Y-77978571D01*
X154928571Y-77978571D01*
X154785714Y-78050000D01*
X154714285Y-78192857D01*
X154714285Y-78335714D01*
X155428571Y-78478571D01*
X154071428Y-78978571D02*
X154071428Y-77978571D01*
X154071428Y-78264285D02*
X154000000Y-78121428D01*
X153928571Y-78050000D01*
X153785714Y-77978571D01*
X153642857Y-77978571D01*
X151500000Y-78192857D02*
X151285714Y-78264285D01*
X151214285Y-78335714D01*
X151142857Y-78478571D01*
X151142857Y-78692857D01*
X151214285Y-78835714D01*
X151285714Y-78907142D01*
X151428571Y-78978571D01*
X152000000Y-78978571D01*
X152000000Y-77478571D01*
X151500000Y-77478571D01*
X151357142Y-77550000D01*
X151285714Y-77621428D01*
X151214285Y-77764285D01*
X151214285Y-77907142D01*
X151285714Y-78050000D01*
X151357142Y-78121428D01*
X151500000Y-78192857D01*
X152000000Y-78192857D01*
X150285714Y-78978571D02*
X150428571Y-78907142D01*
X150500000Y-78835714D01*
X150571428Y-78692857D01*
X150571428Y-78264285D01*
X150500000Y-78121428D01*
X150428571Y-78050000D01*
X150285714Y-77978571D01*
X150071428Y-77978571D01*
X149928571Y-78050000D01*
X149857142Y-78121428D01*
X149785714Y-78264285D01*
X149785714Y-78692857D01*
X149857142Y-78835714D01*
X149928571Y-78907142D01*
X150071428Y-78978571D01*
X150285714Y-78978571D01*
X148500000Y-78978571D02*
X148500000Y-78192857D01*
X148571428Y-78050000D01*
X148714285Y-77978571D01*
X149000000Y-77978571D01*
X149142857Y-78050000D01*
X148500000Y-78907142D02*
X148642857Y-78978571D01*
X149000000Y-78978571D01*
X149142857Y-78907142D01*
X149214285Y-78764285D01*
X149214285Y-78621428D01*
X149142857Y-78478571D01*
X149000000Y-78407142D01*
X148642857Y-78407142D01*
X148500000Y-78335714D01*
X147785714Y-78978571D02*
X147785714Y-77978571D01*
X147785714Y-78264285D02*
X147714285Y-78121428D01*
X147642857Y-78050000D01*
X147500000Y-77978571D01*
X147357142Y-77978571D01*
X146214285Y-78978571D02*
X146214285Y-77478571D01*
X146214285Y-78907142D02*
X146357142Y-78978571D01*
X146642857Y-78978571D01*
X146785714Y-78907142D01*
X146857142Y-78835714D01*
X146928571Y-78692857D01*
X146928571Y-78264285D01*
X146857142Y-78121428D01*
X146785714Y-78050000D01*
X146642857Y-77978571D01*
X146357142Y-77978571D01*
X146214285Y-78050000D01*
D10*
X167885714Y-105665476D02*
X167111904Y-105665476D01*
X167528571Y-106141666D01*
X167350000Y-106141666D01*
X167230952Y-106201190D01*
X167171428Y-106260714D01*
X167111904Y-106379761D01*
X167111904Y-106677380D01*
X167171428Y-106796428D01*
X167230952Y-106855952D01*
X167350000Y-106915476D01*
X167707142Y-106915476D01*
X167826190Y-106855952D01*
X167885714Y-106796428D01*
X166576190Y-106796428D02*
X166516666Y-106855952D01*
X166576190Y-106915476D01*
X166635714Y-106855952D01*
X166576190Y-106796428D01*
X166576190Y-106915476D01*
X166100000Y-105665476D02*
X165326190Y-105665476D01*
X165742857Y-106141666D01*
X165564285Y-106141666D01*
X165445238Y-106201190D01*
X165385714Y-106260714D01*
X165326190Y-106379761D01*
X165326190Y-106677380D01*
X165385714Y-106796428D01*
X165445238Y-106855952D01*
X165564285Y-106915476D01*
X165921428Y-106915476D01*
X166040476Y-106855952D01*
X166100000Y-106796428D01*
X164909523Y-106082142D02*
X164611904Y-106915476D01*
X164314285Y-106082142D01*
X153222619Y-88310714D02*
X153044047Y-88370238D01*
X152984523Y-88429761D01*
X152925000Y-88548809D01*
X152925000Y-88727380D01*
X152984523Y-88846428D01*
X153044047Y-88905952D01*
X153163095Y-88965476D01*
X153639285Y-88965476D01*
X153639285Y-87715476D01*
X153222619Y-87715476D01*
X153103571Y-87775000D01*
X153044047Y-87834523D01*
X152984523Y-87953571D01*
X152984523Y-88072619D01*
X153044047Y-88191666D01*
X153103571Y-88251190D01*
X153222619Y-88310714D01*
X153639285Y-88310714D01*
X152448809Y-88608333D02*
X151853571Y-88608333D01*
X152567857Y-88965476D02*
X152151190Y-87715476D01*
X151734523Y-88965476D01*
X151496428Y-87715476D02*
X150782142Y-87715476D01*
X151139285Y-88965476D02*
X151139285Y-87715476D01*
X150544047Y-87715476D02*
X149829761Y-87715476D01*
X150186904Y-88965476D02*
X150186904Y-87715476D01*
X149413095Y-88489285D02*
X148460714Y-88489285D01*
X148936904Y-88965476D02*
X148936904Y-88013095D01*
X148067857Y-106955952D02*
X147889285Y-107015476D01*
X147591666Y-107015476D01*
X147472619Y-106955952D01*
X147413095Y-106896428D01*
X147353571Y-106777380D01*
X147353571Y-106658333D01*
X147413095Y-106539285D01*
X147472619Y-106479761D01*
X147591666Y-106420238D01*
X147829761Y-106360714D01*
X147948809Y-106301190D01*
X148008333Y-106241666D01*
X148067857Y-106122619D01*
X148067857Y-106003571D01*
X148008333Y-105884523D01*
X147948809Y-105825000D01*
X147829761Y-105765476D01*
X147532142Y-105765476D01*
X147353571Y-105825000D01*
X146817857Y-107015476D02*
X146817857Y-105765476D01*
X146520238Y-105765476D01*
X146341666Y-105825000D01*
X146222619Y-105944047D01*
X146163095Y-106063095D01*
X146103571Y-106301190D01*
X146103571Y-106479761D01*
X146163095Y-106717857D01*
X146222619Y-106836904D01*
X146341666Y-106955952D01*
X146520238Y-107015476D01*
X146817857Y-107015476D01*
X145627380Y-106658333D02*
X145032142Y-106658333D01*
X145746428Y-107015476D02*
X145329761Y-105765476D01*
X144913095Y-107015476D01*
X151338095Y-112205952D02*
X151159523Y-112265476D01*
X150861904Y-112265476D01*
X150742857Y-112205952D01*
X150683333Y-112146428D01*
X150623809Y-112027380D01*
X150623809Y-111908333D01*
X150683333Y-111789285D01*
X150742857Y-111729761D01*
X150861904Y-111670238D01*
X151100000Y-111610714D01*
X151219047Y-111551190D01*
X151278571Y-111491666D01*
X151338095Y-111372619D01*
X151338095Y-111253571D01*
X151278571Y-111134523D01*
X151219047Y-111075000D01*
X151100000Y-111015476D01*
X150802380Y-111015476D01*
X150623809Y-111075000D01*
X149373809Y-112146428D02*
X149433333Y-112205952D01*
X149611904Y-112265476D01*
X149730952Y-112265476D01*
X149909523Y-112205952D01*
X150028571Y-112086904D01*
X150088095Y-111967857D01*
X150147619Y-111729761D01*
X150147619Y-111551190D01*
X150088095Y-111313095D01*
X150028571Y-111194047D01*
X149909523Y-111075000D01*
X149730952Y-111015476D01*
X149611904Y-111015476D01*
X149433333Y-111075000D01*
X149373809Y-111134523D01*
X148242857Y-112265476D02*
X148838095Y-112265476D01*
X148838095Y-111015476D01*
X153628571Y-130465476D02*
X153628571Y-129215476D01*
X153330952Y-129215476D01*
X153152380Y-129275000D01*
X153033333Y-129394047D01*
X152973809Y-129513095D01*
X152914285Y-129751190D01*
X152914285Y-129929761D01*
X152973809Y-130167857D01*
X153033333Y-130286904D01*
X153152380Y-130405952D01*
X153330952Y-130465476D01*
X153628571Y-130465476D01*
X152557142Y-129215476D02*
X151842857Y-129215476D01*
X152200000Y-130465476D02*
X152200000Y-129215476D01*
X150711904Y-130465476D02*
X151128571Y-129870238D01*
X151426190Y-130465476D02*
X151426190Y-129215476D01*
X150950000Y-129215476D01*
X150830952Y-129275000D01*
X150771428Y-129334523D01*
X150711904Y-129453571D01*
X150711904Y-129632142D01*
X150771428Y-129751190D01*
X150830952Y-129810714D01*
X150950000Y-129870238D01*
X151426190Y-129870238D01*
X146584523Y-136265476D02*
X147001190Y-135670238D01*
X147298809Y-136265476D02*
X147298809Y-135015476D01*
X146822619Y-135015476D01*
X146703571Y-135075000D01*
X146644047Y-135134523D01*
X146584523Y-135253571D01*
X146584523Y-135432142D01*
X146644047Y-135551190D01*
X146703571Y-135610714D01*
X146822619Y-135670238D01*
X147298809Y-135670238D01*
X146227380Y-135015476D02*
X145513095Y-135015476D01*
X145870238Y-136265476D02*
X145870238Y-135015476D01*
X145155952Y-136205952D02*
X144977380Y-136265476D01*
X144679761Y-136265476D01*
X144560714Y-136205952D01*
X144501190Y-136146428D01*
X144441666Y-136027380D01*
X144441666Y-135908333D01*
X144501190Y-135789285D01*
X144560714Y-135729761D01*
X144679761Y-135670238D01*
X144917857Y-135610714D01*
X145036904Y-135551190D01*
X145096428Y-135491666D01*
X145155952Y-135372619D01*
X145155952Y-135253571D01*
X145096428Y-135134523D01*
X145036904Y-135075000D01*
X144917857Y-135015476D01*
X144620238Y-135015476D01*
X144441666Y-135075000D01*
X123602380Y-133065476D02*
X122888095Y-133065476D01*
X123245238Y-134315476D02*
X123245238Y-133065476D01*
X122590476Y-133065476D02*
X121757142Y-134315476D01*
X121757142Y-133065476D02*
X122590476Y-134315476D01*
X127108333Y-134315476D02*
X127525000Y-133720238D01*
X127822619Y-134315476D02*
X127822619Y-133065476D01*
X127346428Y-133065476D01*
X127227380Y-133125000D01*
X127167857Y-133184523D01*
X127108333Y-133303571D01*
X127108333Y-133482142D01*
X127167857Y-133601190D01*
X127227380Y-133660714D01*
X127346428Y-133720238D01*
X127822619Y-133720238D01*
X126691666Y-133065476D02*
X125858333Y-134315476D01*
X125858333Y-133065476D02*
X126691666Y-134315476D01*
X132527380Y-126710714D02*
X132348809Y-126770238D01*
X132289285Y-126829761D01*
X132229761Y-126948809D01*
X132229761Y-127127380D01*
X132289285Y-127246428D01*
X132348809Y-127305952D01*
X132467857Y-127365476D01*
X132944047Y-127365476D01*
X132944047Y-126115476D01*
X132527380Y-126115476D01*
X132408333Y-126175000D01*
X132348809Y-126234523D01*
X132289285Y-126353571D01*
X132289285Y-126472619D01*
X132348809Y-126591666D01*
X132408333Y-126651190D01*
X132527380Y-126710714D01*
X132944047Y-126710714D01*
X131753571Y-127008333D02*
X131158333Y-127008333D01*
X131872619Y-127365476D02*
X131455952Y-126115476D01*
X131039285Y-127365476D01*
X130801190Y-126115476D02*
X130086904Y-126115476D01*
X130444047Y-127365476D02*
X130444047Y-126115476D01*
X129848809Y-126115476D02*
X129134523Y-126115476D01*
X129491666Y-127365476D02*
X129491666Y-126115476D01*
X127765476Y-127365476D02*
X127765476Y-126115476D01*
X127170238Y-127365476D02*
X127170238Y-126115476D01*
X126455952Y-127365476D01*
X126455952Y-126115476D01*
X116738095Y-97015476D02*
X116976190Y-97015476D01*
X117095238Y-97075000D01*
X117154761Y-97134523D01*
X117273809Y-97313095D01*
X117333333Y-97551190D01*
X117333333Y-98027380D01*
X117273809Y-98146428D01*
X117214285Y-98205952D01*
X117095238Y-98265476D01*
X116857142Y-98265476D01*
X116738095Y-98205952D01*
X116678571Y-98146428D01*
X116619047Y-98027380D01*
X116619047Y-97729761D01*
X116678571Y-97610714D01*
X116738095Y-97551190D01*
X116857142Y-97491666D01*
X117095238Y-97491666D01*
X117214285Y-97551190D01*
X117273809Y-97610714D01*
X117333333Y-97729761D01*
X116202380Y-97432142D02*
X115904761Y-98265476D01*
X115607142Y-97432142D01*
X140902380Y-93975000D02*
X141021428Y-93915476D01*
X141200000Y-93915476D01*
X141378571Y-93975000D01*
X141497619Y-94094047D01*
X141557142Y-94213095D01*
X141616666Y-94451190D01*
X141616666Y-94629761D01*
X141557142Y-94867857D01*
X141497619Y-94986904D01*
X141378571Y-95105952D01*
X141200000Y-95165476D01*
X141080952Y-95165476D01*
X140902380Y-95105952D01*
X140842857Y-95046428D01*
X140842857Y-94629761D01*
X141080952Y-94629761D01*
X140307142Y-95165476D02*
X140307142Y-93915476D01*
X139592857Y-95165476D01*
X139592857Y-93915476D01*
X138997619Y-95165476D02*
X138997619Y-93915476D01*
X138700000Y-93915476D01*
X138521428Y-93975000D01*
X138402380Y-94094047D01*
X138342857Y-94213095D01*
X138283333Y-94451190D01*
X138283333Y-94629761D01*
X138342857Y-94867857D01*
X138402380Y-94986904D01*
X138521428Y-95105952D01*
X138700000Y-95165476D01*
X138997619Y-95165476D01*
X134985714Y-81315476D02*
X134211904Y-81315476D01*
X134628571Y-81791666D01*
X134450000Y-81791666D01*
X134330952Y-81851190D01*
X134271428Y-81910714D01*
X134211904Y-82029761D01*
X134211904Y-82327380D01*
X134271428Y-82446428D01*
X134330952Y-82505952D01*
X134450000Y-82565476D01*
X134807142Y-82565476D01*
X134926190Y-82505952D01*
X134985714Y-82446428D01*
X133676190Y-82446428D02*
X133616666Y-82505952D01*
X133676190Y-82565476D01*
X133735714Y-82505952D01*
X133676190Y-82446428D01*
X133676190Y-82565476D01*
X133200000Y-81315476D02*
X132426190Y-81315476D01*
X132842857Y-81791666D01*
X132664285Y-81791666D01*
X132545238Y-81851190D01*
X132485714Y-81910714D01*
X132426190Y-82029761D01*
X132426190Y-82327380D01*
X132485714Y-82446428D01*
X132545238Y-82505952D01*
X132664285Y-82565476D01*
X133021428Y-82565476D01*
X133140476Y-82505952D01*
X133200000Y-82446428D01*
X132009523Y-81732142D02*
X131711904Y-82565476D01*
X131414285Y-81732142D01*
X116128571Y-75165476D02*
X116723809Y-75165476D01*
X116783333Y-75760714D01*
X116723809Y-75701190D01*
X116604761Y-75641666D01*
X116307142Y-75641666D01*
X116188095Y-75701190D01*
X116128571Y-75760714D01*
X116069047Y-75879761D01*
X116069047Y-76177380D01*
X116128571Y-76296428D01*
X116188095Y-76355952D01*
X116307142Y-76415476D01*
X116604761Y-76415476D01*
X116723809Y-76355952D01*
X116783333Y-76296428D01*
X115652380Y-75582142D02*
X115354761Y-76415476D01*
X115057142Y-75582142D01*
X133428571Y-68215476D02*
X133428571Y-66965476D01*
X133130952Y-66965476D01*
X132952380Y-67025000D01*
X132833333Y-67144047D01*
X132773809Y-67263095D01*
X132714285Y-67501190D01*
X132714285Y-67679761D01*
X132773809Y-67917857D01*
X132833333Y-68036904D01*
X132952380Y-68155952D01*
X133130952Y-68215476D01*
X133428571Y-68215476D01*
X132357142Y-66965476D02*
X131642857Y-66965476D01*
X132000000Y-68215476D02*
X132000000Y-66965476D01*
X130511904Y-68215476D02*
X130928571Y-67620238D01*
X131226190Y-68215476D02*
X131226190Y-66965476D01*
X130750000Y-66965476D01*
X130630952Y-67025000D01*
X130571428Y-67084523D01*
X130511904Y-67203571D01*
X130511904Y-67382142D01*
X130571428Y-67501190D01*
X130630952Y-67560714D01*
X130750000Y-67620238D01*
X131226190Y-67620238D01*
X156208333Y-60965476D02*
X156625000Y-60370238D01*
X156922619Y-60965476D02*
X156922619Y-59715476D01*
X156446428Y-59715476D01*
X156327380Y-59775000D01*
X156267857Y-59834523D01*
X156208333Y-59953571D01*
X156208333Y-60132142D01*
X156267857Y-60251190D01*
X156327380Y-60310714D01*
X156446428Y-60370238D01*
X156922619Y-60370238D01*
X155791666Y-59715476D02*
X154958333Y-60965476D01*
X154958333Y-59715476D02*
X155791666Y-60965476D01*
X153102380Y-59915476D02*
X152388095Y-59915476D01*
X152745238Y-61165476D02*
X152745238Y-59915476D01*
X152090476Y-59915476D02*
X151257142Y-61165476D01*
X151257142Y-59915476D02*
X152090476Y-61165476D01*
X142534523Y-69315476D02*
X142951190Y-68720238D01*
X143248809Y-69315476D02*
X143248809Y-68065476D01*
X142772619Y-68065476D01*
X142653571Y-68125000D01*
X142594047Y-68184523D01*
X142534523Y-68303571D01*
X142534523Y-68482142D01*
X142594047Y-68601190D01*
X142653571Y-68660714D01*
X142772619Y-68720238D01*
X143248809Y-68720238D01*
X142177380Y-68065476D02*
X141463095Y-68065476D01*
X141820238Y-69315476D02*
X141820238Y-68065476D01*
X141105952Y-69255952D02*
X140927380Y-69315476D01*
X140629761Y-69315476D01*
X140510714Y-69255952D01*
X140451190Y-69196428D01*
X140391666Y-69077380D01*
X140391666Y-68958333D01*
X140451190Y-68839285D01*
X140510714Y-68779761D01*
X140629761Y-68720238D01*
X140867857Y-68660714D01*
X140986904Y-68601190D01*
X141046428Y-68541666D01*
X141105952Y-68422619D01*
X141105952Y-68303571D01*
X141046428Y-68184523D01*
X140986904Y-68125000D01*
X140867857Y-68065476D01*
X140570238Y-68065476D01*
X140391666Y-68125000D01*
X160150000Y-66565476D02*
X160150000Y-65315476D01*
X159316666Y-65315476D02*
X159078571Y-65315476D01*
X158959523Y-65375000D01*
X158840476Y-65494047D01*
X158780952Y-65732142D01*
X158780952Y-66148809D01*
X158840476Y-66386904D01*
X158959523Y-66505952D01*
X159078571Y-66565476D01*
X159316666Y-66565476D01*
X159435714Y-66505952D01*
X159554761Y-66386904D01*
X159614285Y-66148809D01*
X159614285Y-65732142D01*
X159554761Y-65494047D01*
X159435714Y-65375000D01*
X159316666Y-65315476D01*
X158304761Y-65434523D02*
X158245238Y-65375000D01*
X158126190Y-65315476D01*
X157828571Y-65315476D01*
X157709523Y-65375000D01*
X157650000Y-65434523D01*
X157590476Y-65553571D01*
X157590476Y-65672619D01*
X157650000Y-65851190D01*
X158364285Y-66565476D01*
X157590476Y-66565476D01*
X168226190Y-64239285D02*
X167273809Y-64239285D01*
X167750000Y-64715476D02*
X167750000Y-63763095D01*
D12*
X133780000Y-130680000D02*
G75*
G03X133780000Y-130680000I-1450000J0D01*
G01*
X160454000Y-68834000D02*
G75*
G03X160454000Y-68834000I-1450000J0D01*
G01*
X134800000Y-79502000D02*
G75*
G03X134800000Y-79502000I-1450000J0D01*
G01*
X117528000Y-73152000D02*
G75*
G03X117528000Y-73152000I-1450000J0D01*
G01*
X143359800Y-65709800D02*
G75*
G03X143359800Y-65709800I-1450000J0D01*
G01*
X133504600Y-64897000D02*
G75*
G03X133504600Y-64897000I-1450000J0D01*
G01*
X157380600Y-57734200D02*
G75*
G03X157380600Y-57734200I-1450000J0D01*
G01*
X153748400Y-57785000D02*
G75*
G03X153748400Y-57785000I-1450000J0D01*
G01*
X147042800Y-133172200D02*
G75*
G03X147042800Y-133172200I-1450000J0D01*
G01*
X153596000Y-127127000D02*
G75*
G03X153596000Y-127127000I-1450000J0D01*
G01*
X128246800Y-130810000D02*
G75*
G03X128246800Y-130810000I-1450000J0D01*
G01*
X124411400Y-130937000D02*
G75*
G03X124411400Y-130937000I-1450000J0D01*
G01*
X118036000Y-95123000D02*
G75*
G03X118036000Y-95123000I-1450000J0D01*
G01*
X141429400Y-91694000D02*
G75*
G03X141429400Y-91694000I-1450000J0D01*
G01*
X157533000Y-88773000D02*
G75*
G03X157533000Y-88773000I-1450000J0D01*
G01*
X167693000Y-109270800D02*
G75*
G03X167693000Y-109270800I-1450000J0D01*
G01*
X131167800Y-123799600D02*
G75*
G03X131167800Y-123799600I-1450000J0D01*
G01*
X151081400Y-114223800D02*
G75*
G03X151081400Y-114223800I-1450000J0D01*
G01*
X147957200Y-109042200D02*
G75*
G03X147957200Y-109042200I-1450000J0D01*
G01*
M02*
