G04 #@! TF.GenerationSoftware,KiCad,Pcbnew,6.0.7-f9a2dced07~116~ubuntu20.04.1*
G04 #@! TF.CreationDate,2022-12-31T15:09:28-05:00*
G04 #@! TF.ProjectId,SmallKat v2,536d616c-6c4b-4617-9420-76322e6b6963,rev?*
G04 #@! TF.SameCoordinates,Original*
G04 #@! TF.FileFunction,Legend,Bot*
G04 #@! TF.FilePolarity,Positive*
%FSLAX46Y46*%
G04 Gerber Fmt 4.6, Leading zero omitted, Abs format (unit mm)*
G04 Created by KiCad (PCBNEW 6.0.7-f9a2dced07~116~ubuntu20.04.1) date 2022-12-31 15:09:28*
%MOMM*%
%LPD*%
G01*
G04 APERTURE LIST*
%ADD10C,0.200000*%
%ADD11C,0.500000*%
%ADD12C,0.250000*%
%ADD13C,0.150000*%
%ADD14C,0.750000*%
%ADD15C,0.375000*%
%ADD16C,0.120000*%
%ADD17C,0.010000*%
G04 APERTURE END LIST*
D10*
X77698571Y-131782857D02*
X77927142Y-131782857D01*
X78041428Y-131840000D01*
X78098571Y-131897142D01*
X78212857Y-132068571D01*
X78270000Y-132297142D01*
X78270000Y-132754285D01*
X78212857Y-132868571D01*
X78155714Y-132925714D01*
X78041428Y-132982857D01*
X77812857Y-132982857D01*
X77698571Y-132925714D01*
X77641428Y-132868571D01*
X77584285Y-132754285D01*
X77584285Y-132468571D01*
X77641428Y-132354285D01*
X77698571Y-132297142D01*
X77812857Y-132240000D01*
X78041428Y-132240000D01*
X78155714Y-132297142D01*
X78212857Y-132354285D01*
X78270000Y-132468571D01*
X77184285Y-132182857D02*
X76898571Y-132982857D01*
X76612857Y-132182857D01*
X166584285Y-131734000D02*
X166698571Y-131676857D01*
X166870000Y-131676857D01*
X167041428Y-131734000D01*
X167155714Y-131848285D01*
X167212857Y-131962571D01*
X167270000Y-132191142D01*
X167270000Y-132362571D01*
X167212857Y-132591142D01*
X167155714Y-132705428D01*
X167041428Y-132819714D01*
X166870000Y-132876857D01*
X166755714Y-132876857D01*
X166584285Y-132819714D01*
X166527142Y-132762571D01*
X166527142Y-132362571D01*
X166755714Y-132362571D01*
X166012857Y-132876857D02*
X166012857Y-131676857D01*
X165327142Y-132876857D01*
X165327142Y-131676857D01*
X164755714Y-132876857D02*
X164755714Y-131676857D01*
X164470000Y-131676857D01*
X164298571Y-131734000D01*
X164184285Y-131848285D01*
X164127142Y-131962571D01*
X164070000Y-132191142D01*
X164070000Y-132362571D01*
X164127142Y-132591142D01*
X164184285Y-132705428D01*
X164298571Y-132819714D01*
X164470000Y-132876857D01*
X164755714Y-132876857D01*
X109400000Y-118317857D02*
X109800000Y-117746428D01*
X110085714Y-118317857D02*
X110085714Y-117117857D01*
X109628571Y-117117857D01*
X109514285Y-117175000D01*
X109457142Y-117232142D01*
X109400000Y-117346428D01*
X109400000Y-117517857D01*
X109457142Y-117632142D01*
X109514285Y-117689285D01*
X109628571Y-117746428D01*
X110085714Y-117746428D01*
X109000000Y-117117857D02*
X108200000Y-118317857D01*
X108200000Y-117117857D02*
X109000000Y-118317857D01*
X114689285Y-118167857D02*
X114003571Y-118167857D01*
X114346428Y-119367857D02*
X114346428Y-118167857D01*
X113717857Y-118167857D02*
X112917857Y-119367857D01*
X112917857Y-118167857D02*
X113717857Y-119367857D01*
X122528571Y-118060714D02*
X122357142Y-118117857D01*
X122071428Y-118117857D01*
X121957142Y-118060714D01*
X121900000Y-118003571D01*
X121842857Y-117889285D01*
X121842857Y-117775000D01*
X121900000Y-117660714D01*
X121957142Y-117603571D01*
X122071428Y-117546428D01*
X122300000Y-117489285D01*
X122414285Y-117432142D01*
X122471428Y-117375000D01*
X122528571Y-117260714D01*
X122528571Y-117146428D01*
X122471428Y-117032142D01*
X122414285Y-116975000D01*
X122300000Y-116917857D01*
X122014285Y-116917857D01*
X121842857Y-116975000D01*
X120642857Y-118003571D02*
X120700000Y-118060714D01*
X120871428Y-118117857D01*
X120985714Y-118117857D01*
X121157142Y-118060714D01*
X121271428Y-117946428D01*
X121328571Y-117832142D01*
X121385714Y-117603571D01*
X121385714Y-117432142D01*
X121328571Y-117203571D01*
X121271428Y-117089285D01*
X121157142Y-116975000D01*
X120985714Y-116917857D01*
X120871428Y-116917857D01*
X120700000Y-116975000D01*
X120642857Y-117032142D01*
X119557142Y-118117857D02*
X120128571Y-118117857D01*
X120128571Y-116917857D01*
X125682142Y-111935714D02*
X125510714Y-111992857D01*
X125225000Y-111992857D01*
X125110714Y-111935714D01*
X125053571Y-111878571D01*
X124996428Y-111764285D01*
X124996428Y-111650000D01*
X125053571Y-111535714D01*
X125110714Y-111478571D01*
X125225000Y-111421428D01*
X125453571Y-111364285D01*
X125567857Y-111307142D01*
X125625000Y-111250000D01*
X125682142Y-111135714D01*
X125682142Y-111021428D01*
X125625000Y-110907142D01*
X125567857Y-110850000D01*
X125453571Y-110792857D01*
X125167857Y-110792857D01*
X124996428Y-110850000D01*
X124482142Y-111992857D02*
X124482142Y-110792857D01*
X124196428Y-110792857D01*
X124025000Y-110850000D01*
X123910714Y-110964285D01*
X123853571Y-111078571D01*
X123796428Y-111307142D01*
X123796428Y-111478571D01*
X123853571Y-111707142D01*
X123910714Y-111821428D01*
X124025000Y-111935714D01*
X124196428Y-111992857D01*
X124482142Y-111992857D01*
X123339285Y-111650000D02*
X122767857Y-111650000D01*
X123453571Y-111992857D02*
X123053571Y-110792857D01*
X122653571Y-111992857D01*
X116403571Y-125492857D02*
X116403571Y-124292857D01*
X115603571Y-124292857D02*
X115375000Y-124292857D01*
X115260714Y-124350000D01*
X115146428Y-124464285D01*
X115089285Y-124692857D01*
X115089285Y-125092857D01*
X115146428Y-125321428D01*
X115260714Y-125435714D01*
X115375000Y-125492857D01*
X115603571Y-125492857D01*
X115717857Y-125435714D01*
X115832142Y-125321428D01*
X115889285Y-125092857D01*
X115889285Y-124692857D01*
X115832142Y-124464285D01*
X115717857Y-124350000D01*
X115603571Y-124292857D01*
X113775000Y-124292857D02*
X113032142Y-124292857D01*
X113432142Y-124750000D01*
X113260714Y-124750000D01*
X113146428Y-124807142D01*
X113089285Y-124864285D01*
X113032142Y-124978571D01*
X113032142Y-125264285D01*
X113089285Y-125378571D01*
X113146428Y-125435714D01*
X113260714Y-125492857D01*
X113603571Y-125492857D01*
X113717857Y-125435714D01*
X113775000Y-125378571D01*
X112003571Y-124292857D02*
X112232142Y-124292857D01*
X112346428Y-124350000D01*
X112403571Y-124407142D01*
X112517857Y-124578571D01*
X112575000Y-124807142D01*
X112575000Y-125264285D01*
X112517857Y-125378571D01*
X112460714Y-125435714D01*
X112346428Y-125492857D01*
X112117857Y-125492857D01*
X112003571Y-125435714D01*
X111946428Y-125378571D01*
X111889285Y-125264285D01*
X111889285Y-124978571D01*
X111946428Y-124864285D01*
X112003571Y-124807142D01*
X112117857Y-124750000D01*
X112346428Y-124750000D01*
X112460714Y-124807142D01*
X112517857Y-124864285D01*
X112575000Y-124978571D01*
D11*
X115208817Y-88804761D02*
X115208817Y-86804761D01*
X114542151Y-88233333D01*
X113875484Y-86804761D01*
X113875484Y-88804761D01*
X112637389Y-88804761D02*
X112827865Y-88709523D01*
X112923103Y-88614285D01*
X113018341Y-88423809D01*
X113018341Y-87852380D01*
X112923103Y-87661904D01*
X112827865Y-87566666D01*
X112637389Y-87471428D01*
X112351674Y-87471428D01*
X112161198Y-87566666D01*
X112065960Y-87661904D01*
X111970722Y-87852380D01*
X111970722Y-88423809D01*
X112065960Y-88614285D01*
X112161198Y-88709523D01*
X112351674Y-88804761D01*
X112637389Y-88804761D01*
X111399293Y-87471428D02*
X110637389Y-87471428D01*
X111113579Y-86804761D02*
X111113579Y-88519047D01*
X111018341Y-88709523D01*
X110827865Y-88804761D01*
X110637389Y-88804761D01*
X109970722Y-88804761D02*
X109970722Y-86804761D01*
X109113579Y-88804761D02*
X109113579Y-87757142D01*
X109208817Y-87566666D01*
X109399293Y-87471428D01*
X109685008Y-87471428D01*
X109875484Y-87566666D01*
X109970722Y-87661904D01*
X107399293Y-88709523D02*
X107589770Y-88804761D01*
X107970722Y-88804761D01*
X108161198Y-88709523D01*
X108256436Y-88519047D01*
X108256436Y-87757142D01*
X108161198Y-87566666D01*
X107970722Y-87471428D01*
X107589770Y-87471428D01*
X107399293Y-87566666D01*
X107304055Y-87757142D01*
X107304055Y-87947619D01*
X108256436Y-88138095D01*
X106446913Y-88804761D02*
X106446913Y-87471428D01*
X106446913Y-87852380D02*
X106351674Y-87661904D01*
X106256436Y-87566666D01*
X106065960Y-87471428D01*
X105875484Y-87471428D01*
X105208817Y-88804761D02*
X105208817Y-86804761D01*
X105208817Y-87566666D02*
X105018341Y-87471428D01*
X104637389Y-87471428D01*
X104446913Y-87566666D01*
X104351674Y-87661904D01*
X104256436Y-87852380D01*
X104256436Y-88423809D01*
X104351674Y-88614285D01*
X104446913Y-88709523D01*
X104637389Y-88804761D01*
X105018341Y-88804761D01*
X105208817Y-88709523D01*
X103113579Y-88804761D02*
X103304055Y-88709523D01*
X103399293Y-88614285D01*
X103494532Y-88423809D01*
X103494532Y-87852380D01*
X103399293Y-87661904D01*
X103304055Y-87566666D01*
X103113579Y-87471428D01*
X102827865Y-87471428D01*
X102637389Y-87566666D01*
X102542151Y-87661904D01*
X102446913Y-87852380D01*
X102446913Y-88423809D01*
X102542151Y-88614285D01*
X102637389Y-88709523D01*
X102827865Y-88804761D01*
X103113579Y-88804761D01*
X100732627Y-88804761D02*
X100732627Y-87757142D01*
X100827865Y-87566666D01*
X101018341Y-87471428D01*
X101399293Y-87471428D01*
X101589770Y-87566666D01*
X100732627Y-88709523D02*
X100923103Y-88804761D01*
X101399293Y-88804761D01*
X101589770Y-88709523D01*
X101685008Y-88519047D01*
X101685008Y-88328571D01*
X101589770Y-88138095D01*
X101399293Y-88042857D01*
X100923103Y-88042857D01*
X100732627Y-87947619D01*
X99780246Y-88804761D02*
X99780246Y-87471428D01*
X99780246Y-87852380D02*
X99685008Y-87661904D01*
X99589770Y-87566666D01*
X99399293Y-87471428D01*
X99208817Y-87471428D01*
X97685008Y-88804761D02*
X97685008Y-86804761D01*
X97685008Y-88709523D02*
X97875484Y-88804761D01*
X98256436Y-88804761D01*
X98446913Y-88709523D01*
X98542151Y-88614285D01*
X98637389Y-88423809D01*
X98637389Y-87852380D01*
X98542151Y-87661904D01*
X98446913Y-87566666D01*
X98256436Y-87471428D01*
X97875484Y-87471428D01*
X97685008Y-87566666D01*
D12*
X166892857Y-91094285D02*
X166721428Y-91151428D01*
X166664285Y-91208571D01*
X166607142Y-91322857D01*
X166607142Y-91494285D01*
X166664285Y-91608571D01*
X166721428Y-91665714D01*
X166835714Y-91722857D01*
X167292857Y-91722857D01*
X167292857Y-90522857D01*
X166892857Y-90522857D01*
X166778571Y-90580000D01*
X166721428Y-90637142D01*
X166664285Y-90751428D01*
X166664285Y-90865714D01*
X166721428Y-90980000D01*
X166778571Y-91037142D01*
X166892857Y-91094285D01*
X167292857Y-91094285D01*
X165578571Y-91722857D02*
X165578571Y-91094285D01*
X165635714Y-90980000D01*
X165750000Y-90922857D01*
X165978571Y-90922857D01*
X166092857Y-90980000D01*
X165578571Y-91665714D02*
X165692857Y-91722857D01*
X165978571Y-91722857D01*
X166092857Y-91665714D01*
X166150000Y-91551428D01*
X166150000Y-91437142D01*
X166092857Y-91322857D01*
X165978571Y-91265714D01*
X165692857Y-91265714D01*
X165578571Y-91208571D01*
X165178571Y-90922857D02*
X164721428Y-90922857D01*
X165007142Y-90522857D02*
X165007142Y-91551428D01*
X164950000Y-91665714D01*
X164835714Y-91722857D01*
X164721428Y-91722857D01*
X164492857Y-90922857D02*
X164035714Y-90922857D01*
X164321428Y-90522857D02*
X164321428Y-91551428D01*
X164264285Y-91665714D01*
X164150000Y-91722857D01*
X164035714Y-91722857D01*
D13*
X93825000Y-133130857D02*
X93825000Y-131930857D01*
X93025000Y-131930857D02*
X92796428Y-131930857D01*
X92682142Y-131988000D01*
X92567857Y-132102285D01*
X92510714Y-132330857D01*
X92510714Y-132730857D01*
X92567857Y-132959428D01*
X92682142Y-133073714D01*
X92796428Y-133130857D01*
X93025000Y-133130857D01*
X93139285Y-133073714D01*
X93253571Y-132959428D01*
X93310714Y-132730857D01*
X93310714Y-132330857D01*
X93253571Y-132102285D01*
X93139285Y-131988000D01*
X93025000Y-131930857D01*
X91767857Y-131930857D02*
X91653571Y-131930857D01*
X91539285Y-131988000D01*
X91482142Y-132045142D01*
X91425000Y-132159428D01*
X91367857Y-132388000D01*
X91367857Y-132673714D01*
X91425000Y-132902285D01*
X91482142Y-133016571D01*
X91539285Y-133073714D01*
X91653571Y-133130857D01*
X91767857Y-133130857D01*
X91882142Y-133073714D01*
X91939285Y-133016571D01*
X91996428Y-132902285D01*
X92053571Y-132673714D01*
X92053571Y-132388000D01*
X91996428Y-132159428D01*
X91939285Y-132045142D01*
X91882142Y-131988000D01*
X91767857Y-131930857D01*
D10*
X101469714Y-132502285D02*
X101069714Y-132502285D01*
X100898285Y-133130857D02*
X101469714Y-133130857D01*
X101469714Y-131930857D01*
X100898285Y-131930857D01*
X100384000Y-133130857D02*
X100384000Y-131930857D01*
X99698285Y-133130857D01*
X99698285Y-131930857D01*
D14*
X116239770Y-85514285D02*
X115811198Y-85657142D01*
X115096913Y-85657142D01*
X114811198Y-85514285D01*
X114668341Y-85371428D01*
X114525484Y-85085714D01*
X114525484Y-84800000D01*
X114668341Y-84514285D01*
X114811198Y-84371428D01*
X115096913Y-84228571D01*
X115668341Y-84085714D01*
X115954055Y-83942857D01*
X116096913Y-83800000D01*
X116239770Y-83514285D01*
X116239770Y-83228571D01*
X116096913Y-82942857D01*
X115954055Y-82800000D01*
X115668341Y-82657142D01*
X114954055Y-82657142D01*
X114525484Y-82800000D01*
X113239770Y-85657142D02*
X113239770Y-83657142D01*
X113239770Y-83942857D02*
X113096913Y-83800000D01*
X112811198Y-83657142D01*
X112382627Y-83657142D01*
X112096913Y-83800000D01*
X111954055Y-84085714D01*
X111954055Y-85657142D01*
X111954055Y-84085714D02*
X111811198Y-83800000D01*
X111525484Y-83657142D01*
X111096913Y-83657142D01*
X110811198Y-83800000D01*
X110668341Y-84085714D01*
X110668341Y-85657142D01*
X107954055Y-85657142D02*
X107954055Y-84085714D01*
X108096913Y-83800000D01*
X108382627Y-83657142D01*
X108954055Y-83657142D01*
X109239770Y-83800000D01*
X107954055Y-85514285D02*
X108239770Y-85657142D01*
X108954055Y-85657142D01*
X109239770Y-85514285D01*
X109382627Y-85228571D01*
X109382627Y-84942857D01*
X109239770Y-84657142D01*
X108954055Y-84514285D01*
X108239770Y-84514285D01*
X107954055Y-84371428D01*
X106096913Y-85657142D02*
X106382627Y-85514285D01*
X106525484Y-85228571D01*
X106525484Y-82657142D01*
X104525484Y-85657142D02*
X104811198Y-85514285D01*
X104954055Y-85228571D01*
X104954055Y-82657142D01*
X103382627Y-85657142D02*
X103382627Y-82657142D01*
X101668341Y-85657142D02*
X102954055Y-83942857D01*
X101668341Y-82657142D02*
X103382627Y-84371428D01*
X99096913Y-85657142D02*
X99096913Y-84085714D01*
X99239770Y-83800000D01*
X99525484Y-83657142D01*
X100096913Y-83657142D01*
X100382627Y-83800000D01*
X99096913Y-85514285D02*
X99382627Y-85657142D01*
X100096913Y-85657142D01*
X100382627Y-85514285D01*
X100525484Y-85228571D01*
X100525484Y-84942857D01*
X100382627Y-84657142D01*
X100096913Y-84514285D01*
X99382627Y-84514285D01*
X99096913Y-84371428D01*
X98096913Y-83657142D02*
X96954055Y-83657142D01*
X97668341Y-82657142D02*
X97668341Y-85228571D01*
X97525484Y-85514285D01*
X97239770Y-85657142D01*
X96954055Y-85657142D01*
D10*
X112944000Y-131930857D02*
X112544000Y-133130857D01*
X112144000Y-131930857D01*
X111344000Y-132502285D02*
X111172571Y-132559428D01*
X111115428Y-132616571D01*
X111058285Y-132730857D01*
X111058285Y-132902285D01*
X111115428Y-133016571D01*
X111172571Y-133073714D01*
X111286857Y-133130857D01*
X111744000Y-133130857D01*
X111744000Y-131930857D01*
X111344000Y-131930857D01*
X111229714Y-131988000D01*
X111172571Y-132045142D01*
X111115428Y-132159428D01*
X111115428Y-132273714D01*
X111172571Y-132388000D01*
X111229714Y-132445142D01*
X111344000Y-132502285D01*
X111744000Y-132502285D01*
X110544000Y-131930857D02*
X110544000Y-132902285D01*
X110486857Y-133016571D01*
X110429714Y-133073714D01*
X110315428Y-133130857D01*
X110086857Y-133130857D01*
X109972571Y-133073714D01*
X109915428Y-133016571D01*
X109858285Y-132902285D01*
X109858285Y-131930857D01*
X109344000Y-133073714D02*
X109172571Y-133130857D01*
X108886857Y-133130857D01*
X108772571Y-133073714D01*
X108715428Y-133016571D01*
X108658285Y-132902285D01*
X108658285Y-132788000D01*
X108715428Y-132673714D01*
X108772571Y-132616571D01*
X108886857Y-132559428D01*
X109115428Y-132502285D01*
X109229714Y-132445142D01*
X109286857Y-132388000D01*
X109344000Y-132273714D01*
X109344000Y-132159428D01*
X109286857Y-132045142D01*
X109229714Y-131988000D01*
X109115428Y-131930857D01*
X108829714Y-131930857D01*
X108658285Y-131988000D01*
D15*
X109094055Y-91028571D02*
X109594055Y-90314285D01*
X109951198Y-91028571D02*
X109951198Y-89528571D01*
X109379770Y-89528571D01*
X109236913Y-89600000D01*
X109165484Y-89671428D01*
X109094055Y-89814285D01*
X109094055Y-90028571D01*
X109165484Y-90171428D01*
X109236913Y-90242857D01*
X109379770Y-90314285D01*
X109951198Y-90314285D01*
X107879770Y-90957142D02*
X108022627Y-91028571D01*
X108308341Y-91028571D01*
X108451198Y-90957142D01*
X108522627Y-90814285D01*
X108522627Y-90242857D01*
X108451198Y-90100000D01*
X108308341Y-90028571D01*
X108022627Y-90028571D01*
X107879770Y-90100000D01*
X107808341Y-90242857D01*
X107808341Y-90385714D01*
X108522627Y-90528571D01*
X107308341Y-90028571D02*
X106951198Y-91028571D01*
X106594055Y-90028571D01*
X104094055Y-91028571D02*
X104951198Y-91028571D01*
X104522627Y-91028571D02*
X104522627Y-89528571D01*
X104665484Y-89742857D01*
X104808341Y-89885714D01*
X104951198Y-89957142D01*
X103451198Y-90885714D02*
X103379770Y-90957142D01*
X103451198Y-91028571D01*
X103522627Y-90957142D01*
X103451198Y-90885714D01*
X103451198Y-91028571D01*
X102451198Y-89528571D02*
X102308341Y-89528571D01*
X102165484Y-89600000D01*
X102094055Y-89671428D01*
X102022627Y-89814285D01*
X101951198Y-90100000D01*
X101951198Y-90457142D01*
X102022627Y-90742857D01*
X102094055Y-90885714D01*
X102165484Y-90957142D01*
X102308341Y-91028571D01*
X102451198Y-91028571D01*
X102594055Y-90957142D01*
X102665484Y-90885714D01*
X102736913Y-90742857D01*
X102808341Y-90457142D01*
X102808341Y-90100000D01*
X102736913Y-89814285D01*
X102665484Y-89671428D01*
X102594055Y-89600000D01*
X102451198Y-89528571D01*
D10*
X91764285Y-125342857D02*
X91021428Y-125342857D01*
X91421428Y-125800000D01*
X91250000Y-125800000D01*
X91135714Y-125857142D01*
X91078571Y-125914285D01*
X91021428Y-126028571D01*
X91021428Y-126314285D01*
X91078571Y-126428571D01*
X91135714Y-126485714D01*
X91250000Y-126542857D01*
X91592857Y-126542857D01*
X91707142Y-126485714D01*
X91764285Y-126428571D01*
X90507142Y-126428571D02*
X90450000Y-126485714D01*
X90507142Y-126542857D01*
X90564285Y-126485714D01*
X90507142Y-126428571D01*
X90507142Y-126542857D01*
X90050000Y-125342857D02*
X89307142Y-125342857D01*
X89707142Y-125800000D01*
X89535714Y-125800000D01*
X89421428Y-125857142D01*
X89364285Y-125914285D01*
X89307142Y-126028571D01*
X89307142Y-126314285D01*
X89364285Y-126428571D01*
X89421428Y-126485714D01*
X89535714Y-126542857D01*
X89878571Y-126542857D01*
X89992857Y-126485714D01*
X90050000Y-126428571D01*
X88907142Y-125742857D02*
X88621428Y-126542857D01*
X88335714Y-125742857D01*
D16*
X78770000Y-135000000D02*
G75*
G03*
X78770000Y-135000000I-1200000J0D01*
G01*
X167420000Y-93910000D02*
G75*
G03*
X167420000Y-93910000I-1200000J0D01*
G01*
X166920000Y-135000000D02*
G75*
G03*
X166920000Y-135000000I-1200000J0D01*
G01*
X125350000Y-113625000D02*
G75*
G03*
X125350000Y-113625000I-1200000J0D01*
G01*
X91200000Y-128430000D02*
G75*
G03*
X91200000Y-128430000I-1200000J0D01*
G01*
X115200000Y-122500000D02*
G75*
G03*
X115200000Y-122500000I-1200000J0D01*
G01*
X122225000Y-115250000D02*
G75*
G03*
X122225000Y-115250000I-1200000J0D01*
G01*
X110450000Y-115500000D02*
G75*
G03*
X110450000Y-115500000I-1200000J0D01*
G01*
G36*
X140884458Y-128441228D02*
G01*
X140951622Y-128480389D01*
X140981169Y-128510902D01*
X141037948Y-128602110D01*
X141057077Y-128701548D01*
X141057077Y-128769960D01*
X140994191Y-128743518D01*
X140950700Y-128716837D01*
X140916426Y-128661446D01*
X140912907Y-128650024D01*
X140875028Y-128591838D01*
X140817936Y-128560407D01*
X140752383Y-128559058D01*
X140689117Y-128591116D01*
X140679672Y-128599383D01*
X140648087Y-128635311D01*
X140642871Y-128666635D01*
X140666765Y-128697391D01*
X140722510Y-128731617D01*
X140812846Y-128773350D01*
X140818956Y-128775993D01*
X140919241Y-128822755D01*
X140987735Y-128864181D01*
X141029899Y-128905542D01*
X141051193Y-128952111D01*
X141057077Y-129009160D01*
X141049366Y-129072408D01*
X141010430Y-129153364D01*
X140941932Y-129211522D01*
X140892388Y-129228983D01*
X140822469Y-129238537D01*
X140754575Y-129236496D01*
X140706093Y-129222082D01*
X140700943Y-129218493D01*
X140687267Y-129193416D01*
X140696757Y-129149218D01*
X140713246Y-129114527D01*
X140739687Y-129100084D01*
X140789834Y-129100803D01*
X140859453Y-129096660D01*
X140904943Y-129068054D01*
X140920308Y-129015104D01*
X140920294Y-129013582D01*
X140910983Y-128982845D01*
X140879311Y-128954643D01*
X140817731Y-128922136D01*
X140733986Y-128882998D01*
X140678518Y-128861706D01*
X140646497Y-128863079D01*
X140631534Y-128891203D01*
X140627242Y-128950170D01*
X140627231Y-129044068D01*
X140626752Y-129102031D01*
X140624556Y-129173612D01*
X140620986Y-129222606D01*
X140616491Y-129240769D01*
X140615290Y-129240646D01*
X140589319Y-129230802D01*
X140546305Y-129210028D01*
X140486859Y-129179287D01*
X140493923Y-128902298D01*
X140494414Y-128883928D01*
X140500025Y-128754992D01*
X140509938Y-128657814D01*
X140526175Y-128585925D01*
X140550759Y-128532852D01*
X140585715Y-128492127D01*
X140633064Y-128457279D01*
X140633940Y-128456733D01*
X140710499Y-128428303D01*
X140799044Y-128423500D01*
X140884458Y-128441228D01*
G37*
D17*
X140884458Y-128441228D02*
X140951622Y-128480389D01*
X140981169Y-128510902D01*
X141037948Y-128602110D01*
X141057077Y-128701548D01*
X141057077Y-128769960D01*
X140994191Y-128743518D01*
X140950700Y-128716837D01*
X140916426Y-128661446D01*
X140912907Y-128650024D01*
X140875028Y-128591838D01*
X140817936Y-128560407D01*
X140752383Y-128559058D01*
X140689117Y-128591116D01*
X140679672Y-128599383D01*
X140648087Y-128635311D01*
X140642871Y-128666635D01*
X140666765Y-128697391D01*
X140722510Y-128731617D01*
X140812846Y-128773350D01*
X140818956Y-128775993D01*
X140919241Y-128822755D01*
X140987735Y-128864181D01*
X141029899Y-128905542D01*
X141051193Y-128952111D01*
X141057077Y-129009160D01*
X141049366Y-129072408D01*
X141010430Y-129153364D01*
X140941932Y-129211522D01*
X140892388Y-129228983D01*
X140822469Y-129238537D01*
X140754575Y-129236496D01*
X140706093Y-129222082D01*
X140700943Y-129218493D01*
X140687267Y-129193416D01*
X140696757Y-129149218D01*
X140713246Y-129114527D01*
X140739687Y-129100084D01*
X140789834Y-129100803D01*
X140859453Y-129096660D01*
X140904943Y-129068054D01*
X140920308Y-129015104D01*
X140920294Y-129013582D01*
X140910983Y-128982845D01*
X140879311Y-128954643D01*
X140817731Y-128922136D01*
X140733986Y-128882998D01*
X140678518Y-128861706D01*
X140646497Y-128863079D01*
X140631534Y-128891203D01*
X140627242Y-128950170D01*
X140627231Y-129044068D01*
X140626752Y-129102031D01*
X140624556Y-129173612D01*
X140620986Y-129222606D01*
X140616491Y-129240769D01*
X140615290Y-129240646D01*
X140589319Y-129230802D01*
X140546305Y-129210028D01*
X140486859Y-129179287D01*
X140493923Y-128902298D01*
X140494414Y-128883928D01*
X140500025Y-128754992D01*
X140509938Y-128657814D01*
X140526175Y-128585925D01*
X140550759Y-128532852D01*
X140585715Y-128492127D01*
X140633064Y-128457279D01*
X140633940Y-128456733D01*
X140710499Y-128428303D01*
X140799044Y-128423500D01*
X140884458Y-128441228D01*
G36*
X145160135Y-128832105D02*
G01*
X145159076Y-128926584D01*
X145155436Y-128992414D01*
X145147892Y-129038394D01*
X145135122Y-129073321D01*
X145115803Y-129105995D01*
X145111050Y-129112775D01*
X145060759Y-129166231D01*
X145003457Y-129206547D01*
X144974032Y-129219629D01*
X144868299Y-129241450D01*
X144763734Y-129227336D01*
X144667368Y-129179105D01*
X144586235Y-129098579D01*
X144579385Y-129087791D01*
X144557097Y-129025153D01*
X144542079Y-128937935D01*
X144534792Y-128837210D01*
X144535611Y-128744037D01*
X144732796Y-128744037D01*
X144734349Y-128873114D01*
X144734974Y-128881420D01*
X144744077Y-128952643D01*
X144760288Y-128997809D01*
X144787660Y-129028752D01*
X144833553Y-129057737D01*
X144878942Y-129059261D01*
X144925692Y-129025846D01*
X144933824Y-129017053D01*
X144949754Y-128990741D01*
X144959159Y-128952520D01*
X144963632Y-128893349D01*
X144964769Y-128804182D01*
X144962822Y-128720664D01*
X144953105Y-128641095D01*
X144933047Y-128590808D01*
X144900240Y-128564513D01*
X144852280Y-128556923D01*
X144834016Y-128558432D01*
X144782848Y-128586107D01*
X144749035Y-128648172D01*
X144732796Y-128744037D01*
X144535611Y-128744037D01*
X144535699Y-128734052D01*
X144545262Y-128639533D01*
X144563943Y-128564727D01*
X144587951Y-128514905D01*
X144655536Y-128437409D01*
X144747114Y-128389256D01*
X144859213Y-128372703D01*
X144889151Y-128373599D01*
X144977315Y-128391929D01*
X145049733Y-128438104D01*
X145116192Y-128517648D01*
X145120147Y-128523548D01*
X145138040Y-128555288D01*
X145149678Y-128591163D01*
X145156371Y-128639906D01*
X145159426Y-128710249D01*
X145160106Y-128804182D01*
X145160154Y-128810923D01*
X145160135Y-128832105D01*
G37*
X145160135Y-128832105D02*
X145159076Y-128926584D01*
X145155436Y-128992414D01*
X145147892Y-129038394D01*
X145135122Y-129073321D01*
X145115803Y-129105995D01*
X145111050Y-129112775D01*
X145060759Y-129166231D01*
X145003457Y-129206547D01*
X144974032Y-129219629D01*
X144868299Y-129241450D01*
X144763734Y-129227336D01*
X144667368Y-129179105D01*
X144586235Y-129098579D01*
X144579385Y-129087791D01*
X144557097Y-129025153D01*
X144542079Y-128937935D01*
X144534792Y-128837210D01*
X144535611Y-128744037D01*
X144732796Y-128744037D01*
X144734349Y-128873114D01*
X144734974Y-128881420D01*
X144744077Y-128952643D01*
X144760288Y-128997809D01*
X144787660Y-129028752D01*
X144833553Y-129057737D01*
X144878942Y-129059261D01*
X144925692Y-129025846D01*
X144933824Y-129017053D01*
X144949754Y-128990741D01*
X144959159Y-128952520D01*
X144963632Y-128893349D01*
X144964769Y-128804182D01*
X144962822Y-128720664D01*
X144953105Y-128641095D01*
X144933047Y-128590808D01*
X144900240Y-128564513D01*
X144852280Y-128556923D01*
X144834016Y-128558432D01*
X144782848Y-128586107D01*
X144749035Y-128648172D01*
X144732796Y-128744037D01*
X144535611Y-128744037D01*
X144535699Y-128734052D01*
X144545262Y-128639533D01*
X144563943Y-128564727D01*
X144587951Y-128514905D01*
X144655536Y-128437409D01*
X144747114Y-128389256D01*
X144859213Y-128372703D01*
X144889151Y-128373599D01*
X144977315Y-128391929D01*
X145049733Y-128438104D01*
X145116192Y-128517648D01*
X145120147Y-128523548D01*
X145138040Y-128555288D01*
X145149678Y-128591163D01*
X145156371Y-128639906D01*
X145159426Y-128710249D01*
X145160106Y-128804182D01*
X145160154Y-128810923D01*
X145160135Y-128832105D01*
G36*
X137375501Y-128428476D02*
G01*
X137456167Y-128458440D01*
X137489714Y-128480954D01*
X137523687Y-128513212D01*
X137547919Y-128554246D01*
X137564001Y-128610108D01*
X137573521Y-128686851D01*
X137578068Y-128790525D01*
X137579231Y-128927184D01*
X137579003Y-128997805D01*
X137577860Y-129094308D01*
X137575919Y-129171323D01*
X137573365Y-129222319D01*
X137570381Y-129240769D01*
X137550962Y-129234667D01*
X137511766Y-129218095D01*
X137510589Y-129217558D01*
X137490235Y-129206903D01*
X137476546Y-129192282D01*
X137468199Y-129166673D01*
X137463874Y-129123054D01*
X137462248Y-129054403D01*
X137462000Y-128953698D01*
X137461500Y-128889813D01*
X137456164Y-128769751D01*
X137443945Y-128681809D01*
X137423552Y-128621375D01*
X137393695Y-128583836D01*
X137353082Y-128564581D01*
X137347448Y-128563239D01*
X137271378Y-128562191D01*
X137212052Y-128596271D01*
X137171077Y-128664598D01*
X137163770Y-128684351D01*
X137147114Y-128728066D01*
X137138679Y-128748155D01*
X137121356Y-128745387D01*
X137083525Y-128730365D01*
X137048240Y-128705556D01*
X137032154Y-128658670D01*
X137036952Y-128625087D01*
X137066431Y-128556967D01*
X137114098Y-128493134D01*
X137169839Y-128448988D01*
X137193193Y-128438782D01*
X137281619Y-128421718D01*
X137375501Y-128428476D01*
G37*
X137375501Y-128428476D02*
X137456167Y-128458440D01*
X137489714Y-128480954D01*
X137523687Y-128513212D01*
X137547919Y-128554246D01*
X137564001Y-128610108D01*
X137573521Y-128686851D01*
X137578068Y-128790525D01*
X137579231Y-128927184D01*
X137579003Y-128997805D01*
X137577860Y-129094308D01*
X137575919Y-129171323D01*
X137573365Y-129222319D01*
X137570381Y-129240769D01*
X137550962Y-129234667D01*
X137511766Y-129218095D01*
X137510589Y-129217558D01*
X137490235Y-129206903D01*
X137476546Y-129192282D01*
X137468199Y-129166673D01*
X137463874Y-129123054D01*
X137462248Y-129054403D01*
X137462000Y-128953698D01*
X137461500Y-128889813D01*
X137456164Y-128769751D01*
X137443945Y-128681809D01*
X137423552Y-128621375D01*
X137393695Y-128583836D01*
X137353082Y-128564581D01*
X137347448Y-128563239D01*
X137271378Y-128562191D01*
X137212052Y-128596271D01*
X137171077Y-128664598D01*
X137163770Y-128684351D01*
X137147114Y-128728066D01*
X137138679Y-128748155D01*
X137121356Y-128745387D01*
X137083525Y-128730365D01*
X137048240Y-128705556D01*
X137032154Y-128658670D01*
X137036952Y-128625087D01*
X137066431Y-128556967D01*
X137114098Y-128493134D01*
X137169839Y-128448988D01*
X137193193Y-128438782D01*
X137281619Y-128421718D01*
X137375501Y-128428476D01*
G36*
X141740923Y-128183806D02*
G01*
X141740923Y-128718455D01*
X141740660Y-128857094D01*
X141739958Y-128981805D01*
X141738883Y-129087557D01*
X141737500Y-129169322D01*
X141735874Y-129222069D01*
X141734070Y-129240769D01*
X141733364Y-129240706D01*
X141709387Y-129233912D01*
X141665685Y-129219320D01*
X141604154Y-129197870D01*
X141604154Y-128922617D01*
X141603763Y-128814466D01*
X141601946Y-128736026D01*
X141597767Y-128682647D01*
X141590286Y-128647256D01*
X141578567Y-128622779D01*
X141561671Y-128602144D01*
X141550152Y-128591170D01*
X141487864Y-128560775D01*
X141419211Y-128563466D01*
X141356298Y-128599406D01*
X141347139Y-128608325D01*
X141332471Y-128626844D01*
X141322433Y-128651326D01*
X141316151Y-128688393D01*
X141312748Y-128744667D01*
X141311349Y-128826771D01*
X141311077Y-128941329D01*
X141310947Y-128999430D01*
X141310099Y-129094993D01*
X141308594Y-129171526D01*
X141306585Y-129222345D01*
X141304223Y-129240769D01*
X141303518Y-129240706D01*
X141279541Y-129233912D01*
X141235839Y-129219320D01*
X141174308Y-129197870D01*
X141174338Y-128921358D01*
X141174384Y-128896742D01*
X141176970Y-128768419D01*
X141184913Y-128671384D01*
X141200155Y-128599057D01*
X141224636Y-128544855D01*
X141260298Y-128502198D01*
X141309082Y-128464505D01*
X141356661Y-128440910D01*
X141432732Y-128422672D01*
X141507556Y-128421636D01*
X141565077Y-128439378D01*
X141569402Y-128441829D01*
X141582738Y-128441566D01*
X141591851Y-128421039D01*
X141598428Y-128373980D01*
X141604154Y-128294120D01*
X141613923Y-128130236D01*
X141740923Y-128183806D01*
G37*
X141740923Y-128183806D02*
X141740923Y-128718455D01*
X141740660Y-128857094D01*
X141739958Y-128981805D01*
X141738883Y-129087557D01*
X141737500Y-129169322D01*
X141735874Y-129222069D01*
X141734070Y-129240769D01*
X141733364Y-129240706D01*
X141709387Y-129233912D01*
X141665685Y-129219320D01*
X141604154Y-129197870D01*
X141604154Y-128922617D01*
X141603763Y-128814466D01*
X141601946Y-128736026D01*
X141597767Y-128682647D01*
X141590286Y-128647256D01*
X141578567Y-128622779D01*
X141561671Y-128602144D01*
X141550152Y-128591170D01*
X141487864Y-128560775D01*
X141419211Y-128563466D01*
X141356298Y-128599406D01*
X141347139Y-128608325D01*
X141332471Y-128626844D01*
X141322433Y-128651326D01*
X141316151Y-128688393D01*
X141312748Y-128744667D01*
X141311349Y-128826771D01*
X141311077Y-128941329D01*
X141310947Y-128999430D01*
X141310099Y-129094993D01*
X141308594Y-129171526D01*
X141306585Y-129222345D01*
X141304223Y-129240769D01*
X141303518Y-129240706D01*
X141279541Y-129233912D01*
X141235839Y-129219320D01*
X141174308Y-129197870D01*
X141174338Y-128921358D01*
X141174384Y-128896742D01*
X141176970Y-128768419D01*
X141184913Y-128671384D01*
X141200155Y-128599057D01*
X141224636Y-128544855D01*
X141260298Y-128502198D01*
X141309082Y-128464505D01*
X141356661Y-128440910D01*
X141432732Y-128422672D01*
X141507556Y-128421636D01*
X141565077Y-128439378D01*
X141569402Y-128441829D01*
X141582738Y-128441566D01*
X141591851Y-128421039D01*
X141598428Y-128373980D01*
X141604154Y-128294120D01*
X141613923Y-128130236D01*
X141740923Y-128183806D01*
G36*
X139726839Y-128906652D02*
G01*
X139715810Y-129010507D01*
X139691814Y-129088333D01*
X139652043Y-129147760D01*
X139593688Y-129196418D01*
X139538100Y-129224546D01*
X139444751Y-129240199D01*
X139351530Y-129223084D01*
X139267272Y-129175388D01*
X139200818Y-129099294D01*
X139192793Y-129085262D01*
X139182196Y-129060679D01*
X139174335Y-129029309D01*
X139168807Y-128985769D01*
X139165206Y-128924678D01*
X139163128Y-128840655D01*
X139163064Y-128833200D01*
X139298615Y-128833200D01*
X139299077Y-128904316D01*
X139301999Y-128968641D01*
X139309221Y-129010166D01*
X139322561Y-129038067D01*
X139343836Y-129061517D01*
X139348821Y-129066025D01*
X139412863Y-129099295D01*
X139480625Y-129095890D01*
X139543734Y-129056042D01*
X139562526Y-129035398D01*
X139578254Y-129008029D01*
X139587039Y-128970192D01*
X139590859Y-128912355D01*
X139591692Y-128824986D01*
X139591281Y-128758319D01*
X139588434Y-128693245D01*
X139581256Y-128651251D01*
X139567889Y-128623063D01*
X139546472Y-128599406D01*
X139533890Y-128588753D01*
X139468699Y-128560057D01*
X139400400Y-128564575D01*
X139341098Y-128602144D01*
X139328333Y-128617040D01*
X139312764Y-128645089D01*
X139303762Y-128684258D01*
X139299617Y-128743858D01*
X139298615Y-128833200D01*
X139163064Y-128833200D01*
X139162167Y-128728320D01*
X139161919Y-128582289D01*
X139161846Y-128128963D01*
X139225346Y-128155564D01*
X139242136Y-128162845D01*
X139268859Y-128179287D01*
X139284156Y-128204187D01*
X139292563Y-128247732D01*
X139298615Y-128320106D01*
X139304144Y-128385089D01*
X139311450Y-128427750D01*
X139321918Y-128443670D01*
X139337692Y-128439400D01*
X139377890Y-128424397D01*
X139449728Y-128420678D01*
X139527010Y-128434572D01*
X139593688Y-128464505D01*
X139630371Y-128492211D01*
X139677472Y-128546269D01*
X139707638Y-128615577D01*
X139723678Y-128707765D01*
X139728191Y-128824986D01*
X139728401Y-128830462D01*
X139726839Y-128906652D01*
G37*
X139726839Y-128906652D02*
X139715810Y-129010507D01*
X139691814Y-129088333D01*
X139652043Y-129147760D01*
X139593688Y-129196418D01*
X139538100Y-129224546D01*
X139444751Y-129240199D01*
X139351530Y-129223084D01*
X139267272Y-129175388D01*
X139200818Y-129099294D01*
X139192793Y-129085262D01*
X139182196Y-129060679D01*
X139174335Y-129029309D01*
X139168807Y-128985769D01*
X139165206Y-128924678D01*
X139163128Y-128840655D01*
X139163064Y-128833200D01*
X139298615Y-128833200D01*
X139299077Y-128904316D01*
X139301999Y-128968641D01*
X139309221Y-129010166D01*
X139322561Y-129038067D01*
X139343836Y-129061517D01*
X139348821Y-129066025D01*
X139412863Y-129099295D01*
X139480625Y-129095890D01*
X139543734Y-129056042D01*
X139562526Y-129035398D01*
X139578254Y-129008029D01*
X139587039Y-128970192D01*
X139590859Y-128912355D01*
X139591692Y-128824986D01*
X139591281Y-128758319D01*
X139588434Y-128693245D01*
X139581256Y-128651251D01*
X139567889Y-128623063D01*
X139546472Y-128599406D01*
X139533890Y-128588753D01*
X139468699Y-128560057D01*
X139400400Y-128564575D01*
X139341098Y-128602144D01*
X139328333Y-128617040D01*
X139312764Y-128645089D01*
X139303762Y-128684258D01*
X139299617Y-128743858D01*
X139298615Y-128833200D01*
X139163064Y-128833200D01*
X139162167Y-128728320D01*
X139161919Y-128582289D01*
X139161846Y-128128963D01*
X139225346Y-128155564D01*
X139242136Y-128162845D01*
X139268859Y-128179287D01*
X139284156Y-128204187D01*
X139292563Y-128247732D01*
X139298615Y-128320106D01*
X139304144Y-128385089D01*
X139311450Y-128427750D01*
X139321918Y-128443670D01*
X139337692Y-128439400D01*
X139377890Y-128424397D01*
X139449728Y-128420678D01*
X139527010Y-128434572D01*
X139593688Y-128464505D01*
X139630371Y-128492211D01*
X139677472Y-128546269D01*
X139707638Y-128615577D01*
X139723678Y-128707765D01*
X139728191Y-128824986D01*
X139728401Y-128830462D01*
X139726839Y-128906652D01*
G36*
X138951998Y-128426034D02*
G01*
X138994850Y-128442829D01*
X139044615Y-128465503D01*
X139044615Y-129120533D01*
X138982785Y-129182363D01*
X138968662Y-129196228D01*
X138929536Y-129227046D01*
X138890078Y-129237028D01*
X138831362Y-129232433D01*
X138807456Y-129229462D01*
X138745801Y-129223176D01*
X138702692Y-129220672D01*
X138689905Y-129221055D01*
X138637446Y-129225200D01*
X138574022Y-129232433D01*
X138553730Y-129234918D01*
X138502610Y-129235895D01*
X138465207Y-129220462D01*
X138422599Y-129182363D01*
X138360769Y-129120533D01*
X138360769Y-128770343D01*
X138361251Y-128666857D01*
X138362753Y-128568192D01*
X138365089Y-128490068D01*
X138368071Y-128438662D01*
X138371509Y-128420154D01*
X138372230Y-128420204D01*
X138397203Y-128429413D01*
X138439399Y-128449707D01*
X138496549Y-128479261D01*
X138501928Y-128786746D01*
X138507308Y-129094231D01*
X138624539Y-129094231D01*
X138629885Y-128757192D01*
X138631579Y-128665574D01*
X138634005Y-128567649D01*
X138636634Y-128489906D01*
X138639246Y-128438642D01*
X138641623Y-128420154D01*
X138642306Y-128420219D01*
X138665996Y-128427020D01*
X138709546Y-128441604D01*
X138771077Y-128463054D01*
X138771376Y-128759104D01*
X138771676Y-128810532D01*
X138773754Y-128910466D01*
X138777470Y-128993925D01*
X138782430Y-129053377D01*
X138788240Y-129081287D01*
X138809024Y-129096214D01*
X138851440Y-129100825D01*
X138898077Y-129094231D01*
X138903423Y-128757192D01*
X138905336Y-128671546D01*
X138909303Y-128570172D01*
X138914491Y-128490655D01*
X138920499Y-128438736D01*
X138926927Y-128420154D01*
X138951998Y-128426034D01*
G37*
X138951998Y-128426034D02*
X138994850Y-128442829D01*
X139044615Y-128465503D01*
X139044615Y-129120533D01*
X138982785Y-129182363D01*
X138968662Y-129196228D01*
X138929536Y-129227046D01*
X138890078Y-129237028D01*
X138831362Y-129232433D01*
X138807456Y-129229462D01*
X138745801Y-129223176D01*
X138702692Y-129220672D01*
X138689905Y-129221055D01*
X138637446Y-129225200D01*
X138574022Y-129232433D01*
X138553730Y-129234918D01*
X138502610Y-129235895D01*
X138465207Y-129220462D01*
X138422599Y-129182363D01*
X138360769Y-129120533D01*
X138360769Y-128770343D01*
X138361251Y-128666857D01*
X138362753Y-128568192D01*
X138365089Y-128490068D01*
X138368071Y-128438662D01*
X138371509Y-128420154D01*
X138372230Y-128420204D01*
X138397203Y-128429413D01*
X138439399Y-128449707D01*
X138496549Y-128479261D01*
X138501928Y-128786746D01*
X138507308Y-129094231D01*
X138624539Y-129094231D01*
X138629885Y-128757192D01*
X138631579Y-128665574D01*
X138634005Y-128567649D01*
X138636634Y-128489906D01*
X138639246Y-128438642D01*
X138641623Y-128420154D01*
X138642306Y-128420219D01*
X138665996Y-128427020D01*
X138709546Y-128441604D01*
X138771077Y-128463054D01*
X138771376Y-128759104D01*
X138771676Y-128810532D01*
X138773754Y-128910466D01*
X138777470Y-128993925D01*
X138782430Y-129053377D01*
X138788240Y-129081287D01*
X138809024Y-129096214D01*
X138851440Y-129100825D01*
X138898077Y-129094231D01*
X138903423Y-128757192D01*
X138905336Y-128671546D01*
X138909303Y-128570172D01*
X138914491Y-128490655D01*
X138920499Y-128438736D01*
X138926927Y-128420154D01*
X138951998Y-128426034D01*
G36*
X138027936Y-128421911D02*
G01*
X138069807Y-128432547D01*
X138108791Y-128459062D01*
X138158965Y-128508420D01*
X138191232Y-128543279D01*
X138224844Y-128588534D01*
X138240003Y-128630951D01*
X138243539Y-128684768D01*
X138243539Y-128772850D01*
X138183470Y-128741787D01*
X138135867Y-128703936D01*
X138103261Y-128652950D01*
X138097661Y-128639088D01*
X138054992Y-128585358D01*
X137995707Y-128558417D01*
X137931061Y-128561039D01*
X137872308Y-128596000D01*
X137847450Y-128624394D01*
X137832970Y-128660718D01*
X137848470Y-128693046D01*
X137896667Y-128725565D01*
X137980274Y-128762461D01*
X137992962Y-128767557D01*
X138069078Y-128800907D01*
X138134396Y-128833793D01*
X138175953Y-128859769D01*
X138217576Y-128906167D01*
X138245247Y-128980211D01*
X138242310Y-129059670D01*
X138209571Y-129134868D01*
X138147841Y-129196131D01*
X138097858Y-129222210D01*
X138001303Y-129240470D01*
X137947647Y-129238007D01*
X137897976Y-129224687D01*
X137878919Y-129196739D01*
X137886045Y-129150710D01*
X137888118Y-129144624D01*
X137904556Y-129112349D01*
X137931926Y-129100133D01*
X137984068Y-129100950D01*
X138020884Y-129102061D01*
X138063961Y-129092528D01*
X138093475Y-129064026D01*
X138110286Y-129028935D01*
X138112161Y-128992175D01*
X138112074Y-128991961D01*
X138090279Y-128972098D01*
X138043632Y-128943192D01*
X137983278Y-128910886D01*
X137920360Y-128880823D01*
X137866023Y-128858646D01*
X137831410Y-128850000D01*
X137826260Y-128858467D01*
X137819778Y-128898309D01*
X137815339Y-128963371D01*
X137813692Y-129045385D01*
X137813309Y-129102153D01*
X137811505Y-129173648D01*
X137808558Y-129222610D01*
X137804843Y-129240769D01*
X137785424Y-129234667D01*
X137746227Y-129218095D01*
X137696462Y-129195420D01*
X137696462Y-128904509D01*
X137696780Y-128829940D01*
X137699789Y-128716701D01*
X137707454Y-128632692D01*
X137721562Y-128571520D01*
X137743899Y-128526795D01*
X137776253Y-128492124D01*
X137820410Y-128461117D01*
X137876667Y-128435528D01*
X137980540Y-128420154D01*
X138027936Y-128421911D01*
G37*
X138027936Y-128421911D02*
X138069807Y-128432547D01*
X138108791Y-128459062D01*
X138158965Y-128508420D01*
X138191232Y-128543279D01*
X138224844Y-128588534D01*
X138240003Y-128630951D01*
X138243539Y-128684768D01*
X138243539Y-128772850D01*
X138183470Y-128741787D01*
X138135867Y-128703936D01*
X138103261Y-128652950D01*
X138097661Y-128639088D01*
X138054992Y-128585358D01*
X137995707Y-128558417D01*
X137931061Y-128561039D01*
X137872308Y-128596000D01*
X137847450Y-128624394D01*
X137832970Y-128660718D01*
X137848470Y-128693046D01*
X137896667Y-128725565D01*
X137980274Y-128762461D01*
X137992962Y-128767557D01*
X138069078Y-128800907D01*
X138134396Y-128833793D01*
X138175953Y-128859769D01*
X138217576Y-128906167D01*
X138245247Y-128980211D01*
X138242310Y-129059670D01*
X138209571Y-129134868D01*
X138147841Y-129196131D01*
X138097858Y-129222210D01*
X138001303Y-129240470D01*
X137947647Y-129238007D01*
X137897976Y-129224687D01*
X137878919Y-129196739D01*
X137886045Y-129150710D01*
X137888118Y-129144624D01*
X137904556Y-129112349D01*
X137931926Y-129100133D01*
X137984068Y-129100950D01*
X138020884Y-129102061D01*
X138063961Y-129092528D01*
X138093475Y-129064026D01*
X138110286Y-129028935D01*
X138112161Y-128992175D01*
X138112074Y-128991961D01*
X138090279Y-128972098D01*
X138043632Y-128943192D01*
X137983278Y-128910886D01*
X137920360Y-128880823D01*
X137866023Y-128858646D01*
X137831410Y-128850000D01*
X137826260Y-128858467D01*
X137819778Y-128898309D01*
X137815339Y-128963371D01*
X137813692Y-129045385D01*
X137813309Y-129102153D01*
X137811505Y-129173648D01*
X137808558Y-129222610D01*
X137804843Y-129240769D01*
X137785424Y-129234667D01*
X137746227Y-129218095D01*
X137696462Y-129195420D01*
X137696462Y-128904509D01*
X137696780Y-128829940D01*
X137699789Y-128716701D01*
X137707454Y-128632692D01*
X137721562Y-128571520D01*
X137743899Y-128526795D01*
X137776253Y-128492124D01*
X137820410Y-128461117D01*
X137876667Y-128435528D01*
X137980540Y-128420154D01*
X138027936Y-128421911D01*
G36*
X142690372Y-128383684D02*
G01*
X142781629Y-128426569D01*
X142856416Y-128500729D01*
X142871917Y-128523944D01*
X142884774Y-128550256D01*
X142893893Y-128583420D01*
X142900102Y-128629881D01*
X142904233Y-128696082D01*
X142907116Y-128788468D01*
X142909579Y-128913485D01*
X142915697Y-129260278D01*
X142864303Y-129240738D01*
X142817246Y-129222787D01*
X142782015Y-129205511D01*
X142759017Y-129183242D01*
X142745655Y-129149165D01*
X142739328Y-129096463D01*
X142737437Y-129018323D01*
X142737385Y-128907928D01*
X142737117Y-128819935D01*
X142735521Y-128735502D01*
X142731712Y-128677834D01*
X142724820Y-128639988D01*
X142713975Y-128615024D01*
X142698308Y-128596000D01*
X142659792Y-128569153D01*
X142595091Y-128559034D01*
X142531081Y-128584606D01*
X142526856Y-128587880D01*
X142513689Y-128603007D01*
X142503975Y-128627268D01*
X142496903Y-128666650D01*
X142491656Y-128727141D01*
X142487421Y-128814729D01*
X142483385Y-128935402D01*
X142473615Y-129258515D01*
X142307539Y-129184065D01*
X142307539Y-128889062D01*
X142307883Y-128808919D01*
X142310847Y-128697431D01*
X142318351Y-128614421D01*
X142332190Y-128553199D01*
X142354155Y-128507075D01*
X142386039Y-128469358D01*
X142429633Y-128433358D01*
X142492336Y-128397089D01*
X142591117Y-128373412D01*
X142690372Y-128383684D01*
G37*
X142690372Y-128383684D02*
X142781629Y-128426569D01*
X142856416Y-128500729D01*
X142871917Y-128523944D01*
X142884774Y-128550256D01*
X142893893Y-128583420D01*
X142900102Y-128629881D01*
X142904233Y-128696082D01*
X142907116Y-128788468D01*
X142909579Y-128913485D01*
X142915697Y-129260278D01*
X142864303Y-129240738D01*
X142817246Y-129222787D01*
X142782015Y-129205511D01*
X142759017Y-129183242D01*
X142745655Y-129149165D01*
X142739328Y-129096463D01*
X142737437Y-129018323D01*
X142737385Y-128907928D01*
X142737117Y-128819935D01*
X142735521Y-128735502D01*
X142731712Y-128677834D01*
X142724820Y-128639988D01*
X142713975Y-128615024D01*
X142698308Y-128596000D01*
X142659792Y-128569153D01*
X142595091Y-128559034D01*
X142531081Y-128584606D01*
X142526856Y-128587880D01*
X142513689Y-128603007D01*
X142503975Y-128627268D01*
X142496903Y-128666650D01*
X142491656Y-128727141D01*
X142487421Y-128814729D01*
X142483385Y-128935402D01*
X142473615Y-129258515D01*
X142307539Y-129184065D01*
X142307539Y-128889062D01*
X142307883Y-128808919D01*
X142310847Y-128697431D01*
X142318351Y-128614421D01*
X142332190Y-128553199D01*
X142354155Y-128507075D01*
X142386039Y-128469358D01*
X142429633Y-128433358D01*
X142492336Y-128397089D01*
X142591117Y-128373412D01*
X142690372Y-128383684D01*
G36*
X140781575Y-122089693D02*
G01*
X140917371Y-122089807D01*
X141019576Y-122090472D01*
X141093122Y-122092182D01*
X141142942Y-122095429D01*
X141173967Y-122100706D01*
X141191129Y-122108507D01*
X141199361Y-122119325D01*
X141203594Y-122133654D01*
X141203716Y-122134168D01*
X141210672Y-122167851D01*
X141223320Y-122232917D01*
X141240360Y-122322542D01*
X141260496Y-122429904D01*
X141282429Y-122548178D01*
X141284218Y-122557856D01*
X141306083Y-122672650D01*
X141326430Y-122773480D01*
X141343934Y-122854217D01*
X141357271Y-122908734D01*
X141365116Y-122930901D01*
X141365158Y-122930936D01*
X141389884Y-122943200D01*
X141440631Y-122963576D01*
X141506462Y-122987674D01*
X141510169Y-122988983D01*
X141594331Y-123020791D01*
X141692230Y-123060685D01*
X141783435Y-123100353D01*
X141933407Y-123168420D01*
X142265499Y-122941639D01*
X142288889Y-122925688D01*
X142389080Y-122857890D01*
X142478480Y-122798208D01*
X142551745Y-122750156D01*
X142603527Y-122717250D01*
X142628480Y-122703004D01*
X142645577Y-122706270D01*
X142684395Y-122731571D01*
X142744385Y-122781675D01*
X142827210Y-122857989D01*
X142934535Y-122961922D01*
X142944139Y-122971382D01*
X143029302Y-123056145D01*
X143104949Y-123132937D01*
X143166449Y-123196947D01*
X143209173Y-123243361D01*
X143228489Y-123267369D01*
X143228552Y-123267485D01*
X143231006Y-123285763D01*
X143221956Y-123315411D01*
X143199119Y-123360486D01*
X143160213Y-123425044D01*
X143102954Y-123513140D01*
X143025059Y-123628830D01*
X143011785Y-123648357D01*
X142944652Y-123747278D01*
X142885410Y-123834848D01*
X142837588Y-123905831D01*
X142804715Y-123954991D01*
X142790318Y-123977095D01*
X142789232Y-123981777D01*
X142796044Y-124016710D01*
X142816450Y-124073753D01*
X142847123Y-124143172D01*
X142888808Y-124233959D01*
X142935352Y-124341686D01*
X142974877Y-124439192D01*
X142984676Y-124464430D01*
X143010340Y-124528870D01*
X143029193Y-124573763D01*
X143037710Y-124590616D01*
X143047111Y-124591875D01*
X143089363Y-124599159D01*
X143158521Y-124611739D01*
X143247387Y-124628246D01*
X143348768Y-124647312D01*
X143455467Y-124667569D01*
X143560288Y-124687647D01*
X143656036Y-124706179D01*
X143735516Y-124721795D01*
X143791530Y-124733127D01*
X143816885Y-124738807D01*
X143821088Y-124740408D01*
X143831334Y-124749045D01*
X143838957Y-124767433D01*
X143844338Y-124800460D01*
X143847859Y-124853013D01*
X143849901Y-124929979D01*
X143850847Y-125036246D01*
X143851077Y-125176701D01*
X143851077Y-125603845D01*
X143748500Y-125624091D01*
X143736092Y-125626518D01*
X143670199Y-125639088D01*
X143579084Y-125656170D01*
X143473104Y-125675829D01*
X143362615Y-125696132D01*
X143319105Y-125704299D01*
X143221882Y-125724167D01*
X143140858Y-125742954D01*
X143083477Y-125758859D01*
X143057187Y-125770079D01*
X143045273Y-125788411D01*
X143023583Y-125836916D01*
X143001395Y-125899692D01*
X142993585Y-125923200D01*
X142964835Y-126000366D01*
X142927752Y-126091694D01*
X142888375Y-126182093D01*
X142867315Y-126229310D01*
X142837311Y-126299837D01*
X142816692Y-126352655D01*
X142809026Y-126378912D01*
X142809452Y-126380894D01*
X142823993Y-126408751D01*
X142856783Y-126462510D01*
X142904493Y-126536963D01*
X142963798Y-126626897D01*
X143031369Y-126727104D01*
X143253713Y-127053416D01*
X142961601Y-127346016D01*
X142933349Y-127374171D01*
X142846961Y-127458449D01*
X142769756Y-127531128D01*
X142706258Y-127588112D01*
X142660990Y-127625307D01*
X142638474Y-127638616D01*
X142614023Y-127628490D01*
X142562819Y-127599421D01*
X142490747Y-127554896D01*
X142403460Y-127498411D01*
X142306612Y-127433462D01*
X142211486Y-127369314D01*
X142125669Y-127312827D01*
X142055652Y-127268184D01*
X142006876Y-127238855D01*
X141984783Y-127228308D01*
X141983488Y-127228404D01*
X141954139Y-127238802D01*
X141902093Y-127263012D01*
X141837708Y-127296249D01*
X141837032Y-127296613D01*
X141751521Y-127339441D01*
X141692926Y-127360365D01*
X141656571Y-127360423D01*
X141637775Y-127340654D01*
X141629819Y-127321195D01*
X141608347Y-127269080D01*
X141575273Y-127188964D01*
X141532356Y-127085107D01*
X141481356Y-126961767D01*
X141424033Y-126823201D01*
X141362146Y-126673670D01*
X141306052Y-126537636D01*
X141248977Y-126398050D01*
X141198479Y-126273315D01*
X141156254Y-126167672D01*
X141123995Y-126085365D01*
X141103397Y-126030635D01*
X141096154Y-126007726D01*
X141109986Y-125986718D01*
X141148412Y-125951642D01*
X141202807Y-125910887D01*
X141333395Y-125804267D01*
X141450260Y-125668025D01*
X141535780Y-125518118D01*
X141589431Y-125358971D01*
X141610684Y-125195012D01*
X141599014Y-125030667D01*
X141553894Y-124870361D01*
X141474797Y-124718520D01*
X141361197Y-124579572D01*
X141301965Y-124525460D01*
X141160054Y-124429782D01*
X141008206Y-124367405D01*
X140850861Y-124336844D01*
X140692456Y-124336615D01*
X140537429Y-124365232D01*
X140390220Y-124421210D01*
X140255266Y-124503064D01*
X140137005Y-124609309D01*
X140039877Y-124738459D01*
X139968318Y-124889031D01*
X139926769Y-125059539D01*
X139919143Y-125141722D01*
X139929634Y-125319775D01*
X139976882Y-125488704D01*
X140059489Y-125645522D01*
X140176059Y-125787245D01*
X140325193Y-125910887D01*
X140377561Y-125949982D01*
X140416832Y-125985443D01*
X140431846Y-126007692D01*
X140425859Y-126027088D01*
X140406432Y-126079059D01*
X140375194Y-126159002D01*
X140333839Y-126262673D01*
X140284061Y-126385832D01*
X140227553Y-126524234D01*
X140166009Y-126673637D01*
X140110008Y-126809020D01*
X140052184Y-126948852D01*
X140000500Y-127073872D01*
X139956718Y-127179822D01*
X139922597Y-127262441D01*
X139899898Y-127317472D01*
X139890380Y-127340654D01*
X139890269Y-127340928D01*
X139871228Y-127360503D01*
X139834694Y-127360279D01*
X139775954Y-127339210D01*
X139690292Y-127296249D01*
X139683549Y-127292631D01*
X139619938Y-127260087D01*
X139569707Y-127237050D01*
X139543218Y-127228308D01*
X139521506Y-127238639D01*
X139472984Y-127267788D01*
X139403163Y-127312287D01*
X139317484Y-127368668D01*
X139221388Y-127433462D01*
X139126706Y-127496984D01*
X139039132Y-127553705D01*
X138966642Y-127598547D01*
X138914889Y-127628016D01*
X138889526Y-127638616D01*
X138885206Y-127637270D01*
X138855092Y-127616056D01*
X138803640Y-127572237D01*
X138735375Y-127509909D01*
X138654820Y-127433170D01*
X138566500Y-127346116D01*
X138274488Y-127053617D01*
X138729360Y-126384525D01*
X138660208Y-126234916D01*
X138660003Y-126234473D01*
X138618477Y-126139101D01*
X138576044Y-126032896D01*
X138541858Y-125938769D01*
X138536684Y-125923588D01*
X138510601Y-125853109D01*
X138487081Y-125798342D01*
X138470677Y-125770079D01*
X138463996Y-125766088D01*
X138423892Y-125752697D01*
X138355795Y-125735373D01*
X138267145Y-125715917D01*
X138165385Y-125696132D01*
X138134904Y-125690551D01*
X138024628Y-125670233D01*
X137921731Y-125651095D01*
X137836569Y-125635070D01*
X137779500Y-125624091D01*
X137676923Y-125603845D01*
X137676923Y-125176701D01*
X137676946Y-125124180D01*
X137677379Y-124996047D01*
X137678659Y-124900420D01*
X137681168Y-124832411D01*
X137685286Y-124787133D01*
X137691395Y-124759697D01*
X137699878Y-124745218D01*
X137711115Y-124738807D01*
X137721994Y-124736209D01*
X137766347Y-124727022D01*
X137837106Y-124712991D01*
X137927074Y-124695486D01*
X138029056Y-124675874D01*
X138135857Y-124655525D01*
X138240281Y-124635807D01*
X138335132Y-124618089D01*
X138413214Y-124603738D01*
X138467332Y-124594124D01*
X138490291Y-124590616D01*
X138491842Y-124588497D01*
X138504325Y-124561006D01*
X138525927Y-124508406D01*
X138553123Y-124439192D01*
X138590866Y-124345937D01*
X138637328Y-124238159D01*
X138680878Y-124143172D01*
X138690858Y-124121851D01*
X138718862Y-124055086D01*
X138735641Y-124003590D01*
X138737854Y-123977095D01*
X138736713Y-123975218D01*
X138718584Y-123947565D01*
X138682644Y-123893849D01*
X138632418Y-123819303D01*
X138571430Y-123729162D01*
X138503205Y-123628657D01*
X138426330Y-123514470D01*
X138368663Y-123425770D01*
X138329426Y-123360721D01*
X138306350Y-123315295D01*
X138297166Y-123285463D01*
X138299604Y-123267195D01*
X138300424Y-123265825D01*
X138322477Y-123239205D01*
X138367436Y-123190697D01*
X138430673Y-123125108D01*
X138507559Y-123047247D01*
X138593465Y-122961922D01*
X138682579Y-122875334D01*
X138769872Y-122793947D01*
X138834018Y-122739035D01*
X138876679Y-122709190D01*
X138899521Y-122703004D01*
X138902505Y-122704394D01*
X138933936Y-122723127D01*
X138990997Y-122759733D01*
X139068343Y-122810697D01*
X139160626Y-122872504D01*
X139262502Y-122941639D01*
X139594593Y-123168420D01*
X139744566Y-123100353D01*
X139748923Y-123098381D01*
X139841000Y-123058491D01*
X139938683Y-123018818D01*
X140021539Y-122987674D01*
X140021905Y-122987545D01*
X140087685Y-122963456D01*
X140138323Y-122943110D01*
X140162884Y-122930901D01*
X140163282Y-122930458D01*
X140171619Y-122905456D01*
X140185341Y-122848598D01*
X140203123Y-122766014D01*
X140223641Y-122663831D01*
X140245571Y-122548178D01*
X140246336Y-122544033D01*
X140268229Y-122426019D01*
X140288281Y-122319151D01*
X140305192Y-122230252D01*
X140317667Y-122166145D01*
X140324406Y-122133654D01*
X140324837Y-122131853D01*
X140329273Y-122117944D01*
X140338263Y-122107489D01*
X140356737Y-122099996D01*
X140389628Y-122094972D01*
X140441868Y-122091922D01*
X140518388Y-122090355D01*
X140624122Y-122089776D01*
X140764000Y-122089692D01*
X140781575Y-122089693D01*
G37*
X140781575Y-122089693D02*
X140917371Y-122089807D01*
X141019576Y-122090472D01*
X141093122Y-122092182D01*
X141142942Y-122095429D01*
X141173967Y-122100706D01*
X141191129Y-122108507D01*
X141199361Y-122119325D01*
X141203594Y-122133654D01*
X141203716Y-122134168D01*
X141210672Y-122167851D01*
X141223320Y-122232917D01*
X141240360Y-122322542D01*
X141260496Y-122429904D01*
X141282429Y-122548178D01*
X141284218Y-122557856D01*
X141306083Y-122672650D01*
X141326430Y-122773480D01*
X141343934Y-122854217D01*
X141357271Y-122908734D01*
X141365116Y-122930901D01*
X141365158Y-122930936D01*
X141389884Y-122943200D01*
X141440631Y-122963576D01*
X141506462Y-122987674D01*
X141510169Y-122988983D01*
X141594331Y-123020791D01*
X141692230Y-123060685D01*
X141783435Y-123100353D01*
X141933407Y-123168420D01*
X142265499Y-122941639D01*
X142288889Y-122925688D01*
X142389080Y-122857890D01*
X142478480Y-122798208D01*
X142551745Y-122750156D01*
X142603527Y-122717250D01*
X142628480Y-122703004D01*
X142645577Y-122706270D01*
X142684395Y-122731571D01*
X142744385Y-122781675D01*
X142827210Y-122857989D01*
X142934535Y-122961922D01*
X142944139Y-122971382D01*
X143029302Y-123056145D01*
X143104949Y-123132937D01*
X143166449Y-123196947D01*
X143209173Y-123243361D01*
X143228489Y-123267369D01*
X143228552Y-123267485D01*
X143231006Y-123285763D01*
X143221956Y-123315411D01*
X143199119Y-123360486D01*
X143160213Y-123425044D01*
X143102954Y-123513140D01*
X143025059Y-123628830D01*
X143011785Y-123648357D01*
X142944652Y-123747278D01*
X142885410Y-123834848D01*
X142837588Y-123905831D01*
X142804715Y-123954991D01*
X142790318Y-123977095D01*
X142789232Y-123981777D01*
X142796044Y-124016710D01*
X142816450Y-124073753D01*
X142847123Y-124143172D01*
X142888808Y-124233959D01*
X142935352Y-124341686D01*
X142974877Y-124439192D01*
X142984676Y-124464430D01*
X143010340Y-124528870D01*
X143029193Y-124573763D01*
X143037710Y-124590616D01*
X143047111Y-124591875D01*
X143089363Y-124599159D01*
X143158521Y-124611739D01*
X143247387Y-124628246D01*
X143348768Y-124647312D01*
X143455467Y-124667569D01*
X143560288Y-124687647D01*
X143656036Y-124706179D01*
X143735516Y-124721795D01*
X143791530Y-124733127D01*
X143816885Y-124738807D01*
X143821088Y-124740408D01*
X143831334Y-124749045D01*
X143838957Y-124767433D01*
X143844338Y-124800460D01*
X143847859Y-124853013D01*
X143849901Y-124929979D01*
X143850847Y-125036246D01*
X143851077Y-125176701D01*
X143851077Y-125603845D01*
X143748500Y-125624091D01*
X143736092Y-125626518D01*
X143670199Y-125639088D01*
X143579084Y-125656170D01*
X143473104Y-125675829D01*
X143362615Y-125696132D01*
X143319105Y-125704299D01*
X143221882Y-125724167D01*
X143140858Y-125742954D01*
X143083477Y-125758859D01*
X143057187Y-125770079D01*
X143045273Y-125788411D01*
X143023583Y-125836916D01*
X143001395Y-125899692D01*
X142993585Y-125923200D01*
X142964835Y-126000366D01*
X142927752Y-126091694D01*
X142888375Y-126182093D01*
X142867315Y-126229310D01*
X142837311Y-126299837D01*
X142816692Y-126352655D01*
X142809026Y-126378912D01*
X142809452Y-126380894D01*
X142823993Y-126408751D01*
X142856783Y-126462510D01*
X142904493Y-126536963D01*
X142963798Y-126626897D01*
X143031369Y-126727104D01*
X143253713Y-127053416D01*
X142961601Y-127346016D01*
X142933349Y-127374171D01*
X142846961Y-127458449D01*
X142769756Y-127531128D01*
X142706258Y-127588112D01*
X142660990Y-127625307D01*
X142638474Y-127638616D01*
X142614023Y-127628490D01*
X142562819Y-127599421D01*
X142490747Y-127554896D01*
X142403460Y-127498411D01*
X142306612Y-127433462D01*
X142211486Y-127369314D01*
X142125669Y-127312827D01*
X142055652Y-127268184D01*
X142006876Y-127238855D01*
X141984783Y-127228308D01*
X141983488Y-127228404D01*
X141954139Y-127238802D01*
X141902093Y-127263012D01*
X141837708Y-127296249D01*
X141837032Y-127296613D01*
X141751521Y-127339441D01*
X141692926Y-127360365D01*
X141656571Y-127360423D01*
X141637775Y-127340654D01*
X141629819Y-127321195D01*
X141608347Y-127269080D01*
X141575273Y-127188964D01*
X141532356Y-127085107D01*
X141481356Y-126961767D01*
X141424033Y-126823201D01*
X141362146Y-126673670D01*
X141306052Y-126537636D01*
X141248977Y-126398050D01*
X141198479Y-126273315D01*
X141156254Y-126167672D01*
X141123995Y-126085365D01*
X141103397Y-126030635D01*
X141096154Y-126007726D01*
X141109986Y-125986718D01*
X141148412Y-125951642D01*
X141202807Y-125910887D01*
X141333395Y-125804267D01*
X141450260Y-125668025D01*
X141535780Y-125518118D01*
X141589431Y-125358971D01*
X141610684Y-125195012D01*
X141599014Y-125030667D01*
X141553894Y-124870361D01*
X141474797Y-124718520D01*
X141361197Y-124579572D01*
X141301965Y-124525460D01*
X141160054Y-124429782D01*
X141008206Y-124367405D01*
X140850861Y-124336844D01*
X140692456Y-124336615D01*
X140537429Y-124365232D01*
X140390220Y-124421210D01*
X140255266Y-124503064D01*
X140137005Y-124609309D01*
X140039877Y-124738459D01*
X139968318Y-124889031D01*
X139926769Y-125059539D01*
X139919143Y-125141722D01*
X139929634Y-125319775D01*
X139976882Y-125488704D01*
X140059489Y-125645522D01*
X140176059Y-125787245D01*
X140325193Y-125910887D01*
X140377561Y-125949982D01*
X140416832Y-125985443D01*
X140431846Y-126007692D01*
X140425859Y-126027088D01*
X140406432Y-126079059D01*
X140375194Y-126159002D01*
X140333839Y-126262673D01*
X140284061Y-126385832D01*
X140227553Y-126524234D01*
X140166009Y-126673637D01*
X140110008Y-126809020D01*
X140052184Y-126948852D01*
X140000500Y-127073872D01*
X139956718Y-127179822D01*
X139922597Y-127262441D01*
X139899898Y-127317472D01*
X139890380Y-127340654D01*
X139890269Y-127340928D01*
X139871228Y-127360503D01*
X139834694Y-127360279D01*
X139775954Y-127339210D01*
X139690292Y-127296249D01*
X139683549Y-127292631D01*
X139619938Y-127260087D01*
X139569707Y-127237050D01*
X139543218Y-127228308D01*
X139521506Y-127238639D01*
X139472984Y-127267788D01*
X139403163Y-127312287D01*
X139317484Y-127368668D01*
X139221388Y-127433462D01*
X139126706Y-127496984D01*
X139039132Y-127553705D01*
X138966642Y-127598547D01*
X138914889Y-127628016D01*
X138889526Y-127638616D01*
X138885206Y-127637270D01*
X138855092Y-127616056D01*
X138803640Y-127572237D01*
X138735375Y-127509909D01*
X138654820Y-127433170D01*
X138566500Y-127346116D01*
X138274488Y-127053617D01*
X138729360Y-126384525D01*
X138660208Y-126234916D01*
X138660003Y-126234473D01*
X138618477Y-126139101D01*
X138576044Y-126032896D01*
X138541858Y-125938769D01*
X138536684Y-125923588D01*
X138510601Y-125853109D01*
X138487081Y-125798342D01*
X138470677Y-125770079D01*
X138463996Y-125766088D01*
X138423892Y-125752697D01*
X138355795Y-125735373D01*
X138267145Y-125715917D01*
X138165385Y-125696132D01*
X138134904Y-125690551D01*
X138024628Y-125670233D01*
X137921731Y-125651095D01*
X137836569Y-125635070D01*
X137779500Y-125624091D01*
X137676923Y-125603845D01*
X137676923Y-125176701D01*
X137676946Y-125124180D01*
X137677379Y-124996047D01*
X137678659Y-124900420D01*
X137681168Y-124832411D01*
X137685286Y-124787133D01*
X137691395Y-124759697D01*
X137699878Y-124745218D01*
X137711115Y-124738807D01*
X137721994Y-124736209D01*
X137766347Y-124727022D01*
X137837106Y-124712991D01*
X137927074Y-124695486D01*
X138029056Y-124675874D01*
X138135857Y-124655525D01*
X138240281Y-124635807D01*
X138335132Y-124618089D01*
X138413214Y-124603738D01*
X138467332Y-124594124D01*
X138490291Y-124590616D01*
X138491842Y-124588497D01*
X138504325Y-124561006D01*
X138525927Y-124508406D01*
X138553123Y-124439192D01*
X138590866Y-124345937D01*
X138637328Y-124238159D01*
X138680878Y-124143172D01*
X138690858Y-124121851D01*
X138718862Y-124055086D01*
X138735641Y-124003590D01*
X138737854Y-123977095D01*
X138736713Y-123975218D01*
X138718584Y-123947565D01*
X138682644Y-123893849D01*
X138632418Y-123819303D01*
X138571430Y-123729162D01*
X138503205Y-123628657D01*
X138426330Y-123514470D01*
X138368663Y-123425770D01*
X138329426Y-123360721D01*
X138306350Y-123315295D01*
X138297166Y-123285463D01*
X138299604Y-123267195D01*
X138300424Y-123265825D01*
X138322477Y-123239205D01*
X138367436Y-123190697D01*
X138430673Y-123125108D01*
X138507559Y-123047247D01*
X138593465Y-122961922D01*
X138682579Y-122875334D01*
X138769872Y-122793947D01*
X138834018Y-122739035D01*
X138876679Y-122709190D01*
X138899521Y-122703004D01*
X138902505Y-122704394D01*
X138933936Y-122723127D01*
X138990997Y-122759733D01*
X139068343Y-122810697D01*
X139160626Y-122872504D01*
X139262502Y-122941639D01*
X139594593Y-123168420D01*
X139744566Y-123100353D01*
X139748923Y-123098381D01*
X139841000Y-123058491D01*
X139938683Y-123018818D01*
X140021539Y-122987674D01*
X140021905Y-122987545D01*
X140087685Y-122963456D01*
X140138323Y-122943110D01*
X140162884Y-122930901D01*
X140163282Y-122930458D01*
X140171619Y-122905456D01*
X140185341Y-122848598D01*
X140203123Y-122766014D01*
X140223641Y-122663831D01*
X140245571Y-122548178D01*
X140246336Y-122544033D01*
X140268229Y-122426019D01*
X140288281Y-122319151D01*
X140305192Y-122230252D01*
X140317667Y-122166145D01*
X140324406Y-122133654D01*
X140324837Y-122131853D01*
X140329273Y-122117944D01*
X140338263Y-122107489D01*
X140356737Y-122099996D01*
X140389628Y-122094972D01*
X140441868Y-122091922D01*
X140518388Y-122090355D01*
X140624122Y-122089776D01*
X140764000Y-122089692D01*
X140781575Y-122089693D01*
G36*
X143668574Y-128903643D02*
G01*
X143665066Y-128935021D01*
X143638927Y-129046705D01*
X143591694Y-129131642D01*
X143519862Y-129196741D01*
X143515802Y-129199428D01*
X143424487Y-129237634D01*
X143329144Y-129241034D01*
X143237274Y-129211939D01*
X143156379Y-129152660D01*
X143093962Y-129065510D01*
X143092914Y-129063409D01*
X143072173Y-129009289D01*
X143056980Y-128947781D01*
X143048921Y-128890039D01*
X143049582Y-128847215D01*
X143060548Y-128830462D01*
X143070290Y-128831480D01*
X143116877Y-128850009D01*
X143169682Y-128884081D01*
X143214603Y-128923522D01*
X143237535Y-128958155D01*
X143261373Y-129005133D01*
X143310230Y-129047862D01*
X143366963Y-129064923D01*
X143387758Y-129059990D01*
X143428804Y-129035157D01*
X143464557Y-129000685D01*
X143479846Y-128969411D01*
X143479842Y-128969295D01*
X143462495Y-128954933D01*
X143416247Y-128929025D01*
X143348067Y-128895210D01*
X143264923Y-128857129D01*
X143264466Y-128856927D01*
X143174138Y-128816709D01*
X143113592Y-128787733D01*
X143076888Y-128765474D01*
X143058086Y-128745407D01*
X143051246Y-128723009D01*
X143050429Y-128693756D01*
X143056113Y-128638363D01*
X143249000Y-128638363D01*
X143268911Y-128655777D01*
X143318521Y-128681872D01*
X143319976Y-128682610D01*
X143378506Y-128710483D01*
X143430868Y-128732719D01*
X143464086Y-128742126D01*
X143477410Y-128729552D01*
X143479846Y-128686468D01*
X143469724Y-128632847D01*
X143434631Y-128584119D01*
X143383823Y-128558856D01*
X143327181Y-128561406D01*
X143274584Y-128596120D01*
X143253910Y-128620107D01*
X143249000Y-128638363D01*
X143056113Y-128638363D01*
X143057622Y-128623654D01*
X143093184Y-128528412D01*
X143152714Y-128453567D01*
X143229746Y-128401745D01*
X143317815Y-128375573D01*
X143410454Y-128377676D01*
X143501198Y-128410681D01*
X143583579Y-128477215D01*
X143629222Y-128543055D01*
X143662008Y-128637036D01*
X143667339Y-128686468D01*
X143674787Y-128755536D01*
X143668574Y-128903643D01*
G37*
X143668574Y-128903643D02*
X143665066Y-128935021D01*
X143638927Y-129046705D01*
X143591694Y-129131642D01*
X143519862Y-129196741D01*
X143515802Y-129199428D01*
X143424487Y-129237634D01*
X143329144Y-129241034D01*
X143237274Y-129211939D01*
X143156379Y-129152660D01*
X143093962Y-129065510D01*
X143092914Y-129063409D01*
X143072173Y-129009289D01*
X143056980Y-128947781D01*
X143048921Y-128890039D01*
X143049582Y-128847215D01*
X143060548Y-128830462D01*
X143070290Y-128831480D01*
X143116877Y-128850009D01*
X143169682Y-128884081D01*
X143214603Y-128923522D01*
X143237535Y-128958155D01*
X143261373Y-129005133D01*
X143310230Y-129047862D01*
X143366963Y-129064923D01*
X143387758Y-129059990D01*
X143428804Y-129035157D01*
X143464557Y-129000685D01*
X143479846Y-128969411D01*
X143479842Y-128969295D01*
X143462495Y-128954933D01*
X143416247Y-128929025D01*
X143348067Y-128895210D01*
X143264923Y-128857129D01*
X143264466Y-128856927D01*
X143174138Y-128816709D01*
X143113592Y-128787733D01*
X143076888Y-128765474D01*
X143058086Y-128745407D01*
X143051246Y-128723009D01*
X143050429Y-128693756D01*
X143056113Y-128638363D01*
X143249000Y-128638363D01*
X143268911Y-128655777D01*
X143318521Y-128681872D01*
X143319976Y-128682610D01*
X143378506Y-128710483D01*
X143430868Y-128732719D01*
X143464086Y-128742126D01*
X143477410Y-128729552D01*
X143479846Y-128686468D01*
X143469724Y-128632847D01*
X143434631Y-128584119D01*
X143383823Y-128558856D01*
X143327181Y-128561406D01*
X143274584Y-128596120D01*
X143253910Y-128620107D01*
X143249000Y-128638363D01*
X143056113Y-128638363D01*
X143057622Y-128623654D01*
X143093184Y-128528412D01*
X143152714Y-128453567D01*
X143229746Y-128401745D01*
X143317815Y-128375573D01*
X143410454Y-128377676D01*
X143501198Y-128410681D01*
X143583579Y-128477215D01*
X143629222Y-128543055D01*
X143662008Y-128637036D01*
X143667339Y-128686468D01*
X143674787Y-128755536D01*
X143668574Y-128903643D01*
G36*
X144413763Y-129050269D02*
G01*
X144414300Y-129093802D01*
X144416019Y-129239344D01*
X144416365Y-129350711D01*
X144414277Y-129431804D01*
X144408698Y-129486522D01*
X144398567Y-129518761D01*
X144382826Y-129532422D01*
X144360417Y-129531403D01*
X144330280Y-129519603D01*
X144291355Y-129500920D01*
X144283038Y-129496933D01*
X144248402Y-129477419D01*
X144230314Y-129454202D01*
X144223392Y-129415492D01*
X144222256Y-129349497D01*
X144222205Y-129231000D01*
X144100141Y-129231000D01*
X144025055Y-129227712D01*
X143966015Y-129214377D01*
X143916986Y-129187423D01*
X143913330Y-129184788D01*
X143863581Y-129140286D01*
X143828959Y-129086523D01*
X143807123Y-129016154D01*
X143795737Y-128921830D01*
X143792959Y-128815271D01*
X143987846Y-128815271D01*
X143987880Y-128833131D01*
X143989735Y-128913748D01*
X143995693Y-128966447D01*
X144007506Y-129000668D01*
X144026923Y-129025846D01*
X144028133Y-129027049D01*
X144075858Y-129059628D01*
X144122110Y-129056417D01*
X144174350Y-129016965D01*
X144187128Y-129003482D01*
X144205949Y-128975837D01*
X144216562Y-128939880D01*
X144221252Y-128885364D01*
X144222308Y-128802042D01*
X144221394Y-128751598D01*
X144211477Y-128659857D01*
X144188842Y-128599752D01*
X144151238Y-128566900D01*
X144096416Y-128556923D01*
X144073317Y-128559050D01*
X144033350Y-128580147D01*
X144006926Y-128627161D01*
X143992330Y-128704175D01*
X143987846Y-128815271D01*
X143792959Y-128815271D01*
X143792462Y-128796206D01*
X143793187Y-128704536D01*
X143796490Y-128635098D01*
X143803828Y-128586945D01*
X143816655Y-128550866D01*
X143836423Y-128517648D01*
X143854569Y-128492261D01*
X143920461Y-128423727D01*
X143995114Y-128386505D01*
X144088904Y-128374722D01*
X144196240Y-128386467D01*
X144289031Y-128428595D01*
X144362421Y-128502898D01*
X144367954Y-128510764D01*
X144380857Y-128531668D01*
X144390742Y-128555555D01*
X144398093Y-128587582D01*
X144403394Y-128632905D01*
X144407127Y-128696679D01*
X144409778Y-128784060D01*
X144410096Y-128802042D01*
X144411828Y-128900205D01*
X144413763Y-129050269D01*
G37*
X144413763Y-129050269D02*
X144414300Y-129093802D01*
X144416019Y-129239344D01*
X144416365Y-129350711D01*
X144414277Y-129431804D01*
X144408698Y-129486522D01*
X144398567Y-129518761D01*
X144382826Y-129532422D01*
X144360417Y-129531403D01*
X144330280Y-129519603D01*
X144291355Y-129500920D01*
X144283038Y-129496933D01*
X144248402Y-129477419D01*
X144230314Y-129454202D01*
X144223392Y-129415492D01*
X144222256Y-129349497D01*
X144222205Y-129231000D01*
X144100141Y-129231000D01*
X144025055Y-129227712D01*
X143966015Y-129214377D01*
X143916986Y-129187423D01*
X143913330Y-129184788D01*
X143863581Y-129140286D01*
X143828959Y-129086523D01*
X143807123Y-129016154D01*
X143795737Y-128921830D01*
X143792959Y-128815271D01*
X143987846Y-128815271D01*
X143987880Y-128833131D01*
X143989735Y-128913748D01*
X143995693Y-128966447D01*
X144007506Y-129000668D01*
X144026923Y-129025846D01*
X144028133Y-129027049D01*
X144075858Y-129059628D01*
X144122110Y-129056417D01*
X144174350Y-129016965D01*
X144187128Y-129003482D01*
X144205949Y-128975837D01*
X144216562Y-128939880D01*
X144221252Y-128885364D01*
X144222308Y-128802042D01*
X144221394Y-128751598D01*
X144211477Y-128659857D01*
X144188842Y-128599752D01*
X144151238Y-128566900D01*
X144096416Y-128556923D01*
X144073317Y-128559050D01*
X144033350Y-128580147D01*
X144006926Y-128627161D01*
X143992330Y-128704175D01*
X143987846Y-128815271D01*
X143792959Y-128815271D01*
X143792462Y-128796206D01*
X143793187Y-128704536D01*
X143796490Y-128635098D01*
X143803828Y-128586945D01*
X143816655Y-128550866D01*
X143836423Y-128517648D01*
X143854569Y-128492261D01*
X143920461Y-128423727D01*
X143995114Y-128386505D01*
X144088904Y-128374722D01*
X144196240Y-128386467D01*
X144289031Y-128428595D01*
X144362421Y-128502898D01*
X144367954Y-128510764D01*
X144380857Y-128531668D01*
X144390742Y-128555555D01*
X144398093Y-128587582D01*
X144403394Y-128632905D01*
X144407127Y-128696679D01*
X144409778Y-128784060D01*
X144410096Y-128802042D01*
X144411828Y-128900205D01*
X144413763Y-129050269D01*
G36*
X140235892Y-128449167D02*
G01*
X140242060Y-128452581D01*
X140292447Y-128491692D01*
X140337498Y-128541975D01*
X140345355Y-128553339D01*
X140360376Y-128579860D01*
X140371107Y-128611336D01*
X140378486Y-128654591D01*
X140383452Y-128716449D01*
X140386942Y-128803733D01*
X140389893Y-128923269D01*
X140390311Y-128943478D01*
X140391654Y-129074499D01*
X140389761Y-129167296D01*
X140384605Y-129222507D01*
X140376158Y-129240769D01*
X140350594Y-129235301D01*
X140307166Y-129218733D01*
X140296940Y-129213888D01*
X140280967Y-129202920D01*
X140269954Y-129184890D01*
X140262750Y-129153396D01*
X140258208Y-129102036D01*
X140255180Y-129024410D01*
X140252516Y-128914115D01*
X140251785Y-128881875D01*
X140248965Y-128780050D01*
X140245304Y-128708788D01*
X140239694Y-128661332D01*
X140231029Y-128630925D01*
X140218202Y-128610810D01*
X140200105Y-128594229D01*
X140146525Y-128565161D01*
X140080612Y-128559564D01*
X140021635Y-128581807D01*
X139979203Y-128627859D01*
X139962923Y-128693692D01*
X139962470Y-128711587D01*
X139953578Y-128743982D01*
X139927325Y-128748925D01*
X139875919Y-128729633D01*
X139864013Y-128723446D01*
X139831835Y-128687058D01*
X139831198Y-128632954D01*
X139861856Y-128558128D01*
X139889978Y-128517350D01*
X139961883Y-128459421D01*
X140050638Y-128426670D01*
X140145542Y-128422212D01*
X140235892Y-128449167D01*
G37*
X140235892Y-128449167D02*
X140242060Y-128452581D01*
X140292447Y-128491692D01*
X140337498Y-128541975D01*
X140345355Y-128553339D01*
X140360376Y-128579860D01*
X140371107Y-128611336D01*
X140378486Y-128654591D01*
X140383452Y-128716449D01*
X140386942Y-128803733D01*
X140389893Y-128923269D01*
X140390311Y-128943478D01*
X140391654Y-129074499D01*
X140389761Y-129167296D01*
X140384605Y-129222507D01*
X140376158Y-129240769D01*
X140350594Y-129235301D01*
X140307166Y-129218733D01*
X140296940Y-129213888D01*
X140280967Y-129202920D01*
X140269954Y-129184890D01*
X140262750Y-129153396D01*
X140258208Y-129102036D01*
X140255180Y-129024410D01*
X140252516Y-128914115D01*
X140251785Y-128881875D01*
X140248965Y-128780050D01*
X140245304Y-128708788D01*
X140239694Y-128661332D01*
X140231029Y-128630925D01*
X140218202Y-128610810D01*
X140200105Y-128594229D01*
X140146525Y-128565161D01*
X140080612Y-128559564D01*
X140021635Y-128581807D01*
X139979203Y-128627859D01*
X139962923Y-128693692D01*
X139962470Y-128711587D01*
X139953578Y-128743982D01*
X139927325Y-128748925D01*
X139875919Y-128729633D01*
X139864013Y-128723446D01*
X139831835Y-128687058D01*
X139831198Y-128632954D01*
X139861856Y-128558128D01*
X139889978Y-128517350D01*
X139961883Y-128459421D01*
X140050638Y-128426670D01*
X140145542Y-128422212D01*
X140235892Y-128449167D01*
G36*
X136914413Y-128886449D02*
G01*
X136909641Y-128989047D01*
X136897150Y-129064126D01*
X136874121Y-129119748D01*
X136837732Y-129163975D01*
X136785162Y-129204869D01*
X136751714Y-129223466D01*
X136698098Y-129235991D01*
X136622780Y-129235003D01*
X136580672Y-129231035D01*
X136529879Y-129218920D01*
X136489280Y-129192585D01*
X136442049Y-129143514D01*
X136435738Y-129136346D01*
X136393277Y-129081189D01*
X136373018Y-129033150D01*
X136367846Y-128976184D01*
X136367846Y-128892471D01*
X136426346Y-128914552D01*
X136468994Y-128940364D01*
X136506064Y-129000928D01*
X136513803Y-129020320D01*
X136557074Y-129075235D01*
X136615976Y-129102879D01*
X136680111Y-129100393D01*
X136739077Y-129064923D01*
X136759342Y-129042805D01*
X136777720Y-129009436D01*
X136771971Y-128979117D01*
X136738887Y-128947913D01*
X136675261Y-128911887D01*
X136577885Y-128867103D01*
X136377615Y-128779445D01*
X136372301Y-128692607D01*
X136374299Y-128637296D01*
X136504783Y-128637296D01*
X136514688Y-128671538D01*
X136559756Y-128708096D01*
X136641557Y-128749692D01*
X136655092Y-128755718D01*
X136719818Y-128783753D01*
X136768247Y-128803472D01*
X136790751Y-128810923D01*
X136794161Y-128805438D01*
X136795529Y-128771948D01*
X136790651Y-128718116D01*
X136778364Y-128665473D01*
X136740041Y-128599151D01*
X136684720Y-128561780D01*
X136618640Y-128556721D01*
X136548040Y-128587339D01*
X136528474Y-128602648D01*
X136504783Y-128637296D01*
X136374299Y-128637296D01*
X136374647Y-128627663D01*
X136404186Y-128545590D01*
X136441472Y-128500361D01*
X136518776Y-128449838D01*
X136610478Y-128424316D01*
X136705274Y-128426336D01*
X136791859Y-128458440D01*
X136810920Y-128470767D01*
X136854640Y-128508912D01*
X136884540Y-128557167D01*
X136902968Y-128622710D01*
X136912270Y-128712720D01*
X136913499Y-128771948D01*
X136914794Y-128834376D01*
X136914413Y-128886449D01*
G37*
X136914413Y-128886449D02*
X136909641Y-128989047D01*
X136897150Y-129064126D01*
X136874121Y-129119748D01*
X136837732Y-129163975D01*
X136785162Y-129204869D01*
X136751714Y-129223466D01*
X136698098Y-129235991D01*
X136622780Y-129235003D01*
X136580672Y-129231035D01*
X136529879Y-129218920D01*
X136489280Y-129192585D01*
X136442049Y-129143514D01*
X136435738Y-129136346D01*
X136393277Y-129081189D01*
X136373018Y-129033150D01*
X136367846Y-128976184D01*
X136367846Y-128892471D01*
X136426346Y-128914552D01*
X136468994Y-128940364D01*
X136506064Y-129000928D01*
X136513803Y-129020320D01*
X136557074Y-129075235D01*
X136615976Y-129102879D01*
X136680111Y-129100393D01*
X136739077Y-129064923D01*
X136759342Y-129042805D01*
X136777720Y-129009436D01*
X136771971Y-128979117D01*
X136738887Y-128947913D01*
X136675261Y-128911887D01*
X136577885Y-128867103D01*
X136377615Y-128779445D01*
X136372301Y-128692607D01*
X136374299Y-128637296D01*
X136504783Y-128637296D01*
X136514688Y-128671538D01*
X136559756Y-128708096D01*
X136641557Y-128749692D01*
X136655092Y-128755718D01*
X136719818Y-128783753D01*
X136768247Y-128803472D01*
X136790751Y-128810923D01*
X136794161Y-128805438D01*
X136795529Y-128771948D01*
X136790651Y-128718116D01*
X136778364Y-128665473D01*
X136740041Y-128599151D01*
X136684720Y-128561780D01*
X136618640Y-128556721D01*
X136548040Y-128587339D01*
X136528474Y-128602648D01*
X136504783Y-128637296D01*
X136374299Y-128637296D01*
X136374647Y-128627663D01*
X136404186Y-128545590D01*
X136441472Y-128500361D01*
X136518776Y-128449838D01*
X136610478Y-128424316D01*
X136705274Y-128426336D01*
X136791859Y-128458440D01*
X136810920Y-128470767D01*
X136854640Y-128508912D01*
X136884540Y-128557167D01*
X136902968Y-128622710D01*
X136912270Y-128712720D01*
X136913499Y-128771948D01*
X136914794Y-128834376D01*
X136914413Y-128886449D01*
D16*
X101750000Y-135000000D02*
G75*
G03*
X101750000Y-135000000I-1200000J0D01*
G01*
G36*
X99587523Y-92607008D02*
G01*
X99634954Y-92607438D01*
X99687604Y-92608098D01*
X99744171Y-92608983D01*
X100011127Y-92613563D01*
X100208751Y-92767560D01*
X100214565Y-92772094D01*
X100234909Y-92787983D01*
X100264498Y-92811113D01*
X100302914Y-92841156D01*
X100349740Y-92877787D01*
X100404559Y-92920679D01*
X100466955Y-92969505D01*
X100536510Y-93023940D01*
X100612807Y-93083656D01*
X100695430Y-93148327D01*
X100783962Y-93217626D01*
X100877985Y-93291228D01*
X100977083Y-93368805D01*
X101080838Y-93450032D01*
X101188835Y-93534581D01*
X101300654Y-93622126D01*
X101415881Y-93712341D01*
X101534098Y-93804899D01*
X101654887Y-93899474D01*
X101777833Y-93995739D01*
X101902518Y-94093367D01*
X102028524Y-94192033D01*
X102155436Y-94291410D01*
X102282836Y-94391171D01*
X102410307Y-94490989D01*
X102537432Y-94590539D01*
X102663794Y-94689494D01*
X102788977Y-94787527D01*
X102912564Y-94884312D01*
X103034136Y-94979522D01*
X103153278Y-95072831D01*
X103269573Y-95163913D01*
X103382603Y-95252440D01*
X103491952Y-95338087D01*
X103597203Y-95420527D01*
X103697938Y-95499433D01*
X103793741Y-95574479D01*
X103884195Y-95645339D01*
X103968882Y-95711685D01*
X104047387Y-95773192D01*
X104119292Y-95829533D01*
X104184179Y-95880382D01*
X104241633Y-95925412D01*
X104445640Y-96085318D01*
X107700514Y-96094646D01*
X109037820Y-95064562D01*
X109135967Y-94988964D01*
X109264876Y-94889675D01*
X109396657Y-94788177D01*
X109530513Y-94685085D01*
X109665643Y-94581014D01*
X109801251Y-94476579D01*
X109936537Y-94372395D01*
X110070703Y-94269076D01*
X110202952Y-94167237D01*
X110332483Y-94067494D01*
X110458499Y-93970461D01*
X110580202Y-93876752D01*
X110696793Y-93786983D01*
X110807474Y-93701768D01*
X110911446Y-93621722D01*
X111007911Y-93547460D01*
X111096070Y-93479597D01*
X111175125Y-93418748D01*
X111226718Y-93379039D01*
X111315795Y-93310478D01*
X111402858Y-93243467D01*
X111487301Y-93178472D01*
X111568515Y-93115960D01*
X111645894Y-93056399D01*
X111718831Y-93000257D01*
X111786718Y-92948000D01*
X111848949Y-92900096D01*
X111904917Y-92857012D01*
X111954014Y-92819215D01*
X111995634Y-92787173D01*
X112029169Y-92761353D01*
X112054012Y-92742223D01*
X112069557Y-92730249D01*
X112163989Y-92657480D01*
X112278932Y-92653429D01*
X112303849Y-92652586D01*
X112349487Y-92651149D01*
X112402062Y-92649592D01*
X112458235Y-92648010D01*
X112514671Y-92646499D01*
X112568033Y-92645153D01*
X112742191Y-92640928D01*
X112738362Y-92665377D01*
X112738292Y-92665864D01*
X112737000Y-92675747D01*
X112734198Y-92697607D01*
X112729931Y-92731087D01*
X112724243Y-92775828D01*
X112717181Y-92831473D01*
X112708789Y-92897664D01*
X112699113Y-92974043D01*
X112688198Y-93060251D01*
X112676089Y-93155932D01*
X112662832Y-93260726D01*
X112648471Y-93374277D01*
X112633052Y-93496225D01*
X112616620Y-93626214D01*
X112599221Y-93763885D01*
X112580899Y-93908880D01*
X112561700Y-94060842D01*
X112541669Y-94219412D01*
X112520852Y-94384232D01*
X112499293Y-94554945D01*
X112477038Y-94731193D01*
X112454132Y-94912617D01*
X112430620Y-95098860D01*
X112406548Y-95289564D01*
X112381960Y-95484370D01*
X112356903Y-95682921D01*
X112331421Y-95884859D01*
X112305559Y-96089827D01*
X111876586Y-99489827D01*
X111877664Y-99696077D01*
X111877695Y-99701774D01*
X111877893Y-99731890D01*
X111878203Y-99773602D01*
X111878620Y-99826188D01*
X111879135Y-99888927D01*
X111879744Y-99961096D01*
X111880440Y-100041976D01*
X111881216Y-100130843D01*
X111882066Y-100226977D01*
X111882983Y-100329656D01*
X111883961Y-100438159D01*
X111884995Y-100551765D01*
X111886076Y-100669751D01*
X111887199Y-100791397D01*
X111888358Y-100915981D01*
X111889546Y-101042781D01*
X111890757Y-101171077D01*
X111891739Y-101275284D01*
X111892999Y-101410453D01*
X111894254Y-101546521D01*
X111895494Y-101682529D01*
X111896711Y-101817522D01*
X111897898Y-101950542D01*
X111899046Y-102080632D01*
X111900146Y-102206835D01*
X111901191Y-102328194D01*
X111902171Y-102443753D01*
X111903079Y-102552554D01*
X111903907Y-102653641D01*
X111904646Y-102746056D01*
X111905288Y-102828842D01*
X111905825Y-102901043D01*
X111906248Y-102961702D01*
X111906410Y-102985767D01*
X111907005Y-103069579D01*
X111907638Y-103152447D01*
X111908296Y-103233086D01*
X111908966Y-103310214D01*
X111909638Y-103382546D01*
X111910299Y-103448798D01*
X111910936Y-103507686D01*
X111911537Y-103557926D01*
X111912090Y-103598234D01*
X111912582Y-103627327D01*
X111912927Y-103646910D01*
X111913479Y-103687330D01*
X111914023Y-103737483D01*
X111914547Y-103795666D01*
X111915038Y-103860179D01*
X111915483Y-103929319D01*
X111915870Y-104001384D01*
X111916187Y-104074671D01*
X111916419Y-104147479D01*
X111916450Y-104159590D01*
X111916619Y-104236390D01*
X111916690Y-104301789D01*
X111916640Y-104356746D01*
X111916446Y-104402222D01*
X111916085Y-104439176D01*
X111915534Y-104468568D01*
X111914769Y-104491357D01*
X111913767Y-104508504D01*
X111912505Y-104520968D01*
X111910961Y-104529709D01*
X111909109Y-104535686D01*
X111906928Y-104539860D01*
X111906775Y-104540079D01*
X111901512Y-104547214D01*
X111889123Y-104563872D01*
X111869922Y-104589637D01*
X111844217Y-104624095D01*
X111812320Y-104666829D01*
X111774542Y-104717423D01*
X111731194Y-104775462D01*
X111682586Y-104840530D01*
X111629030Y-104912213D01*
X111570835Y-104990093D01*
X111508314Y-105073755D01*
X111441776Y-105162784D01*
X111371533Y-105256765D01*
X111297895Y-105355280D01*
X111221173Y-105457916D01*
X111141678Y-105564256D01*
X111059721Y-105673884D01*
X110975612Y-105786385D01*
X110889663Y-105901343D01*
X110802185Y-106018343D01*
X110713487Y-106136969D01*
X110623881Y-106256805D01*
X110533678Y-106377436D01*
X110443188Y-106498445D01*
X110352723Y-106619419D01*
X110262593Y-106739939D01*
X110173108Y-106859592D01*
X110084581Y-106977962D01*
X109997321Y-107094632D01*
X109911639Y-107209187D01*
X109827847Y-107321212D01*
X109746255Y-107430291D01*
X109667174Y-107536008D01*
X109590914Y-107637948D01*
X109517787Y-107735694D01*
X109448103Y-107828832D01*
X109382173Y-107916946D01*
X109320308Y-107999619D01*
X109262819Y-108076437D01*
X109210017Y-108146984D01*
X109162212Y-108210844D01*
X109119715Y-108267601D01*
X109082837Y-108316840D01*
X109051889Y-108358145D01*
X109027181Y-108391101D01*
X109009026Y-108415292D01*
X108997732Y-108430302D01*
X108993612Y-108435715D01*
X108993610Y-108435717D01*
X108987388Y-108437563D01*
X108969634Y-108442554D01*
X108940869Y-108450550D01*
X108901614Y-108461405D01*
X108852391Y-108474978D01*
X108793722Y-108491126D01*
X108726129Y-108509704D01*
X108650132Y-108530571D01*
X108566255Y-108553582D01*
X108475018Y-108578596D01*
X108376943Y-108605468D01*
X108272551Y-108634057D01*
X108162366Y-108664218D01*
X108046907Y-108695808D01*
X107926698Y-108728686D01*
X107802259Y-108762707D01*
X107674111Y-108797728D01*
X107542778Y-108833607D01*
X107412171Y-108869268D01*
X107283745Y-108904305D01*
X107158935Y-108938329D01*
X107038269Y-108971197D01*
X106922275Y-109002765D01*
X106811480Y-109032891D01*
X106706412Y-109061431D01*
X106607597Y-109088244D01*
X106515564Y-109113186D01*
X106430841Y-109136115D01*
X106353954Y-109156886D01*
X106285431Y-109175359D01*
X106225800Y-109191389D01*
X106175587Y-109204834D01*
X106135322Y-109215551D01*
X106105531Y-109223397D01*
X106086741Y-109228230D01*
X106079481Y-109229906D01*
X106078063Y-109229885D01*
X106064126Y-109227754D01*
X106040788Y-109222662D01*
X106010188Y-109215203D01*
X105974466Y-109205969D01*
X105935762Y-109195555D01*
X105896214Y-109184554D01*
X105857963Y-109173559D01*
X105823147Y-109163162D01*
X105793906Y-109153959D01*
X105772380Y-109146541D01*
X105760707Y-109141502D01*
X105746662Y-109135265D01*
X105722399Y-109128441D01*
X105695082Y-109123744D01*
X105694739Y-109123697D01*
X105684315Y-109121409D01*
X105662595Y-109116047D01*
X105630286Y-109107803D01*
X105588094Y-109096866D01*
X105536725Y-109083427D01*
X105476886Y-109067676D01*
X105409283Y-109049803D01*
X105334622Y-109029998D01*
X105253611Y-109008452D01*
X105166954Y-108985354D01*
X105075360Y-108960895D01*
X104979533Y-108935266D01*
X104880180Y-108908655D01*
X104778009Y-108881254D01*
X104673724Y-108853253D01*
X104568033Y-108824841D01*
X104461642Y-108796210D01*
X104355256Y-108767549D01*
X104249584Y-108739048D01*
X104145330Y-108710897D01*
X104043201Y-108683287D01*
X103943905Y-108656409D01*
X103848146Y-108630451D01*
X103756632Y-108605605D01*
X103670068Y-108582060D01*
X103589161Y-108560007D01*
X103514618Y-108539636D01*
X103447145Y-108521137D01*
X103387448Y-108504701D01*
X103336234Y-108490516D01*
X103294209Y-108478775D01*
X103262079Y-108469666D01*
X103240551Y-108463380D01*
X103230330Y-108460108D01*
X103226708Y-108457627D01*
X103213941Y-108447195D01*
X103192857Y-108429142D01*
X103164001Y-108403956D01*
X103127917Y-108372126D01*
X103085150Y-108334138D01*
X103036245Y-108290481D01*
X102981748Y-108241643D01*
X102922202Y-108188111D01*
X102858154Y-108130372D01*
X102790148Y-108068915D01*
X102718729Y-108004228D01*
X102644441Y-107936798D01*
X102567830Y-107867113D01*
X101925125Y-107281899D01*
X101405459Y-106432738D01*
X101370126Y-106374994D01*
X101313036Y-106281658D01*
X101257773Y-106191268D01*
X101204700Y-106104417D01*
X101154178Y-106021698D01*
X101106569Y-105943705D01*
X101062234Y-105871031D01*
X101021534Y-105804269D01*
X100984833Y-105744013D01*
X100952491Y-105690856D01*
X100924869Y-105645392D01*
X100902330Y-105608214D01*
X100885236Y-105579914D01*
X100873948Y-105561087D01*
X100868827Y-105552327D01*
X100858897Y-105534669D01*
X100843462Y-105508461D01*
X100828178Y-105483577D01*
X100827930Y-105483183D01*
X100820197Y-105470775D01*
X100806603Y-105448813D01*
X100787790Y-105418339D01*
X100764397Y-105380395D01*
X100737064Y-105336022D01*
X100706433Y-105286263D01*
X100673143Y-105232160D01*
X100637835Y-105174753D01*
X100601149Y-105115086D01*
X100563725Y-105054199D01*
X100526204Y-104993136D01*
X100489227Y-104932937D01*
X100453433Y-104874644D01*
X100419464Y-104819300D01*
X100387958Y-104767945D01*
X100359558Y-104721623D01*
X100334903Y-104681375D01*
X100314633Y-104648242D01*
X100299389Y-104623267D01*
X100247423Y-104537958D01*
X100250598Y-103813892D01*
X100250823Y-103761783D01*
X100251152Y-103682999D01*
X100251517Y-103593125D01*
X100251915Y-103492958D01*
X100252343Y-103383300D01*
X100252799Y-103264950D01*
X100253279Y-103138707D01*
X100253780Y-103005371D01*
X100254299Y-102865742D01*
X100254835Y-102720618D01*
X100255382Y-102570800D01*
X100255939Y-102417087D01*
X100256503Y-102260279D01*
X100257071Y-102101174D01*
X100257639Y-101940574D01*
X100258205Y-101779277D01*
X100258766Y-101618083D01*
X100259319Y-101457791D01*
X100259860Y-101299202D01*
X100265947Y-99508577D01*
X99867890Y-96060181D01*
X99858807Y-95981492D01*
X99835128Y-95776246D01*
X99811837Y-95574234D01*
X99788973Y-95375809D01*
X99766577Y-95181325D01*
X99744691Y-94991134D01*
X99723353Y-94805590D01*
X99702604Y-94625046D01*
X99682485Y-94449856D01*
X99663036Y-94280371D01*
X99644297Y-94116947D01*
X99626310Y-93959935D01*
X99609113Y-93809689D01*
X99592747Y-93666562D01*
X99577254Y-93530908D01*
X99562672Y-93403079D01*
X99549043Y-93283429D01*
X99536406Y-93172311D01*
X99524803Y-93070079D01*
X99514274Y-92977084D01*
X99504858Y-92893681D01*
X99496596Y-92820223D01*
X99489529Y-92757063D01*
X99483697Y-92704555D01*
X99479140Y-92663050D01*
X99475898Y-92632903D01*
X99474013Y-92614467D01*
X99473524Y-92608095D01*
X99476070Y-92607670D01*
X99489586Y-92607138D01*
X99513536Y-92606854D01*
X99546616Y-92606812D01*
X99587523Y-92607008D01*
G37*
X93850000Y-135000000D02*
G75*
G03*
X93850000Y-135000000I-1200000J0D01*
G01*
X115100000Y-116500000D02*
G75*
G03*
X115100000Y-116500000I-1200000J0D01*
G01*
X111944000Y-135000000D02*
G75*
G03*
X111944000Y-135000000I-1200000J0D01*
G01*
M02*
