M48
; DRILL file {KiCad 5.1.5-52549c5~84~ubuntu18.04.1} date Sat 21 Dec 2019 06:01:43 PM EST
; FORMAT={-:-/ absolute / inch / decimal}
; #@! TF.CreationDate,2019-12-21T18:01:43-05:00
; #@! TF.GenerationSoftware,Kicad,Pcbnew,5.1.5-52549c5~84~ubuntu18.04.1
; #@! TF.FileFunction,Plated,1,4,PTH
FMAT,2
INCH
T1C0.0138
T2C0.0197
T3C0.0374
T4C0.0394
T5C0.0433
T6C0.0945
T7C0.1063
%
G90
G05
T1
X3.9193Y-3.8602
X3.9213Y-3.95
X3.9646Y-3.9154
X3.9669Y-3.7634
X3.9823Y-4.0768
X4.0472Y-3.9498
X4.0492Y-3.7756
X4.0797Y-5.2451
X4.0935Y-5.0778
X4.0945Y-3.8287
X4.0945Y-3.8957
X4.1156Y-3.9887
X4.128Y-3.8602
X4.1339Y-5.3642
X4.137Y-3.9752
X4.1437Y-5.1969
X4.1457Y-5.1299
X4.1504Y-3.9972
X4.1555Y-3.8307
X4.1555Y-3.8937
X4.1757Y-5.1658
X4.185Y-4.0167
X4.185Y-5.3504
X4.1978Y-5.3976
X4.1978Y-5.4163
X4.1978Y-5.4341
X4.1978Y-5.4528
X4.1978Y-5.4715
X4.1978Y-5.4902
X4.1978Y-5.5089
X4.1978Y-5.5276
X4.1978Y-5.5472
X4.1978Y-5.5659
X4.1978Y-5.5837
X4.1978Y-5.6024
X4.2118Y-3.7811
X4.2126Y-3.9445
X4.2126Y-5.1299
X4.2126Y-5.1969
X4.2175Y-5.3976
X4.2175Y-5.4163
X4.2175Y-5.4341
X4.2175Y-5.4528
X4.2175Y-5.4715
X4.2175Y-5.4902
X4.2175Y-5.5089
X4.2175Y-5.5276
X4.2175Y-5.5472
X4.2175Y-5.5659
X4.2175Y-5.5837
X4.2175Y-5.6024
X4.2215Y-5.315
X4.2372Y-5.3976
X4.2372Y-5.4163
X4.2372Y-5.4341
X4.2372Y-5.4528
X4.2372Y-5.4715
X4.2372Y-5.4902
X4.2372Y-5.5089
X4.2372Y-5.5276
X4.2372Y-5.5472
X4.2372Y-5.5659
X4.2372Y-5.5837
X4.2372Y-5.6024
X4.2409Y-3.8571
X4.2569Y-5.3976
X4.2569Y-5.4163
X4.2569Y-5.4341
X4.2569Y-5.4528
X4.2569Y-5.4715
X4.2569Y-5.4902
X4.2569Y-5.5089
X4.2569Y-5.5276
X4.2569Y-5.5472
X4.2569Y-5.5659
X4.2569Y-5.5837
X4.2569Y-5.6024
X4.2628Y-5.2598
X4.2697Y-5.0856
X4.2764Y-5.4157
X4.2764Y-5.4339
X4.2766Y-5.3976
X4.2766Y-5.4528
X4.2766Y-5.4715
X4.2766Y-5.4902
X4.2766Y-5.5089
X4.2766Y-5.5276
X4.2766Y-5.5472
X4.2766Y-5.5659
X4.2766Y-5.5837
X4.2766Y-5.6024
X4.2894Y-3.9232
X4.2955Y-5.5835
X4.2959Y-5.5657
X4.2963Y-5.3976
X4.2963Y-5.4163
X4.2963Y-5.4341
X4.2963Y-5.4528
X4.2963Y-5.4715
X4.2963Y-5.4902
X4.2963Y-5.5093
X4.2963Y-5.5276
X4.2963Y-5.5472
X4.2963Y-5.6024
X4.3073Y-5.0199
X4.314Y-5.5093
X4.3152Y-5.5835
X4.3156Y-5.5657
X4.3159Y-5.3976
X4.3159Y-5.4167
X4.3159Y-5.4344
X4.3159Y-5.4528
X4.3159Y-5.4715
X4.3159Y-5.4902
X4.3159Y-5.5276
X4.3159Y-5.5472
X4.3159Y-5.6024
X4.3317Y-4.1831
X4.3327Y-4.2008
X4.3327Y-4.2185
X4.3327Y-4.3937
X4.3337Y-4.4114
X4.3337Y-4.4291
X4.3337Y-4.6014
X4.3337Y-4.7992
X4.3346Y-4.2933
X4.3346Y-4.6191
X4.3346Y-4.6368
X4.3346Y-4.6978
X4.3346Y-4.8169
X4.3346Y-4.8346
X4.3354Y-5.5087
X4.3356Y-4.311
X4.3356Y-4.3287
X4.3356Y-4.7156
X4.3356Y-4.7333
X4.3356Y-5.3976
X4.3356Y-5.4163
X4.3356Y-5.4341
X4.3356Y-5.4528
X4.3356Y-5.4715
X4.3356Y-5.4902
X4.3356Y-5.5276
X4.3356Y-5.5472
X4.3356Y-5.5659
X4.3356Y-5.5837
X4.3356Y-5.6024
X4.3396Y-4.0945
X4.3456Y-5.0993
X4.3484Y-4.1831
X4.3494Y-4.2008
X4.3494Y-4.2185
X4.3494Y-4.3937
X4.3504Y-4.4114
X4.3504Y-4.4291
X4.3504Y-4.6014
X4.3504Y-4.7992
X4.3514Y-4.2933
X4.3514Y-4.6191
X4.3514Y-4.6368
X4.3514Y-4.6978
X4.3514Y-4.8169
X4.3514Y-4.8346
X4.3524Y-4.311
X4.3524Y-4.3287
X4.3524Y-4.7156
X4.3524Y-4.7333
X4.3543Y-4.0768
X4.3551Y-5.4898
X4.3553Y-5.3976
X4.3553Y-5.4163
X4.3553Y-5.4341
X4.3553Y-5.4528
X4.3553Y-5.4715
X4.3553Y-5.5089
X4.3553Y-5.5276
X4.3553Y-5.5472
X4.3553Y-5.5659
X4.3553Y-5.5837
X4.3553Y-5.6028
X4.3563Y-4.0945
X4.3573Y-4.0049
X4.3573Y-4.0226
X4.3573Y-4.0404
X4.3573Y-4.0591
X4.3583Y-5.0395
X4.3652Y-4.1831
X4.3661Y-4.2008
X4.3661Y-4.2185
X4.3661Y-4.3937
X4.3671Y-4.4114
X4.3671Y-4.4291
X4.3671Y-4.6014
X4.3671Y-4.7992
X4.3681Y-4.2933
X4.3681Y-4.6191
X4.3681Y-4.6368
X4.3681Y-4.6978
X4.3681Y-4.8169
X4.3681Y-4.8346
X4.3687Y-5.0758
X4.3691Y-4.311
X4.3691Y-4.3287
X4.3691Y-4.7156
X4.3691Y-4.7333
X4.3711Y-4.0768
X4.373Y-4.0945
X4.374Y-4.0049
X4.374Y-4.0226
X4.374Y-4.0404
X4.374Y-4.0591
X4.375Y-5.3976
X4.375Y-5.4163
X4.375Y-5.4341
X4.375Y-5.4528
X4.375Y-5.4715
X4.375Y-5.4902
X4.375Y-5.5089
X4.375Y-5.5276
X4.375Y-5.5472
X4.375Y-5.5659
X4.375Y-5.5837
X4.375Y-5.6024
X4.3819Y-4.1831
X4.3829Y-4.2008
X4.3829Y-4.2185
X4.3829Y-4.3937
X4.3839Y-4.4114
X4.3839Y-4.4291
X4.3839Y-4.6014
X4.3839Y-4.7992
X4.3848Y-4.2933
X4.3848Y-4.6191
X4.3848Y-4.6368
X4.3848Y-4.6978
X4.3848Y-4.8169
X4.3848Y-4.8346
X4.3858Y-4.311
X4.3858Y-4.3287
X4.3858Y-4.7156
X4.3858Y-4.7333
X4.3878Y-4.0768
X4.3898Y-4.0945
X4.3907Y-4.0049
X4.3907Y-4.0226
X4.3907Y-4.0404
X4.3907Y-4.0591
X4.3947Y-5.0984
X4.3947Y-5.1171
X4.3947Y-5.1348
X4.3947Y-5.1535
X4.3947Y-5.1722
X4.3947Y-5.1909
X4.3947Y-5.2096
X4.3947Y-5.2283
X4.3947Y-5.248
X4.3947Y-5.2667
X4.3947Y-5.2844
X4.3947Y-5.3031
X4.3947Y-5.3219
X4.3947Y-5.3406
X4.3947Y-5.3593
X4.3947Y-5.378
X4.3947Y-5.3976
X4.3947Y-5.4163
X4.3947Y-5.4341
X4.3947Y-5.4528
X4.3947Y-5.4715
X4.3947Y-5.4902
X4.3947Y-5.5089
X4.3947Y-5.5276
X4.3947Y-5.5472
X4.3947Y-5.5659
X4.3947Y-5.5837
X4.3947Y-5.6024
X4.4045Y-4.0768
X4.4075Y-4.0049
X4.4075Y-4.0226
X4.4075Y-4.0404
X4.4075Y-4.0591
X4.4144Y-4.1998
X4.4144Y-4.2352
X4.4144Y-4.4862
X4.4144Y-5.0984
X4.4144Y-5.1171
X4.4144Y-5.1348
X4.4144Y-5.1535
X4.4144Y-5.1722
X4.4144Y-5.1909
X4.4144Y-5.2096
X4.4144Y-5.2283
X4.4144Y-5.248
X4.4144Y-5.2667
X4.4144Y-5.2844
X4.4144Y-5.3031
X4.4144Y-5.3219
X4.4144Y-5.3406
X4.4144Y-5.3593
X4.4144Y-5.378
X4.4144Y-5.3976
X4.4144Y-5.4163
X4.4144Y-5.4341
X4.4144Y-5.4528
X4.4144Y-5.4715
X4.4144Y-5.4902
X4.4144Y-5.5089
X4.4144Y-5.5276
X4.4144Y-5.5472
X4.4144Y-5.5659
X4.4144Y-5.5837
X4.4144Y-5.6024
X4.4154Y-4.1821
X4.4154Y-4.2175
X4.4154Y-4.2726
X4.4154Y-4.3081
X4.4154Y-4.3435
X4.4154Y-4.3789
X4.4154Y-4.4154
X4.4154Y-4.4508
X4.4154Y-4.4685
X4.4154Y-4.5039
X4.4163Y-4.2549
X4.4163Y-4.2904
X4.4163Y-4.3258
X4.4163Y-4.3612
X4.4163Y-4.3976
X4.4163Y-4.4331
X4.4262Y-4.6486
X4.4262Y-4.6663
X4.4262Y-4.685
X4.4262Y-4.7037
X4.4262Y-4.7215
X4.4262Y-4.7402
X4.4262Y-4.7589
X4.4262Y-4.7766
X4.4262Y-4.7953
X4.4262Y-4.814
X4.4262Y-4.8317
X4.4262Y-4.8504
X4.4262Y-4.8691
X4.4262Y-4.8907
X4.4262Y-4.9094
X4.4262Y-4.9281
X4.4262Y-4.9459
X4.4262Y-4.9646
X4.4262Y-4.9833
X4.4311Y-4.1998
X4.4311Y-4.2352
X4.4311Y-4.4862
X4.4321Y-4.2726
X4.4321Y-4.3081
X4.4321Y-4.3435
X4.4321Y-4.3789
X4.4321Y-4.4154
X4.4321Y-4.4508
X4.4331Y-4.1644
X4.4331Y-4.1831
X4.4331Y-4.2185
X4.4331Y-4.4695
X4.4331Y-4.5049
X4.4341Y-4.2559
X4.4341Y-4.2913
X4.4341Y-4.3268
X4.4341Y-4.3622
X4.4341Y-4.3986
X4.4341Y-4.4341
X4.4341Y-5.0984
X4.4341Y-5.1171
X4.4341Y-5.1348
X4.4341Y-5.1535
X4.4341Y-5.1722
X4.4341Y-5.1909
X4.4341Y-5.2096
X4.4341Y-5.2283
X4.4341Y-5.248
X4.4341Y-5.2667
X4.4341Y-5.2844
X4.4341Y-5.3031
X4.4341Y-5.3219
X4.4341Y-5.3406
X4.4341Y-5.3593
X4.4341Y-5.378
X4.4341Y-5.3976
X4.4341Y-5.4163
X4.4341Y-5.4341
X4.4341Y-5.4528
X4.4341Y-5.4715
X4.4341Y-5.4902
X4.4341Y-5.5089
X4.4341Y-5.5276
X4.4341Y-5.5472
X4.4341Y-5.5659
X4.4341Y-5.5837
X4.4341Y-5.6024
X4.4449Y-4.6663
X4.4449Y-4.7766
X4.4449Y-4.8907
X4.4459Y-4.685
X4.4459Y-4.7037
X4.4459Y-4.7215
X4.4459Y-4.7402
X4.4459Y-4.7589
X4.4459Y-4.7953
X4.4459Y-4.814
X4.4459Y-4.8317
X4.4459Y-4.8504
X4.4459Y-4.8691
X4.4459Y-4.9094
X4.4459Y-4.9281
X4.4459Y-4.9459
X4.4459Y-4.9646
X4.4459Y-4.9833
X4.4459Y-5.002
X4.4478Y-4.1998
X4.4478Y-4.2352
X4.4478Y-4.4862
X4.4488Y-4.2726
X4.4488Y-4.3081
X4.4488Y-4.3435
X4.4488Y-4.3789
X4.4488Y-4.4154
X4.4488Y-4.4508
X4.4498Y-4.1831
X4.4498Y-4.2185
X4.4498Y-4.4695
X4.4498Y-4.5049
X4.4508Y-4.1654
X4.4508Y-4.2559
X4.4508Y-4.2913
X4.4508Y-4.3268
X4.4508Y-4.3622
X4.4508Y-4.3986
X4.4508Y-4.4341
X4.4518Y-4.1447
X4.4537Y-5.0984
X4.4537Y-5.1171
X4.4537Y-5.1348
X4.4537Y-5.1535
X4.4537Y-5.1722
X4.4537Y-5.1909
X4.4537Y-5.2096
X4.4537Y-5.2283
X4.4537Y-5.248
X4.4537Y-5.2667
X4.4537Y-5.2844
X4.4537Y-5.3031
X4.4537Y-5.3219
X4.4537Y-5.3406
X4.4537Y-5.3593
X4.4537Y-5.378
X4.4537Y-5.3976
X4.4537Y-5.4163
X4.4537Y-5.4341
X4.4537Y-5.4528
X4.4537Y-5.4715
X4.4537Y-5.4902
X4.4537Y-5.5089
X4.4537Y-5.5276
X4.4537Y-5.5472
X4.4537Y-5.5659
X4.4537Y-5.5837
X4.4537Y-5.6024
X4.4646Y-4.1998
X4.4646Y-4.2352
X4.4646Y-4.4862
X4.4656Y-4.2726
X4.4656Y-4.3081
X4.4656Y-4.3435
X4.4656Y-4.3789
X4.4656Y-4.4154
X4.4656Y-4.4508
X4.4656Y-4.685
X4.4656Y-4.7037
X4.4656Y-4.7215
X4.4656Y-4.7402
X4.4656Y-4.7589
X4.4656Y-4.7785
X4.4656Y-4.7963
X4.4656Y-4.815
X4.4656Y-4.8337
X4.4656Y-4.8524
X4.4656Y-4.8711
X4.4656Y-4.8898
X4.4656Y-4.9094
X4.4656Y-4.9281
X4.4656Y-4.9459
X4.4656Y-4.9646
X4.4656Y-4.9833
X4.4656Y-5.002
X4.4665Y-4.126
X4.4665Y-4.1831
X4.4665Y-4.2185
X4.4665Y-4.4695
X4.4665Y-4.5049
X4.4675Y-4.1654
X4.4675Y-4.2559
X4.4675Y-4.2913
X4.4675Y-4.3268
X4.4675Y-4.3622
X4.4675Y-4.3986
X4.4675Y-4.4341
X4.4695Y-4.1457
X4.4734Y-5.0984
X4.4734Y-5.1171
X4.4734Y-5.1348
X4.4734Y-5.1535
X4.4734Y-5.1722
X4.4734Y-5.1909
X4.4734Y-5.2096
X4.4734Y-5.2283
X4.4734Y-5.248
X4.4734Y-5.2667
X4.4734Y-5.2844
X4.4734Y-5.3031
X4.4734Y-5.3219
X4.4734Y-5.3406
X4.4734Y-5.3593
X4.4734Y-5.378
X4.4734Y-5.3976
X4.4734Y-5.4163
X4.4734Y-5.4341
X4.4734Y-5.4528
X4.4734Y-5.4715
X4.4734Y-5.4902
X4.4734Y-5.5089
X4.4734Y-5.5276
X4.4734Y-5.5472
X4.4734Y-5.5659
X4.4734Y-5.5837
X4.4734Y-5.6024
X4.4833Y-4.1831
X4.4843Y-4.127
X4.4843Y-4.1654
X4.4852Y-4.1093
X4.4852Y-4.7037
X4.4852Y-4.7215
X4.4852Y-4.7402
X4.4852Y-4.7589
X4.4852Y-4.7785
X4.4852Y-4.7963
X4.4852Y-4.815
X4.4852Y-4.8337
X4.4852Y-4.8524
X4.4852Y-4.8711
X4.4852Y-4.8898
X4.4852Y-4.9094
X4.4852Y-4.9281
X4.4852Y-4.9459
X4.4852Y-4.9646
X4.4852Y-4.9833
X4.4852Y-5.002
X4.4862Y-4.1457
X4.4931Y-5.0984
X4.4931Y-5.1171
X4.4931Y-5.1352
X4.4931Y-5.1535
X4.4931Y-5.1722
X4.4931Y-5.1909
X4.4931Y-5.2096
X4.4931Y-5.2283
X4.4931Y-5.248
X4.4931Y-5.2667
X4.4931Y-5.2844
X4.4931Y-5.3031
X4.4931Y-5.3219
X4.4931Y-5.3406
X4.4931Y-5.3593
X4.4931Y-5.378
X4.4931Y-5.3976
X4.4931Y-5.4163
X4.4931Y-5.4341
X4.4931Y-5.4528
X4.4931Y-5.4715
X4.4931Y-5.4902
X4.4931Y-5.5089
X4.4931Y-5.5276
X4.4931Y-5.5472
X4.4931Y-5.5659
X4.4931Y-5.5837
X4.4931Y-5.6024
X4.4951Y-3.4419
X4.4951Y-3.4596
X4.4951Y-3.4783
X4.4951Y-3.497
X4.4951Y-3.5148
X4.4951Y-3.5335
X4.501Y-4.127
X4.501Y-4.1654
X4.503Y-4.0915
X4.503Y-4.1102
X4.503Y-4.1457
X4.5039Y-4.7215
X4.5049Y-4.7402
X4.5049Y-4.7589
X4.5049Y-4.7785
X4.5049Y-4.7963
X4.5049Y-4.815
X4.5049Y-4.8337
X4.5049Y-4.8524
X4.5049Y-4.8711
X4.5049Y-4.8898
X4.5049Y-4.9094
X4.5049Y-4.9281
X4.5049Y-4.9459
X4.5049Y-4.9646
X4.5049Y-4.9833
X4.5051Y-5.0016
X4.5128Y-5.0984
X4.5128Y-5.1171
X4.5128Y-5.1352
X4.5128Y-5.1535
X4.5128Y-5.1722
X4.5128Y-5.1909
X4.5128Y-5.2096
X4.5128Y-5.2283
X4.5128Y-5.248
X4.5128Y-5.2667
X4.5128Y-5.2844
X4.5128Y-5.3031
X4.5128Y-5.3219
X4.5128Y-5.3406
X4.5128Y-5.3593
X4.5128Y-5.378
X4.5128Y-5.3976
X4.5128Y-5.4163
X4.5128Y-5.4341
X4.5128Y-5.4528
X4.5128Y-5.4715
X4.5128Y-5.4902
X4.5128Y-5.5089
X4.5128Y-5.5276
X4.5128Y-5.5472
X4.5128Y-5.5659
X4.5128Y-5.5837
X4.5128Y-5.6024
X4.5138Y-3.4419
X4.5138Y-3.4596
X4.5138Y-3.4783
X4.5138Y-3.497
X4.5138Y-3.5148
X4.5138Y-3.5335
X4.5177Y-4.127
X4.5197Y-4.1102
X4.5197Y-4.1457
X4.5207Y-4.0925
X4.5217Y-4.0719
X4.5246Y-4.7402
X4.5246Y-4.7589
X4.5246Y-4.7785
X4.5246Y-4.7963
X4.5246Y-4.815
X4.5246Y-4.8337
X4.5246Y-4.8524
X4.5246Y-4.8711
X4.5246Y-4.8898
X4.5246Y-4.9094
X4.5246Y-4.9281
X4.5246Y-4.9459
X4.5246Y-4.9646
X4.5246Y-4.9833
X4.5246Y-5.002
X4.5315Y-3.4419
X4.5315Y-3.4596
X4.5315Y-3.4783
X4.5315Y-3.497
X4.5315Y-3.5148
X4.5315Y-3.5335
X4.5319Y-5.2098
X4.5325Y-5.0984
X4.5325Y-5.1171
X4.5325Y-5.1348
X4.5325Y-5.1535
X4.5325Y-5.1722
X4.5325Y-5.1909
X4.5325Y-5.2283
X4.5325Y-5.248
X4.5325Y-5.2667
X4.5325Y-5.2844
X4.5325Y-5.3031
X4.5325Y-5.3219
X4.5325Y-5.3406
X4.5325Y-5.3593
X4.5325Y-5.378
X4.5325Y-5.3976
X4.5325Y-5.4163
X4.5325Y-5.4341
X4.5325Y-5.4528
X4.5325Y-5.4715
X4.5325Y-5.4902
X4.5325Y-5.5089
X4.5325Y-5.5276
X4.5325Y-5.5472
X4.5325Y-5.5659
X4.5325Y-5.5837
X4.5325Y-5.6024
X4.5344Y-4.127
X4.5364Y-4.0531
X4.5364Y-4.1102
X4.5374Y-4.0925
X4.5394Y-4.0728
X4.5441Y-4.7594
X4.5443Y-4.7785
X4.5443Y-4.7963
X4.5443Y-4.815
X4.5443Y-4.8337
X4.5443Y-4.8524
X4.5443Y-4.8711
X4.5443Y-4.8898
X4.5443Y-4.9094
X4.5443Y-4.9281
X4.5443Y-4.9459
X4.5443Y-4.9646
X4.5443Y-4.9833
X4.5443Y-5.002
X4.5502Y-3.4419
X4.5502Y-3.4596
X4.5502Y-3.4783
X4.5502Y-3.497
X4.5502Y-3.5148
X4.5502Y-3.5335
X4.5522Y-5.0984
X4.5522Y-5.1171
X4.5522Y-5.1348
X4.5522Y-5.1535
X4.5522Y-5.1722
X4.5522Y-5.1909
X4.5522Y-5.2096
X4.5522Y-5.2283
X4.5522Y-5.248
X4.5522Y-5.2667
X4.5522Y-5.2844
X4.5522Y-5.3031
X4.5522Y-5.3219
X4.5522Y-5.3406
X4.5522Y-5.3593
X4.5522Y-5.378
X4.5522Y-5.3976
X4.5522Y-5.4163
X4.5522Y-5.4341
X4.5522Y-5.4528
X4.5522Y-5.4715
X4.5522Y-5.4902
X4.5522Y-5.5089
X4.5522Y-5.5276
X4.5522Y-5.5472
X4.5522Y-5.5659
X4.5522Y-5.5837
X4.5522Y-5.6024
X4.5531Y-4.1102
X4.5541Y-4.0
X4.5541Y-4.0177
X4.5541Y-4.0354
X4.5541Y-4.0541
X4.5541Y-4.0925
X4.5561Y-4.0728
X4.562Y-4.2441
X4.564Y-4.7785
X4.564Y-4.7963
X4.564Y-4.815
X4.564Y-4.8337
X4.564Y-4.8524
X4.564Y-4.8711
X4.564Y-4.8898
X4.564Y-4.9094
X4.564Y-4.9281
X4.564Y-4.9459
X4.564Y-4.9833
X4.564Y-5.002
X4.5679Y-3.4419
X4.5679Y-3.4596
X4.5679Y-3.4783
X4.5679Y-3.497
X4.5679Y-3.5148
X4.5679Y-3.5335
X4.5709Y-4.0
X4.5709Y-4.0177
X4.5709Y-4.0354
X4.5709Y-4.0541
X4.5709Y-4.0925
X4.5717Y-5.2075
X4.5719Y-5.0984
X4.5719Y-5.1171
X4.5719Y-5.1348
X4.5719Y-5.1535
X4.5719Y-5.1722
X4.5719Y-5.1909
X4.5719Y-5.2283
X4.5719Y-5.248
X4.5719Y-5.2667
X4.5719Y-5.2844
X4.5719Y-5.3031
X4.5719Y-5.3219
X4.5719Y-5.3406
X4.5719Y-5.3593
X4.5719Y-5.378
X4.5719Y-5.3976
X4.5719Y-5.4163
X4.5719Y-5.4341
X4.5719Y-5.4528
X4.5719Y-5.4715
X4.5719Y-5.4902
X4.5719Y-5.5089
X4.5719Y-5.5276
X4.5719Y-5.5472
X4.5719Y-5.5659
X4.5719Y-5.5837
X4.5719Y-5.6024
X4.5728Y-4.0728
X4.5866Y-3.4419
X4.5866Y-3.4596
X4.5866Y-3.4783
X4.5866Y-3.497
X4.5866Y-3.5148
X4.5866Y-3.5335
X4.5876Y-4.0
X4.5876Y-4.0177
X4.5876Y-4.0354
X4.5876Y-4.0541
X4.5896Y-4.0728
X4.5913Y-5.2843
X4.5915Y-5.2667
X4.5915Y-5.3031
X4.5915Y-5.3219
X4.5915Y-5.3406
X4.5915Y-5.3593
X4.5915Y-5.378
X4.5915Y-5.3976
X4.5915Y-5.4163
X4.5915Y-5.4341
X4.5915Y-5.4528
X4.5915Y-5.4715
X4.5915Y-5.4902
X4.5915Y-5.5089
X4.5915Y-5.5276
X4.5915Y-5.5472
X4.5915Y-5.5659
X4.5915Y-5.5837
X4.5915Y-5.6024
X4.5974Y-4.5551
X4.6043Y-3.4419
X4.6043Y-3.4596
X4.6043Y-3.4783
X4.6043Y-3.497
X4.6043Y-3.5148
X4.6043Y-3.5335
X4.6043Y-4.0
X4.6043Y-4.0177
X4.6043Y-4.0354
X4.6043Y-4.0541
X4.6102Y-5.0909
X4.611Y-5.2835
X4.6112Y-5.2659
X4.6112Y-5.3024
X4.6112Y-5.3219
X4.6112Y-5.3406
X4.6112Y-5.3593
X4.6112Y-5.378
X4.6112Y-5.3976
X4.6112Y-5.4163
X4.6112Y-5.4341
X4.6112Y-5.4528
X4.6112Y-5.4715
X4.6112Y-5.4902
X4.6112Y-5.5089
X4.6112Y-5.5276
X4.6112Y-5.5472
X4.6112Y-5.5659
X4.6112Y-5.5837
X4.6112Y-5.6024
X4.6191Y-4.4006
X4.623Y-3.4419
X4.623Y-3.4596
X4.623Y-3.4783
X4.623Y-3.497
X4.623Y-3.5148
X4.623Y-3.5335
X4.6309Y-5.2667
X4.6309Y-5.2844
X4.6309Y-5.3031
X4.6309Y-5.3219
X4.6309Y-5.3406
X4.6309Y-5.3593
X4.6309Y-5.378
X4.6309Y-5.3976
X4.6309Y-5.4163
X4.6309Y-5.4341
X4.6309Y-5.4528
X4.6309Y-5.4715
X4.6309Y-5.4902
X4.6309Y-5.5089
X4.6309Y-5.5276
X4.6309Y-5.5472
X4.6309Y-5.5659
X4.6309Y-5.5837
X4.6309Y-5.6024
X4.6407Y-3.4419
X4.6407Y-3.4596
X4.6407Y-3.4783
X4.6407Y-3.497
X4.6407Y-3.5148
X4.6407Y-3.5335
X4.6433Y-5.0972
X4.6496Y-4.5984
X4.6506Y-5.2667
X4.6506Y-5.2844
X4.6506Y-5.3031
X4.6506Y-5.3219
X4.6506Y-5.3406
X4.6506Y-5.3593
X4.6506Y-5.378
X4.6506Y-5.3976
X4.6506Y-5.4163
X4.6506Y-5.4341
X4.6506Y-5.4528
X4.6506Y-5.4715
X4.6506Y-5.4902
X4.6506Y-5.5089
X4.6506Y-5.5276
X4.6506Y-5.5472
X4.6506Y-5.5659
X4.6506Y-5.5837
X4.6506Y-5.6024
X4.6594Y-3.4419
X4.6594Y-3.4596
X4.6594Y-3.4783
X4.6594Y-3.497
X4.6594Y-3.5148
X4.6594Y-3.5335
X4.663Y-5.1508
X4.6644Y-5.0581
X4.6703Y-5.2667
X4.6703Y-5.2844
X4.6703Y-5.3031
X4.6703Y-5.3219
X4.6703Y-5.3406
X4.6703Y-5.3593
X4.6703Y-5.378
X4.6703Y-5.3976
X4.6703Y-5.4163
X4.6703Y-5.4341
X4.6703Y-5.4528
X4.6703Y-5.4715
X4.6703Y-5.4902
X4.6703Y-5.5089
X4.6703Y-5.5276
X4.6703Y-5.5472
X4.6703Y-5.5659
X4.6703Y-5.5837
X4.6703Y-5.6024
X4.6772Y-3.4419
X4.6772Y-3.4596
X4.6772Y-3.4783
X4.6772Y-3.497
X4.6772Y-3.5148
X4.6772Y-3.5335
X4.69Y-5.2667
X4.69Y-5.2844
X4.69Y-5.3031
X4.69Y-5.3219
X4.69Y-5.3406
X4.69Y-5.3593
X4.69Y-5.378
X4.69Y-5.3976
X4.69Y-5.4163
X4.69Y-5.4341
X4.69Y-5.4528
X4.69Y-5.4715
X4.69Y-5.4902
X4.69Y-5.5089
X4.69Y-5.5276
X4.69Y-5.5472
X4.69Y-5.5659
X4.69Y-5.5837
X4.69Y-5.6024
X4.6959Y-3.4419
X4.6959Y-3.4596
X4.6959Y-3.4783
X4.6959Y-3.497
X4.6959Y-3.5148
X4.6959Y-3.5335
X4.7087Y-5.0108
X4.7096Y-5.2667
X4.7096Y-5.2844
X4.7096Y-5.3031
X4.7096Y-5.3219
X4.7096Y-5.3406
X4.7096Y-5.3593
X4.7096Y-5.378
X4.7096Y-5.3976
X4.7096Y-5.4163
X4.7096Y-5.4341
X4.7096Y-5.4528
X4.7096Y-5.4715
X4.7096Y-5.4902
X4.7096Y-5.5089
X4.7096Y-5.5276
X4.7096Y-5.5472
X4.7096Y-5.5659
X4.7096Y-5.5837
X4.7096Y-5.6024
X4.7146Y-3.4419
X4.7146Y-3.4596
X4.7146Y-3.4783
X4.7146Y-3.497
X4.7175Y-4.8091
X4.7185Y-3.6772
X4.7185Y-3.6969
X4.7185Y-3.7165
X4.7185Y-3.7362
X4.7185Y-3.7559
X4.7185Y-3.7756
X4.7185Y-3.7953
X4.7185Y-3.815
X4.7185Y-3.8346
X4.7185Y-3.8543
X4.7185Y-3.874
X4.7185Y-3.8937
X4.7185Y-3.9134
X4.7185Y-3.9331
X4.7185Y-3.9528
X4.7185Y-3.9724
X4.7185Y-3.9921
X4.7185Y-4.0118
X4.7185Y-4.0315
X4.7185Y-4.0512
X4.7185Y-4.0709
X4.7185Y-4.0906
X4.7185Y-4.1102
X4.7185Y-4.1299
X4.7185Y-4.7559
X4.7185Y-4.8612
X4.7195Y-4.9606
X4.7215Y-4.9124
X4.7293Y-5.2667
X4.7293Y-5.2844
X4.7293Y-5.3031
X4.7293Y-5.3219
X4.7293Y-5.3406
X4.7293Y-5.3593
X4.7293Y-5.378
X4.7293Y-5.3976
X4.7293Y-5.4163
X4.7293Y-5.4341
X4.7293Y-5.4528
X4.7293Y-5.4715
X4.7293Y-5.4902
X4.7293Y-5.5089
X4.7293Y-5.5276
X4.7293Y-5.5472
X4.7293Y-5.5659
X4.7293Y-5.5837
X4.7293Y-5.6024
X4.7323Y-3.4419
X4.7323Y-3.4596
X4.7323Y-3.4783
X4.7323Y-3.497
X4.7382Y-3.6772
X4.7382Y-3.6969
X4.7382Y-3.7165
X4.7382Y-3.7362
X4.7382Y-3.7559
X4.7382Y-3.7756
X4.7382Y-3.7953
X4.7382Y-3.815
X4.7382Y-3.8346
X4.7382Y-3.8543
X4.7382Y-3.874
X4.7382Y-3.8937
X4.7382Y-3.9134
X4.7382Y-3.9331
X4.7382Y-3.9528
X4.7382Y-3.9724
X4.7382Y-3.9921
X4.7382Y-4.0118
X4.7382Y-4.0315
X4.7382Y-4.0512
X4.7382Y-4.0709
X4.7382Y-4.0906
X4.7382Y-4.1102
X4.7382Y-4.1299
X4.7382Y-5.0974
X4.749Y-5.2667
X4.749Y-5.2844
X4.749Y-5.3031
X4.749Y-5.3219
X4.749Y-5.3406
X4.749Y-5.3593
X4.749Y-5.378
X4.749Y-5.3976
X4.749Y-5.4163
X4.749Y-5.4341
X4.749Y-5.4528
X4.749Y-5.4715
X4.749Y-5.4902
X4.749Y-5.5089
X4.749Y-5.5276
X4.749Y-5.5472
X4.749Y-5.5659
X4.749Y-5.5837
X4.749Y-5.6024
X4.751Y-3.4419
X4.751Y-3.4596
X4.7579Y-3.6772
X4.7579Y-3.6969
X4.7579Y-3.7165
X4.7579Y-3.7362
X4.7579Y-3.7559
X4.7579Y-3.7756
X4.7579Y-3.7953
X4.7579Y-3.815
X4.7579Y-3.8346
X4.7579Y-3.8543
X4.7579Y-3.874
X4.7579Y-3.8937
X4.7579Y-3.9134
X4.7579Y-3.9331
X4.7579Y-3.9528
X4.7579Y-3.9724
X4.7579Y-3.9921
X4.7579Y-4.0118
X4.7579Y-4.0315
X4.7579Y-4.0512
X4.7579Y-4.0709
X4.7579Y-4.0906
X4.7677Y-3.4419
X4.7677Y-3.4596
X4.7687Y-5.2667
X4.7687Y-5.2844
X4.7687Y-5.3031
X4.7687Y-5.3219
X4.7687Y-5.3406
X4.7687Y-5.3593
X4.7687Y-5.378
X4.7687Y-5.3976
X4.7687Y-5.4163
X4.7687Y-5.4341
X4.7687Y-5.4528
X4.7687Y-5.4715
X4.7687Y-5.4902
X4.7687Y-5.5089
X4.7687Y-5.5276
X4.7687Y-5.5472
X4.7687Y-5.5659
X4.7687Y-5.5837
X4.7687Y-5.6024
X4.7776Y-3.6772
X4.7776Y-3.6969
X4.7776Y-3.7165
X4.7776Y-3.7362
X4.7776Y-3.7559
X4.7776Y-3.7756
X4.7776Y-3.7953
X4.7776Y-3.815
X4.7776Y-3.8346
X4.7776Y-3.8543
X4.7776Y-3.874
X4.7776Y-3.8937
X4.7776Y-3.9134
X4.7776Y-3.9331
X4.7776Y-3.9528
X4.7776Y-3.9724
X4.7776Y-3.9921
X4.7776Y-4.0118
X4.7776Y-4.0315
X4.7776Y-4.0512
X4.7776Y-4.0709
X4.7776Y-4.0906
X4.7864Y-3.4419
X4.7864Y-3.4596
X4.7884Y-5.2667
X4.7884Y-5.2844
X4.7884Y-5.3031
X4.7884Y-5.3219
X4.7884Y-5.3406
X4.7884Y-5.3593
X4.7884Y-5.378
X4.7884Y-5.3976
X4.7884Y-5.4163
X4.7884Y-5.4341
X4.7884Y-5.4528
X4.7884Y-5.4715
X4.7884Y-5.4902
X4.7884Y-5.5089
X4.7884Y-5.5276
X4.7884Y-5.5472
X4.7884Y-5.5659
X4.7884Y-5.5837
X4.7884Y-5.6024
X4.7972Y-3.6772
X4.7972Y-3.6969
X4.7972Y-3.7165
X4.7972Y-3.7362
X4.7972Y-3.7559
X4.7972Y-3.7756
X4.7972Y-3.7953
X4.7972Y-3.815
X4.7972Y-3.8346
X4.7972Y-3.8543
X4.7972Y-3.874
X4.7972Y-3.8937
X4.7972Y-3.9134
X4.7972Y-3.9331
X4.7972Y-3.9528
X4.7972Y-3.9724
X4.7972Y-3.9921
X4.7972Y-4.0118
X4.7972Y-4.0315
X4.7972Y-4.0512
X4.7972Y-4.0709
X4.7972Y-4.0906
X4.8051Y-3.4419
X4.8051Y-3.4596
X4.8081Y-5.2667
X4.8081Y-5.2844
X4.8081Y-5.3031
X4.8081Y-5.3219
X4.8081Y-5.3406
X4.8081Y-5.3593
X4.8081Y-5.378
X4.8081Y-5.3976
X4.8081Y-5.4163
X4.8081Y-5.4341
X4.8081Y-5.4528
X4.8081Y-5.4715
X4.8081Y-5.4902
X4.8081Y-5.5089
X4.8081Y-5.5276
X4.8081Y-5.5472
X4.8081Y-5.5659
X4.8081Y-5.5837
X4.8081Y-5.6024
X4.8169Y-3.6772
X4.8169Y-3.6969
X4.8169Y-3.7165
X4.8169Y-3.7362
X4.8169Y-3.7559
X4.8169Y-3.7756
X4.8169Y-3.7953
X4.8169Y-3.815
X4.8169Y-3.8346
X4.8169Y-3.8543
X4.8169Y-3.874
X4.8169Y-3.8937
X4.8169Y-3.9134
X4.8169Y-3.9331
X4.8169Y-3.9528
X4.8169Y-3.9724
X4.8169Y-3.9921
X4.8169Y-4.0118
X4.8169Y-4.0315
X4.8169Y-4.0512
X4.8169Y-4.0709
X4.8169Y-4.0906
X4.8228Y-3.4419
X4.8228Y-3.4596
X4.8278Y-5.2667
X4.8278Y-5.2844
X4.8278Y-5.3031
X4.8278Y-5.3219
X4.8278Y-5.3406
X4.8278Y-5.3593
X4.8278Y-5.378
X4.8278Y-5.3976
X4.8278Y-5.4163
X4.8278Y-5.4341
X4.8278Y-5.4528
X4.8278Y-5.4715
X4.8278Y-5.4902
X4.8278Y-5.5089
X4.8278Y-5.5276
X4.8278Y-5.5472
X4.8278Y-5.5659
X4.8278Y-5.5837
X4.8278Y-5.6024
X4.8335Y-4.4067
X4.8366Y-3.6772
X4.8366Y-3.6969
X4.8366Y-3.7165
X4.8366Y-3.7362
X4.8366Y-3.7559
X4.8366Y-3.7756
X4.8366Y-3.7953
X4.8366Y-3.815
X4.8366Y-3.8346
X4.8366Y-3.8543
X4.8366Y-3.874
X4.8366Y-3.8937
X4.8366Y-3.9134
X4.8366Y-3.9331
X4.8366Y-3.9528
X4.8366Y-3.9724
X4.8366Y-3.9921
X4.8366Y-4.0118
X4.8366Y-4.0315
X4.8366Y-4.0512
X4.8366Y-4.0709
X4.8366Y-4.0906
X4.8415Y-3.4419
X4.8415Y-3.4596
X4.8474Y-5.2667
X4.8474Y-5.2844
X4.8474Y-5.3031
X4.8474Y-5.3219
X4.8474Y-5.3406
X4.8474Y-5.3593
X4.8474Y-5.378
X4.8474Y-5.3976
X4.8474Y-5.4163
X4.8474Y-5.4341
X4.8474Y-5.4528
X4.8474Y-5.4715
X4.8474Y-5.4902
X4.8474Y-5.5089
X4.8474Y-5.5276
X4.8474Y-5.5472
X4.8474Y-5.5659
X4.8474Y-5.5837
X4.8474Y-5.6024
X4.8563Y-3.6772
X4.8563Y-3.6969
X4.8563Y-3.7165
X4.8563Y-3.7362
X4.8563Y-3.7559
X4.8563Y-3.7756
X4.8563Y-3.7953
X4.8563Y-3.815
X4.8563Y-3.8346
X4.8563Y-3.8543
X4.8563Y-3.874
X4.8563Y-3.8937
X4.8563Y-3.9134
X4.8563Y-3.9331
X4.8563Y-3.9528
X4.8563Y-3.9724
X4.8563Y-3.9921
X4.8563Y-4.0118
X4.8563Y-4.0315
X4.8563Y-4.0512
X4.8563Y-4.0709
X4.8563Y-4.0906
X4.8593Y-3.4419
X4.8593Y-3.4596
X4.8642Y-4.4065
X4.8671Y-5.2667
X4.8671Y-5.2844
X4.8671Y-5.3031
X4.8671Y-5.3219
X4.8671Y-5.3406
X4.8671Y-5.3593
X4.8671Y-5.378
X4.8671Y-5.3976
X4.8671Y-5.4163
X4.8671Y-5.4341
X4.8671Y-5.4528
X4.8671Y-5.4715
X4.8671Y-5.4902
X4.8671Y-5.5089
X4.8671Y-5.5276
X4.8671Y-5.5472
X4.8671Y-5.5659
X4.8671Y-5.5837
X4.8671Y-5.6024
X4.876Y-3.6772
X4.876Y-3.6969
X4.876Y-3.7165
X4.876Y-3.7362
X4.876Y-3.7559
X4.876Y-3.7756
X4.876Y-3.7953
X4.876Y-3.815
X4.876Y-3.8346
X4.876Y-3.8543
X4.876Y-3.874
X4.876Y-3.8937
X4.876Y-3.9134
X4.876Y-3.9331
X4.876Y-3.9528
X4.876Y-3.9724
X4.876Y-3.9921
X4.876Y-4.0118
X4.876Y-4.0315
X4.876Y-4.0512
X4.876Y-4.0709
X4.876Y-4.0906
X4.878Y-3.4419
X4.878Y-3.4596
X4.8819Y-4.8642
X4.8819Y-4.8878
X4.8819Y-4.9114
X4.8819Y-4.935
X4.8819Y-4.9587
X4.8819Y-4.9823
X4.8848Y-5.0374
X4.8868Y-5.2667
X4.8868Y-5.2844
X4.8868Y-5.3031
X4.8868Y-5.3219
X4.8868Y-5.3406
X4.8868Y-5.3593
X4.8868Y-5.378
X4.8868Y-5.3976
X4.8868Y-5.4163
X4.8868Y-5.4341
X4.8868Y-5.4528
X4.8868Y-5.4715
X4.8868Y-5.4902
X4.8868Y-5.5089
X4.8868Y-5.5276
X4.8868Y-5.5472
X4.8868Y-5.5659
X4.8868Y-5.5837
X4.8868Y-5.6024
X4.8957Y-3.6772
X4.8957Y-3.6969
X4.8957Y-3.7165
X4.8957Y-3.7362
X4.8957Y-3.7559
X4.8957Y-3.7756
X4.8957Y-3.7953
X4.8957Y-3.815
X4.8957Y-3.8346
X4.8957Y-3.8543
X4.8957Y-3.874
X4.8957Y-3.8937
X4.8957Y-3.9134
X4.8957Y-3.9331
X4.8957Y-3.9528
X4.8957Y-3.9724
X4.8957Y-3.9921
X4.8957Y-4.0118
X4.8957Y-4.0315
X4.8957Y-4.0512
X4.8957Y-4.0709
X4.8957Y-4.0906
X4.8967Y-3.4419
X4.8967Y-3.4596
X4.9055Y-4.8642
X4.9055Y-4.8878
X4.9055Y-4.9114
X4.9055Y-4.935
X4.9055Y-4.9587
X4.9055Y-4.9823
X4.9065Y-5.2667
X4.9065Y-5.2844
X4.9065Y-5.3031
X4.9065Y-5.3219
X4.9065Y-5.3406
X4.9065Y-5.3593
X4.9065Y-5.378
X4.9065Y-5.3976
X4.9065Y-5.4163
X4.9065Y-5.4341
X4.9065Y-5.4528
X4.9065Y-5.4715
X4.9065Y-5.4902
X4.9065Y-5.5089
X4.9065Y-5.5276
X4.9065Y-5.5472
X4.9065Y-5.5659
X4.9065Y-5.5837
X4.9065Y-5.6024
X4.9144Y-3.4419
X4.9144Y-3.4596
X4.9154Y-3.6772
X4.9154Y-3.6969
X4.9154Y-3.7165
X4.9154Y-3.7362
X4.9154Y-3.7559
X4.9154Y-3.7756
X4.9154Y-3.7953
X4.9154Y-3.815
X4.9154Y-3.8346
X4.9154Y-3.8543
X4.9154Y-3.874
X4.9154Y-3.8937
X4.9154Y-3.9134
X4.9154Y-3.9331
X4.9154Y-3.9528
X4.9154Y-3.9724
X4.9154Y-3.9921
X4.9154Y-4.0118
X4.9154Y-4.0315
X4.9154Y-4.0512
X4.9154Y-4.0709
X4.9154Y-4.0906
X4.9262Y-5.2667
X4.9262Y-5.2844
X4.9262Y-5.3031
X4.9262Y-5.3219
X4.9262Y-5.3406
X4.9262Y-5.3593
X4.9262Y-5.378
X4.9262Y-5.3976
X4.9262Y-5.4163
X4.9262Y-5.4341
X4.9262Y-5.4528
X4.9262Y-5.4715
X4.9262Y-5.4902
X4.9262Y-5.5089
X4.9262Y-5.5276
X4.9262Y-5.5472
X4.9262Y-5.5659
X4.9262Y-5.5837
X4.9262Y-5.6024
X4.9291Y-4.8642
X4.9291Y-4.8878
X4.9291Y-4.9114
X4.9291Y-4.935
X4.9291Y-4.9587
X4.9291Y-4.9823
X4.9331Y-3.4419
X4.9331Y-3.4596
X4.935Y-3.6772
X4.935Y-3.6969
X4.935Y-3.7165
X4.935Y-3.7362
X4.935Y-3.7559
X4.935Y-3.7756
X4.935Y-3.7953
X4.935Y-3.815
X4.935Y-3.9528
X4.935Y-3.9724
X4.935Y-3.9921
X4.935Y-4.0118
X4.935Y-4.0315
X4.935Y-4.0512
X4.935Y-4.0709
X4.935Y-4.0906
X4.9459Y-5.2667
X4.9459Y-5.2844
X4.9459Y-5.3031
X4.9459Y-5.3219
X4.9459Y-5.3406
X4.9459Y-5.3593
X4.9459Y-5.378
X4.9459Y-5.3976
X4.9459Y-5.4163
X4.9459Y-5.4341
X4.9459Y-5.4528
X4.9459Y-5.4715
X4.9459Y-5.4902
X4.9459Y-5.5089
X4.9459Y-5.5276
X4.9459Y-5.5472
X4.9459Y-5.5659
X4.9459Y-5.5837
X4.9459Y-5.6024
X4.9508Y-3.4419
X4.9508Y-3.4596
X4.9528Y-4.8642
X4.9528Y-4.8878
X4.9528Y-4.9114
X4.9528Y-4.935
X4.9528Y-4.9587
X4.9528Y-4.9823
X4.9547Y-3.6772
X4.9547Y-3.6969
X4.9547Y-3.7165
X4.9547Y-3.7362
X4.9547Y-3.7559
X4.9547Y-3.7756
X4.9547Y-3.7953
X4.9547Y-3.815
X4.9547Y-3.9528
X4.9547Y-3.9724
X4.9547Y-3.9921
X4.9547Y-4.0118
X4.9547Y-4.0315
X4.9547Y-4.0512
X4.9547Y-4.0709
X4.9547Y-4.0906
X4.9656Y-5.2667
X4.9656Y-5.2844
X4.9656Y-5.3031
X4.9656Y-5.3219
X4.9656Y-5.3406
X4.9656Y-5.3593
X4.9656Y-5.378
X4.9656Y-5.3976
X4.9656Y-5.4163
X4.9656Y-5.4341
X4.9656Y-5.4528
X4.9656Y-5.4715
X4.9656Y-5.4902
X4.9656Y-5.5089
X4.9656Y-5.5276
X4.9656Y-5.5472
X4.9656Y-5.5659
X4.9656Y-5.5837
X4.9656Y-5.6024
X4.9675Y-3.8927
X4.9695Y-3.4419
X4.9695Y-3.4596
X4.9744Y-3.6772
X4.9744Y-3.6969
X4.9744Y-3.7165
X4.9744Y-3.7362
X4.9744Y-3.7559
X4.9744Y-3.7756
X4.9744Y-3.7953
X4.9744Y-3.815
X4.9744Y-3.9528
X4.9744Y-3.9724
X4.9744Y-3.9921
X4.9744Y-4.0118
X4.9744Y-4.0315
X4.9744Y-4.0512
X4.9744Y-4.0709
X4.9744Y-4.0906
X4.9764Y-4.8642
X4.9764Y-4.8878
X4.9764Y-4.9114
X4.9764Y-4.935
X4.9764Y-4.9587
X4.9764Y-4.9823
X4.9764Y-5.0374
X4.9815Y-4.7878
X4.9852Y-5.2667
X4.9852Y-5.2844
X4.9852Y-5.3031
X4.9852Y-5.3219
X4.9852Y-5.3406
X4.9852Y-5.3593
X4.9852Y-5.378
X4.9852Y-5.3976
X4.9852Y-5.4163
X4.9852Y-5.4341
X4.9852Y-5.4528
X4.9852Y-5.4715
X4.9852Y-5.4902
X4.9852Y-5.5089
X4.9852Y-5.5276
X4.9852Y-5.5472
X4.9852Y-5.5659
X4.9852Y-5.5837
X4.9852Y-5.6024
X4.987Y-4.6173
X4.9878Y-4.6783
X4.9882Y-3.4419
X4.9882Y-3.4596
X4.9941Y-3.6772
X4.9941Y-3.6969
X4.9941Y-3.7165
X4.9941Y-3.7362
X4.9941Y-3.7559
X4.9941Y-3.7756
X4.9941Y-3.7953
X4.9941Y-3.815
X4.9941Y-3.9528
X4.9941Y-3.9724
X4.9941Y-3.9921
X4.9941Y-4.0118
X4.9941Y-4.0315
X4.9941Y-4.0512
X4.9941Y-4.0709
X4.9941Y-4.0906
X5.0Y-4.8642
X5.0Y-4.8878
X5.0Y-4.9114
X5.0Y-4.935
X5.0Y-4.9587
X5.0Y-4.9823
X5.0049Y-5.2667
X5.0049Y-5.2844
X5.0049Y-5.3031
X5.0049Y-5.3219
X5.0049Y-5.3406
X5.0049Y-5.3593
X5.0049Y-5.378
X5.0049Y-5.3976
X5.0049Y-5.4163
X5.0049Y-5.4341
X5.0049Y-5.4528
X5.0049Y-5.4715
X5.0049Y-5.4902
X5.0049Y-5.5089
X5.0049Y-5.5276
X5.0049Y-5.5472
X5.0049Y-5.5659
X5.0049Y-5.5837
X5.0049Y-5.6024
X5.0059Y-3.4419
X5.0059Y-3.4596
X5.0059Y-3.4774
X5.0059Y-3.4951
X5.0059Y-3.5118
X5.0059Y-3.5295
X5.0138Y-3.6772
X5.0138Y-3.6969
X5.0138Y-3.7165
X5.0138Y-3.7362
X5.0138Y-3.7559
X5.0138Y-3.7756
X5.0138Y-3.7953
X5.0138Y-3.815
X5.0138Y-3.9528
X5.0138Y-3.9724
X5.0138Y-3.9921
X5.0138Y-4.0118
X5.0138Y-4.0315
X5.0138Y-4.0512
X5.0138Y-4.0709
X5.0138Y-4.0906
X5.0236Y-4.8642
X5.0236Y-4.8878
X5.0236Y-4.9114
X5.0236Y-4.935
X5.0236Y-4.9587
X5.0236Y-4.9823
X5.0246Y-3.4419
X5.0246Y-3.4596
X5.0246Y-3.4774
X5.0246Y-3.4951
X5.0246Y-3.5118
X5.0246Y-3.5295
X5.0246Y-5.2667
X5.0246Y-5.2844
X5.0246Y-5.3031
X5.0246Y-5.3219
X5.0246Y-5.3406
X5.0246Y-5.3593
X5.0246Y-5.378
X5.0246Y-5.3976
X5.0246Y-5.4163
X5.0246Y-5.4341
X5.0246Y-5.4528
X5.0246Y-5.4715
X5.0246Y-5.4902
X5.0246Y-5.5089
X5.0246Y-5.5276
X5.0246Y-5.5472
X5.0246Y-5.5659
X5.0246Y-5.5837
X5.0246Y-5.6024
X5.0335Y-3.9528
X5.0335Y-3.9724
X5.0335Y-3.9921
X5.0335Y-4.0118
X5.0335Y-4.0315
X5.0335Y-4.0512
X5.0335Y-4.0709
X5.0335Y-4.0906
X5.0423Y-3.4419
X5.0423Y-3.4596
X5.0423Y-3.4774
X5.0423Y-3.4951
X5.0423Y-3.5118
X5.0423Y-3.5295
X5.0443Y-5.2667
X5.0443Y-5.2844
X5.0443Y-5.3031
X5.0443Y-5.3219
X5.0443Y-5.3406
X5.0443Y-5.3593
X5.0443Y-5.378
X5.0443Y-5.3976
X5.0443Y-5.4163
X5.0443Y-5.4341
X5.0443Y-5.4528
X5.0443Y-5.4715
X5.0443Y-5.4902
X5.0443Y-5.5089
X5.0443Y-5.5276
X5.0443Y-5.5472
X5.0443Y-5.5659
X5.0443Y-5.5837
X5.0443Y-5.6024
X5.0472Y-4.8642
X5.0472Y-4.8878
X5.0472Y-4.9114
X5.0472Y-4.935
X5.0472Y-4.9587
X5.0472Y-4.9823
X5.0531Y-3.9528
X5.0531Y-3.9724
X5.0531Y-3.9921
X5.0531Y-4.0118
X5.0531Y-4.0315
X5.0531Y-4.0512
X5.0531Y-4.0709
X5.0531Y-4.0906
X5.061Y-3.4419
X5.061Y-3.4596
X5.061Y-3.4774
X5.061Y-3.4951
X5.061Y-3.5118
X5.061Y-3.5295
X5.064Y-5.2667
X5.064Y-5.2844
X5.064Y-5.3031
X5.064Y-5.3219
X5.064Y-5.3406
X5.064Y-5.3593
X5.064Y-5.378
X5.064Y-5.3976
X5.064Y-5.4163
X5.064Y-5.4341
X5.064Y-5.4528
X5.064Y-5.4715
X5.064Y-5.4902
X5.064Y-5.5089
X5.064Y-5.5276
X5.064Y-5.5472
X5.064Y-5.5659
X5.064Y-5.5837
X5.064Y-5.6024
X5.0709Y-4.8642
X5.0709Y-4.8878
X5.0709Y-4.9114
X5.0709Y-4.935
X5.0709Y-4.9587
X5.0709Y-4.9823
X5.0728Y-3.9528
X5.0728Y-3.9724
X5.0728Y-3.9921
X5.0728Y-4.0118
X5.0728Y-4.0315
X5.0728Y-4.0512
X5.0728Y-4.0709
X5.0728Y-4.0906
X5.076Y-4.7626
X5.0768Y-4.6799
X5.0772Y-4.6154
X5.0797Y-3.4419
X5.0797Y-3.4596
X5.0797Y-3.4774
X5.0797Y-3.4951
X5.0797Y-3.5118
X5.0797Y-3.5295
X5.0837Y-5.2667
X5.0837Y-5.2844
X5.0837Y-5.3031
X5.0837Y-5.3219
X5.0837Y-5.3406
X5.0837Y-5.3593
X5.0837Y-5.378
X5.0837Y-5.3976
X5.0837Y-5.4163
X5.0837Y-5.4341
X5.0837Y-5.4528
X5.0837Y-5.4715
X5.0837Y-5.4902
X5.0837Y-5.5089
X5.0837Y-5.5276
X5.0837Y-5.5472
X5.0837Y-5.5659
X5.0837Y-5.5837
X5.0837Y-5.6024
X5.0945Y-4.8642
X5.0945Y-4.8878
X5.0945Y-4.9114
X5.0945Y-4.935
X5.0945Y-4.9587
X5.0945Y-4.9823
X5.1033Y-5.2667
X5.1033Y-5.2844
X5.1033Y-5.3031
X5.1033Y-5.3219
X5.1033Y-5.3406
X5.1033Y-5.3593
X5.1033Y-5.378
X5.1033Y-5.3976
X5.1033Y-5.4163
X5.1033Y-5.4341
X5.1033Y-5.4528
X5.1033Y-5.4715
X5.1033Y-5.4902
X5.1033Y-5.5089
X5.1033Y-5.5276
X5.1033Y-5.5472
X5.1033Y-5.5659
X5.1033Y-5.5837
X5.1033Y-5.6024
X5.1181Y-4.8642
X5.1181Y-4.8878
X5.1181Y-4.9114
X5.1181Y-4.935
X5.1181Y-4.9587
X5.1181Y-4.9823
X5.123Y-5.2667
X5.123Y-5.2844
X5.123Y-5.3031
X5.123Y-5.3219
X5.123Y-5.3406
X5.123Y-5.3593
X5.123Y-5.378
X5.123Y-5.3976
X5.123Y-5.4163
X5.123Y-5.4341
X5.123Y-5.4528
X5.123Y-5.4715
X5.123Y-5.4902
X5.123Y-5.5089
X5.123Y-5.5276
X5.123Y-5.5472
X5.123Y-5.5659
X5.123Y-5.5837
X5.123Y-5.6024
X5.1417Y-4.8642
X5.1417Y-4.8878
X5.1417Y-4.9114
X5.1417Y-4.935
X5.1417Y-4.9587
X5.1417Y-4.9823
X5.1427Y-5.2667
X5.1427Y-5.2844
X5.1427Y-5.3031
X5.1427Y-5.3219
X5.1427Y-5.3406
X5.1427Y-5.3593
X5.1427Y-5.378
X5.1427Y-5.3976
X5.1427Y-5.4163
X5.1427Y-5.4341
X5.1427Y-5.4528
X5.1427Y-5.4715
X5.1427Y-5.4902
X5.1427Y-5.5089
X5.1427Y-5.5276
X5.1427Y-5.5472
X5.1427Y-5.5659
X5.1427Y-5.5837
X5.1427Y-5.6024
X5.1526Y-4.4144
X5.1545Y-4.0266
X5.1559Y-4.7906
X5.1563Y-4.6783
X5.1583Y-4.6138
X5.1624Y-5.2667
X5.1624Y-5.2844
X5.1624Y-5.3031
X5.1624Y-5.3219
X5.1624Y-5.3406
X5.1624Y-5.3593
X5.1624Y-5.378
X5.1624Y-5.3976
X5.1624Y-5.4163
X5.1624Y-5.4341
X5.1624Y-5.4528
X5.1624Y-5.4715
X5.1624Y-5.4902
X5.1624Y-5.5089
X5.1624Y-5.5276
X5.1624Y-5.5472
X5.1624Y-5.5659
X5.1624Y-5.5837
X5.1624Y-5.6024
X5.1654Y-4.8642
X5.1654Y-4.8878
X5.1654Y-4.9114
X5.1654Y-4.935
X5.1654Y-4.9587
X5.1654Y-4.9823
X5.1821Y-5.2667
X5.1821Y-5.2844
X5.1821Y-5.3031
X5.1821Y-5.3219
X5.1821Y-5.3406
X5.1821Y-5.3593
X5.1821Y-5.378
X5.1821Y-5.3976
X5.1821Y-5.4163
X5.1821Y-5.4341
X5.1821Y-5.4528
X5.1821Y-5.4715
X5.1821Y-5.4902
X5.1821Y-5.5089
X5.1821Y-5.5276
X5.1821Y-5.5472
X5.1821Y-5.5659
X5.1821Y-5.5837
X5.1821Y-5.6024
X5.189Y-4.8642
X5.189Y-4.8878
X5.189Y-4.9114
X5.189Y-4.935
X5.189Y-4.9587
X5.189Y-4.9823
X5.2018Y-5.2667
X5.2018Y-5.2844
X5.2018Y-5.3031
X5.2018Y-5.3219
X5.2018Y-5.3406
X5.2018Y-5.3593
X5.2018Y-5.378
X5.2018Y-5.3976
X5.2018Y-5.4163
X5.2018Y-5.4341
X5.2018Y-5.4528
X5.2018Y-5.4715
X5.2018Y-5.4902
X5.2018Y-5.5089
X5.2018Y-5.5276
X5.2018Y-5.5472
X5.2018Y-5.5659
X5.2018Y-5.5837
X5.2018Y-5.6024
X5.2126Y-4.8642
X5.2126Y-4.8878
X5.2126Y-4.9114
X5.2126Y-4.935
X5.2126Y-4.9587
X5.2126Y-4.9823
X5.2215Y-5.2667
X5.2215Y-5.2844
X5.2215Y-5.3031
X5.2215Y-5.3219
X5.2215Y-5.3406
X5.2215Y-5.3593
X5.2215Y-5.378
X5.2215Y-5.3976
X5.2215Y-5.4163
X5.2215Y-5.4341
X5.2215Y-5.4528
X5.2215Y-5.4715
X5.2215Y-5.4902
X5.2215Y-5.5089
X5.2215Y-5.5276
X5.2215Y-5.5472
X5.2215Y-5.5659
X5.2215Y-5.5837
X5.2215Y-5.6024
X5.2362Y-4.8642
X5.2362Y-4.8878
X5.2362Y-4.9114
X5.2362Y-4.935
X5.2362Y-4.9587
X5.2362Y-4.9823
X5.2411Y-5.2667
X5.2411Y-5.2844
X5.2411Y-5.3031
X5.2411Y-5.3219
X5.2411Y-5.3406
X5.2411Y-5.3593
X5.2411Y-5.378
X5.2411Y-5.3976
X5.2411Y-5.4163
X5.2411Y-5.4341
X5.2411Y-5.4528
X5.2411Y-5.4715
X5.2411Y-5.4902
X5.2411Y-5.5089
X5.2411Y-5.5276
X5.2411Y-5.5472
X5.2411Y-5.5659
X5.2411Y-5.5837
X5.2411Y-5.6024
X5.2598Y-4.8642
X5.2598Y-4.8878
X5.2598Y-4.9114
X5.2598Y-4.935
X5.2598Y-4.9587
X5.2598Y-4.9823
X5.2608Y-5.2667
X5.2608Y-5.2844
X5.2608Y-5.3031
X5.2608Y-5.3219
X5.2608Y-5.3406
X5.2608Y-5.3593
X5.2608Y-5.378
X5.2608Y-5.3976
X5.2608Y-5.4163
X5.2608Y-5.4341
X5.2608Y-5.4528
X5.2608Y-5.4715
X5.2608Y-5.4902
X5.2608Y-5.5089
X5.2608Y-5.5276
X5.2608Y-5.5472
X5.2608Y-5.5659
X5.2608Y-5.5837
X5.2608Y-5.6024
X5.2805Y-5.2667
X5.2805Y-5.2844
X5.2805Y-5.3031
X5.2805Y-5.3219
X5.2805Y-5.3406
X5.2805Y-5.3593
X5.2805Y-5.378
X5.2805Y-5.3976
X5.2805Y-5.4163
X5.2805Y-5.4341
X5.2805Y-5.4528
X5.2805Y-5.4715
X5.2805Y-5.4902
X5.2805Y-5.5089
X5.2805Y-5.5276
X5.2805Y-5.5472
X5.2805Y-5.5659
X5.2805Y-5.5837
X5.2805Y-5.6024
X5.2835Y-4.8642
X5.2835Y-4.8878
X5.2835Y-4.9114
X5.2835Y-4.935
X5.2835Y-4.9587
X5.2835Y-4.9823
X5.2874Y-5.0413
X5.3002Y-5.2667
X5.3002Y-5.2844
X5.3002Y-5.3031
X5.3002Y-5.3219
X5.3002Y-5.3406
X5.3002Y-5.3593
X5.3002Y-5.378
X5.3002Y-5.3976
X5.3002Y-5.4163
X5.3002Y-5.4341
X5.3002Y-5.4528
X5.3002Y-5.4715
X5.3002Y-5.4902
X5.3002Y-5.5089
X5.3002Y-5.5276
X5.3002Y-5.5472
X5.3002Y-5.5659
X5.3002Y-5.5837
X5.3002Y-5.6024
X5.3199Y-5.2667
X5.3199Y-5.2844
X5.3199Y-5.3031
X5.3199Y-5.3219
X5.3199Y-5.3406
X5.3199Y-5.3593
X5.3199Y-5.378
X5.3199Y-5.3976
X5.3199Y-5.4163
X5.3199Y-5.4341
X5.3199Y-5.4528
X5.3199Y-5.4715
X5.3199Y-5.4902
X5.3199Y-5.5089
X5.3199Y-5.5276
X5.3199Y-5.5472
X5.3199Y-5.5659
X5.3199Y-5.5837
X5.3199Y-5.6024
X5.3386Y-5.0295
X5.3396Y-5.2667
X5.3396Y-5.2844
X5.3396Y-5.3031
X5.3396Y-5.3219
X5.3396Y-5.3406
X5.3396Y-5.3593
X5.3396Y-5.378
X5.3396Y-5.3976
X5.3396Y-5.4163
X5.3396Y-5.4341
X5.3396Y-5.4528
X5.3396Y-5.4715
X5.3396Y-5.4902
X5.3396Y-5.5089
X5.3396Y-5.5276
X5.3396Y-5.5472
X5.3396Y-5.5659
X5.3396Y-5.5837
X5.3396Y-5.6024
X5.3543Y-4.4075
X5.3593Y-5.2667
X5.3593Y-5.2844
X5.3593Y-5.3031
X5.3593Y-5.3219
X5.3593Y-5.3406
X5.3593Y-5.3593
X5.3593Y-5.378
X5.3593Y-5.3976
X5.3593Y-5.4163
X5.3593Y-5.4341
X5.3593Y-5.4528
X5.3593Y-5.4715
X5.3593Y-5.4902
X5.3593Y-5.5089
X5.3593Y-5.5276
X5.3593Y-5.5472
X5.3593Y-5.5659
X5.3593Y-5.5837
X5.3593Y-5.6024
X5.3681Y-4.5089
X5.373Y-4.7096
X5.374Y-4.7972
X5.3789Y-5.2667
X5.3789Y-5.2844
X5.3789Y-5.3031
X5.3789Y-5.3219
X5.3789Y-5.3406
X5.3789Y-5.3593
X5.3789Y-5.378
X5.3789Y-5.3976
X5.3789Y-5.4163
X5.3789Y-5.4341
X5.3789Y-5.4528
X5.3789Y-5.4715
X5.3789Y-5.4902
X5.3789Y-5.5089
X5.3789Y-5.5276
X5.3789Y-5.5472
X5.3789Y-5.5659
X5.3789Y-5.5837
X5.3789Y-5.6024
X5.3839Y-4.4567
X5.385Y-4.4073
X5.3858Y-4.56
X5.3858Y-4.6555
X5.3888Y-4.6063
X5.3888Y-4.7559
X5.3986Y-5.2667
X5.3986Y-5.2844
X5.3986Y-5.3031
X5.3986Y-5.3219
X5.3986Y-5.3406
X5.3986Y-5.3593
X5.3986Y-5.378
X5.3986Y-5.3976
X5.3986Y-5.4163
X5.3986Y-5.4341
X5.3986Y-5.4528
X5.3986Y-5.4715
X5.3986Y-5.4902
X5.3986Y-5.5089
X5.3986Y-5.5276
X5.3986Y-5.5472
X5.3986Y-5.5659
X5.3986Y-5.5837
X5.3986Y-5.6024
X5.4183Y-5.2667
X5.4183Y-5.2844
X5.4183Y-5.3031
X5.4183Y-5.3219
X5.4183Y-5.3406
X5.4183Y-5.3593
X5.4183Y-5.378
X5.4183Y-5.3976
X5.4183Y-5.4163
X5.4183Y-5.4341
X5.4183Y-5.4528
X5.4183Y-5.4715
X5.4183Y-5.4902
X5.4183Y-5.5089
X5.4183Y-5.5276
X5.4183Y-5.5472
X5.4183Y-5.5659
X5.4183Y-5.5837
X5.4183Y-5.6024
X5.438Y-5.2667
X5.438Y-5.2844
X5.438Y-5.3031
X5.438Y-5.3219
X5.438Y-5.3406
X5.438Y-5.3593
X5.438Y-5.378
X5.438Y-5.3976
X5.438Y-5.4163
X5.438Y-5.4341
X5.438Y-5.4528
X5.438Y-5.4715
X5.438Y-5.4902
X5.438Y-5.5089
X5.438Y-5.5276
X5.438Y-5.5472
X5.438Y-5.5659
X5.438Y-5.5837
X5.438Y-5.6024
X5.4577Y-5.2667
X5.4577Y-5.2844
X5.4577Y-5.3031
X5.4577Y-5.3219
X5.4577Y-5.3406
X5.4577Y-5.3593
X5.4577Y-5.378
X5.4577Y-5.3976
X5.4577Y-5.4163
X5.4577Y-5.4341
X5.4577Y-5.4528
X5.4577Y-5.4715
X5.4577Y-5.4902
X5.4577Y-5.5089
X5.4577Y-5.5276
X5.4577Y-5.5472
X5.4577Y-5.5659
X5.4577Y-5.5837
X5.4577Y-5.6024
X5.4774Y-5.2667
X5.4774Y-5.2844
X5.4774Y-5.3031
X5.4774Y-5.3219
X5.4774Y-5.3406
X5.4774Y-5.3593
X5.4774Y-5.378
X5.4774Y-5.3976
X5.4774Y-5.4163
X5.4774Y-5.4341
X5.4774Y-5.4528
X5.4774Y-5.4715
X5.4774Y-5.4902
X5.4774Y-5.5089
X5.4774Y-5.5276
X5.4774Y-5.5472
X5.4774Y-5.5659
X5.4774Y-5.5837
X5.4774Y-5.6024
X5.4902Y-4.2726
X5.497Y-5.2667
X5.497Y-5.2844
X5.497Y-5.3031
X5.497Y-5.3219
X5.497Y-5.3406
X5.497Y-5.3593
X5.497Y-5.378
X5.497Y-5.3976
X5.497Y-5.4163
X5.497Y-5.4341
X5.497Y-5.4528
X5.497Y-5.4715
X5.497Y-5.4902
X5.497Y-5.5089
X5.497Y-5.5276
X5.497Y-5.5472
X5.497Y-5.5659
X5.497Y-5.5837
X5.497Y-5.6024
X5.499Y-4.5069
X5.5157Y-5.0059
X5.5197Y-4.6535
X5.5335Y-5.1909
X5.5512Y-4.5728
X5.5571Y-4.7634
X5.5707Y-5.5679
X5.5787Y-4.495
X5.5787Y-4.8524
X5.5898Y-5.5661
X5.6002Y-4.6891
X5.6073Y-5.2126
X5.6106Y-5.1398
X5.6123Y-3.9753
X5.628Y-4.3297
X5.6309Y-4.2461
X5.6398Y-4.6722
X5.6427Y-4.4843
X5.6437Y-4.5108
X5.6496Y-4.902
X5.6528Y-5.561
X5.6614Y-4.1122
X5.6673Y-4.972
X5.6732Y-4.1634
X5.6748Y-5.0807
X5.676Y-5.1717
X5.6811Y-3.7815
X5.6811Y-3.8012
X5.6811Y-3.8209
X5.6811Y-3.8406
X5.6811Y-3.8602
X5.6811Y-3.8799
X5.6831Y-4.7874
X5.6831Y-4.8988
X5.6992Y-4.7028
X5.7008Y-3.7815
X5.7008Y-3.8012
X5.7008Y-3.8209
X5.7008Y-3.8406
X5.7008Y-3.8602
X5.7008Y-3.8799
X5.7183Y-5.1838
X5.7205Y-3.7815
X5.7205Y-3.8012
X5.7205Y-3.8209
X5.7205Y-3.8406
X5.7205Y-3.8602
X5.7205Y-3.8799
X5.7214Y-4.0079
X5.7214Y-4.0718
X5.7254Y-4.5177
X5.7264Y-4.5571
X5.7303Y-3.9331
X5.7356Y-4.435
X5.7402Y-3.7815
X5.7402Y-3.8012
X5.7402Y-3.8209
X5.7402Y-3.8406
X5.7402Y-3.8602
X5.7402Y-3.8799
X5.7598Y-3.7815
X5.7598Y-3.8012
X5.7598Y-3.8209
X5.7598Y-3.8406
X5.7598Y-3.8602
X5.7598Y-3.8799
X5.7638Y-4.128
X5.7704Y-4.5807
X5.7717Y-4.8051
X5.774Y-4.8866
X5.7756Y-4.7776
X5.7766Y-5.3287
X5.7783Y-4.9713
X5.7787Y-5.085
X5.7937Y-5.2088
X5.7953Y-4.3051
X5.7953Y-4.3287
X5.7953Y-4.3524
X5.7953Y-4.376
X5.7953Y-4.3996
X5.7953Y-4.4232
X5.7953Y-4.4744
X5.7953Y-4.813
X5.8016Y-5.228
X5.8071Y-4.0138
X5.8071Y-4.0315
X5.8071Y-4.0492
X5.8071Y-4.0669
X5.8071Y-4.0846
X5.815Y-5.1594
X5.8179Y-4.6486
X5.8179Y-4.7461
X5.8189Y-4.3051
X5.8189Y-4.3287
X5.8189Y-4.3524
X5.8189Y-4.376
X5.8189Y-4.3996
X5.8189Y-4.4232
X5.8209Y-3.9075
X5.8209Y-3.9075
X5.8248Y-4.0138
X5.8248Y-4.0315
X5.8248Y-4.0492
X5.8248Y-4.0669
X5.8248Y-4.0846
X5.8346Y-5.1486
X5.8386Y-4.6752
X5.8425Y-4.0138
X5.8425Y-4.0315
X5.8425Y-4.0492
X5.8425Y-4.0669
X5.8425Y-4.0846
X5.8425Y-4.3051
X5.8425Y-4.3287
X5.8425Y-4.3524
X5.8425Y-4.376
X5.8425Y-4.3996
X5.8425Y-4.4232
X5.8563Y-4.5571
X5.8661Y-4.3051
X5.8661Y-4.3287
X5.8661Y-4.3524
X5.8661Y-4.376
X5.8661Y-4.3996
X5.8661Y-4.4232
X5.8671Y-5.2844
X5.874Y-4.5098
X5.875Y-4.2411
X5.8898Y-4.3051
X5.8898Y-4.3287
X5.8898Y-4.3524
X5.8898Y-4.376
X5.8898Y-4.3996
X5.8898Y-4.4232
X5.9114Y-4.065
X5.9134Y-4.3051
X5.9134Y-4.3287
X5.9134Y-4.3524
X5.9134Y-4.376
X5.9134Y-4.3996
X5.9134Y-4.4232
X5.9154Y-3.9094
X5.937Y-4.3051
X5.937Y-4.3287
X5.937Y-4.3524
X5.937Y-4.376
X5.937Y-4.3996
X5.937Y-4.4232
X5.9409Y-4.1161
X5.9449Y-4.002
X5.9459Y-4.7451
X5.9488Y-4.6437
X5.9567Y-3.8898
X5.9606Y-4.3051
X5.9606Y-4.3287
X5.9606Y-4.3524
X5.9606Y-4.376
X5.9606Y-4.3996
X5.9606Y-4.4232
X5.9636Y-5.19
X5.9646Y-4.6122
X5.9646Y-4.7461
X5.9675Y-4.6447
X5.9823Y-4.7461
X5.9852Y-4.6447
X5.997Y-4.8888
X6.0217Y-4.8858
X6.0335Y-3.9449
X6.0354Y-4.7579
X6.0433Y-4.8858
X6.0512Y-4.4587
X6.0551Y-4.7205
X6.0552Y-4.746
X6.0659Y-4.8858
X6.0866Y-4.8858
X6.0896Y-4.2972
X6.1073Y-4.0797
X6.1073Y-4.1407
X6.1073Y-4.8858
X6.1093Y-4.6378
X6.122Y-4.9135
X6.122Y-4.9311
X6.122Y-4.9508
X6.124Y-4.5256
X6.126Y-4.8858
X6.128Y-4.5472
X6.1427Y-4.4311
X6.1437Y-4.3514
X6.1457Y-4.8858
X6.1496Y-4.1831
X6.1604Y-3.9587
X6.1613Y-5.0755
X6.1673Y-4.5068
X6.1673Y-5.1437
X6.1722Y-3.4764
X6.1752Y-4.2815
X6.185Y-5.2028
X6.1891Y-4.5885
X6.1949Y-4.2697
X6.1959Y-5.1467
X6.2047Y-5.0453
X6.2096Y-4.7205
X6.2146Y-4.5059
X6.2234Y-4.4311
X6.2264Y-4.3524
X6.2407Y-5.1625
X6.2736Y-4.6791
X6.2756Y-4.5807
X6.2756Y-4.6043
X6.2756Y-4.628
X6.2884Y-4.3671
X6.2884Y-4.4843
X6.2892Y-4.431
X6.2913Y-4.4055
X6.2992Y-4.5807
X6.2992Y-4.6043
X6.2992Y-4.628
X6.3012Y-4.5226
X6.3031Y-4.2766
X6.3031Y-4.2943
X6.3031Y-4.312
X6.3031Y-4.3297
X6.3031Y-4.5394
X6.3031Y-4.5581
X6.3179Y-4.5049
X6.3179Y-4.5226
X6.3199Y-4.2766
X6.3199Y-4.2943
X6.3199Y-4.312
X6.3199Y-4.3297
X6.3199Y-4.3474
X6.3199Y-4.3652
X6.3199Y-4.5394
X6.3199Y-4.5581
X6.3209Y-3.7126
X6.3209Y-3.7303
X6.3209Y-3.749
X6.3209Y-3.7667
X6.3209Y-3.7874
X6.3209Y-3.8051
X6.3209Y-3.8238
X6.3209Y-3.8415
X6.3209Y-3.8593
X6.3228Y-4.5807
X6.3228Y-4.6043
X6.3228Y-4.628
X6.3346Y-4.5039
X6.3346Y-4.5226
X6.3376Y-4.5404
X6.3376Y-4.5591
X6.3465Y-4.5807
X6.3465Y-4.6043
X6.3465Y-4.628
X6.3514Y-3.8848
X6.3514Y-3.9026
X6.3514Y-4.5039
X6.3514Y-4.5226
X6.3543Y-4.5404
X6.3543Y-4.5591
X6.3691Y-4.5049
X6.3691Y-4.5236
X6.3701Y-3.8848
X6.3701Y-3.9026
X6.3701Y-3.9213
X6.3701Y-3.939
X6.3701Y-3.9596
X6.3701Y-3.9774
X6.3701Y-3.9961
X6.3701Y-4.0138
X6.3701Y-4.0315
X6.3701Y-4.0492
X6.3701Y-4.0669
X6.3701Y-4.5807
X6.3701Y-4.6043
X6.3701Y-4.628
X6.372Y-4.5413
X6.372Y-4.56
X6.3783Y-5.1772
X6.3868Y-3.8927
X6.3868Y-3.9104
X6.3868Y-3.9291
X6.3868Y-3.9469
X6.3868Y-3.9675
X6.3868Y-3.9852
X6.3868Y-4.0039
X6.3868Y-4.0217
X6.3868Y-4.0394
X6.3868Y-4.0571
X6.3868Y-4.0748
X6.3937Y-4.5098
X6.3937Y-4.5335
X6.3937Y-4.5571
X6.3937Y-4.5807
X6.3937Y-4.6043
X6.3937Y-4.628
X6.3937Y-4.6516
X6.3937Y-4.6752
X6.398Y-5.1614
X6.4035Y-3.7146
X6.4035Y-3.7323
X6.4035Y-3.751
X6.4035Y-3.7687
X6.4035Y-3.7894
X6.4035Y-3.8071
X6.4035Y-3.8258
X6.4035Y-3.8435
X6.4035Y-3.8612
X6.4035Y-3.8809
X6.4035Y-3.8986
X6.4035Y-3.9173
X6.4035Y-3.935
X6.4035Y-3.9557
X6.4035Y-3.9734
X6.4035Y-3.9921
X6.4035Y-4.0098
X6.4035Y-4.0276
X6.4035Y-4.0453
X6.4035Y-4.063
X6.4073Y-4.9982
X6.4113Y-4.9651
X6.4173Y-4.5098
X6.4173Y-4.5335
X6.4173Y-4.5571
X6.4173Y-4.5807
X6.4173Y-4.6043
X6.4173Y-4.628
X6.4173Y-4.6516
X6.4173Y-4.6752
X6.4203Y-3.7224
X6.4203Y-3.7402
X6.4203Y-3.7589
X6.4203Y-3.7766
X6.4203Y-3.7972
X6.4203Y-3.815
X6.4203Y-3.8337
X6.4203Y-3.8514
X6.4203Y-3.8691
X6.4203Y-3.8888
X6.4203Y-3.9065
X6.4203Y-3.9252
X6.4203Y-3.9429
X6.4203Y-3.9636
X6.4203Y-3.9813
X6.4203Y-4.0
X6.4203Y-4.0177
X6.4203Y-4.0354
X6.4203Y-4.0531
X6.4203Y-4.0709
X6.4378Y-4.9915
X6.4409Y-4.5098
X6.4409Y-4.5335
X6.4409Y-4.5571
X6.4409Y-4.5807
X6.4409Y-4.6043
X6.4409Y-4.628
X6.4409Y-4.6516
X6.4567Y-4.9306
X6.4646Y-4.3917
X6.4646Y-4.4154
X6.4646Y-4.439
X6.4646Y-4.4626
X6.4646Y-4.4862
X6.4646Y-4.5098
X6.4646Y-4.5335
X6.4646Y-4.5571
X6.4646Y-4.5807
X6.4646Y-4.6043
X6.4724Y-4.8248
X6.4724Y-4.9094
X6.4773Y-4.9786
X6.4882Y-4.3917
X6.4882Y-4.4154
X6.4882Y-4.439
X6.4882Y-4.4626
X6.4882Y-4.4862
X6.4882Y-4.5098
X6.4882Y-4.5335
X6.4882Y-4.5571
X6.4882Y-4.5807
X6.4882Y-4.6043
X6.4921Y-4.8051
X6.4921Y-4.8996
X6.4957Y-4.9957
X6.5012Y-4.3272
X6.5118Y-4.3917
X6.5118Y-4.4154
X6.5118Y-4.439
X6.5118Y-4.4626
X6.5118Y-4.4862
X6.5118Y-4.5098
X6.5118Y-4.5335
X6.5118Y-4.5571
X6.5118Y-4.5807
X6.5161Y-4.3287
X6.5327Y-4.3287
X6.5354Y-4.3917
X6.5354Y-4.4154
X6.5354Y-4.439
X6.5394Y-3.6811
X6.5394Y-4.4705
X6.5394Y-4.4902
X6.5394Y-4.5098
X6.5394Y-4.5295
X6.5394Y-4.5492
X6.5394Y-4.5689
X6.5488Y-4.3287
X6.5508Y-4.9622
X6.552Y-4.8154
X6.5591Y-4.3917
X6.5591Y-4.4154
X6.5591Y-4.439
X6.5591Y-4.4705
X6.5591Y-4.4902
X6.5591Y-4.5098
X6.5591Y-4.5295
X6.5591Y-4.5492
X6.5591Y-4.5689
X6.5654Y-4.3287
X6.5772Y-4.8047
X6.5787Y-3.9626
X6.5787Y-3.9823
X6.5787Y-4.061
X6.5787Y-4.0807
X6.5787Y-4.1004
X6.5787Y-4.1201
X6.5787Y-4.1398
X6.5787Y-4.1594
X6.5787Y-4.1791
X6.5787Y-4.1988
X6.5787Y-4.2185
X6.5787Y-4.4705
X6.5787Y-4.4902
X6.5787Y-4.5098
X6.5787Y-4.5295
X6.5787Y-4.5492
X6.5787Y-4.5689
X6.5984Y-3.9626
X6.5984Y-4.0413
X6.5984Y-4.061
X6.5984Y-4.0807
X6.5984Y-4.1791
X6.5984Y-4.1988
X6.5984Y-4.2185
X6.5984Y-4.5098
X6.5984Y-4.5295
X6.5984Y-4.5492
X6.5984Y-4.5689
X6.6132Y-4.8465
X6.6142Y-4.9094
X6.6181Y-4.0217
X6.6181Y-4.0413
X6.6181Y-4.061
X6.6181Y-4.0807
X6.6181Y-4.5098
X6.6181Y-4.5295
X6.6181Y-4.5492
X6.6181Y-4.5689
X6.6378Y-4.002
X6.6378Y-4.0217
X6.6378Y-4.0413
X6.6378Y-4.061
X6.6378Y-4.0827
X6.6378Y-4.5098
X6.6378Y-4.5295
X6.6378Y-4.5492
X6.6378Y-4.5689
X6.6453Y-4.7071
X6.6486Y-4.8809
X6.6575Y-3.9823
X6.6575Y-4.002
X6.6575Y-4.0217
X6.6575Y-4.0413
X6.6575Y-4.061
X6.6575Y-4.0807
X6.6575Y-4.5098
X6.6575Y-4.5295
X6.6575Y-4.5492
X6.6575Y-4.5689
X6.6756Y-4.7239
X6.6772Y-3.9626
X6.6772Y-3.9823
X6.6772Y-4.002
X6.6772Y-4.0217
X6.6772Y-4.0413
X6.6772Y-4.061
X6.6772Y-4.0807
X6.6772Y-4.5098
X6.6772Y-4.5295
X6.6772Y-4.5492
X6.6772Y-4.5689
X6.6811Y-4.9094
X6.6841Y-4.8465
X6.6969Y-3.9626
X6.6969Y-3.9823
X6.6969Y-4.002
X6.6969Y-4.0217
X6.6969Y-4.0413
X6.6969Y-4.061
X6.6969Y-4.0807
X6.6969Y-4.1004
X6.6969Y-4.1201
X6.6969Y-4.1398
X6.6969Y-4.5098
X6.6969Y-4.5295
X6.6969Y-4.5492
X6.6969Y-4.5689
X6.7165Y-3.9626
X6.7165Y-3.9823
X6.7165Y-4.002
X6.7165Y-4.0217
X6.7165Y-4.0413
X6.7165Y-4.061
X6.7165Y-4.0807
X6.7165Y-4.1004
X6.7165Y-4.1201
X6.7165Y-4.1398
X6.7165Y-4.5098
X6.7165Y-4.5295
X6.7165Y-4.5492
X6.7165Y-4.5689
X6.7263Y-3.8012
X6.7303Y-4.2687
X6.7311Y-3.8541
X6.7346Y-4.9697
X6.7362Y-3.9626
X6.7362Y-4.5098
X6.7362Y-4.5295
X6.7362Y-4.5492
X6.7362Y-4.5689
X6.7492Y-3.8722
X6.7559Y-4.5492
X6.7559Y-4.5689
X6.7565Y-3.7813
X6.7579Y-3.7244
X6.7687Y-3.7992
X6.7756Y-4.3839
X6.7756Y-4.5492
X6.7756Y-4.5689
X6.7795Y-3.687
X6.7804Y-4.0009
X6.7854Y-4.0728
X6.7953Y-4.5492
X6.7953Y-4.5689
X6.8Y-4.8008
X6.8051Y-4.8465
X6.811Y-5.0004
X6.8127Y-4.8976
X6.815Y-4.5492
X6.815Y-4.5689
X6.8157Y-3.7028
X6.8295Y-4.8
X6.8346Y-4.5492
X6.8346Y-4.5689
X6.8543Y-4.5492
X6.8543Y-4.5689
X6.8652Y-4.2549
X6.8657Y-4.9811
X6.874Y-4.5492
X6.874Y-4.5689
X6.8809Y-4.8799
X6.8937Y-4.5492
X6.8937Y-4.5689
X6.8957Y-4.0236
X6.8976Y-4.0591
X6.8976Y-4.0787
X6.8976Y-4.0984
X6.8976Y-4.1161
X6.8976Y-4.1339
X6.8976Y-4.1535
X6.8976Y-4.1713
X6.8976Y-4.189
X6.8976Y-4.2067
X6.8976Y-4.2244
X6.9134Y-4.5492
X6.9134Y-4.5689
X6.9154Y-4.0591
X6.9154Y-4.0787
X6.9159Y-3.9088
X6.9331Y-4.0591
X6.9331Y-4.0787
X6.9331Y-4.5492
X6.9331Y-4.5689
X6.9335Y-4.8405
X6.937Y-5.0512
X6.9504Y-3.9177
X6.9528Y-4.5492
X6.9528Y-4.5689
X6.9626Y-3.7654
X6.9724Y-4.5492
X6.9724Y-4.5689
X6.9732Y-4.8039
X6.9902Y-3.7626
X6.9921Y-4.5492
X6.9921Y-4.5689
X7.002Y-5.1319
X7.0118Y-4.5492
X7.0118Y-4.5689
X7.0138Y-3.7008
X7.0138Y-3.7608
X7.0147Y-3.7863
X7.0157Y-4.8445
X7.0177Y-3.8583
X7.0177Y-3.8583
X7.0207Y-5.1319
X7.0217Y-3.5187
X7.0226Y-3.4813
X7.0226Y-5.1142
X7.0315Y-4.5492
X7.0315Y-4.5689
X7.0354Y-3.628
X7.0354Y-4.2559
X7.0394Y-5.1319
X7.0413Y-5.1142
X7.0423Y-3.501
X7.0423Y-5.0965
X7.0581Y-5.1319
X7.06Y-3.4813
X7.06Y-3.5187
X7.06Y-5.1142
X7.0602Y-3.8591
X7.061Y-5.0778
X7.061Y-5.0965
X7.0768Y-5.1319
X7.0787Y-5.1142
X7.0797Y-5.0778
X7.0797Y-5.0965
X7.0807Y-4.8898
X7.0837Y-3.4478
X7.0843Y-3.5669
X7.0876Y-3.6457
X7.0929Y-3.5953
X7.0964Y-4.5747
X7.0974Y-5.1142
X7.0984Y-5.0778
X7.0984Y-5.0965
X7.1024Y-4.7067
X7.1063Y-3.9528
X7.1087Y-4.9571
X7.1142Y-4.0177
X7.1161Y-5.1152
X7.1171Y-5.0778
X7.1171Y-5.0965
X7.1181Y-3.8041
X7.126Y-3.8268
X7.126Y-4.5748
X7.1323Y-3.9756
X7.1348Y-5.0965
X7.1348Y-5.1152
X7.1358Y-3.4429
X7.1358Y-3.4606
X7.1358Y-5.0778
X7.136Y-3.5136
X7.1376Y-5.0055
X7.1496Y-3.9563
X7.1496Y-4.8091
X7.1496Y-4.8287
X7.1535Y-5.0965
X7.1535Y-5.1152
X7.1545Y-5.0787
X7.1575Y-3.4429
X7.1575Y-3.4606
X7.1575Y-3.4783
X7.1654Y-4.9713
X7.1664Y-4.1506
X7.1673Y-4.0138
X7.1713Y-3.7126
X7.1713Y-3.7323
X7.1713Y-3.752
X7.1713Y-3.7717
X7.1722Y-5.1152
X7.1732Y-5.0787
X7.1732Y-5.0974
X7.1772Y-3.4429
X7.1772Y-3.4606
X7.1772Y-3.4783
X7.1772Y-3.4961
X7.1831Y-4.3376
X7.1865Y-4.3903
X7.1866Y-3.8496
X7.1909Y-3.7126
X7.1909Y-3.7323
X7.1909Y-3.752
X7.1909Y-3.7717
X7.1909Y-5.1152
X7.1919Y-5.0787
X7.1919Y-5.0974
X7.1969Y-3.4429
X7.1969Y-3.4606
X7.1969Y-3.4783
X7.1969Y-3.4961
X7.1969Y-3.5138
X7.1987Y-3.5525
X7.2028Y-4.1122
X7.2039Y-3.9528
X7.2041Y-4.0734
X7.2051Y-3.6417
X7.2096Y-5.1161
X7.2106Y-5.0787
X7.2106Y-5.0974
X7.2126Y-3.7126
X7.2126Y-3.7323
X7.2126Y-3.752
X7.2126Y-3.7717
X7.2126Y-4.8051
X7.2126Y-4.8327
X7.2146Y-4.4291
X7.2146Y-4.4469
X7.2146Y-4.4646
X7.2146Y-4.4823
X7.2146Y-4.5
X7.2165Y-3.4429
X7.2165Y-3.4606
X7.2165Y-3.4783
X7.2165Y-3.4961
X7.2165Y-3.5138
X7.2193Y-3.5463
X7.2203Y-3.8485
X7.224Y-3.8996
X7.2283Y-5.0974
X7.2283Y-5.1161
X7.2293Y-5.0787
X7.2323Y-4.4291
X7.2323Y-4.4469
X7.2323Y-4.4646
X7.2323Y-4.4823
X7.2323Y-4.5
X7.2343Y-3.4429
X7.2343Y-3.4606
X7.2343Y-3.4783
X7.2343Y-3.7126
X7.2343Y-3.7323
X7.2343Y-3.752
X7.2343Y-3.7717
X7.2362Y-3.4961
X7.2362Y-3.5138
X7.2382Y-3.9508
X7.2421Y-4.1703
X7.2421Y-4.188
X7.2421Y-4.2057
X7.2421Y-4.2234
X7.2421Y-4.2411
X7.2421Y-4.2589
X7.2421Y-4.2766
X7.2421Y-4.2943
X7.247Y-5.0974
X7.247Y-5.1161
X7.248Y-5.0797
X7.25Y-4.4291
X7.25Y-4.4469
X7.25Y-4.4646
X7.25Y-4.4823
X7.25Y-4.5
X7.252Y-3.4429
X7.252Y-3.4606
X7.252Y-3.4783
X7.2539Y-3.4961
X7.2539Y-3.5138
X7.2598Y-4.1703
X7.2598Y-4.188
X7.2598Y-4.2057
X7.2598Y-4.2234
X7.2598Y-4.2411
X7.2598Y-4.2589
X7.2598Y-4.2766
X7.2598Y-4.2943
X7.2638Y-4.8976
X7.2648Y-5.1152
X7.2657Y-3.8465
X7.2657Y-5.0787
X7.2657Y-5.0974
X7.2697Y-3.4429
X7.2697Y-3.4606
X7.2697Y-3.4783
X7.2707Y-5.2648
X7.2717Y-3.4961
X7.2717Y-3.5138
X7.2717Y-5.2283
X7.2717Y-5.247
X7.2776Y-4.1703
X7.2776Y-4.188
X7.2776Y-4.2057
X7.2776Y-4.2234
X7.2776Y-4.2411
X7.2776Y-4.2589
X7.2776Y-4.2766
X7.2776Y-4.2943
X7.2776Y-4.7087
X7.2823Y-4.5362
X7.2835Y-5.1152
X7.2844Y-5.0787
X7.2844Y-5.0974
X7.2865Y-3.8071
X7.2884Y-3.562
X7.2894Y-3.4961
X7.2894Y-3.5138
X7.2894Y-5.2657
X7.2904Y-5.2283
X7.2904Y-5.247
X7.2913Y-3.4429
X7.2913Y-3.4606
X7.2913Y-3.4783
X7.2939Y-4.523
X7.2953Y-4.1703
X7.2953Y-4.188
X7.2953Y-4.2057
X7.2953Y-4.2234
X7.2953Y-4.2411
X7.2953Y-4.2589
X7.2953Y-4.2766
X7.2953Y-4.2943
X7.3Y-4.1409
X7.3022Y-5.1161
X7.3031Y-5.0787
X7.3031Y-5.0974
X7.3042Y-3.8251
X7.3071Y-4.5098
X7.3081Y-5.247
X7.3081Y-5.2657
X7.3091Y-5.2283
X7.311Y-3.4429
X7.311Y-3.4606
X7.311Y-3.4783
X7.311Y-3.4961
X7.311Y-3.5138
X7.312Y-3.7766
X7.3203Y-4.4967
X7.3209Y-5.0974
X7.3209Y-5.1161
X7.3268Y-5.247
X7.3268Y-5.2657
X7.3278Y-5.2293
X7.3307Y-3.4429
X7.3307Y-3.4606
X7.3307Y-3.4783
X7.3307Y-3.4961
X7.3307Y-3.5138
X7.3319Y-4.5866
X7.3331Y-4.4839
X7.3359Y-3.6245
X7.3382Y-4.0965
X7.3396Y-5.0974
X7.3396Y-5.1161
X7.3439Y-4.5778
X7.3451Y-4.4719
X7.3455Y-3.5561
X7.3455Y-5.2657
X7.3465Y-5.2293
X7.3465Y-5.248
X7.35Y-4.8945
X7.3504Y-3.4429
X7.3504Y-3.4606
X7.3504Y-3.4783
X7.3504Y-3.4961
X7.3504Y-3.5138
X7.3539Y-4.0965
X7.3557Y-4.5659
X7.3581Y-4.4589
X7.3583Y-5.0974
X7.3593Y-5.0226
X7.3642Y-5.2657
X7.3652Y-5.2293
X7.3652Y-5.248
X7.3681Y-3.4429
X7.3681Y-3.4606
X7.3681Y-3.4783
X7.3697Y-4.0965
X7.3721Y-3.6004
X7.3783Y-4.2445
X7.3789Y-5.003
X7.3789Y-5.0226
X7.3829Y-5.2667
X7.3839Y-5.2293
X7.3839Y-5.248
X7.3854Y-4.0965
X7.3857Y-3.8443
X7.3858Y-3.4429
X7.3858Y-3.4606
X7.3858Y-3.4783
X7.3898Y-3.9287
X7.3906Y-4.1709
X7.3976Y-4.9449
X7.3976Y-4.9636
X7.3976Y-4.9823
X7.3976Y-5.002
X7.3976Y-5.0207
X7.4008Y-4.0965
X7.4016Y-5.248
X7.4016Y-5.2667
X7.4026Y-5.2293
X7.4055Y-3.4429
X7.4055Y-3.4606
X7.4055Y-3.4783
X7.4073Y-3.7985
X7.4173Y-5.0197
X7.4183Y-3.7628
X7.4183Y-4.9459
X7.4183Y-4.9636
X7.4183Y-4.9833
X7.4183Y-5.002
X7.4203Y-5.248
X7.4203Y-5.2667
X7.4213Y-5.2303
X7.4248Y-4.7083
X7.4272Y-3.4429
X7.4272Y-3.4606
X7.4272Y-3.4783
X7.4272Y-3.4961
X7.4272Y-3.5138
X7.4272Y-3.5315
X7.4272Y-3.7303
X7.4272Y-5.374
X7.4307Y-3.9343
X7.4354Y-3.8232
X7.437Y-4.9449
X7.437Y-4.9626
X7.437Y-4.9823
X7.437Y-5.001
X7.437Y-5.0187
X7.438Y-5.2657
X7.439Y-5.2106
X7.439Y-5.2293
X7.439Y-5.248
X7.4425Y-3.8512
X7.4433Y-4.5283
X7.4469Y-3.4429
X7.4469Y-3.4606
X7.4469Y-3.4783
X7.4469Y-3.4961
X7.4469Y-3.5138
X7.4469Y-3.5315
X7.4469Y-3.5512
X7.4469Y-3.5689
X7.4472Y-4.5768
X7.4472Y-4.6413
X7.4557Y-3.872
X7.4567Y-5.2657
X7.4577Y-5.2106
X7.4577Y-5.2293
X7.4577Y-5.248
X7.4665Y-3.4429
X7.4665Y-3.4606
X7.4665Y-3.4783
X7.4665Y-3.4961
X7.4665Y-3.5138
X7.4665Y-3.5315
X7.4665Y-3.5512
X7.4665Y-3.5689
X7.4665Y-3.5866
X7.4665Y-3.6043
X7.4665Y-3.624
X7.4665Y-3.6417
X7.4665Y-3.6594
X7.4754Y-5.2116
X7.4754Y-5.2293
X7.4754Y-5.248
X7.4764Y-4.237
X7.4764Y-4.2543
X7.4764Y-4.272
X7.4764Y-4.2874
X7.4843Y-4.4656
X7.4843Y-4.4843
X7.4843Y-4.5039
X7.4843Y-4.5689
X7.4843Y-4.5876
X7.4843Y-4.6073
X7.4852Y-4.6683
X7.4852Y-4.687
X7.4852Y-4.7067
X7.4862Y-3.4429
X7.4862Y-3.4606
X7.4862Y-3.4783
X7.4862Y-3.4961
X7.4862Y-3.5138
X7.4862Y-3.5315
X7.4862Y-3.5512
X7.4862Y-3.5689
X7.4862Y-3.5866
X7.4862Y-3.6043
X7.4862Y-3.624
X7.4862Y-3.6417
X7.4862Y-3.6594
X7.4862Y-4.878
X7.4862Y-4.8967
X7.4862Y-4.9163
X7.4862Y-4.9813
X7.4862Y-5.0
X7.4862Y-5.0197
X7.4892Y-5.0965
X7.4892Y-5.1152
X7.4892Y-5.1348
X7.4933Y-3.9516
X7.4951Y-5.2106
X7.4951Y-5.2293
X7.5024Y-3.9181
X7.5024Y-3.9366
X7.5039Y-3.4429
X7.5039Y-3.4606
X7.5039Y-3.4783
X7.5039Y-3.4961
X7.5039Y-3.5138
X7.5039Y-3.5315
X7.5039Y-3.5512
X7.5039Y-3.5689
X7.5039Y-3.5866
X7.5039Y-3.6043
X7.5039Y-3.624
X7.5039Y-3.6417
X7.5039Y-3.6594
X7.5049Y-4.4656
X7.5049Y-4.4852
X7.5049Y-4.5039
X7.5049Y-4.5689
X7.5049Y-4.5886
X7.5049Y-4.6073
X7.5051Y-4.076
X7.5059Y-4.6683
X7.5059Y-4.688
X7.5059Y-4.7067
X7.5069Y-4.878
X7.5069Y-4.8976
X7.5069Y-4.9163
X7.5069Y-4.9813
X7.5069Y-5.001
X7.5069Y-5.0197
X7.5098Y-5.0965
X7.5098Y-5.1161
X7.5098Y-5.1348
X7.5217Y-3.4429
X7.5217Y-3.4606
X7.5217Y-3.4783
X7.5217Y-3.4961
X7.5217Y-3.5138
X7.5217Y-3.5315
X7.5217Y-3.5512
X7.5217Y-3.5689
X7.5217Y-3.5866
X7.5217Y-3.6043
X7.5217Y-3.624
X7.5217Y-3.6417
X7.5217Y-3.6594
X7.5228Y-4.0768
X7.5236Y-4.4646
X7.5236Y-4.4843
X7.5236Y-4.503
X7.5236Y-4.5679
X7.5236Y-4.5876
X7.5236Y-4.6063
X7.5246Y-4.6673
X7.5246Y-4.687
X7.5246Y-4.7057
X7.5256Y-4.877
X7.5256Y-4.8967
X7.5256Y-4.9154
X7.5256Y-4.9803
X7.5256Y-5.0
X7.5256Y-5.0187
X7.5285Y-5.0955
X7.5285Y-5.1152
X7.5285Y-5.1339
X7.5374Y-3.9213
X7.5394Y-3.4429
X7.5394Y-3.4606
X7.5394Y-3.4783
X7.5394Y-3.4961
X7.5394Y-3.5138
X7.5394Y-3.5315
X7.5394Y-3.5512
X7.5394Y-3.5689
X7.5394Y-3.5866
X7.5394Y-3.6043
X7.5394Y-3.624
X7.5394Y-3.6417
X7.5394Y-3.6594
X7.5413Y-4.0776
X7.5476Y-4.0102
X7.5579Y-4.0776
X7.5591Y-3.4429
X7.5591Y-3.4606
X7.5591Y-3.4783
X7.5591Y-3.4961
X7.5591Y-3.5138
X7.5591Y-3.5315
X7.5591Y-3.5512
X7.5591Y-3.5689
X7.5591Y-3.5866
X7.5591Y-3.6043
X7.5591Y-3.624
X7.5591Y-3.6417
X7.563Y-4.4685
X7.5638Y-4.6717
X7.565Y-3.6634
X7.5665Y-4.8732
X7.5681Y-4.5697
X7.5685Y-4.9106
X7.5685Y-5.2142
X7.5709Y-4.702
X7.5744Y-4.0776
X7.5756Y-5.0866
X7.5909Y-4.0776
X7.6181Y-3.9646
X7.6349Y-3.9508
X7.7028Y-3.9774
X7.7054Y-3.5254
X7.7077Y-3.878
X7.7106Y-3.6398
X7.7126Y-3.7707
T2
X3.9581Y-5.4919
X3.9814Y-5.4356
X3.9814Y-5.5483
X4.0378Y-5.4122
X4.0378Y-5.5717
X4.0942Y-5.4356
X4.0942Y-5.5483
X4.1175Y-5.4919
X6.2415Y-3.5628
X6.2649Y-3.5064
X6.2649Y-3.6192
X6.3213Y-3.4831
X6.3213Y-3.6425
X6.3776Y-3.5064
X6.3776Y-3.6192
X6.401Y-3.5628
X3.9581Y-3.5628
X3.9814Y-3.5064
X3.9814Y-3.6192
X4.0378Y-3.4831
X4.0378Y-3.6425
X4.0942Y-3.5064
X4.0942Y-3.6192
X4.1175Y-3.5628
X6.2415Y-5.4919
X6.2649Y-5.4356
X6.2649Y-5.5483
X6.3213Y-5.4122
X6.3213Y-5.5717
X6.3776Y-5.4356
X6.3776Y-5.5483
X6.401Y-5.4919
T3
X7.8278Y-3.5561
X7.8278Y-3.6545
X7.8278Y-3.753
X7.8278Y-3.8514
X7.8278Y-3.9498
T4
X3.9939Y-4.4104
X4.0939Y-4.4104
X4.1939Y-4.4104
X7.6722Y-5.0974
X7.7722Y-5.0974
X7.8722Y-5.0974
X7.6722Y-4.689
X7.7722Y-4.689
X7.8722Y-4.689
X3.9939Y-4.9222
X4.0939Y-4.9222
X4.1939Y-4.9222
X3.9939Y-4.8199
X4.0939Y-4.8199
X4.1939Y-4.8199
X7.673Y-4.7894
X7.773Y-4.7894
X7.873Y-4.7894
X3.9939Y-4.2067
X4.0939Y-4.2067
X4.1939Y-4.2067
X7.6722Y-4.5866
X7.7722Y-4.5866
X7.8722Y-4.5866
X3.9939Y-4.5128
X4.0939Y-4.5128
X4.1939Y-4.5128
X7.6722Y-4.4843
X7.7722Y-4.4843
X7.8722Y-4.4843
X3.9939Y-4.3081
X4.0939Y-4.3081
X4.1939Y-4.3081
X7.6722Y-4.3829
X7.7722Y-4.3829
X7.8722Y-4.3829
X3.9939Y-4.6152
X4.0939Y-4.6152
X4.1939Y-4.6152
X3.9939Y-4.7175
X4.0939Y-4.7175
X4.1939Y-4.7175
X7.6732Y-4.8917
X7.7732Y-4.8917
X7.8732Y-4.8917
X7.6732Y-4.9951
X7.7732Y-4.9951
X7.8732Y-4.9951
T5
X6.5626Y-3.5138
X6.5768Y-3.748
X6.902Y-3.748
X6.9161Y-3.5138
T6
X5.8541Y-3.5965
X6.051Y-3.5965
T7
X4.0378Y-5.4919
X6.3213Y-3.5628
X4.0378Y-3.5628
X6.3213Y-5.4919
T0
M30
