G04 #@! TF.GenerationSoftware,KiCad,Pcbnew,5.1.4-e60b266~84~ubuntu18.04.1*
G04 #@! TF.CreationDate,2019-11-18T10:08:55-05:00*
G04 #@! TF.ProjectId,SmallKat v2,536d616c-6c4b-4617-9420-76322e6b6963,rev?*
G04 #@! TF.SameCoordinates,Original*
G04 #@! TF.FileFunction,Legend,Top*
G04 #@! TF.FilePolarity,Positive*
%FSLAX46Y46*%
G04 Gerber Fmt 4.6, Leading zero omitted, Abs format (unit mm)*
G04 Created by KiCad (PCBNEW 5.1.4-e60b266~84~ubuntu18.04.1) date 2019-11-18 10:08:55*
%MOMM*%
%LPD*%
G04 APERTURE LIST*
%ADD10C,0.150000*%
%ADD11C,0.120000*%
%ADD12C,0.200000*%
%ADD13C,0.254000*%
%ADD14C,0.127000*%
%ADD15C,0.100000*%
%ADD16C,0.050000*%
G04 APERTURE END LIST*
D10*
X169571428Y-100792857D02*
X170257142Y-100792857D01*
X169914285Y-101992857D02*
X169914285Y-100792857D01*
X171171428Y-101992857D02*
X171171428Y-101364285D01*
X171114285Y-101250000D01*
X171000000Y-101192857D01*
X170771428Y-101192857D01*
X170657142Y-101250000D01*
X171171428Y-101935714D02*
X171057142Y-101992857D01*
X170771428Y-101992857D01*
X170657142Y-101935714D01*
X170600000Y-101821428D01*
X170600000Y-101707142D01*
X170657142Y-101592857D01*
X170771428Y-101535714D01*
X171057142Y-101535714D01*
X171171428Y-101478571D01*
X171742857Y-101992857D02*
X171742857Y-101192857D01*
X171742857Y-100792857D02*
X171685714Y-100850000D01*
X171742857Y-100907142D01*
X171800000Y-100850000D01*
X171742857Y-100792857D01*
X171742857Y-100907142D01*
X172485714Y-101992857D02*
X172371428Y-101935714D01*
X172314285Y-101821428D01*
X172314285Y-100792857D01*
X173857142Y-101992857D02*
X173857142Y-100792857D01*
X174314285Y-100792857D01*
X174428571Y-100850000D01*
X174485714Y-100907142D01*
X174542857Y-101021428D01*
X174542857Y-101192857D01*
X174485714Y-101307142D01*
X174428571Y-101364285D01*
X174314285Y-101421428D01*
X173857142Y-101421428D01*
X175571428Y-101992857D02*
X175571428Y-101364285D01*
X175514285Y-101250000D01*
X175400000Y-101192857D01*
X175171428Y-101192857D01*
X175057142Y-101250000D01*
X175571428Y-101935714D02*
X175457142Y-101992857D01*
X175171428Y-101992857D01*
X175057142Y-101935714D01*
X175000000Y-101821428D01*
X175000000Y-101707142D01*
X175057142Y-101592857D01*
X175171428Y-101535714D01*
X175457142Y-101535714D01*
X175571428Y-101478571D01*
X176142857Y-101192857D02*
X176142857Y-101992857D01*
X176142857Y-101307142D02*
X176200000Y-101250000D01*
X176314285Y-101192857D01*
X176485714Y-101192857D01*
X176600000Y-101250000D01*
X176657142Y-101364285D01*
X176657142Y-101992857D01*
X174050000Y-96742857D02*
X174050000Y-95542857D01*
X174507142Y-95542857D01*
X174621428Y-95600000D01*
X174678571Y-95657142D01*
X174735714Y-95771428D01*
X174735714Y-95942857D01*
X174678571Y-96057142D01*
X174621428Y-96114285D01*
X174507142Y-96171428D01*
X174050000Y-96171428D01*
X175764285Y-96742857D02*
X175764285Y-96114285D01*
X175707142Y-96000000D01*
X175592857Y-95942857D01*
X175364285Y-95942857D01*
X175250000Y-96000000D01*
X175764285Y-96685714D02*
X175650000Y-96742857D01*
X175364285Y-96742857D01*
X175250000Y-96685714D01*
X175192857Y-96571428D01*
X175192857Y-96457142D01*
X175250000Y-96342857D01*
X175364285Y-96285714D01*
X175650000Y-96285714D01*
X175764285Y-96228571D01*
X176335714Y-95942857D02*
X176335714Y-96742857D01*
X176335714Y-96057142D02*
X176392857Y-96000000D01*
X176507142Y-95942857D01*
X176678571Y-95942857D01*
X176792857Y-96000000D01*
X176850000Y-96114285D01*
X176850000Y-96742857D01*
X172314285Y-93564285D02*
X172714285Y-93564285D01*
X172885714Y-94192857D02*
X172314285Y-94192857D01*
X172314285Y-92992857D01*
X172885714Y-92992857D01*
X173571428Y-94192857D02*
X173457142Y-94135714D01*
X173400000Y-94021428D01*
X173400000Y-92992857D01*
X174028571Y-94192857D02*
X174028571Y-92992857D01*
X174028571Y-93450000D02*
X174142857Y-93392857D01*
X174371428Y-93392857D01*
X174485714Y-93450000D01*
X174542857Y-93507142D01*
X174600000Y-93621428D01*
X174600000Y-93964285D01*
X174542857Y-94078571D01*
X174485714Y-94135714D01*
X174371428Y-94192857D01*
X174142857Y-94192857D01*
X174028571Y-94135714D01*
X175285714Y-94192857D02*
X175171428Y-94135714D01*
X175114285Y-94078571D01*
X175057142Y-93964285D01*
X175057142Y-93621428D01*
X175114285Y-93507142D01*
X175171428Y-93450000D01*
X175285714Y-93392857D01*
X175457142Y-93392857D01*
X175571428Y-93450000D01*
X175628571Y-93507142D01*
X175685714Y-93621428D01*
X175685714Y-93964285D01*
X175628571Y-94078571D01*
X175571428Y-94135714D01*
X175457142Y-94192857D01*
X175285714Y-94192857D01*
X176085714Y-93392857D02*
X176314285Y-94192857D01*
X176542857Y-93621428D01*
X176771428Y-94192857D01*
X177000000Y-93392857D01*
X174014285Y-98192857D02*
X174700000Y-98192857D01*
X174357142Y-99392857D02*
X174357142Y-98192857D01*
X175100000Y-99392857D02*
X175100000Y-98592857D01*
X175100000Y-98192857D02*
X175042857Y-98250000D01*
X175100000Y-98307142D01*
X175157142Y-98250000D01*
X175100000Y-98192857D01*
X175100000Y-98307142D01*
X175842857Y-99392857D02*
X175728571Y-99335714D01*
X175671428Y-99221428D01*
X175671428Y-98192857D01*
X176128571Y-98592857D02*
X176585714Y-98592857D01*
X176300000Y-98192857D02*
X176300000Y-99221428D01*
X176357142Y-99335714D01*
X176471428Y-99392857D01*
X176585714Y-99392857D01*
X170357142Y-122592857D02*
X171042857Y-122592857D01*
X170700000Y-123792857D02*
X170700000Y-122592857D01*
X171957142Y-123792857D02*
X171957142Y-123164285D01*
X171900000Y-123050000D01*
X171785714Y-122992857D01*
X171557142Y-122992857D01*
X171442857Y-123050000D01*
X171957142Y-123735714D02*
X171842857Y-123792857D01*
X171557142Y-123792857D01*
X171442857Y-123735714D01*
X171385714Y-123621428D01*
X171385714Y-123507142D01*
X171442857Y-123392857D01*
X171557142Y-123335714D01*
X171842857Y-123335714D01*
X171957142Y-123278571D01*
X172528571Y-123792857D02*
X172528571Y-122992857D01*
X172528571Y-122592857D02*
X172471428Y-122650000D01*
X172528571Y-122707142D01*
X172585714Y-122650000D01*
X172528571Y-122592857D01*
X172528571Y-122707142D01*
X173271428Y-123792857D02*
X173157142Y-123735714D01*
X173100000Y-123621428D01*
X173100000Y-122592857D01*
X174471428Y-122592857D02*
X175157142Y-122592857D01*
X174814285Y-123792857D02*
X174814285Y-122592857D01*
X175557142Y-123792857D02*
X175557142Y-122992857D01*
X175557142Y-122592857D02*
X175500000Y-122650000D01*
X175557142Y-122707142D01*
X175614285Y-122650000D01*
X175557142Y-122592857D01*
X175557142Y-122707142D01*
X176300000Y-123792857D02*
X176185714Y-123735714D01*
X176128571Y-123621428D01*
X176128571Y-122592857D01*
X176585714Y-122992857D02*
X177042857Y-122992857D01*
X176757142Y-122592857D02*
X176757142Y-123621428D01*
X176814285Y-123735714D01*
X176928571Y-123792857D01*
X177042857Y-123792857D01*
X174414285Y-125442857D02*
X175100000Y-125442857D01*
X174757142Y-126642857D02*
X174757142Y-125442857D01*
X175500000Y-126642857D02*
X175500000Y-125842857D01*
X175500000Y-125442857D02*
X175442857Y-125500000D01*
X175500000Y-125557142D01*
X175557142Y-125500000D01*
X175500000Y-125442857D01*
X175500000Y-125557142D01*
X176242857Y-126642857D02*
X176128571Y-126585714D01*
X176071428Y-126471428D01*
X176071428Y-125442857D01*
X176528571Y-125842857D02*
X176985714Y-125842857D01*
X176700000Y-125442857D02*
X176700000Y-126471428D01*
X176757142Y-126585714D01*
X176871428Y-126642857D01*
X176985714Y-126642857D01*
X174200000Y-129192857D02*
X174200000Y-127992857D01*
X174657142Y-127992857D01*
X174771428Y-128050000D01*
X174828571Y-128107142D01*
X174885714Y-128221428D01*
X174885714Y-128392857D01*
X174828571Y-128507142D01*
X174771428Y-128564285D01*
X174657142Y-128621428D01*
X174200000Y-128621428D01*
X175914285Y-129192857D02*
X175914285Y-128564285D01*
X175857142Y-128450000D01*
X175742857Y-128392857D01*
X175514285Y-128392857D01*
X175400000Y-128450000D01*
X175914285Y-129135714D02*
X175800000Y-129192857D01*
X175514285Y-129192857D01*
X175400000Y-129135714D01*
X175342857Y-129021428D01*
X175342857Y-128907142D01*
X175400000Y-128792857D01*
X175514285Y-128735714D01*
X175800000Y-128735714D01*
X175914285Y-128678571D01*
X176485714Y-128392857D02*
X176485714Y-129192857D01*
X176485714Y-128507142D02*
X176542857Y-128450000D01*
X176657142Y-128392857D01*
X176828571Y-128392857D01*
X176942857Y-128450000D01*
X177000000Y-128564285D01*
X177000000Y-129192857D01*
X172414285Y-131264285D02*
X172814285Y-131264285D01*
X172985714Y-131892857D02*
X172414285Y-131892857D01*
X172414285Y-130692857D01*
X172985714Y-130692857D01*
X173671428Y-131892857D02*
X173557142Y-131835714D01*
X173500000Y-131721428D01*
X173500000Y-130692857D01*
X174128571Y-131892857D02*
X174128571Y-130692857D01*
X174128571Y-131150000D02*
X174242857Y-131092857D01*
X174471428Y-131092857D01*
X174585714Y-131150000D01*
X174642857Y-131207142D01*
X174700000Y-131321428D01*
X174700000Y-131664285D01*
X174642857Y-131778571D01*
X174585714Y-131835714D01*
X174471428Y-131892857D01*
X174242857Y-131892857D01*
X174128571Y-131835714D01*
X175385714Y-131892857D02*
X175271428Y-131835714D01*
X175214285Y-131778571D01*
X175157142Y-131664285D01*
X175157142Y-131321428D01*
X175214285Y-131207142D01*
X175271428Y-131150000D01*
X175385714Y-131092857D01*
X175557142Y-131092857D01*
X175671428Y-131150000D01*
X175728571Y-131207142D01*
X175785714Y-131321428D01*
X175785714Y-131664285D01*
X175728571Y-131778571D01*
X175671428Y-131835714D01*
X175557142Y-131892857D01*
X175385714Y-131892857D01*
X176185714Y-131092857D02*
X176414285Y-131892857D01*
X176642857Y-131321428D01*
X176871428Y-131892857D01*
X177100000Y-131092857D01*
X109964285Y-131614285D02*
X110364285Y-131614285D01*
X110535714Y-132242857D02*
X109964285Y-132242857D01*
X109964285Y-131042857D01*
X110535714Y-131042857D01*
X111221428Y-132242857D02*
X111107142Y-132185714D01*
X111050000Y-132071428D01*
X111050000Y-131042857D01*
X111678571Y-132242857D02*
X111678571Y-131042857D01*
X111678571Y-131500000D02*
X111792857Y-131442857D01*
X112021428Y-131442857D01*
X112135714Y-131500000D01*
X112192857Y-131557142D01*
X112250000Y-131671428D01*
X112250000Y-132014285D01*
X112192857Y-132128571D01*
X112135714Y-132185714D01*
X112021428Y-132242857D01*
X111792857Y-132242857D01*
X111678571Y-132185714D01*
X112935714Y-132242857D02*
X112821428Y-132185714D01*
X112764285Y-132128571D01*
X112707142Y-132014285D01*
X112707142Y-131671428D01*
X112764285Y-131557142D01*
X112821428Y-131500000D01*
X112935714Y-131442857D01*
X113107142Y-131442857D01*
X113221428Y-131500000D01*
X113278571Y-131557142D01*
X113335714Y-131671428D01*
X113335714Y-132014285D01*
X113278571Y-132128571D01*
X113221428Y-132185714D01*
X113107142Y-132242857D01*
X112935714Y-132242857D01*
X113735714Y-131442857D02*
X113964285Y-132242857D01*
X114192857Y-131671428D01*
X114421428Y-132242857D01*
X114650000Y-131442857D01*
X110000000Y-129642857D02*
X110000000Y-128442857D01*
X110457142Y-128442857D01*
X110571428Y-128500000D01*
X110628571Y-128557142D01*
X110685714Y-128671428D01*
X110685714Y-128842857D01*
X110628571Y-128957142D01*
X110571428Y-129014285D01*
X110457142Y-129071428D01*
X110000000Y-129071428D01*
X111714285Y-129642857D02*
X111714285Y-129014285D01*
X111657142Y-128900000D01*
X111542857Y-128842857D01*
X111314285Y-128842857D01*
X111200000Y-128900000D01*
X111714285Y-129585714D02*
X111600000Y-129642857D01*
X111314285Y-129642857D01*
X111200000Y-129585714D01*
X111142857Y-129471428D01*
X111142857Y-129357142D01*
X111200000Y-129242857D01*
X111314285Y-129185714D01*
X111600000Y-129185714D01*
X111714285Y-129128571D01*
X112285714Y-128842857D02*
X112285714Y-129642857D01*
X112285714Y-128957142D02*
X112342857Y-128900000D01*
X112457142Y-128842857D01*
X112628571Y-128842857D01*
X112742857Y-128900000D01*
X112800000Y-129014285D01*
X112800000Y-129642857D01*
X109914285Y-125892857D02*
X110600000Y-125892857D01*
X110257142Y-127092857D02*
X110257142Y-125892857D01*
X111000000Y-127092857D02*
X111000000Y-126292857D01*
X111000000Y-125892857D02*
X110942857Y-125950000D01*
X111000000Y-126007142D01*
X111057142Y-125950000D01*
X111000000Y-125892857D01*
X111000000Y-126007142D01*
X111742857Y-127092857D02*
X111628571Y-127035714D01*
X111571428Y-126921428D01*
X111571428Y-125892857D01*
X112028571Y-126292857D02*
X112485714Y-126292857D01*
X112200000Y-125892857D02*
X112200000Y-126921428D01*
X112257142Y-127035714D01*
X112371428Y-127092857D01*
X112485714Y-127092857D01*
X108600000Y-121917857D02*
X108600000Y-120717857D01*
X108600000Y-121289285D02*
X109285714Y-121289285D01*
X109285714Y-121917857D02*
X109285714Y-120717857D01*
X110314285Y-121860714D02*
X110200000Y-121917857D01*
X109971428Y-121917857D01*
X109857142Y-121860714D01*
X109800000Y-121746428D01*
X109800000Y-121289285D01*
X109857142Y-121175000D01*
X109971428Y-121117857D01*
X110200000Y-121117857D01*
X110314285Y-121175000D01*
X110371428Y-121289285D01*
X110371428Y-121403571D01*
X109800000Y-121517857D01*
X111400000Y-121917857D02*
X111400000Y-121289285D01*
X111342857Y-121175000D01*
X111228571Y-121117857D01*
X111000000Y-121117857D01*
X110885714Y-121175000D01*
X111400000Y-121860714D02*
X111285714Y-121917857D01*
X111000000Y-121917857D01*
X110885714Y-121860714D01*
X110828571Y-121746428D01*
X110828571Y-121632142D01*
X110885714Y-121517857D01*
X111000000Y-121460714D01*
X111285714Y-121460714D01*
X111400000Y-121403571D01*
X112485714Y-121917857D02*
X112485714Y-120717857D01*
X112485714Y-121860714D02*
X112371428Y-121917857D01*
X112142857Y-121917857D01*
X112028571Y-121860714D01*
X111971428Y-121803571D01*
X111914285Y-121689285D01*
X111914285Y-121346428D01*
X111971428Y-121232142D01*
X112028571Y-121175000D01*
X112142857Y-121117857D01*
X112371428Y-121117857D01*
X112485714Y-121175000D01*
X109714285Y-122667857D02*
X110400000Y-122667857D01*
X110057142Y-123867857D02*
X110057142Y-122667857D01*
X110800000Y-123867857D02*
X110800000Y-123067857D01*
X110800000Y-122667857D02*
X110742857Y-122725000D01*
X110800000Y-122782142D01*
X110857142Y-122725000D01*
X110800000Y-122667857D01*
X110800000Y-122782142D01*
X111542857Y-123867857D02*
X111428571Y-123810714D01*
X111371428Y-123696428D01*
X111371428Y-122667857D01*
X111828571Y-123067857D02*
X112285714Y-123067857D01*
X112000000Y-122667857D02*
X112000000Y-123696428D01*
X112057142Y-123810714D01*
X112171428Y-123867857D01*
X112285714Y-123867857D01*
X109864285Y-101014285D02*
X110264285Y-101014285D01*
X110435714Y-101642857D02*
X109864285Y-101642857D01*
X109864285Y-100442857D01*
X110435714Y-100442857D01*
X111121428Y-101642857D02*
X111007142Y-101585714D01*
X110950000Y-101471428D01*
X110950000Y-100442857D01*
X111578571Y-101642857D02*
X111578571Y-100442857D01*
X111578571Y-100900000D02*
X111692857Y-100842857D01*
X111921428Y-100842857D01*
X112035714Y-100900000D01*
X112092857Y-100957142D01*
X112150000Y-101071428D01*
X112150000Y-101414285D01*
X112092857Y-101528571D01*
X112035714Y-101585714D01*
X111921428Y-101642857D01*
X111692857Y-101642857D01*
X111578571Y-101585714D01*
X112835714Y-101642857D02*
X112721428Y-101585714D01*
X112664285Y-101528571D01*
X112607142Y-101414285D01*
X112607142Y-101071428D01*
X112664285Y-100957142D01*
X112721428Y-100900000D01*
X112835714Y-100842857D01*
X113007142Y-100842857D01*
X113121428Y-100900000D01*
X113178571Y-100957142D01*
X113235714Y-101071428D01*
X113235714Y-101414285D01*
X113178571Y-101528571D01*
X113121428Y-101585714D01*
X113007142Y-101642857D01*
X112835714Y-101642857D01*
X113635714Y-100842857D02*
X113864285Y-101642857D01*
X114092857Y-101071428D01*
X114321428Y-101642857D01*
X114550000Y-100842857D01*
X109900000Y-104142857D02*
X109900000Y-102942857D01*
X110357142Y-102942857D01*
X110471428Y-103000000D01*
X110528571Y-103057142D01*
X110585714Y-103171428D01*
X110585714Y-103342857D01*
X110528571Y-103457142D01*
X110471428Y-103514285D01*
X110357142Y-103571428D01*
X109900000Y-103571428D01*
X111614285Y-104142857D02*
X111614285Y-103514285D01*
X111557142Y-103400000D01*
X111442857Y-103342857D01*
X111214285Y-103342857D01*
X111100000Y-103400000D01*
X111614285Y-104085714D02*
X111500000Y-104142857D01*
X111214285Y-104142857D01*
X111100000Y-104085714D01*
X111042857Y-103971428D01*
X111042857Y-103857142D01*
X111100000Y-103742857D01*
X111214285Y-103685714D01*
X111500000Y-103685714D01*
X111614285Y-103628571D01*
X112185714Y-103342857D02*
X112185714Y-104142857D01*
X112185714Y-103457142D02*
X112242857Y-103400000D01*
X112357142Y-103342857D01*
X112528571Y-103342857D01*
X112642857Y-103400000D01*
X112700000Y-103514285D01*
X112700000Y-104142857D01*
X109914285Y-105442857D02*
X110600000Y-105442857D01*
X110257142Y-106642857D02*
X110257142Y-105442857D01*
X111000000Y-106642857D02*
X111000000Y-105842857D01*
X111000000Y-105442857D02*
X110942857Y-105500000D01*
X111000000Y-105557142D01*
X111057142Y-105500000D01*
X111000000Y-105442857D01*
X111000000Y-105557142D01*
X111742857Y-106642857D02*
X111628571Y-106585714D01*
X111571428Y-106471428D01*
X111571428Y-105442857D01*
X112028571Y-105842857D02*
X112485714Y-105842857D01*
X112200000Y-105442857D02*
X112200000Y-106471428D01*
X112257142Y-106585714D01*
X112371428Y-106642857D01*
X112485714Y-106642857D01*
X109864285Y-109242857D02*
X109864285Y-108042857D01*
X109864285Y-108614285D02*
X110550000Y-108614285D01*
X110550000Y-109242857D02*
X110550000Y-108042857D01*
X111578571Y-109185714D02*
X111464285Y-109242857D01*
X111235714Y-109242857D01*
X111121428Y-109185714D01*
X111064285Y-109071428D01*
X111064285Y-108614285D01*
X111121428Y-108500000D01*
X111235714Y-108442857D01*
X111464285Y-108442857D01*
X111578571Y-108500000D01*
X111635714Y-108614285D01*
X111635714Y-108728571D01*
X111064285Y-108842857D01*
X112664285Y-109242857D02*
X112664285Y-108614285D01*
X112607142Y-108500000D01*
X112492857Y-108442857D01*
X112264285Y-108442857D01*
X112150000Y-108500000D01*
X112664285Y-109185714D02*
X112550000Y-109242857D01*
X112264285Y-109242857D01*
X112150000Y-109185714D01*
X112092857Y-109071428D01*
X112092857Y-108957142D01*
X112150000Y-108842857D01*
X112264285Y-108785714D01*
X112550000Y-108785714D01*
X112664285Y-108728571D01*
X113750000Y-109242857D02*
X113750000Y-108042857D01*
X113750000Y-109185714D02*
X113635714Y-109242857D01*
X113407142Y-109242857D01*
X113292857Y-109185714D01*
X113235714Y-109128571D01*
X113178571Y-109014285D01*
X113178571Y-108671428D01*
X113235714Y-108557142D01*
X113292857Y-108500000D01*
X113407142Y-108442857D01*
X113635714Y-108442857D01*
X113750000Y-108500000D01*
X115235714Y-109242857D02*
X115235714Y-108042857D01*
X115692857Y-108042857D01*
X115807142Y-108100000D01*
X115864285Y-108157142D01*
X115921428Y-108271428D01*
X115921428Y-108442857D01*
X115864285Y-108557142D01*
X115807142Y-108614285D01*
X115692857Y-108671428D01*
X115235714Y-108671428D01*
X116950000Y-109242857D02*
X116950000Y-108614285D01*
X116892857Y-108500000D01*
X116778571Y-108442857D01*
X116550000Y-108442857D01*
X116435714Y-108500000D01*
X116950000Y-109185714D02*
X116835714Y-109242857D01*
X116550000Y-109242857D01*
X116435714Y-109185714D01*
X116378571Y-109071428D01*
X116378571Y-108957142D01*
X116435714Y-108842857D01*
X116550000Y-108785714D01*
X116835714Y-108785714D01*
X116950000Y-108728571D01*
X117521428Y-108442857D02*
X117521428Y-109242857D01*
X117521428Y-108557142D02*
X117578571Y-108500000D01*
X117692857Y-108442857D01*
X117864285Y-108442857D01*
X117978571Y-108500000D01*
X118035714Y-108614285D01*
X118035714Y-109242857D01*
D11*
X180119047Y-111578571D02*
X179785714Y-111578571D01*
X179785714Y-112102380D02*
X179785714Y-111102380D01*
X180261904Y-111102380D01*
X181071428Y-111435714D02*
X181071428Y-112102380D01*
X180642857Y-111435714D02*
X180642857Y-111959523D01*
X180690476Y-112054761D01*
X180785714Y-112102380D01*
X180928571Y-112102380D01*
X181023809Y-112054761D01*
X181071428Y-112007142D01*
X181500000Y-112054761D02*
X181595238Y-112102380D01*
X181785714Y-112102380D01*
X181880952Y-112054761D01*
X181928571Y-111959523D01*
X181928571Y-111911904D01*
X181880952Y-111816666D01*
X181785714Y-111769047D01*
X181642857Y-111769047D01*
X181547619Y-111721428D01*
X181500000Y-111626190D01*
X181500000Y-111578571D01*
X181547619Y-111483333D01*
X181642857Y-111435714D01*
X181785714Y-111435714D01*
X181880952Y-111483333D01*
X182738095Y-112054761D02*
X182642857Y-112102380D01*
X182452380Y-112102380D01*
X182357142Y-112054761D01*
X182309523Y-111959523D01*
X182309523Y-111578571D01*
X182357142Y-111483333D01*
X182452380Y-111435714D01*
X182642857Y-111435714D01*
X182738095Y-111483333D01*
X182785714Y-111578571D01*
X182785714Y-111673809D01*
X182309523Y-111769047D01*
X184500000Y-111150000D02*
X184404761Y-111102380D01*
X184261904Y-111102380D01*
X184119047Y-111150000D01*
X184023809Y-111245238D01*
X183976190Y-111340476D01*
X183928571Y-111530952D01*
X183928571Y-111673809D01*
X183976190Y-111864285D01*
X184023809Y-111959523D01*
X184119047Y-112054761D01*
X184261904Y-112102380D01*
X184357142Y-112102380D01*
X184500000Y-112054761D01*
X184547619Y-112007142D01*
X184547619Y-111673809D01*
X184357142Y-111673809D01*
X185119047Y-112102380D02*
X185023809Y-112054761D01*
X184976190Y-112007142D01*
X184928571Y-111911904D01*
X184928571Y-111626190D01*
X184976190Y-111530952D01*
X185023809Y-111483333D01*
X185119047Y-111435714D01*
X185261904Y-111435714D01*
X185357142Y-111483333D01*
X185404761Y-111530952D01*
X185452380Y-111626190D01*
X185452380Y-111911904D01*
X185404761Y-112007142D01*
X185357142Y-112054761D01*
X185261904Y-112102380D01*
X185119047Y-112102380D01*
X186023809Y-112102380D02*
X185928571Y-112054761D01*
X185880952Y-112007142D01*
X185833333Y-111911904D01*
X185833333Y-111626190D01*
X185880952Y-111530952D01*
X185928571Y-111483333D01*
X186023809Y-111435714D01*
X186166666Y-111435714D01*
X186261904Y-111483333D01*
X186309523Y-111530952D01*
X186357142Y-111626190D01*
X186357142Y-111911904D01*
X186309523Y-112007142D01*
X186261904Y-112054761D01*
X186166666Y-112102380D01*
X186023809Y-112102380D01*
X187214285Y-112102380D02*
X187214285Y-111102380D01*
X187214285Y-112054761D02*
X187119047Y-112102380D01*
X186928571Y-112102380D01*
X186833333Y-112054761D01*
X186785714Y-112007142D01*
X186738095Y-111911904D01*
X186738095Y-111626190D01*
X186785714Y-111530952D01*
X186833333Y-111483333D01*
X186928571Y-111435714D01*
X187119047Y-111435714D01*
X187214285Y-111483333D01*
X177969047Y-118078571D02*
X177635714Y-118078571D01*
X177635714Y-118602380D02*
X177635714Y-117602380D01*
X178111904Y-117602380D01*
X178921428Y-117935714D02*
X178921428Y-118602380D01*
X178492857Y-117935714D02*
X178492857Y-118459523D01*
X178540476Y-118554761D01*
X178635714Y-118602380D01*
X178778571Y-118602380D01*
X178873809Y-118554761D01*
X178921428Y-118507142D01*
X179350000Y-118554761D02*
X179445238Y-118602380D01*
X179635714Y-118602380D01*
X179730952Y-118554761D01*
X179778571Y-118459523D01*
X179778571Y-118411904D01*
X179730952Y-118316666D01*
X179635714Y-118269047D01*
X179492857Y-118269047D01*
X179397619Y-118221428D01*
X179350000Y-118126190D01*
X179350000Y-118078571D01*
X179397619Y-117983333D01*
X179492857Y-117935714D01*
X179635714Y-117935714D01*
X179730952Y-117983333D01*
X180588095Y-118554761D02*
X180492857Y-118602380D01*
X180302380Y-118602380D01*
X180207142Y-118554761D01*
X180159523Y-118459523D01*
X180159523Y-118078571D01*
X180207142Y-117983333D01*
X180302380Y-117935714D01*
X180492857Y-117935714D01*
X180588095Y-117983333D01*
X180635714Y-118078571D01*
X180635714Y-118173809D01*
X180159523Y-118269047D01*
X182350000Y-117650000D02*
X182254761Y-117602380D01*
X182111904Y-117602380D01*
X181969047Y-117650000D01*
X181873809Y-117745238D01*
X181826190Y-117840476D01*
X181778571Y-118030952D01*
X181778571Y-118173809D01*
X181826190Y-118364285D01*
X181873809Y-118459523D01*
X181969047Y-118554761D01*
X182111904Y-118602380D01*
X182207142Y-118602380D01*
X182350000Y-118554761D01*
X182397619Y-118507142D01*
X182397619Y-118173809D01*
X182207142Y-118173809D01*
X182969047Y-118602380D02*
X182873809Y-118554761D01*
X182826190Y-118507142D01*
X182778571Y-118411904D01*
X182778571Y-118126190D01*
X182826190Y-118030952D01*
X182873809Y-117983333D01*
X182969047Y-117935714D01*
X183111904Y-117935714D01*
X183207142Y-117983333D01*
X183254761Y-118030952D01*
X183302380Y-118126190D01*
X183302380Y-118411904D01*
X183254761Y-118507142D01*
X183207142Y-118554761D01*
X183111904Y-118602380D01*
X182969047Y-118602380D01*
X183873809Y-118602380D02*
X183778571Y-118554761D01*
X183730952Y-118507142D01*
X183683333Y-118411904D01*
X183683333Y-118126190D01*
X183730952Y-118030952D01*
X183778571Y-117983333D01*
X183873809Y-117935714D01*
X184016666Y-117935714D01*
X184111904Y-117983333D01*
X184159523Y-118030952D01*
X184207142Y-118126190D01*
X184207142Y-118411904D01*
X184159523Y-118507142D01*
X184111904Y-118554761D01*
X184016666Y-118602380D01*
X183873809Y-118602380D01*
X185064285Y-118602380D02*
X185064285Y-117602380D01*
X185064285Y-118554761D02*
X184969047Y-118602380D01*
X184778571Y-118602380D01*
X184683333Y-118554761D01*
X184635714Y-118507142D01*
X184588095Y-118411904D01*
X184588095Y-118126190D01*
X184635714Y-118030952D01*
X184683333Y-117983333D01*
X184778571Y-117935714D01*
X184969047Y-117935714D01*
X185064285Y-117983333D01*
X104769047Y-135628571D02*
X104435714Y-135628571D01*
X104435714Y-136152380D02*
X104435714Y-135152380D01*
X104911904Y-135152380D01*
X105721428Y-135485714D02*
X105721428Y-136152380D01*
X105292857Y-135485714D02*
X105292857Y-136009523D01*
X105340476Y-136104761D01*
X105435714Y-136152380D01*
X105578571Y-136152380D01*
X105673809Y-136104761D01*
X105721428Y-136057142D01*
X106150000Y-136104761D02*
X106245238Y-136152380D01*
X106435714Y-136152380D01*
X106530952Y-136104761D01*
X106578571Y-136009523D01*
X106578571Y-135961904D01*
X106530952Y-135866666D01*
X106435714Y-135819047D01*
X106292857Y-135819047D01*
X106197619Y-135771428D01*
X106150000Y-135676190D01*
X106150000Y-135628571D01*
X106197619Y-135533333D01*
X106292857Y-135485714D01*
X106435714Y-135485714D01*
X106530952Y-135533333D01*
X107388095Y-136104761D02*
X107292857Y-136152380D01*
X107102380Y-136152380D01*
X107007142Y-136104761D01*
X106959523Y-136009523D01*
X106959523Y-135628571D01*
X107007142Y-135533333D01*
X107102380Y-135485714D01*
X107292857Y-135485714D01*
X107388095Y-135533333D01*
X107435714Y-135628571D01*
X107435714Y-135723809D01*
X106959523Y-135819047D01*
X109150000Y-135200000D02*
X109054761Y-135152380D01*
X108911904Y-135152380D01*
X108769047Y-135200000D01*
X108673809Y-135295238D01*
X108626190Y-135390476D01*
X108578571Y-135580952D01*
X108578571Y-135723809D01*
X108626190Y-135914285D01*
X108673809Y-136009523D01*
X108769047Y-136104761D01*
X108911904Y-136152380D01*
X109007142Y-136152380D01*
X109150000Y-136104761D01*
X109197619Y-136057142D01*
X109197619Y-135723809D01*
X109007142Y-135723809D01*
X109769047Y-136152380D02*
X109673809Y-136104761D01*
X109626190Y-136057142D01*
X109578571Y-135961904D01*
X109578571Y-135676190D01*
X109626190Y-135580952D01*
X109673809Y-135533333D01*
X109769047Y-135485714D01*
X109911904Y-135485714D01*
X110007142Y-135533333D01*
X110054761Y-135580952D01*
X110102380Y-135676190D01*
X110102380Y-135961904D01*
X110054761Y-136057142D01*
X110007142Y-136104761D01*
X109911904Y-136152380D01*
X109769047Y-136152380D01*
X110673809Y-136152380D02*
X110578571Y-136104761D01*
X110530952Y-136057142D01*
X110483333Y-135961904D01*
X110483333Y-135676190D01*
X110530952Y-135580952D01*
X110578571Y-135533333D01*
X110673809Y-135485714D01*
X110816666Y-135485714D01*
X110911904Y-135533333D01*
X110959523Y-135580952D01*
X111007142Y-135676190D01*
X111007142Y-135961904D01*
X110959523Y-136057142D01*
X110911904Y-136104761D01*
X110816666Y-136152380D01*
X110673809Y-136152380D01*
X111864285Y-136152380D02*
X111864285Y-135152380D01*
X111864285Y-136104761D02*
X111769047Y-136152380D01*
X111578571Y-136152380D01*
X111483333Y-136104761D01*
X111435714Y-136057142D01*
X111388095Y-135961904D01*
X111388095Y-135676190D01*
X111435714Y-135580952D01*
X111483333Y-135533333D01*
X111578571Y-135485714D01*
X111769047Y-135485714D01*
X111864285Y-135533333D01*
X100121428Y-94969047D02*
X100121428Y-94635714D01*
X99597619Y-94635714D02*
X100597619Y-94635714D01*
X100597619Y-95111904D01*
X100264285Y-95921428D02*
X99597619Y-95921428D01*
X100264285Y-95492857D02*
X99740476Y-95492857D01*
X99645238Y-95540476D01*
X99597619Y-95635714D01*
X99597619Y-95778571D01*
X99645238Y-95873809D01*
X99692857Y-95921428D01*
X99645238Y-96350000D02*
X99597619Y-96445238D01*
X99597619Y-96635714D01*
X99645238Y-96730952D01*
X99740476Y-96778571D01*
X99788095Y-96778571D01*
X99883333Y-96730952D01*
X99930952Y-96635714D01*
X99930952Y-96492857D01*
X99978571Y-96397619D01*
X100073809Y-96350000D01*
X100121428Y-96350000D01*
X100216666Y-96397619D01*
X100264285Y-96492857D01*
X100264285Y-96635714D01*
X100216666Y-96730952D01*
X99645238Y-97588095D02*
X99597619Y-97492857D01*
X99597619Y-97302380D01*
X99645238Y-97207142D01*
X99740476Y-97159523D01*
X100121428Y-97159523D01*
X100216666Y-97207142D01*
X100264285Y-97302380D01*
X100264285Y-97492857D01*
X100216666Y-97588095D01*
X100121428Y-97635714D01*
X100026190Y-97635714D01*
X99930952Y-97159523D01*
X100550000Y-99350000D02*
X100597619Y-99254761D01*
X100597619Y-99111904D01*
X100550000Y-98969047D01*
X100454761Y-98873809D01*
X100359523Y-98826190D01*
X100169047Y-98778571D01*
X100026190Y-98778571D01*
X99835714Y-98826190D01*
X99740476Y-98873809D01*
X99645238Y-98969047D01*
X99597619Y-99111904D01*
X99597619Y-99207142D01*
X99645238Y-99350000D01*
X99692857Y-99397619D01*
X100026190Y-99397619D01*
X100026190Y-99207142D01*
X99597619Y-99969047D02*
X99645238Y-99873809D01*
X99692857Y-99826190D01*
X99788095Y-99778571D01*
X100073809Y-99778571D01*
X100169047Y-99826190D01*
X100216666Y-99873809D01*
X100264285Y-99969047D01*
X100264285Y-100111904D01*
X100216666Y-100207142D01*
X100169047Y-100254761D01*
X100073809Y-100302380D01*
X99788095Y-100302380D01*
X99692857Y-100254761D01*
X99645238Y-100207142D01*
X99597619Y-100111904D01*
X99597619Y-99969047D01*
X99597619Y-100873809D02*
X99645238Y-100778571D01*
X99692857Y-100730952D01*
X99788095Y-100683333D01*
X100073809Y-100683333D01*
X100169047Y-100730952D01*
X100216666Y-100778571D01*
X100264285Y-100873809D01*
X100264285Y-101016666D01*
X100216666Y-101111904D01*
X100169047Y-101159523D01*
X100073809Y-101207142D01*
X99788095Y-101207142D01*
X99692857Y-101159523D01*
X99645238Y-101111904D01*
X99597619Y-101016666D01*
X99597619Y-100873809D01*
X99597619Y-102064285D02*
X100597619Y-102064285D01*
X99645238Y-102064285D02*
X99597619Y-101969047D01*
X99597619Y-101778571D01*
X99645238Y-101683333D01*
X99692857Y-101635714D01*
X99788095Y-101588095D01*
X100073809Y-101588095D01*
X100169047Y-101635714D01*
X100216666Y-101683333D01*
X100264285Y-101778571D01*
X100264285Y-101969047D01*
X100216666Y-102064285D01*
D10*
X144550000Y-133715476D02*
X144550000Y-132465476D01*
X145383333Y-132465476D02*
X145621428Y-132465476D01*
X145740476Y-132525000D01*
X145859523Y-132644047D01*
X145919047Y-132882142D01*
X145919047Y-133298809D01*
X145859523Y-133536904D01*
X145740476Y-133655952D01*
X145621428Y-133715476D01*
X145383333Y-133715476D01*
X145264285Y-133655952D01*
X145145238Y-133536904D01*
X145085714Y-133298809D01*
X145085714Y-132882142D01*
X145145238Y-132644047D01*
X145264285Y-132525000D01*
X145383333Y-132465476D01*
X146692857Y-132465476D02*
X146811904Y-132465476D01*
X146930952Y-132525000D01*
X146990476Y-132584523D01*
X147050000Y-132703571D01*
X147109523Y-132941666D01*
X147109523Y-133239285D01*
X147050000Y-133477380D01*
X146990476Y-133596428D01*
X146930952Y-133655952D01*
X146811904Y-133715476D01*
X146692857Y-133715476D01*
X146573809Y-133655952D01*
X146514285Y-133596428D01*
X146454761Y-133477380D01*
X146395238Y-133239285D01*
X146395238Y-132941666D01*
X146454761Y-132703571D01*
X146514285Y-132584523D01*
X146573809Y-132525000D01*
X146692857Y-132465476D01*
X142977380Y-126660714D02*
X143394047Y-126660714D01*
X143572619Y-127315476D02*
X142977380Y-127315476D01*
X142977380Y-126065476D01*
X143572619Y-126065476D01*
X144108333Y-127315476D02*
X144108333Y-126065476D01*
X144822619Y-127315476D01*
X144822619Y-126065476D01*
X134400000Y-81715476D02*
X134400000Y-80465476D01*
X135233333Y-80465476D02*
X135471428Y-80465476D01*
X135590476Y-80525000D01*
X135709523Y-80644047D01*
X135769047Y-80882142D01*
X135769047Y-81298809D01*
X135709523Y-81536904D01*
X135590476Y-81655952D01*
X135471428Y-81715476D01*
X135233333Y-81715476D01*
X135114285Y-81655952D01*
X134995238Y-81536904D01*
X134935714Y-81298809D01*
X134935714Y-80882142D01*
X134995238Y-80644047D01*
X135114285Y-80525000D01*
X135233333Y-80465476D01*
X136542857Y-80465476D02*
X136661904Y-80465476D01*
X136780952Y-80525000D01*
X136840476Y-80584523D01*
X136900000Y-80703571D01*
X136959523Y-80941666D01*
X136959523Y-81239285D01*
X136900000Y-81477380D01*
X136840476Y-81596428D01*
X136780952Y-81655952D01*
X136661904Y-81715476D01*
X136542857Y-81715476D01*
X136423809Y-81655952D01*
X136364285Y-81596428D01*
X136304761Y-81477380D01*
X136245238Y-81239285D01*
X136245238Y-80941666D01*
X136304761Y-80703571D01*
X136364285Y-80584523D01*
X136423809Y-80525000D01*
X136542857Y-80465476D01*
X135127380Y-77810714D02*
X135544047Y-77810714D01*
X135722619Y-78465476D02*
X135127380Y-78465476D01*
X135127380Y-77215476D01*
X135722619Y-77215476D01*
X136258333Y-78465476D02*
X136258333Y-77215476D01*
X136972619Y-78465476D01*
X136972619Y-77215476D01*
X116222619Y-60210714D02*
X116044047Y-60270238D01*
X115984523Y-60329761D01*
X115925000Y-60448809D01*
X115925000Y-60627380D01*
X115984523Y-60746428D01*
X116044047Y-60805952D01*
X116163095Y-60865476D01*
X116639285Y-60865476D01*
X116639285Y-59615476D01*
X116222619Y-59615476D01*
X116103571Y-59675000D01*
X116044047Y-59734523D01*
X115984523Y-59853571D01*
X115984523Y-59972619D01*
X116044047Y-60091666D01*
X116103571Y-60151190D01*
X116222619Y-60210714D01*
X116639285Y-60210714D01*
X115448809Y-60508333D02*
X114853571Y-60508333D01*
X115567857Y-60865476D02*
X115151190Y-59615476D01*
X114734523Y-60865476D01*
X114496428Y-59615476D02*
X113782142Y-59615476D01*
X114139285Y-60865476D02*
X114139285Y-59615476D01*
X113544047Y-59615476D02*
X112829761Y-59615476D01*
X113186904Y-60865476D02*
X113186904Y-59615476D01*
X112413095Y-60389285D02*
X111460714Y-60389285D01*
X115772619Y-69260714D02*
X115594047Y-69320238D01*
X115534523Y-69379761D01*
X115475000Y-69498809D01*
X115475000Y-69677380D01*
X115534523Y-69796428D01*
X115594047Y-69855952D01*
X115713095Y-69915476D01*
X116189285Y-69915476D01*
X116189285Y-68665476D01*
X115772619Y-68665476D01*
X115653571Y-68725000D01*
X115594047Y-68784523D01*
X115534523Y-68903571D01*
X115534523Y-69022619D01*
X115594047Y-69141666D01*
X115653571Y-69201190D01*
X115772619Y-69260714D01*
X116189285Y-69260714D01*
X114998809Y-69558333D02*
X114403571Y-69558333D01*
X115117857Y-69915476D02*
X114701190Y-68665476D01*
X114284523Y-69915476D01*
X114046428Y-68665476D02*
X113332142Y-68665476D01*
X113689285Y-69915476D02*
X113689285Y-68665476D01*
X113094047Y-68665476D02*
X112379761Y-68665476D01*
X112736904Y-69915476D02*
X112736904Y-68665476D01*
X111963095Y-69439285D02*
X111010714Y-69439285D01*
X111486904Y-69915476D02*
X111486904Y-68963095D01*
X154226190Y-91639285D02*
X153273809Y-91639285D01*
X153750000Y-92115476D02*
X153750000Y-91163095D01*
X167423809Y-59389285D02*
X168376190Y-59389285D01*
D11*
X132750000Y-101015000D02*
X121250000Y-101015000D01*
X133450000Y-100365000D02*
X133450000Y-97415000D01*
X121250000Y-88215000D02*
X132750000Y-88215000D01*
X120550000Y-100315000D02*
X120550000Y-97415000D01*
X133450000Y-91815000D02*
X133450000Y-88915000D01*
X120550000Y-91815000D02*
X120550000Y-88915000D01*
X133450000Y-100315000D02*
G75*
G02X132750000Y-101015000I-700000J0D01*
G01*
X132750000Y-88215000D02*
G75*
G02X133450000Y-88915000I0J-700000D01*
G01*
X120550000Y-88915000D02*
G75*
G02X121250000Y-88215000I700000J0D01*
G01*
X121250000Y-101015000D02*
G75*
G02X120550000Y-100315000I0J700000D01*
G01*
D12*
X158425000Y-127375000D02*
G75*
G02X158425000Y-127475000I0J-50000D01*
G01*
X158425000Y-127475000D02*
G75*
G02X158425000Y-127375000I0J50000D01*
G01*
X158425000Y-127475000D02*
X158425000Y-127475000D01*
X158425000Y-127375000D02*
X158425000Y-127375000D01*
X126525000Y-49450000D02*
G75*
G02X126425000Y-49450000I-50000J0D01*
G01*
X126425000Y-49450000D02*
G75*
G02X126525000Y-49450000I50000J0D01*
G01*
X126425000Y-49450000D02*
X126425000Y-49450000D01*
X126525000Y-49450000D02*
X126525000Y-49450000D01*
D11*
X136152500Y-125835000D02*
X138437500Y-125835000D01*
X136152500Y-124365000D02*
X136152500Y-125835000D01*
X138437500Y-124365000D02*
X136152500Y-124365000D01*
X122102000Y-60446800D02*
X124552000Y-60446800D01*
X123902000Y-57226800D02*
X122102000Y-57226800D01*
X154311500Y-131781300D02*
X154311500Y-129331300D01*
X151091500Y-129981300D02*
X151091500Y-131781300D01*
X141937800Y-76704000D02*
X141937800Y-76604000D01*
X138697800Y-76704000D02*
X138697800Y-76604000D01*
X141937800Y-76604000D02*
X138697800Y-76604000D01*
X141937800Y-78844000D02*
X141937800Y-78744000D01*
X138697800Y-78844000D02*
X138697800Y-78744000D01*
X141937800Y-78844000D02*
X138697800Y-78844000D01*
X138706800Y-82173000D02*
X138706800Y-82273000D01*
X141946800Y-82173000D02*
X141946800Y-82273000D01*
X138706800Y-82273000D02*
X141946800Y-82273000D01*
X138706800Y-80033000D02*
X138706800Y-80133000D01*
X141946800Y-80033000D02*
X141946800Y-80133000D01*
X138706800Y-80033000D02*
X141946800Y-80033000D01*
X139604000Y-130433000D02*
X139604000Y-130533000D01*
X142844000Y-130433000D02*
X142844000Y-130533000D01*
X139604000Y-130533000D02*
X142844000Y-130533000D01*
X139604000Y-128293000D02*
X139604000Y-128393000D01*
X142844000Y-128293000D02*
X142844000Y-128393000D01*
X139604000Y-128293000D02*
X142844000Y-128293000D01*
X139599500Y-133925500D02*
X139599500Y-134025500D01*
X142839500Y-133925500D02*
X142839500Y-134025500D01*
X139599500Y-134025500D02*
X142839500Y-134025500D01*
X139599500Y-131785500D02*
X139599500Y-131885500D01*
X142839500Y-131785500D02*
X142839500Y-131885500D01*
X139599500Y-131785500D02*
X142839500Y-131785500D01*
X185697500Y-109565000D02*
X183412500Y-109565000D01*
X185697500Y-111035000D02*
X185697500Y-109565000D01*
X183412500Y-111035000D02*
X185697500Y-111035000D01*
X180215000Y-120385000D02*
X182500000Y-120385000D01*
X180215000Y-118915000D02*
X180215000Y-120385000D01*
X182500000Y-118915000D02*
X180215000Y-118915000D01*
X102035000Y-98722500D02*
X102035000Y-96437500D01*
X100565000Y-98722500D02*
X102035000Y-98722500D01*
X100565000Y-96437500D02*
X100565000Y-98722500D01*
X109935000Y-133465000D02*
X107650000Y-133465000D01*
X109935000Y-134935000D02*
X109935000Y-133465000D01*
X107650000Y-134935000D02*
X109935000Y-134935000D01*
X165275800Y-116718200D02*
X163815800Y-116718200D01*
X165275800Y-113558200D02*
X163115800Y-113558200D01*
X165275800Y-113558200D02*
X165275800Y-114488200D01*
X165275800Y-116718200D02*
X165275800Y-115788200D01*
D10*
X170259200Y-114797200D02*
X171359200Y-115897200D01*
X171359200Y-114797200D02*
X171359200Y-119797200D01*
X171359200Y-119797200D02*
X166359200Y-119797200D01*
X166359200Y-119797200D02*
X166359200Y-114797200D01*
X166359200Y-114797200D02*
X171359200Y-114797200D01*
D13*
X185237430Y-105825800D02*
G75*
G03X185237430Y-105825800I-106630J0D01*
G01*
D12*
X183848800Y-103453800D02*
X174118800Y-103453800D01*
X183848800Y-108483800D02*
X174118800Y-108483800D01*
D13*
X184983430Y-135696200D02*
G75*
G03X184983430Y-135696200I-106630J0D01*
G01*
D12*
X183594800Y-133324200D02*
X173864800Y-133324200D01*
X183594800Y-138354200D02*
X173864800Y-138354200D01*
D13*
X102255230Y-96688400D02*
G75*
G03X102255230Y-96688400I-106630J0D01*
G01*
D12*
X103430600Y-99060400D02*
X113160600Y-99060400D01*
X103430600Y-94030400D02*
X113160600Y-94030400D01*
D13*
X105786630Y-122656800D02*
G75*
G03X105786630Y-122656800I-106630J0D01*
G01*
D12*
X108052000Y-121374800D02*
X108052000Y-111644800D01*
X103022000Y-121374800D02*
X103022000Y-111644800D01*
D14*
X174903000Y-69085500D02*
X174903000Y-67985500D01*
X172787000Y-69085500D02*
X174903000Y-69085500D01*
X172787000Y-67985500D02*
X172787000Y-69085500D01*
X172787000Y-67985500D02*
X169545000Y-67985500D01*
X177995000Y-67985500D02*
X174903000Y-67985500D01*
D10*
X169545000Y-67985500D02*
X169545000Y-65085500D01*
X169545000Y-65085500D02*
X169845000Y-65085500D01*
X169845000Y-65085500D02*
X177995000Y-65085500D01*
X169545000Y-58485500D02*
X169845000Y-58485500D01*
D14*
X172787000Y-55585500D02*
X169545000Y-55585500D01*
X174903000Y-54485500D02*
X174903000Y-55585500D01*
D10*
X169545000Y-55585500D02*
X169545000Y-58485500D01*
X169845000Y-58485500D02*
X177995000Y-58485500D01*
D14*
X172787000Y-55585500D02*
X172787000Y-54485500D01*
X172787000Y-54485500D02*
X174903000Y-54485500D01*
X177995000Y-55585500D02*
X174903000Y-55585500D01*
D10*
X177995000Y-65085500D02*
X177995000Y-58485500D01*
D11*
X142370500Y-109805500D02*
X143720500Y-109805500D01*
X142370500Y-111555500D02*
X143720500Y-111555500D01*
X133235200Y-58273200D02*
X133235200Y-57798200D01*
X129015200Y-62018200D02*
X129490200Y-62018200D01*
X129015200Y-61543200D02*
X129015200Y-62018200D01*
X129015200Y-57798200D02*
X129490200Y-57798200D01*
X129015200Y-58273200D02*
X129015200Y-57798200D01*
X133235200Y-62018200D02*
X132760200Y-62018200D01*
X133235200Y-61543200D02*
X133235200Y-62018200D01*
X144575400Y-55782200D02*
X144195400Y-55782200D01*
X144575400Y-49362200D02*
X144575400Y-55782200D01*
X162815400Y-49362200D02*
X162815400Y-55782200D01*
X144575400Y-49362200D02*
X162815400Y-49362200D01*
X162815400Y-75107200D02*
X161815400Y-75107200D01*
X162815400Y-74327200D02*
X162815400Y-75107200D01*
X144575400Y-75107200D02*
X145575400Y-75107200D01*
X144575400Y-74327200D02*
X144575400Y-75107200D01*
X125445200Y-71443600D02*
X125445200Y-68993600D01*
X122225200Y-69643600D02*
X122225200Y-71443600D01*
X151495000Y-124680000D02*
X151970000Y-124680000D01*
X147750000Y-120460000D02*
X147750000Y-120935000D01*
X148225000Y-120460000D02*
X147750000Y-120460000D01*
X151970000Y-120460000D02*
X151970000Y-120935000D01*
X151495000Y-120460000D02*
X151970000Y-120460000D01*
X147750000Y-124680000D02*
X147750000Y-124205000D01*
X148225000Y-124680000D02*
X147750000Y-124680000D01*
X116610000Y-116285000D02*
X116230000Y-116285000D01*
X116610000Y-109865000D02*
X116610000Y-116285000D01*
X134850000Y-109865000D02*
X134850000Y-116285000D01*
X116610000Y-109865000D02*
X134850000Y-109865000D01*
X134850000Y-135610000D02*
X133850000Y-135610000D01*
X134850000Y-134830000D02*
X134850000Y-135610000D01*
X116610000Y-135610000D02*
X117610000Y-135610000D01*
X116610000Y-134830000D02*
X116610000Y-135610000D01*
X140860960Y-117000880D02*
X141120960Y-117000880D01*
X140860960Y-117000880D02*
X140860960Y-116740880D01*
X140860960Y-112980880D02*
X141120960Y-112980880D01*
X146280960Y-117000880D02*
X146020960Y-117000880D01*
X146280960Y-117000880D02*
X146280960Y-116740880D01*
X146280960Y-112980880D02*
X146020960Y-112980880D01*
X146280960Y-112980880D02*
X146280960Y-113240880D01*
X135376800Y-65961800D02*
X135376800Y-64501800D01*
X138536800Y-65961800D02*
X138536800Y-63801800D01*
X138536800Y-65961800D02*
X137606800Y-65961800D01*
X135376800Y-65961800D02*
X136306800Y-65961800D01*
X141214000Y-61028800D02*
X141214000Y-62488800D01*
X138054000Y-61028800D02*
X138054000Y-63188800D01*
X138054000Y-61028800D02*
X138984000Y-61028800D01*
X141214000Y-61028800D02*
X140284000Y-61028800D01*
X149985000Y-133025000D02*
X148525000Y-133025000D01*
X149985000Y-129865000D02*
X147825000Y-129865000D01*
X149985000Y-129865000D02*
X149985000Y-130795000D01*
X149985000Y-133025000D02*
X149985000Y-132095000D01*
X149985000Y-129469000D02*
X148525000Y-129469000D01*
X149985000Y-126309000D02*
X147825000Y-126309000D01*
X149985000Y-126309000D02*
X149985000Y-127239000D01*
X149985000Y-129469000D02*
X149985000Y-128539000D01*
X144001200Y-96066600D02*
X147131200Y-96066600D01*
X144671200Y-99666600D02*
X147131200Y-99666600D01*
X148471600Y-96065800D02*
X151601600Y-96065800D01*
X149141600Y-99665800D02*
X151601600Y-99665800D01*
X156902678Y-110262600D02*
X156385522Y-110262600D01*
X156902678Y-111682600D02*
X156385522Y-111682600D01*
X125840700Y-72871200D02*
X125840700Y-75671200D01*
X125840700Y-75671200D02*
X123840700Y-75671200D01*
X123840700Y-75671200D02*
X123840700Y-72871200D01*
X123840700Y-72871200D02*
X125840700Y-72871200D01*
X118351000Y-62944800D02*
X119566000Y-62944800D01*
X114391000Y-63004800D02*
X112131000Y-63004800D01*
X114391000Y-63504800D02*
X112131000Y-63504800D01*
X115991000Y-66104800D02*
X115991000Y-67104800D01*
X114391000Y-66104800D02*
X115991000Y-66104800D01*
X114391000Y-67104800D02*
X114391000Y-66104800D01*
X115991000Y-67104800D02*
X114391000Y-67104800D01*
X115991000Y-63504800D02*
X115991000Y-62504800D01*
X114391000Y-63504800D02*
X115991000Y-63504800D01*
X114391000Y-62504800D02*
X114391000Y-63504800D01*
X115991000Y-62504800D02*
X114391000Y-62504800D01*
X118351000Y-67864800D02*
X118351000Y-66944800D01*
X118351000Y-61744800D02*
X118351000Y-62664800D01*
X116491000Y-65304800D02*
X112131000Y-65304800D01*
X116491000Y-64304800D02*
X116491000Y-65304800D01*
X112131000Y-64304800D02*
X116491000Y-64304800D01*
X118351000Y-66944800D02*
X118351000Y-66664800D01*
X119951000Y-66944800D02*
X118351000Y-66944800D01*
X119951000Y-67864800D02*
X119951000Y-66944800D01*
X112131000Y-67864800D02*
X119951000Y-67864800D01*
X112131000Y-61744800D02*
X112131000Y-67864800D01*
X119951000Y-61744800D02*
X112131000Y-61744800D01*
X119951000Y-62664800D02*
X119951000Y-61744800D01*
X118351000Y-62664800D02*
X119951000Y-62664800D01*
X118351000Y-62944800D02*
X118351000Y-62664800D01*
X185390000Y-92365000D02*
X185390000Y-93695000D01*
X184060000Y-92365000D02*
X185390000Y-92365000D01*
X182790000Y-92365000D02*
X182790000Y-95025000D01*
X182790000Y-95025000D02*
X177650000Y-95025000D01*
X182790000Y-92365000D02*
X177650000Y-92365000D01*
X177650000Y-92365000D02*
X177650000Y-95025000D01*
X185390000Y-94905000D02*
X185390000Y-96235000D01*
X184060000Y-94905000D02*
X185390000Y-94905000D01*
X182790000Y-94905000D02*
X182790000Y-97565000D01*
X182790000Y-97565000D02*
X177650000Y-97565000D01*
X182790000Y-94905000D02*
X177650000Y-94905000D01*
X177650000Y-94905000D02*
X177650000Y-97565000D01*
X185390000Y-97450600D02*
X185390000Y-98780600D01*
X184060000Y-97450600D02*
X185390000Y-97450600D01*
X182790000Y-97450600D02*
X182790000Y-100110600D01*
X182790000Y-100110600D02*
X177650000Y-100110600D01*
X182790000Y-97450600D02*
X177650000Y-97450600D01*
X177650000Y-97450600D02*
X177650000Y-100110600D01*
X185378400Y-99990600D02*
X185378400Y-101320600D01*
X184048400Y-99990600D02*
X185378400Y-99990600D01*
X182778400Y-99990600D02*
X182778400Y-102650600D01*
X182778400Y-102650600D02*
X177638400Y-102650600D01*
X182778400Y-99990600D02*
X177638400Y-99990600D01*
X177638400Y-99990600D02*
X177638400Y-102650600D01*
X185390000Y-122265000D02*
X185390000Y-123595000D01*
X184060000Y-122265000D02*
X185390000Y-122265000D01*
X182790000Y-122265000D02*
X182790000Y-124925000D01*
X182790000Y-124925000D02*
X177650000Y-124925000D01*
X182790000Y-122265000D02*
X177650000Y-122265000D01*
X177650000Y-122265000D02*
X177650000Y-124925000D01*
X185390000Y-124805000D02*
X185390000Y-126135000D01*
X184060000Y-124805000D02*
X185390000Y-124805000D01*
X182790000Y-124805000D02*
X182790000Y-127465000D01*
X182790000Y-127465000D02*
X177650000Y-127465000D01*
X182790000Y-124805000D02*
X177650000Y-124805000D01*
X177650000Y-124805000D02*
X177650000Y-127465000D01*
X185390000Y-127345000D02*
X185390000Y-128675000D01*
X184060000Y-127345000D02*
X185390000Y-127345000D01*
X182790000Y-127345000D02*
X182790000Y-130005000D01*
X182790000Y-130005000D02*
X177650000Y-130005000D01*
X182790000Y-127345000D02*
X177650000Y-127345000D01*
X177650000Y-127345000D02*
X177650000Y-130005000D01*
X185390000Y-129885000D02*
X185390000Y-131215000D01*
X184060000Y-129885000D02*
X185390000Y-129885000D01*
X182790000Y-129885000D02*
X182790000Y-132545000D01*
X182790000Y-132545000D02*
X177650000Y-132545000D01*
X182790000Y-129885000D02*
X177650000Y-129885000D01*
X177650000Y-129885000D02*
X177650000Y-132545000D01*
D12*
X142212720Y-95514160D02*
X142212720Y-91450160D01*
X154294720Y-95514160D02*
X142212720Y-95514160D01*
X154294720Y-87450160D02*
X154294720Y-95514160D01*
X145794720Y-87386160D02*
X154294720Y-87386160D01*
D15*
X142212720Y-95514160D02*
X142212720Y-87386160D01*
X154294720Y-95514160D02*
X142212720Y-95514160D01*
X154294720Y-87386160D02*
X154294720Y-95514160D01*
X142212720Y-87386160D02*
X154294720Y-87386160D01*
D16*
X141962720Y-95764160D02*
X141962720Y-87136160D01*
X154294720Y-95764160D02*
X141962720Y-95764160D01*
X154294720Y-87136160D02*
X154294720Y-95764160D01*
X141962720Y-87136160D02*
X154294720Y-87136160D01*
D11*
X101540000Y-102295000D02*
X101540000Y-100965000D01*
X102870000Y-102295000D02*
X101540000Y-102295000D01*
X104140000Y-102295000D02*
X104140000Y-99635000D01*
X104140000Y-99635000D02*
X109280000Y-99635000D01*
X104140000Y-102295000D02*
X109280000Y-102295000D01*
X109280000Y-102295000D02*
X109280000Y-99635000D01*
X101540000Y-104835000D02*
X101540000Y-103505000D01*
X102870000Y-104835000D02*
X101540000Y-104835000D01*
X104140000Y-104835000D02*
X104140000Y-102175000D01*
X104140000Y-102175000D02*
X109280000Y-102175000D01*
X104140000Y-104835000D02*
X109280000Y-104835000D01*
X109280000Y-104835000D02*
X109280000Y-102175000D01*
X101540000Y-107375000D02*
X101540000Y-106045000D01*
X102870000Y-107375000D02*
X101540000Y-107375000D01*
X104140000Y-107375000D02*
X104140000Y-104715000D01*
X104140000Y-104715000D02*
X109280000Y-104715000D01*
X104140000Y-107375000D02*
X109280000Y-107375000D01*
X109280000Y-107375000D02*
X109280000Y-104715000D01*
X101540000Y-109915000D02*
X101540000Y-108585000D01*
X102870000Y-109915000D02*
X101540000Y-109915000D01*
X104140000Y-109915000D02*
X104140000Y-107255000D01*
X104140000Y-107255000D02*
X109280000Y-107255000D01*
X104140000Y-109915000D02*
X109280000Y-109915000D01*
X109280000Y-109915000D02*
X109280000Y-107255000D01*
X101540000Y-125155000D02*
X101540000Y-123825000D01*
X102870000Y-125155000D02*
X101540000Y-125155000D01*
X104140000Y-125155000D02*
X104140000Y-122495000D01*
X104140000Y-122495000D02*
X109280000Y-122495000D01*
X104140000Y-125155000D02*
X109280000Y-125155000D01*
X109280000Y-125155000D02*
X109280000Y-122495000D01*
X101540000Y-127695000D02*
X101540000Y-126365000D01*
X102870000Y-127695000D02*
X101540000Y-127695000D01*
X104140000Y-127695000D02*
X104140000Y-125035000D01*
X104140000Y-125035000D02*
X109280000Y-125035000D01*
X104140000Y-127695000D02*
X109280000Y-127695000D01*
X109280000Y-127695000D02*
X109280000Y-125035000D01*
X101540000Y-130235000D02*
X101540000Y-128905000D01*
X102870000Y-130235000D02*
X101540000Y-130235000D01*
X104140000Y-130235000D02*
X104140000Y-127575000D01*
X104140000Y-127575000D02*
X109280000Y-127575000D01*
X104140000Y-130235000D02*
X109280000Y-130235000D01*
X109280000Y-130235000D02*
X109280000Y-127575000D01*
X101540000Y-132775000D02*
X101540000Y-131445000D01*
X102870000Y-132775000D02*
X101540000Y-132775000D01*
X104140000Y-132775000D02*
X104140000Y-130115000D01*
X104140000Y-130115000D02*
X109280000Y-130115000D01*
X104140000Y-132775000D02*
X109280000Y-132775000D01*
X109280000Y-132775000D02*
X109280000Y-130115000D01*
D13*
X143259000Y-101347000D02*
G75*
G03X143259000Y-101347000I-125000J0D01*
G01*
D12*
X154193400Y-112572600D02*
X152943400Y-112572600D01*
X152593400Y-109522600D02*
X152593400Y-112422600D01*
X152043400Y-109522600D02*
X152593400Y-109522600D01*
X152043400Y-112422600D02*
X152043400Y-109522600D01*
X152593400Y-112422600D02*
X152043400Y-112422600D01*
D11*
X132625000Y-45600000D02*
X130775000Y-45600000D01*
X132625000Y-44400000D02*
X130775000Y-44400000D01*
X130775000Y-44400000D02*
X130775000Y-45600000D01*
X134000000Y-44425000D02*
X135850000Y-44425000D01*
X134000000Y-45625000D02*
X135850000Y-45625000D01*
X135850000Y-45625000D02*
X135850000Y-44425000D01*
X127227200Y-54141000D02*
X129777200Y-54141000D01*
X127227200Y-55841000D02*
X129777200Y-55841000D01*
X127227200Y-54141000D02*
X127227200Y-55841000D01*
X128636800Y-44408800D02*
X130486800Y-44408800D01*
X128636800Y-45608800D02*
X130486800Y-45608800D01*
X130486800Y-45608800D02*
X130486800Y-44408800D01*
X131990300Y-68556200D02*
X129705300Y-68556200D01*
X131990300Y-70026200D02*
X131990300Y-68556200D01*
X129705300Y-70026200D02*
X131990300Y-70026200D01*
X126696800Y-72860900D02*
X126696800Y-75145900D01*
X128166800Y-72860900D02*
X126696800Y-72860900D01*
X128166800Y-75145900D02*
X128166800Y-72860900D01*
X117666500Y-71118400D02*
X119951500Y-71118400D01*
X117666500Y-69648400D02*
X117666500Y-71118400D01*
X119951500Y-69648400D02*
X117666500Y-69648400D01*
X163968800Y-76227000D02*
X161683800Y-76227000D01*
X163968800Y-77697000D02*
X163968800Y-76227000D01*
X161683800Y-77697000D02*
X163968800Y-77697000D01*
X164847500Y-124933000D02*
X162997500Y-124933000D01*
X164847500Y-123733000D02*
X162997500Y-123733000D01*
X162997500Y-123733000D02*
X162997500Y-124933000D01*
X164847500Y-123409000D02*
X162997500Y-123409000D01*
X164847500Y-122209000D02*
X162997500Y-122209000D01*
X162997500Y-122209000D02*
X162997500Y-123409000D01*
X152820000Y-127645000D02*
X152820000Y-125095000D01*
X154520000Y-127645000D02*
X154520000Y-125095000D01*
X152820000Y-127645000D02*
X154520000Y-127645000D01*
X164846000Y-121885000D02*
X162996000Y-121885000D01*
X164846000Y-120685000D02*
X162996000Y-120685000D01*
X162996000Y-120685000D02*
X162996000Y-121885000D01*
X117829000Y-101472000D02*
X117829000Y-99187000D01*
X116359000Y-101472000D02*
X117829000Y-101472000D01*
X116359000Y-99187000D02*
X116359000Y-101472000D01*
X159093800Y-113447500D02*
X161378800Y-113447500D01*
X159093800Y-111977500D02*
X159093800Y-113447500D01*
X161378800Y-111977500D02*
X159093800Y-111977500D01*
X156904400Y-94274400D02*
X156904400Y-91989400D01*
X155434400Y-94274400D02*
X156904400Y-94274400D01*
X155434400Y-91989400D02*
X155434400Y-94274400D01*
X164362200Y-110090478D02*
X164362200Y-109573322D01*
X162942200Y-110090478D02*
X162942200Y-109573322D01*
X123501678Y-66295200D02*
X122984522Y-66295200D01*
X123501678Y-67715200D02*
X122984522Y-67715200D01*
X122000778Y-72899200D02*
X121483622Y-72899200D01*
X122000778Y-74319200D02*
X121483622Y-74319200D01*
X115010000Y-118290078D02*
X115010000Y-117772922D01*
X113590000Y-118290078D02*
X113590000Y-117772922D01*
X114606000Y-90899064D02*
X114606000Y-89694936D01*
X111886000Y-90899064D02*
X111886000Y-89694936D01*
X156239936Y-100351000D02*
X157444064Y-100351000D01*
X156239936Y-98531000D02*
X157444064Y-98531000D01*
X118035000Y-90902064D02*
X118035000Y-89697936D01*
X115315000Y-90902064D02*
X115315000Y-89697936D01*
X156239936Y-102891000D02*
X157444064Y-102891000D01*
X156239936Y-101071000D02*
X157444064Y-101071000D01*
X156239936Y-97811000D02*
X157444064Y-97811000D01*
X156239936Y-95991000D02*
X157444064Y-95991000D01*
X156239936Y-105431000D02*
X157444064Y-105431000D01*
X156239936Y-103611000D02*
X157444064Y-103611000D01*
X160323600Y-110113578D02*
X160323600Y-109596422D01*
X158903600Y-110113578D02*
X158903600Y-109596422D01*
X162355600Y-110090478D02*
X162355600Y-109573322D01*
X160935600Y-110090478D02*
X160935600Y-109573322D01*
X156928078Y-106097000D02*
X156410922Y-106097000D01*
X156928078Y-107517000D02*
X156410922Y-107517000D01*
X156925778Y-108078200D02*
X156408622Y-108078200D01*
X156925778Y-109498200D02*
X156408622Y-109498200D01*
X122350001Y-65160001D02*
X124150001Y-65160001D01*
X124150001Y-61940001D02*
X121700001Y-61940001D01*
M02*
