G04 #@! TF.GenerationSoftware,KiCad,Pcbnew,5.1.5-52549c5~84~ubuntu18.04.1*
G04 #@! TF.CreationDate,2020-03-29T19:49:40-04:00*
G04 #@! TF.ProjectId,SmallKat v2,536d616c-6c4b-4617-9420-76322e6b6963,rev?*
G04 #@! TF.SameCoordinates,Original*
G04 #@! TF.FileFunction,Legend,Top*
G04 #@! TF.FilePolarity,Positive*
%FSLAX46Y46*%
G04 Gerber Fmt 4.6, Leading zero omitted, Abs format (unit mm)*
G04 Created by KiCad (PCBNEW 5.1.5-52549c5~84~ubuntu18.04.1) date 2020-03-29 19:49:40*
%MOMM*%
%LPD*%
G04 APERTURE LIST*
%ADD10C,0.120000*%
%ADD11C,0.254000*%
%ADD12C,0.100000*%
%ADD13C,0.150000*%
%ADD14C,0.200000*%
G04 APERTURE END LIST*
D10*
X111856760Y-116719360D02*
X112236760Y-116719360D01*
X111856760Y-123139360D02*
X111856760Y-116719360D01*
X93616760Y-123139360D02*
X93616760Y-116719360D01*
X111856760Y-123139360D02*
X93616760Y-123139360D01*
X93616760Y-97394360D02*
X94616760Y-97394360D01*
X93616760Y-98174360D02*
X93616760Y-97394360D01*
X111856760Y-97394360D02*
X110856760Y-97394360D01*
X111856760Y-98174360D02*
X111856760Y-97394360D01*
X121664400Y-121030100D02*
X121664400Y-118745100D01*
X120194400Y-121030100D02*
X121664400Y-121030100D01*
X120194400Y-118745100D02*
X120194400Y-121030100D01*
X147885400Y-81761200D02*
X139185400Y-81761200D01*
D11*
X156042700Y-96005100D02*
G75*
G03X156042700Y-96005100I-162500J0D01*
G01*
X146797100Y-124770600D02*
G75*
G03X146797100Y-124770600I-162500J0D01*
G01*
X86674500Y-129280200D02*
G75*
G03X86674500Y-129280200I-162500J0D01*
G01*
X87442300Y-115516300D02*
G75*
G03X87442300Y-115516300I-162500J0D01*
G01*
X86280800Y-95485500D02*
G75*
G03X86280800Y-95485500I-162500J0D01*
G01*
D10*
X135093640Y-98692442D02*
X135093640Y-99209598D01*
X136513640Y-98692442D02*
X136513640Y-99209598D01*
X136090922Y-96976000D02*
X136608078Y-96976000D01*
X136090922Y-95556000D02*
X136608078Y-95556000D01*
X136075682Y-102376040D02*
X136592838Y-102376040D01*
X136075682Y-100956040D02*
X136592838Y-100956040D01*
X118750000Y-97110000D02*
X121750000Y-97110000D01*
X120250000Y-93890000D02*
X121750000Y-93890000D01*
X126647936Y-91290000D02*
X127852064Y-91290000D01*
X126647936Y-89470000D02*
X127852064Y-89470000D01*
X126647936Y-93530000D02*
X127852064Y-93530000D01*
X126647936Y-91710000D02*
X127852064Y-91710000D01*
X94960000Y-85662064D02*
X94960000Y-84457936D01*
X92240000Y-85662064D02*
X92240000Y-84457936D01*
X98170000Y-85662064D02*
X98170000Y-84457936D01*
X95450000Y-85662064D02*
X95450000Y-84457936D01*
D12*
X125500000Y-87000000D02*
X115300000Y-87000000D01*
X125500000Y-81800000D02*
X125500000Y-87000000D01*
X115300000Y-81800000D02*
X125500000Y-81800000D01*
X115300000Y-87000000D02*
X115300000Y-81800000D01*
D13*
X137112200Y-121248800D02*
X138212200Y-122348800D01*
X138212200Y-121248800D02*
X138212200Y-126248800D01*
X138212200Y-126248800D02*
X133212200Y-126248800D01*
X133212200Y-126248800D02*
X133212200Y-121248800D01*
X133212200Y-121248800D02*
X138212200Y-121248800D01*
D10*
X119825000Y-114275000D02*
X118475000Y-114275000D01*
X119825000Y-112525000D02*
X118475000Y-112525000D01*
X160840000Y-88675000D02*
X160840000Y-88200000D01*
X156620000Y-92420000D02*
X157095000Y-92420000D01*
X156620000Y-91945000D02*
X156620000Y-92420000D01*
X156620000Y-88200000D02*
X157095000Y-88200000D01*
X156620000Y-88675000D02*
X156620000Y-88200000D01*
X160840000Y-92420000D02*
X160365000Y-92420000D01*
X160840000Y-91945000D02*
X160840000Y-92420000D01*
X145243680Y-102012320D02*
X145793680Y-102012320D01*
X141573680Y-97792320D02*
X141573680Y-98342320D01*
X142123680Y-97792320D02*
X141573680Y-97792320D01*
X145793680Y-97792320D02*
X145793680Y-98342320D01*
X145243680Y-97792320D02*
X145793680Y-97792320D01*
X141573680Y-102012320D02*
X141573680Y-101462320D01*
X142123680Y-102012320D02*
X141573680Y-102012320D01*
X149554480Y-85480900D02*
X149554480Y-85705900D01*
X152274480Y-82985900D02*
X151799480Y-82985900D01*
X152274480Y-83210900D02*
X152274480Y-82985900D01*
X152274480Y-85705900D02*
X151799480Y-85705900D01*
X152274480Y-85480900D02*
X152274480Y-85705900D01*
X149554480Y-82985900D02*
X150029480Y-82985900D01*
X149554480Y-83210900D02*
X149554480Y-82985900D01*
X123118100Y-120955300D02*
X122643100Y-120955300D01*
X127863100Y-126175300D02*
X127863100Y-125700300D01*
X127388100Y-126175300D02*
X127863100Y-126175300D01*
X122643100Y-126175300D02*
X122643100Y-125700300D01*
X123118100Y-126175300D02*
X122643100Y-126175300D01*
X127863100Y-120955300D02*
X127863100Y-121430300D01*
X127388100Y-120955300D02*
X127863100Y-120955300D01*
X123417200Y-113010800D02*
X122942200Y-113010800D01*
X128162200Y-118230800D02*
X128162200Y-117755800D01*
X127687200Y-118230800D02*
X128162200Y-118230800D01*
X122942200Y-118230800D02*
X122942200Y-117755800D01*
X123417200Y-118230800D02*
X122942200Y-118230800D01*
X128162200Y-113010800D02*
X128162200Y-113485800D01*
X127687200Y-113010800D02*
X128162200Y-113010800D01*
X136783320Y-90306420D02*
X137258320Y-90306420D01*
X133038320Y-86086420D02*
X133038320Y-86561420D01*
X133513320Y-86086420D02*
X133038320Y-86086420D01*
X137258320Y-86086420D02*
X137258320Y-86561420D01*
X136783320Y-86086420D02*
X137258320Y-86086420D01*
X133038320Y-90306420D02*
X133038320Y-89831420D01*
X133513320Y-90306420D02*
X133038320Y-90306420D01*
X120860000Y-107790000D02*
X120600000Y-107790000D01*
X120860000Y-107790000D02*
X120860000Y-108050000D01*
X120860000Y-111810000D02*
X120600000Y-111810000D01*
X115440000Y-107790000D02*
X115700000Y-107790000D01*
X115440000Y-107790000D02*
X115440000Y-108050000D01*
X115440000Y-111810000D02*
X115700000Y-111810000D01*
X115440000Y-111810000D02*
X115440000Y-111550000D01*
X112069800Y-137252900D02*
X112069800Y-137352900D01*
X115309800Y-137252900D02*
X115309800Y-137352900D01*
X112069800Y-137352900D02*
X115309800Y-137352900D01*
X112069800Y-135112900D02*
X112069800Y-135212900D01*
X115309800Y-135112900D02*
X115309800Y-135212900D01*
X112069800Y-135112900D02*
X115309800Y-135112900D01*
X130817000Y-115840000D02*
X130817000Y-115940000D01*
X134057000Y-115840000D02*
X134057000Y-115940000D01*
X130817000Y-115940000D02*
X134057000Y-115940000D01*
X130817000Y-113700000D02*
X130817000Y-113800000D01*
X134057000Y-113700000D02*
X134057000Y-113800000D01*
X130817000Y-113700000D02*
X134057000Y-113700000D01*
X130817000Y-113300000D02*
X130817000Y-113400000D01*
X134057000Y-113300000D02*
X134057000Y-113400000D01*
X130817000Y-113400000D02*
X134057000Y-113400000D01*
X130817000Y-111160000D02*
X130817000Y-111260000D01*
X134057000Y-111160000D02*
X134057000Y-111260000D01*
X130817000Y-111160000D02*
X134057000Y-111160000D01*
X155440000Y-86362779D02*
X155440000Y-86037221D01*
X154420000Y-86362779D02*
X154420000Y-86037221D01*
X156829979Y-117079300D02*
X156504421Y-117079300D01*
X156829979Y-118099300D02*
X156504421Y-118099300D01*
X79364621Y-113616200D02*
X79690179Y-113616200D01*
X79364621Y-112596200D02*
X79690179Y-112596200D01*
X156804679Y-119632000D02*
X156479121Y-119632000D01*
X156804679Y-120652000D02*
X156479121Y-120652000D01*
X79377321Y-111025400D02*
X79702879Y-111025400D01*
X79377321Y-110005400D02*
X79702879Y-110005400D01*
X156817279Y-122197400D02*
X156491721Y-122197400D01*
X156817279Y-123217400D02*
X156491721Y-123217400D01*
X79351821Y-108523500D02*
X79677379Y-108523500D01*
X79351821Y-107503500D02*
X79677379Y-107503500D01*
X156855379Y-125131100D02*
X156529821Y-125131100D01*
X156855379Y-126151100D02*
X156529821Y-126151100D01*
X79351821Y-105412000D02*
X79677379Y-105412000D01*
X79351821Y-104392000D02*
X79677379Y-104392000D01*
X79377221Y-129491200D02*
X79702779Y-129491200D01*
X79377221Y-128471200D02*
X79702779Y-128471200D01*
X79339221Y-100357400D02*
X79664779Y-100357400D01*
X79339221Y-99337400D02*
X79664779Y-99337400D01*
X79377321Y-126748000D02*
X79702879Y-126748000D01*
X79377321Y-125728000D02*
X79702879Y-125728000D01*
X79364621Y-97842800D02*
X79690179Y-97842800D01*
X79364621Y-96822800D02*
X79690179Y-96822800D01*
X79402621Y-124208000D02*
X79728179Y-124208000D01*
X79402621Y-123188000D02*
X79728179Y-123188000D01*
X79364521Y-95252000D02*
X79690079Y-95252000D01*
X79364521Y-94232000D02*
X79690079Y-94232000D01*
X79389921Y-121655300D02*
X79715479Y-121655300D01*
X79389921Y-120635300D02*
X79715479Y-120635300D01*
X79351821Y-92026200D02*
X79677379Y-92026200D01*
X79351821Y-91006200D02*
X79677379Y-91006200D01*
X149618160Y-102438319D02*
X149618160Y-102112761D01*
X148598160Y-102438319D02*
X148598160Y-102112761D01*
X157980000Y-86360279D02*
X157980000Y-86034721D01*
X156960000Y-86360279D02*
X156960000Y-86034721D01*
X159710000Y-86365279D02*
X159710000Y-86039721D01*
X158690000Y-86365279D02*
X158690000Y-86039721D01*
X156817379Y-103947500D02*
X156491821Y-103947500D01*
X156817379Y-104967500D02*
X156491821Y-104967500D01*
X156817279Y-108938600D02*
X156491721Y-108938600D01*
X156817279Y-109958600D02*
X156491721Y-109958600D01*
X156842679Y-106385900D02*
X156517121Y-106385900D01*
X156842679Y-107405900D02*
X156517121Y-107405900D01*
X156817179Y-112024700D02*
X156491621Y-112024700D01*
X156817179Y-113044700D02*
X156491621Y-113044700D01*
X162179721Y-86000000D02*
X162505279Y-86000000D01*
X162179721Y-84980000D02*
X162505279Y-84980000D01*
X164354721Y-87490000D02*
X164680279Y-87490000D01*
X164354721Y-86470000D02*
X164680279Y-86470000D01*
X135674520Y-94581240D02*
X134944520Y-94581240D01*
X134944520Y-94876240D02*
X134944520Y-94581240D01*
X132104520Y-94876240D02*
X134944520Y-94876240D01*
X132104520Y-94581240D02*
X132104520Y-94876240D01*
X132104520Y-91336240D02*
X132104520Y-91631240D01*
X134944520Y-91336240D02*
X132104520Y-91336240D01*
X134944520Y-91631240D02*
X134944520Y-91336240D01*
X140641600Y-106129540D02*
X140641600Y-106859540D01*
X140936600Y-106859540D02*
X140641600Y-106859540D01*
X140936600Y-109699540D02*
X140936600Y-106859540D01*
X140641600Y-109699540D02*
X140936600Y-109699540D01*
X137396600Y-109699540D02*
X137691600Y-109699540D01*
X137396600Y-106859540D02*
X137396600Y-109699540D01*
X137691600Y-106859540D02*
X137396600Y-106859540D01*
X141514300Y-110016840D02*
X141514300Y-109286840D01*
X141219300Y-109286840D02*
X141514300Y-109286840D01*
X141219300Y-106446840D02*
X141219300Y-109286840D01*
X141514300Y-106446840D02*
X141219300Y-106446840D01*
X144759300Y-106446840D02*
X144464300Y-106446840D01*
X144759300Y-109286840D02*
X144759300Y-106446840D01*
X144464300Y-109286840D02*
X144759300Y-109286840D01*
X153788640Y-96617240D02*
X153788640Y-97347240D01*
X154083640Y-97347240D02*
X153788640Y-97347240D01*
X154083640Y-100187240D02*
X154083640Y-97347240D01*
X153788640Y-100187240D02*
X154083640Y-100187240D01*
X150543640Y-100187240D02*
X150838640Y-100187240D01*
X150543640Y-97347240D02*
X150543640Y-100187240D01*
X150838640Y-97347240D02*
X150543640Y-97347240D01*
X150828360Y-96091720D02*
X150828360Y-95361720D01*
X150533360Y-95361720D02*
X150828360Y-95361720D01*
X150533360Y-92521720D02*
X150533360Y-95361720D01*
X150828360Y-92521720D02*
X150533360Y-92521720D01*
X154073360Y-92521720D02*
X153778360Y-92521720D01*
X154073360Y-95361720D02*
X154073360Y-92521720D01*
X153778360Y-95361720D02*
X154073360Y-95361720D01*
X133690900Y-120972700D02*
X132230900Y-120972700D01*
X133690900Y-117812700D02*
X131530900Y-117812700D01*
X133690900Y-117812700D02*
X133690900Y-118742700D01*
X133690900Y-120972700D02*
X133690900Y-120042700D01*
X131380000Y-110583200D02*
X132780000Y-110583200D01*
X132780000Y-108263200D02*
X130880000Y-108263200D01*
X114910000Y-92140000D02*
X114910000Y-89010000D01*
X118510000Y-91470000D02*
X118510000Y-89010000D01*
X118760000Y-88480000D02*
X121890000Y-88480000D01*
X119430000Y-92080000D02*
X121890000Y-92080000D01*
X136743240Y-105010560D02*
X136743240Y-104610560D01*
X133543240Y-105010560D02*
X133543240Y-104610560D01*
X121959440Y-105155498D02*
X121959440Y-104638342D01*
X120539440Y-105155498D02*
X120539440Y-104638342D01*
X111690000Y-94850000D02*
X100190000Y-94850000D01*
X112390000Y-94200000D02*
X112390000Y-91250000D01*
X100190000Y-82050000D02*
X111690000Y-82050000D01*
X99490000Y-94150000D02*
X99490000Y-91250000D01*
X112390000Y-85650000D02*
X112390000Y-82750000D01*
X99490000Y-85650000D02*
X99490000Y-82750000D01*
X112390000Y-94150000D02*
G75*
G02X111690000Y-94850000I-700000J0D01*
G01*
X111690000Y-82050000D02*
G75*
G02X112390000Y-82750000I0J-700000D01*
G01*
X99490000Y-82750000D02*
G75*
G02X100190000Y-82050000I700000J0D01*
G01*
X100190000Y-94850000D02*
G75*
G02X99490000Y-94150000I0J700000D01*
G01*
X127255200Y-101222282D02*
X127255200Y-101739438D01*
X128675200Y-101222282D02*
X128675200Y-101739438D01*
X158690000Y-104454000D02*
X158690000Y-103124000D01*
X160020000Y-104454000D02*
X158690000Y-104454000D01*
X161290000Y-104454000D02*
X161290000Y-101794000D01*
X161290000Y-101794000D02*
X166430000Y-101794000D01*
X161290000Y-104454000D02*
X166430000Y-104454000D01*
X166430000Y-104454000D02*
X166430000Y-101794000D01*
X158690000Y-109534000D02*
X158690000Y-108204000D01*
X160020000Y-109534000D02*
X158690000Y-109534000D01*
X161290000Y-109534000D02*
X161290000Y-106874000D01*
X161290000Y-106874000D02*
X166430000Y-106874000D01*
X161290000Y-109534000D02*
X166430000Y-109534000D01*
X166430000Y-109534000D02*
X166430000Y-106874000D01*
X158690000Y-106994000D02*
X158690000Y-105664000D01*
X160020000Y-106994000D02*
X158690000Y-106994000D01*
X161290000Y-106994000D02*
X161290000Y-104334000D01*
X161290000Y-104334000D02*
X166430000Y-104334000D01*
X161290000Y-106994000D02*
X166430000Y-106994000D01*
X166430000Y-106994000D02*
X166430000Y-104334000D01*
X158690000Y-112074000D02*
X158690000Y-110744000D01*
X160020000Y-112074000D02*
X158690000Y-112074000D01*
X161290000Y-112074000D02*
X161290000Y-109414000D01*
X161290000Y-109414000D02*
X166430000Y-109414000D01*
X161290000Y-112074000D02*
X166430000Y-112074000D01*
X166430000Y-112074000D02*
X166430000Y-109414000D01*
X158690000Y-117662000D02*
X158690000Y-116332000D01*
X160020000Y-117662000D02*
X158690000Y-117662000D01*
X161290000Y-117662000D02*
X161290000Y-115002000D01*
X161290000Y-115002000D02*
X166430000Y-115002000D01*
X161290000Y-117662000D02*
X166430000Y-117662000D01*
X166430000Y-117662000D02*
X166430000Y-115002000D01*
X77530000Y-112970000D02*
X77530000Y-114300000D01*
X76200000Y-112970000D02*
X77530000Y-112970000D01*
X74930000Y-112970000D02*
X74930000Y-115630000D01*
X74930000Y-115630000D02*
X69790000Y-115630000D01*
X74930000Y-112970000D02*
X69790000Y-112970000D01*
X69790000Y-112970000D02*
X69790000Y-115630000D01*
X158690000Y-120202000D02*
X158690000Y-118872000D01*
X160020000Y-120202000D02*
X158690000Y-120202000D01*
X161290000Y-120202000D02*
X161290000Y-117542000D01*
X161290000Y-117542000D02*
X166430000Y-117542000D01*
X161290000Y-120202000D02*
X166430000Y-120202000D01*
X166430000Y-120202000D02*
X166430000Y-117542000D01*
X77530000Y-110430000D02*
X77530000Y-111760000D01*
X76200000Y-110430000D02*
X77530000Y-110430000D01*
X74930000Y-110430000D02*
X74930000Y-113090000D01*
X74930000Y-113090000D02*
X69790000Y-113090000D01*
X74930000Y-110430000D02*
X69790000Y-110430000D01*
X69790000Y-110430000D02*
X69790000Y-113090000D01*
X158690000Y-122742000D02*
X158690000Y-121412000D01*
X160020000Y-122742000D02*
X158690000Y-122742000D01*
X161290000Y-122742000D02*
X161290000Y-120082000D01*
X161290000Y-120082000D02*
X166430000Y-120082000D01*
X161290000Y-122742000D02*
X166430000Y-122742000D01*
X166430000Y-122742000D02*
X166430000Y-120082000D01*
X77530000Y-107890000D02*
X77530000Y-109220000D01*
X76200000Y-107890000D02*
X77530000Y-107890000D01*
X74930000Y-107890000D02*
X74930000Y-110550000D01*
X74930000Y-110550000D02*
X69790000Y-110550000D01*
X74930000Y-107890000D02*
X69790000Y-107890000D01*
X69790000Y-107890000D02*
X69790000Y-110550000D01*
X158690000Y-125282000D02*
X158690000Y-123952000D01*
X160020000Y-125282000D02*
X158690000Y-125282000D01*
X161290000Y-125282000D02*
X161290000Y-122622000D01*
X161290000Y-122622000D02*
X166430000Y-122622000D01*
X161290000Y-125282000D02*
X166430000Y-125282000D01*
X166430000Y-125282000D02*
X166430000Y-122622000D01*
X77530000Y-105350000D02*
X77530000Y-106680000D01*
X76200000Y-105350000D02*
X77530000Y-105350000D01*
X74930000Y-105350000D02*
X74930000Y-108010000D01*
X74930000Y-108010000D02*
X69790000Y-108010000D01*
X74930000Y-105350000D02*
X69790000Y-105350000D01*
X69790000Y-105350000D02*
X69790000Y-108010000D01*
X77530000Y-126178000D02*
X77530000Y-127508000D01*
X76200000Y-126178000D02*
X77530000Y-126178000D01*
X74930000Y-126178000D02*
X74930000Y-128838000D01*
X74930000Y-128838000D02*
X69790000Y-128838000D01*
X74930000Y-126178000D02*
X69790000Y-126178000D01*
X69790000Y-126178000D02*
X69790000Y-128838000D01*
X77530000Y-99762000D02*
X77530000Y-101092000D01*
X76200000Y-99762000D02*
X77530000Y-99762000D01*
X74930000Y-99762000D02*
X74930000Y-102422000D01*
X74930000Y-102422000D02*
X69790000Y-102422000D01*
X74930000Y-99762000D02*
X69790000Y-99762000D01*
X69790000Y-99762000D02*
X69790000Y-102422000D01*
X77530000Y-123638000D02*
X77530000Y-124968000D01*
X76200000Y-123638000D02*
X77530000Y-123638000D01*
X74930000Y-123638000D02*
X74930000Y-126298000D01*
X74930000Y-126298000D02*
X69790000Y-126298000D01*
X74930000Y-123638000D02*
X69790000Y-123638000D01*
X69790000Y-123638000D02*
X69790000Y-126298000D01*
X77530000Y-97222000D02*
X77530000Y-98552000D01*
X76200000Y-97222000D02*
X77530000Y-97222000D01*
X74930000Y-97222000D02*
X74930000Y-99882000D01*
X74930000Y-99882000D02*
X69790000Y-99882000D01*
X74930000Y-97222000D02*
X69790000Y-97222000D01*
X69790000Y-97222000D02*
X69790000Y-99882000D01*
X77530000Y-121098000D02*
X77530000Y-122428000D01*
X76200000Y-121098000D02*
X77530000Y-121098000D01*
X74930000Y-121098000D02*
X74930000Y-123758000D01*
X74930000Y-123758000D02*
X69790000Y-123758000D01*
X74930000Y-121098000D02*
X69790000Y-121098000D01*
X69790000Y-121098000D02*
X69790000Y-123758000D01*
X77530000Y-94682000D02*
X77530000Y-96012000D01*
X76200000Y-94682000D02*
X77530000Y-94682000D01*
X74930000Y-94682000D02*
X74930000Y-97342000D01*
X74930000Y-97342000D02*
X69790000Y-97342000D01*
X74930000Y-94682000D02*
X69790000Y-94682000D01*
X69790000Y-94682000D02*
X69790000Y-97342000D01*
X77530000Y-118558000D02*
X77530000Y-119888000D01*
X76200000Y-118558000D02*
X77530000Y-118558000D01*
X74930000Y-118558000D02*
X74930000Y-121218000D01*
X74930000Y-121218000D02*
X69790000Y-121218000D01*
X74930000Y-118558000D02*
X69790000Y-118558000D01*
X69790000Y-118558000D02*
X69790000Y-121218000D01*
X77530000Y-92142000D02*
X77530000Y-93472000D01*
X76200000Y-92142000D02*
X77530000Y-92142000D01*
X74930000Y-92142000D02*
X74930000Y-94802000D01*
X74930000Y-94802000D02*
X69790000Y-94802000D01*
X74930000Y-92142000D02*
X69790000Y-92142000D01*
X69790000Y-92142000D02*
X69790000Y-94802000D01*
X117405400Y-105241960D02*
X119855400Y-105241960D01*
X119205400Y-102021960D02*
X117405400Y-102021960D01*
X128973220Y-106233800D02*
X128973220Y-103783800D01*
X125753220Y-104433800D02*
X125753220Y-106233800D01*
D11*
X151042830Y-107058100D02*
G75*
G03X151042830Y-107058100I-106630J0D01*
G01*
D14*
X148564200Y-108340100D02*
X148564200Y-118070100D01*
X153594200Y-108340100D02*
X153594200Y-118070100D01*
D11*
X151404630Y-132445000D02*
G75*
G03X151404630Y-132445000I-106630J0D01*
G01*
D14*
X150016000Y-130073000D02*
X140286000Y-130073000D01*
X150016000Y-135103000D02*
X140286000Y-135103000D01*
D11*
X86895930Y-134273800D02*
G75*
G03X86895930Y-134273800I-106630J0D01*
G01*
D14*
X85507300Y-131901800D02*
X75777300Y-131901800D01*
X85507300Y-136931800D02*
X75777300Y-136931800D01*
D11*
X84831630Y-110449400D02*
G75*
G03X84831630Y-110449400I-106630J0D01*
G01*
D14*
X87097000Y-109167400D02*
X87097000Y-99437400D01*
X82067000Y-109167400D02*
X82067000Y-99437400D01*
D11*
X76392630Y-85995000D02*
G75*
G03X76392630Y-85995000I-106630J0D01*
G01*
D14*
X77568000Y-88367000D02*
X87298000Y-88367000D01*
X77568000Y-83337000D02*
X87298000Y-83337000D01*
D10*
X151956400Y-132142800D02*
X151956400Y-134427800D01*
X153426400Y-132142800D02*
X151956400Y-132142800D01*
X153426400Y-134427800D02*
X153426400Y-132142800D01*
X88253900Y-133655600D02*
X88253900Y-135940600D01*
X89723900Y-133655600D02*
X88253900Y-133655600D01*
X89723900Y-135940600D02*
X89723900Y-133655600D01*
X88304700Y-104407500D02*
X88304700Y-106692500D01*
X89774700Y-104407500D02*
X88304700Y-104407500D01*
X89774700Y-106692500D02*
X89774700Y-104407500D01*
X75601500Y-91324900D02*
X75601500Y-89039900D01*
X74131500Y-91324900D02*
X75601500Y-91324900D01*
X74131500Y-89039900D02*
X74131500Y-91324900D01*
X126023000Y-111453600D02*
X128308000Y-111453600D01*
X126023000Y-109983600D02*
X126023000Y-111453600D01*
X128308000Y-109983600D02*
X126023000Y-109983600D01*
X145323300Y-109409900D02*
X147608300Y-109409900D01*
X145323300Y-107939900D02*
X145323300Y-109409900D01*
X147608300Y-107939900D02*
X145323300Y-107939900D01*
X136185200Y-83183500D02*
X136185200Y-85033500D01*
X134985200Y-83183500D02*
X134985200Y-85033500D01*
X134985200Y-85033500D02*
X136185200Y-85033500D01*
X137607600Y-83183500D02*
X137607600Y-85033500D01*
X136407600Y-83183500D02*
X136407600Y-85033500D01*
X136407600Y-85033500D02*
X137607600Y-85033500D01*
X152608400Y-87290000D02*
X152608400Y-88750000D01*
X149448400Y-87290000D02*
X149448400Y-89450000D01*
X149448400Y-87290000D02*
X150378400Y-87290000D01*
X152608400Y-87290000D02*
X151678400Y-87290000D01*
X98982600Y-91459900D02*
X96697600Y-91459900D01*
X98982600Y-92929900D02*
X98982600Y-91459900D01*
X96697600Y-92929900D02*
X98982600Y-92929900D01*
X129681300Y-97740100D02*
X129681300Y-100025100D01*
X131151300Y-97740100D02*
X129681300Y-97740100D01*
X131151300Y-100025100D02*
X131151300Y-97740100D01*
X124665900Y-93930000D02*
X124665900Y-91645000D01*
X123195900Y-93930000D02*
X124665900Y-93930000D01*
X123195900Y-91645000D02*
X123195900Y-93930000D01*
X90171600Y-113805600D02*
X90171600Y-116090600D01*
X91641600Y-113805600D02*
X90171600Y-113805600D01*
X91641600Y-116090600D02*
X91641600Y-113805600D01*
X133199398Y-97161280D02*
X132682242Y-97161280D01*
X133199398Y-98581280D02*
X132682242Y-98581280D01*
X133181858Y-95220720D02*
X132664702Y-95220720D01*
X133181858Y-96640720D02*
X132664702Y-96640720D01*
X133189238Y-99066280D02*
X132672082Y-99066280D01*
X133189238Y-100486280D02*
X132672082Y-100486280D01*
X133181858Y-100961120D02*
X132664702Y-100961120D01*
X133181858Y-102381120D02*
X132664702Y-102381120D01*
X141383278Y-104115800D02*
X140866122Y-104115800D01*
X141383278Y-105535800D02*
X140866122Y-105535800D01*
X147192258Y-103945620D02*
X146675102Y-103945620D01*
X147192258Y-105365620D02*
X146675102Y-105365620D01*
X150097560Y-93992438D02*
X150097560Y-93475282D01*
X148677560Y-93992438D02*
X148677560Y-93475282D01*
X123596902Y-107626220D02*
X124114058Y-107626220D01*
X123596902Y-106206220D02*
X124114058Y-106206220D01*
X123594602Y-109543920D02*
X124111758Y-109543920D01*
X123594602Y-108123920D02*
X124111758Y-108123920D01*
X125049542Y-101060320D02*
X125566698Y-101060320D01*
X125049542Y-99640320D02*
X125566698Y-99640320D01*
X113996400Y-114701822D02*
X113996400Y-115218978D01*
X115416400Y-114701822D02*
X115416400Y-115218978D01*
X122203978Y-101565640D02*
X121686822Y-101565640D01*
X122203978Y-102985640D02*
X121686822Y-102985640D01*
X126637936Y-98070000D02*
X127842064Y-98070000D01*
X126637936Y-96250000D02*
X127842064Y-96250000D01*
X126637936Y-95780000D02*
X127842064Y-95780000D01*
X126637936Y-93960000D02*
X127842064Y-93960000D01*
X131125462Y-104372480D02*
X131642618Y-104372480D01*
X131125462Y-102952480D02*
X131642618Y-102952480D01*
X131137922Y-106297800D02*
X131655078Y-106297800D01*
X131137922Y-104877800D02*
X131655078Y-104877800D01*
X125059942Y-102965320D02*
X125577098Y-102965320D01*
X125059942Y-101545320D02*
X125577098Y-101545320D01*
X122201198Y-99670800D02*
X121684042Y-99670800D01*
X122201198Y-101090800D02*
X121684042Y-101090800D01*
M02*
