G04 #@! TF.GenerationSoftware,KiCad,Pcbnew,5.1.5-52549c5~84~ubuntu18.04.1*
G04 #@! TF.CreationDate,2020-03-29T19:49:40-04:00*
G04 #@! TF.ProjectId,SmallKat v2,536d616c-6c4b-4617-9420-76322e6b6963,rev?*
G04 #@! TF.SameCoordinates,Original*
G04 #@! TF.FileFunction,Soldermask,Bot*
G04 #@! TF.FilePolarity,Negative*
%FSLAX46Y46*%
G04 Gerber Fmt 4.6, Leading zero omitted, Abs format (unit mm)*
G04 Created by KiCad (PCBNEW 5.1.5-52549c5~84~ubuntu18.04.1) date 2020-03-29 19:49:40*
%MOMM*%
%LPD*%
G04 APERTURE LIST*
%ADD10C,0.100000*%
G04 APERTURE END LIST*
D10*
G36*
X130286694Y-131751860D02*
G01*
X130552437Y-131804719D01*
X131053087Y-132012095D01*
X131193046Y-132105613D01*
X131503660Y-132313158D01*
X131886842Y-132696340D01*
X132050851Y-132941798D01*
X132187905Y-133146913D01*
X132395281Y-133647563D01*
X132395281Y-133647564D01*
X132501000Y-134179049D01*
X132501000Y-134720951D01*
X132465186Y-134901000D01*
X132395281Y-135252437D01*
X132187905Y-135753087D01*
X132152830Y-135805580D01*
X131886842Y-136203660D01*
X131503660Y-136586842D01*
X131288503Y-136730605D01*
X131053087Y-136887905D01*
X130552437Y-137095281D01*
X130286693Y-137148141D01*
X130020951Y-137201000D01*
X129479049Y-137201000D01*
X129213307Y-137148141D01*
X128947563Y-137095281D01*
X128446913Y-136887905D01*
X128211497Y-136730605D01*
X127996340Y-136586842D01*
X127613158Y-136203660D01*
X127347170Y-135805580D01*
X127312095Y-135753087D01*
X127104719Y-135252437D01*
X127034814Y-134901000D01*
X126999000Y-134720951D01*
X126999000Y-134179049D01*
X127104719Y-133647564D01*
X127104719Y-133647563D01*
X127312095Y-133146913D01*
X127449149Y-132941798D01*
X127613158Y-132696340D01*
X127996340Y-132313158D01*
X128306954Y-132105613D01*
X128446913Y-132012095D01*
X128947563Y-131804719D01*
X129213306Y-131751860D01*
X129479049Y-131699000D01*
X130020951Y-131699000D01*
X130286694Y-131751860D01*
G37*
G36*
X72268584Y-131719968D02*
G01*
X72534328Y-131772828D01*
X73034978Y-131980204D01*
X73176380Y-132074686D01*
X73485551Y-132281267D01*
X73868733Y-132664449D01*
X74010086Y-132876000D01*
X74169796Y-133115022D01*
X74377172Y-133615672D01*
X74377172Y-133615673D01*
X74482891Y-134147158D01*
X74482891Y-134689060D01*
X74447077Y-134869109D01*
X74377172Y-135220546D01*
X74169796Y-135721196D01*
X74148487Y-135753087D01*
X73868733Y-136171769D01*
X73485551Y-136554951D01*
X73285487Y-136688629D01*
X73034978Y-136856014D01*
X72534328Y-137063390D01*
X72268584Y-137116250D01*
X72002842Y-137169109D01*
X71460940Y-137169109D01*
X71195198Y-137116250D01*
X70929454Y-137063390D01*
X70428804Y-136856014D01*
X70178295Y-136688629D01*
X69978231Y-136554951D01*
X69595049Y-136171769D01*
X69315295Y-135753087D01*
X69293986Y-135721196D01*
X69086610Y-135220546D01*
X69016705Y-134869109D01*
X68980891Y-134689060D01*
X68980891Y-134147158D01*
X69086610Y-133615673D01*
X69086610Y-133615672D01*
X69293986Y-133115022D01*
X69453696Y-132876000D01*
X69595049Y-132664449D01*
X69978231Y-132281267D01*
X70287402Y-132074686D01*
X70428804Y-131980204D01*
X70929454Y-131772828D01*
X71195198Y-131719968D01*
X71460940Y-131667109D01*
X72002842Y-131667109D01*
X72268584Y-131719968D01*
G37*
G36*
X73773512Y-126611927D02*
G01*
X73922812Y-126641624D01*
X74086784Y-126709544D01*
X74234354Y-126808147D01*
X74359853Y-126933646D01*
X74458456Y-127081216D01*
X74526376Y-127245188D01*
X74561000Y-127419259D01*
X74561000Y-127596741D01*
X74526376Y-127770812D01*
X74458456Y-127934784D01*
X74359853Y-128082354D01*
X74234354Y-128207853D01*
X74086784Y-128306456D01*
X73922812Y-128374376D01*
X73773512Y-128404073D01*
X73748742Y-128409000D01*
X73571258Y-128409000D01*
X73546488Y-128404073D01*
X73397188Y-128374376D01*
X73233216Y-128306456D01*
X73085646Y-128207853D01*
X72960147Y-128082354D01*
X72861544Y-127934784D01*
X72793624Y-127770812D01*
X72759000Y-127596741D01*
X72759000Y-127419259D01*
X72793624Y-127245188D01*
X72861544Y-127081216D01*
X72960147Y-126933646D01*
X73085646Y-126808147D01*
X73233216Y-126709544D01*
X73397188Y-126641624D01*
X73546488Y-126611927D01*
X73571258Y-126607000D01*
X73748742Y-126607000D01*
X73773512Y-126611927D01*
G37*
G36*
X71233512Y-126611927D02*
G01*
X71382812Y-126641624D01*
X71546784Y-126709544D01*
X71694354Y-126808147D01*
X71819853Y-126933646D01*
X71918456Y-127081216D01*
X71986376Y-127245188D01*
X72021000Y-127419259D01*
X72021000Y-127596741D01*
X71986376Y-127770812D01*
X71918456Y-127934784D01*
X71819853Y-128082354D01*
X71694354Y-128207853D01*
X71546784Y-128306456D01*
X71382812Y-128374376D01*
X71233512Y-128404073D01*
X71208742Y-128409000D01*
X71031258Y-128409000D01*
X71006488Y-128404073D01*
X70857188Y-128374376D01*
X70693216Y-128306456D01*
X70545646Y-128207853D01*
X70420147Y-128082354D01*
X70321544Y-127934784D01*
X70253624Y-127770812D01*
X70219000Y-127596741D01*
X70219000Y-127419259D01*
X70253624Y-127245188D01*
X70321544Y-127081216D01*
X70420147Y-126933646D01*
X70545646Y-126808147D01*
X70693216Y-126709544D01*
X70857188Y-126641624D01*
X71006488Y-126611927D01*
X71031258Y-126607000D01*
X71208742Y-126607000D01*
X71233512Y-126611927D01*
G37*
G36*
X77101000Y-128409000D02*
G01*
X75299000Y-128409000D01*
X75299000Y-126607000D01*
X77101000Y-126607000D01*
X77101000Y-128409000D01*
G37*
G36*
X77101000Y-125869000D02*
G01*
X75299000Y-125869000D01*
X75299000Y-124067000D01*
X77101000Y-124067000D01*
X77101000Y-125869000D01*
G37*
G36*
X73773512Y-124071927D02*
G01*
X73922812Y-124101624D01*
X74086784Y-124169544D01*
X74234354Y-124268147D01*
X74359853Y-124393646D01*
X74458456Y-124541216D01*
X74526376Y-124705188D01*
X74561000Y-124879259D01*
X74561000Y-125056741D01*
X74526376Y-125230812D01*
X74458456Y-125394784D01*
X74359853Y-125542354D01*
X74234354Y-125667853D01*
X74086784Y-125766456D01*
X73922812Y-125834376D01*
X73773512Y-125864073D01*
X73748742Y-125869000D01*
X73571258Y-125869000D01*
X73546488Y-125864073D01*
X73397188Y-125834376D01*
X73233216Y-125766456D01*
X73085646Y-125667853D01*
X72960147Y-125542354D01*
X72861544Y-125394784D01*
X72793624Y-125230812D01*
X72759000Y-125056741D01*
X72759000Y-124879259D01*
X72793624Y-124705188D01*
X72861544Y-124541216D01*
X72960147Y-124393646D01*
X73085646Y-124268147D01*
X73233216Y-124169544D01*
X73397188Y-124101624D01*
X73546488Y-124071927D01*
X73571258Y-124067000D01*
X73748742Y-124067000D01*
X73773512Y-124071927D01*
G37*
G36*
X71233512Y-124071927D02*
G01*
X71382812Y-124101624D01*
X71546784Y-124169544D01*
X71694354Y-124268147D01*
X71819853Y-124393646D01*
X71918456Y-124541216D01*
X71986376Y-124705188D01*
X72021000Y-124879259D01*
X72021000Y-125056741D01*
X71986376Y-125230812D01*
X71918456Y-125394784D01*
X71819853Y-125542354D01*
X71694354Y-125667853D01*
X71546784Y-125766456D01*
X71382812Y-125834376D01*
X71233512Y-125864073D01*
X71208742Y-125869000D01*
X71031258Y-125869000D01*
X71006488Y-125864073D01*
X70857188Y-125834376D01*
X70693216Y-125766456D01*
X70545646Y-125667853D01*
X70420147Y-125542354D01*
X70321544Y-125394784D01*
X70253624Y-125230812D01*
X70219000Y-125056741D01*
X70219000Y-124879259D01*
X70253624Y-124705188D01*
X70321544Y-124541216D01*
X70420147Y-124393646D01*
X70545646Y-124268147D01*
X70693216Y-124169544D01*
X70857188Y-124101624D01*
X71006488Y-124071927D01*
X71031258Y-124067000D01*
X71208742Y-124067000D01*
X71233512Y-124071927D01*
G37*
G36*
X165213512Y-123055927D02*
G01*
X165362812Y-123085624D01*
X165526784Y-123153544D01*
X165674354Y-123252147D01*
X165799853Y-123377646D01*
X165898456Y-123525216D01*
X165966376Y-123689188D01*
X166001000Y-123863259D01*
X166001000Y-124040741D01*
X165966376Y-124214812D01*
X165898456Y-124378784D01*
X165799853Y-124526354D01*
X165674354Y-124651853D01*
X165526784Y-124750456D01*
X165362812Y-124818376D01*
X165213512Y-124848073D01*
X165188742Y-124853000D01*
X165011258Y-124853000D01*
X164986488Y-124848073D01*
X164837188Y-124818376D01*
X164673216Y-124750456D01*
X164525646Y-124651853D01*
X164400147Y-124526354D01*
X164301544Y-124378784D01*
X164233624Y-124214812D01*
X164199000Y-124040741D01*
X164199000Y-123863259D01*
X164233624Y-123689188D01*
X164301544Y-123525216D01*
X164400147Y-123377646D01*
X164525646Y-123252147D01*
X164673216Y-123153544D01*
X164837188Y-123085624D01*
X164986488Y-123055927D01*
X165011258Y-123051000D01*
X165188742Y-123051000D01*
X165213512Y-123055927D01*
G37*
G36*
X160921000Y-124853000D02*
G01*
X159119000Y-124853000D01*
X159119000Y-123051000D01*
X160921000Y-123051000D01*
X160921000Y-124853000D01*
G37*
G36*
X162673512Y-123055927D02*
G01*
X162822812Y-123085624D01*
X162986784Y-123153544D01*
X163134354Y-123252147D01*
X163259853Y-123377646D01*
X163358456Y-123525216D01*
X163426376Y-123689188D01*
X163461000Y-123863259D01*
X163461000Y-124040741D01*
X163426376Y-124214812D01*
X163358456Y-124378784D01*
X163259853Y-124526354D01*
X163134354Y-124651853D01*
X162986784Y-124750456D01*
X162822812Y-124818376D01*
X162673512Y-124848073D01*
X162648742Y-124853000D01*
X162471258Y-124853000D01*
X162446488Y-124848073D01*
X162297188Y-124818376D01*
X162133216Y-124750456D01*
X161985646Y-124651853D01*
X161860147Y-124526354D01*
X161761544Y-124378784D01*
X161693624Y-124214812D01*
X161659000Y-124040741D01*
X161659000Y-123863259D01*
X161693624Y-123689188D01*
X161761544Y-123525216D01*
X161860147Y-123377646D01*
X161985646Y-123252147D01*
X162133216Y-123153544D01*
X162297188Y-123085624D01*
X162446488Y-123055927D01*
X162471258Y-123051000D01*
X162648742Y-123051000D01*
X162673512Y-123055927D01*
G37*
G36*
X71233512Y-121531927D02*
G01*
X71382812Y-121561624D01*
X71546784Y-121629544D01*
X71694354Y-121728147D01*
X71819853Y-121853646D01*
X71918456Y-122001216D01*
X71986376Y-122165188D01*
X72021000Y-122339259D01*
X72021000Y-122516741D01*
X71986376Y-122690812D01*
X71918456Y-122854784D01*
X71819853Y-123002354D01*
X71694354Y-123127853D01*
X71546784Y-123226456D01*
X71382812Y-123294376D01*
X71233512Y-123324073D01*
X71208742Y-123329000D01*
X71031258Y-123329000D01*
X71006488Y-123324073D01*
X70857188Y-123294376D01*
X70693216Y-123226456D01*
X70545646Y-123127853D01*
X70420147Y-123002354D01*
X70321544Y-122854784D01*
X70253624Y-122690812D01*
X70219000Y-122516741D01*
X70219000Y-122339259D01*
X70253624Y-122165188D01*
X70321544Y-122001216D01*
X70420147Y-121853646D01*
X70545646Y-121728147D01*
X70693216Y-121629544D01*
X70857188Y-121561624D01*
X71006488Y-121531927D01*
X71031258Y-121527000D01*
X71208742Y-121527000D01*
X71233512Y-121531927D01*
G37*
G36*
X73773512Y-121531927D02*
G01*
X73922812Y-121561624D01*
X74086784Y-121629544D01*
X74234354Y-121728147D01*
X74359853Y-121853646D01*
X74458456Y-122001216D01*
X74526376Y-122165188D01*
X74561000Y-122339259D01*
X74561000Y-122516741D01*
X74526376Y-122690812D01*
X74458456Y-122854784D01*
X74359853Y-123002354D01*
X74234354Y-123127853D01*
X74086784Y-123226456D01*
X73922812Y-123294376D01*
X73773512Y-123324073D01*
X73748742Y-123329000D01*
X73571258Y-123329000D01*
X73546488Y-123324073D01*
X73397188Y-123294376D01*
X73233216Y-123226456D01*
X73085646Y-123127853D01*
X72960147Y-123002354D01*
X72861544Y-122854784D01*
X72793624Y-122690812D01*
X72759000Y-122516741D01*
X72759000Y-122339259D01*
X72793624Y-122165188D01*
X72861544Y-122001216D01*
X72960147Y-121853646D01*
X73085646Y-121728147D01*
X73233216Y-121629544D01*
X73397188Y-121561624D01*
X73546488Y-121531927D01*
X73571258Y-121527000D01*
X73748742Y-121527000D01*
X73773512Y-121531927D01*
G37*
G36*
X77101000Y-123329000D02*
G01*
X75299000Y-123329000D01*
X75299000Y-121527000D01*
X77101000Y-121527000D01*
X77101000Y-123329000D01*
G37*
G36*
X162673512Y-120515927D02*
G01*
X162822812Y-120545624D01*
X162986784Y-120613544D01*
X163134354Y-120712147D01*
X163259853Y-120837646D01*
X163358456Y-120985216D01*
X163426376Y-121149188D01*
X163461000Y-121323259D01*
X163461000Y-121500741D01*
X163426376Y-121674812D01*
X163358456Y-121838784D01*
X163259853Y-121986354D01*
X163134354Y-122111853D01*
X162986784Y-122210456D01*
X162822812Y-122278376D01*
X162673512Y-122308073D01*
X162648742Y-122313000D01*
X162471258Y-122313000D01*
X162446488Y-122308073D01*
X162297188Y-122278376D01*
X162133216Y-122210456D01*
X161985646Y-122111853D01*
X161860147Y-121986354D01*
X161761544Y-121838784D01*
X161693624Y-121674812D01*
X161659000Y-121500741D01*
X161659000Y-121323259D01*
X161693624Y-121149188D01*
X161761544Y-120985216D01*
X161860147Y-120837646D01*
X161985646Y-120712147D01*
X162133216Y-120613544D01*
X162297188Y-120545624D01*
X162446488Y-120515927D01*
X162471258Y-120511000D01*
X162648742Y-120511000D01*
X162673512Y-120515927D01*
G37*
G36*
X165213512Y-120515927D02*
G01*
X165362812Y-120545624D01*
X165526784Y-120613544D01*
X165674354Y-120712147D01*
X165799853Y-120837646D01*
X165898456Y-120985216D01*
X165966376Y-121149188D01*
X166001000Y-121323259D01*
X166001000Y-121500741D01*
X165966376Y-121674812D01*
X165898456Y-121838784D01*
X165799853Y-121986354D01*
X165674354Y-122111853D01*
X165526784Y-122210456D01*
X165362812Y-122278376D01*
X165213512Y-122308073D01*
X165188742Y-122313000D01*
X165011258Y-122313000D01*
X164986488Y-122308073D01*
X164837188Y-122278376D01*
X164673216Y-122210456D01*
X164525646Y-122111853D01*
X164400147Y-121986354D01*
X164301544Y-121838784D01*
X164233624Y-121674812D01*
X164199000Y-121500741D01*
X164199000Y-121323259D01*
X164233624Y-121149188D01*
X164301544Y-120985216D01*
X164400147Y-120837646D01*
X164525646Y-120712147D01*
X164673216Y-120613544D01*
X164837188Y-120545624D01*
X164986488Y-120515927D01*
X165011258Y-120511000D01*
X165188742Y-120511000D01*
X165213512Y-120515927D01*
G37*
G36*
X160921000Y-122313000D02*
G01*
X159119000Y-122313000D01*
X159119000Y-120511000D01*
X160921000Y-120511000D01*
X160921000Y-122313000D01*
G37*
G36*
X71233512Y-118991927D02*
G01*
X71382812Y-119021624D01*
X71546784Y-119089544D01*
X71694354Y-119188147D01*
X71819853Y-119313646D01*
X71918456Y-119461216D01*
X71986376Y-119625188D01*
X72021000Y-119799259D01*
X72021000Y-119976741D01*
X71986376Y-120150812D01*
X71918456Y-120314784D01*
X71819853Y-120462354D01*
X71694354Y-120587853D01*
X71546784Y-120686456D01*
X71382812Y-120754376D01*
X71233512Y-120784073D01*
X71208742Y-120789000D01*
X71031258Y-120789000D01*
X71006488Y-120784073D01*
X70857188Y-120754376D01*
X70693216Y-120686456D01*
X70545646Y-120587853D01*
X70420147Y-120462354D01*
X70321544Y-120314784D01*
X70253624Y-120150812D01*
X70219000Y-119976741D01*
X70219000Y-119799259D01*
X70253624Y-119625188D01*
X70321544Y-119461216D01*
X70420147Y-119313646D01*
X70545646Y-119188147D01*
X70693216Y-119089544D01*
X70857188Y-119021624D01*
X71006488Y-118991927D01*
X71031258Y-118987000D01*
X71208742Y-118987000D01*
X71233512Y-118991927D01*
G37*
G36*
X77101000Y-120789000D02*
G01*
X75299000Y-120789000D01*
X75299000Y-118987000D01*
X77101000Y-118987000D01*
X77101000Y-120789000D01*
G37*
G36*
X73773512Y-118991927D02*
G01*
X73922812Y-119021624D01*
X74086784Y-119089544D01*
X74234354Y-119188147D01*
X74359853Y-119313646D01*
X74458456Y-119461216D01*
X74526376Y-119625188D01*
X74561000Y-119799259D01*
X74561000Y-119976741D01*
X74526376Y-120150812D01*
X74458456Y-120314784D01*
X74359853Y-120462354D01*
X74234354Y-120587853D01*
X74086784Y-120686456D01*
X73922812Y-120754376D01*
X73773512Y-120784073D01*
X73748742Y-120789000D01*
X73571258Y-120789000D01*
X73546488Y-120784073D01*
X73397188Y-120754376D01*
X73233216Y-120686456D01*
X73085646Y-120587853D01*
X72960147Y-120462354D01*
X72861544Y-120314784D01*
X72793624Y-120150812D01*
X72759000Y-119976741D01*
X72759000Y-119799259D01*
X72793624Y-119625188D01*
X72861544Y-119461216D01*
X72960147Y-119313646D01*
X73085646Y-119188147D01*
X73233216Y-119089544D01*
X73397188Y-119021624D01*
X73546488Y-118991927D01*
X73571258Y-118987000D01*
X73748742Y-118987000D01*
X73773512Y-118991927D01*
G37*
G36*
X123474442Y-118558981D02*
G01*
X123595654Y-118609189D01*
X123620216Y-118619363D01*
X123751408Y-118707022D01*
X123862978Y-118818592D01*
X123950637Y-118949784D01*
X123950638Y-118949786D01*
X124011019Y-119095558D01*
X124041800Y-119250307D01*
X124041800Y-119408093D01*
X124011019Y-119562842D01*
X123950638Y-119708614D01*
X123950637Y-119708616D01*
X123862978Y-119839808D01*
X123751408Y-119951378D01*
X123620216Y-120039037D01*
X123620215Y-120039038D01*
X123620214Y-120039038D01*
X123474442Y-120099419D01*
X123319693Y-120130200D01*
X123161907Y-120130200D01*
X123007158Y-120099419D01*
X122861386Y-120039038D01*
X122861385Y-120039038D01*
X122861384Y-120039037D01*
X122730192Y-119951378D01*
X122618622Y-119839808D01*
X122530963Y-119708616D01*
X122530962Y-119708614D01*
X122470581Y-119562842D01*
X122439800Y-119408093D01*
X122439800Y-119250307D01*
X122470581Y-119095558D01*
X122530962Y-118949786D01*
X122530963Y-118949784D01*
X122618622Y-118818592D01*
X122730192Y-118707022D01*
X122861384Y-118619363D01*
X122885946Y-118609189D01*
X123007158Y-118558981D01*
X123161907Y-118528200D01*
X123319693Y-118528200D01*
X123474442Y-118558981D01*
G37*
G36*
X165213512Y-117975927D02*
G01*
X165362812Y-118005624D01*
X165526784Y-118073544D01*
X165674354Y-118172147D01*
X165799853Y-118297646D01*
X165898456Y-118445216D01*
X165966376Y-118609188D01*
X166001000Y-118783259D01*
X166001000Y-118960741D01*
X165966376Y-119134812D01*
X165898456Y-119298784D01*
X165799853Y-119446354D01*
X165674354Y-119571853D01*
X165526784Y-119670456D01*
X165362812Y-119738376D01*
X165213512Y-119768073D01*
X165188742Y-119773000D01*
X165011258Y-119773000D01*
X164986488Y-119768073D01*
X164837188Y-119738376D01*
X164673216Y-119670456D01*
X164525646Y-119571853D01*
X164400147Y-119446354D01*
X164301544Y-119298784D01*
X164233624Y-119134812D01*
X164199000Y-118960741D01*
X164199000Y-118783259D01*
X164233624Y-118609188D01*
X164301544Y-118445216D01*
X164400147Y-118297646D01*
X164525646Y-118172147D01*
X164673216Y-118073544D01*
X164837188Y-118005624D01*
X164986488Y-117975927D01*
X165011258Y-117971000D01*
X165188742Y-117971000D01*
X165213512Y-117975927D01*
G37*
G36*
X162673512Y-117975927D02*
G01*
X162822812Y-118005624D01*
X162986784Y-118073544D01*
X163134354Y-118172147D01*
X163259853Y-118297646D01*
X163358456Y-118445216D01*
X163426376Y-118609188D01*
X163461000Y-118783259D01*
X163461000Y-118960741D01*
X163426376Y-119134812D01*
X163358456Y-119298784D01*
X163259853Y-119446354D01*
X163134354Y-119571853D01*
X162986784Y-119670456D01*
X162822812Y-119738376D01*
X162673512Y-119768073D01*
X162648742Y-119773000D01*
X162471258Y-119773000D01*
X162446488Y-119768073D01*
X162297188Y-119738376D01*
X162133216Y-119670456D01*
X161985646Y-119571853D01*
X161860147Y-119446354D01*
X161761544Y-119298784D01*
X161693624Y-119134812D01*
X161659000Y-118960741D01*
X161659000Y-118783259D01*
X161693624Y-118609188D01*
X161761544Y-118445216D01*
X161860147Y-118297646D01*
X161985646Y-118172147D01*
X162133216Y-118073544D01*
X162297188Y-118005624D01*
X162446488Y-117975927D01*
X162471258Y-117971000D01*
X162648742Y-117971000D01*
X162673512Y-117975927D01*
G37*
G36*
X160921000Y-119773000D02*
G01*
X159119000Y-119773000D01*
X159119000Y-117971000D01*
X160921000Y-117971000D01*
X160921000Y-119773000D01*
G37*
G36*
X120985242Y-117187381D02*
G01*
X121131014Y-117247762D01*
X121131016Y-117247763D01*
X121262208Y-117335422D01*
X121373778Y-117446992D01*
X121461437Y-117578184D01*
X121461438Y-117578186D01*
X121521819Y-117723958D01*
X121552600Y-117878707D01*
X121552600Y-118036493D01*
X121521819Y-118191242D01*
X121477745Y-118297646D01*
X121461437Y-118337016D01*
X121373778Y-118468208D01*
X121262208Y-118579778D01*
X121131016Y-118667437D01*
X121131015Y-118667438D01*
X121131014Y-118667438D01*
X120985242Y-118727819D01*
X120830493Y-118758600D01*
X120672707Y-118758600D01*
X120517958Y-118727819D01*
X120372186Y-118667438D01*
X120372185Y-118667438D01*
X120372184Y-118667437D01*
X120240992Y-118579778D01*
X120129422Y-118468208D01*
X120041763Y-118337016D01*
X120025455Y-118297646D01*
X119981381Y-118191242D01*
X119950600Y-118036493D01*
X119950600Y-117878707D01*
X119981381Y-117723958D01*
X120041762Y-117578186D01*
X120041763Y-117578184D01*
X120129422Y-117446992D01*
X120240992Y-117335422D01*
X120372184Y-117247763D01*
X120372186Y-117247762D01*
X120517958Y-117187381D01*
X120672707Y-117156600D01*
X120830493Y-117156600D01*
X120985242Y-117187381D01*
G37*
G36*
X160921000Y-117233000D02*
G01*
X159119000Y-117233000D01*
X159119000Y-115431000D01*
X160921000Y-115431000D01*
X160921000Y-117233000D01*
G37*
G36*
X162673512Y-115435927D02*
G01*
X162822812Y-115465624D01*
X162986784Y-115533544D01*
X163134354Y-115632147D01*
X163259853Y-115757646D01*
X163358456Y-115905216D01*
X163426376Y-116069188D01*
X163461000Y-116243259D01*
X163461000Y-116420741D01*
X163426376Y-116594812D01*
X163358456Y-116758784D01*
X163259853Y-116906354D01*
X163134354Y-117031853D01*
X162986784Y-117130456D01*
X162822812Y-117198376D01*
X162673512Y-117228073D01*
X162648742Y-117233000D01*
X162471258Y-117233000D01*
X162446488Y-117228073D01*
X162297188Y-117198376D01*
X162133216Y-117130456D01*
X161985646Y-117031853D01*
X161860147Y-116906354D01*
X161761544Y-116758784D01*
X161693624Y-116594812D01*
X161659000Y-116420741D01*
X161659000Y-116243259D01*
X161693624Y-116069188D01*
X161761544Y-115905216D01*
X161860147Y-115757646D01*
X161985646Y-115632147D01*
X162133216Y-115533544D01*
X162297188Y-115465624D01*
X162446488Y-115435927D01*
X162471258Y-115431000D01*
X162648742Y-115431000D01*
X162673512Y-115435927D01*
G37*
G36*
X165213512Y-115435927D02*
G01*
X165362812Y-115465624D01*
X165526784Y-115533544D01*
X165674354Y-115632147D01*
X165799853Y-115757646D01*
X165898456Y-115905216D01*
X165966376Y-116069188D01*
X166001000Y-116243259D01*
X166001000Y-116420741D01*
X165966376Y-116594812D01*
X165898456Y-116758784D01*
X165799853Y-116906354D01*
X165674354Y-117031853D01*
X165526784Y-117130456D01*
X165362812Y-117198376D01*
X165213512Y-117228073D01*
X165188742Y-117233000D01*
X165011258Y-117233000D01*
X164986488Y-117228073D01*
X164837188Y-117198376D01*
X164673216Y-117130456D01*
X164525646Y-117031853D01*
X164400147Y-116906354D01*
X164301544Y-116758784D01*
X164233624Y-116594812D01*
X164199000Y-116420741D01*
X164199000Y-116243259D01*
X164233624Y-116069188D01*
X164301544Y-115905216D01*
X164400147Y-115757646D01*
X164525646Y-115632147D01*
X164673216Y-115533544D01*
X164837188Y-115465624D01*
X164986488Y-115435927D01*
X165011258Y-115431000D01*
X165188742Y-115431000D01*
X165213512Y-115435927D01*
G37*
G36*
X99649242Y-114901381D02*
G01*
X99795014Y-114961762D01*
X99795016Y-114961763D01*
X99926208Y-115049422D01*
X100037778Y-115160992D01*
X100064510Y-115201000D01*
X100125438Y-115292186D01*
X100185819Y-115437958D01*
X100216600Y-115592707D01*
X100216600Y-115750493D01*
X100185819Y-115905242D01*
X100176306Y-115928208D01*
X100125437Y-116051016D01*
X100037778Y-116182208D01*
X99926208Y-116293778D01*
X99795016Y-116381437D01*
X99795015Y-116381438D01*
X99795014Y-116381438D01*
X99649242Y-116441819D01*
X99494493Y-116472600D01*
X99336707Y-116472600D01*
X99181958Y-116441819D01*
X99036186Y-116381438D01*
X99036185Y-116381438D01*
X99036184Y-116381437D01*
X98904992Y-116293778D01*
X98793422Y-116182208D01*
X98705763Y-116051016D01*
X98654894Y-115928208D01*
X98645381Y-115905242D01*
X98614600Y-115750493D01*
X98614600Y-115592707D01*
X98645381Y-115437958D01*
X98705762Y-115292186D01*
X98766690Y-115201000D01*
X98793422Y-115160992D01*
X98904992Y-115049422D01*
X99036184Y-114961763D01*
X99036186Y-114961762D01*
X99181958Y-114901381D01*
X99336707Y-114870600D01*
X99494493Y-114870600D01*
X99649242Y-114901381D01*
G37*
G36*
X102290842Y-114901381D02*
G01*
X102436614Y-114961762D01*
X102436616Y-114961763D01*
X102567808Y-115049422D01*
X102679378Y-115160992D01*
X102706110Y-115201000D01*
X102767038Y-115292186D01*
X102827419Y-115437958D01*
X102858200Y-115592707D01*
X102858200Y-115750493D01*
X102827419Y-115905242D01*
X102817906Y-115928208D01*
X102767037Y-116051016D01*
X102679378Y-116182208D01*
X102567808Y-116293778D01*
X102436616Y-116381437D01*
X102436615Y-116381438D01*
X102436614Y-116381438D01*
X102290842Y-116441819D01*
X102136093Y-116472600D01*
X101978307Y-116472600D01*
X101823558Y-116441819D01*
X101677786Y-116381438D01*
X101677785Y-116381438D01*
X101677784Y-116381437D01*
X101546592Y-116293778D01*
X101435022Y-116182208D01*
X101347363Y-116051016D01*
X101296494Y-115928208D01*
X101286981Y-115905242D01*
X101256200Y-115750493D01*
X101256200Y-115592707D01*
X101286981Y-115437958D01*
X101347362Y-115292186D01*
X101408290Y-115201000D01*
X101435022Y-115160992D01*
X101546592Y-115049422D01*
X101677784Y-114961763D01*
X101677786Y-114961762D01*
X101823558Y-114901381D01*
X101978307Y-114870600D01*
X102136093Y-114870600D01*
X102290842Y-114901381D01*
G37*
G36*
X88930442Y-114647381D02*
G01*
X89076214Y-114707762D01*
X89076216Y-114707763D01*
X89207408Y-114795422D01*
X89318978Y-114906992D01*
X89381025Y-114999853D01*
X89406638Y-115038186D01*
X89467019Y-115183958D01*
X89497800Y-115338707D01*
X89497800Y-115496493D01*
X89467019Y-115651242D01*
X89422945Y-115757646D01*
X89406637Y-115797016D01*
X89318978Y-115928208D01*
X89207408Y-116039778D01*
X89076216Y-116127437D01*
X89076215Y-116127438D01*
X89076214Y-116127438D01*
X88930442Y-116187819D01*
X88775693Y-116218600D01*
X88617907Y-116218600D01*
X88463158Y-116187819D01*
X88317386Y-116127438D01*
X88317385Y-116127438D01*
X88317384Y-116127437D01*
X88186192Y-116039778D01*
X88074622Y-115928208D01*
X87986963Y-115797016D01*
X87970655Y-115757646D01*
X87926581Y-115651242D01*
X87895800Y-115496493D01*
X87895800Y-115338707D01*
X87926581Y-115183958D01*
X87986962Y-115038186D01*
X88012575Y-114999853D01*
X88074622Y-114906992D01*
X88186192Y-114795422D01*
X88317384Y-114707763D01*
X88317386Y-114707762D01*
X88463158Y-114647381D01*
X88617907Y-114616600D01*
X88775693Y-114616600D01*
X88930442Y-114647381D01*
G37*
G36*
X125709642Y-114190181D02*
G01*
X125855414Y-114250562D01*
X125855416Y-114250563D01*
X125986608Y-114338222D01*
X126098178Y-114449792D01*
X126173694Y-114562811D01*
X126185838Y-114580986D01*
X126246219Y-114726758D01*
X126277000Y-114881507D01*
X126277000Y-115039293D01*
X126246219Y-115194042D01*
X126186296Y-115338708D01*
X126185837Y-115339816D01*
X126098178Y-115471008D01*
X125986608Y-115582578D01*
X125855416Y-115670237D01*
X125855415Y-115670238D01*
X125855414Y-115670238D01*
X125709642Y-115730619D01*
X125554893Y-115761400D01*
X125397107Y-115761400D01*
X125242358Y-115730619D01*
X125096586Y-115670238D01*
X125096585Y-115670238D01*
X125096584Y-115670237D01*
X124965392Y-115582578D01*
X124853822Y-115471008D01*
X124766163Y-115339816D01*
X124765704Y-115338708D01*
X124705781Y-115194042D01*
X124675000Y-115039293D01*
X124675000Y-114881507D01*
X124705781Y-114726758D01*
X124766162Y-114580986D01*
X124778306Y-114562811D01*
X124853822Y-114449792D01*
X124965392Y-114338222D01*
X125096584Y-114250563D01*
X125096586Y-114250562D01*
X125242358Y-114190181D01*
X125397107Y-114159400D01*
X125554893Y-114159400D01*
X125709642Y-114190181D01*
G37*
G36*
X73773512Y-113403927D02*
G01*
X73922812Y-113433624D01*
X74086784Y-113501544D01*
X74234354Y-113600147D01*
X74359853Y-113725646D01*
X74458456Y-113873216D01*
X74526376Y-114037188D01*
X74561000Y-114211259D01*
X74561000Y-114388741D01*
X74526376Y-114562812D01*
X74458456Y-114726784D01*
X74359853Y-114874354D01*
X74234354Y-114999853D01*
X74086784Y-115098456D01*
X73922812Y-115166376D01*
X73783722Y-115194042D01*
X73748742Y-115201000D01*
X73571258Y-115201000D01*
X73536278Y-115194042D01*
X73397188Y-115166376D01*
X73233216Y-115098456D01*
X73085646Y-114999853D01*
X72960147Y-114874354D01*
X72861544Y-114726784D01*
X72793624Y-114562812D01*
X72759000Y-114388741D01*
X72759000Y-114211259D01*
X72793624Y-114037188D01*
X72861544Y-113873216D01*
X72960147Y-113725646D01*
X73085646Y-113600147D01*
X73233216Y-113501544D01*
X73397188Y-113433624D01*
X73546488Y-113403927D01*
X73571258Y-113399000D01*
X73748742Y-113399000D01*
X73773512Y-113403927D01*
G37*
G36*
X71233512Y-113403927D02*
G01*
X71382812Y-113433624D01*
X71546784Y-113501544D01*
X71694354Y-113600147D01*
X71819853Y-113725646D01*
X71918456Y-113873216D01*
X71986376Y-114037188D01*
X72021000Y-114211259D01*
X72021000Y-114388741D01*
X71986376Y-114562812D01*
X71918456Y-114726784D01*
X71819853Y-114874354D01*
X71694354Y-114999853D01*
X71546784Y-115098456D01*
X71382812Y-115166376D01*
X71243722Y-115194042D01*
X71208742Y-115201000D01*
X71031258Y-115201000D01*
X70996278Y-115194042D01*
X70857188Y-115166376D01*
X70693216Y-115098456D01*
X70545646Y-114999853D01*
X70420147Y-114874354D01*
X70321544Y-114726784D01*
X70253624Y-114562812D01*
X70219000Y-114388741D01*
X70219000Y-114211259D01*
X70253624Y-114037188D01*
X70321544Y-113873216D01*
X70420147Y-113725646D01*
X70545646Y-113600147D01*
X70693216Y-113501544D01*
X70857188Y-113433624D01*
X71006488Y-113403927D01*
X71031258Y-113399000D01*
X71208742Y-113399000D01*
X71233512Y-113403927D01*
G37*
G36*
X77101000Y-115201000D02*
G01*
X75299000Y-115201000D01*
X75299000Y-113399000D01*
X77101000Y-113399000D01*
X77101000Y-115201000D01*
G37*
G36*
X130332442Y-111396181D02*
G01*
X130478214Y-111456562D01*
X130478216Y-111456563D01*
X130609408Y-111544222D01*
X130720978Y-111655792D01*
X130808637Y-111786984D01*
X130808638Y-111786986D01*
X130869019Y-111932758D01*
X130899800Y-112087507D01*
X130899800Y-112245293D01*
X130869019Y-112400042D01*
X130819066Y-112520638D01*
X130808637Y-112545816D01*
X130720978Y-112677008D01*
X130609408Y-112788578D01*
X130478216Y-112876237D01*
X130478215Y-112876238D01*
X130478214Y-112876238D01*
X130332442Y-112936619D01*
X130177693Y-112967400D01*
X130019907Y-112967400D01*
X129865158Y-112936619D01*
X129719386Y-112876238D01*
X129719385Y-112876238D01*
X129719384Y-112876237D01*
X129588192Y-112788578D01*
X129476622Y-112677008D01*
X129388963Y-112545816D01*
X129378534Y-112520638D01*
X129328581Y-112400042D01*
X129297800Y-112245293D01*
X129297800Y-112087507D01*
X129328581Y-111932758D01*
X129388962Y-111786986D01*
X129388963Y-111786984D01*
X129476622Y-111655792D01*
X129588192Y-111544222D01*
X129719384Y-111456563D01*
X129719386Y-111456562D01*
X129865158Y-111396181D01*
X130019907Y-111365400D01*
X130177693Y-111365400D01*
X130332442Y-111396181D01*
G37*
G36*
X77101000Y-112661000D02*
G01*
X75299000Y-112661000D01*
X75299000Y-110859000D01*
X77101000Y-110859000D01*
X77101000Y-112661000D01*
G37*
G36*
X73773512Y-110863927D02*
G01*
X73922812Y-110893624D01*
X74086784Y-110961544D01*
X74234354Y-111060147D01*
X74359853Y-111185646D01*
X74458456Y-111333216D01*
X74526376Y-111497188D01*
X74561000Y-111671259D01*
X74561000Y-111848741D01*
X74526376Y-112022812D01*
X74458456Y-112186784D01*
X74359853Y-112334354D01*
X74234354Y-112459853D01*
X74086784Y-112558456D01*
X73922812Y-112626376D01*
X73773512Y-112656073D01*
X73748742Y-112661000D01*
X73571258Y-112661000D01*
X73546488Y-112656073D01*
X73397188Y-112626376D01*
X73233216Y-112558456D01*
X73085646Y-112459853D01*
X72960147Y-112334354D01*
X72861544Y-112186784D01*
X72793624Y-112022812D01*
X72759000Y-111848741D01*
X72759000Y-111671259D01*
X72793624Y-111497188D01*
X72861544Y-111333216D01*
X72960147Y-111185646D01*
X73085646Y-111060147D01*
X73233216Y-110961544D01*
X73397188Y-110893624D01*
X73546488Y-110863927D01*
X73571258Y-110859000D01*
X73748742Y-110859000D01*
X73773512Y-110863927D01*
G37*
G36*
X71233512Y-110863927D02*
G01*
X71382812Y-110893624D01*
X71546784Y-110961544D01*
X71694354Y-111060147D01*
X71819853Y-111185646D01*
X71918456Y-111333216D01*
X71986376Y-111497188D01*
X72021000Y-111671259D01*
X72021000Y-111848741D01*
X71986376Y-112022812D01*
X71918456Y-112186784D01*
X71819853Y-112334354D01*
X71694354Y-112459853D01*
X71546784Y-112558456D01*
X71382812Y-112626376D01*
X71233512Y-112656073D01*
X71208742Y-112661000D01*
X71031258Y-112661000D01*
X71006488Y-112656073D01*
X70857188Y-112626376D01*
X70693216Y-112558456D01*
X70545646Y-112459853D01*
X70420147Y-112334354D01*
X70321544Y-112186784D01*
X70253624Y-112022812D01*
X70219000Y-111848741D01*
X70219000Y-111671259D01*
X70253624Y-111497188D01*
X70321544Y-111333216D01*
X70420147Y-111185646D01*
X70545646Y-111060147D01*
X70693216Y-110961544D01*
X70857188Y-110893624D01*
X71006488Y-110863927D01*
X71031258Y-110859000D01*
X71208742Y-110859000D01*
X71233512Y-110863927D01*
G37*
G36*
X136936442Y-111040581D02*
G01*
X137082214Y-111100962D01*
X137082216Y-111100963D01*
X137213408Y-111188622D01*
X137324978Y-111300192D01*
X137347045Y-111333218D01*
X137412638Y-111431386D01*
X137473019Y-111577158D01*
X137503800Y-111731907D01*
X137503800Y-111889693D01*
X137473019Y-112044442D01*
X137414059Y-112186784D01*
X137412637Y-112190216D01*
X137324978Y-112321408D01*
X137213408Y-112432978D01*
X137082216Y-112520637D01*
X137082215Y-112520638D01*
X137082214Y-112520638D01*
X136936442Y-112581019D01*
X136781693Y-112611800D01*
X136623907Y-112611800D01*
X136469158Y-112581019D01*
X136323386Y-112520638D01*
X136323385Y-112520638D01*
X136323384Y-112520637D01*
X136192192Y-112432978D01*
X136080622Y-112321408D01*
X135992963Y-112190216D01*
X135991541Y-112186784D01*
X135932581Y-112044442D01*
X135901800Y-111889693D01*
X135901800Y-111731907D01*
X135932581Y-111577158D01*
X135992962Y-111431386D01*
X136058555Y-111333218D01*
X136080622Y-111300192D01*
X136192192Y-111188622D01*
X136323384Y-111100963D01*
X136323386Y-111100962D01*
X136469158Y-111040581D01*
X136623907Y-111009800D01*
X136781693Y-111009800D01*
X136936442Y-111040581D01*
G37*
G36*
X162673512Y-109847927D02*
G01*
X162822812Y-109877624D01*
X162986784Y-109945544D01*
X163134354Y-110044147D01*
X163259853Y-110169646D01*
X163358456Y-110317216D01*
X163426376Y-110481188D01*
X163461000Y-110655259D01*
X163461000Y-110832741D01*
X163426376Y-111006812D01*
X163358456Y-111170784D01*
X163259853Y-111318354D01*
X163134354Y-111443853D01*
X162986784Y-111542456D01*
X162822812Y-111610376D01*
X162673512Y-111640073D01*
X162648742Y-111645000D01*
X162471258Y-111645000D01*
X162446488Y-111640073D01*
X162297188Y-111610376D01*
X162133216Y-111542456D01*
X161985646Y-111443853D01*
X161860147Y-111318354D01*
X161761544Y-111170784D01*
X161693624Y-111006812D01*
X161659000Y-110832741D01*
X161659000Y-110655259D01*
X161693624Y-110481188D01*
X161761544Y-110317216D01*
X161860147Y-110169646D01*
X161985646Y-110044147D01*
X162133216Y-109945544D01*
X162297188Y-109877624D01*
X162446488Y-109847927D01*
X162471258Y-109843000D01*
X162648742Y-109843000D01*
X162673512Y-109847927D01*
G37*
G36*
X165213512Y-109847927D02*
G01*
X165362812Y-109877624D01*
X165526784Y-109945544D01*
X165674354Y-110044147D01*
X165799853Y-110169646D01*
X165898456Y-110317216D01*
X165966376Y-110481188D01*
X166001000Y-110655259D01*
X166001000Y-110832741D01*
X165966376Y-111006812D01*
X165898456Y-111170784D01*
X165799853Y-111318354D01*
X165674354Y-111443853D01*
X165526784Y-111542456D01*
X165362812Y-111610376D01*
X165213512Y-111640073D01*
X165188742Y-111645000D01*
X165011258Y-111645000D01*
X164986488Y-111640073D01*
X164837188Y-111610376D01*
X164673216Y-111542456D01*
X164525646Y-111443853D01*
X164400147Y-111318354D01*
X164301544Y-111170784D01*
X164233624Y-111006812D01*
X164199000Y-110832741D01*
X164199000Y-110655259D01*
X164233624Y-110481188D01*
X164301544Y-110317216D01*
X164400147Y-110169646D01*
X164525646Y-110044147D01*
X164673216Y-109945544D01*
X164837188Y-109877624D01*
X164986488Y-109847927D01*
X165011258Y-109843000D01*
X165188742Y-109843000D01*
X165213512Y-109847927D01*
G37*
G36*
X160921000Y-111645000D02*
G01*
X159119000Y-111645000D01*
X159119000Y-109843000D01*
X160921000Y-109843000D01*
X160921000Y-111645000D01*
G37*
G36*
X71233512Y-108323927D02*
G01*
X71382812Y-108353624D01*
X71546784Y-108421544D01*
X71694354Y-108520147D01*
X71819853Y-108645646D01*
X71918456Y-108793216D01*
X71986376Y-108957188D01*
X72021000Y-109131259D01*
X72021000Y-109308741D01*
X71986376Y-109482812D01*
X71918456Y-109646784D01*
X71819853Y-109794354D01*
X71694354Y-109919853D01*
X71546784Y-110018456D01*
X71382812Y-110086376D01*
X71233512Y-110116073D01*
X71208742Y-110121000D01*
X71031258Y-110121000D01*
X71006488Y-110116073D01*
X70857188Y-110086376D01*
X70693216Y-110018456D01*
X70545646Y-109919853D01*
X70420147Y-109794354D01*
X70321544Y-109646784D01*
X70253624Y-109482812D01*
X70219000Y-109308741D01*
X70219000Y-109131259D01*
X70253624Y-108957188D01*
X70321544Y-108793216D01*
X70420147Y-108645646D01*
X70545646Y-108520147D01*
X70693216Y-108421544D01*
X70857188Y-108353624D01*
X71006488Y-108323927D01*
X71031258Y-108319000D01*
X71208742Y-108319000D01*
X71233512Y-108323927D01*
G37*
G36*
X73773512Y-108323927D02*
G01*
X73922812Y-108353624D01*
X74086784Y-108421544D01*
X74234354Y-108520147D01*
X74359853Y-108645646D01*
X74458456Y-108793216D01*
X74526376Y-108957188D01*
X74561000Y-109131259D01*
X74561000Y-109308741D01*
X74526376Y-109482812D01*
X74458456Y-109646784D01*
X74359853Y-109794354D01*
X74234354Y-109919853D01*
X74086784Y-110018456D01*
X73922812Y-110086376D01*
X73773512Y-110116073D01*
X73748742Y-110121000D01*
X73571258Y-110121000D01*
X73546488Y-110116073D01*
X73397188Y-110086376D01*
X73233216Y-110018456D01*
X73085646Y-109919853D01*
X72960147Y-109794354D01*
X72861544Y-109646784D01*
X72793624Y-109482812D01*
X72759000Y-109308741D01*
X72759000Y-109131259D01*
X72793624Y-108957188D01*
X72861544Y-108793216D01*
X72960147Y-108645646D01*
X73085646Y-108520147D01*
X73233216Y-108421544D01*
X73397188Y-108353624D01*
X73546488Y-108323927D01*
X73571258Y-108319000D01*
X73748742Y-108319000D01*
X73773512Y-108323927D01*
G37*
G36*
X77101000Y-110121000D02*
G01*
X75299000Y-110121000D01*
X75299000Y-108319000D01*
X77101000Y-108319000D01*
X77101000Y-110121000D01*
G37*
G36*
X165213512Y-107307927D02*
G01*
X165362812Y-107337624D01*
X165526784Y-107405544D01*
X165674354Y-107504147D01*
X165799853Y-107629646D01*
X165898456Y-107777216D01*
X165966376Y-107941188D01*
X166001000Y-108115259D01*
X166001000Y-108292741D01*
X165966376Y-108466812D01*
X165898456Y-108630784D01*
X165799853Y-108778354D01*
X165674354Y-108903853D01*
X165526784Y-109002456D01*
X165362812Y-109070376D01*
X165213512Y-109100073D01*
X165188742Y-109105000D01*
X165011258Y-109105000D01*
X164986488Y-109100073D01*
X164837188Y-109070376D01*
X164673216Y-109002456D01*
X164525646Y-108903853D01*
X164400147Y-108778354D01*
X164301544Y-108630784D01*
X164233624Y-108466812D01*
X164199000Y-108292741D01*
X164199000Y-108115259D01*
X164233624Y-107941188D01*
X164301544Y-107777216D01*
X164400147Y-107629646D01*
X164525646Y-107504147D01*
X164673216Y-107405544D01*
X164837188Y-107337624D01*
X164986488Y-107307927D01*
X165011258Y-107303000D01*
X165188742Y-107303000D01*
X165213512Y-107307927D01*
G37*
G36*
X160921000Y-109105000D02*
G01*
X159119000Y-109105000D01*
X159119000Y-107303000D01*
X160921000Y-107303000D01*
X160921000Y-109105000D01*
G37*
G36*
X162673512Y-107307927D02*
G01*
X162822812Y-107337624D01*
X162986784Y-107405544D01*
X163134354Y-107504147D01*
X163259853Y-107629646D01*
X163358456Y-107777216D01*
X163426376Y-107941188D01*
X163461000Y-108115259D01*
X163461000Y-108292741D01*
X163426376Y-108466812D01*
X163358456Y-108630784D01*
X163259853Y-108778354D01*
X163134354Y-108903853D01*
X162986784Y-109002456D01*
X162822812Y-109070376D01*
X162673512Y-109100073D01*
X162648742Y-109105000D01*
X162471258Y-109105000D01*
X162446488Y-109100073D01*
X162297188Y-109070376D01*
X162133216Y-109002456D01*
X161985646Y-108903853D01*
X161860147Y-108778354D01*
X161761544Y-108630784D01*
X161693624Y-108466812D01*
X161659000Y-108292741D01*
X161659000Y-108115259D01*
X161693624Y-107941188D01*
X161761544Y-107777216D01*
X161860147Y-107629646D01*
X161985646Y-107504147D01*
X162133216Y-107405544D01*
X162297188Y-107337624D01*
X162446488Y-107307927D01*
X162471258Y-107303000D01*
X162648742Y-107303000D01*
X162673512Y-107307927D01*
G37*
G36*
X77101000Y-107581000D02*
G01*
X75299000Y-107581000D01*
X75299000Y-105779000D01*
X77101000Y-105779000D01*
X77101000Y-107581000D01*
G37*
G36*
X73773512Y-105783927D02*
G01*
X73922812Y-105813624D01*
X74086784Y-105881544D01*
X74234354Y-105980147D01*
X74359853Y-106105646D01*
X74458456Y-106253216D01*
X74526376Y-106417188D01*
X74561000Y-106591259D01*
X74561000Y-106768741D01*
X74526376Y-106942812D01*
X74458456Y-107106784D01*
X74359853Y-107254354D01*
X74234354Y-107379853D01*
X74086784Y-107478456D01*
X73922812Y-107546376D01*
X73773512Y-107576073D01*
X73748742Y-107581000D01*
X73571258Y-107581000D01*
X73546488Y-107576073D01*
X73397188Y-107546376D01*
X73233216Y-107478456D01*
X73085646Y-107379853D01*
X72960147Y-107254354D01*
X72861544Y-107106784D01*
X72793624Y-106942812D01*
X72759000Y-106768741D01*
X72759000Y-106591259D01*
X72793624Y-106417188D01*
X72861544Y-106253216D01*
X72960147Y-106105646D01*
X73085646Y-105980147D01*
X73233216Y-105881544D01*
X73397188Y-105813624D01*
X73546488Y-105783927D01*
X73571258Y-105779000D01*
X73748742Y-105779000D01*
X73773512Y-105783927D01*
G37*
G36*
X71233512Y-105783927D02*
G01*
X71382812Y-105813624D01*
X71546784Y-105881544D01*
X71694354Y-105980147D01*
X71819853Y-106105646D01*
X71918456Y-106253216D01*
X71986376Y-106417188D01*
X72021000Y-106591259D01*
X72021000Y-106768741D01*
X71986376Y-106942812D01*
X71918456Y-107106784D01*
X71819853Y-107254354D01*
X71694354Y-107379853D01*
X71546784Y-107478456D01*
X71382812Y-107546376D01*
X71233512Y-107576073D01*
X71208742Y-107581000D01*
X71031258Y-107581000D01*
X71006488Y-107576073D01*
X70857188Y-107546376D01*
X70693216Y-107478456D01*
X70545646Y-107379853D01*
X70420147Y-107254354D01*
X70321544Y-107106784D01*
X70253624Y-106942812D01*
X70219000Y-106768741D01*
X70219000Y-106591259D01*
X70253624Y-106417188D01*
X70321544Y-106253216D01*
X70420147Y-106105646D01*
X70545646Y-105980147D01*
X70693216Y-105881544D01*
X70857188Y-105813624D01*
X71006488Y-105783927D01*
X71031258Y-105779000D01*
X71208742Y-105779000D01*
X71233512Y-105783927D01*
G37*
G36*
X162673512Y-104767927D02*
G01*
X162822812Y-104797624D01*
X162986784Y-104865544D01*
X163134354Y-104964147D01*
X163259853Y-105089646D01*
X163358456Y-105237216D01*
X163426376Y-105401188D01*
X163461000Y-105575259D01*
X163461000Y-105752741D01*
X163426376Y-105926812D01*
X163358456Y-106090784D01*
X163259853Y-106238354D01*
X163134354Y-106363853D01*
X162986784Y-106462456D01*
X162822812Y-106530376D01*
X162673512Y-106560073D01*
X162648742Y-106565000D01*
X162471258Y-106565000D01*
X162446488Y-106560073D01*
X162297188Y-106530376D01*
X162133216Y-106462456D01*
X161985646Y-106363853D01*
X161860147Y-106238354D01*
X161761544Y-106090784D01*
X161693624Y-105926812D01*
X161659000Y-105752741D01*
X161659000Y-105575259D01*
X161693624Y-105401188D01*
X161761544Y-105237216D01*
X161860147Y-105089646D01*
X161985646Y-104964147D01*
X162133216Y-104865544D01*
X162297188Y-104797624D01*
X162446488Y-104767927D01*
X162471258Y-104763000D01*
X162648742Y-104763000D01*
X162673512Y-104767927D01*
G37*
G36*
X160921000Y-106565000D02*
G01*
X159119000Y-106565000D01*
X159119000Y-104763000D01*
X160921000Y-104763000D01*
X160921000Y-106565000D01*
G37*
G36*
X165213512Y-104767927D02*
G01*
X165362812Y-104797624D01*
X165526784Y-104865544D01*
X165674354Y-104964147D01*
X165799853Y-105089646D01*
X165898456Y-105237216D01*
X165966376Y-105401188D01*
X166001000Y-105575259D01*
X166001000Y-105752741D01*
X165966376Y-105926812D01*
X165898456Y-106090784D01*
X165799853Y-106238354D01*
X165674354Y-106363853D01*
X165526784Y-106462456D01*
X165362812Y-106530376D01*
X165213512Y-106560073D01*
X165188742Y-106565000D01*
X165011258Y-106565000D01*
X164986488Y-106560073D01*
X164837188Y-106530376D01*
X164673216Y-106462456D01*
X164525646Y-106363853D01*
X164400147Y-106238354D01*
X164301544Y-106090784D01*
X164233624Y-105926812D01*
X164199000Y-105752741D01*
X164199000Y-105575259D01*
X164233624Y-105401188D01*
X164301544Y-105237216D01*
X164400147Y-105089646D01*
X164525646Y-104964147D01*
X164673216Y-104865544D01*
X164837188Y-104797624D01*
X164986488Y-104767927D01*
X165011258Y-104763000D01*
X165188742Y-104763000D01*
X165213512Y-104767927D01*
G37*
G36*
X160921000Y-104025000D02*
G01*
X159119000Y-104025000D01*
X159119000Y-102223000D01*
X160921000Y-102223000D01*
X160921000Y-104025000D01*
G37*
G36*
X162673512Y-102227927D02*
G01*
X162822812Y-102257624D01*
X162986784Y-102325544D01*
X163134354Y-102424147D01*
X163259853Y-102549646D01*
X163358456Y-102697216D01*
X163426376Y-102861188D01*
X163461000Y-103035259D01*
X163461000Y-103212741D01*
X163426376Y-103386812D01*
X163358456Y-103550784D01*
X163259853Y-103698354D01*
X163134354Y-103823853D01*
X162986784Y-103922456D01*
X162822812Y-103990376D01*
X162673512Y-104020073D01*
X162648742Y-104025000D01*
X162471258Y-104025000D01*
X162446488Y-104020073D01*
X162297188Y-103990376D01*
X162133216Y-103922456D01*
X161985646Y-103823853D01*
X161860147Y-103698354D01*
X161761544Y-103550784D01*
X161693624Y-103386812D01*
X161659000Y-103212741D01*
X161659000Y-103035259D01*
X161693624Y-102861188D01*
X161761544Y-102697216D01*
X161860147Y-102549646D01*
X161985646Y-102424147D01*
X162133216Y-102325544D01*
X162297188Y-102257624D01*
X162446488Y-102227927D01*
X162471258Y-102223000D01*
X162648742Y-102223000D01*
X162673512Y-102227927D01*
G37*
G36*
X165213512Y-102227927D02*
G01*
X165362812Y-102257624D01*
X165526784Y-102325544D01*
X165674354Y-102424147D01*
X165799853Y-102549646D01*
X165898456Y-102697216D01*
X165966376Y-102861188D01*
X166001000Y-103035259D01*
X166001000Y-103212741D01*
X165966376Y-103386812D01*
X165898456Y-103550784D01*
X165799853Y-103698354D01*
X165674354Y-103823853D01*
X165526784Y-103922456D01*
X165362812Y-103990376D01*
X165213512Y-104020073D01*
X165188742Y-104025000D01*
X165011258Y-104025000D01*
X164986488Y-104020073D01*
X164837188Y-103990376D01*
X164673216Y-103922456D01*
X164525646Y-103823853D01*
X164400147Y-103698354D01*
X164301544Y-103550784D01*
X164233624Y-103386812D01*
X164199000Y-103212741D01*
X164199000Y-103035259D01*
X164233624Y-102861188D01*
X164301544Y-102697216D01*
X164400147Y-102549646D01*
X164525646Y-102424147D01*
X164673216Y-102325544D01*
X164837188Y-102257624D01*
X164986488Y-102227927D01*
X165011258Y-102223000D01*
X165188742Y-102223000D01*
X165213512Y-102227927D01*
G37*
G36*
X103967242Y-102048981D02*
G01*
X104113014Y-102109362D01*
X104113016Y-102109363D01*
X104244208Y-102197022D01*
X104355778Y-102308592D01*
X104432989Y-102424148D01*
X104443438Y-102439786D01*
X104503819Y-102585558D01*
X104534600Y-102740307D01*
X104534600Y-102898093D01*
X104503819Y-103052842D01*
X104464480Y-103147814D01*
X104443437Y-103198616D01*
X104355778Y-103329808D01*
X104244208Y-103441378D01*
X104113016Y-103529037D01*
X104113015Y-103529038D01*
X104113014Y-103529038D01*
X103967242Y-103589419D01*
X103812493Y-103620200D01*
X103654707Y-103620200D01*
X103499958Y-103589419D01*
X103354186Y-103529038D01*
X103354185Y-103529038D01*
X103354184Y-103529037D01*
X103222992Y-103441378D01*
X103111422Y-103329808D01*
X103023763Y-103198616D01*
X103002720Y-103147814D01*
X102963381Y-103052842D01*
X102932600Y-102898093D01*
X102932600Y-102740307D01*
X102963381Y-102585558D01*
X103023762Y-102439786D01*
X103034211Y-102424148D01*
X103111422Y-102308592D01*
X103222992Y-102197022D01*
X103354184Y-102109363D01*
X103354186Y-102109362D01*
X103499958Y-102048981D01*
X103654707Y-102018200D01*
X103812493Y-102018200D01*
X103967242Y-102048981D01*
G37*
G36*
X101224042Y-101998181D02*
G01*
X101369814Y-102058562D01*
X101369816Y-102058563D01*
X101501008Y-102146222D01*
X101612578Y-102257792D01*
X101657848Y-102325544D01*
X101700238Y-102388986D01*
X101760619Y-102534758D01*
X101791400Y-102689507D01*
X101791400Y-102847293D01*
X101760619Y-103002042D01*
X101739576Y-103052843D01*
X101700237Y-103147816D01*
X101612578Y-103279008D01*
X101501008Y-103390578D01*
X101369816Y-103478237D01*
X101369815Y-103478238D01*
X101369814Y-103478238D01*
X101224042Y-103538619D01*
X101069293Y-103569400D01*
X100911507Y-103569400D01*
X100756758Y-103538619D01*
X100610986Y-103478238D01*
X100610985Y-103478238D01*
X100610984Y-103478237D01*
X100479792Y-103390578D01*
X100368222Y-103279008D01*
X100280563Y-103147816D01*
X100241224Y-103052843D01*
X100220181Y-103002042D01*
X100189400Y-102847293D01*
X100189400Y-102689507D01*
X100220181Y-102534758D01*
X100280562Y-102388986D01*
X100322952Y-102325544D01*
X100368222Y-102257792D01*
X100479792Y-102146222D01*
X100610984Y-102058563D01*
X100610986Y-102058562D01*
X100756758Y-101998181D01*
X100911507Y-101967400D01*
X101069293Y-101967400D01*
X101224042Y-101998181D01*
G37*
G36*
X77101000Y-101993000D02*
G01*
X75299000Y-101993000D01*
X75299000Y-100191000D01*
X77101000Y-100191000D01*
X77101000Y-101993000D01*
G37*
G36*
X73773512Y-100195927D02*
G01*
X73922812Y-100225624D01*
X74086784Y-100293544D01*
X74234354Y-100392147D01*
X74359853Y-100517646D01*
X74458456Y-100665216D01*
X74526376Y-100829188D01*
X74561000Y-101003259D01*
X74561000Y-101180741D01*
X74526376Y-101354812D01*
X74458456Y-101518784D01*
X74359853Y-101666354D01*
X74234354Y-101791853D01*
X74086784Y-101890456D01*
X73922812Y-101958376D01*
X73773512Y-101988073D01*
X73748742Y-101993000D01*
X73571258Y-101993000D01*
X73546488Y-101988073D01*
X73397188Y-101958376D01*
X73233216Y-101890456D01*
X73085646Y-101791853D01*
X72960147Y-101666354D01*
X72861544Y-101518784D01*
X72793624Y-101354812D01*
X72759000Y-101180741D01*
X72759000Y-101003259D01*
X72793624Y-100829188D01*
X72861544Y-100665216D01*
X72960147Y-100517646D01*
X73085646Y-100392147D01*
X73233216Y-100293544D01*
X73397188Y-100225624D01*
X73546488Y-100195927D01*
X73571258Y-100191000D01*
X73748742Y-100191000D01*
X73773512Y-100195927D01*
G37*
G36*
X71233512Y-100195927D02*
G01*
X71382812Y-100225624D01*
X71546784Y-100293544D01*
X71694354Y-100392147D01*
X71819853Y-100517646D01*
X71918456Y-100665216D01*
X71986376Y-100829188D01*
X72021000Y-101003259D01*
X72021000Y-101180741D01*
X71986376Y-101354812D01*
X71918456Y-101518784D01*
X71819853Y-101666354D01*
X71694354Y-101791853D01*
X71546784Y-101890456D01*
X71382812Y-101958376D01*
X71233512Y-101988073D01*
X71208742Y-101993000D01*
X71031258Y-101993000D01*
X71006488Y-101988073D01*
X70857188Y-101958376D01*
X70693216Y-101890456D01*
X70545646Y-101791853D01*
X70420147Y-101666354D01*
X70321544Y-101518784D01*
X70253624Y-101354812D01*
X70219000Y-101180741D01*
X70219000Y-101003259D01*
X70253624Y-100829188D01*
X70321544Y-100665216D01*
X70420147Y-100517646D01*
X70545646Y-100392147D01*
X70693216Y-100293544D01*
X70857188Y-100225624D01*
X71006488Y-100195927D01*
X71031258Y-100191000D01*
X71208742Y-100191000D01*
X71233512Y-100195927D01*
G37*
G36*
X77101000Y-99453000D02*
G01*
X75299000Y-99453000D01*
X75299000Y-97651000D01*
X77101000Y-97651000D01*
X77101000Y-99453000D01*
G37*
G36*
X73773512Y-97655927D02*
G01*
X73922812Y-97685624D01*
X74086784Y-97753544D01*
X74234354Y-97852147D01*
X74359853Y-97977646D01*
X74458456Y-98125216D01*
X74526376Y-98289188D01*
X74561000Y-98463259D01*
X74561000Y-98640741D01*
X74526376Y-98814812D01*
X74458456Y-98978784D01*
X74359853Y-99126354D01*
X74234354Y-99251853D01*
X74086784Y-99350456D01*
X73922812Y-99418376D01*
X73773512Y-99448073D01*
X73748742Y-99453000D01*
X73571258Y-99453000D01*
X73546488Y-99448073D01*
X73397188Y-99418376D01*
X73233216Y-99350456D01*
X73085646Y-99251853D01*
X72960147Y-99126354D01*
X72861544Y-98978784D01*
X72793624Y-98814812D01*
X72759000Y-98640741D01*
X72759000Y-98463259D01*
X72793624Y-98289188D01*
X72861544Y-98125216D01*
X72960147Y-97977646D01*
X73085646Y-97852147D01*
X73233216Y-97753544D01*
X73397188Y-97685624D01*
X73546488Y-97655927D01*
X73571258Y-97651000D01*
X73748742Y-97651000D01*
X73773512Y-97655927D01*
G37*
G36*
X71233512Y-97655927D02*
G01*
X71382812Y-97685624D01*
X71546784Y-97753544D01*
X71694354Y-97852147D01*
X71819853Y-97977646D01*
X71918456Y-98125216D01*
X71986376Y-98289188D01*
X72021000Y-98463259D01*
X72021000Y-98640741D01*
X71986376Y-98814812D01*
X71918456Y-98978784D01*
X71819853Y-99126354D01*
X71694354Y-99251853D01*
X71546784Y-99350456D01*
X71382812Y-99418376D01*
X71233512Y-99448073D01*
X71208742Y-99453000D01*
X71031258Y-99453000D01*
X71006488Y-99448073D01*
X70857188Y-99418376D01*
X70693216Y-99350456D01*
X70545646Y-99251853D01*
X70420147Y-99126354D01*
X70321544Y-98978784D01*
X70253624Y-98814812D01*
X70219000Y-98640741D01*
X70219000Y-98463259D01*
X70253624Y-98289188D01*
X70321544Y-98125216D01*
X70420147Y-97977646D01*
X70545646Y-97852147D01*
X70693216Y-97753544D01*
X70857188Y-97685624D01*
X71006488Y-97655927D01*
X71031258Y-97651000D01*
X71208742Y-97651000D01*
X71233512Y-97655927D01*
G37*
G36*
X117835642Y-97375381D02*
G01*
X117981414Y-97435762D01*
X117981416Y-97435763D01*
X118112608Y-97523422D01*
X118224178Y-97634992D01*
X118303391Y-97753544D01*
X118311838Y-97766186D01*
X118372219Y-97911958D01*
X118403000Y-98066707D01*
X118403000Y-98224493D01*
X118372219Y-98379242D01*
X118337418Y-98463258D01*
X118311837Y-98525016D01*
X118224178Y-98656208D01*
X118112608Y-98767778D01*
X117981416Y-98855437D01*
X117981415Y-98855438D01*
X117981414Y-98855438D01*
X117835642Y-98915819D01*
X117680893Y-98946600D01*
X117523107Y-98946600D01*
X117368358Y-98915819D01*
X117222586Y-98855438D01*
X117222585Y-98855438D01*
X117222584Y-98855437D01*
X117091392Y-98767778D01*
X116979822Y-98656208D01*
X116892163Y-98525016D01*
X116866582Y-98463258D01*
X116831781Y-98379242D01*
X116801000Y-98224493D01*
X116801000Y-98066707D01*
X116831781Y-97911958D01*
X116892162Y-97766186D01*
X116900609Y-97753544D01*
X116979822Y-97634992D01*
X117091392Y-97523422D01*
X117222584Y-97435763D01*
X117222586Y-97435762D01*
X117368358Y-97375381D01*
X117523107Y-97344600D01*
X117680893Y-97344600D01*
X117835642Y-97375381D01*
G37*
G36*
X77101000Y-96913000D02*
G01*
X75299000Y-96913000D01*
X75299000Y-95111000D01*
X77101000Y-95111000D01*
X77101000Y-96913000D01*
G37*
G36*
X73773512Y-95115927D02*
G01*
X73922812Y-95145624D01*
X74086784Y-95213544D01*
X74234354Y-95312147D01*
X74359853Y-95437646D01*
X74458456Y-95585216D01*
X74526376Y-95749188D01*
X74561000Y-95923259D01*
X74561000Y-96100741D01*
X74526376Y-96274812D01*
X74458456Y-96438784D01*
X74359853Y-96586354D01*
X74234354Y-96711853D01*
X74086784Y-96810456D01*
X73922812Y-96878376D01*
X73773512Y-96908073D01*
X73748742Y-96913000D01*
X73571258Y-96913000D01*
X73546488Y-96908073D01*
X73397188Y-96878376D01*
X73233216Y-96810456D01*
X73085646Y-96711853D01*
X72960147Y-96586354D01*
X72861544Y-96438784D01*
X72793624Y-96274812D01*
X72759000Y-96100741D01*
X72759000Y-95923259D01*
X72793624Y-95749188D01*
X72861544Y-95585216D01*
X72960147Y-95437646D01*
X73085646Y-95312147D01*
X73233216Y-95213544D01*
X73397188Y-95145624D01*
X73546488Y-95115927D01*
X73571258Y-95111000D01*
X73748742Y-95111000D01*
X73773512Y-95115927D01*
G37*
G36*
X71233512Y-95115927D02*
G01*
X71382812Y-95145624D01*
X71546784Y-95213544D01*
X71694354Y-95312147D01*
X71819853Y-95437646D01*
X71918456Y-95585216D01*
X71986376Y-95749188D01*
X72021000Y-95923259D01*
X72021000Y-96100741D01*
X71986376Y-96274812D01*
X71918456Y-96438784D01*
X71819853Y-96586354D01*
X71694354Y-96711853D01*
X71546784Y-96810456D01*
X71382812Y-96878376D01*
X71233512Y-96908073D01*
X71208742Y-96913000D01*
X71031258Y-96913000D01*
X71006488Y-96908073D01*
X70857188Y-96878376D01*
X70693216Y-96810456D01*
X70545646Y-96711853D01*
X70420147Y-96586354D01*
X70321544Y-96438784D01*
X70253624Y-96274812D01*
X70219000Y-96100741D01*
X70219000Y-95923259D01*
X70253624Y-95749188D01*
X70321544Y-95585216D01*
X70420147Y-95437646D01*
X70545646Y-95312147D01*
X70693216Y-95213544D01*
X70857188Y-95145624D01*
X71006488Y-95115927D01*
X71031258Y-95111000D01*
X71208742Y-95111000D01*
X71233512Y-95115927D01*
G37*
G36*
X73773512Y-92575927D02*
G01*
X73922812Y-92605624D01*
X74086784Y-92673544D01*
X74234354Y-92772147D01*
X74359853Y-92897646D01*
X74458456Y-93045216D01*
X74526376Y-93209188D01*
X74561000Y-93383259D01*
X74561000Y-93560741D01*
X74526376Y-93734812D01*
X74458456Y-93898784D01*
X74359853Y-94046354D01*
X74234354Y-94171853D01*
X74086784Y-94270456D01*
X73922812Y-94338376D01*
X73773512Y-94368073D01*
X73748742Y-94373000D01*
X73571258Y-94373000D01*
X73546488Y-94368073D01*
X73397188Y-94338376D01*
X73233216Y-94270456D01*
X73085646Y-94171853D01*
X72960147Y-94046354D01*
X72861544Y-93898784D01*
X72793624Y-93734812D01*
X72759000Y-93560741D01*
X72759000Y-93383259D01*
X72793624Y-93209188D01*
X72861544Y-93045216D01*
X72960147Y-92897646D01*
X73085646Y-92772147D01*
X73233216Y-92673544D01*
X73397188Y-92605624D01*
X73546488Y-92575927D01*
X73571258Y-92571000D01*
X73748742Y-92571000D01*
X73773512Y-92575927D01*
G37*
G36*
X77101000Y-94373000D02*
G01*
X75299000Y-94373000D01*
X75299000Y-92571000D01*
X77101000Y-92571000D01*
X77101000Y-94373000D01*
G37*
G36*
X71233512Y-92575927D02*
G01*
X71382812Y-92605624D01*
X71546784Y-92673544D01*
X71694354Y-92772147D01*
X71819853Y-92897646D01*
X71918456Y-93045216D01*
X71986376Y-93209188D01*
X72021000Y-93383259D01*
X72021000Y-93560741D01*
X71986376Y-93734812D01*
X71918456Y-93898784D01*
X71819853Y-94046354D01*
X71694354Y-94171853D01*
X71546784Y-94270456D01*
X71382812Y-94338376D01*
X71233512Y-94368073D01*
X71208742Y-94373000D01*
X71031258Y-94373000D01*
X71006488Y-94368073D01*
X70857188Y-94338376D01*
X70693216Y-94270456D01*
X70545646Y-94171853D01*
X70420147Y-94046354D01*
X70321544Y-93898784D01*
X70253624Y-93734812D01*
X70219000Y-93560741D01*
X70219000Y-93383259D01*
X70253624Y-93209188D01*
X70321544Y-93045216D01*
X70420147Y-92897646D01*
X70545646Y-92772147D01*
X70693216Y-92673544D01*
X70857188Y-92605624D01*
X71006488Y-92575927D01*
X71031258Y-92571000D01*
X71208742Y-92571000D01*
X71233512Y-92575927D01*
G37*
G36*
X137596842Y-90364981D02*
G01*
X137742614Y-90425362D01*
X137742616Y-90425363D01*
X137873808Y-90513022D01*
X137985378Y-90624592D01*
X138073037Y-90755784D01*
X138073038Y-90755786D01*
X138133419Y-90901558D01*
X138164200Y-91056307D01*
X138164200Y-91214093D01*
X138133419Y-91368842D01*
X138073038Y-91514614D01*
X138073037Y-91514616D01*
X137985378Y-91645808D01*
X137873808Y-91757378D01*
X137742616Y-91845037D01*
X137742615Y-91845038D01*
X137742614Y-91845038D01*
X137596842Y-91905419D01*
X137442093Y-91936200D01*
X137284307Y-91936200D01*
X137129558Y-91905419D01*
X136983786Y-91845038D01*
X136983785Y-91845038D01*
X136983784Y-91845037D01*
X136852592Y-91757378D01*
X136741022Y-91645808D01*
X136653363Y-91514616D01*
X136653362Y-91514614D01*
X136592981Y-91368842D01*
X136562200Y-91214093D01*
X136562200Y-91056307D01*
X136592981Y-90901558D01*
X136653362Y-90755786D01*
X136653363Y-90755784D01*
X136741022Y-90624592D01*
X136852592Y-90513022D01*
X136983784Y-90425363D01*
X136983786Y-90425362D01*
X137129558Y-90364981D01*
X137284307Y-90334200D01*
X137442093Y-90334200D01*
X137596842Y-90364981D01*
G37*
G36*
X132567642Y-89044181D02*
G01*
X132713414Y-89104562D01*
X132713416Y-89104563D01*
X132844608Y-89192222D01*
X132956178Y-89303792D01*
X133043837Y-89434984D01*
X133043838Y-89434986D01*
X133104219Y-89580758D01*
X133135000Y-89735507D01*
X133135000Y-89893293D01*
X133104219Y-90048042D01*
X133043838Y-90193814D01*
X133043837Y-90193816D01*
X132956178Y-90325008D01*
X132844608Y-90436578D01*
X132713416Y-90524237D01*
X132713415Y-90524238D01*
X132713414Y-90524238D01*
X132567642Y-90584619D01*
X132412893Y-90615400D01*
X132255107Y-90615400D01*
X132100358Y-90584619D01*
X131954586Y-90524238D01*
X131954585Y-90524238D01*
X131954584Y-90524237D01*
X131823392Y-90436578D01*
X131711822Y-90325008D01*
X131624163Y-90193816D01*
X131624162Y-90193814D01*
X131563781Y-90048042D01*
X131533000Y-89893293D01*
X131533000Y-89735507D01*
X131563781Y-89580758D01*
X131624162Y-89434986D01*
X131624163Y-89434984D01*
X131711822Y-89303792D01*
X131823392Y-89192222D01*
X131954584Y-89104563D01*
X131954586Y-89104562D01*
X132100358Y-89044181D01*
X132255107Y-89013400D01*
X132412893Y-89013400D01*
X132567642Y-89044181D01*
G37*
G36*
X147963415Y-87418173D02*
G01*
X148067279Y-87449679D01*
X148094455Y-87464205D01*
X148163000Y-87500843D01*
X148246901Y-87569699D01*
X148315757Y-87653600D01*
X148334480Y-87688629D01*
X148366921Y-87749321D01*
X148398427Y-87853185D01*
X148406400Y-87934133D01*
X148406400Y-89088267D01*
X148398427Y-89169215D01*
X148366921Y-89273079D01*
X148315756Y-89368800D01*
X148246901Y-89452701D01*
X148178045Y-89509209D01*
X148162999Y-89521557D01*
X148111307Y-89549187D01*
X148067278Y-89572721D01*
X147963414Y-89604227D01*
X147855400Y-89614866D01*
X147747385Y-89604227D01*
X147643521Y-89572721D01*
X147599493Y-89549187D01*
X147547801Y-89521557D01*
X147535043Y-89511087D01*
X147463899Y-89452701D01*
X147395044Y-89368800D01*
X147343879Y-89273078D01*
X147312373Y-89169214D01*
X147304400Y-89088266D01*
X147304401Y-87934133D01*
X147312374Y-87853185D01*
X147343880Y-87749321D01*
X147376321Y-87688629D01*
X147395044Y-87653600D01*
X147463900Y-87569699D01*
X147547801Y-87500843D01*
X147616346Y-87464205D01*
X147643522Y-87449679D01*
X147747386Y-87418173D01*
X147855400Y-87407534D01*
X147963415Y-87418173D01*
G37*
G36*
X139323415Y-87418173D02*
G01*
X139427279Y-87449679D01*
X139454455Y-87464205D01*
X139523000Y-87500843D01*
X139606901Y-87569699D01*
X139675757Y-87653600D01*
X139694480Y-87688629D01*
X139726921Y-87749321D01*
X139758427Y-87853185D01*
X139766400Y-87934133D01*
X139766400Y-89088267D01*
X139758427Y-89169215D01*
X139726921Y-89273079D01*
X139675756Y-89368800D01*
X139606901Y-89452701D01*
X139538045Y-89509209D01*
X139522999Y-89521557D01*
X139471307Y-89549187D01*
X139427278Y-89572721D01*
X139323414Y-89604227D01*
X139215400Y-89614866D01*
X139107385Y-89604227D01*
X139003521Y-89572721D01*
X138959493Y-89549187D01*
X138907801Y-89521557D01*
X138895043Y-89511087D01*
X138823899Y-89452701D01*
X138755044Y-89368800D01*
X138703879Y-89273078D01*
X138672373Y-89169214D01*
X138664400Y-89088266D01*
X138664401Y-87934133D01*
X138672374Y-87853185D01*
X138703880Y-87749321D01*
X138736321Y-87688629D01*
X138755044Y-87653600D01*
X138823900Y-87569699D01*
X138907801Y-87500843D01*
X138976346Y-87464205D01*
X139003522Y-87449679D01*
X139107386Y-87418173D01*
X139215400Y-87407534D01*
X139323415Y-87418173D01*
G37*
G36*
X125703087Y-85972596D02*
G01*
X125939853Y-86070668D01*
X125939855Y-86070669D01*
X126152939Y-86213047D01*
X126334153Y-86394261D01*
X126425905Y-86531577D01*
X126476532Y-86607347D01*
X126574604Y-86844113D01*
X126624600Y-87095461D01*
X126624600Y-87351739D01*
X126574604Y-87603087D01*
X126482554Y-87825314D01*
X126476531Y-87839855D01*
X126334153Y-88052939D01*
X126152939Y-88234153D01*
X125939855Y-88376531D01*
X125939854Y-88376532D01*
X125939853Y-88376532D01*
X125703087Y-88474604D01*
X125451739Y-88524600D01*
X125195461Y-88524600D01*
X124944113Y-88474604D01*
X124707347Y-88376532D01*
X124707346Y-88376532D01*
X124707345Y-88376531D01*
X124494261Y-88234153D01*
X124313047Y-88052939D01*
X124170669Y-87839855D01*
X124164646Y-87825314D01*
X124072596Y-87603087D01*
X124022600Y-87351739D01*
X124022600Y-87095461D01*
X124072596Y-86844113D01*
X124170668Y-86607347D01*
X124221296Y-86531577D01*
X124313047Y-86394261D01*
X124494261Y-86213047D01*
X124707345Y-86070669D01*
X124707347Y-86070668D01*
X124944113Y-85972596D01*
X125195461Y-85922600D01*
X125451739Y-85922600D01*
X125703087Y-85972596D01*
G37*
G36*
X140755072Y-87649649D02*
G01*
X140755074Y-87649650D01*
X140755075Y-87649650D01*
X140823503Y-87677993D01*
X140885086Y-87719142D01*
X140937458Y-87771514D01*
X140978607Y-87833097D01*
X141006950Y-87901525D01*
X141006951Y-87901528D01*
X141021400Y-87974166D01*
X141021400Y-88048234D01*
X141012042Y-88095281D01*
X141006950Y-88120875D01*
X140978607Y-88189303D01*
X140937458Y-88250886D01*
X140885086Y-88303258D01*
X140823503Y-88344407D01*
X140755075Y-88372750D01*
X140755074Y-88372750D01*
X140755072Y-88372751D01*
X140682434Y-88387200D01*
X140608366Y-88387200D01*
X140535728Y-88372751D01*
X140535726Y-88372750D01*
X140535725Y-88372750D01*
X140467297Y-88344407D01*
X140405714Y-88303258D01*
X140353342Y-88250886D01*
X140312193Y-88189303D01*
X140283850Y-88120875D01*
X140278759Y-88095281D01*
X140269400Y-88048234D01*
X140269400Y-87974166D01*
X140283849Y-87901528D01*
X140283850Y-87901525D01*
X140312193Y-87833097D01*
X140353342Y-87771514D01*
X140405714Y-87719142D01*
X140467297Y-87677993D01*
X140535725Y-87649650D01*
X140535726Y-87649650D01*
X140535728Y-87649649D01*
X140608366Y-87635200D01*
X140682434Y-87635200D01*
X140755072Y-87649649D01*
G37*
G36*
X146535072Y-87649649D02*
G01*
X146535074Y-87649650D01*
X146535075Y-87649650D01*
X146603503Y-87677993D01*
X146665086Y-87719142D01*
X146717458Y-87771514D01*
X146758607Y-87833097D01*
X146786950Y-87901525D01*
X146786951Y-87901528D01*
X146801400Y-87974166D01*
X146801400Y-88048234D01*
X146792042Y-88095281D01*
X146786950Y-88120875D01*
X146758607Y-88189303D01*
X146717458Y-88250886D01*
X146665086Y-88303258D01*
X146603503Y-88344407D01*
X146535075Y-88372750D01*
X146535074Y-88372750D01*
X146535072Y-88372751D01*
X146462434Y-88387200D01*
X146388366Y-88387200D01*
X146315728Y-88372751D01*
X146315726Y-88372750D01*
X146315725Y-88372750D01*
X146247297Y-88344407D01*
X146185714Y-88303258D01*
X146133342Y-88250886D01*
X146092193Y-88189303D01*
X146063850Y-88120875D01*
X146058759Y-88095281D01*
X146049400Y-88048234D01*
X146049400Y-87974166D01*
X146063849Y-87901528D01*
X146063850Y-87901525D01*
X146092193Y-87833097D01*
X146133342Y-87771514D01*
X146185714Y-87719142D01*
X146247297Y-87677993D01*
X146315725Y-87649650D01*
X146315726Y-87649650D01*
X146315728Y-87649649D01*
X146388366Y-87635200D01*
X146462434Y-87635200D01*
X146535072Y-87649649D01*
G37*
G36*
X130263503Y-82737301D02*
G01*
X130602437Y-82804719D01*
X131103087Y-83012095D01*
X131202521Y-83078535D01*
X131553660Y-83313158D01*
X131936842Y-83696340D01*
X132088751Y-83923689D01*
X132237905Y-84146913D01*
X132445281Y-84647563D01*
X132445281Y-84647564D01*
X132551000Y-85179049D01*
X132551000Y-85720951D01*
X132515186Y-85901000D01*
X132445281Y-86252437D01*
X132237905Y-86753087D01*
X132214930Y-86787471D01*
X131936842Y-87203660D01*
X131553660Y-87586842D01*
X131355658Y-87719142D01*
X131103087Y-87887905D01*
X130602437Y-88095281D01*
X130336694Y-88148140D01*
X130070951Y-88201000D01*
X129529049Y-88201000D01*
X129263307Y-88148141D01*
X128997563Y-88095281D01*
X128496913Y-87887905D01*
X128244342Y-87719142D01*
X128046340Y-87586842D01*
X127663158Y-87203660D01*
X127385070Y-86787471D01*
X127362095Y-86753087D01*
X127154719Y-86252437D01*
X127084814Y-85901000D01*
X127049000Y-85720951D01*
X127049000Y-85179049D01*
X127154719Y-84647564D01*
X127154719Y-84647563D01*
X127362095Y-84146913D01*
X127511249Y-83923689D01*
X127663158Y-83696340D01*
X128046340Y-83313158D01*
X128397479Y-83078535D01*
X128496913Y-83012095D01*
X128997563Y-82804719D01*
X129336497Y-82737301D01*
X129529049Y-82699000D01*
X130070951Y-82699000D01*
X130263503Y-82737301D01*
G37*
G36*
X72264951Y-82687589D02*
G01*
X72602437Y-82754719D01*
X73103087Y-82962095D01*
X73271591Y-83074686D01*
X73553660Y-83263158D01*
X73936842Y-83646340D01*
X74090295Y-83876000D01*
X74237905Y-84096913D01*
X74445281Y-84597563D01*
X74483213Y-84788260D01*
X74551000Y-85129049D01*
X74551000Y-85670951D01*
X74515450Y-85849671D01*
X74445281Y-86202437D01*
X74237905Y-86703087D01*
X74204496Y-86753087D01*
X73936842Y-87153660D01*
X73553660Y-87536842D01*
X73342412Y-87677993D01*
X73103087Y-87837905D01*
X72602437Y-88045281D01*
X72351069Y-88095281D01*
X72070951Y-88151000D01*
X71529049Y-88151000D01*
X71248931Y-88095281D01*
X70997563Y-88045281D01*
X70496913Y-87837905D01*
X70257588Y-87677993D01*
X70046340Y-87536842D01*
X69663158Y-87153660D01*
X69395504Y-86753087D01*
X69362095Y-86703087D01*
X69154719Y-86202437D01*
X69084550Y-85849671D01*
X69049000Y-85670951D01*
X69049000Y-85129049D01*
X69116787Y-84788260D01*
X69154719Y-84597563D01*
X69362095Y-84096913D01*
X69509705Y-83876000D01*
X69663158Y-83646340D01*
X70046340Y-83263158D01*
X70328409Y-83074686D01*
X70496913Y-82962095D01*
X70997563Y-82754719D01*
X71335049Y-82687589D01*
X71529049Y-82649000D01*
X72070951Y-82649000D01*
X72264951Y-82687589D01*
G37*
G36*
X115289087Y-85108996D02*
G01*
X115475886Y-85186371D01*
X115525855Y-85207069D01*
X115738939Y-85349447D01*
X115920153Y-85530661D01*
X116058356Y-85737496D01*
X116062532Y-85743747D01*
X116160604Y-85980513D01*
X116210600Y-86231861D01*
X116210600Y-86488139D01*
X116160604Y-86739487D01*
X116067838Y-86963443D01*
X116062531Y-86976255D01*
X115920153Y-87189339D01*
X115738939Y-87370553D01*
X115525855Y-87512931D01*
X115525854Y-87512932D01*
X115525853Y-87512932D01*
X115289087Y-87611004D01*
X115037739Y-87661000D01*
X114781461Y-87661000D01*
X114530113Y-87611004D01*
X114293347Y-87512932D01*
X114293346Y-87512932D01*
X114293345Y-87512931D01*
X114080261Y-87370553D01*
X113899047Y-87189339D01*
X113756669Y-86976255D01*
X113751362Y-86963443D01*
X113658596Y-86739487D01*
X113608600Y-86488139D01*
X113608600Y-86231861D01*
X113658596Y-85980513D01*
X113756668Y-85743747D01*
X113760845Y-85737496D01*
X113899047Y-85530661D01*
X114080261Y-85349447D01*
X114293345Y-85207069D01*
X114343314Y-85186371D01*
X114530113Y-85108996D01*
X114781461Y-85059000D01*
X115037739Y-85059000D01*
X115289087Y-85108996D01*
G37*
G36*
X123170353Y-83025329D02*
G01*
X123308657Y-83052839D01*
X123370692Y-83078535D01*
X123563621Y-83158449D01*
X123563622Y-83158450D01*
X123793086Y-83311772D01*
X123988228Y-83506914D01*
X124042828Y-83588629D01*
X124141551Y-83736379D01*
X124157412Y-83774671D01*
X124247161Y-83991343D01*
X124248672Y-83998939D01*
X124301000Y-84262012D01*
X124301000Y-84537988D01*
X124279204Y-84647563D01*
X124247161Y-84808657D01*
X124222077Y-84869214D01*
X124141551Y-85063621D01*
X124117453Y-85099686D01*
X123988228Y-85293086D01*
X123793086Y-85488228D01*
X123653416Y-85581552D01*
X123563621Y-85641551D01*
X123452700Y-85687496D01*
X123308657Y-85747161D01*
X123218433Y-85765107D01*
X123037988Y-85801000D01*
X122762012Y-85801000D01*
X122581567Y-85765107D01*
X122491343Y-85747161D01*
X122347300Y-85687496D01*
X122236379Y-85641551D01*
X122146584Y-85581552D01*
X122006914Y-85488228D01*
X121811772Y-85293086D01*
X121682547Y-85099686D01*
X121658449Y-85063621D01*
X121577923Y-84869214D01*
X121552839Y-84808657D01*
X121520796Y-84647563D01*
X121499000Y-84537988D01*
X121499000Y-84262012D01*
X121551328Y-83998939D01*
X121552839Y-83991343D01*
X121642588Y-83774671D01*
X121658449Y-83736379D01*
X121757172Y-83588629D01*
X121811772Y-83506914D01*
X122006914Y-83311772D01*
X122236378Y-83158450D01*
X122236379Y-83158449D01*
X122429308Y-83078535D01*
X122491343Y-83052839D01*
X122629647Y-83025329D01*
X122762012Y-82999000D01*
X123037988Y-82999000D01*
X123170353Y-83025329D01*
G37*
G36*
X118170353Y-83025329D02*
G01*
X118308657Y-83052839D01*
X118370692Y-83078535D01*
X118563621Y-83158449D01*
X118563622Y-83158450D01*
X118793086Y-83311772D01*
X118988228Y-83506914D01*
X119042828Y-83588629D01*
X119141551Y-83736379D01*
X119157412Y-83774671D01*
X119247161Y-83991343D01*
X119248672Y-83998939D01*
X119301000Y-84262012D01*
X119301000Y-84537988D01*
X119279204Y-84647563D01*
X119247161Y-84808657D01*
X119222077Y-84869214D01*
X119141551Y-85063621D01*
X119117453Y-85099686D01*
X118988228Y-85293086D01*
X118793086Y-85488228D01*
X118653416Y-85581552D01*
X118563621Y-85641551D01*
X118452700Y-85687496D01*
X118308657Y-85747161D01*
X118218433Y-85765107D01*
X118037988Y-85801000D01*
X117762012Y-85801000D01*
X117581567Y-85765107D01*
X117491343Y-85747161D01*
X117347300Y-85687496D01*
X117236379Y-85641551D01*
X117146584Y-85581552D01*
X117006914Y-85488228D01*
X116811772Y-85293086D01*
X116682547Y-85099686D01*
X116658449Y-85063621D01*
X116577923Y-84869214D01*
X116552839Y-84808657D01*
X116520796Y-84647563D01*
X116499000Y-84537988D01*
X116499000Y-84262012D01*
X116551328Y-83998939D01*
X116552839Y-83991343D01*
X116642588Y-83774671D01*
X116658449Y-83736379D01*
X116757172Y-83588629D01*
X116811772Y-83506914D01*
X117006914Y-83311772D01*
X117236378Y-83158450D01*
X117236379Y-83158449D01*
X117429308Y-83078535D01*
X117491343Y-83052839D01*
X117629647Y-83025329D01*
X117762012Y-82999000D01*
X118037988Y-82999000D01*
X118170353Y-83025329D01*
G37*
G36*
X147963415Y-83418173D02*
G01*
X148067279Y-83449679D01*
X148094455Y-83464205D01*
X148163000Y-83500843D01*
X148246901Y-83569699D01*
X148315757Y-83653600D01*
X148347237Y-83712496D01*
X148366921Y-83749321D01*
X148398427Y-83853185D01*
X148406400Y-83934133D01*
X148406400Y-84788267D01*
X148398427Y-84869215D01*
X148366921Y-84973079D01*
X148352355Y-85000329D01*
X148318525Y-85063621D01*
X148315756Y-85068800D01*
X148246901Y-85152701D01*
X148180654Y-85207068D01*
X148162999Y-85221557D01*
X148111307Y-85249187D01*
X148067278Y-85272721D01*
X147963414Y-85304227D01*
X147855400Y-85314866D01*
X147747385Y-85304227D01*
X147643521Y-85272721D01*
X147575516Y-85236371D01*
X147547801Y-85221557D01*
X147530146Y-85207068D01*
X147463899Y-85152701D01*
X147395044Y-85068800D01*
X147392276Y-85063621D01*
X147357735Y-84999000D01*
X147343879Y-84973078D01*
X147312373Y-84869214D01*
X147304400Y-84788266D01*
X147304400Y-83934133D01*
X147312373Y-83853185D01*
X147312846Y-83851627D01*
X147343880Y-83749322D01*
X147343880Y-83749321D01*
X147363564Y-83712496D01*
X147395044Y-83653600D01*
X147463900Y-83569699D01*
X147547801Y-83500843D01*
X147616346Y-83464205D01*
X147643522Y-83449679D01*
X147747386Y-83418173D01*
X147855400Y-83407534D01*
X147963415Y-83418173D01*
G37*
G36*
X139318415Y-83418173D02*
G01*
X139422279Y-83449679D01*
X139449455Y-83464205D01*
X139518000Y-83500843D01*
X139601901Y-83569699D01*
X139670757Y-83653600D01*
X139702237Y-83712496D01*
X139721921Y-83749321D01*
X139753427Y-83853185D01*
X139761400Y-83934133D01*
X139761400Y-84788267D01*
X139753427Y-84869215D01*
X139721921Y-84973079D01*
X139707355Y-85000329D01*
X139673525Y-85063621D01*
X139670756Y-85068800D01*
X139601901Y-85152701D01*
X139535654Y-85207068D01*
X139517999Y-85221557D01*
X139466307Y-85249187D01*
X139422278Y-85272721D01*
X139318414Y-85304227D01*
X139210400Y-85314866D01*
X139102385Y-85304227D01*
X138998521Y-85272721D01*
X138930516Y-85236371D01*
X138902801Y-85221557D01*
X138885146Y-85207068D01*
X138818899Y-85152701D01*
X138750044Y-85068800D01*
X138747276Y-85063621D01*
X138712735Y-84999000D01*
X138698879Y-84973078D01*
X138667373Y-84869214D01*
X138659400Y-84788266D01*
X138659400Y-83934133D01*
X138667373Y-83853185D01*
X138667846Y-83851627D01*
X138698880Y-83749322D01*
X138698880Y-83749321D01*
X138718564Y-83712496D01*
X138750044Y-83653600D01*
X138818900Y-83569699D01*
X138902801Y-83500843D01*
X138971346Y-83464205D01*
X138998522Y-83449679D01*
X139102386Y-83418173D01*
X139210400Y-83407534D01*
X139318415Y-83418173D01*
G37*
G36*
X85825087Y-82619796D02*
G01*
X86035381Y-82706903D01*
X86061855Y-82717869D01*
X86274939Y-82860247D01*
X86456153Y-83041461D01*
X86594408Y-83248374D01*
X86598532Y-83254547D01*
X86696604Y-83491313D01*
X86746600Y-83742661D01*
X86746600Y-83998939D01*
X86696604Y-84250287D01*
X86598532Y-84487053D01*
X86598531Y-84487055D01*
X86456153Y-84700139D01*
X86274939Y-84881353D01*
X86061855Y-85023731D01*
X86061854Y-85023732D01*
X86061853Y-85023732D01*
X85825087Y-85121804D01*
X85573739Y-85171800D01*
X85317461Y-85171800D01*
X85066113Y-85121804D01*
X84829347Y-85023732D01*
X84829346Y-85023732D01*
X84829345Y-85023731D01*
X84616261Y-84881353D01*
X84435047Y-84700139D01*
X84292669Y-84487055D01*
X84292668Y-84487053D01*
X84194596Y-84250287D01*
X84144600Y-83998939D01*
X84144600Y-83742661D01*
X84194596Y-83491313D01*
X84292668Y-83254547D01*
X84296793Y-83248374D01*
X84435047Y-83041461D01*
X84616261Y-82860247D01*
X84829345Y-82717869D01*
X84855819Y-82706903D01*
X85066113Y-82619796D01*
X85317461Y-82569800D01*
X85573739Y-82569800D01*
X85825087Y-82619796D01*
G37*
G36*
X158076626Y-82537037D02*
G01*
X158246465Y-82588557D01*
X158246467Y-82588558D01*
X158402989Y-82672221D01*
X158540186Y-82784814D01*
X158602091Y-82860247D01*
X158652778Y-82922009D01*
X158736443Y-83078534D01*
X158787963Y-83248373D01*
X158787963Y-83248375D01*
X158801000Y-83380740D01*
X158801000Y-83719259D01*
X158799882Y-83730613D01*
X158787963Y-83851626D01*
X158736443Y-84021466D01*
X158652778Y-84177991D01*
X158623448Y-84213729D01*
X158540186Y-84315186D01*
X158445250Y-84393097D01*
X158402991Y-84427778D01*
X158246466Y-84511443D01*
X158076627Y-84562963D01*
X157900000Y-84580359D01*
X157723374Y-84562963D01*
X157553535Y-84511443D01*
X157397010Y-84427778D01*
X157259815Y-84315185D01*
X157147222Y-84177991D01*
X157063557Y-84021466D01*
X157012037Y-83851627D01*
X157001961Y-83749321D01*
X156999000Y-83719260D01*
X156999000Y-83380741D01*
X157012037Y-83248376D01*
X157012037Y-83248374D01*
X157063557Y-83078535D01*
X157077292Y-83052839D01*
X157147221Y-82922011D01*
X157259814Y-82784814D01*
X157364380Y-82699000D01*
X157397009Y-82672222D01*
X157475271Y-82630390D01*
X157553532Y-82588558D01*
X157553534Y-82588557D01*
X157723373Y-82537037D01*
X157900000Y-82519641D01*
X158076626Y-82537037D01*
G37*
G36*
X160576626Y-82537037D02*
G01*
X160746465Y-82588557D01*
X160746467Y-82588558D01*
X160902989Y-82672221D01*
X161040186Y-82784814D01*
X161102091Y-82860247D01*
X161152778Y-82922009D01*
X161236443Y-83078534D01*
X161287963Y-83248373D01*
X161287963Y-83248375D01*
X161301000Y-83380740D01*
X161301000Y-83719259D01*
X161299882Y-83730613D01*
X161287963Y-83851626D01*
X161236443Y-84021466D01*
X161152778Y-84177991D01*
X161123448Y-84213729D01*
X161040186Y-84315186D01*
X160945250Y-84393097D01*
X160902991Y-84427778D01*
X160746466Y-84511443D01*
X160576627Y-84562963D01*
X160400000Y-84580359D01*
X160223374Y-84562963D01*
X160053535Y-84511443D01*
X159897010Y-84427778D01*
X159759815Y-84315185D01*
X159647222Y-84177991D01*
X159563557Y-84021466D01*
X159512037Y-83851627D01*
X159501961Y-83749321D01*
X159499000Y-83719260D01*
X159499000Y-83380741D01*
X159512037Y-83248376D01*
X159512037Y-83248374D01*
X159563557Y-83078535D01*
X159577292Y-83052839D01*
X159647221Y-82922011D01*
X159759814Y-82784814D01*
X159864380Y-82699000D01*
X159897009Y-82672222D01*
X159975271Y-82630390D01*
X160053532Y-82588558D01*
X160053534Y-82588557D01*
X160223373Y-82537037D01*
X160400000Y-82519641D01*
X160576626Y-82537037D01*
G37*
G36*
X163076626Y-82537037D02*
G01*
X163246465Y-82588557D01*
X163246467Y-82588558D01*
X163402989Y-82672221D01*
X163540186Y-82784814D01*
X163602091Y-82860247D01*
X163652778Y-82922009D01*
X163736443Y-83078534D01*
X163787963Y-83248373D01*
X163787963Y-83248375D01*
X163801000Y-83380740D01*
X163801000Y-83719259D01*
X163799882Y-83730613D01*
X163787963Y-83851626D01*
X163736443Y-84021466D01*
X163652778Y-84177991D01*
X163623448Y-84213729D01*
X163540186Y-84315186D01*
X163445250Y-84393097D01*
X163402991Y-84427778D01*
X163246466Y-84511443D01*
X163076627Y-84562963D01*
X162900000Y-84580359D01*
X162723374Y-84562963D01*
X162553535Y-84511443D01*
X162397010Y-84427778D01*
X162259815Y-84315185D01*
X162147222Y-84177991D01*
X162063557Y-84021466D01*
X162012037Y-83851627D01*
X162001961Y-83749321D01*
X161999000Y-83719260D01*
X161999000Y-83380741D01*
X162012037Y-83248376D01*
X162012037Y-83248374D01*
X162063557Y-83078535D01*
X162077292Y-83052839D01*
X162147221Y-82922011D01*
X162259814Y-82784814D01*
X162364380Y-82699000D01*
X162397009Y-82672222D01*
X162475271Y-82630390D01*
X162553532Y-82588558D01*
X162553534Y-82588557D01*
X162723373Y-82537037D01*
X162900000Y-82519641D01*
X163076626Y-82537037D01*
G37*
G36*
X165576626Y-82537037D02*
G01*
X165746465Y-82588557D01*
X165746467Y-82588558D01*
X165902989Y-82672221D01*
X166040186Y-82784814D01*
X166102091Y-82860247D01*
X166152778Y-82922009D01*
X166236443Y-83078534D01*
X166287963Y-83248373D01*
X166287963Y-83248375D01*
X166301000Y-83380740D01*
X166301000Y-83719259D01*
X166299882Y-83730613D01*
X166287963Y-83851626D01*
X166236443Y-84021466D01*
X166152778Y-84177991D01*
X166123448Y-84213729D01*
X166040186Y-84315186D01*
X165945250Y-84393097D01*
X165902991Y-84427778D01*
X165746466Y-84511443D01*
X165576627Y-84562963D01*
X165400000Y-84580359D01*
X165223374Y-84562963D01*
X165053535Y-84511443D01*
X164897010Y-84427778D01*
X164759815Y-84315185D01*
X164647222Y-84177991D01*
X164563557Y-84021466D01*
X164512037Y-83851627D01*
X164501961Y-83749321D01*
X164499000Y-83719260D01*
X164499000Y-83380741D01*
X164512037Y-83248376D01*
X164512037Y-83248374D01*
X164563557Y-83078535D01*
X164577292Y-83052839D01*
X164647221Y-82922011D01*
X164759814Y-82784814D01*
X164864380Y-82699000D01*
X164897009Y-82672222D01*
X164975271Y-82630390D01*
X165053532Y-82588558D01*
X165053534Y-82588557D01*
X165223373Y-82537037D01*
X165400000Y-82519641D01*
X165576626Y-82537037D01*
G37*
G36*
X156158600Y-82527989D02*
G01*
X156191652Y-82538015D01*
X156222103Y-82554292D01*
X156248799Y-82576201D01*
X156270708Y-82602897D01*
X156286985Y-82633348D01*
X156297011Y-82666400D01*
X156301000Y-82706903D01*
X156301000Y-84393097D01*
X156297011Y-84433600D01*
X156286985Y-84466652D01*
X156270708Y-84497103D01*
X156248799Y-84523799D01*
X156222103Y-84545708D01*
X156191652Y-84561985D01*
X156158600Y-84572011D01*
X156118097Y-84576000D01*
X154681903Y-84576000D01*
X154641400Y-84572011D01*
X154608348Y-84561985D01*
X154577897Y-84545708D01*
X154551201Y-84523799D01*
X154529292Y-84497103D01*
X154513015Y-84466652D01*
X154502989Y-84433600D01*
X154499000Y-84393097D01*
X154499000Y-82706903D01*
X154502989Y-82666400D01*
X154513015Y-82633348D01*
X154529292Y-82602897D01*
X154551201Y-82576201D01*
X154577897Y-82554292D01*
X154608348Y-82538015D01*
X154641400Y-82527989D01*
X154681903Y-82524000D01*
X156118097Y-82524000D01*
X156158600Y-82527989D01*
G37*
M02*
