G04 #@! TF.GenerationSoftware,KiCad,Pcbnew,5.1.5-52549c5~84~ubuntu18.04.1*
G04 #@! TF.CreationDate,2019-12-21T18:01:40-05:00*
G04 #@! TF.ProjectId,SmallKat v2,536d616c-6c4b-4617-9420-76322e6b6963,rev?*
G04 #@! TF.SameCoordinates,Original*
G04 #@! TF.FileFunction,Legend,Bot*
G04 #@! TF.FilePolarity,Positive*
%FSLAX46Y46*%
G04 Gerber Fmt 4.6, Leading zero omitted, Abs format (unit mm)*
G04 Created by KiCad (PCBNEW 5.1.5-52549c5~84~ubuntu18.04.1) date 2019-12-21 18:01:40*
%MOMM*%
%LPD*%
G04 APERTURE LIST*
%ADD10C,0.150000*%
%ADD11C,0.120000*%
G04 APERTURE END LIST*
D10*
X153222619Y-88310714D02*
X153044047Y-88370238D01*
X152984523Y-88429761D01*
X152925000Y-88548809D01*
X152925000Y-88727380D01*
X152984523Y-88846428D01*
X153044047Y-88905952D01*
X153163095Y-88965476D01*
X153639285Y-88965476D01*
X153639285Y-87715476D01*
X153222619Y-87715476D01*
X153103571Y-87775000D01*
X153044047Y-87834523D01*
X152984523Y-87953571D01*
X152984523Y-88072619D01*
X153044047Y-88191666D01*
X153103571Y-88251190D01*
X153222619Y-88310714D01*
X153639285Y-88310714D01*
X152448809Y-88608333D02*
X151853571Y-88608333D01*
X152567857Y-88965476D02*
X152151190Y-87715476D01*
X151734523Y-88965476D01*
X151496428Y-87715476D02*
X150782142Y-87715476D01*
X151139285Y-88965476D02*
X151139285Y-87715476D01*
X150544047Y-87715476D02*
X149829761Y-87715476D01*
X150186904Y-88965476D02*
X150186904Y-87715476D01*
X149413095Y-88489285D02*
X148460714Y-88489285D01*
X148936904Y-88965476D02*
X148936904Y-88013095D01*
D11*
X152575000Y-134025000D02*
G75*
G03X152575000Y-134025000I-950000J0D01*
G01*
X141500000Y-131850000D02*
G75*
G03X141500000Y-131850000I-950000J0D01*
G01*
X149975000Y-134225000D02*
G75*
G03X149975000Y-134225000I-950000J0D01*
G01*
X147675000Y-135350000D02*
G75*
G03X147675000Y-135350000I-950000J0D01*
G01*
X155525000Y-116775000D02*
G75*
G03X155525000Y-116775000I-950000J0D01*
G01*
X158750000Y-118225000D02*
G75*
G03X158750000Y-118225000I-950000J0D01*
G01*
X130625000Y-114625000D02*
G75*
G03X130625000Y-114625000I-950000J0D01*
G01*
X135650000Y-114900000D02*
G75*
G03X135650000Y-114900000I-950000J0D01*
G01*
X131875000Y-102275000D02*
G75*
G03X131875000Y-102275000I-950000J0D01*
G01*
X145025000Y-88450000D02*
G75*
G03X145025000Y-88450000I-950000J0D01*
G01*
X157725000Y-88300000D02*
G75*
G03X157725000Y-88300000I-950000J0D01*
G01*
X154325000Y-105800000D02*
G75*
G03X154325000Y-105800000I-950000J0D01*
G01*
X134700000Y-112225000D02*
G75*
G03X134700000Y-112225000I-950000J0D01*
G01*
X134850000Y-118300000D02*
G75*
G03X134850000Y-118300000I-950000J0D01*
G01*
X131825000Y-112125000D02*
G75*
G03X131825000Y-112125000I-950000J0D01*
G01*
D10*
X153363095Y-135125380D02*
X152791666Y-135125380D01*
X153077380Y-136125380D02*
X153077380Y-135125380D01*
X152458333Y-136125380D02*
X152458333Y-135125380D01*
X152077380Y-135125380D01*
X151982142Y-135173000D01*
X151934523Y-135220619D01*
X151886904Y-135315857D01*
X151886904Y-135458714D01*
X151934523Y-135553952D01*
X151982142Y-135601571D01*
X152077380Y-135649190D01*
X152458333Y-135649190D01*
X151505952Y-135220619D02*
X151458333Y-135173000D01*
X151363095Y-135125380D01*
X151125000Y-135125380D01*
X151029761Y-135173000D01*
X150982142Y-135220619D01*
X150934523Y-135315857D01*
X150934523Y-135411095D01*
X150982142Y-135553952D01*
X151553571Y-136125380D01*
X150934523Y-136125380D01*
X150601190Y-135125380D02*
X149982142Y-135125380D01*
X150315476Y-135506333D01*
X150172619Y-135506333D01*
X150077380Y-135553952D01*
X150029761Y-135601571D01*
X149982142Y-135696809D01*
X149982142Y-135934904D01*
X150029761Y-136030142D01*
X150077380Y-136077761D01*
X150172619Y-136125380D01*
X150458333Y-136125380D01*
X150553571Y-136077761D01*
X150601190Y-136030142D01*
X142288095Y-132950380D02*
X141716666Y-132950380D01*
X142002380Y-133950380D02*
X142002380Y-132950380D01*
X141383333Y-133950380D02*
X141383333Y-132950380D01*
X141002380Y-132950380D01*
X140907142Y-132998000D01*
X140859523Y-133045619D01*
X140811904Y-133140857D01*
X140811904Y-133283714D01*
X140859523Y-133378952D01*
X140907142Y-133426571D01*
X141002380Y-133474190D01*
X141383333Y-133474190D01*
X140430952Y-133045619D02*
X140383333Y-132998000D01*
X140288095Y-132950380D01*
X140050000Y-132950380D01*
X139954761Y-132998000D01*
X139907142Y-133045619D01*
X139859523Y-133140857D01*
X139859523Y-133236095D01*
X139907142Y-133378952D01*
X140478571Y-133950380D01*
X139859523Y-133950380D01*
X139478571Y-133045619D02*
X139430952Y-132998000D01*
X139335714Y-132950380D01*
X139097619Y-132950380D01*
X139002380Y-132998000D01*
X138954761Y-133045619D01*
X138907142Y-133140857D01*
X138907142Y-133236095D01*
X138954761Y-133378952D01*
X139526190Y-133950380D01*
X138907142Y-133950380D01*
X150763095Y-135325380D02*
X150191666Y-135325380D01*
X150477380Y-136325380D02*
X150477380Y-135325380D01*
X149858333Y-136325380D02*
X149858333Y-135325380D01*
X149477380Y-135325380D01*
X149382142Y-135373000D01*
X149334523Y-135420619D01*
X149286904Y-135515857D01*
X149286904Y-135658714D01*
X149334523Y-135753952D01*
X149382142Y-135801571D01*
X149477380Y-135849190D01*
X149858333Y-135849190D01*
X148905952Y-135420619D02*
X148858333Y-135373000D01*
X148763095Y-135325380D01*
X148525000Y-135325380D01*
X148429761Y-135373000D01*
X148382142Y-135420619D01*
X148334523Y-135515857D01*
X148334523Y-135611095D01*
X148382142Y-135753952D01*
X148953571Y-136325380D01*
X148334523Y-136325380D01*
X147382142Y-136325380D02*
X147953571Y-136325380D01*
X147667857Y-136325380D02*
X147667857Y-135325380D01*
X147763095Y-135468238D01*
X147858333Y-135563476D01*
X147953571Y-135611095D01*
X148463095Y-136450380D02*
X147891666Y-136450380D01*
X148177380Y-137450380D02*
X148177380Y-136450380D01*
X147558333Y-137450380D02*
X147558333Y-136450380D01*
X147177380Y-136450380D01*
X147082142Y-136498000D01*
X147034523Y-136545619D01*
X146986904Y-136640857D01*
X146986904Y-136783714D01*
X147034523Y-136878952D01*
X147082142Y-136926571D01*
X147177380Y-136974190D01*
X147558333Y-136974190D01*
X146605952Y-136545619D02*
X146558333Y-136498000D01*
X146463095Y-136450380D01*
X146225000Y-136450380D01*
X146129761Y-136498000D01*
X146082142Y-136545619D01*
X146034523Y-136640857D01*
X146034523Y-136736095D01*
X146082142Y-136878952D01*
X146653571Y-137450380D01*
X146034523Y-137450380D01*
X145415476Y-136450380D02*
X145320238Y-136450380D01*
X145225000Y-136498000D01*
X145177380Y-136545619D01*
X145129761Y-136640857D01*
X145082142Y-136831333D01*
X145082142Y-137069428D01*
X145129761Y-137259904D01*
X145177380Y-137355142D01*
X145225000Y-137402761D01*
X145320238Y-137450380D01*
X145415476Y-137450380D01*
X145510714Y-137402761D01*
X145558333Y-137355142D01*
X145605952Y-137259904D01*
X145653571Y-137069428D01*
X145653571Y-136831333D01*
X145605952Y-136640857D01*
X145558333Y-136545619D01*
X145510714Y-136498000D01*
X145415476Y-136450380D01*
X156313095Y-117875380D02*
X155741666Y-117875380D01*
X156027380Y-118875380D02*
X156027380Y-117875380D01*
X155408333Y-118875380D02*
X155408333Y-117875380D01*
X155027380Y-117875380D01*
X154932142Y-117923000D01*
X154884523Y-117970619D01*
X154836904Y-118065857D01*
X154836904Y-118208714D01*
X154884523Y-118303952D01*
X154932142Y-118351571D01*
X155027380Y-118399190D01*
X155408333Y-118399190D01*
X153884523Y-118875380D02*
X154455952Y-118875380D01*
X154170238Y-118875380D02*
X154170238Y-117875380D01*
X154265476Y-118018238D01*
X154360714Y-118113476D01*
X154455952Y-118161095D01*
X153503571Y-117970619D02*
X153455952Y-117923000D01*
X153360714Y-117875380D01*
X153122619Y-117875380D01*
X153027380Y-117923000D01*
X152979761Y-117970619D01*
X152932142Y-118065857D01*
X152932142Y-118161095D01*
X152979761Y-118303952D01*
X153551190Y-118875380D01*
X152932142Y-118875380D01*
X159538095Y-119325380D02*
X158966666Y-119325380D01*
X159252380Y-120325380D02*
X159252380Y-119325380D01*
X158633333Y-120325380D02*
X158633333Y-119325380D01*
X158252380Y-119325380D01*
X158157142Y-119373000D01*
X158109523Y-119420619D01*
X158061904Y-119515857D01*
X158061904Y-119658714D01*
X158109523Y-119753952D01*
X158157142Y-119801571D01*
X158252380Y-119849190D01*
X158633333Y-119849190D01*
X157109523Y-120325380D02*
X157680952Y-120325380D01*
X157395238Y-120325380D02*
X157395238Y-119325380D01*
X157490476Y-119468238D01*
X157585714Y-119563476D01*
X157680952Y-119611095D01*
X156157142Y-120325380D02*
X156728571Y-120325380D01*
X156442857Y-120325380D02*
X156442857Y-119325380D01*
X156538095Y-119468238D01*
X156633333Y-119563476D01*
X156728571Y-119611095D01*
X131413095Y-115725380D02*
X130841666Y-115725380D01*
X131127380Y-116725380D02*
X131127380Y-115725380D01*
X130508333Y-116725380D02*
X130508333Y-115725380D01*
X130127380Y-115725380D01*
X130032142Y-115773000D01*
X129984523Y-115820619D01*
X129936904Y-115915857D01*
X129936904Y-116058714D01*
X129984523Y-116153952D01*
X130032142Y-116201571D01*
X130127380Y-116249190D01*
X130508333Y-116249190D01*
X128984523Y-116725380D02*
X129555952Y-116725380D01*
X129270238Y-116725380D02*
X129270238Y-115725380D01*
X129365476Y-115868238D01*
X129460714Y-115963476D01*
X129555952Y-116011095D01*
X128365476Y-115725380D02*
X128270238Y-115725380D01*
X128175000Y-115773000D01*
X128127380Y-115820619D01*
X128079761Y-115915857D01*
X128032142Y-116106333D01*
X128032142Y-116344428D01*
X128079761Y-116534904D01*
X128127380Y-116630142D01*
X128175000Y-116677761D01*
X128270238Y-116725380D01*
X128365476Y-116725380D01*
X128460714Y-116677761D01*
X128508333Y-116630142D01*
X128555952Y-116534904D01*
X128603571Y-116344428D01*
X128603571Y-116106333D01*
X128555952Y-115915857D01*
X128508333Y-115820619D01*
X128460714Y-115773000D01*
X128365476Y-115725380D01*
X135961904Y-116000380D02*
X135390476Y-116000380D01*
X135676190Y-117000380D02*
X135676190Y-116000380D01*
X135057142Y-117000380D02*
X135057142Y-116000380D01*
X134676190Y-116000380D01*
X134580952Y-116048000D01*
X134533333Y-116095619D01*
X134485714Y-116190857D01*
X134485714Y-116333714D01*
X134533333Y-116428952D01*
X134580952Y-116476571D01*
X134676190Y-116524190D01*
X135057142Y-116524190D01*
X134009523Y-117000380D02*
X133819047Y-117000380D01*
X133723809Y-116952761D01*
X133676190Y-116905142D01*
X133580952Y-116762285D01*
X133533333Y-116571809D01*
X133533333Y-116190857D01*
X133580952Y-116095619D01*
X133628571Y-116048000D01*
X133723809Y-116000380D01*
X133914285Y-116000380D01*
X134009523Y-116048000D01*
X134057142Y-116095619D01*
X134104761Y-116190857D01*
X134104761Y-116428952D01*
X134057142Y-116524190D01*
X134009523Y-116571809D01*
X133914285Y-116619428D01*
X133723809Y-116619428D01*
X133628571Y-116571809D01*
X133580952Y-116524190D01*
X133533333Y-116428952D01*
X132186904Y-103375380D02*
X131615476Y-103375380D01*
X131901190Y-104375380D02*
X131901190Y-103375380D01*
X131282142Y-104375380D02*
X131282142Y-103375380D01*
X130901190Y-103375380D01*
X130805952Y-103423000D01*
X130758333Y-103470619D01*
X130710714Y-103565857D01*
X130710714Y-103708714D01*
X130758333Y-103803952D01*
X130805952Y-103851571D01*
X130901190Y-103899190D01*
X131282142Y-103899190D01*
X130139285Y-103803952D02*
X130234523Y-103756333D01*
X130282142Y-103708714D01*
X130329761Y-103613476D01*
X130329761Y-103565857D01*
X130282142Y-103470619D01*
X130234523Y-103423000D01*
X130139285Y-103375380D01*
X129948809Y-103375380D01*
X129853571Y-103423000D01*
X129805952Y-103470619D01*
X129758333Y-103565857D01*
X129758333Y-103613476D01*
X129805952Y-103708714D01*
X129853571Y-103756333D01*
X129948809Y-103803952D01*
X130139285Y-103803952D01*
X130234523Y-103851571D01*
X130282142Y-103899190D01*
X130329761Y-103994428D01*
X130329761Y-104184904D01*
X130282142Y-104280142D01*
X130234523Y-104327761D01*
X130139285Y-104375380D01*
X129948809Y-104375380D01*
X129853571Y-104327761D01*
X129805952Y-104280142D01*
X129758333Y-104184904D01*
X129758333Y-103994428D01*
X129805952Y-103899190D01*
X129853571Y-103851571D01*
X129948809Y-103803952D01*
X145336904Y-89550380D02*
X144765476Y-89550380D01*
X145051190Y-90550380D02*
X145051190Y-89550380D01*
X144432142Y-90550380D02*
X144432142Y-89550380D01*
X144051190Y-89550380D01*
X143955952Y-89598000D01*
X143908333Y-89645619D01*
X143860714Y-89740857D01*
X143860714Y-89883714D01*
X143908333Y-89978952D01*
X143955952Y-90026571D01*
X144051190Y-90074190D01*
X144432142Y-90074190D01*
X143527380Y-89550380D02*
X142860714Y-89550380D01*
X143289285Y-90550380D01*
X158036904Y-89400380D02*
X157465476Y-89400380D01*
X157751190Y-90400380D02*
X157751190Y-89400380D01*
X157132142Y-90400380D02*
X157132142Y-89400380D01*
X156751190Y-89400380D01*
X156655952Y-89448000D01*
X156608333Y-89495619D01*
X156560714Y-89590857D01*
X156560714Y-89733714D01*
X156608333Y-89828952D01*
X156655952Y-89876571D01*
X156751190Y-89924190D01*
X157132142Y-89924190D01*
X155703571Y-89400380D02*
X155894047Y-89400380D01*
X155989285Y-89448000D01*
X156036904Y-89495619D01*
X156132142Y-89638476D01*
X156179761Y-89828952D01*
X156179761Y-90209904D01*
X156132142Y-90305142D01*
X156084523Y-90352761D01*
X155989285Y-90400380D01*
X155798809Y-90400380D01*
X155703571Y-90352761D01*
X155655952Y-90305142D01*
X155608333Y-90209904D01*
X155608333Y-89971809D01*
X155655952Y-89876571D01*
X155703571Y-89828952D01*
X155798809Y-89781333D01*
X155989285Y-89781333D01*
X156084523Y-89828952D01*
X156132142Y-89876571D01*
X156179761Y-89971809D01*
X154636904Y-106900380D02*
X154065476Y-106900380D01*
X154351190Y-107900380D02*
X154351190Y-106900380D01*
X153732142Y-107900380D02*
X153732142Y-106900380D01*
X153351190Y-106900380D01*
X153255952Y-106948000D01*
X153208333Y-106995619D01*
X153160714Y-107090857D01*
X153160714Y-107233714D01*
X153208333Y-107328952D01*
X153255952Y-107376571D01*
X153351190Y-107424190D01*
X153732142Y-107424190D01*
X152255952Y-106900380D02*
X152732142Y-106900380D01*
X152779761Y-107376571D01*
X152732142Y-107328952D01*
X152636904Y-107281333D01*
X152398809Y-107281333D01*
X152303571Y-107328952D01*
X152255952Y-107376571D01*
X152208333Y-107471809D01*
X152208333Y-107709904D01*
X152255952Y-107805142D01*
X152303571Y-107852761D01*
X152398809Y-107900380D01*
X152636904Y-107900380D01*
X152732142Y-107852761D01*
X152779761Y-107805142D01*
X135011904Y-113325380D02*
X134440476Y-113325380D01*
X134726190Y-114325380D02*
X134726190Y-113325380D01*
X134107142Y-114325380D02*
X134107142Y-113325380D01*
X133726190Y-113325380D01*
X133630952Y-113373000D01*
X133583333Y-113420619D01*
X133535714Y-113515857D01*
X133535714Y-113658714D01*
X133583333Y-113753952D01*
X133630952Y-113801571D01*
X133726190Y-113849190D01*
X134107142Y-113849190D01*
X133202380Y-113325380D02*
X132583333Y-113325380D01*
X132916666Y-113706333D01*
X132773809Y-113706333D01*
X132678571Y-113753952D01*
X132630952Y-113801571D01*
X132583333Y-113896809D01*
X132583333Y-114134904D01*
X132630952Y-114230142D01*
X132678571Y-114277761D01*
X132773809Y-114325380D01*
X133059523Y-114325380D01*
X133154761Y-114277761D01*
X133202380Y-114230142D01*
X135161904Y-119400380D02*
X134590476Y-119400380D01*
X134876190Y-120400380D02*
X134876190Y-119400380D01*
X134257142Y-120400380D02*
X134257142Y-119400380D01*
X133876190Y-119400380D01*
X133780952Y-119448000D01*
X133733333Y-119495619D01*
X133685714Y-119590857D01*
X133685714Y-119733714D01*
X133733333Y-119828952D01*
X133780952Y-119876571D01*
X133876190Y-119924190D01*
X134257142Y-119924190D01*
X133304761Y-119495619D02*
X133257142Y-119448000D01*
X133161904Y-119400380D01*
X132923809Y-119400380D01*
X132828571Y-119448000D01*
X132780952Y-119495619D01*
X132733333Y-119590857D01*
X132733333Y-119686095D01*
X132780952Y-119828952D01*
X133352380Y-120400380D01*
X132733333Y-120400380D01*
X132136904Y-113225380D02*
X131565476Y-113225380D01*
X131851190Y-114225380D02*
X131851190Y-113225380D01*
X131232142Y-114225380D02*
X131232142Y-113225380D01*
X130851190Y-113225380D01*
X130755952Y-113273000D01*
X130708333Y-113320619D01*
X130660714Y-113415857D01*
X130660714Y-113558714D01*
X130708333Y-113653952D01*
X130755952Y-113701571D01*
X130851190Y-113749190D01*
X131232142Y-113749190D01*
X129708333Y-114225380D02*
X130279761Y-114225380D01*
X129994047Y-114225380D02*
X129994047Y-113225380D01*
X130089285Y-113368238D01*
X130184523Y-113463476D01*
X130279761Y-113511095D01*
M02*
