G04 #@! TF.GenerationSoftware,KiCad,Pcbnew,5.1.6-c6e7f7d~86~ubuntu18.04.1*
G04 #@! TF.CreationDate,2020-11-11T20:00:30-05:00*
G04 #@! TF.ProjectId,SmallKat v2,536d616c-6c4b-4617-9420-76322e6b6963,rev?*
G04 #@! TF.SameCoordinates,Original*
G04 #@! TF.FileFunction,Legend,Top*
G04 #@! TF.FilePolarity,Positive*
%FSLAX46Y46*%
G04 Gerber Fmt 4.6, Leading zero omitted, Abs format (unit mm)*
G04 Created by KiCad (PCBNEW 5.1.6-c6e7f7d~86~ubuntu18.04.1) date 2020-11-11 20:00:30*
%MOMM*%
%LPD*%
G01*
G04 APERTURE LIST*
%ADD10C,0.120000*%
%ADD11C,0.200000*%
%ADD12C,0.254000*%
G04 APERTURE END LIST*
D10*
X113570000Y-123615000D02*
X113570000Y-123140000D01*
X113570000Y-123140000D02*
X114045000Y-123140000D01*
X117790000Y-126885000D02*
X117790000Y-127360000D01*
X117790000Y-127360000D02*
X117315000Y-127360000D01*
X117790000Y-123615000D02*
X117790000Y-123140000D01*
X117790000Y-123140000D02*
X117315000Y-123140000D01*
X113570000Y-126885000D02*
X113570000Y-127360000D01*
X119247720Y-97476740D02*
X119997720Y-97476740D01*
X119997720Y-97476740D02*
X119997720Y-98226740D01*
X114527720Y-103696740D02*
X113777720Y-103696740D01*
X113777720Y-103696740D02*
X113777720Y-102946740D01*
X119247720Y-103696740D02*
X119997720Y-103696740D01*
X119997720Y-103696740D02*
X119997720Y-102946740D01*
X114527720Y-97476740D02*
X113777720Y-97476740D01*
X120473962Y-120808480D02*
X120991118Y-120808480D01*
X120473962Y-122228480D02*
X120991118Y-122228480D01*
X102720000Y-139200000D02*
G75*
G03*
X103220000Y-138700000I0J500000D01*
G01*
X92220000Y-138700000D02*
G75*
G03*
X92720000Y-139200000I500000J0D01*
G01*
X92720000Y-138500000D02*
X92220000Y-138600000D01*
X94020000Y-138200000D02*
X92720000Y-138500000D01*
X95520000Y-138000000D02*
X94020000Y-138200000D01*
X96820000Y-137900000D02*
X95520000Y-138000000D01*
X98620000Y-137900000D02*
X96820000Y-137900000D01*
X99920000Y-138000000D02*
X98620000Y-137900000D01*
X100720000Y-138100000D02*
X99920000Y-138000000D01*
X102420000Y-138400000D02*
X100720000Y-138100000D01*
X103220000Y-138600000D02*
X102420000Y-138400000D01*
X102720000Y-139200000D02*
X92720000Y-139200000D01*
X103220000Y-137700000D02*
X103220000Y-138700000D01*
X92220000Y-137700000D02*
X92220000Y-138700000D01*
X104630000Y-137700000D02*
X90810000Y-137700000D01*
X90810000Y-123780000D02*
X104630000Y-123780000D01*
X90810000Y-126480000D02*
X90810000Y-123780000D01*
X90810000Y-137700000D02*
X90810000Y-137300000D01*
X90810000Y-134780000D02*
X90810000Y-129000000D01*
X104630000Y-126480000D02*
X104630000Y-123780000D01*
X104630000Y-134780000D02*
X104630000Y-129000000D01*
X104630000Y-137700000D02*
X104630000Y-137300000D01*
X123460000Y-123140000D02*
X125260000Y-123140000D01*
X125260000Y-119920000D02*
X122810000Y-119920000D01*
X120461422Y-116990000D02*
X120978578Y-116990000D01*
X120461422Y-118410000D02*
X120978578Y-118410000D01*
X120460462Y-118890200D02*
X120977618Y-118890200D01*
X120460462Y-120310200D02*
X120977618Y-120310200D01*
X124348578Y-126890000D02*
X123831422Y-126890000D01*
X124348578Y-125470000D02*
X123831422Y-125470000D01*
X124354058Y-124984720D02*
X123836902Y-124984720D01*
X124354058Y-123564720D02*
X123836902Y-123564720D01*
X108230800Y-99561200D02*
X108230800Y-98781200D01*
X108230800Y-98781200D02*
X107230800Y-98781200D01*
X89990800Y-99561200D02*
X89990800Y-98781200D01*
X89990800Y-98781200D02*
X90990800Y-98781200D01*
X108230800Y-118106200D02*
X108610800Y-118106200D01*
X120905000Y-108015000D02*
X120905000Y-109365000D01*
X122655000Y-108015000D02*
X122655000Y-109365000D01*
X120170800Y-112488800D02*
X119910800Y-112488800D01*
X120170800Y-112488800D02*
X120170800Y-112228800D01*
X116150800Y-112488800D02*
X116410800Y-112488800D01*
X116150800Y-112488800D02*
X116150800Y-112228800D01*
X120170800Y-107068800D02*
X120170800Y-107328800D01*
X116150800Y-107068800D02*
X116410800Y-107068800D01*
X116150800Y-107068800D02*
X116150800Y-107328800D01*
X106450000Y-126190000D02*
X109690000Y-126190000D01*
X109690000Y-126190000D02*
X109690000Y-126290000D01*
X106450000Y-126190000D02*
X106450000Y-126290000D01*
X106450000Y-128430000D02*
X109690000Y-128430000D01*
X109690000Y-128330000D02*
X109690000Y-128430000D01*
X106450000Y-128330000D02*
X106450000Y-128430000D01*
X106444200Y-123678400D02*
X109684200Y-123678400D01*
X109684200Y-123678400D02*
X109684200Y-123778400D01*
X106444200Y-123678400D02*
X106444200Y-123778400D01*
X106444200Y-125918400D02*
X109684200Y-125918400D01*
X109684200Y-125818400D02*
X109684200Y-125918400D01*
X106444200Y-125818400D02*
X106444200Y-125918400D01*
X129840000Y-112020000D02*
X129840000Y-112950000D01*
X129840000Y-115180000D02*
X129840000Y-114250000D01*
X129840000Y-115180000D02*
X132000000Y-115180000D01*
X129840000Y-112020000D02*
X131300000Y-112020000D01*
X112840000Y-125780000D02*
X112840000Y-123880000D01*
X110520000Y-124380000D02*
X110520000Y-125780000D01*
X141840000Y-116130000D02*
X141840000Y-113000000D01*
X145440000Y-115460000D02*
X145440000Y-113000000D01*
X141823440Y-112162320D02*
X141823440Y-109032320D01*
X145423440Y-111492320D02*
X145423440Y-109032320D01*
X142090000Y-117820000D02*
X142090000Y-129320000D01*
X141440000Y-117120000D02*
X138490000Y-117120000D01*
X129290000Y-129320000D02*
X129290000Y-117820000D01*
X141390000Y-130020000D02*
X138490000Y-130020000D01*
X132890000Y-117120000D02*
X129990000Y-117120000D01*
X132890000Y-130020000D02*
X129990000Y-130020000D01*
X142090000Y-129320000D02*
G75*
G02*
X141390000Y-130020000I-700000J0D01*
G01*
X129990000Y-130020000D02*
G75*
G02*
X129290000Y-129320000I0J700000D01*
G01*
X129290000Y-117820000D02*
G75*
G02*
X129990000Y-117120000I700000J0D01*
G01*
X141390000Y-117120000D02*
G75*
G02*
X142090000Y-117820000I0J-700000D01*
G01*
X124928200Y-101806038D02*
X124928200Y-101288882D01*
X126348200Y-101806038D02*
X126348200Y-101288882D01*
X111500000Y-137775000D02*
X120200000Y-137775000D01*
X159692800Y-100668800D02*
X159692800Y-99338800D01*
X161022800Y-100668800D02*
X159692800Y-100668800D01*
X162292800Y-100668800D02*
X162292800Y-98008800D01*
X162292800Y-98008800D02*
X167432800Y-98008800D01*
X162292800Y-100668800D02*
X167432800Y-100668800D01*
X167432800Y-100668800D02*
X167432800Y-98008800D01*
X68671400Y-119726400D02*
X68671400Y-122386400D01*
X73811400Y-119726400D02*
X68671400Y-119726400D01*
X73811400Y-122386400D02*
X68671400Y-122386400D01*
X73811400Y-119726400D02*
X73811400Y-122386400D01*
X75081400Y-119726400D02*
X76411400Y-119726400D01*
X76411400Y-119726400D02*
X76411400Y-121056400D01*
X159692800Y-103208800D02*
X159692800Y-101878800D01*
X161022800Y-103208800D02*
X159692800Y-103208800D01*
X162292800Y-103208800D02*
X162292800Y-100548800D01*
X162292800Y-100548800D02*
X167432800Y-100548800D01*
X162292800Y-103208800D02*
X167432800Y-103208800D01*
X167432800Y-103208800D02*
X167432800Y-100548800D01*
X68711400Y-117186400D02*
X68711400Y-119846400D01*
X73851400Y-117186400D02*
X68711400Y-117186400D01*
X73851400Y-119846400D02*
X68711400Y-119846400D01*
X73851400Y-117186400D02*
X73851400Y-119846400D01*
X75121400Y-117186400D02*
X76451400Y-117186400D01*
X76451400Y-117186400D02*
X76451400Y-118516400D01*
X159692800Y-105748800D02*
X159692800Y-104418800D01*
X161022800Y-105748800D02*
X159692800Y-105748800D01*
X162292800Y-105748800D02*
X162292800Y-103088800D01*
X162292800Y-103088800D02*
X167432800Y-103088800D01*
X162292800Y-105748800D02*
X167432800Y-105748800D01*
X167432800Y-105748800D02*
X167432800Y-103088800D01*
X68711400Y-114646400D02*
X68711400Y-117306400D01*
X73851400Y-114646400D02*
X68711400Y-114646400D01*
X73851400Y-117306400D02*
X68711400Y-117306400D01*
X73851400Y-114646400D02*
X73851400Y-117306400D01*
X75121400Y-114646400D02*
X76451400Y-114646400D01*
X76451400Y-114646400D02*
X76451400Y-115976400D01*
X159692800Y-108288800D02*
X159692800Y-106958800D01*
X161022800Y-108288800D02*
X159692800Y-108288800D01*
X162292800Y-108288800D02*
X162292800Y-105628800D01*
X162292800Y-105628800D02*
X167432800Y-105628800D01*
X162292800Y-108288800D02*
X167432800Y-108288800D01*
X167432800Y-108288800D02*
X167432800Y-105628800D01*
X68711400Y-112106400D02*
X68711400Y-114766400D01*
X73851400Y-112106400D02*
X68711400Y-112106400D01*
X73851400Y-114766400D02*
X68711400Y-114766400D01*
X73851400Y-112106400D02*
X73851400Y-114766400D01*
X75121400Y-112106400D02*
X76451400Y-112106400D01*
X76451400Y-112106400D02*
X76451400Y-113436400D01*
X159663600Y-113654800D02*
X159663600Y-112324800D01*
X160993600Y-113654800D02*
X159663600Y-113654800D01*
X162263600Y-113654800D02*
X162263600Y-110994800D01*
X162263600Y-110994800D02*
X167403600Y-110994800D01*
X162263600Y-113654800D02*
X167403600Y-113654800D01*
X167403600Y-113654800D02*
X167403600Y-110994800D01*
X68712700Y-107382000D02*
X68712700Y-110042000D01*
X73852700Y-107382000D02*
X68712700Y-107382000D01*
X73852700Y-110042000D02*
X68712700Y-110042000D01*
X73852700Y-107382000D02*
X73852700Y-110042000D01*
X75122700Y-107382000D02*
X76452700Y-107382000D01*
X76452700Y-107382000D02*
X76452700Y-108712000D01*
X159663600Y-116194800D02*
X159663600Y-114864800D01*
X160993600Y-116194800D02*
X159663600Y-116194800D01*
X162263600Y-116194800D02*
X162263600Y-113534800D01*
X162263600Y-113534800D02*
X167403600Y-113534800D01*
X162263600Y-116194800D02*
X167403600Y-116194800D01*
X167403600Y-116194800D02*
X167403600Y-113534800D01*
X68712700Y-104842000D02*
X68712700Y-107502000D01*
X73852700Y-104842000D02*
X68712700Y-104842000D01*
X73852700Y-107502000D02*
X68712700Y-107502000D01*
X73852700Y-104842000D02*
X73852700Y-107502000D01*
X75122700Y-104842000D02*
X76452700Y-104842000D01*
X76452700Y-104842000D02*
X76452700Y-106172000D01*
X159663600Y-118734800D02*
X159663600Y-117404800D01*
X160993600Y-118734800D02*
X159663600Y-118734800D01*
X162263600Y-118734800D02*
X162263600Y-116074800D01*
X162263600Y-116074800D02*
X167403600Y-116074800D01*
X162263600Y-118734800D02*
X167403600Y-118734800D01*
X167403600Y-118734800D02*
X167403600Y-116074800D01*
X68687700Y-102302000D02*
X68687700Y-104962000D01*
X73827700Y-102302000D02*
X68687700Y-102302000D01*
X73827700Y-104962000D02*
X68687700Y-104962000D01*
X73827700Y-102302000D02*
X73827700Y-104962000D01*
X75097700Y-102302000D02*
X76427700Y-102302000D01*
X76427700Y-102302000D02*
X76427700Y-103632000D01*
X159663600Y-121274800D02*
X159663600Y-119944800D01*
X160993600Y-121274800D02*
X159663600Y-121274800D01*
X162263600Y-121274800D02*
X162263600Y-118614800D01*
X162263600Y-118614800D02*
X167403600Y-118614800D01*
X162263600Y-121274800D02*
X167403600Y-121274800D01*
X167403600Y-121274800D02*
X167403600Y-118614800D01*
X68687700Y-99762000D02*
X68687700Y-102422000D01*
X73827700Y-99762000D02*
X68687700Y-99762000D01*
X73827700Y-102422000D02*
X68687700Y-102422000D01*
X73827700Y-99762000D02*
X73827700Y-102422000D01*
X75097700Y-99762000D02*
X76427700Y-99762000D01*
X76427700Y-99762000D02*
X76427700Y-101092000D01*
X133647600Y-110425100D02*
X132147600Y-110425100D01*
X135147600Y-107205100D02*
X132147600Y-107205100D01*
X127090000Y-98830000D02*
X127090000Y-97030000D01*
X123870000Y-97030000D02*
X123870000Y-99480000D01*
D11*
X165395000Y-97265000D02*
X155665000Y-97265000D01*
X165395000Y-92235000D02*
X155665000Y-92235000D01*
D12*
X166783630Y-94607000D02*
G75*
G03*
X166783630Y-94607000I-106630J0D01*
G01*
D11*
X165255000Y-126675000D02*
X155525000Y-126675000D01*
X165255000Y-121645000D02*
X155525000Y-121645000D01*
D12*
X166643630Y-124017000D02*
G75*
G03*
X166643630Y-124017000I-106630J0D01*
G01*
X69667030Y-126025400D02*
G75*
G03*
X69667030Y-126025400I-106630J0D01*
G01*
D11*
X70842400Y-128397400D02*
X80572400Y-128397400D01*
X70842400Y-123367400D02*
X80572400Y-123367400D01*
D12*
X69590830Y-96409000D02*
G75*
G03*
X69590830Y-96409000I-106630J0D01*
G01*
D11*
X70766200Y-98781000D02*
X80496200Y-98781000D01*
X70766200Y-93751000D02*
X80496200Y-93751000D01*
D10*
X164707100Y-89411800D02*
X162422100Y-89411800D01*
X164707100Y-90881800D02*
X164707100Y-89411800D01*
X162422100Y-90881800D02*
X164707100Y-90881800D01*
X162229000Y-129563400D02*
X164514000Y-129563400D01*
X162229000Y-128093400D02*
X162229000Y-129563400D01*
X164514000Y-128093400D02*
X162229000Y-128093400D01*
X71440000Y-128605000D02*
X69155000Y-128605000D01*
X69155000Y-128605000D02*
X69155000Y-130075000D01*
X69155000Y-130075000D02*
X71440000Y-130075000D01*
X71200000Y-92065000D02*
X68915000Y-92065000D01*
X68915000Y-92065000D02*
X68915000Y-93535000D01*
X68915000Y-93535000D02*
X71200000Y-93535000D01*
X115701600Y-129407600D02*
X115701600Y-128207600D01*
X113851600Y-129407600D02*
X115701600Y-129407600D01*
X113851600Y-128207600D02*
X115701600Y-128207600D01*
X115952800Y-128207600D02*
X115952800Y-129407600D01*
X117802800Y-128207600D02*
X115952800Y-128207600D01*
X117802800Y-129407600D02*
X115952800Y-129407600D01*
X148880000Y-135615000D02*
X146595000Y-135615000D01*
X146595000Y-135615000D02*
X146595000Y-137085000D01*
X146595000Y-137085000D02*
X148880000Y-137085000D01*
X126332500Y-105275000D02*
X128617500Y-105275000D01*
X128617500Y-105275000D02*
X128617500Y-103805000D01*
X128617500Y-103805000D02*
X126332500Y-103805000D01*
X134467500Y-102345000D02*
X132182500Y-102345000D01*
X134467500Y-103815000D02*
X134467500Y-102345000D01*
X132182500Y-103815000D02*
X134467500Y-103815000D01*
X88315000Y-116612500D02*
X88315000Y-114327500D01*
X88315000Y-114327500D02*
X86845000Y-114327500D01*
X86845000Y-114327500D02*
X86845000Y-116612500D01*
X144142064Y-95690000D02*
X142937936Y-95690000D01*
X144142064Y-97510000D02*
X142937936Y-97510000D01*
X144146284Y-104251940D02*
X142942156Y-104251940D01*
X144146284Y-102431940D02*
X142942156Y-102431940D01*
X110690000Y-116538922D02*
X110690000Y-117056078D01*
X109270000Y-116538922D02*
X109270000Y-117056078D01*
X142190000Y-133077936D02*
X142190000Y-134282064D01*
X139470000Y-133077936D02*
X139470000Y-134282064D01*
X145328400Y-133080336D02*
X145328400Y-134284464D01*
X142608400Y-133080336D02*
X142608400Y-134284464D01*
X144141464Y-99769700D02*
X142937336Y-99769700D01*
X144141464Y-97949700D02*
X142937336Y-97949700D01*
X144139984Y-102009140D02*
X142935856Y-102009140D01*
X144139984Y-100189140D02*
X142935856Y-100189140D01*
X123208578Y-104410000D02*
X122691422Y-104410000D01*
X123208578Y-102990000D02*
X122691422Y-102990000D01*
X123208578Y-102520000D02*
X122691422Y-102520000D01*
X123208578Y-101100000D02*
X122691422Y-101100000D01*
X129157000Y-100446638D02*
X129157000Y-99929482D01*
X130577000Y-100446638D02*
X130577000Y-99929482D01*
X127257080Y-100446878D02*
X127257080Y-99929722D01*
X128677080Y-100446878D02*
X128677080Y-99929722D01*
M02*
